<?xml version="1.0" encoding="UTF-8"?>
<svg xmlns="http://www.w3.org/2000/svg" viewBox="0 0 267 140" width="267" height="140">
  <title>07 Conglomerate</title>
  <path fill="#111111" fill-rule="nonzero" d="
    M180,1h1v1h-1z M187,1h2v1h-2z M195,1h6v1h-6z M209,1h1v1h-1z M212,1h53v1h-53z M3,2h10v1h-10z M14,2h251v1h-251z M1,3h265v2h-265z M1,5h201v1h-201z M204,5h22v1h-22z M243,5h4v1h-4z M1,6h101v1h-101z M104,6h8v1h-8z M114,6h7v1h-7z M126,6h7v1h-7z M134,6h2v1h-2z M140,6h5v1h-5z M146,6h2v1h-2z M149,6h7v1h-7z M164,6h4v1h-4z M174,6h2v1h-2z M195,6h2v1h-2z M206,6h1v1h-1z M227,5h15v2h-15z M246,6h2v1h-2z M261,5h5v2h-5z M1,7h5v1h-5z M29,7h5v1h-5z M50,7h10v1h-10z M88,7h13v1h-13z M115,7h6v1h-6z M127,7h5v1h-5z M141,7h3v1h-3z M150,7h4v1h-4z M175,7h1v1h-1z M179,6h10v2h-10z M194,7h4v1h-4z M226,7h16v1h-16z M1,8h4v1h-4z M10,8h4v1h-4z M29,8h4v1h-4z M81,7h1v2h-1z M87,8h15v1h-15z M105,7h3v2h-3z M112,8h3v1h-3z M116,8h6v1h-6z M124,8h7v1h-7z M141,8h1v1h-1z M150,8h3v1h-3z M165,7h3v2h-3z M185,8h5v1h-5z M204,7h4v2h-4z M218,6h4v3h-4z M226,8h10v1h-10z M238,8h4v1h-4z M256,5h3v4h-3z M7,9h9v1h-9z M22,9h3v1h-3z M30,9h2v1h-2z M40,9h2v1h-2z M49,8h11v2h-11z M65,9h6v1h-6z M72,9h4v1h-4z M86,9h16v1h-16z M111,9h19v1h-19z M135,9h3v1h-3z M150,9h4v1h-4z M156,9h1v1h-1z M161,9h7v1h-7z M174,8h3v2h-3z M193,8h5v2h-5z M205,9h3v1h-3z M219,9h2v1h-2z M228,9h7v1h-7z M246,7h4v3h-4z M257,9h2v1h-2z M0,9h5v2h-5z M6,10h11v1h-11z M48,10h6v1h-6z M93,10h9v1h-9z M112,10h3v1h-3z M117,10h12v1h-12z M134,10h4v1h-4z M148,10h15v1h-15z M175,10h1v1h-1z M179,8h4v3h-4z M186,9h4v2h-4z M195,10h3v1h-3z M238,9h5v2h-5z M0,11h18v1h-18z M22,10h4v2h-4z M32,11h2v1h-2z M57,10h3v2h-3z M64,10h13v2h-13z M81,11h1v1h-1z M85,10h5v2h-5z M93,11h6v1h-6z M119,11h9v1h-9z M135,11h3v1h-3z M144,11h19v1h-19z M180,11h4v1h-4z M187,11h3v1h-3z M230,10h4v2h-4z M237,11h5v1h-5z M252,11h1v1h-1z M0,12h12v1h-12z M13,12h5v1h-5z M32,12h3v1h-3z M56,12h5v1h-5z M64,12h12v1h-12z M81,12h2v1h-2z M86,12h12v1h-12z M121,12h5v1h-5z M131,12h1v1h-1z M136,12h1v1h-1z M143,12h21v1h-21z M180,12h10v1h-10z M203,12h11v1h-11z M230,12h10v1h-10z M262,7h4v6h-4z M0,13h10v1h-10z M14,13h4v1h-4z M31,13h5v1h-5z M48,11h5v3h-5z M55,13h5v1h-5z M69,13h6v1h-6z M81,13h3v1h-3z M87,13h10v1h-10z M102,13h2v1h-2z M136,13h3v1h-3z M142,13h23v1h-23z M170,13h2v1h-2z M181,13h9v1h-9z M194,13h3v1h-3z M200,13h18v1h-18z M221,11h2v3h-2z M230,13h9v1h-9z M250,12h4v2h-4z M263,13h3v1h-3z M13,14h5v1h-5z M32,14h4v1h-4z M48,14h12v1h-12z M63,13h5v2h-5z M69,14h4v1h-4z M88,14h8v1h-8z M101,14h6v1h-6z M130,13h3v2h-3z M137,14h11v1h-11z M159,14h6v1h-6z M182,14h7v1h-7z M194,14h4v1h-4z M199,14h23v1h-23z M230,14h8v1h-8z M245,14h2v1h-2z M251,14h2v1h-2z M1,14h9v2h-9z M12,15h5v1h-5z M33,15h1v1h-1z M63,15h10v1h-10z M88,15h7v1h-7z M98,15h10v1h-10z M120,15h1v1h-1z M130,15h2v1h-2z M137,15h9v1h-9z M161,15h5v1h-5z M169,14h4v2h-4z M182,15h6v1h-6z M195,15h11v1h-11z M212,15h10v1h-10z M229,15h8v1h-8z M244,15h4v1h-4z M252,15h1v1h-1z M6,16h10v1h-10z M49,15h10v2h-10z M63,16h9v1h-9z M97,16h12v1h-12z M119,16h3v1h-3z M138,16h6v1h-6z M170,16h3v1h-3z M183,16h4v1h-4z M197,16h5v1h-5z M216,16h7v1h-7z M228,16h7v1h-7z M239,16h2v1h-2z M244,16h5v1h-5z M251,16h3v1h-3z M7,17h8v1h-8z M26,16h2v2h-2z M50,17h8v1h-8z M64,17h7v1h-7z M96,17h7v1h-7z M105,17h4v1h-4z M118,17h5v1h-5z M137,17h6v1h-6z M176,17h3v1h-3z M197,17h4v1h-4z M217,17h7v1h-7z M244,17h14v1h-14z M7,18h7v1h-7z M27,18h1v1h-1z M43,18h4v1h-4z M51,18h1v1h-1z M65,18h5v1h-5z M95,18h6v1h-6z M105,18h5v1h-5z M118,18h4v1h-4z M137,18h5v1h-5z M174,18h6v1h-6z M186,18h2v1h-2z M196,18h4v1h-4z M221,18h4v1h-4z M228,17h4v2h-4z M245,18h16v1h-16z M262,14h4v5h-4z M9,19h2v1h-2z M56,19h2v1h-2z M67,19h1v1h-1z M73,19h5v1h-5z M105,19h4v1h-4z M115,19h7v1h-7z M127,19h3v1h-3z M136,19h6v1h-6z M173,19h8v1h-8z M186,19h4v1h-4z M196,19h5v1h-5z M222,19h4v1h-4z M238,17h3v3h-3z M245,19h21v1h-21z M1,16h4v5h-4z M28,20h8v1h-8z M42,19h5v2h-5z M55,20h4v1h-4z M71,20h8v1h-8z M94,19h5v2h-5z M104,20h5v1h-5z M114,20h9v1h-9z M126,20h4v1h-4z M136,20h4v1h-4z M162,16h4v5h-4z M172,20h9v1h-9z M185,20h5v1h-5z M196,20h6v1h-6z M243,20h7v1h-7z M256,20h10v1h-10z M14,21h2v1h-2z M25,21h13v1h-13z M44,21h2v1h-2z M55,21h5v1h-5z M69,21h12v1h-12z M84,20h4v2h-4z M103,21h5v1h-5z M113,21h10v1h-10z M127,21h3v1h-3z M135,21h5v1h-5z M161,21h5v1h-5z M171,21h11v1h-11z M186,21h3v1h-3z M194,21h9v1h-9z M223,20h4v2h-4z M242,21h7v1h-7z M257,21h9v1h-9z M1,21h8v2h-8z M13,22h3v1h-3z M24,22h15v1h-15z M55,22h4v1h-4z M68,22h13v1h-13z M85,22h2v1h-2z M94,21h4v2h-4z M100,22h8v1h-8z M112,22h11v1h-11z M135,22h4v1h-4z M160,22h6v1h-6z M187,22h1v1h-1z M193,22h11v1h-11z M222,22h5v1h-5z M242,22h5v1h-5z M1,23h7v1h-7z M13,23h4v1h-4z M22,23h18v1h-18z M56,23h2v1h-2z M66,23h7v1h-7z M77,23h5v1h-5z M94,23h12v1h-12z M134,23h5v1h-5z M160,23h5v1h-5z M193,23h5v1h-5z M200,23h6v1h-6z M221,23h6v1h-6z M241,23h5v1h-5z M13,24h3v1h-3z M21,24h8v1h-8z M35,24h7v1h-7z M65,24h6v1h-6z M94,24h10v1h-10z M120,23h4v2h-4z M134,24h4v1h-4z M159,24h5v1h-5z M179,22h4v3h-4z M194,24h3v1h-3z M201,24h6v1h-6z M219,24h7v1h-7z M232,23h4v2h-4z M258,22h8v3h-8z M21,25h6v1h-6z M37,25h6v1h-6z M64,25h5v1h-5z M95,25h8v1h-8z M112,23h5v3h-5z M119,25h5v1h-5z M129,25h1v1h-1z M158,25h5v1h-5z M171,22h4v4h-4z M178,25h4v1h-4z M202,25h23v1h-23z M233,25h3v1h-3z M240,24h4v2h-4z M257,25h9v1h-9z M20,26h6v1h-6z M38,26h6v1h-6z M63,26h5v1h-5z M98,26h3v1h-3z M112,26h11v1h-11z M156,26h6v1h-6z M172,26h9v1h-9z M204,26h20v1h-20z M256,26h10v1h-10z M8,27h2v1h-2z M19,27h5v1h-5z M39,27h6v1h-6z M63,27h4v1h-4z M113,27h10v1h-10z M124,27h1v1h-1z M133,25h5v3h-5z M154,27h7v1h-7z M172,27h8v1h-8z M187,27h1v1h-1z M206,27h16v1h-16z M239,26h4v2h-4z M7,28h3v1h-3z M18,28h5v1h-5z M40,28h5v1h-5z M62,28h5v1h-5z M78,24h4v5h-4z M94,28h1v1h-1z M114,28h5v1h-5z M153,28h7v1h-7z M173,28h7v1h-7z M184,28h6v1h-6z M210,28h9v1h-9z M238,28h4v1h-4z M256,27h5v2h-5z M262,27h4v2h-4z M6,29h4v1h-4z M17,29h6v1h-6z M41,29h5v1h-5z M115,29h3v1h-3z M134,28h4v2h-4z M152,29h7v1h-7z M182,29h9v1h-9z M230,29h2v1h-2z M7,30h2v1h-2z M17,30h5v1h-5z M77,29h4v2h-4z M124,28h4v3h-4z M135,30h3v1h-3z M150,30h8v1h-8z M164,27h3v4h-3z M182,30h10v1h-10z M207,30h2v1h-2z M229,30h4v1h-4z M237,29h4v2h-4z M16,31h5v1h-5z M42,30h4v2h-4z M62,29h4v3h-4z M75,31h6v1h-6z M85,31h3v1h-3z M93,29h3v3h-3z M101,29h4v3h-4z M125,31h2v1h-2z M135,31h5v1h-5z M148,31h8v1h-8z M182,31h9v1h-9z M218,31h5v1h-5z M228,31h5v1h-5z M236,31h5v1h-5z M54,32h2v1h-2z M62,32h5v1h-5z M74,32h6v1h-6z M85,32h4v1h-4z M94,32h1v1h-1z M102,32h1v1h-1z M135,32h8v1h-8z M145,32h9v1h-9z M181,32h10v1h-10z M206,31h4v2h-4z M217,32h7v1h-7z M229,32h4v1h-4z M256,29h10v4h-10z M41,32h5v2h-5z M62,33h18v1h-18z M85,33h3v1h-3z M123,33h1v1h-1z M136,33h17v1h-17z M172,33h3v1h-3z M182,33h9v1h-9z M197,31h4v3h-4z M207,33h2v1h-2z M216,33h8v1h-8z M230,33h1v1h-1z M15,32h5v3h-5z M40,34h5v1h-5z M53,33h4v2h-4z M63,34h15v1h-15z M79,34h2v1h-2z M107,34h11v1h-11z M138,34h13v1h-13z M155,34h2v1h-2z M172,34h4v1h-4z M182,34h8v1h-8z M198,34h2v1h-2z M216,34h9v1h-9z M1,24h4v12h-4z M39,35h6v1h-6z M55,35h2v1h-2z M64,35h13v1h-13z M79,35h3v1h-3z M105,35h16v1h-16z M138,35h10v1h-10z M154,35h3v1h-3z M173,35h2v1h-2z M183,35h6v1h-6z M216,35h8v1h-8z M236,32h4v4h-4z M255,33h5v3h-5z M0,36h5v1h-5z M37,36h7v1h-7z M65,36h8v1h-8z M79,36h4v1h-4z M94,36h2v1h-2z M103,36h20v1h-20z M141,36h1v1h-1z M155,36h1v1h-1z M217,36h6v1h-6z M254,36h5v1h-5z M1,37h5v1h-5z M15,35h4v3h-4z M35,37h9v1h-9z M65,37h3v1h-3z M80,37h2v1h-2z M93,37h4v1h-4z M102,37h22v1h-22z M166,37h2v1h-2z M194,37h6v1h-6z M208,37h3v1h-3z M217,37h5v1h-5z M236,36h3v2h-3z M252,37h6v1h-6z M1,38h8v1h-8z M12,38h1v1h-1z M14,38h5v1h-5z M33,38h9v1h-9z M46,38h8v1h-8z M64,38h3v1h-3z M101,38h6v1h-6z M118,38h7v1h-7z M190,38h12v1h-12z M208,38h4v1h-4z M219,38h1v1h-1z M251,38h6v1h-6z M262,33h4v6h-4z M1,39h9v1h-9z M11,39h9v1h-9z M32,39h10v1h-10z M45,39h10v1h-10z M65,39h1v1h-1z M85,39h5v1h-5z M94,38h3v2h-3z M100,39h5v1h-5z M120,39h6v1h-6z M132,37h2v3h-2z M157,39h6v1h-6z M165,38h3v2h-3z M187,39h17v1h-17z M208,39h3v1h-3z M236,38h4v2h-4z M249,39h7v1h-7z M261,39h5v1h-5z M1,40h19v1h-19z M31,40h8v1h-8z M44,40h12v1h-12z M73,40h1v1h-1z M84,40h7v1h-7z M122,40h5v1h-5z M155,40h11v1h-11z M174,40h2v1h-2z M186,40h19v1h-19z M232,40h2v1h-2z M236,40h6v1h-6z M246,40h9v1h-9z M259,40h7v1h-7z M0,41h15v1h-15z M16,41h7v1h-7z M29,41h9v1h-9z M44,41h6v1h-6z M51,41h5v1h-5z M82,41h10v1h-10z M154,41h12v1h-12z M184,41h9v1h-9z M199,41h7v1h-7z M216,41h3v1h-3z M237,41h17v1h-17z M7,42h5v1h-5z M17,42h17v1h-17z M44,42h5v1h-5z M82,42h5v1h-5z M142,41h3v2h-3z M152,42h8v1h-8z M161,42h5v1h-5z M174,41h3v2h-3z M183,42h8v1h-8z M201,42h6v1h-6z M216,42h4v1h-4z M231,41h4v2h-4z M237,42h15v1h-15z M258,41h8v2h-8z M0,42h5v2h-5z M7,43h4v1h-4z M18,43h15v1h-15z M45,43h4v1h-4z M72,41h3v3h-3z M89,42h4v2h-4z M123,41h4v3h-4z M143,43h1v1h-1z M151,43h7v1h-7z M174,43h2v1h-2z M182,43h6v1h-6z M203,43h5v1h-5z M217,43h2v1h-2z M232,43h2v1h-2z M239,43h11v1h-11z M261,43h5v1h-5z M0,44h11v1h-11z M18,44h14v1h-14z M45,44h5v1h-5z M53,42h4v3h-4z M71,44h3v1h-3z M89,44h5v1h-5z M100,40h4v5h-4z M122,44h5v1h-5z M150,44h6v1h-6z M162,43h4v2h-4z M181,44h5v1h-5z M204,44h4v1h-4z M240,44h9v1h-9z M1,45h9v1h-9z M21,45h9v1h-9z M45,45h12v1h-12z M70,45h4v1h-4z M82,43h4v3h-4z M88,45h6v1h-6z M100,45h5v1h-5z M121,45h5v1h-5z M150,45h5v1h-5z M161,45h5v1h-5z M179,45h6v1h-6z M204,45h5v1h-5z M223,45h5v1h-5z M241,45h4v1h-4z M254,45h2v1h-2z M1,46h8v1h-8z M23,46h5v1h-5z M36,46h3v1h-3z M44,46h13v1h-13z M68,46h9v1h-9z M82,46h11v1h-11z M100,46h6v1h-6z M120,46h6v1h-6z M132,46h6v1h-6z M150,46h4v1h-4z M160,46h6v1h-6z M178,46h6v1h-6z M221,46h10v1h-10z M241,46h2v1h-2z M253,46h3v1h-3z M1,47h7v1h-7z M35,47h4v1h-4z M43,47h13v1h-13z M65,47h13v1h-13z M82,47h10v1h-10z M101,47h6v1h-6z M118,47h6v1h-6z M132,47h7v1h-7z M150,47h5v1h-5z M158,47h7v1h-7z M178,47h5v1h-5z M220,47h12v1h-12z M1,48h5v1h-5z M36,48h3v1h-3z M42,48h5v1h-5z M49,48h6v1h-6z M64,48h5v1h-5z M70,48h8v1h-8z M83,48h8v1h-8z M102,48h9v1h-9z M115,48h8v1h-8z M150,48h14v1h-14z M169,48h3v1h-3z M205,46h4v3h-4z M220,48h5v1h-5z M228,48h5v1h-5z M240,47h3v2h-3z M254,47h1v2h-1z M43,49h3v1h-3z M51,49h1v1h-1z M63,49h5v1h-5z M75,49h5v1h-5z M86,49h3v1h-3z M94,49h2v1h-2z M103,49h19v1h-19z M131,48h8v2h-8z M151,49h11v1h-11z M169,49h4v1h-4z M177,48h5v2h-5z M241,49h2v1h-2z M252,49h4v1h-4z M1,49h4v2h-4z M24,50h3v1h-3z M44,50h2v1h-2z M62,50h6v1h-6z M84,50h2v1h-2z M104,50h17v1h-17z M152,50h8v1h-8z M169,50h3v1h-3z M204,49h5v2h-5z M219,49h4v2h-4z M229,49h4v2h-4z M250,50h7v1h-7z M43,51h4v1h-4z M83,51h3v1h-3z M93,50h3v2h-3z M105,51h13v1h-13z M132,50h7v2h-7z M153,51h5v1h-5z M176,50h5v2h-5z M204,51h4v1h-4z M212,51h2v1h-2z M219,51h6v1h-6z M227,51h6v1h-6z M249,51h10v1h-10z M7,52h3v1h-3z M23,51h4v2h-4z M42,52h7v1h-7z M56,52h2v1h-2z M62,51h5v2h-5z M76,50h4v3h-4z M82,52h3v1h-3z M94,52h2v1h-2z M105,52h9v1h-9z M126,50h3v3h-3z M134,52h4v1h-4z M176,52h4v1h-4z M203,52h5v1h-5z M220,52h12v1h-12z M248,52h11v1h-11z M262,44h4v9h-4z M23,53h3v1h-3z M32,53h1v1h-1z M41,53h9v1h-9z M62,53h18v1h-18z M83,53h2v1h-2z M148,52h3v2h-3z M175,53h5v1h-5z M202,53h5v1h-5z M221,53h10v1h-10z M236,52h3v2h-3z M247,53h5v1h-5z M254,53h5v1h-5z M7,53h4v2h-4z M40,54h11v1h-11z M63,54h16v1h-16z M84,54h1v1h-1z M104,53h5v2h-5z M165,54h4v1h-4z M201,54h6v1h-6z M211,52h3v3h-3z M223,54h6v1h-6z M236,54h2v1h-2z M246,54h6v1h-6z M255,54h4v1h-4z M261,53h5v2h-5z M12,55h2v1h-2z M31,54h3v2h-3z M40,55h5v1h-5z M46,55h5v1h-5z M55,53h4v3h-4z M63,55h15v1h-15z M105,55h3v1h-3z M119,54h3v2h-3z M163,55h8v1h-8z M201,55h4v1h-4z M246,55h5v1h-5z M254,55h5v1h-5z M47,56h5v1h-5z M56,56h2v1h-2z M66,56h5v1h-5z M73,56h4v1h-4z M94,56h2v1h-2z M119,56h4v1h-4z M142,56h8v1h-8z M199,56h6v1h-6z M246,56h4v1h-4z M253,56h5v1h-5z M20,57h8v1h-8z M40,56h4v2h-4z M47,57h4v1h-4z M85,57h3v1h-3z M140,57h12v1h-12z M162,56h10v2h-10z M198,57h6v1h-6z M220,57h2v1h-2z M230,57h2v1h-2z M246,57h5v1h-5z M253,57h4v1h-4z M12,56h3v3h-3z M18,58h11v1h-11z M40,58h11v1h-11z M93,57h4v2h-4z M103,58h7v1h-7z M127,58h7v1h-7z M162,58h4v1h-4z M168,58h4v1h-4z M176,54h4v5h-4z M197,58h6v1h-6z M219,58h3v1h-3z M229,58h4v1h-4z M247,58h10v1h-10z M0,51h5v9h-5z M16,59h15v1h-15z M61,58h4v2h-4z M84,58h4v2h-4z M94,59h2v1h-2z M102,59h10v1h-10z M126,59h9v1h-9z M139,58h14v2h-14z M162,59h10v1h-10z M176,59h5v1h-5z M196,59h6v1h-6z M220,59h1v1h-1z M230,59h2v1h-2z M240,59h1v1h-1z M247,59h9v1h-9z M0,60h4v1h-4z M14,60h17v1h-17z M41,59h9v2h-9z M62,60h2v1h-2z M70,60h2v1h-2z M86,60h1v1h-1z M99,60h14v1h-14z M125,60h10v1h-10z M149,60h4v1h-4z M157,60h2v1h-2z M162,60h9v1h-9z M177,60h5v1h-5z M194,60h7v1h-7z M206,60h2v1h-2z M239,60h3v1h-3z M248,60h7v1h-7z M6,61h2v1h-2z M13,61h9v1h-9z M25,61h7v1h-7z M43,61h4v1h-4z M70,61h3v1h-3z M98,61h16v1h-16z M139,60h5v2h-5z M147,61h6v1h-6z M163,61h8v1h-8z M177,61h6v1h-6z M192,61h8v1h-8z M238,61h4v1h-4z M250,61h4v1h-4z M0,61h5v2h-5z M7,62h1v1h-1z M12,62h7v1h-7z M28,62h5v1h-5z M97,62h7v1h-7z M108,62h7v1h-7z M140,62h5v1h-5z M146,62h7v1h-7z M156,61h4v2h-4z M164,62h6v1h-6z M178,62h10v1h-10z M189,62h9v1h-9z M205,61h4v2h-4z M238,62h3v1h-3z M1,63h4v1h-4z M10,63h6v1h-6z M28,63h6v1h-6z M58,62h3v2h-3z M110,63h5v1h-5z M124,61h5v3h-5z M131,61h4v3h-4z M140,63h12v1h-12z M157,63h2v1h-2z M179,63h18v1h-18z M206,63h3v1h-3z M229,63h3v1h-3z M0,64h5v1h-5z M9,64h6v1h-6z M29,64h5v1h-5z M59,64h1v1h-1z M96,63h6v2h-6z M111,64h5v1h-5z M141,64h10v1h-10z M182,64h15v1h-15z M225,64h10v1h-10z M247,64h3v1h-3z M256,62h3v3h-3z M9,65h5v1h-5z M38,65h3v1h-3z M95,65h5v1h-5z M119,65h2v1h-2z M125,64h10v2h-10z M141,65h5v1h-5z M158,65h2v1h-2z M184,65h12v1h-12z M221,65h20v1h-20z M256,65h1v1h-1z M8,66h6v1h-6z M30,65h4v2h-4z M37,66h4v1h-4z M47,64h4v3h-4z M61,66h9v1h-9z M94,66h5v1h-5z M112,65h4v2h-4z M118,66h4v1h-4z M126,66h8v1h-8z M142,66h5v1h-5z M152,66h12v1h-12z M179,66h3v1h-3z M194,66h2v1h-2z M211,66h3v1h-3z M220,66h23v1h-23z M247,65h4v2h-4z M8,67h5v1h-5z M29,67h5v1h-5z M38,67h3v1h-3z M48,67h1v1h-1z M59,67h13v1h-13z M84,66h4v2h-4z M93,67h6v1h-6z M119,67h3v1h-3z M128,67h4v1h-4z M140,67h7v1h-7z M150,67h15v1h-15z M195,67h1v1h-1z M210,67h4v1h-4z M218,67h10v1h-10z M230,67h15v1h-15z M255,67h2v1h-2z M8,68h4v1h-4z M28,68h6v1h-6z M57,68h17v1h-17z M78,66h2v3h-2z M86,68h2v1h-2z M92,68h5v1h-5z M120,68h1v1h-1z M140,68h26v1h-26z M202,68h4v1h-4z M211,68h2v1h-2z M217,68h6v1h-6z M234,68h11v1h-11z M254,68h4v1h-4z M7,69h5v1h-5z M27,69h6v1h-6z M54,69h20v1h-20z M90,69h6v1h-6z M111,67h5v3h-5z M134,69h2v1h-2z M140,69h15v1h-15z M161,69h5v1h-5z M178,67h5v3h-5z M200,69h8v1h-8z M217,69h5v1h-5z M238,69h1v1h-1z M241,69h5v1h-5z M254,69h3v1h-3z M7,70h4v1h-4z M25,70h7v1h-7z M44,70h2v1h-2z M52,70h10v1h-10z M67,70h8v1h-8z M90,70h5v1h-5z M109,70h7v1h-7z M133,70h3v1h-3z M140,70h3v1h-3z M144,70h9v1h-9z M162,70h4v1h-4z M179,70h3v1h-3z M188,70h1v1h-1z M198,70h11v1h-11z M242,70h4v1h-4z M254,70h2v1h-2z M6,71h5v1h-5z M24,71h8v1h-8z M44,71h3v1h-3z M49,71h10v1h-10z M70,71h6v1h-6z M89,71h5v1h-5z M108,71h10v1h-10z M126,69h3v3h-3z M134,71h2v1h-2z M144,71h7v1h-7z M162,71h5v1h-5z M188,71h2v1h-2z M197,71h12v1h-12z M216,70h5v2h-5z M242,71h5v1h-5z M255,71h3v1h-3z M262,55h4v17h-4z M6,72h4v1h-4z M21,72h9v1h-9z M46,72h12v1h-12z M88,72h6v1h-6z M107,72h12v1h-12z M135,72h1v1h-1z M143,72h6v1h-6z M163,72h4v1h-4z M174,72h6v1h-6z M188,72h1v1h-1z M196,72h14v1h-14z M216,72h4v1h-4z M241,72h5v1h-5z M7,73h4v1h-4z M20,73h10v1h-10z M46,73h10v1h-10z M88,73h5v1h-5z M106,73h7v1h-7z M143,73h5v1h-5z M162,73h5v1h-5z M172,73h10v1h-10z M205,73h9v1h-9z M238,73h7v1h-7z M252,72h14v2h-14z M7,74h5v1h-5z M18,74h11v1h-11z M44,74h9v1h-9z M82,74h2v1h-2z M105,74h7v1h-7z M116,73h2v2h-2z M171,74h11v1h-11z M196,73h5v2h-5z M204,74h11v1h-11z M216,73h5v2h-5z M235,74h9v1h-9z M251,74h15v1h-15z M8,75h16v1h-16z M43,75h7v1h-7z M81,75h3v1h-3z M89,74h4v2h-4z M101,75h11v1h-11z M114,75h5v1h-5z M131,75h1v1h-1z M162,74h4v2h-4z M168,75h16v1h-16z M197,75h12v1h-12z M210,75h12v1h-12z M232,75h12v1h-12z M250,75h6v1h-6z M259,75h7v1h-7z M8,76h14v1h-14z M42,76h7v1h-7z M81,76h4v1h-4z M89,76h5v1h-5z M98,76h24v1h-24z M130,76h4v1h-4z M162,76h5v1h-5z M168,76h7v1h-7z M178,76h6v1h-6z M189,76h3v1h-3z M197,76h10v1h-10z M210,76h6v1h-6z M217,76h6v1h-6z M230,76h11v1h-11z M250,76h5v1h-5z M260,76h6v1h-6z M9,77h11v1h-11z M41,77h6v1h-6z M72,72h4v6h-4z M83,77h2v1h-2z M90,77h35v1h-35z M129,77h5v1h-5z M137,77h3v1h-3z M142,74h5v4h-5z M162,77h12v1h-12z M180,77h5v1h-5z M189,77h4v1h-4z M198,77h8v1h-8z M212,77h4v1h-4z M218,77h22v1h-22z M244,77h3v1h-3z M250,77h4v1h-4z M258,77h9v1h-9z M10,78h8v1h-8z M40,78h4v1h-4z M71,78h5v1h-5z M83,78h4v1h-4z M89,78h37v1h-37z M131,78h2v1h-2z M137,78h4v1h-4z M143,78h5v1h-5z M162,78h10v1h-10z M181,78h5v1h-5z M189,78h3v1h-3z M200,78h4v1h-4z M212,78h22v1h-22z M250,78h16v1h-16z M39,79h4v1h-4z M70,79h6v1h-6z M81,79h31v1h-31z M116,79h1v1h-1z M118,79h9v1h-9z M138,79h3v1h-3z M143,79h7v1h-7z M162,79h9v1h-9z M182,79h4v1h-4z M201,79h1v1h-1z M211,79h22v1h-22z M244,78h4v2h-4z M251,79h15v1h-15z M79,80h24v1h-24z M104,80h6v1h-6z M122,80h5v1h-5z M139,80h12v1h-12z M153,80h2v1h-2z M156,80h14v1h-14z M183,80h4v1h-4z M201,80h2v1h-2z M209,80h31v1h-31z M245,80h3v1h-3z M252,80h8v1h-8z M261,80h5v1h-5z M20,81h1v1h-1z M36,80h7v2h-7z M70,80h5v2h-5z M76,81h21v1h-21z M99,81h10v1h-10z M138,81h32v1h-32z M184,81h3v1h-3z M200,81h5v1h-5z M207,81h16v1h-16z M227,81h14v1h-14z M253,81h4v1h-4z M19,82h3v1h-3z M70,82h14v1h-14z M85,82h1v1h-1z M89,82h9v1h-9z M100,82h8v1h-8z M123,81h5v2h-5z M137,82h34v1h-34z M200,82h4v1h-4z M207,82h6v1h-6z M217,82h5v1h-5z M227,82h17v1h-17z M20,83h1v1h-1z M29,83h2v1h-2z M37,82h5v2h-5z M69,83h13v1h-13z M90,83h17v1h-17z M122,83h5v1h-5z M129,83h2v1h-2z M136,83h28v1h-28z M167,83h5v1h-5z M184,82h4v2h-4z M199,83h4v1h-4z M206,83h5v1h-5z M226,83h19v1h-19z M250,83h2v1h-2z M8,84h2v1h-2z M28,84h4v1h-4z M36,84h5v1h-5z M68,84h11v1h-11z M93,84h8v1h-8z M102,84h5v1h-5z M120,84h7v1h-7z M135,84h7v1h-7z M149,84h13v1h-13z M167,84h8v1h-8z M183,84h5v1h-5z M190,84h20v1h-20z M218,83h4v2h-4z M224,84h9v1h-9z M240,84h7v1h-7z M249,84h3v1h-3z M256,84h3v1h-3z M262,81h4v4h-4z M29,85h3v1h-3z M68,85h10v1h-10z M95,85h6v1h-6z M103,85h5v1h-5z M116,85h10v1h-10z M129,84h3v2h-3z M134,85h6v1h-6z M151,85h5v1h-5z M160,85h1v1h-1z M166,85h44v1h-44z M217,85h5v1h-5z M223,85h7v1h-7z M241,85h11v1h-11z M9,85h1v2h-1z M29,86h2v1h-2z M67,86h10v1h-10z M96,86h5v1h-5z M103,86h7v1h-7z M113,86h13v1h-13z M131,86h1v1h-1z M133,86h6v1h-6z M152,86h4v1h-4z M159,86h3v1h-3z M165,86h45v1h-45z M215,86h14v1h-14z M243,86h9v1h-9z M261,85h5v2h-5z M36,85h4v3h-4z M67,87h9v1h-9z M104,87h24v1h-24z M133,87h5v1h-5z M152,87h5v1h-5z M165,87h4v1h-4z M172,87h21v1h-21z M202,87h26v1h-26z M244,87h6v1h-6z M255,85h5v3h-5z M67,88h8v1h-8z M97,87h5v2h-5z M105,88h25v1h-25z M166,88h1v1h-1z M173,88h8v1h-8z M185,88h6v1h-6z M204,88h22v1h-22z M255,88h4v1h-4z M15,89h8v1h-8z M35,88h4v2h-4z M66,89h9v1h-9z M96,89h8v1h-8z M105,89h26v1h-26z M133,88h4v2h-4z M158,87h4v3h-4z M167,89h1v1h-1z M173,89h3v1h-3z M185,89h5v1h-5z M206,89h19v1h-19z M246,88h4v2h-4z M14,90h10v1h-10z M65,90h9v1h-9z M95,90h19v1h-19z M125,90h12v1h-12z M164,90h7v1h-7z M184,90h5v1h-5z M206,90h6v1h-6z M213,90h2v1h-2z M219,90h5v1h-5z M245,90h7v1h-7z M13,91h11v1h-11z M64,91h10v1h-10z M94,91h6v1h-6z M101,91h11v1h-11z M127,91h10v1h-10z M153,88h4v4h-4z M163,91h10v1h-10z M184,91h4v1h-4z M205,91h6v1h-6z M220,91h5v1h-5z M243,91h10v1h-10z M0,65h4v28h-4z M13,92h6v1h-6z M20,92h5v1h-5z M36,90h4v3h-4z M62,92h12v1h-12z M93,92h6v1h-6z M102,92h8v1h-8z M129,92h8v1h-8z M162,92h12v1h-12z M177,92h3v1h-3z M183,92h5v1h-5z M204,92h7v1h-7z M220,92h7v1h-7z M242,92h11v1h-11z M1,93h3v1h-3z M31,93h2v1h-2z M37,93h4v1h-4z M61,93h7v1h-7z M92,93h6v1h-6z M102,93h6v1h-6z M130,93h7v1h-7z M152,92h5v2h-5z M162,93h5v1h-5z M168,93h6v1h-6z M184,93h4v1h-4z M202,93h10v1h-10z M220,93h11v1h-11z M238,93h14v1h-14z M262,87h4v7h-4z M13,93h4v2h-4z M21,93h4v2h-4z M30,94h4v1h-4z M37,94h5v1h-5z M60,94h7v1h-7z M70,93h4v2h-4z M90,94h7v1h-7z M101,94h6v1h-6z M130,94h8v1h-8z M151,94h6v1h-6z M162,94h4v1h-4z M184,94h5v1h-5z M201,94h12v1h-12z M221,94h25v1h-25z M255,94h11v1h-11z M13,95h11v1h-11z M31,95h2v1h-2z M37,95h6v1h-6z M59,95h7v1h-7z M71,95h4v1h-4z M88,95h7v1h-7z M100,95h6v1h-6z M131,95h11v1h-11z M148,95h9v1h-9z M162,95h5v1h-5z M169,94h5v2h-5z M184,95h7v1h-7z M199,95h7v1h-7z M209,95h4v1h-4z M218,94h2v2h-2z M223,95h22v1h-22z M250,95h16v1h-16z M14,96h10v1h-10z M37,96h7v1h-7z M57,96h8v1h-8z M71,96h5v1h-5z M87,96h7v1h-7z M99,96h5v1h-5z M130,96h25v1h-25z M162,96h11v1h-11z M176,93h6v4h-6z M186,96h8v1h-8z M197,96h7v1h-7z M217,96h3v1h-3z M225,96h20v1h-20z M248,96h18v1h-18z M8,97h3v1h-3z M14,97h9v1h-9z M37,97h8v1h-8z M54,97h10v1h-10z M72,97h5v1h-5z M83,97h10v1h-10z M98,97h5v1h-5z M130,97h4v1h-4z M137,97h16v1h-16z M164,97h8v1h-8z M177,97h3v1h-3z M187,97h17v1h-17z M224,97h16v1h-16z M242,97h4v1h-4z M247,97h19v1h-19z M0,94h4v5h-4z M7,98h4v1h-4z M16,98h6v1h-6z M31,98h1v1h-1z M37,98h11v1h-11z M50,98h12v1h-12z M72,98h19v1h-19z M129,98h5v1h-5z M139,98h14v1h-14z M166,98h4v1h-4z M188,98h13v1h-13z M203,98h3v1h-3z M221,98h34v1h-34z M260,98h6v1h-6z M41,99h19v1h-19z M66,98h3v2h-3z M74,99h15v1h-15z M127,99h7v1h-7z M157,98h1v2h-1z M159,99h1v1h-1z M167,99h2v1h-2z M175,98h3v2h-3z M190,99h10v1h-10z M219,99h33v1h-33z M1,99h10v2h-10z M30,99h3v2h-3z M43,100h15v1h-15z M67,100h2v1h-2z M75,100h12v1h-12z M94,98h9v3h-9z M119,100h14v1h-14z M141,100h1v1h-1z M174,100h4v1h-4z M193,100h5v1h-5z M203,99h4v2h-4z M212,100h1v1h-1z M217,100h11v1h-11z M237,100h14v1h-14z M31,101h1v1h-1z M45,101h11v1h-11z M76,101h2v1h-2z M79,101h3v1h-3z M99,101h4v1h-4z M116,101h16v1h-16z M141,101h3v1h-3z M168,101h1v1h-1z M175,101h2v1h-2z M187,101h1v1h-1z M189,101h1v1h-1z M194,101h4v1h-4z M204,101h2v1h-2z M212,101h2v1h-2z M217,101h7v1h-7z M238,101h12v1h-12z M0,101h12v2h-12z M20,100h3v3h-3z M46,102h5v1h-5z M99,102h5v1h-5z M112,102h19v1h-19z M140,102h9v1h-9z M156,102h9v1h-9z M184,102h14v1h-14z M216,102h6v1h-6z M0,103h13v1h-13z M38,103h2v1h-2z M46,103h4v1h-4z M70,103h1v1h-1z M72,103h1v1h-1z M74,103h2v1h-2z M100,103h29v1h-29z M140,103h10v1h-10z M153,103h15v1h-15z M183,103h14v1h-14z M214,103h7v1h-7z M56,104h1v1h-1z M69,104h15v1h-15z M101,104h18v1h-18z M141,104h2v1h-2z M145,104h5v1h-5z M152,104h18v1h-18z M182,104h14v1h-14z M202,104h7v1h-7z M214,104h5v1h-5z M239,102h10v3h-10z M9,104h5v2h-5z M37,104h4v2h-4z M47,104h2v2h-2z M67,105h17v1h-17z M102,105h15v1h-15z M122,104h3v2h-3z M132,104h3v2h-3z M146,105h25v1h-25z M182,105h5v1h-5z M200,105h10v1h-10z M213,105h6v1h-6z M239,105h4v1h-4z M0,104h5v3h-5z M9,106h6v1h-6z M38,106h3v1h-3z M54,105h4v2h-4z M66,106h17v1h-17z M87,104h3v3h-3z M98,106h1v1h-1z M104,106h9v1h-9z M132,106h2v1h-2z M148,106h24v1h-24z M182,106h4v1h-4z M190,105h4v2h-4z M200,106h18v1h-18z M238,106h5v1h-5z M244,105h4v2h-4z M0,107h7v1h-7z M8,107h9v1h-9z M47,107h10v1h-10z M64,107h8v1h-8z M76,107h7v1h-7z M88,107h1v1h-1z M97,107h3v1h-3z M122,106h4v2h-4z M146,107h8v1h-8z M168,107h5v1h-5z M176,107h2v1h-2z M181,107h5v1h-5z M189,107h5v1h-5z M199,107h18v1h-18z M0,108h18v1h-18z M23,108h7v1h-7z M46,108h9v1h-9z M64,108h6v1h-6z M78,108h5v1h-5z M123,108h2v1h-2z M145,108h6v1h-6z M169,108h4v1h-4z M176,108h3v1h-3z M182,108h11v1h-11z M198,108h5v1h-5z M209,108h7v1h-7z M237,107h5v2h-5z M244,107h5v2h-5z M1,109h11v1h-11z M13,109h5v1h-5z M21,109h12v1h-12z M64,109h5v1h-5z M79,109h3v1h-3z M91,109h2v1h-2z M96,108h4v2h-4z M111,109h3v1h-3z M144,109h6v1h-6z M170,109h4v1h-4z M177,109h2v1h-2z M182,109h10v1h-10z M198,109h4v1h-4z M236,109h5v1h-5z M244,109h6v1h-6z M1,110h10v1h-10z M15,110h1v1h-1z M20,110h15v1h-15z M45,109h11v2h-11z M63,110h5v1h-5z M97,110h3v1h-3z M111,110h4v1h-4z M143,110h6v1h-6z M170,110h5v1h-5z M183,110h8v1h-8z M209,109h8v2h-8z M235,110h5v1h-5z M245,110h6v1h-6z M262,99h4v12h-4z M0,111h9v1h-9z M18,111h18v1h-18z M44,111h5v1h-5z M52,111h4v1h-4z M91,110h3v2h-3z M110,111h5v1h-5z M142,111h6v1h-6z M184,111h6v1h-6z M197,110h5v2h-5z M208,111h9v1h-9z M234,111h7v1h-7z M246,111h8v1h-8z M261,111h5v1h-5z M0,112h8v1h-8z M16,112h7v1h-7z M31,112h6v1h-6z M43,112h5v1h-5z M79,110h4v3h-4z M91,112h2v1h-2z M111,112h3v1h-3z M134,110h2v3h-2z M141,112h6v1h-6z M186,112h2v1h-2z M198,112h21v1h-21z M233,112h9v1h-9z M248,112h18v1h-18z M15,113h7v1h-7z M32,113h7v1h-7z M43,113h6v1h-6z M53,112h4v2h-4z M78,113h5v1h-5z M122,113h3v1h-3z M140,113h6v1h-6z M193,113h3v1h-3z M199,113h13v1h-13z M213,113h6v1h-6z M232,113h5v1h-5z M249,113h17v1h-17z M0,113h9v2h-9z M14,114h7v1h-7z M33,114h7v1h-7z M43,114h14v1h-14z M63,111h4v4h-4z M121,114h4v1h-4z M139,114h5v1h-5z M171,111h4v4h-4z M186,114h2v1h-2z M193,114h4v1h-4z M200,114h12v1h-12z M215,114h5v1h-5z M231,114h5v1h-5z M239,113h3v2h-3z M251,114h15v1h-15z M0,115h8v1h-8z M13,115h6v1h-6z M35,115h6v1h-6z M44,115h12v1h-12z M63,115h5v1h-5z M78,114h4v2h-4z M104,115h6v1h-6z M122,115h3v1h-3z M139,115h4v1h-4z M170,115h5v1h-5z M186,115h3v1h-3z M194,115h3v1h-3z M202,115h5v1h-5z M209,115h4v1h-4z M216,115h5v1h-5z M252,115h14v1h-14z M1,116h4v1h-4z M12,116h6v1h-6z M37,116h5v1h-5z M44,116h11v1h-11z M64,116h6v1h-6z M76,116h6v1h-6z M103,116h11v1h-11z M123,116h1v1h-1z M178,116h1v1h-1z M186,116h2v1h-2z M195,116h1v1h-1z M216,116h6v1h-6z M230,115h5v2h-5z M249,116h3v1h-3z M261,116h5v1h-5z M11,117h6v1h-6z M38,117h4v1h-4z M44,117h10v1h-10z M59,117h1v1h-1z M65,117h17v1h-17z M89,117h2v1h-2z M102,117h12v1h-12z M138,116h4v2h-4z M170,116h4v2h-4z M209,116h5v2h-5z M218,117h5v1h-5z M229,117h7v1h-7z M243,117h2v1h-2z M250,117h3v1h-3z M257,117h9v1h-9z M11,118h5v1h-5z M38,118h15v1h-15z M65,118h16v1h-16z M101,118h14v1h-14z M168,118h5v1h-5z M177,117h3v2h-3z M209,118h4v1h-4z M218,118h17v1h-17z M242,118h6v1h-6z M251,118h1v1h-1z M256,118h10v1h-10z M38,119h10v1h-10z M58,118h3v2h-3z M66,119h14v1h-14z M100,119h5v1h-5z M110,119h5v1h-5z M167,119h6v1h-6z M191,119h3v1h-3z M210,119h3v1h-3z M219,119h15v1h-15z M241,119h8v1h-8z M255,119h11v1h-11z M11,119h4v2h-4z M39,120h8v1h-8z M58,120h4v1h-4z M69,120h9v1h-9z M88,118h4v3h-4z M99,120h5v1h-5z M110,120h4v1h-4z M137,118h4v3h-4z M167,120h5v1h-5z M188,120h8v1h-8z M210,120h5v1h-5z M220,120h11v1h-11z M241,120h9v1h-9z M254,120h13v1h-13z M6,121h2v1h-2z M10,121h5v1h-5z M38,121h5v1h-5z M60,121h1v1h-1z M73,121h3v1h-3z M99,121h4v1h-4z M109,121h5v1h-5z M137,121h6v1h-6z M165,121h5v1h-5z M187,121h10v1h-10z M209,121h7v1h-7z M222,121h8v1h-8z M234,121h2v1h-2z M240,121h11v1h-11z M6,122h9v1h-9z M38,122h4v1h-4z M99,122h5v1h-5z M108,122h6v1h-6z M131,122h2v1h-2z M138,122h15v1h-15z M164,122h6v1h-6z M187,122h11v1h-11z M209,122h8v1h-8z M240,122h5v1h-5z M247,122h4v1h-4z M255,121h12v2h-12z M1,117h3v7h-3z M11,123h6v1h-6z M37,123h5v1h-5z M72,122h4v2h-4z M99,123h14v1h-14z M123,121h3v3h-3z M131,123h3v1h-3z M139,123h30v1h-30z M208,123h10v1h-10z M232,122h4v2h-4z M239,123h5v1h-5z M255,123h11v1h-11z M6,123h4v2h-4z M12,124h6v1h-6z M36,124h5v1h-5z M100,124h12v1h-12z M140,124h27v1h-27z M186,123h5v2h-5z M194,123h4v2h-4z M207,124h5v1h-5z M222,124h2v1h-2z M233,124h3v1h-3z M256,124h10v1h-10z M1,124h4v2h-4z M6,125h1v1h-1z M13,125h12v1h-12z M34,125h6v1h-6z M50,125h2v1h-2z M73,124h3v2h-3z M88,125h3v1h-3z M101,125h10v1h-10z M115,125h1v1h-1z M142,125h24v1h-24z M172,125h5v1h-5z M180,125h3v1h-3z M187,125h10v1h-10z M220,125h4v1h-4z M248,123h4v3h-4z M257,125h9v1h-9z M14,126h25v1h-25z M49,126h4v1h-4z M88,126h4v1h-4z M103,126h5v1h-5z M109,126h1v1h-1z M126,126h1v1h-1z M158,126h7v1h-7z M170,126h8v1h-8z M180,126h4v1h-4z M187,126h9v1h-9z M207,125h4v2h-4z M214,124h4v3h-4z M220,126h5v1h-5z M239,124h4v3h-4z M247,126h5v1h-5z M261,126h5v1h-5z M16,127h22v1h-22z M49,127h5v1h-5z M63,127h1v1h-1z M88,127h3v1h-3z M114,126h2v2h-2z M124,127h8v1h-8z M160,127h4v1h-4z M180,127h3v1h-3z M188,127h7v1h-7z M207,127h5v1h-5z M213,127h5v1h-5z M220,127h4v1h-4z M231,127h2v1h-2z M239,127h13v1h-13z M19,128h19v1h-19z M45,128h1v1h-1z M50,128h3v1h-3z M62,128h3v1h-3z M88,128h2v1h-2z M98,128h4v1h-4z M123,128h10v1h-10z M142,128h2v1h-2z M155,128h2v1h-2z M161,128h2v1h-2z M190,128h3v1h-3z M208,128h9v1h-9z M222,128h1v1h-1z M228,128h7v1h-7z M240,128h11v1h-11z M0,126h4v4h-4z M8,129h3v1h-3z M21,129h15v1h-15z M37,129h1v1h-1z M55,129h3v1h-3z M61,129h5v1h-5z M77,129h2v1h-2z M96,129h7v1h-7z M122,129h13v1h-13z M199,127h3v3h-3z M208,129h8v1h-8z M226,129h10v1h-10z M241,129h9v1h-9z M1,130h3v1h-3z M7,130h4v1h-4z M21,130h4v1h-4z M44,129h3v2h-3z M53,130h13v1h-13z M95,130h10v1h-10z M121,130h6v1h-6z M129,130h6v1h-6z M142,129h3v2h-3z M154,129h4v2h-4z M168,127h11v4h-11z M209,130h7v1h-7z M225,130h12v1h-12z M242,130h5v1h-5z M0,131h4v1h-4z M8,131h3v1h-3z M22,131h3v1h-3z M37,130h3v2h-3z M45,131h2v1h-2z M52,131h13v1h-13z M93,131h13v1h-13z M130,131h6v1h-6z M143,131h1v1h-1z M154,131h3v1h-3z M168,131h10v1h-10z M212,131h5v1h-5z M225,131h13v1h-13z M253,130h3v2h-3z M22,132h2v1h-2z M50,132h14v1h-14z M76,130h3v3h-3z M92,132h7v1h-7z M100,132h6v1h-6z M132,132h4v1h-4z M155,132h1v1h-1z M214,132h3v1h-3z M224,132h7v1h-7z M233,132h5v1h-5z M254,132h2v1h-2z M262,127h4v6h-4z M0,132h5v2h-5z M36,132h4v2h-4z M49,133h7v1h-7z M57,133h7v1h-7z M78,133h1v1h-1z M92,133h6v1h-6z M101,133h6v1h-6z M121,131h5v3h-5z M131,133h6v1h-6z M169,132h8v2h-8z M211,133h1v1h-1z M214,133h4v1h-4z M223,133h18v1h-18z M242,133h1v1h-1z M244,133h13v1h-13z M258,133h2v1h-2z M261,133h5v1h-5z M0,134h6v1h-6z M22,134h1v1h-1z M37,134h4v1h-4z M48,134h7v1h-7z M58,134h8v1h-8z M68,134h4v1h-4z M74,134h11v1h-11z M89,134h19v1h-19z M110,134h1v1h-1z M112,134h30v1h-30z M143,134h123v1h-123z M0,135h265v1h-265z M1,136h263v1h-263z M1,137h249v1h-249z M252,137h9v1h-9z M2,138h86v1h-86z M89,138h15v1h-15z M107,138h10v1h-10z M118,138h2v1h-2z M122,138h12v1h-12z M136,138h5v1h-5z M145,138h1v1h-1z M153,138h1v1h-1z
  "/>
</svg>