<?xml version="1.0" encoding="UTF-8"?>
<svg xmlns="http://www.w3.org/2000/svg" viewBox="0 0 267 136" width="267" height="136">
  <title>16 Thin-bedded limestone</title>
  <path fill="#111111" fill-rule="nonzero" d="
    M4,0h166v1h-166z M171,0h2v1h-2z M175,0h16v1h-16z M198,0h4v1h-4z M206,0h20v1h-20z M242,0h14v1h-14z M258,0h2v1h-2z M2,1h263v1h-263z M1,2h264v1h-264z M1,3h265v1h-265z M0,4h6v1h-6z M12,4h10v1h-10z M26,4h2v1h-2z M35,4h15v1h-15z M54,4h12v1h-12z M77,4h2v1h-2z M99,4h1v1h-1z M102,4h8v1h-8z M111,4h2v1h-2z M120,4h2v1h-2z M131,4h1v1h-1z M142,4h6v1h-6z M149,4h117v1h-117z M0,5h5v1h-5z M261,5h5v1h-5z M0,6h4v2h-4z M238,5h4v3h-4z M0,8h5v1h-5z M44,5h4v4h-4z M105,5h4v4h-4z M174,5h4v4h-4z M239,8h3v1h-3z M262,6h4v3h-4z M0,9h6v1h-6z M24,9h2v1h-2z M43,9h6v1h-6z M61,9h3v1h-3z M70,9h6v1h-6z M105,9h5v1h-5z M174,9h5v1h-5z M238,9h5v1h-5z M261,9h5v1h-5z M0,10h153v1h-153z M154,10h112v1h-112z M0,11h266v2h-266z M0,13h5v1h-5z M10,13h1v1h-1z M45,13h3v1h-3z M60,13h2v1h-2z M68,13h3v1h-3z M75,13h6v1h-6z M104,13h2v1h-2z M110,13h2v1h-2z M124,13h1v1h-1z M138,13h14v1h-14z M154,13h61v1h-61z M216,13h20v1h-20z M237,13h13v1h-13z M251,13h15v1h-15z M139,14h4v1h-4z M208,14h4v1h-4z M261,14h5v1h-5z M0,14h4v2h-4z M140,15h3v2h-3z M209,15h3v2h-3z M0,16h5v2h-5z M208,17h3v1h-3z M0,18h4v1h-4z M208,18h4v1h-4z M0,19h5v1h-5z M76,14h4v6h-4z M139,17h4v3h-4z M208,19h3v1h-3z M262,15h4v5h-4z M0,20h6v1h-6z M27,20h1v1h-1z M32,20h4v1h-4z M59,20h1v1h-1z M75,20h6v1h-6z M139,20h5v1h-5z M208,20h4v1h-4z M261,20h5v1h-5z M0,21h222v1h-222z M223,21h2v1h-2z M226,21h2v1h-2z M235,21h31v1h-31z M0,22h266v1h-266z M0,23h33v1h-33z M34,23h232v1h-232z M0,24h6v1h-6z M26,24h5v1h-5z M42,24h9v1h-9z M52,24h4v1h-4z M60,24h7v1h-7z M77,24h3v1h-3z M81,24h1v1h-1z M90,24h7v1h-7z M99,24h7v1h-7z M118,24h1v1h-1z M125,24h3v1h-3z M132,24h2v1h-2z M139,24h4v1h-4z M145,24h47v1h-47z M194,24h19v1h-19z M216,24h2v1h-2z M221,24h45v1h-45z M261,25h5v1h-5z M222,25h4v2h-4z M0,25h5v3h-5z M26,25h4v3h-4z M223,27h3v1h-3z M262,26h4v2h-4z M156,25h4v4h-4z M261,28h5v1h-5z M0,28h4v2h-4z M27,28h4v2h-4z M91,25h4v5h-4z M0,30h5v1h-5z M26,30h5v1h-5z M90,30h6v1h-6z M156,29h5v2h-5z M222,28h4v3h-4z M262,29h4v2h-4z M0,31h145v1h-145z M147,31h6v1h-6z M155,31h11v1h-11z M169,31h59v1h-59z M229,31h3v1h-3z M233,31h10v1h-10z M245,31h15v1h-15z M261,31h5v1h-5z M0,32h266v2h-266z M0,34h6v1h-6z M8,34h4v1h-4z M32,34h3v1h-3z M38,34h7v1h-7z M50,34h23v1h-23z M76,34h190v1h-190z M118,35h5v1h-5z M197,35h1v1h-1z M200,35h8v1h-8z M261,35h5v1h-5z M119,36h3v1h-3z M201,36h5v1h-5z M262,36h4v1h-4z M119,37h4v1h-4z M262,37h3v1h-3z M119,38h3v4h-3z M262,38h4v4h-4z M0,35h5v8h-5z M52,35h4v8h-4z M119,42h4v1h-4z M202,37h4v6h-4z M261,42h5v1h-5z M0,43h6v1h-6z M8,43h22v1h-22z M31,43h36v1h-36z M68,43h2v1h-2z M74,43h10v1h-10z M85,43h3v1h-3z M90,43h5v1h-5z M97,43h27v1h-27z M127,43h2v1h-2z M202,43h5v1h-5z M260,43h6v1h-6z M0,44h266v3h-266z M26,47h16v1h-16z M45,47h6v1h-6z M73,47h4v1h-4z M78,47h1v1h-1z M80,47h2v1h-2z M83,47h16v1h-16z M100,47h4v1h-4z M109,47h5v1h-5z M119,47h4v1h-4z M126,47h2v1h-2z M135,47h2v1h-2z M143,47h28v1h-28z M178,47h7v1h-7z M188,47h9v1h-9z M200,47h6v1h-6z M210,47h10v1h-10z M221,47h12v1h-12z M235,47h3v1h-3z M241,47h4v1h-4z M251,47h5v1h-5z M258,47h8v1h-8z M26,48h5v1h-5z M154,48h5v1h-5z M227,48h5v1h-5z M261,48h5v2h-5z M27,49h3v3h-3z M228,49h3v3h-3z M27,52h4v1h-4z M86,48h4v5h-4z M155,49h3v4h-3z M227,52h5v1h-5z M262,50h4v3h-4z M0,47h5v7h-5z M26,53h5v1h-5z M48,53h2v1h-2z M86,53h5v1h-5z M154,53h5v1h-5z M227,53h6v1h-6z M242,53h2v1h-2z M261,53h5v1h-5z M0,54h266v3h-266z M0,57h7v1h-7z M9,57h21v1h-21z M31,57h16v1h-16z M50,57h8v1h-8z M60,57h2v1h-2z M63,57h3v1h-3z M68,57h29v1h-29z M99,57h17v1h-17z M117,57h149v1h-149z M118,58h5v1h-5z M186,58h5v1h-5z M244,58h5v2h-5z M261,58h5v2h-5z M119,59h4v2h-4z M119,61h3v1h-3z M245,60h4v5h-4z M0,58h5v8h-5z M53,58h4v9h-4z M246,65h3v2h-3z M0,66h4v2h-4z M52,67h5v1h-5z M119,62h4v6h-4z M187,59h4v9h-4z M245,67h4v1h-4z M262,60h4v8h-4z M0,68h5v1h-5z M26,68h8v1h-8z M36,68h3v1h-3z M40,68h2v1h-2z M47,68h3v1h-3z M52,68h7v1h-7z M64,68h3v1h-3z M70,68h3v1h-3z M94,68h1v1h-1z M99,68h1v1h-1z M118,68h6v1h-6z M187,68h5v1h-5z M245,68h5v1h-5z M261,68h5v1h-5z M0,69h266v3h-266z M6,72h12v1h-12z M25,72h15v1h-15z M41,72h10v1h-10z M52,72h1v1h-1z M55,72h5v1h-5z M63,72h7v1h-7z M72,72h1v1h-1z M75,72h3v1h-3z M81,72h46v1h-46z M128,72h10v1h-10z M140,72h2v1h-2z M144,72h3v1h-3z M148,72h6v1h-6z M157,72h15v1h-15z M173,72h72v1h-72z M246,72h3v1h-3z M250,72h16v1h-16z M0,72h5v2h-5z M128,73h5v1h-5z M175,73h5v1h-5z M261,73h5v1h-5z M0,74h4v1h-4z M175,74h4v1h-4z M231,73h5v2h-5z M0,75h5v3h-5z M66,73h4v5h-4z M129,74h4v4h-4z M176,75h3v3h-3z M232,75h4v3h-4z M262,74h4v4h-4z M0,78h6v1h-6z M43,78h1v1h-1z M45,78h5v1h-5z M66,78h5v1h-5z M129,78h5v1h-5z M175,78h5v1h-5z M231,78h5v1h-5z M261,78h5v1h-5z M0,79h266v3h-266z M0,82h35v1h-35z M36,82h14v1h-14z M52,82h6v1h-6z M60,82h1v1h-1z M63,82h3v1h-3z M67,82h2v1h-2z M71,82h3v1h-3z M75,82h3v1h-3z M79,82h7v1h-7z M90,82h8v1h-8z M104,82h7v1h-7z M118,82h6v1h-6z M125,82h1v1h-1z M129,82h1v1h-1z M131,82h2v1h-2z M135,82h23v1h-23z M162,82h8v1h-8z M171,82h9v1h-9z M181,82h1v1h-1z M184,82h7v1h-7z M196,82h70v1h-70z M19,83h6v1h-6z M146,83h5v1h-5z M211,83h5v1h-5z M261,83h5v1h-5z M20,84h4v1h-4z M81,83h4v2h-4z M0,83h5v3h-5z M20,85h5v1h-5z M80,85h5v1h-5z M146,84h4v2h-4z M212,84h4v2h-4z M262,84h4v2h-4z M0,86h8v1h-8z M9,86h79v1h-79z M89,86h52v1h-52z M142,86h9v1h-9z M153,86h1v1h-1z M159,86h3v1h-3z M175,86h1v1h-1z M180,86h4v1h-4z M186,86h3v1h-3z M190,86h1v1h-1z M192,86h1v1h-1z M211,86h6v1h-6z M218,86h10v1h-10z M231,86h4v1h-4z M236,86h2v1h-2z M242,86h1v1h-1z M247,86h1v1h-1z M251,86h1v1h-1z M255,86h4v1h-4z M260,86h6v1h-6z M0,87h266v3h-266z M57,90h1v1h-1z M79,90h1v1h-1z M81,90h1v1h-1z M105,90h1v1h-1z M116,90h6v1h-6z M153,90h1v1h-1z M191,90h6v1h-6z M244,90h6v1h-6z M261,90h5v1h-5z M0,90h5v2h-5z M192,91h5v1h-5z M245,91h4v3h-4z M0,92h4v3h-4z M46,90h4v5h-4z M245,94h5v1h-5z M45,95h5v1h-5z M117,91h4v5h-4z M193,92h4v4h-4z M246,95h4v1h-4z M0,95h5v2h-5z M31,96h1v1h-1z M43,96h7v1h-7z M51,96h6v1h-6z M116,96h6v1h-6z M192,96h6v1h-6z M201,96h1v1h-1z M229,96h1v1h-1z M245,96h5v1h-5z M262,91h4v6h-4z M0,97h7v1h-7z M9,97h257v1h-257z M0,98h266v2h-266z M0,100h6v1h-6z M7,100h2v1h-2z M16,100h7v1h-7z M25,100h1v1h-1z M28,100h17v1h-17z M50,100h25v1h-25z M76,100h12v1h-12z M89,100h18v1h-18z M109,100h21v1h-21z M138,100h8v1h-8z M149,100h40v1h-40z M198,100h22v1h-22z M221,100h4v1h-4z M226,100h17v1h-17z M246,100h4v1h-4z M251,100h15v1h-15z M81,101h5v1h-5z M261,101h5v1h-5z M82,102h4v1h-4z M151,101h4v2h-4z M0,101h4v3h-4z M18,101h4v3h-4z M81,103h5v2h-5z M215,101h4v5h-4z M0,104h5v3h-5z M152,103h3v4h-3z M0,107h4v1h-4z M82,105h3v3h-3z M216,106h3v2h-3z M19,104h3v5h-3z M81,108h5v1h-5z M152,107h4v2h-4z M216,108h4v1h-4z M262,102h4v7h-4z M0,108h5v2h-5z M18,109h5v1h-5z M80,109h7v1h-7z M95,109h4v1h-4z M151,109h5v1h-5z M162,109h1v1h-1z M167,109h1v1h-1z M191,109h1v1h-1z M215,109h5v1h-5z M261,109h5v1h-5z M0,110h266v1h-266z M0,111h267v2h-267z M0,113h6v1h-6z M8,113h2v1h-2z M12,113h6v1h-6z M19,113h5v1h-5z M29,113h2v1h-2z M39,113h8v1h-8z M49,113h2v1h-2z M55,113h1v1h-1z M61,113h13v1h-13z M76,113h2v1h-2z M85,113h9v1h-9z M95,113h8v1h-8z M106,113h49v1h-49z M160,113h8v1h-8z M169,113h12v1h-12z M184,113h3v1h-3z M189,113h5v1h-5z M196,113h1v1h-1z M200,113h5v1h-5z M212,113h2v1h-2z M216,113h4v1h-4z M224,113h8v1h-8z M233,113h3v1h-3z M241,113h5v1h-5z M247,113h7v1h-7z M260,113h7v1h-7z M0,114h5v1h-5z M42,114h5v1h-5z M98,114h4v1h-4z M162,114h5v1h-5z M225,114h5v1h-5z M261,114h5v1h-5z M0,115h4v1h-4z M163,115h4v1h-4z M99,115h3v2h-3z M163,116h3v1h-3z M42,115h4v3h-4z M99,117h4v1h-4z M226,115h3v3h-3z M262,115h4v3h-4z M0,116h5v3h-5z M42,118h5v1h-5z M98,118h5v1h-5z M162,117h5v2h-5z M226,118h4v1h-4z M261,118h5v1h-5z M0,119h266v1h-266z M1,120h266v1h-266z M1,121h265v1h-265z M0,122h29v1h-29z M32,122h10v1h-10z M45,122h17v1h-17z M63,122h18v1h-18z M86,122h9v1h-9z M114,122h5v1h-5z M121,122h7v1h-7z M130,122h8v1h-8z M147,122h119v1h-119z M121,123h4v1h-4z M194,123h5v1h-5z M56,123h5v2h-5z M194,124h4v2h-4z M262,123h4v3h-4z M0,123h5v4h-5z M122,124h3v3h-3z M194,126h5v1h-5z M0,127h4v1h-4z M57,125h3v4h-3z M262,126h5v3h-5z M57,129h4v1h-4z M195,127h4v3h-4z M262,129h4v1h-4z M0,128h5v3h-5z M56,130h5v1h-5z M122,127h4v4h-4z M194,130h5v1h-5z M261,130h5v1h-5z M0,131h8v1h-8z M10,131h1v1h-1z M12,131h6v1h-6z M19,131h1v1h-1z M23,131h1v1h-1z M26,131h2v1h-2z M35,131h5v1h-5z M52,131h1v1h-1z M55,131h11v1h-11z M67,131h1v1h-1z M77,131h13v1h-13z M91,131h38v1h-38z M130,131h9v1h-9z M141,131h5v1h-5z M147,131h15v1h-15z M169,131h9v1h-9z M181,131h21v1h-21z M207,131h1v1h-1z M210,131h2v1h-2z M214,131h4v1h-4z M219,131h7v1h-7z M230,131h4v1h-4z M239,131h5v1h-5z M248,131h18v1h-18z M0,132h266v2h-266z M1,134h264v1h-264z M2,135h2v1h-2z M5,135h48v1h-48z M56,135h1v1h-1z M58,135h8v1h-8z M68,135h6v1h-6z M77,135h4v1h-4z M82,135h2v1h-2z M87,135h7v1h-7z M96,135h10v1h-10z M108,135h2v1h-2z M111,135h3v1h-3z M116,135h4v1h-4z M123,135h2v1h-2z M130,135h2v1h-2z M136,135h5v1h-5z M147,135h11v1h-11z M159,135h1v1h-1z M162,135h17v1h-17z M180,135h7v1h-7z M189,135h21v1h-21z M212,135h9v1h-9z M222,135h9v1h-9z M234,135h20v1h-20z M255,135h3v1h-3z M259,135h1v1h-1z
  "/>
</svg>