<?xml version="1.0" encoding="UTF-8"?>
<svg xmlns="http://www.w3.org/2000/svg" viewBox="0 0 254 138" width="254" height="138">
  <title>53 Bedded lava andesitic</title>
  <path fill="#111111" fill-rule="nonzero" d="
    M2,0h3v1h-3z M186,0h12v1h-12z M199,0h1v1h-1z M201,0h52v1h-52z M1,1h23v1h-23z M25,1h4v1h-4z M101,1h5v1h-5z M110,1h143v1h-143z M1,2h253v1h-253z M1,3h252v1h-252z M1,4h154v1h-154z M157,4h12v1h-12z M174,4h8v1h-8z M185,4h17v1h-17z M0,5h5v1h-5z M35,5h4v1h-4z M43,5h64v1h-64z M110,5h2v1h-2z M124,5h2v1h-2z M194,5h5v1h-5z M234,4h9v2h-9z M51,6h4v1h-4z M92,6h2v1h-2z M188,5h4v2h-4z M194,6h4v1h-4z M234,6h10v1h-10z M249,4h4v3h-4z M51,7h3v1h-3z M57,6h4v2h-4z M86,6h3v2h-3z M141,7h1v1h-1z M146,7h1v1h-1z M168,7h6v1h-6z M187,7h4v1h-4z M193,7h5v1h-5z M50,8h5v1h-5z M56,8h5v1h-5z M91,7h3v2h-3z M140,8h4v1h-4z M145,8h3v1h-3z M160,8h21v1h-21z M186,8h5v1h-5z M193,8h4v1h-4z M233,7h20v2h-20z M0,6h4v4h-4z M27,9h7v1h-7z M50,9h10v1h-10z M85,8h4v2h-4z M90,9h5v1h-5z M140,9h8v1h-8z M160,9h37v1h-37z M216,9h4v1h-4z M232,9h21v1h-21z M1,10h3v1h-3z M16,10h24v1h-24z M48,10h12v1h-12z M84,10h15v1h-15z M116,10h22v1h-22z M139,10h9v1h-9z M160,10h39v1h-39z M210,10h10v1h-10z M232,10h10v1h-10z M13,11h47v1h-47z M83,11h20v1h-20z M110,11h38v1h-38z M162,11h1v1h-1z M174,11h46v1h-46z M232,11h3v1h-3z M248,10h5v2h-5z M12,12h47v1h-47z M83,12h65v1h-65z M175,12h1v1h-1z M184,12h34v1h-34z M236,11h4v2h-4z M9,13h8v1h-8z M36,13h16v1h-16z M83,13h4v1h-4z M89,13h31v1h-31z M127,13h4v1h-4z M132,13h17v1h-17z M174,13h3v1h-3z M193,13h20v1h-20z M232,12h2v2h-2z M236,13h3v1h-3z M8,14h6v1h-6z M48,14h4v1h-4z M83,14h3v1h-3z M90,14h2v1h-2z M98,14h20v1h-20z M137,14h13v1h-13z M173,14h4v1h-4z M197,14h2v1h-2z M200,14h12v1h-12z M6,15h6v1h-6z M69,15h8v1h-8z M82,15h3v1h-3z M102,15h8v1h-8z M137,15h19v1h-19z M167,15h4v1h-4z M172,15h5v1h-5z M249,12h4v4h-4z M0,11h4v6h-4z M6,16h4v1h-4z M18,16h3v1h-3z M23,16h2v1h-2z M54,13h4v4h-4z M59,16h26v1h-26z M137,16h3v1h-3z M141,16h36v1h-36z M202,15h5v2h-5z M208,15h4v2h-4z M234,16h19v1h-19z M17,17h4v1h-4z M23,17h3v1h-3z M55,17h34v1h-34z M114,17h3v1h-3z M120,17h1v1h-1z M138,17h1v1h-1z M141,17h4v1h-4z M149,17h28v1h-28z M201,17h5v1h-5z M227,17h26v1h-26z M1,17h4v2h-4z M23,18h4v1h-4z M56,18h37v1h-37z M113,18h5v1h-5z M119,18h3v1h-3z M142,18h2v1h-2z M152,18h24v1h-24z M201,18h4v1h-4z M207,17h5v2h-5z M221,18h32v1h-32z M16,18h5v2h-5z M22,19h5v1h-5z M57,19h3v1h-3z M61,19h2v1h-2z M83,19h39v1h-39z M157,19h13v1h-13z M206,19h36v1h-36z M243,19h10v1h-10z M16,20h4v1h-4z M22,20h6v1h-6z M88,20h34v1h-34z M171,19h5v2h-5z M200,19h4v2h-4z M206,20h28v1h-28z M247,20h6v1h-6z M1,19h3v3h-3z M15,21h5v1h-5z M21,21h22v1h-22z M90,21h19v1h-19z M111,21h11v1h-11z M136,21h2v1h-2z M140,21h5v1h-5z M171,21h6v1h-6z M179,21h8v1h-8z M199,21h4v1h-4z M205,21h20v1h-20z M21,22h25v1h-25z M92,22h1v1h-1z M95,22h1v1h-1z M135,22h14v1h-14z M164,20h5v3h-5z M170,22h24v1h-24z M199,22h3v1h-3z M205,22h5v1h-5z M213,22h6v1h-6z M15,22h4v2h-4z M21,23h5v1h-5z M29,23h2v1h-2z M34,23h16v1h-16z M112,22h9v2h-9z M135,23h2v1h-2z M139,23h14v1h-14z M164,23h38v1h-38z M206,23h2v1h-2z M14,24h5v1h-5z M21,24h4v1h-4z M41,24h13v1h-13z M74,24h6v1h-6z M141,24h59v1h-59z M21,25h2v1h-2z M45,25h14v1h-14z M61,25h2v1h-2z M65,25h15v1h-15z M112,24h8v2h-8z M148,25h28v1h-28z M187,25h13v1h-13z M14,25h4v2h-4z M21,26h1v1h-1z M49,26h31v1h-31z M92,26h2v1h-2z M111,26h4v1h-4z M116,26h3v1h-3z M154,26h17v1h-17z M195,26h5v1h-5z M249,21h4v6h-4z M14,27h3v1h-3z M54,27h20v1h-20z M86,27h3v1h-3z M91,27h3v1h-3z M105,27h4v1h-4z M110,27h8v1h-8z M158,27h6v1h-6z M248,27h5v1h-5z M15,28h1v1h-1z M60,28h2v1h-2z M85,28h10v1h-10z M99,28h20v1h-20z M239,28h14v1h-14z M85,29h40v1h-40z M126,29h10v1h-10z M225,29h2v1h-2z M236,29h17v1h-17z M51,30h4v1h-4z M57,30h3v1h-3z M84,30h52v1h-52z M224,30h29v1h-29z M29,31h17v1h-17z M51,31h9v1h-9z M82,31h18v1h-18z M115,31h21v1h-21z M142,31h3v1h-3z M192,31h7v1h-7z M223,31h17v1h-17z M248,31h5v1h-5z M21,32h39v1h-39z M80,32h16v1h-16z M121,32h13v1h-13z M141,32h5v1h-5z M147,32h2v1h-2z M191,32h13v1h-13z M222,32h16v1h-16z M16,33h44v1h-44z M82,33h11v1h-11z M141,33h9v1h-9z M164,33h4v1h-4z M193,33h23v1h-23z M217,33h17v1h-17z M12,34h21v1h-21z M45,34h14v1h-14z M140,34h33v1h-33z M188,34h3v1h-3z M193,34h39v1h-39z M11,35h14v1h-14z M49,35h10v1h-10z M83,34h9v2h-9z M139,35h37v1h-37z M187,35h4v1h-4z M193,35h4v1h-4z M203,35h27v1h-27z M11,36h5v1h-5z M49,36h4v1h-4z M54,36h5v1h-5z M84,36h2v1h-2z M88,36h3v1h-3z M139,36h40v1h-40z M187,36h10v1h-10z M208,36h21v1h-21z M50,37h3v1h-3z M54,37h4v1h-4z M88,37h2v1h-2z M113,37h3v1h-3z M139,37h13v1h-13z M171,37h11v1h-11z M186,37h10v1h-10z M222,37h1v1h-1z M224,37h5v1h-5z M50,38h1v1h-1z M54,38h3v1h-3z M76,38h15v1h-15z M112,38h8v1h-8z M139,38h10v1h-10z M174,38h22v1h-22z M226,38h2v1h-2z M249,32h4v7h-4z M55,39h2v1h-2z M71,39h23v1h-23z M112,39h9v1h-9z M139,39h4v1h-4z M144,39h4v1h-4z M177,39h20v1h-20z M207,39h2v1h-2z M227,39h17v1h-17z M248,39h5v1h-5z M55,40h1v1h-1z M69,40h28v1h-28z M111,40h14v1h-14z M138,40h4v1h-4z M181,40h29v1h-29z M227,40h26v1h-26z M19,41h3v1h-3z M25,41h2v1h-2z M48,41h15v1h-15z M64,41h14v1h-14z M80,41h20v1h-20z M111,41h17v1h-17z M138,41h3v1h-3z M144,40h3v2h-3z M182,41h28v1h-28z M228,41h25v1h-25z M18,42h5v1h-5z M24,42h4v1h-4z M48,42h22v1h-22z M92,42h11v1h-11z M111,42h20v1h-20z M144,42h2v1h-2z M183,42h25v1h-25z M229,42h2v1h-2z M242,42h11v1h-11z M18,43h11v1h-11z M49,43h18v1h-18z M95,43h12v1h-12z M110,43h9v1h-9z M124,43h9v1h-9z M184,43h1v1h-1z M189,43h4v1h-4z M248,43h5v1h-5z M10,44h5v1h-5z M16,44h15v1h-15z M51,44h1v1h-1z M54,44h7v1h-7z M99,44h15v1h-15z M115,44h4v1h-4z M127,44h9v1h-9z M160,44h5v1h-5z M188,44h5v1h-5z M8,45h30v1h-30z M101,45h13v1h-13z M116,45h2v1h-2z M130,45h36v1h-36z M188,45h4v1h-4z M9,46h33v1h-33z M106,46h8v1h-8z M132,46h33v1h-33z M190,46h2v1h-2z M10,47h3v1h-3z M16,47h11v1h-11z M30,47h15v1h-15z M110,47h2v1h-2z M135,47h25v1h-25z M218,47h2v1h-2z M0,22h4v27h-4z M16,48h5v1h-5z M22,48h5v1h-5z M37,48h11v1h-11z M65,48h2v1h-2z M70,48h3v1h-3z M165,48h3v1h-3z M216,48h5v1h-5z M222,48h19v1h-19z M249,44h4v5h-4z M22,49h4v1h-4z M40,49h12v1h-12z M64,49h4v1h-4z M69,49h5v1h-5z M171,49h2v1h-2z M216,49h37v1h-37z M16,49h4v2h-4z M23,50h3v1h-3z M43,50h18v1h-18z M62,50h12v1h-12z M164,49h4v2h-4z M199,50h1v1h-1z M210,50h2v1h-2z M213,50h40v1h-40z M16,51h3v1h-3z M23,51h2v1h-2z M47,51h27v1h-27z M95,51h1v1h-1z M100,51h1v1h-1z M163,51h5v1h-5z M169,50h5v2h-5z M198,51h55v1h-55z M17,52h1v1h-1z M50,52h23v1h-23z M94,52h3v1h-3z M99,52h3v1h-3z M162,52h12v1h-12z M199,52h26v1h-26z M244,52h9v1h-9z M62,53h10v1h-10z M93,53h9v1h-9z M152,53h28v1h-28z M204,53h20v1h-20z M63,54h9v1h-9z M93,54h18v1h-18z M147,54h38v1h-38z M213,54h10v1h-10z M248,53h5v2h-5z M23,55h10v1h-10z M34,55h3v1h-3z M63,55h4v1h-4z M92,55h31v1h-31z M128,55h3v1h-3z M134,55h3v1h-3z M147,55h25v1h-25z M173,55h15v1h-15z M214,55h3v1h-3z M219,55h4v1h-4z M246,55h7v1h-7z M14,56h26v1h-26z M63,56h3v1h-3z M68,55h3v2h-3z M88,56h44v1h-44z M133,56h5v1h-5z M148,56h1v1h-1z M160,56h11v1h-11z M175,56h16v1h-16z M214,56h2v1h-2z M220,56h2v1h-2z M240,56h2v1h-2z M245,56h8v1h-8z M12,57h28v1h-28z M64,57h1v1h-1z M68,57h2v1h-2z M81,57h26v1h-26z M108,57h30v1h-30z M161,57h3v1h-3z M167,57h3v1h-3z M182,57h14v1h-14z M240,57h13v1h-13z M8,58h20v1h-20z M34,58h5v1h-5z M79,58h22v1h-22z M117,58h22v1h-22z M161,58h2v1h-2z M167,58h2v1h-2z M187,58h23v1h-23z M238,58h15v1h-15z M8,59h11v1h-11z M51,59h4v1h-4z M79,59h8v1h-8z M88,59h12v1h-12z M124,59h16v1h-16z M191,59h20v1h-20z M236,59h17v1h-17z M7,60h7v1h-7z M51,60h7v1h-7z M59,60h2v1h-2z M80,60h5v1h-5z M90,60h9v1h-9z M125,60h25v1h-25z M197,60h13v1h-13z M233,60h20v1h-20z M8,61h1v1h-1z M50,61h17v1h-17z M91,61h3v1h-3z M95,61h4v1h-4z M125,61h5v1h-5z M131,61h20v1h-20z M188,61h2v1h-2z M205,61h1v1h-1z M231,61h22v1h-22z M1,49h3v14h-3z M36,62h3v1h-3z M51,62h19v1h-19z M96,62h2v1h-2z M131,62h4v1h-4z M139,62h12v1h-12z M188,62h3v1h-3z M193,62h1v1h-1z M228,62h19v1h-19z M36,63h4v1h-4z M41,63h2v1h-2z M58,63h20v1h-20z M126,62h2v2h-2z M130,63h4v1h-4z M187,63h8v1h-8z M226,63h9v1h-9z M238,63h2v1h-2z M35,64h9v1h-9z M68,64h16v1h-16z M131,64h2v1h-2z M186,64h10v1h-10z M222,64h11v1h-11z M242,63h3v2h-3z M21,65h8v1h-8z M34,65h10v1h-10z M72,65h20v1h-20z M114,65h2v1h-2z M185,65h10v1h-10z M218,65h12v1h-12z M0,63h5v4h-5z M20,66h24v1h-24z M74,66h43v1h-43z M181,66h14v1h-14z M215,66h12v1h-12z M1,67h4v1h-4z M21,67h23v1h-23z M79,67h38v1h-38z M153,67h4v1h-4z M159,67h3v1h-3z M173,67h21v1h-21z M212,67h13v1h-13z M26,68h22v1h-22z M91,68h21v1h-21z M129,68h20v1h-20z M152,68h12v1h-12z M165,68h29v1h-29z M212,68h9v1h-9z M1,68h3v2h-3z M32,69h19v1h-19z M128,69h50v1h-50z M183,69h10v1h-10z M0,70h4v1h-4z M32,70h24v1h-24z M128,70h3v1h-3z M135,70h39v1h-39z M183,70h9v1h-9z M249,62h4v9h-4z M1,71h3v1h-3z M38,71h2v1h-2z M45,71h18v1h-18z M76,71h5v1h-5z M146,71h21v1h-21z M184,71h3v1h-3z M189,71h3v1h-3z M234,71h10v1h-10z M248,71h5v1h-5z M48,72h34v1h-34z M150,72h5v1h-5z M156,72h6v1h-6z M189,72h2v1h-2z M1,72h4v2h-4z M53,73h31v1h-31z M112,73h3v1h-3z M117,73h2v1h-2z M150,73h4v1h-4z M189,73h9v1h-9z M217,73h3v1h-3z M233,72h20v2h-20z M1,74h6v1h-6z M12,74h4v1h-4z M17,74h3v1h-3z M31,74h2v1h-2z M61,74h24v1h-24z M86,74h4v1h-4z M111,74h9v1h-9z M150,74h3v1h-3z M156,73h4v2h-4z M189,74h20v1h-20z M216,74h5v1h-5z M222,74h3v1h-3z M234,74h2v1h-2z M241,74h12v1h-12z M1,75h21v1h-21z M25,75h21v1h-21z M105,75h3v1h-3z M109,75h12v1h-12z M151,75h1v1h-1z M156,75h3v1h-3z M190,75h22v1h-22z M215,75h10v1h-10z M248,75h5v1h-5z M81,75h9v2h-9z M97,76h31v1h-31z M155,76h4v1h-4z M198,76h27v1h-27z M1,76h46v2h-46z M81,77h10v1h-10z M92,77h41v1h-41z M156,77h7v1h-7z M206,77h19v1h-19z M249,76h4v2h-4z M9,78h20v1h-20z M80,78h57v1h-57z M156,78h13v1h-13z M209,78h17v1h-17z M248,78h5v1h-5z M0,78h5v2h-5z M10,79h10v1h-10z M53,79h3v1h-3z M58,79h3v1h-3z M80,79h24v1h-24z M109,79h9v1h-9z M125,79h15v1h-15z M157,79h16v1h-16z M183,79h3v1h-3z M189,79h1v1h-1z M212,79h22v1h-22z M242,79h11v1h-11z M53,80h9v1h-9z M79,80h16v1h-16z M109,80h8v1h-8z M128,80h16v1h-16z M160,80h20v1h-20z M182,80h5v1h-5z M188,80h4v1h-4z M213,80h40v1h-40z M10,80h3v2h-3z M14,80h5v2h-5z M79,81h9v1h-9z M108,81h4v1h-4z M115,81h1v1h-1z M133,81h16v1h-16z M165,81h29v1h-29z M213,81h2v1h-2z M220,81h33v1h-33z M1,80h4v3h-4z M11,82h1v1h-1z M15,82h3v1h-3z M52,81h9v2h-9z M85,82h2v1h-2z M109,82h2v1h-2z M139,82h14v1h-14z M170,82h2v1h-2z M174,82h22v1h-22z M229,82h24v1h-24z M15,83h2v1h-2z M39,83h22v1h-22z M79,82h3v2h-3z M141,83h15v1h-15z M177,83h19v1h-19z M234,83h3v1h-3z M248,83h5v1h-5z M31,84h32v1h-32z M79,84h2v1h-2z M100,84h1v1h-1z M104,84h1v1h-1z M142,84h15v1h-15z M180,84h11v1h-11z M192,84h2v1h-2z M0,83h5v3h-5z M21,85h2v1h-2z M27,85h46v1h-46z M74,85h3v1h-3z M78,85h4v1h-4z M86,85h20v1h-20z M141,85h5v1h-5z M147,85h1v1h-1z M151,85h4v1h-4z M180,85h10v1h-10z M0,86h6v1h-6z M20,86h24v1h-24z M45,86h2v1h-2z M48,86h12v1h-12z M61,86h45v1h-45z M140,86h8v1h-8z M179,86h10v1h-10z M237,86h3v1h-3z M1,87h6v1h-6z M20,87h14v1h-14z M50,87h3v1h-3z M54,87h4v1h-4z M72,87h34v1h-34z M137,87h12v1h-12z M178,87h5v1h-5z M200,87h21v1h-21z M236,87h6v1h-6z M1,88h9v1h-9z M21,88h3v1h-3z M55,88h2v1h-2z M73,88h19v1h-19z M125,88h25v1h-25z M173,88h1v1h-1z M175,88h7v1h-7z M184,87h4v2h-4z M196,88h35v1h-35z M235,88h8v1h-8z M249,84h4v5h-4z M1,89h13v1h-13z M120,89h33v1h-33z M170,89h10v1h-10z M184,89h60v1h-60z M247,89h6v1h-6z M0,90h19v1h-19z M116,90h61v1h-61z M185,90h18v1h-18z M208,90h3v1h-3z M218,90h35v1h-35z M0,91h5v1h-5z M8,91h15v1h-15z M51,91h3v1h-3z M56,91h4v1h-4z M97,91h2v1h-2z M103,91h1v1h-1z M112,91h19v1h-19z M138,91h37v1h-37z M185,91h9v1h-9z M229,91h24v1h-24z M11,92h25v1h-25z M40,92h1v1h-1z M46,92h17v1h-17z M96,92h4v1h-4z M101,92h3v1h-3z M109,92h14v1h-14z M142,92h5v1h-5z M151,92h21v1h-21z M186,92h6v1h-6z M232,92h21v1h-21z M17,93h45v1h-45z M87,93h3v1h-3z M94,93h26v1h-26z M142,93h4v1h-4z M164,93h4v1h-4z M232,93h8v1h-8z M246,93h1v1h-1z M19,94h40v1h-40z M86,94h30v1h-30z M142,94h3v1h-3z M235,94h4v1h-4z M24,95h2v1h-2z M29,95h23v1h-23z M86,95h25v1h-25z M143,95h1v1h-1z M236,95h2v1h-2z M1,92h4v5h-4z M24,96h3v1h-3z M31,96h1v1h-1z M33,96h2v1h-2z M40,96h4v1h-4z M93,96h12v1h-12z M146,96h8v1h-8z M156,96h2v1h-2z M24,97h4v1h-4z M30,97h3v1h-3z M94,97h9v1h-9z M146,97h20v1h-20z M205,97h1v1h-1z M208,97h4v1h-4z M24,98h10v1h-10z M93,98h9v1h-9z M146,98h23v1h-23z M203,98h9v1h-9z M224,98h18v1h-18z M249,93h4v6h-4z M15,99h20v1h-20z M93,99h3v1h-3z M152,99h26v1h-26z M200,99h12v1h-12z M224,99h22v1h-22z M248,99h5v1h-5z M1,97h3v4h-3z M7,100h33v1h-33z M74,100h8v1h-8z M98,99h3v2h-3z M123,100h5v1h-5z M129,100h5v1h-5z M159,100h53v1h-53z M226,100h27v1h-27z M7,101h38v1h-38z M73,101h15v1h-15z M108,101h4v1h-4z M114,101h20v1h-20z M160,101h51v1h-51z M233,101h3v1h-3z M239,101h14v1h-14z M7,102h9v1h-9z M21,102h11v1h-11z M35,102h16v1h-16z M64,102h3v1h-3z M74,102h22v1h-22z M97,102h39v1h-39z M160,102h10v1h-10z M174,102h37v1h-37z M242,102h11v1h-11z M22,103h3v1h-3z M26,103h5v1h-5z M37,103h19v1h-19z M63,103h6v1h-6z M79,103h64v1h-64z M159,103h11v1h-11z M186,103h6v1h-6z M194,103h1v1h-1z M198,103h12v1h-12z M245,103h2v1h-2z M23,104h1v1h-1z M43,104h15v1h-15z M59,104h1v1h-1z M62,104h9v1h-9z M84,104h27v1h-27z M122,104h27v1h-27z M158,104h12v1h-12z M205,104h4v1h-4z M248,103h5v2h-5z M27,104h3v2h-3z M46,105h25v1h-25z M91,105h15v1h-15z M135,105h19v1h-19z M155,105h17v1h-17z M200,104h4v2h-4z M206,105h2v1h-2z M236,105h3v1h-3z M241,105h3v1h-3z M52,106h24v1h-24z M122,105h10v2h-10z M139,106h3v1h-3z M144,106h28v1h-28z M235,106h10v1h-10z M55,107h22v1h-22z M122,107h3v1h-3z M128,107h2v1h-2z M148,107h24v1h-24z M234,107h11v1h-11z M249,105h4v3h-4z M1,101h4v8h-4z M60,108h17v1h-17z M121,108h3v1h-3z M156,108h4v1h-4z M161,108h6v1h-6z M189,108h4v1h-4z M230,108h15v1h-15z M248,108h5v1h-5z M1,109h10v1h-10z M19,109h2v1h-2z M61,109h7v1h-7z M72,109h4v1h-4z M96,109h1v1h-1z M122,109h2v1h-2z M157,109h2v1h-2z M162,109h4v1h-4z M188,109h14v1h-14z M221,109h32v1h-32z M64,110h3v1h-3z M91,110h2v1h-2z M95,110h4v1h-4z M163,110h2v1h-2z M190,110h63v1h-63z M1,110h28v2h-28z M90,111h10v1h-10z M104,111h16v1h-16z M192,111h51v1h-51z M246,111h7v1h-7z M1,112h7v1h-7z M16,112h8v1h-8z M37,112h2v1h-2z M89,112h33v1h-33z M199,112h26v1h-26z M232,112h9v1h-9z M248,112h5v1h-5z M1,113h4v1h-4z M36,113h4v1h-4z M41,113h4v1h-4z M86,113h36v1h-36z M156,113h1v1h-1z M160,113h8v1h-8z M182,113h3v1h-3z M187,113h1v1h-1z M210,113h5v1h-5z M236,113h4v1h-4z M35,114h27v1h-27z M67,114h1v1h-1z M78,114h29v1h-29z M120,114h1v1h-1z M147,114h42v1h-42z M237,114h1v1h-1z M0,114h5v2h-5z M35,115h63v1h-63z M143,115h47v1h-47z M1,116h4v1h-4z M33,116h63v1h-63z M139,116h51v1h-51z M1,117h3v1h-3z M28,117h18v1h-18z M60,117h2v1h-2z M66,117h17v1h-17z M85,117h6v1h-6z M92,117h3v1h-3z M136,117h15v1h-15z M174,117h22v1h-22z M223,117h5v1h-5z M1,118h4v1h-4z M28,118h15v1h-15z M87,118h3v1h-3z M131,118h15v1h-15z M216,118h18v1h-18z M1,119h5v1h-5z M27,119h15v1h-15z M106,119h2v1h-2z M111,119h5v1h-5z M124,119h17v1h-17z M177,118h20v2h-20z M214,119h29v1h-29z M1,120h7v1h-7z M28,120h2v1h-2z M33,120h3v1h-3z M38,120h3v1h-3z M104,120h35v1h-35z M177,120h10v1h-10z M192,120h5v1h-5z M213,120h33v1h-33z M249,113h4v8h-4z M1,121h10v1h-10z M105,121h29v1h-29z M177,121h9v1h-9z M233,121h20v1h-20z M0,122h18v1h-18z M107,122h22v1h-22z M183,122h2v1h-2z M211,121h9v2h-9z M238,122h14v1h-14z M0,123h20v1h-20z M109,123h11v1h-11z M168,123h8v1h-8z M210,123h10v1h-10z M241,123h3v1h-3z M245,123h8v1h-8z M8,124h19v1h-19z M52,124h12v1h-12z M66,124h4v1h-4z M110,124h9v1h-9z M144,124h1v1h-1z M150,124h2v1h-2z M160,124h16v1h-16z M209,124h11v1h-11z M247,124h6v1h-6z M9,125h55v1h-55z M88,125h1v1h-1z M109,125h9v1h-9z M143,125h4v1h-4z M148,125h5v1h-5z M156,125h20v1h-20z M200,125h21v1h-21z M248,125h5v1h-5z M8,126h54v1h-54z M65,125h8v2h-8z M83,126h21v1h-21z M108,126h10v1h-10z M142,126h31v1h-31z M196,126h30v1h-30z M14,127h3v1h-3z M21,127h35v1h-35z M66,127h7v1h-7z M80,127h37v1h-37z M141,127h24v1h-24z M192,127h40v1h-40z M8,127h3v2h-3z M14,128h2v1h-2z M34,128h6v1h-6z M42,128h1v1h-1z M65,128h9v1h-9z M76,128h43v1h-43z M130,128h25v1h-25z M187,128h49v1h-49z M65,129h22v1h-22z M101,129h18v1h-18z M130,129h21v1h-21z M187,129h10v1h-10z M212,129h5v1h-5z M223,129h17v1h-17z M249,126h4v4h-4z M64,130h16v1h-16z M107,130h12v1h-12z M130,130h19v1h-19z M213,130h2v1h-2z M229,130h12v1h-12z M66,131h8v1h-8z M116,131h2v1h-2z M136,131h3v1h-3z M230,131h1v1h-1z M232,131h2v1h-2z M235,131h7v1h-7z M248,130h5v2h-5z M0,124h5v9h-5z M66,132h7v1h-7z M140,131h9v2h-9z M174,132h2v1h-2z M187,132h4v1h-4z M192,132h3v1h-3z M196,132h4v1h-4z M206,132h11v1h-11z M218,132h3v1h-3z M225,132h28v1h-28z M0,133h47v1h-47z M48,133h4v1h-4z M62,133h2v1h-2z M65,133h8v1h-8z M79,133h174v1h-174z M0,134h252v1h-252z M1,135h251v1h-251z M2,136h118v1h-118z M122,136h27v1h-27z M219,136h3v1h-3z M56,137h2v1h-2z
  "/>
</svg>