<?xml version="1.0" encoding="UTF-8"?>
<svg xmlns="http://www.w3.org/2000/svg" viewBox="0 0 269 142" width="269" height="142">
  <title>23 Clayey or argillaceous limestone</title>
  <path fill="#111111" fill-rule="nonzero" d="
    M253,0h14v1h-14z M235,1h33v1h-33z M208,2h2v1h-2z M213,2h55v1h-55z M153,3h1v1h-1z M165,3h103v1h-103z M129,4h4v1h-4z M138,4h3v1h-3z M143,4h111v1h-111z M263,4h5v1h-5z M64,5h179v1h-179z M2,6h197v1h-197z M200,6h2v1h-2z M203,6h4v1h-4z M208,6h5v1h-5z M264,5h4v2h-4z M2,7h176v1h-176z M257,7h11v1h-11z M1,8h143v1h-143z M148,8h5v1h-5z M227,8h22v1h-22z M1,9h55v1h-55z M59,9h3v1h-3z M66,9h2v1h-2z M73,9h2v1h-2z M86,9h5v1h-5z M201,9h3v1h-3z M256,8h12v2h-12z M19,10h5v1h-5z M166,10h18v1h-18z M189,10h16v1h-16z M219,9h30v2h-30z M257,10h11v1h-11z M19,11h4v1h-4z M87,10h3v2h-3z M97,11h1v1h-1z M100,11h5v1h-5z M108,11h6v1h-6z M127,11h20v1h-20z M158,11h28v1h-28z M188,11h18v1h-18z M219,11h28v1h-28z M1,10h5v3h-5z M39,12h2v1h-2z M65,12h17v1h-17z M86,12h4v1h-4z M93,12h23v1h-23z M157,12h29v1h-29z M188,12h17v1h-17z M220,12h6v1h-6z M229,12h1v1h-1z M264,11h4v2h-4z M1,13h17v1h-17z M20,12h3v2h-3z M25,13h28v1h-28z M60,13h23v1h-23z M126,12h21v2h-21z M157,13h28v1h-28z M189,13h7v1h-7z M197,13h6v1h-6z M208,7h4v7h-4z M263,13h5v1h-5z M24,14h30v1h-30z M60,14h24v1h-24z M87,13h29v2h-29z M127,14h12v1h-12z M140,14h6v1h-6z M209,14h3v1h-3z M247,14h21v1h-21z M1,14h22v2h-22z M24,15h29v1h-29z M60,15h23v1h-23z M86,15h4v1h-4z M94,15h2v1h-2z M100,15h1v1h-1z M112,15h1v1h-1z M208,15h4v1h-4z M218,15h1v1h-1z M224,15h7v1h-7z M241,15h27v1h-27z M1,16h12v1h-12z M15,16h3v1h-3z M19,16h4v1h-4z M25,16h26v1h-26z M62,16h4v1h-4z M201,16h11v1h-11z M216,16h17v1h-17z M240,16h28v1h-28z M87,16h3v2h-3z M148,9h4v9h-4z M167,17h4v1h-4z M182,17h30v1h-30z M240,17h21v1h-21z M138,18h1v1h-1z M215,17h18v2h-18z M241,18h2v1h-2z M1,17h4v3h-4z M86,18h4v2h-4z M94,19h3v1h-3z M105,19h39v1h-39z M148,18h29v2h-29z M181,18h31v2h-31z M216,19h4v1h-4z M223,19h2v1h-2z M1,20h5v1h-5z M42,20h31v1h-31z M87,20h3v1h-3z M91,20h9v1h-9z M148,20h28v1h-28z M182,20h5v1h-5z M190,20h2v1h-2z M199,20h1v1h-1z M20,17h3v5h-3z M26,21h9v1h-9z M92,21h8v1h-8z M103,20h41v2h-41z M148,21h27v1h-27z M264,17h4v5h-4z M19,22h4v1h-4z M26,22h10v1h-10z M40,21h33v2h-33z M78,20h6v3h-6z M86,21h4v2h-4z M92,22h7v1h-7z M105,22h36v1h-36z M142,22h1v1h-1z M148,22h5v1h-5z M208,20h4v3h-4z M247,22h9v1h-9z M258,22h11v1h-11z M1,21h17v3h-17z M20,23h3v1h-3z M27,23h8v1h-8z M42,23h30v1h-30z M79,23h1v1h-1z M208,23h5v1h-5z M226,23h42v1h-42z M1,24h6v1h-6z M11,24h5v1h-5z M148,23h4v2h-4z M190,24h3v1h-3z M194,24h74v1h-74z M19,24h4v2h-4z M87,23h3v3h-3z M148,25h5v1h-5z M168,25h100v1h-100z M1,25h4v2h-4z M20,26h3v1h-3z M87,26h4v1h-4z M129,26h3v1h-3z M136,26h113v1h-113z M1,27h5v1h-5z M19,27h5v1h-5z M45,27h5v1h-5z M54,27h2v1h-2z M59,27h2v1h-2z M65,27h2v1h-2z M72,27h143v1h-143z M218,27h2v1h-2z M1,28h190v1h-190z M200,28h1v1h-1z M235,27h5v2h-5z M1,29h151v1h-151z M154,29h5v1h-5z M176,29h5v1h-5z M257,29h3v1h-3z M1,30h86v1h-86z M88,30h2v1h-2z M92,30h1v1h-1z M95,30h20v1h-20z M118,30h1v1h-1z M229,30h2v1h-2z M1,31h11v1h-11z M14,31h3v1h-3z M19,31h3v1h-3z M30,31h4v1h-4z M35,31h1v1h-1z M46,31h5v1h-5z M109,31h5v1h-5z M177,30h4v2h-4z M202,31h17v1h-17z M224,31h10v1h-10z M1,32h5v1h-5z M47,32h4v1h-4z M176,32h6v1h-6z M183,32h5v1h-5z M223,32h11v1h-11z M245,30h17v3h-17z M1,33h4v1h-4z M46,33h4v1h-4z M128,33h4v1h-4z M137,33h4v1h-4z M152,33h21v1h-21z M197,32h24v2h-24z M224,33h10v1h-10z M246,33h4v1h-4z M252,33h4v1h-4z M1,34h5v1h-5z M47,34h3v1h-3z M66,34h5v1h-5z M72,34h7v1h-7z M90,34h17v1h-17z M177,33h14v2h-14z M197,34h23v1h-23z M226,34h2v1h-2z M1,35h30v1h-30z M39,35h2v1h-2z M47,35h4v1h-4z M53,35h27v1h-27z M86,35h22v1h-22z M115,34h29v2h-29z M151,34h23v2h-23z M177,35h4v1h-4z M183,35h7v1h-7z M198,35h1v1h-1z M209,35h2v1h-2z M37,36h5v1h-5z M47,36h33v1h-33z M85,36h23v1h-23z M115,36h28v1h-28z M153,36h15v1h-15z M170,36h3v1h-3z M243,36h2v1h-2z M253,36h9v1h-9z M264,26h4v11h-4z M1,36h31v2h-31z M37,37h4v1h-4z M52,37h27v1h-27z M85,37h17v1h-17z M103,37h3v1h-3z M120,37h3v1h-3z M129,37h3v1h-3z M177,36h3v2h-3z M229,37h3v1h-3z M236,29h4v9h-4z M242,37h26v1h-26z M1,38h10v1h-10z M17,38h7v1h-7z M25,38h5v1h-5z M39,38h1v1h-1z M47,37h4v2h-4z M70,38h1v1h-1z M201,38h8v1h-8z M217,38h16v1h-16z M236,38h27v1h-27z M1,39h5v1h-5z M177,38h4v2h-4z M183,39h26v1h-26z M217,39h17v1h-17z M241,39h20v1h-20z M2,40h3v1h-3z M106,40h1v1h-1z M110,32h4v9h-4z M124,40h1v1h-1z M137,40h2v1h-2z M143,40h38v1h-38z M183,40h27v1h-27z M216,40h17v1h-17z M243,40h4v1h-4z M2,41h4v1h-4z M47,39h3v3h-3z M54,41h8v1h-8z M69,41h26v1h-26z M96,41h18v1h-18z M117,41h12v1h-12z M134,41h47v1h-47z M183,41h26v1h-26z M219,41h2v1h-2z M225,41h3v1h-3z M23,42h22v1h-22z M46,42h4v1h-4z M52,42h12v1h-12z M116,42h13v1h-13z M133,42h48v1h-48z M184,42h8v1h-8z M236,39h4v4h-4z M264,38h4v5h-4z M23,43h28v1h-28z M52,43h13v1h-13z M68,42h46v2h-46z M118,43h10v1h-10z M134,43h33v1h-33z M170,43h3v1h-3z M176,43h4v1h-4z M235,43h5v1h-5z M263,43h5v1h-5z M1,42h14v3h-14z M23,44h21v1h-21z M53,44h11v1h-11z M69,44h21v1h-21z M91,44h1v1h-1z M120,44h2v1h-2z M124,44h2v1h-2z M235,44h33v1h-33z M2,45h12v1h-12z M33,45h4v1h-4z M40,45h1v1h-1z M177,44h4v2h-4z M215,45h53v1h-53z M1,46h5v1h-5z M47,44h3v3h-3z M110,44h4v3h-4z M170,46h2v1h-2z M176,46h6v1h-6z M187,46h81v1h-81z M1,47h4v1h-4z M47,47h4v1h-4z M109,47h5v1h-5z M138,47h2v1h-2z M142,47h3v1h-3z M149,47h106v1h-106z M263,47h5v1h-5z M1,48h5v1h-5z M35,48h2v1h-2z M45,48h6v1h-6z M65,48h26v1h-26z M93,48h136v1h-136z M0,49h208v1h-208z M264,48h4v2h-4z M0,50h173v1h-173z M263,50h5v1h-5z M1,51h107v1h-107z M109,51h2v1h-2z M112,51h2v1h-2z M116,51h2v1h-2z M141,51h5v1h-5z M247,51h21v1h-21z M1,52h38v1h-38z M79,52h5v1h-5z M142,52h4v1h-4z M218,52h19v1h-19z M245,52h23v1h-23z M80,53h3v1h-3z M142,53h3v1h-3z M183,53h14v1h-14z M244,53h24v1h-24z M1,53h5v2h-5z M27,53h4v2h-4z M153,54h17v1h-17z M211,53h28v2h-28z M245,54h10v1h-10z M257,54h1v1h-1z M1,55h4v1h-4z M79,54h4v2h-4z M89,55h17v1h-17z M114,55h25v1h-25z M142,54h4v2h-4z M151,55h21v1h-21z M211,55h26v1h-26z M1,56h5v1h-5z M11,56h10v1h-10z M35,56h11v1h-11z M151,56h20v1h-20z M178,54h21v3h-21z M213,56h6v1h-6z M1,57h21v1h-21z M87,56h20v2h-20z M113,56h27v2h-27z M152,57h19v1h-19z M179,57h3v1h-3z M1,58h22v1h-22z M26,55h5v4h-5z M34,57h14v2h-14z M87,58h19v1h-19z M114,58h24v1h-24z M142,56h3v3h-3z M255,58h6v1h-6z M1,59h21v1h-21z M34,59h13v1h-13z M53,56h30v4h-30z M89,59h1v1h-1z M93,59h3v1h-3z M102,59h2v1h-2z M142,59h4v1h-4z M233,59h29v1h-29z M1,60h6v1h-6z M203,50h4v11h-4z M210,60h10v1h-10z M142,60h3v2h-3z M228,60h34v2h-34z M1,61h5v2h-5z M27,59h4v4h-4z M141,62h4v1h-4z M153,62h6v1h-6z M198,62h1v1h-1z M203,61h18v2h-18z M228,62h26v1h-26z M255,62h1v1h-1z M1,63h6v1h-6z M11,63h1v1h-1z M26,63h5v1h-5z M67,63h9v1h-9z M79,60h4v4h-4z M87,63h9v1h-9z M103,63h34v1h-34z M150,63h11v1h-11z M167,62h26v2h-26z M198,63h2v1h-2z M208,63h13v1h-13z M65,64h12v1h-12z M79,64h5v1h-5z M166,64h26v1h-26z M1,64h30v2h-30z M65,65h13v1h-13z M103,64h35v2h-35z M149,64h12v2h-12z M167,65h13v1h-13z M185,65h3v1h-3z M264,54h4v12h-4z M1,66h25v1h-25z M32,64h26v3h-26z M66,66h11v1h-11z M86,64h11v3h-11z M103,66h14v1h-14z M119,66h18v1h-18z M151,66h1v1h-1z M262,66h6v1h-6z M33,67h11v1h-11z M48,67h1v1h-1z M50,67h3v1h-3z M54,67h3v1h-3z M73,67h1v1h-1z M142,63h3v5h-3z M238,67h30v1h-30z M1,67h5v2h-5z M142,68h4v1h-4z M203,63h4v6h-4z M214,68h55v1h-55z M141,69h5v1h-5z M181,69h3v1h-3z M185,69h4v1h-4z M190,69h78v1h-78z M1,69h4v2h-4z M27,66h4v5h-4z M79,65h4v6h-4z M125,70h2v1h-2z M130,70h116v1h-116z M247,70h9v1h-9z M263,70h5v1h-5z M1,71h5v1h-5z M27,71h7v1h-7z M36,71h3v1h-3z M55,71h5v1h-5z M63,71h3v1h-3z M71,71h13v1h-13z M85,71h147v1h-147z M239,71h6v1h-6z M1,72h204v1h-204z M1,73h163v1h-163z M169,73h6v1h-6z M241,72h3v2h-3z M257,73h2v1h-2z M1,74h115v1h-115z M120,74h7v1h-7z M128,74h4v1h-4z M250,74h11v1h-11z M1,75h9v1h-9z M13,75h1v1h-1z M17,75h4v1h-4z M23,75h1v1h-1z M32,75h2v1h-2z M35,75h1v1h-1z M52,75h5v1h-5z M104,75h5v1h-5z M170,74h4v2h-4z M206,75h27v1h-27z M250,75h12v1h-12z M1,76h5v1h-5z M105,76h4v1h-4z M171,76h3v1h-3z M186,76h8v1h-8z M204,76h30v1h-30z M240,74h4v3h-4z M250,76h11v1h-11z M105,77h3v1h-3z M150,77h14v1h-14z M204,77h29v1h-29z M258,77h1v1h-1z M1,77h4v2h-4z M89,78h2v1h-2z M95,78h7v1h-7z M105,78h4v1h-4z M116,78h20v1h-20z M178,77h17v2h-17z M204,78h28v1h-28z M1,79h5v1h-5z M8,79h14v1h-14z M23,79h1v1h-1z M31,79h17v1h-17z M62,79h18v1h-18z M88,79h16v1h-16z M105,79h3v1h-3z M144,78h21v2h-21z M179,79h14v1h-14z M241,77h3v3h-3z M115,79h22v2h-22z M144,80h20v1h-20z M170,77h4v4h-4z M257,80h3v1h-3z M264,71h4v10h-4z M1,80h23v2h-23z M30,80h19v2h-19z M62,80h19v2h-19z M88,80h20v2h-20z M116,81h16v1h-16z M241,80h4v2h-4z M249,81h19v1h-19z M1,82h6v1h-6z M8,82h15v1h-15z M30,82h18v1h-18z M65,82h5v1h-5z M73,82h4v1h-4z M102,82h1v1h-1z M104,82h4v1h-4z M207,82h14v1h-14z M228,82h10v1h-10z M241,82h27v1h-27z M1,83h5v1h-5z M105,83h3v1h-3z M178,83h9v1h-9z M197,83h25v1h-25z M228,83h11v1h-11z M240,83h23v1h-23z M1,84h4v1h-4z M53,76h4v9h-4z M135,84h4v1h-4z M142,84h4v1h-4z M148,84h2v1h-2z M151,84h14v1h-14z M228,84h10v1h-10z M250,84h2v1h-2z M257,84h3v1h-3z M1,85h5v1h-5z M52,85h5v1h-5z M62,85h6v1h-6z M81,85h19v1h-19z M102,85h1v1h-1z M105,84h4v2h-4z M111,85h14v1h-14z M133,85h33v1h-33z M177,84h12v2h-12z M195,84h27v2h-27z M1,86h6v1h-6z M9,86h4v1h-4z M20,86h24v1h-24z M50,86h6v1h-6z M61,86h10v1h-10z M79,86h24v1h-24z M104,86h5v1h-5z M110,86h16v1h-16z M132,86h35v1h-35z M178,86h10v1h-10z M196,86h5v1h-5z M202,86h5v1h-5z M241,84h4v3h-4z M264,83h4v4h-4z M20,87h26v1h-26z M48,87h8v1h-8z M60,87h11v1h-11z M78,87h25v1h-25z M104,87h4v1h-4z M111,87h14v1h-14z M133,87h32v1h-32z M241,87h3v1h-3z M263,87h5v1h-5z M1,87h13v2h-13z M20,88h25v1h-25z M49,88h7v1h-7z M61,88h10v1h-10z M79,88h23v1h-23z M117,88h2v1h-2z M123,88h2v1h-2z M240,88h5v1h-5z M260,88h8v1h-8z M1,89h12v1h-12z M23,89h2v1h-2z M30,89h14v1h-14z M51,89h6v1h-6z M68,89h1v1h-1z M235,89h33v1h-33z M53,90h4v1h-4z M105,88h3v3h-3z M171,81h3v10h-3z M208,90h2v1h-2z M212,90h2v1h-2z M215,90h53v1h-53z M2,90h4v2h-4z M53,91h3v1h-3z M105,91h4v1h-4z M162,91h5v1h-5z M170,91h5v1h-5z M178,91h90v1h-90z M53,92h4v1h-4z M86,92h1v1h-1z M104,92h6v1h-6z M115,92h2v1h-2z M119,92h10v1h-10z M131,92h122v1h-122z M256,92h5v1h-5z M1,92h5v2h-5z M25,93h2v1h-2z M35,93h2v1h-2z M44,93h1v1h-1z M52,93h172v1h-172z M1,94h194v1h-194z M197,94h1v1h-1z M200,94h1v1h-1z M264,92h4v3h-4z M1,95h147v1h-147z M149,95h15v1h-15z M167,95h2v1h-2z M172,95h1v1h-1z M250,95h18v1h-18z M1,96h101v1h-101z M103,96h3v1h-3z M109,96h2v1h-2z M222,96h19v1h-19z M1,97h13v1h-13z M16,97h3v1h-3z M21,97h7v1h-7z M30,97h2v1h-2z M33,97h3v1h-3z M42,97h1v1h-1z M181,97h3v1h-3z M185,97h7v1h-7z M200,97h9v1h-9z M221,97h21v1h-21z M249,96h19v2h-19z M2,98h4v1h-4z M146,98h18v1h-18z M198,98h12v1h-12z M221,98h20v1h-20z M250,98h10v1h-10z M90,99h25v1h-25z M121,99h13v1h-13z M199,99h10v1h-10z M221,99h7v1h-7z M10,100h7v1h-7z M23,98h4v3h-4z M30,100h15v1h-15z M57,100h15v1h-15z M75,100h7v1h-7z M120,100h15v1h-15z M144,99h21v2h-21z M171,98h22v3h-22z M206,100h2v1h-2z M1,99h4v3h-4z M9,101h9v1h-9z M56,101h16v1h-16z M74,101h9v1h-9z M89,100h27v2h-27z M120,101h14v1h-14z M145,101h19v1h-19z M1,102h5v1h-5z M8,102h10v1h-10z M23,101h24v2h-24z M56,102h26v1h-26z M89,102h26v1h-26z M123,102h6v1h-6z M212,94h4v9h-4z M241,102h6v1h-6z M248,102h13v1h-13z M2,103h4v1h-4z M9,103h8v1h-8z M23,103h23v1h-23z M59,103h2v1h-2z M63,103h1v1h-1z M76,103h3v1h-3z M220,103h9v1h-9z M238,103h23v1h-23z M1,104h5v1h-5z M136,96h4v9h-4z M178,104h7v1h-7z M194,104h13v1h-13z M237,104h24v1h-24z M130,105h1v1h-1z M137,105h3v1h-3z M143,105h9v1h-9z M161,105h25v1h-25z M193,105h14v1h-14z M213,103h3v3h-3z M218,104h11v2h-11z M238,105h21v1h-21z M1,105h4v2h-4z M93,106h15v1h-15z M116,106h16v1h-16z M160,106h26v1h-26z M192,106h15v1h-15z M212,106h4v1h-4z M219,106h10v1h-10z M9,107h8v1h-8z M33,107h6v1h-6z M48,107h32v1h-32z M92,107h17v1h-17z M115,107h18v1h-18z M160,107h25v1h-25z M193,107h12v1h-12z M213,107h3v1h-3z M1,107h5v2h-5z M7,108h11v1h-11z M46,108h35v1h-35z M91,108h18v1h-18z M115,108h17v1h-17z M143,106h10v3h-10z M161,108h3v1h-3z M166,108h3v1h-3z M174,108h4v1h-4z M264,98h4v11h-4z M2,109h4v1h-4z M7,109h12v1h-12z M31,108h9v2h-9z M47,109h34v1h-34z M92,109h3v1h-3z M97,109h11v1h-11z M118,109h10v1h-10z M212,108h4v2h-4z M263,109h5v1h-5z M1,110h5v1h-5z M7,110h11v1h-11z M32,110h7v1h-7z M47,110h33v1h-33z M213,110h3v1h-3z M238,110h1v1h-1z M243,110h25v1h-25z M23,104h4v8h-4z M211,111h6v1h-6z M221,111h1v1h-1z M223,111h46v1h-46z M1,111h4v2h-4z M24,112h3v1h-3z M84,97h4v16h-4z M136,106h4v7h-4z M175,112h2v1h-2z M180,112h6v1h-6z M187,112h82v1h-82z M2,113h3v1h-3z M23,113h4v1h-4z M84,113h5v1h-5z M136,113h5v1h-5z M149,113h119v1h-119z M2,114h4v1h-4z M23,114h5v1h-5z M47,114h1v1h-1z M63,114h5v1h-5z M71,114h20v1h-20z M93,114h136v1h-136z M231,114h3v1h-3z M236,114h6v1h-6z M263,114h5v1h-5z M1,115h197v1h-197z M201,115h2v1h-2z M2,116h166v1h-166z M173,116h2v1h-2z M177,116h5v1h-5z M2,117h113v1h-113z M116,117h2v1h-2z M119,117h3v1h-3z M123,117h1v1h-1z M244,117h18v1h-18z M264,115h4v3h-4z M1,118h30v1h-30z M33,118h5v1h-5z M39,118h3v1h-3z M43,118h11v1h-11z M67,118h2v1h-2z M213,118h2v1h-2z M216,118h1v1h-1z M218,118h15v1h-15z M1,119h5v1h-5z M44,119h5v1h-5z M110,118h4v2h-4z M168,119h4v1h-4z M178,117h3v3h-3z M185,119h17v1h-17z M210,119h23v1h-23z M243,118h25v2h-25z M119,120h2v1h-2z M128,120h11v1h-11z M147,120h27v1h-27z M178,120h4v1h-4z M183,120h20v1h-20z M209,120h24v1h-24z M245,120h16v1h-16z M1,120h4v2h-4z M7,121h4v1h-4z M14,121h3v1h-3z M20,121h3v1h-3z M31,121h9v1h-9z M45,120h4v2h-4z M50,121h19v1h-19z M111,120h3v2h-3z M118,121h21v1h-21z M146,121h28v1h-28z M177,121h5v1h-5z M184,121h19v1h-19z M210,121h15v1h-15z M229,121h3v1h-3z M29,122h12v1h-12z M45,122h26v1h-26z M117,122h23v1h-23z M147,122h26v1h-26z M186,122h8v1h-8z M196,122h1v1h-1z M198,122h2v1h-2z M264,120h4v3h-4z M1,122h23v2h-23z M45,123h25v1h-25z M79,121h27v3h-27z M118,123h21v1h-21z M148,123h11v1h-11z M169,123h3v1h-3z M263,123h5v1h-5z M1,124h22v1h-22z M30,123h12v2h-12z M50,124h19v1h-19z M80,124h9v1h-9z M93,124h2v1h-2z M98,124h5v1h-5z M119,124h1v1h-1z M178,122h3v3h-3z M237,115h4v10h-4z M254,124h14v1h-14z M178,125h4v1h-4z M204,125h1v1h-1z M224,125h7v1h-7z M191,126h24v1h-24z M223,126h9v1h-9z M237,125h12v2h-12z M253,125h15v2h-15z M1,125h5v3h-5z M134,127h3v1h-3z M142,127h17v1h-17z M167,127h8v1h-8z M178,126h7v2h-7z M190,127h26v1h-26z M223,127h8v1h-8z M237,127h11v1h-11z M254,127h14v1h-14z M1,128h6v1h-6z M44,124h5v5h-5z M74,128h3v1h-3z M88,128h2v1h-2z M93,128h12v1h-12z M119,128h8v1h-8z M132,128h28v1h-28z M177,128h8v1h-8z M190,128h25v1h-25z M224,128h7v1h-7z M237,128h4v1h-4z M263,128h5v1h-5z M1,129h13v1h-13z M15,129h1v1h-1z M23,129h11v1h-11z M36,129h5v1h-5z M51,129h28v1h-28z M117,129h10v1h-10z M131,129h29v1h-29z M167,128h9v2h-9z M178,129h6v1h-6z M191,129h11v1h-11z M237,129h3v1h-3z M50,130h29v1h-29z M86,129h20v2h-20z M118,130h9v1h-9z M132,130h27v1h-27z M167,130h7v1h-7z M178,130h4v1h-4z M264,129h4v2h-4z M1,130h17v2h-17z M21,130h20v2h-20z M51,131h28v1h-28z M87,131h18v1h-18z M110,122h4v10h-4z M118,131h3v1h-3z M124,131h2v1h-2z M136,131h1v1h-1z M178,131h3v1h-3z M237,130h4v2h-4z M264,131h5v1h-5z M1,132h16v1h-16z M23,132h18v1h-18z M45,129h4v4h-4z M53,132h2v1h-2z M75,132h1v1h-1z M236,132h5v1h-5z M243,132h1v1h-1z M250,132h18v1h-18z M1,133h5v1h-5z M178,132h4v2h-4z M225,133h1v1h-1z M231,133h1v1h-1z M234,133h34v1h-34z M111,132h3v3h-3z M177,134h6v1h-6z M185,134h83v1h-83z M1,134h4v2h-4z M45,133h3v3h-3z M110,135h4v1h-4z M146,135h4v1h-4z M152,135h115v1h-115z M1,136h5v1h-5z M44,136h5v1h-5z M75,136h3v1h-3z M97,136h9v1h-9z M109,136h146v1h-146z M1,137h230v1h-230z M1,138h195v1h-195z M2,139h146v1h-146z M151,139h6v1h-6z M159,139h9v1h-9z M2,140h106v1h-106z M112,140h2v1h-2z M116,140h2v1h-2z M128,140h1v1h-1z M4,141h2v1h-2z M9,141h2v1h-2z M13,141h4v1h-4z M19,141h12v1h-12z
  "/>
</svg>