<?xml version="1.0" encoding="UTF-8"?>
<svg xmlns="http://www.w3.org/2000/svg" viewBox="0 0 272 141" width="272" height="141">
  <title>19 Dolomite</title>
  <path fill="#111111" fill-rule="nonzero" d="
    M10,0h20v1h-20z M5,1h92v1h-92z M104,1h1v1h-1z M4,2h149v1h-149z M154,2h2v1h-2z M168,2h2v1h-2z M3,3h199v1h-199z M213,3h2v1h-2z M224,3h1v1h-1z M229,3h1v1h-1z M3,4h9v1h-9z M17,4h241v1h-241z M260,4h5v1h-5z M3,5h5v1h-5z M56,5h9v1h-9z M85,5h2v1h-2z M91,5h5v1h-5z M108,5h6v1h-6z M118,5h152v1h-152z M58,6h6v1h-6z M147,6h6v1h-6z M157,6h8v1h-8z M166,6h6v1h-6z M173,6h98v1h-98z M58,7h5v1h-5z M147,7h5v1h-5z M208,7h5v1h-5z M220,7h5v1h-5z M226,7h45v1h-45z M57,8h5v1h-5z M147,8h4v1h-4z M227,8h5v1h-5z M262,8h9v1h-9z M57,9h4v1h-4z M227,9h4v1h-4z M56,10h4v1h-4z M146,9h5v2h-5z M226,10h5v1h-5z M55,11h5v1h-5z M145,11h5v1h-5z M226,11h4v1h-4z M55,12h4v1h-4z M144,12h6v1h-6z M225,12h4v1h-4z M54,13h4v1h-4z M144,13h5v1h-5z M224,13h5v1h-5z M53,14h5v1h-5z M143,14h5v1h-5z M223,14h5v1h-5z M53,15h4v1h-4z M142,15h5v1h-5z M223,15h4v1h-4z M3,6h4v11h-4z M53,16h3v1h-3z M142,16h4v1h-4z M222,16h4v1h-4z M221,17h5v1h-5z M51,17h4v2h-4z M141,17h4v2h-4z M221,18h4v1h-4z M3,17h5v3h-5z M50,19h5v1h-5z M140,19h5v1h-5z M219,19h5v1h-5z M3,20h54v1h-54z M60,20h11v1h-11z M74,20h5v1h-5z M85,20h1v1h-1z M139,20h5v1h-5z M219,20h4v1h-4z M3,21h142v1h-142z M147,21h1v1h-1z M150,21h1v1h-1z M218,21h5v1h-5z M3,22h211v1h-211z M217,22h6v1h-6z M228,22h2v1h-2z M268,9h4v14h-4z M3,23h269v1h-269z M18,24h6v1h-6z M66,24h1v1h-1z M68,24h204v1h-204z M3,24h5v2h-5z M18,25h5v1h-5z M89,25h6v1h-6z M123,25h5v1h-5z M130,25h1v1h-1z M133,25h2v1h-2z M136,25h136v1h-136z M18,26h4v1h-4z M89,26h5v1h-5z M177,26h2v1h-2z M181,26h7v1h-7z M192,26h1v1h-1z M200,26h14v1h-14z M215,26h17v1h-17z M233,26h39v1h-39z M4,26h4v2h-4z M17,27h5v1h-5z M89,27h4v1h-4z M181,27h5v1h-5z M250,27h7v1h-7z M262,27h1v1h-1z M264,27h8v1h-8z M17,28h4v1h-4z M88,28h5v1h-5z M181,28h4v1h-4z M250,28h5v1h-5z M4,28h3v2h-3z M16,29h4v1h-4z M88,29h4v1h-4z M180,29h5v1h-5z M250,29h4v1h-4z M15,30h5v1h-5z M87,30h4v1h-4z M179,30h5v1h-5z M249,30h5v1h-5z M14,31h5v1h-5z M86,31h5v1h-5z M179,31h4v1h-4z M248,31h5v1h-5z M85,32h5v1h-5z M178,32h4v1h-4z M248,32h4v1h-4z M13,32h5v2h-5z M85,33h4v1h-4z M177,33h4v1h-4z M4,30h4v5h-4z M12,34h5v1h-5z M84,34h5v1h-5z M176,34h5v1h-5z M247,33h4v2h-4z M11,35h5v1h-5z M83,35h5v1h-5z M176,35h4v1h-4z M246,35h4v1h-4z M11,36h4v1h-4z M83,36h4v1h-4z M175,36h5v1h-5z M245,36h4v1h-4z M3,35h5v3h-5z M10,37h5v1h-5z M82,37h4v1h-4z M174,37h5v1h-5z M244,37h5v1h-5z M3,38h12v1h-12z M81,38h5v1h-5z M174,38h4v1h-4z M3,39h67v1h-67z M80,39h6v1h-6z M87,39h1v1h-1z M173,39h5v1h-5z M243,38h5v2h-5z M3,40h132v1h-132z M157,40h1v1h-1z M172,40h6v1h-6z M242,40h5v1h-5z M3,41h163v1h-163z M167,41h39v1h-39z M215,41h2v1h-2z M241,41h6v1h-6z M268,28h4v14h-4z M3,42h260v1h-260z M264,42h8v1h-8z M29,43h1v1h-1z M44,43h1v1h-1z M47,43h8v1h-8z M62,43h210v1h-210z M48,44h6v1h-6z M126,44h8v1h-8z M135,44h7v1h-7z M146,44h20v1h-20z M167,44h1v1h-1z M169,44h103v1h-103z M3,43h5v3h-5z M48,45h5v1h-5z M127,45h4v1h-4z M207,45h65v1h-65z M3,46h4v1h-4z M47,46h5v1h-5z M126,46h4v1h-4z M209,46h5v1h-5z M253,46h6v1h-6z M262,46h1v1h-1z M264,46h1v1h-1z M266,46h6v1h-6z M3,47h5v1h-5z M47,47h4v1h-4z M209,47h4v1h-4z M3,48h4v1h-4z M46,48h4v1h-4z M125,47h4v2h-4z M209,48h3v1h-3z M45,49h5v1h-5z M124,49h4v1h-4z M208,49h3v1h-3z M45,50h4v1h-4z M207,50h4v1h-4z M44,51h5v1h-5z M123,50h4v2h-4z M206,51h4v1h-4z M43,52h5v1h-5z M122,52h4v1h-4z M42,53h5v1h-5z M121,53h4v1h-4z M205,52h4v2h-4z M204,54h5v1h-5z M41,54h5v2h-5z M120,54h4v2h-4z M203,55h5v1h-5z M40,56h5v1h-5z M203,56h4v1h-4z M40,57h4v1h-4z M119,56h4v2h-4z M202,57h5v1h-5z M3,49h5v10h-5z M39,58h5v1h-5z M118,58h4v1h-4z M201,58h5v1h-5z M3,59h6v1h-6z M38,59h6v1h-6z M117,59h5v1h-5z M201,59h4v1h-4z M3,60h88v1h-88z M93,60h4v1h-4z M98,60h5v1h-5z M116,60h6v1h-6z M200,60h5v1h-5z M3,61h151v1h-151z M199,61h6v1h-6z M268,47h4v15h-4z M3,62h220v1h-220z M267,62h5v1h-5z M3,63h6v1h-6z M10,63h262v1h-262z M16,64h5v1h-5z M40,64h1v1h-1z M79,64h1v1h-1z M81,64h12v1h-12z M102,64h170v1h-170z M16,65h4v1h-4z M87,65h4v1h-4z M125,65h2v1h-2z M135,65h1v1h-1z M142,65h2v1h-2z M152,65h7v1h-7z M162,65h3v1h-3z M167,65h6v1h-6z M175,65h97v1h-97z M3,64h5v3h-5z M86,66h5v1h-5z M152,66h6v1h-6z M197,66h2v1h-2z M219,66h53v1h-53z M15,66h4v2h-4z M86,67h4v1h-4z M152,67h5v1h-5z M220,67h5v1h-5z M258,67h14v1h-14z M14,68h4v1h-4z M85,68h4v1h-4z M152,68h4v1h-4z M220,68h4v1h-4z M14,69h3v1h-3z M85,69h3v1h-3z M151,69h5v1h-5z M267,68h5v2h-5z M3,67h4v4h-4z M13,70h4v1h-4z M84,70h4v1h-4z M151,70h4v1h-4z M219,69h4v2h-4z M11,71h5v1h-5z M83,71h4v1h-4z M150,71h4v1h-4z M218,71h4v1h-4z M11,72h4v1h-4z M83,72h3v1h-3z M149,72h5v1h-5z M217,72h5v1h-5z M10,73h5v1h-5z M82,73h4v1h-4z M149,73h4v1h-4z M217,73h4v1h-4z M10,74h4v1h-4z M81,74h4v1h-4z M216,74h4v1h-4z M3,71h5v5h-5z M9,75h5v1h-5z M80,75h5v1h-5z M148,74h4v2h-4z M215,75h5v1h-5z M3,76h10v1h-10z M80,76h4v1h-4z M147,76h4v1h-4z M215,76h4v1h-4z M79,77h5v1h-5z M146,77h4v1h-4z M214,77h4v1h-4z M3,77h9v2h-9z M145,78h5v1h-5z M213,78h5v1h-5z M2,79h26v1h-26z M35,79h1v1h-1z M78,78h5v2h-5z M212,79h5v1h-5z M0,80h96v1h-96z M144,79h5v2h-5z M212,80h4v1h-4z M0,81h133v1h-133z M135,81h17v1h-17z M268,70h4v12h-4z M0,82h198v1h-198z M211,81h5v2h-5z M220,82h1v1h-1z M1,83h8v1h-8z M11,83h2v1h-2z M15,83h4v1h-4z M22,83h218v1h-218z M241,83h1v1h-1z M249,83h1v1h-1z M254,83h1v1h-1z M267,82h5v2h-5z M3,84h5v1h-5z M50,84h5v1h-5z M95,84h177v1h-177z M117,85h5v1h-5z M127,85h1v1h-1z M151,85h121v1h-121z M3,85h4v2h-4z M49,85h5v2h-5z M117,86h4v1h-4z M184,86h7v1h-7z M209,86h63v1h-63z M3,87h5v1h-5z M49,87h4v1h-4z M117,87h3v1h-3z M184,87h5v1h-5z M235,87h37v1h-37z M48,88h4v1h-4z M116,88h4v1h-4z M252,88h6v1h-6z M267,88h5v1h-5z M184,88h4v2h-4z M47,89h4v2h-4z M115,89h4v2h-4z M183,90h4v1h-4z M252,89h5v2h-5z M46,91h4v1h-4z M114,91h4v1h-4z M182,91h4v1h-4z M113,92h4v1h-4z M181,92h5v1h-5z M251,91h4v2h-4z M45,92h4v2h-4z M113,93h3v1h-3z M181,93h4v1h-4z M250,93h4v1h-4z M44,94h4v1h-4z M112,94h4v1h-4z M180,94h4v1h-4z M250,94h3v1h-3z M43,95h5v1h-5z M179,95h5v1h-5z M249,95h3v1h-3z M3,88h4v9h-4z M111,95h4v2h-4z M179,96h4v1h-4z M248,96h4v1h-4z M3,97h5v1h-5z M42,96h5v2h-5z M110,97h4v1h-4z M178,97h5v1h-5z M4,98h49v1h-49z M109,98h5v1h-5z M247,97h4v2h-4z M3,99h113v1h-113z M117,99h3v1h-3z M121,99h4v1h-4z M177,98h5v2h-5z M246,99h4v1h-4z M4,100h158v1h-158z M163,100h1v1h-1z M165,100h2v1h-2z M168,100h4v1h-4z M176,100h6v1h-6z M245,100h5v1h-5z M4,101h200v1h-200z M205,101h4v1h-4z M218,101h1v1h-1z M245,101h4v1h-4z M268,89h4v13h-4z M3,102h5v1h-5z M9,102h6v1h-6z M35,102h7v1h-7z M43,102h1v1h-1z M45,102h2v1h-2z M48,102h21v1h-21z M70,102h182v1h-182z M253,102h10v1h-10z M267,102h5v1h-5z M4,103h3v1h-3z M72,103h5v1h-5z M119,103h5v1h-5z M129,103h143v1h-143z M3,104h4v1h-4z M9,103h5v2h-5z M72,104h4v1h-4z M143,104h6v1h-6z M171,104h4v1h-4z M184,104h88v1h-88z M4,105h9v1h-9z M72,105h3v1h-3z M143,105h4v1h-4z M218,105h1v1h-1z M222,105h50v1h-50z M3,106h9v1h-9z M71,106h4v1h-4z M142,106h5v1h-5z M225,106h5v1h-5z M263,106h9v1h-9z M70,107h4v1h-4z M141,107h5v1h-5z M225,107h4v1h-4z M267,107h5v1h-5z M3,107h8v2h-8z M140,108h6v1h-6z M69,108h4v2h-4z M140,109h5v1h-5z M224,108h4v2h-4z M3,109h7v2h-7z M68,110h4v1h-4z M140,110h4v1h-4z M223,110h4v1h-4z M67,111h5v1h-5z M139,111h5v1h-5z M3,111h6v2h-6z M67,112h4v1h-4z M139,112h4v1h-4z M222,111h4v2h-4z M3,113h5v1h-5z M66,113h5v1h-5z M138,113h5v1h-5z M221,113h4v1h-4z M3,114h25v1h-25z M38,114h2v1h-2z M41,114h3v1h-3z M64,114h7v1h-7z M138,114h4v1h-4z M220,114h5v1h-5z M3,115h108v1h-108z M113,115h2v1h-2z M137,115h6v1h-6z M220,115h4v1h-4z M3,116h157v1h-157z M164,116h8v1h-8z M219,116h4v1h-4z M3,117h209v1h-209z M215,117h2v1h-2z M218,117h6v1h-6z M268,108h4v10h-4z M3,118h6v1h-6z M11,118h4v1h-4z M20,118h6v1h-6z M37,118h15v1h-15z M53,118h5v1h-5z M63,118h191v1h-191z M267,118h5v1h-5z M45,119h5v1h-5z M112,119h6v1h-6z M127,119h15v1h-15z M144,119h128v1h-128z M45,120h4v1h-4z M112,120h5v1h-5z M178,120h94v1h-94z M44,121h5v1h-5z M112,121h4v1h-4z M185,121h4v1h-4z M223,121h49v1h-49z M43,122h5v1h-5z M184,122h5v1h-5z M250,122h14v1h-14z M266,122h6v1h-6z M3,119h5v5h-5z M43,123h4v1h-4z M111,122h4v2h-4z M184,123h4v1h-4z M250,123h5v1h-5z M267,123h5v1h-5z M42,124h5v1h-5z M110,124h4v1h-4z M183,124h5v1h-5z M249,124h5v1h-5z M42,125h4v1h-4z M109,125h5v1h-5z M182,125h5v1h-5z M248,125h5v1h-5z M41,126h4v1h-4z M108,126h5v1h-5z M181,126h5v1h-5z M248,126h4v1h-4z M40,127h5v1h-5z M108,127h4v1h-4z M39,128h5v1h-5z M181,127h4v2h-4z M247,127h4v2h-4z M107,128h4v2h-4z M180,129h4v1h-4z M3,124h4v7h-4z M39,129h4v2h-4z M106,130h4v1h-4z M179,130h4v1h-4z M245,129h5v2h-5z M3,131h5v1h-5z M37,131h5v1h-5z M105,131h5v1h-5z M178,131h5v1h-5z M3,132h26v1h-26z M36,132h10v1h-10z M50,132h2v1h-2z M104,132h5v1h-5z M244,131h5v2h-5z M3,133h110v1h-110z M118,133h3v1h-3z M177,132h5v2h-5z M243,133h5v1h-5z M4,134h183v1h-183z M242,134h5v1h-5z M4,135h248v1h-248z M268,124h4v12h-4z M5,136h267v1h-267z M87,137h1v1h-1z M89,137h1v1h-1z M93,137h10v1h-10z M104,137h167v1h-167z M156,138h2v1h-2z M168,138h6v1h-6z M175,138h96v1h-96z M230,139h41v1h-41z M266,140h3v1h-3z
  "/>
</svg>