<?xml version="1.0" encoding="UTF-8"?>
<svg xmlns="http://www.w3.org/2000/svg" viewBox="0 0 266 139" width="266" height="139">
  <title>64 Porphyritic rock 64</title>
  <path fill="#111111" fill-rule="nonzero" d="
    M28,1h164v1h-164z M203,1h5v1h-5z M213,1h1v1h-1z M232,1h2v1h-2z M252,1h2v1h-2z M258,1h4v1h-4z M4,2h260v1h-260z M1,3h264v2h-264z M1,5h36v1h-36z M165,5h4v1h-4z M175,5h28v1h-28z M206,5h59v1h-59z M42,6h2v1h-2z M124,5h9v2h-9z M242,6h2v1h-2z M260,6h5v1h-5z M42,7h3v1h-3z M78,5h16v3h-16z M241,7h4v1h-4z M41,8h4v1h-4z M79,8h14v1h-14z M153,8h3v1h-3z M204,8h2v1h-2z M241,8h5v1h-5z M152,9h5v1h-5z M202,9h4v1h-4z M240,9h8v1h-8z M20,10h1v1h-1z M200,10h8v1h-8z M18,11h4v1h-4z M38,9h8v3h-8z M150,10h8v2h-8z M200,11h9v1h-9z M239,10h10v2h-10z M261,7h4v5h-4z M18,12h7v1h-7z M124,7h8v6h-8z M150,12h9v1h-9z M182,11h4v2h-4z M187,12h2v1h-2z M200,12h10v1h-10z M238,12h10v1h-10z M16,13h10v1h-10z M38,12h9v2h-9z M69,13h4v1h-4z M100,13h4v1h-4z M181,13h8v1h-8z M200,13h11v1h-11z M237,13h10v1h-10z M67,14h7v1h-7z M99,14h6v1h-6z M151,13h9v2h-9z M180,14h10v1h-10z M201,14h10v1h-10z M236,14h10v1h-10z M0,6h5v10h-5z M15,14h10v2h-10z M39,14h9v2h-9z M65,15h10v1h-10z M98,15h9v1h-9z M152,15h9v1h-9z M179,15h10v1h-10z M202,15h11v1h-11z M260,12h5v4h-5z M14,16h4v1h-4z M19,16h5v1h-5z M64,16h12v1h-12z M97,16h13v1h-13z M123,13h8v4h-8z M153,16h8v1h-8z M178,16h10v1h-10z M204,16h10v1h-10z M235,15h10v2h-10z M13,17h4v1h-4z M18,17h6v1h-6z M40,16h9v2h-9z M63,17h13v1h-13z M97,17h14v1h-14z M123,17h7v1h-7z M153,17h9v1h-9z M178,17h9v1h-9z M204,17h11v1h-11z M233,17h12v1h-12z M261,16h4v2h-4z M13,18h3v1h-3z M18,18h5v1h-5z M61,18h14v1h-14z M97,18h15v1h-15z M126,18h4v1h-4z M177,18h9v1h-9z M206,18h9v1h-9z M233,18h11v1h-11z M260,18h5v1h-5z M0,16h4v4h-4z M11,19h5v1h-5z M17,19h5v1h-5z M41,18h8v2h-8z M60,19h14v1h-14z M97,19h17v1h-17z M154,18h9v2h-9z M176,19h10v1h-10z M206,19h10v1h-10z M233,19h10v1h-10z M256,19h9v1h-9z M11,20h10v1h-10z M42,20h5v1h-5z M59,20h14v1h-14z M100,20h15v1h-15z M155,20h8v1h-8z M207,20h8v1h-8z M234,20h8v1h-8z M0,20h5v2h-5z M10,21h11v1h-11z M43,21h3v1h-3z M59,21h12v1h-12z M83,21h3v1h-3z M87,21h2v1h-2z M101,21h14v1h-14z M156,21h7v1h-7z M176,20h9v2h-9z M208,21h7v1h-7z M238,21h4v1h-4z M255,20h10v2h-10z M44,22h1v1h-1z M59,22h11v1h-11z M103,22h12v1h-12z M136,22h5v1h-5z M156,22h5v1h-5z M176,22h7v1h-7z M209,22h5v1h-5z M1,22h4v2h-4z M10,22h9v2h-9z M60,23h7v1h-7z M105,23h8v1h-8z M134,23h7v1h-7z M157,23h3v1h-3z M179,23h4v1h-4z M210,23h3v1h-3z M256,22h9v2h-9z M11,24h7v1h-7z M60,24h6v1h-6z M107,24h7v1h-7z M132,24h10v1h-10z M158,24h1v1h-1z M13,25h4v1h-4z M60,25h5v1h-5z M82,22h8v4h-8z M109,25h4v1h-4z M129,25h14v1h-14z M255,24h10v2h-10z M61,26h2v1h-2z M81,26h9v1h-9z M111,26h2v1h-2z M127,26h17v1h-17z M256,26h9v1h-9z M81,27h10v1h-10z M126,27h17v1h-17z M259,27h6v1h-6z M126,28h16v1h-16z M29,29h5v1h-5z M126,29h14v1h-14z M190,29h6v1h-6z M26,30h9v1h-9z M126,30h12v1h-12z M24,31h11v1h-11z M81,28h9v4h-9z M127,31h8v1h-8z M21,32h14v1h-14z M128,32h5v1h-5z M224,32h2v1h-2z M241,32h3v1h-3z M46,33h2v1h-2z M146,33h1v1h-1z M164,33h6v1h-6z M172,33h2v1h-2z M216,33h10v1h-10z M241,33h4v1h-4z M20,33h15v2h-15z M45,34h4v1h-4z M50,34h2v1h-2z M66,34h2v1h-2z M144,34h4v1h-4z M189,30h8v5h-8z M212,34h14v1h-14z M241,34h5v1h-5z M20,35h14v1h-14z M45,35h7v1h-7z M65,35h4v1h-4z M82,32h8v4h-8z M143,35h6v1h-6z M211,35h15v1h-15z M239,35h8v1h-8z M21,36h11v1h-11z M64,36h6v1h-6z M82,36h2v1h-2z M163,34h16v3h-16z M211,36h16v1h-16z M238,36h9v1h-9z M22,37h7v1h-7z M64,37h7v1h-7z M142,36h8v2h-8z M162,37h16v1h-16z M190,35h7v3h-7z M238,37h11v1h-11z M23,38h3v1h-3z M63,38h9v1h-9z M142,38h9v1h-9z M162,38h17v1h-17z M211,37h17v2h-17z M239,38h11v1h-11z M44,36h8v4h-8z M63,39h10v1h-10z M122,39h2v1h-2z M143,39h8v1h-8z M163,39h16v1h-16z M210,39h17v1h-17z M240,39h11v1h-11z M0,24h5v17h-5z M43,40h9v1h-9z M63,40h12v1h-12z M121,40h4v1h-4z M126,40h2v1h-2z M143,40h9v1h-9z M167,40h11v1h-11z M210,40h14v1h-14z M240,40h12v1h-12z M43,41h8v1h-8z M64,41h11v1h-11z M121,41h8v1h-8z M190,38h8v4h-8z M210,41h7v1h-7z M241,41h12v1h-12z M65,42h11v1h-11z M105,42h4v1h-4z M144,41h9v2h-9z M190,42h7v1h-7z M243,42h10v1h-10z M0,41h4v3h-4z M66,43h10v1h-10z M95,43h15v1h-15z M120,42h9v2h-9z M145,43h9v1h-9z M191,43h5v1h-5z M244,43h10v1h-10z M13,44h3v1h-3z M42,42h9v3h-9z M68,44h8v1h-8z M121,44h8v1h-8z M146,44h8v1h-8z M191,44h1v1h-1z M245,44h10v1h-10z M0,44h5v2h-5z M12,45h4v1h-4z M42,45h8v1h-8z M69,45h6v1h-6z M147,45h7v1h-7z M246,45h9v1h-9z M41,46h9v1h-9z M147,46h6v1h-6z M246,46h8v1h-8z M9,46h8v2h-8z M41,47h8v1h-8z M70,46h4v2h-4z M148,47h4v1h-4z M247,47h6v1h-6z M9,48h9v1h-9z M41,48h3v1h-3z M46,48h3v1h-3z M72,48h1v1h-1z M94,44h16v5h-16z M120,45h9v4h-9z M149,48h1v1h-1z M248,48h5v1h-5z M1,46h4v4h-4z M10,49h8v1h-8z M94,49h15v1h-15z M221,49h2v1h-2z M250,49h2v1h-2z M95,50h9v1h-9z M106,50h1v1h-1z M169,50h1v1h-1z M220,50h3v1h-3z M10,50h9v2h-9z M165,51h6v1h-6z M219,51h4v1h-4z M224,51h2v1h-2z M11,52h9v1h-9z M120,49h8v4h-8z M218,52h8v1h-8z M1,50h3v4h-3z M121,53h2v1h-2z M124,53h4v1h-4z M191,53h1v1h-1z M12,53h9v2h-9z M66,54h4v1h-4z M85,54h3v1h-3z M125,54h3v1h-3z M165,52h7v3h-7z M189,54h6v1h-6z M217,53h9v2h-9z M64,55h7v1h-7z M84,55h4v1h-4z M165,55h8v1h-8z M189,55h9v1h-9z M217,55h8v1h-8z M238,55h8v1h-8z M13,55h9v2h-9z M61,56h10v1h-10z M83,56h6v1h-6z M109,56h2v1h-2z M189,56h13v1h-13z M234,56h12v1h-12z M14,57h8v1h-8z M34,57h3v1h-3z M59,57h13v1h-13z M166,56h8v2h-8z M188,57h16v1h-16z M216,56h9v2h-9z M233,57h13v1h-13z M14,58h7v1h-7z M33,58h5v1h-5z M56,58h17v1h-17z M108,57h4v2h-4z M114,58h1v1h-1z M151,58h4v1h-4z M187,58h17v1h-17z M215,58h9v1h-9z M232,58h15v1h-15z M15,59h3v1h-3z M32,59h8v1h-8z M56,59h16v1h-16z M108,59h7v1h-7z M150,59h6v1h-6z M167,58h8v2h-8z M188,59h16v1h-16z M215,59h8v1h-8z M16,60h1v1h-1z M30,60h11v1h-11z M56,60h14v1h-14z M83,57h7v4h-7z M107,60h8v1h-8z M149,60h8v1h-8z M188,60h15v1h-15z M214,60h9v1h-9z M232,59h16v2h-16z M29,61h11v1h-11z M57,61h11v1h-11z M83,61h8v1h-8z M147,61h10v1h-10z M168,60h8v2h-8z M190,61h13v1h-13z M213,61h10v1h-10z M232,61h15v1h-15z M28,62h12v1h-12z M57,62h8v1h-8z M84,62h7v1h-7z M106,61h9v2h-9z M146,62h12v1h-12z M195,62h9v1h-9z M213,62h9v1h-9z M233,62h12v1h-12z M27,63h12v1h-12z M58,63h5v1h-5z M144,63h14v1h-14z M169,62h8v2h-8z M198,63h6v1h-6z M233,63h6v1h-6z M26,64h12v1h-12z M59,64h2v1h-2z M85,63h7v2h-7z M105,63h9v2h-9z M144,64h13v1h-13z M170,64h8v1h-8z M201,64h2v1h-2z M213,63h8v2h-8z M25,65h11v1h-11z M104,65h9v1h-9z M143,65h11v1h-11z M170,65h7v1h-7z M215,65h5v1h-5z M1,54h4v13h-4z M25,66h10v1h-10z M85,65h8v2h-8z M143,66h10v1h-10z M171,66h4v1h-4z M216,66h4v1h-4z M25,67h9v1h-9z M104,66h8v2h-8z M133,67h1v1h-1z M144,67h8v1h-8z M217,67h2v1h-2z M27,68h6v1h-6z M46,68h2v1h-2z M86,67h7v2h-7z M125,68h11v1h-11z M145,68h6v1h-6z M1,67h3v3h-3z M28,69h3v1h-3z M46,69h3v1h-3z M50,69h2v1h-2z M87,69h6v1h-6z M104,68h7v2h-7z M122,69h15v1h-15z M145,69h5v1h-5z M88,70h3v1h-3z M121,70h16v1h-16z M145,70h4v1h-4z M252,70h4v1h-4z M1,70h4v2h-4z M7,71h2v1h-2z M69,71h1v1h-1z M89,71h1v1h-1z M106,70h4v2h-4z M188,71h2v1h-2z M252,71h6v1h-6z M1,72h17v1h-17z M67,72h6v1h-6z M184,72h7v1h-7z M1,73h18v1h-18z M67,73h8v1h-8z M121,71h17v3h-17z M251,72h7v2h-7z M67,74h10v1h-10z M120,74h17v1h-17z M184,73h8v2h-8z M230,74h5v1h-5z M250,74h8v1h-8z M45,70h8v6h-8z M65,75h14v1h-14z M121,75h13v1h-13z M185,75h7v1h-7z M229,75h6v1h-6z M1,74h19v3h-19z M45,76h7v1h-7z M65,76h15v1h-15z M122,76h4v1h-4z M167,76h1v1h-1z M185,76h8v1h-8z M214,76h2v1h-2z M65,77h16v1h-16z M156,77h14v1h-14z M212,77h4v1h-4z M228,76h8v2h-8z M249,75h8v3h-8z M1,77h18v2h-18z M67,78h14v1h-14z M210,78h6v1h-6z M228,78h9v1h-9z M249,78h7v1h-7z M9,79h9v1h-9z M69,79h12v1h-12z M94,79h4v1h-4z M111,79h3v1h-3z M186,77h7v3h-7z M207,79h10v1h-10z M229,79h8v1h-8z M248,79h8v1h-8z M72,80h8v1h-8z M94,80h6v1h-6z M110,80h5v1h-5z M152,78h18v3h-18z M205,80h13v1h-13z M229,80h9v1h-9z M249,80h6v1h-6z M44,77h8v5h-8z M75,81h5v1h-5z M93,81h8v1h-8z M109,81h7v1h-7z M186,80h8v2h-8z M203,81h16v1h-16z M230,81h9v1h-9z M249,81h5v1h-5z M44,82h7v1h-7z M76,82h4v1h-4z M92,82h9v1h-9z M108,82h8v1h-8z M153,81h18v2h-18z M203,82h15v1h-15z M231,82h8v1h-8z M250,82h4v1h-4z M49,83h1v1h-1z M91,83h10v1h-10z M108,83h9v1h-9z M153,83h16v1h-16z M203,83h14v1h-14z M251,83h2v1h-2z M1,79h4v6h-4z M90,84h10v1h-10z M108,84h10v1h-10z M154,84h7v1h-7z M187,82h8v3h-8z M203,84h12v1h-12z M232,83h8v2h-8z M89,85h11v1h-11z M109,85h10v1h-10z M204,85h9v1h-9z M233,85h7v1h-7z M88,86h11v1h-11z M110,86h9v1h-9z M188,85h7v2h-7z M205,86h6v1h-6z M234,86h4v1h-4z M87,87h10v1h-10z M111,87h9v1h-9z M189,87h6v1h-6z M205,87h5v1h-5z M235,87h1v1h-1z M87,88h9v1h-9z M111,88h10v1h-10z M1,85h3v5h-3z M21,89h10v1h-10z M87,89h8v1h-8z M112,89h10v1h-10z M21,90h14v1h-14z M113,90h9v1h-9z M21,91h15v1h-15z M55,91h2v1h-2z M73,91h2v1h-2z M88,90h6v2h-6z M114,91h8v1h-8z M20,92h16v1h-16z M54,92h5v1h-5z M72,92h4v1h-4z M88,92h5v1h-5z M115,92h7v1h-7z M133,92h4v1h-4z M138,92h1v1h-1z M152,92h1v1h-1z M246,92h4v1h-4z M261,28h4v65h-4z M53,93h7v1h-7z M71,93h5v1h-5z M89,93h3v1h-3z M116,93h4v1h-4z M133,93h6v1h-6z M150,93h4v1h-4z M219,93h4v1h-4z M244,93h14v1h-14z M20,93h15v2h-15z M52,94h8v1h-8z M90,94h1v1h-1z M116,94h2v1h-2z M150,94h5v1h-5z M183,94h4v1h-4z M219,94h6v1h-6z M244,94h15v1h-15z M21,95h14v1h-14z M51,95h10v1h-10z M69,94h8v2h-8z M133,94h7v2h-7z M149,95h6v1h-6z M182,95h5v1h-5z M218,95h8v1h-8z M243,95h16v1h-16z M260,93h5v3h-5z M24,96h11v1h-11z M50,96h11v1h-11z M69,96h9v1h-9z M148,96h9v1h-9z M181,96h8v1h-8z M217,96h10v1h-10z M242,96h17v1h-17z M30,97h5v1h-5z M49,97h11v1h-11z M70,97h8v1h-8z M148,97h10v1h-10z M179,97h11v1h-11z M217,97h13v1h-13z M48,98h10v1h-10z M70,98h9v1h-9z M132,96h8v3h-8z M149,98h10v1h-10z M178,98h12v1h-12z M203,98h3v1h-3z M241,97h16v2h-16z M47,99h10v1h-10z M71,99h8v1h-8z M132,99h7v1h-7z M150,99h10v1h-10z M177,99h13v1h-13z M202,99h4v1h-4z M217,98h14v2h-14z M243,99h14v1h-14z M46,100h11v1h-11z M71,100h9v1h-9z M151,100h9v1h-9z M174,100h14v1h-14z M199,100h8v1h-8z M219,100h13v1h-13z M248,100h10v1h-10z M45,101h11v1h-11z M72,101h8v1h-8z M151,101h11v1h-11z M173,101h14v1h-14z M198,101h10v1h-10z M221,101h10v1h-10z M254,101h3v1h-3z M11,102h2v1h-2z M45,102h10v1h-10z M72,102h9v1h-9z M95,102h14v1h-14z M152,102h10v1h-10z M172,102h14v1h-14z M223,102h8v1h-8z M11,103h6v1h-6z M45,103h9v1h-9z M153,103h10v1h-10z M172,103h12v1h-12z M197,102h11v2h-11z M225,103h5v1h-5z M10,104h7v1h-7z M48,104h5v1h-5z M73,103h8v2h-8z M94,103h16v2h-16z M131,100h8v5h-8z M154,104h9v1h-9z M172,104h11v1h-11z M197,104h12v1h-12z M227,104h2v1h-2z M49,105h3v1h-3z M73,105h7v1h-7z M131,105h7v1h-7z M155,105h7v1h-7z M173,105h9v1h-9z M201,105h9v1h-9z M10,105h8v2h-8z M75,106h2v1h-2z M94,105h15v2h-15z M156,106h4v1h-4z M9,107h9v1h-9z M157,107h2v1h-2z M174,106h5v2h-5z M202,106h9v2h-9z M93,107h17v2h-17z M130,106h8v3h-8z M175,108h2v1h-2z M203,108h8v1h-8z M9,108h8v2h-8z M94,109h14v1h-14z M131,109h7v1h-7z M204,109h8v1h-8z M8,110h9v1h-9z M132,110h5v1h-5z M205,110h8v1h-8z M134,111h3v1h-3z M205,111h7v1h-7z M8,111h8v2h-8z M34,112h3v1h-3z M206,112h5v1h-5z M231,112h1v1h-1z M7,113h9v1h-9z M32,113h6v1h-6z M52,113h2v1h-2z M206,113h4v1h-4z M31,114h8v1h-8z M51,114h4v1h-4z M119,114h3v1h-3z M229,113h7v2h-7z M249,114h3v1h-3z M7,114h8v2h-8z M30,115h10v1h-10z M50,115h5v1h-5z M80,115h1v1h-1z M118,115h5v1h-5z M228,115h9v1h-9z M249,115h5v1h-5z M8,116h2v1h-2z M11,116h4v1h-4z M27,116h14v1h-14z M49,116h7v1h-7z M78,116h5v1h-5z M116,116h7v1h-7z M149,116h2v1h-2z M185,116h13v1h-13z M227,116h9v1h-9z M249,116h6v1h-6z M12,117h2v1h-2z M26,117h15v1h-15z M49,117h8v1h-8z M75,117h8v1h-8z M148,117h6v1h-6z M226,117h10v1h-10z M248,117h8v1h-8z M25,118h14v1h-14z M73,118h10v1h-10z M98,118h1v1h-1z M115,117h10v2h-10z M147,118h8v1h-8z M225,118h10v1h-10z M247,118h11v1h-11z M24,119h14v1h-14z M49,118h9v2h-9z M72,119h12v1h-12z M97,119h7v1h-7z M116,119h10v1h-10z M146,119h9v1h-9z M224,119h10v1h-10z M247,119h12v1h-12z M261,96h4v24h-4z M25,120h12v1h-12z M50,120h9v1h-9z M70,120h15v1h-15z M116,120h11v1h-11z M145,120h10v1h-10z M184,117h14v4h-14z M224,120h9v1h-9z M247,120h18v1h-18z M25,121h10v1h-10z M51,121h9v1h-9z M68,121h16v1h-16z M96,120h8v2h-8z M117,121h11v1h-11z M144,121h10v1h-10z M170,121h1v1h-1z M223,121h10v1h-10z M248,121h17v1h-17z M26,122h7v1h-7z M52,122h9v1h-9z M68,122h15v1h-15z M96,122h9v1h-9z M118,122h11v1h-11z M143,122h11v1h-11z M169,122h3v1h-3z M183,121h16v2h-16z M250,122h15v1h-15z M27,123h4v1h-4z M53,123h9v1h-9z M68,123h12v1h-12z M119,123h10v1h-10z M142,123h11v1h-11z M166,123h7v1h-7z M184,123h14v1h-14z M210,123h3v1h-3z M223,122h8v2h-8z M251,123h14v1h-14z M1,90h4v35h-4z M27,124h1v1h-1z M69,124h10v1h-10z M120,124h10v1h-10z M142,124h9v1h-9z M209,124h5v1h-5z M225,124h5v1h-5z M253,124h12v1h-12z M0,125h5v1h-5z M6,125h4v1h-4z M54,124h8v2h-8z M70,125h7v1h-7z M121,125h9v1h-9z M141,125h10v1h-10z M227,125h2v1h-2z M254,125h5v1h-5z M0,126h11v1h-11z M54,126h5v1h-5z M71,126h4v1h-4z M121,126h8v1h-8z M142,126h8v1h-8z M255,126h4v1h-4z M1,127h12v1h-12z M55,127h2v1h-2z M122,127h5v1h-5z M143,127h6v1h-6z M165,124h8v4h-8z M208,125h8v3h-8z M256,127h3v1h-3z M1,128h13v1h-13z M123,128h3v1h-3z M144,128h5v1h-5z M207,128h8v1h-8z M1,129h14v1h-14z M41,129h1v1h-1z M96,123h8v7h-8z M144,129h4v1h-4z M206,129h9v1h-9z M1,130h16v1h-16z M36,130h2v1h-2z M40,130h3v1h-3z M96,130h7v1h-7z M166,128h8v3h-8z M206,130h8v1h-8z M1,131h17v1h-17z M35,131h8v1h-8z M97,131h2v1h-2z M166,131h9v1h-9z M261,125h4v7h-4z M1,132h4v1h-4z M35,132h9v1h-9z M167,132h8v1h-8z M205,131h9v2h-9z M260,132h5v1h-5z M1,133h5v1h-5z M8,132h11v2h-11z M33,133h31v1h-31z M73,133h2v1h-2z M92,133h1v1h-1z M100,133h2v1h-2z M103,133h1v1h-1z M111,133h2v1h-2z M123,133h5v1h-5z M134,133h4v1h-4z M140,133h2v1h-2z M144,133h2v1h-2z M154,133h2v1h-2z M166,133h11v1h-11z M179,133h6v1h-6z M203,133h13v1h-13z M218,133h1v1h-1z M259,133h6v1h-6z M1,134h264v2h-264z M1,136h263v1h-263z M1,137h41v1h-41z M48,137h12v1h-12z M61,137h58v1h-58z M122,137h16v1h-16z M139,137h125v1h-125z M187,138h2v1h-2z
  "/>
</svg>