<?xml version="1.0" encoding="UTF-8"?>
<svg xmlns="http://www.w3.org/2000/svg" viewBox="0 0 267 139" width="267" height="139">
  <title>18 Bedded chert</title>
  <path fill="#111111" fill-rule="nonzero" d="
    M146,1h8v1h-8z M162,1h4v1h-4z M169,1h2v1h-2z M174,1h4v1h-4z M186,1h3v1h-3z M193,1h6v1h-6z M200,1h17v1h-17z M219,1h4v1h-4z M226,1h38v1h-38z M2,2h263v1h-263z M1,3h265v1h-265z M1,4h209v1h-209z M214,4h12v1h-12z M227,4h12v1h-12z M240,4h26v1h-26z M1,5h11v1h-11z M15,5h16v1h-16z M32,5h4v1h-4z M38,5h24v1h-24z M75,5h12v1h-12z M94,5h26v1h-26z M137,5h2v1h-2z M143,5h1v1h-1z M146,5h5v1h-5z M165,5h30v1h-30z M0,6h5v1h-5z M42,6h12v1h-12z M98,6h19v1h-19z M168,6h14v1h-14z M235,5h4v2h-4z M1,7h4v1h-4z M44,7h8v1h-8z M101,7h13v1h-13z M172,7h9v1h-9z M234,7h4v1h-4z M104,8h8v1h-8z M173,8h7v1h-7z M233,8h5v1h-5z M46,8h5v2h-5z M105,9h6v1h-6z M231,9h7v1h-7z M1,8h3v3h-3z M45,10h6v1h-6z M106,10h6v1h-6z M174,9h6v2h-6z M228,10h10v1h-10z M262,5h4v6h-4z M44,11h8v1h-8z M105,11h9v1h-9z M173,11h9v1h-9z M223,11h28v1h-28z M259,11h7v1h-7z M41,12h13v1h-13z M103,12h22v1h-22z M169,12h21v1h-21z M192,12h10v1h-10z M203,12h2v1h-2z M209,12h57v1h-57z M0,11h4v3h-4z M39,13h17v1h-17z M98,13h51v1h-51z M150,13h2v1h-2z M158,13h2v1h-2z M162,13h104v1h-104z M1,14h4v1h-4z M19,14h4v1h-4z M32,14h28v1h-28z M76,14h190v1h-190z M1,15h61v1h-61z M72,15h39v1h-39z M113,15h108v1h-108z M223,15h1v1h-1z M226,15h8v1h-8z M237,15h1v1h-1z M247,15h3v1h-3z M254,15h12v1h-12z M1,16h103v1h-103z M133,16h35v1h-35z M170,16h2v1h-2z M174,16h2v1h-2z M202,16h13v1h-13z M258,16h8v1h-8z M1,17h96v1h-96z M141,17h17v1h-17z M203,17h10v1h-10z M261,17h5v1h-5z M1,18h35v1h-35z M55,18h39v1h-39z M144,18h11v1h-11z M206,18h7v1h-7z M0,19h29v1h-29z M62,19h5v1h-5z M78,19h14v1h-14z M146,19h6v1h-6z M207,19h5v1h-5z M1,20h4v1h-4z M18,20h8v1h-8z M82,20h8v1h-8z M1,21h3v1h-3z M20,21h5v1h-5z M84,21h6v1h-6z M147,20h4v2h-4z M85,22h4v1h-4z M147,22h5v1h-5z M208,20h4v3h-4z M0,22h4v2h-4z M21,22h4v2h-4z M86,23h4v1h-4z M146,23h6v1h-6z M206,23h7v1h-7z M262,18h4v6h-4z M1,24h3v1h-3z M21,24h5v1h-5z M85,24h5v1h-5z M144,24h10v1h-10z M204,24h11v1h-11z M261,24h5v1h-5z M19,25h8v1h-8z M84,25h9v1h-9z M141,25h15v1h-15z M202,25h15v1h-15z M233,25h3v1h-3z M237,25h6v1h-6z M257,25h9v1h-9z M0,25h5v2h-5z M17,26h12v1h-12z M83,26h12v1h-12z M122,26h2v1h-2z M134,26h25v1h-25z M194,26h53v1h-53z M248,26h18v1h-18z M1,27h4v1h-4z M11,27h21v1h-21z M64,27h8v1h-8z M76,27h90v1h-90z M180,27h86v1h-86z M1,28h36v1h-36z M38,28h4v1h-4z M44,28h4v1h-4z M49,28h186v1h-186z M238,28h28v1h-28z M1,29h235v1h-235z M239,29h18v1h-18z M260,29h6v1h-6z M0,30h90v1h-90z M93,30h19v1h-19z M114,30h32v1h-32z M147,30h3v1h-3z M153,30h50v1h-50z M227,30h10v1h-10z M238,30h9v1h-9z M0,31h18v1h-18z M29,31h36v1h-36z M78,31h4v1h-4z M96,31h8v1h-8z M115,31h13v1h-13z M165,31h29v1h-29z M231,31h13v1h-13z M262,30h4v2h-4z M0,32h5v1h-5z M34,32h26v1h-26z M99,32h6v1h-6z M113,32h10v1h-10z M172,32h17v1h-17z M234,32h8v1h-8z M263,32h3v1h-3z M36,33h15v1h-15z M100,33h7v1h-7z M111,33h8v1h-8z M176,33h10v1h-10z M236,33h5v1h-5z M40,34h8v1h-8z M102,34h6v1h-6z M109,34h8v1h-8z M177,34h8v1h-8z M236,34h4v1h-4z M41,35h6v1h-6z M104,35h11v1h-11z M178,35h6v1h-6z M41,36h5v1h-5z M105,36h8v1h-8z M179,36h4v1h-4z M106,37h6v1h-6z M237,35h3v3h-3z M262,33h4v5h-4z M106,38h5v1h-5z M180,37h3v2h-3z M236,38h6v1h-6z M42,37h3v3h-3z M106,39h4v1h-4z M179,39h4v1h-4z M235,39h8v1h-8z M262,38h5v2h-5z M41,40h5v1h-5z M178,40h5v1h-5z M233,40h11v1h-11z M41,41h6v1h-6z M106,40h5v2h-5z M177,41h6v1h-6z M229,41h18v1h-18z M38,42h11v1h-11z M106,42h6v1h-6z M176,42h8v1h-8z M227,42h23v1h-23z M35,43h16v1h-16z M104,43h10v1h-10z M173,43h13v1h-13z M224,43h13v1h-13z M238,43h15v1h-15z M262,40h4v4h-4z M30,44h13v1h-13z M45,44h8v1h-8z M101,44h14v1h-14z M168,44h20v1h-20z M216,44h50v1h-50z M0,33h4v13h-4z M26,45h15v1h-15z M46,45h19v1h-19z M92,45h28v1h-28z M139,45h53v1h-53z M205,45h61v1h-61z M0,46h5v1h-5z M18,46h20v1h-20z M46,46h193v1h-193z M240,46h26v1h-26z M0,47h33v1h-33z M37,47h1v1h-1z M39,47h1v1h-1z M41,47h195v1h-195z M250,47h16v1h-16z M1,48h26v1h-26z M35,48h23v1h-23z M59,48h96v1h-96z M159,48h3v1h-3z M163,48h23v1h-23z M187,48h25v1h-25z M253,48h7v1h-7z M262,48h4v1h-4z M1,49h25v1h-25z M33,49h16v1h-16z M81,49h29v1h-29z M111,49h1v1h-1z M126,49h25v1h-25z M195,49h11v1h-11z M1,50h5v1h-5z M8,50h18v1h-18z M31,50h12v1h-12z M84,50h16v1h-16z M135,50h15v1h-15z M197,50h8v1h-8z M256,49h4v2h-4z M0,51h5v1h-5z M12,51h16v1h-16z M29,51h10v1h-10z M86,51h10v1h-10z M139,51h8v1h-8z M198,51h6v1h-6z M262,49h5v3h-5z M19,52h17v1h-17z M87,52h6v1h-6z M257,51h4v2h-4z M24,53h10v1h-10z M200,52h4v2h-4z M256,53h4v1h-4z M26,54h6v1h-6z M141,52h5v3h-5z M199,54h5v1h-5z M255,54h5v1h-5z M88,53h4v3h-4z M140,55h7v1h-7z M197,55h8v1h-8z M254,55h5v1h-5z M27,55h5v2h-5z M87,56h7v1h-7z M139,56h9v1h-9z M195,56h13v1h-13z M250,56h10v1h-10z M262,52h4v5h-4z M27,57h6v1h-6z M85,57h10v1h-10z M130,57h21v1h-21z M189,57h21v1h-21z M239,57h27v1h-27z M27,58h7v1h-7z M83,58h17v1h-17z M119,58h38v1h-38z M169,58h46v1h-46z M229,58h37v1h-37z M0,52h4v8h-4z M22,59h17v1h-17z M45,59h22v1h-22z M79,59h24v1h-24z M113,59h153v1h-153z M0,60h5v1h-5z M19,60h247v1h-247z M0,61h125v1h-125z M145,61h33v1h-33z M179,61h64v1h-64z M249,61h9v1h-9z M261,61h5v1h-5z M0,62h50v1h-50z M53,62h3v1h-3z M57,62h66v1h-66z M156,62h20v1h-20z M179,62h9v1h-9z M197,62h9v1h-9z M209,62h15v1h-15z M231,62h12v1h-12z M248,62h6v1h-6z M0,63h27v1h-27z M28,63h20v1h-20z M56,63h21v1h-21z M85,63h1v1h-1z M88,63h16v1h-16z M106,63h9v1h-9z M165,63h19v1h-19z M237,63h7v1h-7z M247,63h6v1h-6z M1,64h4v1h-4z M35,64h13v1h-13z M55,64h8v1h-8z M94,64h10v1h-10z M105,64h7v1h-7z M170,64h12v1h-12z M239,64h12v1h-12z M40,65h10v1h-10z M54,65h6v1h-6z M98,65h13v1h-13z M172,65h9v1h-9z M240,65h10v1h-10z M43,66h8v1h-8z M52,66h7v1h-7z M100,66h10v1h-10z M174,66h6v1h-6z M242,66h7v1h-7z M46,67h11v1h-11z M102,67h7v1h-7z M175,67h5v1h-5z M243,67h6v1h-6z M48,68h8v1h-8z M104,68h4v1h-4z M49,69h6v1h-6z M105,69h4v1h-4z M244,68h5v2h-5z M50,70h4v1h-4z M106,70h3v1h-3z M245,70h4v1h-4z M50,71h3v1h-3z M106,71h4v1h-4z M176,68h4v4h-4z M244,71h6v1h-6z M106,72h6v1h-6z M176,72h5v1h-5z M244,72h7v1h-7z M50,72h4v2h-4z M107,73h6v1h-6z M175,73h7v1h-7z M243,73h10v1h-10z M49,74h6v1h-6z M106,74h9v1h-9z M174,74h9v1h-9z M241,74h15v1h-15z M49,75h7v1h-7z M106,75h12v1h-12z M170,75h15v1h-15z M239,75h7v1h-7z M249,75h11v1h-11z M262,62h4v14h-4z M47,76h10v1h-10z M105,76h4v1h-4z M112,76h9v1h-9z M156,76h21v1h-21z M179,76h8v1h-8z M235,76h10v1h-10z M250,76h16v1h-16z M0,65h4v13h-4z M45,77h14v1h-14z M104,77h4v1h-4z M114,77h14v1h-14z M151,77h26v1h-26z M180,77h11v1h-11z M228,77h38v1h-38z M0,78h5v1h-5z M42,78h8v1h-8z M54,78h16v1h-16z M73,78h4v1h-4z M100,78h8v1h-8z M114,78h92v1h-92z M211,78h55v1h-55z M0,79h7v1h-7z M8,79h3v1h-3z M15,79h2v1h-2z M23,79h1v1h-1z M37,79h12v1h-12z M55,79h38v1h-38z M94,79h172v1h-172z M1,80h49v1h-49z M56,80h210v1h-210z M1,81h70v1h-70z M73,81h48v1h-48z M138,81h14v1h-14z M156,81h12v1h-12z M192,81h44v1h-44z M237,81h1v1h-1z M261,81h5v1h-5z M0,82h68v1h-68z M78,82h25v1h-25z M143,82h10v1h-10z M156,82h9v1h-9z M205,82h14v1h-14z M224,82h10v1h-10z M0,83h5v1h-5z M6,83h6v1h-6z M14,83h55v1h-55z M78,83h14v1h-14z M147,83h14v1h-14z M210,83h11v1h-11z M223,83h7v1h-7z M7,84h13v1h-13z M48,84h3v1h-3z M52,84h20v1h-20z M77,84h9v1h-9z M149,84h11v1h-11z M213,84h16v1h-16z M1,84h4v2h-4z M8,85h10v1h-10z M63,85h11v1h-11z M76,85h7v1h-7z M152,85h6v1h-6z M216,85h11v1h-11z M0,86h5v1h-5z M9,86h7v1h-7z M66,86h16v1h-16z M152,86h5v1h-5z M219,86h7v1h-7z M0,87h4v1h-4z M10,87h5v1h-5z M70,87h9v1h-9z M153,87h4v1h-4z M220,87h5v1h-5z M1,88h3v1h-3z M10,88h4v1h-4z M72,88h7v1h-7z M220,88h4v1h-4z M74,89h4v1h-4z M154,88h3v2h-3z M221,89h3v1h-3z M75,90h4v1h-4z M154,90h4v1h-4z M221,90h4v1h-4z M0,89h4v3h-4z M10,89h3v3h-3z M75,91h5v1h-5z M153,91h5v1h-5z M221,91h5v1h-5z M10,92h2v1h-2z M75,92h7v1h-7z M152,92h7v1h-7z M221,92h6v1h-6z M9,93h4v1h-4z M73,93h10v1h-10z M150,93h10v1h-10z M220,93h8v1h-8z M1,92h3v3h-3z M9,94h5v1h-5z M72,94h15v1h-15z M148,94h14v1h-14z M219,94h10v1h-10z M0,95h4v1h-4z M9,95h6v1h-6z M71,95h7v1h-7z M79,95h9v1h-9z M144,95h11v1h-11z M156,95h7v1h-7z M216,95h8v1h-8z M225,95h7v1h-7z M1,96h4v1h-4z M6,96h10v1h-10z M66,96h10v1h-10z M81,96h11v1h-11z M140,96h13v1h-13z M158,96h7v1h-7z M213,96h9v1h-9z M226,96h10v1h-10z M262,82h4v15h-4z M1,97h18v1h-18z M62,97h13v1h-13z M82,97h14v1h-14z M134,97h19v1h-19z M158,97h11v1h-11z M207,97h16v1h-16z M226,97h16v1h-16z M260,97h6v1h-6z M1,98h10v1h-10z M12,98h10v1h-10z M58,98h17v1h-17z M82,98h19v1h-19z M126,98h47v1h-47z M199,98h67v1h-67z M1,99h29v1h-29z M32,99h72v1h-72z M117,99h149v1h-149z M1,100h265v1h-265z M1,101h140v1h-140z M144,101h81v1h-81z M239,101h27v1h-27z M1,102h10v1h-10z M13,102h3v1h-3z M24,102h45v1h-45z M97,102h35v1h-35z M162,102h38v1h-38z M244,102h15v1h-15z M1,103h5v1h-5z M33,103h13v1h-13z M47,103h14v1h-14z M105,103h22v1h-22z M170,103h10v1h-10z M184,103h10v1h-10z M245,103h9v1h-9z M1,104h4v1h-4z M38,104h17v1h-17z M108,104h17v1h-17z M172,104h8v1h-8z M183,104h8v1h-8z M246,104h7v1h-7z M1,105h3v1h-3z M41,105h13v1h-13z M109,105h13v1h-13z M176,105h13v1h-13z M43,106h8v1h-8z M111,106h9v1h-9z M177,106h10v1h-10z M44,107h6v1h-6z M113,107h5v1h-5z M179,107h7v1h-7z M0,106h4v3h-4z M114,108h4v1h-4z M248,105h4v4h-4z M115,109h3v1h-3z M180,108h4v2h-4z M247,109h5v1h-5z M45,108h5v3h-5z M114,110h4v1h-4z M180,110h5v1h-5z M246,110h8v1h-8z M44,111h6v1h-6z M114,111h5v1h-5z M179,111h7v1h-7z M243,111h13v1h-13z M1,109h3v4h-3z M41,112h10v1h-10z M113,112h7v1h-7z M179,112h9v1h-9z M234,112h24v1h-24z M40,113h12v1h-12z M110,113h14v1h-14z M176,113h14v1h-14z M226,113h34v1h-34z M262,102h4v12h-4z M0,113h4v2h-4z M36,114h9v1h-9z M48,114h6v1h-6z M107,114h20v1h-20z M172,114h10v1h-10z M184,114h9v1h-9z M219,114h47v1h-47z M0,115h5v1h-5z M34,115h9v1h-9z M50,115h6v1h-6z M104,115h77v1h-77z M186,115h14v1h-14z M211,115h55v1h-55z M1,116h4v1h-4z M29,116h12v1h-12z M50,116h10v1h-10z M99,116h83v1h-83z M186,116h50v1h-50z M240,116h26v1h-26z M1,117h39v1h-39z M51,117h24v1h-24z M94,117h137v1h-137z M253,117h13v1h-13z M1,118h125v1h-125z M133,118h95v1h-95z M259,118h7v1h-7z M1,119h116v1h-116z M141,119h14v1h-14z M159,119h56v1h-56z M217,119h8v1h-8z M261,119h5v1h-5z M1,120h4v1h-4z M11,120h50v1h-50z M65,120h32v1h-32z M145,120h11v1h-11z M159,120h14v1h-14z M178,120h3v1h-3z M205,120h17v1h-17z M9,121h20v1h-20z M41,121h8v1h-8z M50,121h1v1h-1z M72,121h22v1h-22z M148,121h19v1h-19z M210,121h11v1h-11z M1,121h3v2h-3z M7,122h11v1h-11z M74,122h8v1h-8z M84,122h6v1h-6z M151,122h14v1h-14z M212,122h7v1h-7z M1,123h4v1h-4z M6,123h8v1h-8z M76,123h6v1h-6z M84,123h4v1h-4z M154,123h7v1h-7z M214,123h5v1h-5z M1,124h10v1h-10z M78,124h9v1h-9z M1,125h9v1h-9z M79,125h7v1h-7z M1,126h8v1h-8z M156,124h4v3h-4z M215,124h4v3h-4z M1,127h7v1h-7z M80,126h5v2h-5z M155,127h6v1h-6z M215,127h5v1h-5z M154,128h8v1h-8z M214,128h7v1h-7z M1,128h6v2h-6z M81,128h5v2h-5z M150,129h15v1h-15z M213,129h9v1h-9z M1,130h7v1h-7z M82,130h5v1h-5z M148,130h20v1h-20z M211,130h11v1h-11z M0,131h9v1h-9z M83,131h5v1h-5z M144,131h12v1h-12z M161,131h10v1h-10z M207,131h10v1h-10z M219,131h7v1h-7z M262,120h4v12h-4z M0,132h11v1h-11z M84,132h7v1h-7z M140,132h14v1h-14z M162,132h17v1h-17z M201,132h15v1h-15z M219,132h11v1h-11z M261,132h5v1h-5z M0,133h13v1h-13z M84,133h10v1h-10z M133,133h133v1h-133z M1,134h265v1h-265z M1,135h264v1h-264z M2,136h261v1h-261z M4,137h140v1h-140z M145,137h4v1h-4z M151,137h9v1h-9z M161,137h5v1h-5z M169,137h3v1h-3z M174,137h2v1h-2z M182,137h2v1h-2z
  "/>
</svg>