<?xml version="1.0" encoding="UTF-8"?>
<svg xmlns="http://www.w3.org/2000/svg" viewBox="0 0 265 139" width="265" height="139">
  <title>11 Quartzite</title>
  <path fill="#111111" fill-rule="nonzero" d="
    M2,0h65v1h-65z M72,0h10v1h-10z M87,0h1v1h-1z M95,0h3v1h-3z M104,0h1v1h-1z M0,1h163v1h-163z M166,1h5v1h-5z M0,2h204v1h-204z M206,2h12v1h-12z M219,2h1v1h-1z M222,2h8v1h-8z M0,3h263v1h-263z M0,4h19v1h-19z M20,4h9v1h-9z M31,4h233v1h-233z M0,5h5v1h-5z M6,5h4v1h-4z M123,5h3v1h-3z M127,5h1v1h-1z M133,5h5v1h-5z M147,5h118v1h-118z M0,6h4v1h-4z M150,6h2v1h-2z M200,6h9v1h-9z M211,6h54v1h-54z M6,6h3v2h-3z M127,7h2v1h-2z M149,7h4v1h-4z M211,7h3v1h-3z M260,7h5v1h-5z M0,7h5v2h-5z M24,8h2v1h-2z M97,8h1v1h-1z M210,8h4v1h-4z M149,8h5v2h-5z M190,9h1v1h-1z M211,9h3v1h-3z M22,9h4v2h-4z M58,10h1v1h-1z M95,9h3v2h-3z M126,8h4v3h-4z M190,10h2v1h-2z M248,10h2v1h-2z M23,11h3v1h-3z M51,11h2v1h-2z M57,11h3v1h-3z M96,11h2v1h-2z M127,11h3v1h-3z M150,10h4v2h-4z M174,11h2v1h-2z M190,11h1v1h-1z M23,12h2v1h-2z M57,12h4v1h-4z M114,12h1v1h-1z M149,12h4v1h-4z M173,12h3v1h-3z M229,12h1v1h-1z M247,11h3v2h-3z M56,13h6v1h-6z M114,13h3v1h-3z M150,13h3v1h-3z M173,13h4v1h-4z M37,14h1v1h-1z M50,12h4v3h-4z M150,14h2v1h-2z M174,14h2v1h-2z M36,15h3v1h-3z M51,15h2v1h-2z M57,14h5v2h-5z M137,15h2v1h-2z M149,15h3v1h-3z M228,13h4v3h-4z M261,8h4v8h-4z M10,16h3v1h-3z M58,16h4v1h-4z M66,16h1v1h-1z M113,14h4v3h-4z M148,16h5v1h-5z M229,16h2v1h-2z M260,16h5v1h-5z M36,16h4v2h-4z M59,17h3v1h-3z M65,17h3v1h-3z M258,17h7v1h-7z M10,17h4v2h-4z M36,18h3v1h-3z M64,18h5v1h-5z M103,18h1v1h-1z M136,16h4v3h-4z M147,17h5v2h-5z M161,18h2v1h-2z M200,17h4v2h-4z M10,19h3v1h-3z M65,19h3v1h-3z M83,17h4v3h-4z M102,19h3v1h-3z M146,19h6v1h-6z M200,19h3v1h-3z M257,18h8v2h-8z M65,20h2v1h-2z M102,20h4v1h-4z M145,20h5v1h-5z M201,20h2v1h-2z M258,20h7v1h-7z M161,19h3v3h-3z M214,21h3v1h-3z M259,21h6v1h-6z M102,21h3v2h-3z M144,21h6v2h-6z M185,22h2v1h-2z M214,22h4v1h-4z M260,22h5v1h-5z M123,23h3v1h-3z M145,23h5v1h-5z M184,23h4v1h-4z M213,23h5v1h-5z M233,23h3v1h-3z M59,18h4v7h-4z M183,24h5v1h-5z M213,24h4v1h-4z M261,23h4v2h-4z M122,24h5v2h-5z M146,24h5v2h-5z M172,25h3v1h-3z M184,25h3v1h-3z M215,25h1v1h-1z M218,25h3v1h-3z M232,24h5v2h-5z M59,25h5v2h-5z M123,26h3v1h-3z M147,26h3v1h-3z M171,26h4v1h-4z M218,26h4v1h-4z M233,26h4v1h-4z M246,23h4v4h-4z M142,27h1v1h-1z M171,27h5v1h-5z M216,27h5v1h-5z M49,28h2v1h-2z M91,28h4v1h-4z M110,28h3v1h-3z M141,28h4v1h-4z M171,28h4v1h-4z M215,28h6v1h-6z M260,25h5v4h-5z M39,29h3v1h-3z M90,29h5v1h-5z M140,29h5v1h-5z M173,29h1v1h-1z M213,29h7v1h-7z M60,27h4v4h-4z M91,30h4v1h-4z M140,30h4v1h-4z M212,30h6v1h-6z M39,30h5v2h-5z M48,29h4v3h-4z M61,31h4v1h-4z M77,29h3v3h-3z M92,31h2v1h-2z M110,29h4v3h-4z M140,31h3v1h-3z M207,31h10v1h-10z M40,32h4v1h-4z M50,32h1v1h-1z M62,32h4v1h-4z M78,32h2v1h-2z M110,32h3v1h-3z M140,32h2v1h-2z M160,32h2v1h-2z M205,32h11v1h-11z M14,33h3v1h-3z M62,33h6v1h-6z M223,31h4v3h-4z M253,33h1v1h-1z M14,34h4v1h-4z M40,33h6v2h-6z M63,34h6v1h-6z M159,33h5v2h-5z M203,33h12v2h-12z M224,34h2v1h-2z M252,34h3v1h-3z M13,35h5v1h-5z M41,35h5v1h-5z M160,35h3v1h-3z M200,35h14v1h-14z M14,36h2v1h-2z M43,36h4v1h-4z M64,35h5v2h-5z M124,36h2v1h-2z M140,36h2v1h-2z M161,36h1v1h-1z M199,36h8v1h-8z M252,35h4v2h-4z M261,29h4v8h-4z M43,37h5v1h-5z M64,37h4v1h-4z M123,37h3v1h-3z M199,37h7v1h-7z M208,36h6v2h-6z M241,37h1v1h-1z M253,37h2v1h-2z M38,38h1v1h-1z M44,38h4v1h-4z M64,38h3v1h-3z M124,38h2v1h-2z M139,37h3v2h-3z M197,38h7v1h-7z M260,37h5v2h-5z M37,39h3v1h-3z M45,39h4v1h-4z M93,39h2v1h-2z M102,39h3v1h-3z M140,39h2v1h-2z M196,39h5v1h-5z M207,38h6v2h-6z M37,40h4v1h-4z M45,40h5v1h-5z M92,40h4v1h-4z M195,40h5v1h-5z M207,40h5v1h-5z M261,39h4v2h-4z M37,41h3v1h-3z M46,41h5v1h-5z M91,41h5v1h-5z M101,40h4v2h-4z M182,38h4v4h-4z M196,41h4v1h-4z M206,41h5v1h-5z M221,41h3v1h-3z M0,9h4v34h-4z M26,40h2v3h-2z M38,42h1v1h-1z M46,42h6v1h-6z M54,41h4v2h-4z M102,42h3v1h-3z M197,42h1v1h-1z M260,41h5v2h-5z M26,43h1v1h-1z M47,43h6v1h-6z M54,43h5v1h-5z M90,42h6v2h-6z M205,42h5v2h-5z M220,42h4v2h-4z M48,44h10v1h-10z M90,44h5v1h-5z M204,44h5v1h-5z M221,44h3v1h-3z M48,45h6v1h-6z M56,45h1v1h-1z M77,45h2v1h-2z M171,43h4v3h-4z M8,46h3v1h-3z M49,46h5v1h-5z M172,46h2v1h-2z M181,46h3v1h-3z M50,47h5v1h-5z M76,46h3v2h-3z M90,47h3v1h-3z M204,45h4v3h-4z M7,47h5v2h-5z M51,48h5v1h-5z M88,48h5v1h-5z M156,46h4v3h-4z M180,47h4v2h-4z M204,48h3v1h-3z M213,48h2v1h-2z M8,49h3v1h-3z M51,49h6v1h-6z M87,49h5v1h-5z M157,49h3v1h-3z M180,49h3v1h-3z M203,49h4v1h-4z M10,50h1v1h-1z M53,50h4v1h-4z M86,50h6v1h-6z M134,49h3v2h-3z M175,50h2v1h-2z M180,50h2v1h-2z M201,50h4v1h-4z M212,49h4v2h-4z M243,50h3v1h-3z M256,50h2v1h-2z M261,43h4v8h-4z M36,51h2v1h-2z M53,51h5v1h-5z M95,51h2v1h-2z M135,51h1v1h-1z M188,51h2v1h-2z M213,51h2v1h-2z M228,51h4v1h-4z M0,43h5v10h-5z M36,52h3v1h-3z M54,52h5v1h-5z M85,51h7v2h-7z M200,51h4v2h-4z M242,51h4v2h-4z M255,51h4v2h-4z M35,53h4v1h-4z M55,53h5v1h-5z M66,53h1v1h-1z M94,52h4v2h-4z M148,53h1v1h-1z M174,51h4v3h-4z M199,53h5v1h-5z M228,52h5v2h-5z M243,53h3v1h-3z M256,53h2v1h-2z M260,51h5v3h-5z M21,54h3v1h-3z M36,54h3v1h-3z M84,53h8v2h-8z M95,54h3v1h-3z M147,54h3v1h-3z M174,54h5v1h-5z M187,52h4v3h-4z M198,54h5v1h-5z M229,54h3v1h-3z M20,55h4v1h-4z M37,55h1v1h-1z M56,54h4v2h-4z M65,54h4v2h-4z M83,55h9v1h-9z M198,55h4v1h-4z M20,56h5v1h-5z M50,56h1v1h-1z M65,56h3v1h-3z M147,55h4v2h-4z M197,56h4v1h-4z M261,54h4v3h-4z M20,57h4v1h-4z M57,56h4v2h-4z M148,57h2v1h-2z M164,57h6v1h-6z M176,55h4v3h-4z M196,57h4v1h-4z M58,58h4v1h-4z M82,56h11v3h-11z M123,58h1v1h-1z M162,58h7v1h-7z M177,58h2v1h-2z M195,58h5v1h-5z M48,57h5v3h-5z M59,59h3v1h-3z M82,59h12v1h-12z M122,59h3v1h-3z M159,59h10v1h-10z M195,59h4v1h-4z M217,59h4v1h-4z M260,57h5v3h-5z M49,60h3v1h-3z M60,60h3v1h-3z M81,60h6v1h-6z M105,60h3v1h-3z M157,60h11v1h-11z M195,60h3v1h-3z M80,61h6v1h-6z M89,60h5v2h-5z M121,60h5v2h-5z M157,61h10v1h-10z M194,61h2v1h-2z M217,60h5v2h-5z M244,61h4v1h-4z M61,61h3v2h-3z M104,61h5v2h-5z M121,62h4v1h-4z M156,62h6v1h-6z M217,62h4v1h-4z M231,62h3v1h-3z M62,63h1v1h-1z M79,62h7v2h-7z M90,62h4v2h-4z M105,63h3v1h-3z M122,63h3v1h-3z M155,63h4v1h-4z M192,62h4v2h-4z M230,63h5v1h-5z M243,62h5v2h-5z M79,64h6v1h-6z M90,64h6v1h-6z M154,64h4v1h-4z M231,64h4v1h-4z M242,64h5v1h-5z M78,65h7v1h-7z M154,65h3v1h-3z M191,64h5v2h-5z M231,65h3v1h-3z M240,65h6v1h-6z M11,63h3v4h-3z M77,66h8v1h-8z M90,65h7v2h-7z M191,66h3v1h-3z M238,66h7v1h-7z M250,66h3v1h-3z M76,67h9v1h-9z M91,67h6v1h-6z M183,65h3v3h-3z M190,67h2v1h-2z M202,66h3v2h-3z M238,67h6v1h-6z M249,67h4v1h-4z M76,68h8v1h-8z M92,68h4v1h-4z M132,66h4v3h-4z M183,68h2v1h-2z M188,68h4v1h-4z M203,68h2v1h-2z M236,68h6v1h-6z M250,68h3v1h-3z M26,69h2v1h-2z M75,69h8v1h-8z M113,67h1v3h-1z M148,67h4v3h-4z M234,69h6v1h-6z M42,69h2v2h-2z M75,70h7v1h-7z M93,69h3v2h-3z M159,70h2v1h-2z M188,69h3v2h-3z M214,70h3v1h-3z M233,70h6v1h-6z M26,70h3v2h-3z M69,69h3v3h-3z M76,71h5v1h-5z M188,71h2v1h-2z M231,71h8v1h-8z M26,72h1v1h-1z M77,72h3v1h-3z M93,71h4v2h-4z M106,72h3v1h-3z M141,70h4v3h-4z M230,72h8v1h-8z M141,73h3v1h-3z M158,71h4v3h-4z M169,73h4v1h-4z M214,71h4v3h-4z M229,73h8v1h-8z M242,73h1v1h-1z M56,73h4v2h-4z M73,74h3v1h-3z M106,73h4v2h-4z M159,74h1v1h-1z M169,74h5v1h-5z M187,74h2v1h-2z M228,74h6v1h-6z M261,60h4v15h-4z M55,75h5v1h-5z M73,75h4v1h-4z M94,73h3v3h-3z M106,75h5v1h-5z M123,73h4v3h-4z M150,75h3v1h-3z M170,75h4v1h-4z M228,75h5v1h-5z M260,75h5v1h-5z M56,76h4v1h-4z M72,76h5v1h-5z M93,76h4v1h-4z M100,76h3v1h-3z M124,76h2v1h-2z M170,76h3v1h-3z M227,76h4v1h-4z M240,74h4v3h-4z M71,77h5v1h-5z M93,77h10v1h-10z M107,76h4v2h-4z M149,76h5v2h-5z M186,75h4v3h-4z M226,77h5v1h-5z M241,77h3v1h-3z M70,78h6v1h-6z M88,76h4v3h-4z M94,78h9v1h-9z M135,78h1v1h-1z M150,78h3v1h-3z M185,78h4v1h-4z M224,78h5v1h-5z M70,79h4v1h-4z M88,79h3v1h-3z M94,79h8v1h-8z M133,79h4v1h-4z M151,79h1v1h-1z M184,79h5v1h-5z M223,79h6v1h-6z M9,80h1v1h-1z M69,80h5v1h-5z M94,80h7v1h-7z M183,80h6v1h-6z M223,80h5v1h-5z M8,81h4v1h-4z M68,81h5v1h-5z M95,81h5v1h-5z M133,80h5v2h-5z M180,81h9v1h-9z M221,81h8v1h-8z M253,81h3v1h-3z M8,82h6v1h-6z M134,82h3v1h-3z M143,82h2v1h-2z M179,82h10v1h-10z M199,82h3v1h-3z M220,82h8v1h-8z M8,83h7v1h-7z M20,83h1v1h-1z M67,82h5v2h-5z M96,82h4v2h-4z M178,83h5v1h-5z M184,83h5v1h-5z M198,83h5v1h-5z M210,83h2v1h-2z M220,83h6v1h-6z M8,84h8v1h-8z M19,84h3v1h-3z M38,84h2v1h-2z M67,84h4v1h-4z M97,84h3v1h-3z M143,83h3v2h-3z M177,84h5v1h-5z M185,84h4v1h-4z M199,84h4v1h-4z M209,84h4v1h-4z M219,84h4v1h-4z M252,82h4v3h-4z M9,85h8v1h-8z M18,85h4v1h-4z M52,85h1v1h-1z M66,85h5v1h-5z M121,85h1v1h-1z M176,85h5v1h-5z M186,85h3v1h-3z M199,85h3v1h-3z M210,85h2v1h-2z M219,85h3v1h-3z M12,86h10v1h-10z M37,85h4v2h-4z M64,86h6v1h-6z M119,86h4v1h-4z M161,83h3v4h-3z M175,86h5v1h-5z M187,86h2v1h-2z M245,86h2v1h-2z M261,76h4v11h-4z M12,87h9v1h-9z M38,87h2v1h-2z M50,86h4v2h-4z M64,87h5v1h-5z M78,87h2v1h-2z M96,85h4v3h-4z M106,87h4v1h-4z M118,87h5v1h-5z M172,87h8v1h-8z M245,87h3v1h-3z M14,88h7v1h-7z M51,88h3v1h-3z M63,88h5v1h-5z M98,88h1v1h-1z M119,88h4v1h-4z M244,88h4v1h-4z M260,87h5v2h-5z M15,89h7v1h-7z M63,89h3v1h-3z M77,88h4v2h-4z M105,88h5v2h-5z M119,89h3v1h-3z M131,89h3v1h-3z M172,88h7v2h-7z M186,87h3v3h-3z M245,89h3v1h-3z M15,90h9v1h-9z M78,90h3v1h-3z M99,90h1v1h-1z M106,90h3v1h-3z M261,89h4v2h-4z M0,53h4v39h-4z M7,91h3v1h-3z M17,91h8v1h-8z M62,90h4v2h-4z M99,91h3v1h-3z M108,91h1v1h-1z M130,90h5v2h-5z M173,90h5v2h-5z M187,90h2v2h-2z M231,91h2v1h-2z M20,92h5v1h-5z M61,92h4v1h-4z M92,92h2v1h-2z M99,92h4v1h-4z M131,92h4v1h-4z M147,90h4v3h-4z M173,92h4v1h-4z M230,92h4v1h-4z M0,92h10v2h-10z M21,93h5v1h-5z M60,93h4v1h-4z M99,93h3v1h-3z M132,93h2v1h-2z M148,93h2v1h-2z M172,93h4v1h-4z M230,93h5v1h-5z M6,94h4v1h-4z M23,94h8v1h-8z M59,94h5v1h-5z M158,94h2v1h-2z M172,94h3v1h-3z M202,94h2v1h-2z M260,91h5v4h-5z M25,95h6v1h-6z M91,93h4v3h-4z M158,95h3v1h-3z M171,95h3v1h-3z M187,92h3v4h-3z M201,95h4v1h-4z M230,94h4v2h-4z M26,96h5v1h-5z M58,95h5v2h-5z M92,96h2v1h-2z M102,96h1v1h-1z M158,96h4v1h-4z M170,96h4v1h-4z M188,96h2v1h-2z M201,96h8v1h-8z M254,96h2v1h-2z M27,97h3v1h-3z M55,97h7v1h-7z M139,97h3v1h-3z M158,97h3v1h-3z M170,97h3v1h-3z M183,97h3v1h-3z M187,97h3v1h-3z M206,97h4v1h-4z M39,98h3v1h-3z M55,98h5v1h-5z M207,98h5v1h-5z M17,99h3v1h-3z M56,99h3v1h-3z M101,97h3v3h-3z M139,98h4v2h-4z M182,98h8v2h-8z M208,99h5v1h-5z M253,97h4v3h-4z M16,100h5v1h-5z M65,100h2v1h-2z M107,100h2v1h-2z M120,100h3v1h-3z M140,100h2v1h-2z M183,100h7v1h-7z M194,100h3v1h-3z M208,100h9v1h-9z M242,100h2v1h-2z M254,100h2v1h-2z M16,101h4v1h-4z M38,99h4v3h-4z M106,101h3v1h-3z M186,101h4v1h-4z M194,101h4v1h-4z M208,101h10v1h-10z M241,101h4v1h-4z M17,102h3v1h-3z M81,102h3v1h-3z M193,102h5v1h-5z M209,102h11v1h-11z M64,101h4v3h-4z M81,103h4v1h-4z M104,102h6v2h-6z M120,101h4v3h-4z M187,102h3v2h-3z M193,103h4v1h-4z M213,103h9v1h-9z M240,102h6v2h-6z M80,104h5v1h-5z M121,104h1v1h-1z M152,104h2v1h-2z M195,104h2v1h-2z M214,104h9v1h-9z M242,104h3v1h-3z M57,105h1v1h-1z M81,105h4v1h-4z M104,104h7v2h-7z M215,105h8v1h-8z M104,106h8v1h-8z M132,106h2v1h-2z M151,105h5v2h-5z M188,104h3v3h-3z M218,106h6v1h-6z M226,106h1v1h-1z M0,94h4v14h-4z M108,107h4v1h-4z M152,107h3v1h-3z M168,105h2v3h-2z M219,107h10v1h-10z M0,108h5v1h-5z M104,107h3v2h-3z M109,108h4v1h-4z M153,108h1v1h-1z M187,107h4v2h-4z M220,108h9v1h-9z M97,109h2v1h-2z M106,109h1v1h-1z M131,107h4v3h-4z M223,109h7v1h-7z M95,110h5v1h-5z M111,109h3v2h-3z M132,110h2v1h-2z M187,109h3v2h-3z M224,110h6v1h-6z M252,110h2v1h-2z M43,111h4v1h-4z M95,111h6v1h-6z M112,111h2v1h-2z M116,111h1v1h-1z M178,111h3v1h-3z M186,111h4v1h-4z M227,111h2v1h-2z M0,109h8v4h-8z M29,112h4v1h-4z M95,112h5v1h-5z M114,112h4v1h-4z M186,112h3v1h-3z M232,112h2v1h-2z M0,113h5v1h-5z M43,112h5v2h-5z M96,113h4v1h-4z M141,113h4v1h-4z M187,113h2v1h-2z M218,113h2v1h-2z M251,111h4v3h-4z M44,114h4v1h-4z M74,114h2v1h-2z M97,114h1v1h-1z M114,113h5v2h-5z M141,114h5v1h-5z M178,112h4v3h-4z M207,114h1v1h-1z M218,114h4v1h-4z M232,113h4v2h-4z M239,114h1v1h-1z M28,113h5v3h-5z M46,115h1v1h-1z M115,115h4v1h-4z M141,115h4v1h-4z M193,115h3v1h-3z M207,115h3v1h-3z M233,115h8v1h-8z M14,115h4v2h-4z M30,116h2v1h-2z M58,116h1v1h-1z M72,115h5v2h-5z M116,116h2v1h-2z M192,116h5v1h-5z M207,116h4v1h-4z M217,115h5v2h-5z M245,116h1v1h-1z M15,117h2v1h-2z M72,117h4v1h-4z M117,117h1v1h-1z M193,117h4v1h-4z M207,117h3v1h-3z M236,116h5v2h-5z M15,118h1v1h-1z M73,118h3v1h-3z M156,118h2v1h-2z M193,118h3v1h-3z M207,118h2v1h-2z M237,118h4v1h-4z M244,117h4v2h-4z M58,117h2v3h-2z M155,119h4v1h-4z M245,119h3v1h-3z M58,120h1v1h-1z M121,120h1v1h-1z M154,120h5v1h-5z M166,120h3v1h-3z M120,121h2v1h-2z M133,121h2v1h-2z M155,121h4v1h-4z M166,121h4v1h-4z M87,121h5v2h-5z M105,122h3v1h-3z M120,122h3v1h-3z M133,122h4v1h-4z M157,122h1v1h-1z M166,122h3v1h-3z M23,123h3v1h-3z M87,123h4v1h-4z M104,123h4v1h-4z M132,123h5v1h-5z M167,123h1v1h-1z M40,124h2v1h-2z M88,124h3v1h-3z M104,124h5v1h-5z M133,124h4v1h-4z M181,124h3v1h-3z M251,124h3v1h-3z M8,125h2v1h-2z M22,124h4v2h-4z M105,125h3v1h-3z M226,123h4v3h-4z M23,126h3v1h-3z M39,125h5v2h-5z M145,126h2v1h-2z M205,126h2v1h-2z M227,126h2v1h-2z M0,114h4v14h-4z M39,127h4v1h-4z M64,127h2v1h-2z M122,127h3v1h-3z M164,127h1v1h-1z M180,125h4v3h-4z M250,125h4v3h-4z M0,128h5v1h-5z M7,126h3v3h-3z M40,128h2v1h-2z M64,128h3v1h-3z M122,128h4v1h-4z M162,128h4v1h-4z M181,128h2v1h-2z M239,128h3v1h-3z M8,129h2v1h-2z M63,129h4v1h-4z M82,129h2v1h-2z M144,127h4v3h-4z M162,129h5v1h-5z M204,127h4v3h-4z M238,129h5v1h-5z M0,129h4v2h-4z M64,130h2v1h-2z M81,130h4v1h-4z M162,130h4v1h-4z M206,130h1v1h-1z M0,131h5v1h-5z M80,131h5v1h-5z M163,131h2v1h-2z M239,130h4v2h-4z M0,132h33v1h-33z M34,132h10v1h-10z M48,132h2v1h-2z M62,132h1v1h-1z M79,132h7v1h-7z M191,130h3v3h-3z M0,133h148v1h-148z M160,133h5v1h-5z M167,133h2v1h-2z M179,133h9v1h-9z M190,133h5v1h-5z M198,133h1v1h-1z M261,95h4v39h-4z M1,134h264v1h-264z M2,135h263v1h-263z M3,136h8v1h-8z M12,136h252v1h-252z M90,137h6v1h-6z M128,137h1v1h-1z M133,137h3v1h-3z M141,137h9v1h-9z M158,137h106v1h-106z M244,138h14v1h-14z M260,138h3v1h-3z
  "/>
</svg>