<?xml version="1.0" encoding="UTF-8"?>
<svg xmlns="http://www.w3.org/2000/svg" viewBox="0 0 266 138" width="266" height="138">
  <title>48 Schist</title>
  <path fill="#111111" fill-rule="nonzero" d="
    M2,0h35v1h-35z M45,0h1v1h-1z M47,0h8v1h-8z M68,0h3v1h-3z M1,1h133v1h-133z M136,1h22v1h-22z M171,1h3v1h-3z M177,1h2v1h-2z M181,1h3v1h-3z M191,1h1v1h-1z M195,1h5v1h-5z M207,1h2v1h-2z M213,1h2v1h-2z M258,1h2v1h-2z M1,2h264v2h-264z M1,4h5v1h-5z M8,4h5v1h-5z M15,4h7v1h-7z M25,4h51v1h-51z M80,4h186v1h-186z M8,5h4v1h-4z M14,5h6v1h-6z M25,5h6v1h-6z M42,5h5v1h-5z M58,5h7v1h-7z M69,5h6v1h-6z M81,5h5v1h-5z M93,5h7v1h-7z M104,5h7v1h-7z M115,5h6v1h-6z M131,5h6v1h-6z M139,5h6v1h-6z M149,5h6v1h-6z M156,5h8v1h-8z M165,5h15v1h-15z M184,5h22v1h-22z M208,5h58v1h-58z M1,5h4v2h-4z M7,6h5v1h-5z M14,6h5v1h-5z M24,6h6v1h-6z M41,6h5v1h-5z M57,6h7v1h-7z M69,6h5v1h-5z M80,6h5v1h-5z M92,6h6v1h-6z M103,6h7v1h-7z M114,6h5v1h-5z M131,6h5v1h-5z M139,6h5v1h-5z M149,6h5v1h-5z M156,6h6v1h-6z M166,6h5v1h-5z M174,6h4v1h-4z M184,6h5v1h-5z M192,6h6v1h-6z M200,6h5v1h-5z M208,6h5v1h-5z M218,6h6v1h-6z M226,6h12v1h-12z M242,6h15v1h-15z M1,7h10v1h-10z M13,7h5v1h-5z M23,7h6v1h-6z M40,7h5v1h-5z M56,7h7v1h-7z M68,7h5v1h-5z M79,7h5v1h-5z M91,7h6v1h-6z M102,7h6v1h-6z M113,7h5v1h-5z M130,7h5v1h-5z M139,7h4v1h-4z M149,7h4v1h-4z M155,7h5v1h-5z M165,7h4v1h-4z M173,7h4v1h-4z M184,7h4v1h-4z M192,7h4v1h-4z M199,7h6v1h-6z M208,7h4v1h-4z M217,7h5v1h-5z M226,7h4v1h-4z M233,7h4v1h-4z M242,7h5v1h-5z M249,7h6v1h-6z M258,6h8v2h-8z M1,8h8v1h-8z M11,8h6v1h-6z M22,8h5v1h-5z M39,8h5v1h-5z M55,8h6v1h-6z M67,8h5v1h-5z M79,8h4v1h-4z M90,8h5v1h-5z M101,8h6v1h-6z M112,8h5v1h-5z M129,8h5v1h-5z M138,8h4v1h-4z M148,8h4v1h-4z M155,8h4v1h-4z M172,8h4v1h-4z M183,8h4v1h-4z M191,8h5v1h-5z M199,8h4v1h-4z M206,8h5v1h-5z M216,8h5v1h-5z M224,8h6v1h-6z M232,8h4v1h-4z M241,8h6v1h-6z M248,8h6v1h-6z M257,8h9v1h-9z M1,9h7v1h-7z M10,9h6v1h-6z M21,9h5v1h-5z M38,9h5v1h-5z M54,9h6v1h-6z M66,9h5v1h-5z M78,9h4v1h-4z M89,9h5v1h-5z M100,9h5v1h-5z M111,9h5v1h-5z M127,9h6v1h-6z M137,9h4v1h-4z M147,9h4v1h-4z M154,9h4v1h-4z M164,8h4v2h-4z M172,9h3v1h-3z M182,9h5v1h-5z M190,9h5v1h-5z M197,9h6v1h-6z M205,9h5v1h-5z M215,9h5v1h-5z M223,9h6v1h-6z M240,9h5v1h-5z M247,9h5v1h-5z M256,9h10v1h-10z M1,10h6v1h-6z M9,10h6v1h-6z M19,10h7v1h-7z M36,10h6v1h-6z M52,10h6v1h-6z M65,10h5v1h-5z M77,10h4v1h-4z M88,10h5v1h-5z M98,10h5v1h-5z M110,10h5v1h-5z M127,10h4v1h-4z M136,10h4v1h-4z M145,10h6v1h-6z M153,10h5v1h-5z M163,10h4v1h-4z M171,10h4v1h-4z M181,10h4v1h-4z M189,10h4v1h-4z M196,10h6v1h-6z M204,10h5v1h-5z M213,10h6v1h-6z M222,10h5v1h-5z M231,9h4v2h-4z M239,10h5v1h-5z M247,10h4v1h-4z M255,10h11v1h-11z M1,11h5v1h-5z M9,11h4v1h-4z M18,11h6v1h-6z M25,11h4v1h-4z M35,11h6v1h-6z M51,11h5v1h-5z M63,11h5v1h-5z M87,11h5v1h-5z M97,11h6v1h-6z M109,11h5v1h-5z M126,11h4v1h-4z M135,11h5v1h-5z M144,11h6v1h-6z M152,11h5v1h-5z M169,11h5v1h-5z M180,11h5v1h-5z M188,11h4v1h-4z M196,11h5v1h-5z M203,11h5v1h-5z M211,11h7v1h-7z M221,11h5v1h-5z M230,11h4v1h-4z M237,11h6v1h-6z M246,11h4v1h-4z M254,11h5v1h-5z M1,12h4v1h-4z M8,12h4v1h-4z M17,12h5v1h-5z M24,12h5v1h-5z M34,12h6v1h-6z M50,12h6v1h-6z M62,12h6v1h-6z M76,11h4v2h-4z M86,12h5v1h-5z M96,12h5v1h-5z M109,12h4v1h-4z M119,11h4v2h-4z M125,12h4v1h-4z M135,12h3v1h-3z M144,12h5v1h-5z M151,12h4v1h-4z M162,11h4v2h-4z M169,12h4v1h-4z M180,12h4v1h-4z M187,12h4v1h-4z M195,12h5v1h-5z M202,12h5v1h-5z M210,12h6v1h-6z M220,12h5v1h-5z M229,12h5v1h-5z M237,12h4v1h-4z M244,12h5v1h-5z M253,12h5v1h-5z M1,13h5v1h-5z M7,13h4v1h-4z M16,13h5v1h-5z M33,13h5v1h-5z M49,13h6v1h-6z M60,13h6v1h-6z M75,13h4v1h-4z M85,13h5v1h-5z M95,13h5v1h-5z M108,13h4v1h-4z M117,13h5v1h-5z M125,13h3v1h-3z M134,13h4v1h-4z M143,13h5v1h-5z M150,13h5v1h-5z M160,13h5v1h-5z M168,13h5v1h-5z M179,13h4v1h-4z M185,13h5v1h-5z M194,13h6v1h-6z M201,13h6v1h-6z M208,13h7v1h-7z M218,13h6v1h-6z M229,13h4v1h-4z M236,13h4v1h-4z M244,13h4v1h-4z M252,13h5v1h-5z M1,14h9v1h-9z M16,14h3v1h-3z M23,13h5v2h-5z M32,14h5v1h-5z M49,14h5v1h-5z M59,14h6v1h-6z M75,14h3v1h-3z M84,14h5v1h-5z M94,14h5v1h-5z M107,14h4v1h-4z M117,14h4v1h-4z M124,14h4v1h-4z M133,14h5v1h-5z M141,14h6v1h-6z M150,14h4v1h-4z M159,14h5v1h-5z M185,14h4v1h-4z M193,14h5v1h-5z M200,14h14v1h-14z M217,14h6v1h-6z M228,14h4v1h-4z M235,14h5v1h-5z M243,14h4v1h-4z M251,14h6v1h-6z M17,15h1v1h-1z M21,15h5v1h-5z M31,15h5v1h-5z M48,15h5v1h-5z M58,15h5v1h-5z M74,15h4v1h-4z M83,15h6v1h-6z M93,15h4v1h-4z M107,15h3v1h-3z M116,15h4v1h-4z M123,15h4v1h-4z M133,15h4v1h-4z M141,15h5v1h-5z M149,15h4v1h-4z M159,15h4v1h-4z M167,14h4v2h-4z M178,14h4v2h-4z M192,15h5v1h-5z M199,15h6v1h-6z M206,15h6v1h-6z M215,15h6v1h-6z M234,15h5v1h-5z M242,15h4v1h-4z M251,15h8v1h-8z M262,11h4v5h-4z M1,15h8v2h-8z M21,16h4v1h-4z M30,16h4v1h-4z M38,16h2v1h-2z M47,16h5v1h-5z M57,16h5v1h-5z M82,16h5v1h-5z M92,16h5v1h-5z M106,16h4v1h-4z M115,16h4v1h-4z M123,16h3v1h-3z M132,16h4v1h-4z M140,16h5v1h-5z M148,16h5v1h-5z M157,16h5v1h-5z M166,16h4v1h-4z M177,16h4v1h-4z M184,15h4v2h-4z M191,16h5v1h-5z M199,16h5v1h-5z M205,16h6v1h-6z M214,16h7v1h-7z M227,15h4v2h-4z M233,16h5v1h-5z M241,16h4v1h-4z M249,16h11v1h-11z M1,17h7v1h-7z M28,17h5v1h-5z M36,17h4v1h-4z M46,17h5v1h-5z M55,17h5v1h-5z M73,16h4v2h-4z M81,17h5v1h-5z M91,17h4v1h-4z M114,17h5v1h-5z M122,17h3v1h-3z M131,17h4v1h-4z M138,17h6v1h-6z M147,17h4v1h-4z M156,17h5v1h-5z M165,17h4v1h-4z M176,17h4v1h-4z M185,17h2v1h-2z M189,17h6v1h-6z M198,17h5v1h-5z M205,17h5v1h-5z M212,17h7v1h-7z M225,17h5v1h-5z M232,17h5v1h-5z M240,17h4v1h-4z M248,17h11v1h-11z M261,16h5v2h-5z M1,18h6v1h-6z M19,17h5v2h-5z M27,18h4v1h-4z M35,18h5v1h-5z M45,18h5v1h-5z M54,18h6v1h-6z M63,18h1v1h-1z M72,18h4v1h-4z M81,18h4v1h-4z M90,18h5v1h-5z M99,18h2v1h-2z M105,17h4v2h-4z M114,18h4v1h-4z M121,18h4v1h-4z M130,18h5v1h-5z M138,18h5v1h-5z M146,18h5v1h-5z M155,18h5v1h-5z M164,18h5v1h-5z M176,18h3v1h-3z M189,18h5v1h-5z M197,18h4v1h-4z M204,18h5v1h-5z M211,18h7v1h-7z M225,18h4v1h-4z M231,18h5v1h-5z M239,18h4v1h-4z M247,18h6v1h-6z M254,18h5v1h-5z M18,19h4v1h-4z M26,19h5v1h-5z M35,19h4v1h-4z M45,19h4v1h-4z M53,19h6v1h-6z M62,19h3v1h-3z M81,19h3v1h-3z M89,19h5v1h-5z M98,19h3v1h-3z M104,19h4v1h-4z M113,19h4v1h-4z M120,19h4v1h-4z M130,19h4v1h-4z M137,19h5v1h-5z M144,19h5v1h-5z M154,19h5v1h-5z M163,19h5v1h-5z M175,19h4v1h-4z M186,19h7v1h-7z M196,19h5v1h-5z M203,19h4v1h-4z M209,19h6v1h-6z M224,19h4v1h-4z M231,19h4v1h-4z M238,19h4v1h-4z M247,19h10v1h-10z M262,18h3v2h-3z M1,19h5v2h-5z M17,20h5v1h-5z M25,20h5v1h-5z M44,20h4v1h-4z M61,20h4v1h-4z M71,19h4v2h-4z M81,20h1v1h-1z M88,20h5v1h-5z M97,20h4v1h-4z M103,20h4v1h-4z M112,20h4v1h-4z M119,20h5v1h-5z M129,20h4v1h-4z M136,20h5v1h-5z M144,20h4v1h-4z M153,20h5v1h-5z M162,20h5v1h-5z M186,20h5v1h-5z M196,20h10v1h-10z M208,20h6v1h-6z M223,20h4v1h-4z M229,20h5v1h-5z M237,20h5v1h-5z M246,20h5v1h-5z M252,20h5v1h-5z M261,20h4v1h-4z M9,21h2v1h-2z M16,21h4v1h-4z M25,21h3v1h-3z M34,20h4v2h-4z M43,21h5v1h-5z M52,20h5v2h-5z M60,21h5v1h-5z M70,21h4v1h-4z M87,21h5v1h-5z M97,21h3v1h-3z M103,21h3v1h-3z M111,21h5v1h-5z M119,21h4v1h-4z M136,21h4v1h-4z M142,21h5v1h-5z M151,21h6v1h-6z M162,21h4v1h-4z M174,20h4v2h-4z M184,21h6v1h-6z M195,21h4v1h-4z M200,21h5v1h-5z M207,21h6v1h-6z M221,21h6v1h-6z M229,21h4v1h-4z M236,21h4v1h-4z M245,21h5v1h-5z M251,21h5v1h-5z M259,21h6v1h-6z M8,22h3v1h-3z M15,22h4v1h-4z M23,22h4v1h-4z M33,22h4v1h-4z M51,22h5v1h-5z M59,22h5v1h-5z M87,22h4v1h-4z M95,22h5v1h-5z M102,22h4v1h-4z M110,22h5v1h-5z M118,22h4v1h-4z M128,21h4v2h-4z M135,22h5v1h-5z M141,22h6v1h-6z M150,22h6v1h-6z M161,22h4v1h-4z M183,22h5v1h-5z M194,22h5v1h-5z M201,22h2v1h-2z M205,22h7v1h-7z M221,22h5v1h-5z M227,22h5v1h-5z M236,22h3v1h-3z M244,22h11v1h-11z M259,22h7v1h-7z M1,21h4v3h-4z M14,23h5v1h-5z M22,23h4v1h-4z M32,23h4v1h-4z M42,22h5v2h-5z M50,23h5v1h-5z M58,23h5v1h-5z M69,22h4v2h-4z M86,23h4v1h-4z M94,23h5v1h-5z M101,23h5v1h-5z M109,23h5v1h-5z M117,23h5v1h-5z M128,23h3v1h-3z M134,23h5v1h-5z M140,23h5v1h-5z M148,23h7v1h-7z M160,23h5v1h-5z M173,22h4v2h-4z M182,23h5v1h-5z M193,23h5v1h-5z M204,23h6v1h-6z M220,23h5v1h-5z M227,23h4v1h-4z M235,23h4v1h-4z M244,23h10v1h-10z M258,23h8v1h-8z M1,24h5v1h-5z M7,23h4v2h-4z M13,24h5v1h-5z M21,24h5v1h-5z M31,24h4v1h-4z M41,24h5v1h-5z M49,24h5v1h-5z M57,24h5v1h-5z M68,24h4v1h-4z M85,24h4v1h-4z M94,24h4v1h-4z M101,24h4v1h-4z M109,24h4v1h-4z M117,24h4v1h-4z M127,24h4v1h-4z M134,24h11v1h-11z M148,24h5v1h-5z M159,24h4v1h-4z M172,24h4v1h-4z M181,24h5v1h-5z M193,24h4v1h-4z M203,24h6v1h-6z M219,24h5v1h-5z M226,24h5v1h-5z M234,24h4v1h-4z M257,24h9v1h-9z M1,25h9v1h-9z M12,25h5v1h-5z M20,25h5v1h-5z M30,25h4v1h-4z M39,25h5v1h-5z M49,25h4v1h-4z M56,25h5v1h-5z M67,25h4v1h-4z M84,25h5v1h-5z M93,25h4v1h-4z M100,25h4v1h-4z M108,25h4v1h-4z M116,25h4v1h-4z M135,25h7v1h-7z M147,25h5v1h-5z M158,25h5v1h-5z M171,25h4v1h-4z M179,25h6v1h-6z M192,25h4v1h-4z M201,25h6v1h-6z M218,25h5v1h-5z M225,25h5v1h-5z M233,25h5v1h-5z M242,24h11v2h-11z M256,25h10v1h-10z M1,26h8v1h-8z M12,26h4v1h-4z M19,26h5v1h-5z M29,26h5v1h-5z M39,26h4v1h-4z M47,26h5v1h-5z M54,26h6v1h-6z M66,26h5v1h-5z M75,26h3v1h-3z M84,26h4v1h-4z M92,26h4v1h-4z M107,26h5v1h-5z M126,25h4v2h-4z M136,26h5v1h-5z M145,26h5v1h-5z M157,26h5v1h-5z M170,26h5v1h-5z M178,26h5v1h-5z M191,26h5v1h-5z M201,26h5v1h-5z M209,26h2v1h-2z M217,26h6v1h-6z M224,26h5v1h-5z M233,26h4v1h-4z M241,26h10v1h-10z M256,26h4v1h-4z M1,27h6v1h-6z M19,27h4v1h-4z M28,27h5v1h-5z M37,27h6v1h-6z M46,27h5v1h-5z M53,27h6v1h-6z M65,27h5v1h-5z M74,27h3v1h-3z M83,27h4v1h-4z M91,27h5v1h-5z M99,26h4v2h-4z M106,27h5v1h-5z M115,26h4v2h-4z M125,27h4v1h-4z M135,27h5v1h-5z M144,27h5v1h-5z M156,27h5v1h-5z M170,27h4v1h-4z M177,27h5v1h-5z M191,27h4v1h-4z M200,27h5v1h-5z M216,27h5v1h-5z M224,27h4v1h-4z M232,27h4v1h-4z M240,27h5v1h-5z M246,27h5v1h-5z M254,27h5v1h-5z M1,28h5v1h-5z M11,27h4v2h-4z M18,28h4v1h-4z M27,28h5v1h-5z M37,28h5v1h-5z M45,28h5v1h-5z M52,28h5v1h-5z M64,28h5v1h-5z M73,28h4v1h-4z M82,28h4v1h-4z M90,28h5v1h-5z M98,28h4v1h-4z M105,28h5v1h-5z M114,28h4v1h-4z M134,28h5v1h-5z M143,28h5v1h-5z M155,28h4v1h-4z M169,28h4v1h-4z M176,28h5v1h-5z M190,28h4v1h-4z M199,28h5v1h-5z M207,27h4v2h-4z M216,28h4v1h-4z M223,28h4v1h-4z M232,28h3v1h-3z M239,28h5v1h-5z M245,28h5v1h-5z M254,28h4v1h-4z M10,29h4v1h-4z M17,29h4v1h-4z M27,29h4v1h-4z M36,29h5v1h-5z M43,29h7v1h-7z M51,29h6v1h-6z M64,29h4v1h-4z M72,29h4v1h-4z M81,29h4v1h-4z M89,29h5v1h-5z M97,29h4v1h-4z M104,29h5v1h-5z M124,28h4v2h-4z M134,29h4v1h-4z M143,29h3v1h-3z M153,29h6v1h-6z M161,29h4v1h-4z M168,29h5v1h-5z M176,29h4v1h-4z M189,29h5v1h-5z M197,29h6v1h-6z M206,29h4v1h-4z M214,29h5v1h-5z M222,29h5v1h-5z M231,29h4v1h-4z M239,29h4v1h-4z M245,29h4v1h-4z M253,29h4v1h-4z M262,26h4v4h-4z M16,30h5v1h-5z M25,30h5v1h-5z M35,30h4v1h-4z M42,30h14v1h-14z M63,30h4v1h-4z M71,30h4v1h-4z M88,30h5v1h-5z M96,30h4v1h-4z M103,30h6v1h-6z M113,29h4v2h-4z M124,30h3v1h-3z M133,30h4v1h-4z M142,30h4v1h-4z M153,30h5v1h-5z M161,30h3v1h-3z M168,30h4v1h-4z M175,30h4v1h-4z M182,30h4v1h-4z M188,30h5v1h-5z M195,30h6v1h-6z M205,30h5v1h-5z M213,30h6v1h-6z M221,30h5v1h-5z M230,30h4v1h-4z M238,30h4v1h-4z M244,30h4v1h-4z M252,30h4v1h-4z M261,30h4v1h-4z M9,30h4v2h-4z M15,31h5v1h-5z M25,31h4v1h-4z M34,31h5v1h-5z M41,31h13v1h-13z M55,31h1v1h-1z M64,31h2v1h-2z M69,31h5v1h-5z M80,30h4v2h-4z M88,31h4v1h-4z M95,31h4v1h-4z M103,31h5v1h-5z M112,31h4v1h-4z M123,31h4v1h-4z M131,31h5v1h-5z M140,31h5v1h-5z M151,31h5v1h-5z M160,31h4v1h-4z M167,31h4v1h-4z M174,31h4v1h-4z M181,31h5v1h-5z M188,31h4v1h-4z M195,31h5v1h-5z M204,31h5v1h-5z M212,31h6v1h-6z M220,31h5v1h-5z M230,31h3v1h-3z M237,31h4v1h-4z M251,31h4v1h-4z M261,31h5v1h-5z M1,29h4v4h-4z M8,32h4v1h-4z M15,32h4v1h-4z M23,32h5v1h-5z M33,32h5v1h-5z M40,32h12v1h-12z M55,32h2v1h-2z M68,32h5v1h-5z M79,32h4v1h-4z M87,32h5v1h-5z M94,32h5v1h-5z M102,32h5v1h-5z M111,32h4v1h-4z M123,32h3v1h-3z M139,32h5v1h-5z M150,32h5v1h-5z M159,32h4v1h-4z M166,32h5v1h-5z M173,32h5v1h-5z M180,32h5v1h-5z M187,32h5v1h-5z M193,32h6v1h-6z M203,32h5v1h-5z M211,32h6v1h-6z M220,32h4v1h-4z M229,32h4v1h-4z M236,32h5v1h-5z M243,31h4v2h-4z M251,32h3v1h-3z M260,32h6v1h-6z M1,33h5v1h-5z M7,33h4v1h-4z M14,33h5v1h-5z M22,33h6v1h-6z M32,33h5v1h-5z M40,33h4v1h-4z M45,33h6v1h-6z M67,33h5v1h-5z M78,33h4v1h-4z M86,33h4v1h-4z M94,33h4v1h-4z M101,33h5v1h-5z M110,33h4v1h-4z M122,33h4v1h-4z M130,32h5v2h-5z M138,33h5v1h-5z M149,33h6v1h-6z M158,33h5v1h-5z M165,33h4v1h-4z M172,33h5v1h-5z M179,33h5v1h-5z M193,33h5v1h-5z M202,33h5v1h-5z M210,33h6v1h-6z M220,33h3v1h-3z M228,33h5v1h-5z M242,33h4v1h-4z M250,33h4v1h-4z M259,33h6v1h-6z M1,34h10v1h-10z M14,34h3v1h-3z M21,34h6v1h-6z M31,34h5v1h-5z M41,34h9v1h-9z M53,33h4v2h-4z M66,34h5v1h-5z M77,34h4v1h-4z M86,34h3v1h-3z M93,34h5v1h-5z M100,34h5v1h-5z M109,34h4v1h-4z M121,34h5v1h-5z M129,34h4v1h-4z M138,34h4v1h-4z M147,34h6v1h-6z M157,34h5v1h-5z M164,34h5v1h-5z M171,34h5v1h-5z M178,34h5v1h-5z M186,33h4v2h-4z M191,34h6v1h-6z M201,34h5v1h-5z M209,34h6v1h-6z M220,34h1v1h-1z M228,34h4v1h-4z M235,33h4v2h-4z M241,34h4v1h-4z M250,34h3v1h-3z M258,34h7v1h-7z M1,35h9v1h-9z M14,35h2v1h-2z M20,35h6v1h-6z M29,35h6v1h-6z M41,35h6v1h-6z M51,35h5v1h-5z M65,35h5v1h-5z M76,35h5v1h-5z M92,35h5v1h-5z M100,35h4v1h-4z M108,35h5v1h-5z M128,35h4v1h-4z M137,35h4v1h-4z M146,35h6v1h-6z M156,35h5v1h-5z M164,35h4v1h-4z M170,35h5v1h-5z M177,35h5v1h-5z M185,35h11v1h-11z M200,35h5v1h-5z M208,35h6v1h-6z M227,35h4v1h-4z M236,35h1v1h-1z M240,35h4v1h-4z M249,35h4v1h-4z M14,36h1v1h-1z M19,36h6v1h-6z M29,36h5v1h-5z M40,36h6v1h-6z M50,36h6v1h-6z M62,36h7v1h-7z M76,36h4v1h-4z M84,35h4v2h-4z M92,36h4v1h-4z M99,36h4v1h-4z M107,36h5v1h-5z M121,35h4v2h-4z M145,36h6v1h-6z M155,36h5v1h-5z M165,36h2v1h-2z M169,36h5v1h-5z M176,36h5v1h-5z M184,36h11v1h-11z M199,36h5v1h-5z M207,36h6v1h-6z M226,36h5v1h-5z M239,36h5v1h-5z M248,36h4v1h-4z M256,35h9v2h-9z M1,36h8v2h-8z M18,37h5v1h-5z M28,37h5v1h-5z M39,37h6v1h-6z M49,37h4v1h-4z M61,37h6v1h-6z M69,37h2v1h-2z M75,37h4v1h-4z M83,37h4v1h-4z M91,37h4v1h-4z M98,37h4v1h-4z M106,37h5v1h-5z M120,37h4v1h-4z M127,36h4v2h-4z M136,36h4v2h-4z M144,37h6v1h-6z M175,37h5v1h-5z M184,37h4v1h-4z M189,37h5v1h-5z M199,37h4v1h-4z M206,37h5v1h-5z M226,37h4v1h-4z M237,37h6v1h-6z M247,37h4v1h-4z M255,37h4v1h-4z M1,38h7v1h-7z M16,38h6v1h-6z M27,38h5v1h-5z M39,38h4v1h-4z M48,38h5v1h-5z M59,38h6v1h-6z M68,38h3v1h-3z M74,38h5v1h-5z M97,38h5v1h-5z M105,38h5v1h-5z M126,38h4v1h-4z M135,38h4v1h-4z M143,38h6v1h-6z M154,37h5v2h-5z M168,37h5v2h-5z M175,38h4v1h-4z M183,38h4v1h-4z M188,38h6v1h-6z M197,38h6v1h-6z M205,38h5v1h-5z M225,38h4v1h-4z M237,38h5v1h-5z M246,38h5v1h-5z M254,38h5v1h-5z M1,39h6v1h-6z M15,39h6v1h-6z M26,39h5v1h-5z M37,39h5v1h-5z M46,39h5v1h-5z M58,39h5v1h-5z M66,39h5v1h-5z M74,39h4v1h-4z M82,38h4v2h-4z M90,38h4v2h-4z M105,39h4v1h-4z M112,39h2v1h-2z M119,38h4v2h-4z M125,39h5v1h-5z M134,39h4v1h-4z M142,39h5v1h-5z M152,39h5v1h-5z M167,39h5v1h-5z M174,39h5v1h-5z M182,39h4v1h-4z M188,39h5v1h-5z M197,39h4v1h-4z M204,39h5v1h-5z M236,39h5v1h-5z M246,39h4v1h-4z M254,39h4v1h-4z M14,40h6v1h-6z M26,40h4v1h-4z M36,40h5v1h-5z M46,40h4v1h-4z M57,40h5v1h-5z M66,40h4v1h-4z M73,40h5v1h-5z M81,40h4v1h-4z M90,40h3v1h-3z M95,39h5v2h-5z M103,40h5v1h-5z M111,40h3v1h-3z M118,40h4v1h-4z M125,40h4v1h-4z M133,40h5v1h-5z M141,40h5v1h-5z M151,40h5v1h-5z M167,40h4v1h-4z M173,40h5v1h-5z M181,40h5v1h-5z M187,40h5v1h-5z M196,40h5v1h-5z M203,40h5v1h-5z M224,39h4v2h-4z M235,40h5v1h-5z M245,40h5v1h-5z M253,40h4v1h-4z M261,37h4v4h-4z M1,40h5v2h-5z M13,41h5v1h-5z M25,41h4v1h-4z M35,41h4v1h-4z M43,41h5v1h-5z M55,41h6v1h-6z M65,41h4v1h-4z M72,41h5v1h-5z M80,41h5v1h-5z M93,41h5v1h-5z M102,41h5v1h-5z M110,41h4v1h-4z M117,41h5v1h-5z M124,41h4v1h-4z M133,41h4v1h-4z M140,41h5v1h-5z M150,41h5v1h-5z M166,41h4v1h-4z M172,41h5v1h-5z M180,41h5v1h-5z M187,41h4v1h-4z M202,41h5v1h-5z M209,41h3v1h-3z M218,41h3v1h-3z M223,41h4v1h-4z M234,41h5v1h-5z M244,41h5v1h-5z M12,42h5v1h-5z M25,42h3v1h-3z M34,42h5v1h-5z M43,42h4v1h-4z M54,42h6v1h-6z M64,42h5v1h-5z M71,42h5v1h-5z M79,42h5v1h-5z M92,42h5v1h-5z M101,42h5v1h-5z M109,42h5v1h-5z M117,42h4v1h-4z M132,42h4v1h-4z M140,42h4v1h-4z M149,42h5v1h-5z M164,42h5v1h-5z M171,42h5v1h-5z M179,42h5v1h-5z M186,42h5v1h-5z M195,41h4v2h-4z M201,42h5v1h-5z M208,42h4v1h-4z M216,42h5v1h-5z M222,42h4v1h-4z M233,42h5v1h-5z M244,42h4v1h-4z M252,41h4v2h-4z M260,41h5v2h-5z M11,43h4v1h-4z M24,43h4v1h-4z M34,43h3v1h-3z M42,43h5v1h-5z M53,43h5v1h-5z M63,43h5v1h-5z M70,43h5v1h-5z M79,43h4v1h-4z M91,43h5v1h-5z M100,43h5v1h-5z M109,43h4v1h-4z M116,43h4v1h-4z M123,42h4v2h-4z M132,43h3v1h-3z M141,43h1v1h-1z M147,43h6v1h-6z M163,43h12v1h-12z M178,43h5v1h-5z M194,43h4v1h-4z M200,43h5v1h-5z M207,43h5v1h-5z M215,43h5v1h-5z M221,43h4v1h-4z M231,43h6v1h-6z M243,43h5v1h-5z M251,43h4v1h-4z M259,43h6v1h-6z M10,44h5v1h-5z M17,44h2v1h-2z M23,44h4v1h-4z M32,44h4v1h-4z M41,44h5v1h-5z M52,44h4v1h-4z M62,44h5v1h-5z M70,44h4v1h-4z M78,44h4v1h-4z M90,44h5v1h-5z M99,44h5v1h-5z M108,44h4v1h-4z M116,44h3v1h-3z M131,44h4v1h-4z M146,44h6v1h-6z M154,44h4v1h-4z M163,44h4v1h-4z M169,44h5v1h-5z M177,44h5v1h-5z M186,43h4v2h-4z M193,44h4v1h-4z M199,44h5v1h-5z M207,44h4v1h-4z M214,44h11v1h-11z M231,44h5v1h-5z M243,44h4v1h-4z M250,44h4v1h-4z M258,44h7v1h-7z M8,45h5v1h-5z M22,45h5v1h-5z M41,45h4v1h-4z M51,45h4v1h-4z M61,45h5v1h-5z M69,45h5v1h-5z M77,45h4v1h-4z M89,45h5v1h-5z M99,45h4v1h-4z M115,45h4v1h-4z M122,44h4v2h-4z M145,45h6v1h-6z M153,45h5v1h-5z M162,45h11v1h-11z M176,45h5v1h-5z M185,45h4v1h-4z M199,45h4v1h-4z M205,45h5v1h-5z M213,45h11v1h-11z M230,45h5v1h-5z M242,45h4v1h-4z M249,45h5v1h-5z M1,42h4v5h-4z M7,46h5v1h-5z M16,45h4v2h-4z M21,46h5v1h-5z M31,45h4v2h-4z M49,46h5v1h-5z M60,46h5v1h-5z M68,46h5v1h-5z M76,46h5v1h-5z M88,46h5v1h-5z M98,46h4v1h-4z M107,45h4v2h-4z M114,46h4v1h-4z M121,46h4v1h-4z M130,45h4v2h-4z M143,46h6v1h-6z M151,46h6v1h-6z M161,46h11v1h-11z M177,46h3v1h-3z M191,45h5v2h-5z M197,46h6v1h-6z M204,46h5v1h-5z M212,46h5v1h-5z M219,46h5v1h-5z M228,46h5v1h-5z M241,46h4v1h-4z M249,46h4v1h-4z M257,45h8v2h-8z M15,47h4v1h-4z M21,47h4v1h-4z M30,47h5v1h-5z M39,46h5v2h-5z M48,47h5v1h-5z M58,47h6v1h-6z M67,47h5v1h-5z M75,47h5v1h-5z M86,47h6v1h-6z M97,47h4v1h-4z M106,47h4v1h-4z M120,47h4v1h-4z M142,47h6v1h-6z M151,47h5v1h-5z M159,47h6v1h-6z M166,47h5v1h-5z M184,46h4v2h-4z M190,47h5v1h-5z M196,47h5v1h-5z M203,47h5v1h-5z M211,47h5v1h-5z M219,47h4v1h-4z M240,47h5v1h-5z M249,47h3v1h-3z M256,47h9v1h-9z M1,47h10v2h-10z M14,48h4v1h-4z M20,48h5v1h-5z M30,48h4v1h-4z M38,48h5v1h-5z M47,48h5v1h-5z M58,48h5v1h-5z M66,48h5v1h-5z M74,48h5v1h-5z M85,48h6v1h-6z M96,48h4v1h-4z M105,48h4v1h-4z M113,47h4v2h-4z M119,48h4v1h-4z M130,47h3v2h-3z M141,48h6v1h-6z M149,48h6v1h-6z M158,48h5v1h-5z M165,48h5v1h-5z M183,48h5v1h-5z M189,48h5v1h-5z M196,48h4v1h-4z M202,48h6v1h-6z M210,48h5v1h-5z M218,48h4v1h-4z M227,47h5v2h-5z M239,48h5v1h-5z M256,48h4v1h-4z M261,48h4v1h-4z M1,49h9v1h-9z M12,49h5v1h-5z M20,49h4v1h-4z M28,49h5v1h-5z M38,49h4v1h-4z M45,49h6v1h-6z M57,49h5v1h-5z M65,49h5v1h-5z M73,49h5v1h-5z M83,49h6v1h-6z M95,49h5v1h-5z M105,49h3v1h-3z M112,49h4v1h-4z M118,49h5v1h-5z M129,49h4v1h-4z M140,49h5v1h-5z M148,49h5v1h-5z M157,49h12v1h-12z M183,49h4v1h-4z M188,49h6v1h-6z M195,49h4v1h-4z M201,49h5v1h-5z M209,49h5v1h-5z M217,49h4v1h-4z M225,49h5v1h-5z M248,48h4v2h-4z M255,49h5v1h-5z M1,50h8v1h-8z M11,50h6v1h-6z M28,50h4v1h-4z M37,50h5v1h-5z M45,50h5v1h-5z M56,50h5v1h-5z M64,50h5v1h-5z M73,50h4v1h-4z M82,50h5v1h-5z M95,50h4v1h-4z M104,50h4v1h-4z M111,50h4v1h-4z M118,50h4v1h-4z M139,50h6v1h-6z M147,50h5v1h-5z M155,50h6v1h-6z M162,50h6v1h-6z M183,50h3v1h-3z M188,50h11v1h-11z M208,50h5v1h-5z M216,50h5v1h-5z M224,50h5v1h-5z M238,49h4v2h-4z M247,50h4v1h-4z M255,50h4v1h-4z M262,49h3v2h-3z M1,51h7v1h-7z M11,51h5v1h-5z M19,50h4v2h-4z M27,51h4v1h-4z M37,51h4v1h-4z M44,51h5v1h-5z M55,51h5v1h-5z M63,51h5v1h-5z M72,51h5v1h-5z M80,51h6v1h-6z M94,51h4v1h-4z M103,51h4v1h-4z M128,50h4v2h-4z M138,51h5v1h-5z M147,51h4v1h-4z M155,51h12v1h-12z M182,51h4v1h-4z M193,51h4v1h-4z M200,50h5v2h-5z M207,51h5v1h-5z M215,51h4v1h-4z M223,51h5v1h-5z M237,51h4v1h-4z M247,51h3v1h-3z M1,52h6v1h-6z M10,52h5v1h-5z M18,52h4v1h-4z M26,52h5v1h-5z M36,52h4v1h-4z M43,52h4v1h-4z M54,52h5v1h-5z M63,52h4v1h-4z M71,52h5v1h-5z M79,52h6v1h-6z M102,52h5v1h-5z M110,51h4v2h-4z M117,51h4v2h-4z M128,52h3v1h-3z M137,52h6v1h-6z M146,52h4v1h-4z M153,52h6v1h-6z M160,52h6v1h-6z M167,52h1v1h-1z M181,52h4v1h-4z M187,51h5v2h-5z M193,52h3v1h-3z M198,52h6v1h-6z M206,52h5v1h-5z M213,52h5v1h-5z M222,52h5v1h-5z M236,52h4v1h-4z M246,52h4v1h-4z M254,51h4v2h-4z M261,51h4v2h-4z M9,53h5v1h-5z M17,53h5v1h-5z M35,53h4v1h-4z M42,53h5v1h-5z M53,53h5v1h-5z M62,53h3v1h-3z M78,53h5v1h-5z M87,53h2v1h-2z M94,52h3v2h-3z M102,53h4v1h-4z M111,53h1v1h-1z M116,53h4v1h-4z M127,53h4v1h-4z M136,53h5v1h-5z M145,53h4v1h-4z M152,53h6v1h-6z M159,53h10v1h-10z M175,53h1v1h-1z M179,53h5v1h-5z M186,53h4v1h-4z M191,53h5v1h-5z M198,53h5v1h-5z M205,53h5v1h-5z M213,53h4v1h-4z M221,53h4v1h-4z M229,53h3v1h-3z M235,53h5v1h-5z M253,53h4v1h-4z M262,53h3v1h-3z M8,54h5v1h-5z M17,54h4v1h-4z M26,53h3v2h-3z M34,54h5v1h-5z M41,54h5v1h-5z M52,54h5v1h-5z M69,53h5v2h-5z M77,54h5v1h-5z M86,54h4v1h-4z M93,54h3v1h-3z M101,54h4v1h-4z M115,54h4v1h-4z M127,54h3v1h-3z M135,54h5v1h-5z M144,54h4v1h-4z M151,54h12v1h-12z M174,54h3v1h-3z M178,54h5v1h-5z M186,54h3v1h-3z M197,54h5v1h-5z M205,54h4v1h-4z M212,54h5v1h-5z M220,54h4v1h-4z M228,54h4v1h-4z M234,54h5v1h-5z M245,53h4v2h-4z M252,54h4v1h-4z M1,53h5v3h-5z M7,55h5v1h-5z M16,55h4v1h-4z M24,55h4v1h-4z M34,55h4v1h-4z M51,55h5v1h-5z M68,55h5v1h-5z M76,55h5v1h-5z M85,55h5v1h-5z M92,55h4v1h-4z M100,55h4v1h-4z M114,55h5v1h-5z M126,55h4v1h-4z M134,55h4v1h-4z M143,55h4v1h-4z M150,55h13v1h-13z M165,54h4v2h-4z M172,55h11v1h-11z M185,55h4v1h-4z M191,54h4v2h-4z M196,55h5v1h-5z M204,55h4v1h-4z M211,55h5v1h-5z M219,55h4v1h-4z M227,55h4v1h-4z M233,55h5v1h-5z M245,55h3v1h-3z M251,55h5v1h-5z M261,54h5v2h-5z M1,56h10v1h-10z M15,56h4v1h-4z M22,56h5v1h-5z M33,56h4v1h-4z M41,55h4v2h-4z M50,56h5v1h-5z M67,56h5v1h-5z M75,56h5v1h-5z M84,56h5v1h-5z M92,56h3v1h-3z M113,56h4v1h-4z M120,56h3v1h-3z M125,56h4v1h-4z M133,56h5v1h-5z M142,56h4v1h-4z M150,56h11v1h-11z M164,56h4v1h-4z M171,56h11v1h-11z M184,56h4v1h-4z M191,56h2v1h-2z M195,56h5v1h-5z M203,56h4v1h-4z M210,56h4v1h-4z M217,56h5v1h-5z M226,56h4v1h-4z M232,56h5v1h-5z M251,56h4v1h-4z M261,56h4v1h-4z M1,57h9v1h-9z M14,57h5v1h-5z M22,57h4v1h-4z M32,57h4v1h-4z M40,57h4v1h-4z M49,57h5v1h-5z M66,57h4v1h-4z M74,57h4v1h-4z M83,57h5v1h-5z M91,57h4v1h-4z M99,56h4v2h-4z M111,57h6v1h-6z M119,57h3v1h-3z M124,57h5v1h-5z M132,57h5v1h-5z M141,57h4v1h-4z M151,57h8v1h-8z M163,57h5v1h-5z M171,57h10v1h-10z M184,57h3v1h-3z M194,57h5v1h-5z M202,57h5v1h-5z M209,57h5v1h-5z M217,57h4v1h-4z M224,57h6v1h-6z M231,57h6v1h-6z M244,56h4v2h-4z M250,57h4v1h-4z M14,58h4v1h-4z M21,58h5v1h-5z M31,58h4v1h-4z M39,58h4v1h-4z M48,58h5v1h-5z M63,58h7v1h-7z M73,58h5v1h-5z M82,58h4v1h-4z M98,58h4v1h-4z M110,58h6v1h-6z M118,58h4v1h-4z M131,58h5v1h-5z M140,58h4v1h-4z M151,58h7v1h-7z M162,58h4v1h-4z M170,58h9v1h-9z M183,58h4v1h-4z M194,58h3v1h-3z M201,58h4v1h-4z M208,58h4v1h-4z M216,58h5v1h-5z M223,58h5v1h-5z M229,58h6v1h-6z M238,58h2v1h-2z M243,58h4v1h-4z M249,58h5v1h-5z M260,57h5v2h-5z M1,58h8v2h-8z M12,59h5v1h-5z M20,59h5v1h-5z M29,59h5v1h-5z M38,59h4v1h-4z M47,59h5v1h-5z M62,59h6v1h-6z M72,59h5v1h-5z M81,59h4v1h-4z M90,58h4v2h-4z M97,59h5v1h-5z M109,59h6v1h-6z M117,59h4v1h-4z M124,58h4v2h-4z M130,59h5v1h-5z M151,59h5v1h-5z M161,59h4v1h-4z M169,59h4v1h-4z M176,59h3v1h-3z M193,59h4v1h-4z M207,59h5v1h-5z M214,59h6v1h-6z M222,59h6v1h-6z M229,59h5v1h-5z M236,59h4v1h-4z M242,59h4v1h-4z M249,59h4v1h-4z M1,60h7v1h-7z M12,60h4v1h-4z M19,60h5v1h-5z M28,60h5v1h-5z M37,60h4v1h-4z M47,60h4v1h-4z M61,60h6v1h-6z M70,60h6v1h-6z M80,60h5v1h-5z M89,60h4v1h-4z M96,60h4v1h-4z M108,60h6v1h-6z M116,60h5v1h-5z M123,60h4v1h-4z M130,60h4v1h-4z M139,59h4v2h-4z M149,60h7v1h-7z M160,60h4v1h-4z M168,60h5v1h-5z M182,59h4v2h-4z M192,60h4v1h-4z M200,59h4v2h-4z M206,60h5v1h-5z M214,60h5v1h-5z M221,60h6v1h-6z M228,60h5v1h-5z M235,60h5v1h-5z M241,60h5v1h-5z M248,60h4v1h-4z M1,61h6v1h-6z M11,61h4v1h-4z M18,61h5v1h-5z M27,61h5v1h-5z M36,61h4v1h-4z M46,61h4v1h-4z M60,61h6v1h-6z M69,61h5v1h-5z M79,61h5v1h-5z M88,61h5v1h-5z M95,61h5v1h-5z M106,61h7v1h-7z M115,61h4v1h-4z M122,61h4v1h-4z M129,61h4v1h-4z M138,61h4v1h-4z M149,61h5v1h-5z M159,61h5v1h-5z M167,61h5v1h-5z M181,61h4v1h-4z M191,61h4v1h-4z M198,61h5v1h-5z M205,61h5v1h-5z M212,61h5v1h-5z M220,61h5v1h-5z M227,61h5v1h-5z M235,61h4v1h-4z M241,61h4v1h-4z M259,59h6v3h-6z M10,62h4v1h-4z M17,62h5v1h-5z M27,62h4v1h-4z M35,62h4v1h-4z M45,62h5v1h-5z M58,62h7v1h-7z M69,62h4v1h-4z M78,62h5v1h-5z M87,62h5v1h-5z M95,62h4v1h-4z M105,62h6v1h-6z M114,62h4v1h-4z M121,62h4v1h-4z M128,62h4v1h-4z M137,62h5v1h-5z M147,62h6v1h-6z M157,62h6v1h-6z M167,62h4v1h-4z M180,62h5v1h-5z M190,62h5v1h-5z M197,62h5v1h-5z M204,62h5v1h-5z M211,62h5v1h-5z M219,62h5v1h-5z M226,62h5v1h-5z M234,62h4v1h-4z M241,62h3v1h-3z M247,61h4v2h-4z M258,62h7v1h-7z M1,62h5v2h-5z M9,63h5v1h-5z M16,63h5v1h-5z M34,63h5v1h-5z M44,63h5v1h-5z M57,63h6v1h-6z M68,63h4v1h-4z M78,63h4v1h-4z M87,63h4v1h-4z M94,63h4v1h-4z M104,63h5v1h-5z M113,63h5v1h-5z M121,63h3v1h-3z M137,63h4v1h-4z M146,63h6v1h-6z M156,63h5v1h-5z M166,63h4v1h-4z M180,63h4v1h-4z M189,63h5v1h-5z M197,63h4v1h-4z M203,63h5v1h-5z M210,63h5v1h-5z M218,63h5v1h-5z M225,63h6v1h-6z M233,63h4v1h-4z M240,63h4v1h-4z M246,63h4v1h-4z M257,63h8v1h-8z M9,64h3v1h-3z M15,64h5v1h-5z M33,64h5v1h-5z M44,64h4v1h-4z M56,64h6v1h-6z M67,64h5v1h-5z M77,64h4v1h-4z M85,64h5v1h-5z M93,64h4v1h-4z M103,64h5v1h-5z M112,64h4v1h-4z M120,64h4v1h-4z M127,63h4v2h-4z M136,64h4v1h-4z M145,64h6v1h-6z M155,64h5v1h-5z M179,64h5v1h-5z M188,64h5v1h-5z M196,64h5v1h-5z M203,64h4v1h-4z M209,64h5v1h-5z M215,64h7v1h-7z M224,64h6v1h-6z M232,64h4v1h-4z M245,64h5v1h-5z M257,64h9v1h-9z M13,65h5v1h-5z M32,65h5v1h-5z M54,65h6v1h-6z M66,65h4v1h-4z M76,65h4v1h-4z M85,65h4v1h-4z M92,65h5v1h-5z M102,65h5v1h-5z M111,65h4v1h-4z M125,65h5v1h-5z M135,65h4v1h-4z M144,65h5v1h-5z M153,65h6v1h-6z M165,64h4v2h-4z M179,65h4v1h-4z M188,65h4v1h-4z M202,65h5v1h-5z M208,65h4v1h-4z M215,65h5v1h-5z M223,65h5v1h-5z M239,64h4v2h-4z M244,65h5v1h-5z M257,65h8v1h-8z M12,66h5v1h-5z M31,66h4v1h-4z M43,65h4v2h-4z M53,66h6v1h-6z M65,66h4v1h-4z M75,66h4v1h-4z M85,66h2v1h-2z M91,66h5v1h-5z M101,66h4v1h-4z M109,66h5v1h-5z M119,65h4v2h-4z M125,66h4v1h-4z M135,66h3v1h-3z M143,66h5v1h-5z M152,66h6v1h-6z M165,66h3v1h-3z M178,66h5v1h-5z M187,66h4v1h-4z M195,65h4v2h-4z M201,66h5v1h-5z M207,66h5v1h-5z M214,66h5v1h-5z M222,66h5v1h-5z M231,65h4v2h-4z M238,66h10v1h-10z M256,66h4v1h-4z M11,67h6v1h-6z M19,67h2v1h-2z M30,67h4v1h-4z M64,67h5v1h-5z M74,67h5v1h-5z M90,67h5v1h-5z M100,67h4v1h-4z M108,67h5v1h-5z M118,67h4v1h-4z M124,67h4v1h-4z M134,67h4v1h-4z M142,67h5v1h-5z M151,67h6v1h-6z M163,67h5v1h-5z M178,67h4v1h-4z M186,67h4v1h-4z M194,67h4v1h-4z M200,67h11v1h-11z M213,67h6v1h-6z M221,67h5v1h-5z M230,67h4v1h-4z M255,67h5v1h-5z M10,68h5v1h-5z M29,68h4v1h-4z M36,68h4v1h-4z M42,67h4v2h-4z M52,67h5v2h-5z M64,68h4v1h-4z M73,68h4v1h-4z M90,68h4v1h-4z M99,68h4v1h-4z M108,68h4v1h-4z M117,68h4v1h-4z M123,68h4v1h-4z M134,68h3v1h-3z M141,68h5v1h-5z M150,68h5v1h-5z M163,68h4v1h-4z M177,68h4v1h-4z M186,68h3v1h-3z M193,68h5v1h-5z M199,68h5v1h-5z M205,68h5v1h-5z M212,68h6v1h-6z M220,68h5v1h-5z M228,68h5v1h-5z M237,67h10v2h-10z M250,68h2v1h-2z M255,68h4v1h-4z M9,69h5v1h-5z M17,68h4v2h-4z M27,69h5v1h-5z M35,69h5v1h-5z M41,69h4v1h-4z M50,69h6v1h-6z M72,69h5v1h-5z M88,69h5v1h-5z M98,69h4v1h-4z M107,69h4v1h-4z M116,69h5v1h-5z M123,69h3v1h-3z M140,69h5v1h-5z M149,69h5v1h-5z M162,69h4v1h-4z M177,69h3v1h-3z M185,69h4v1h-4z M193,69h4v1h-4z M199,69h11v1h-11z M211,69h5v1h-5z M219,69h6v1h-6z M228,69h4v1h-4z M236,69h4v1h-4z M241,69h5v1h-5z M249,69h4v1h-4z M262,66h3v4h-3z M9,70h4v1h-4z M16,70h5v1h-5z M26,70h6v1h-6z M34,70h5v1h-5z M49,70h5v1h-5z M56,70h3v1h-3z M63,69h4v2h-4z M71,70h5v1h-5z M87,70h5v1h-5z M97,70h5v1h-5z M106,70h4v1h-4z M116,70h4v1h-4z M122,70h4v1h-4z M133,69h4v2h-4z M139,70h5v1h-5z M148,70h5v1h-5z M176,70h4v1h-4z M183,70h5v1h-5z M192,70h4v1h-4z M210,70h5v1h-5z M218,70h6v1h-6z M227,70h5v1h-5z M235,70h5v1h-5z M241,70h4v1h-4z M248,70h4v1h-4z M254,69h4v2h-4z M261,70h4v1h-4z M1,64h4v8h-4z M8,71h4v1h-4z M16,71h4v1h-4z M25,71h5v1h-5z M34,71h4v1h-4z M40,70h4v2h-4z M49,71h4v1h-4z M56,71h4v1h-4z M62,71h4v1h-4z M70,71h5v1h-5z M86,71h5v1h-5z M97,71h4v1h-4z M105,71h4v1h-4z M115,71h3v1h-3z M121,71h4v1h-4z M138,71h5v1h-5z M147,71h4v1h-4z M156,71h2v1h-2z M161,70h4v2h-4z M170,71h2v1h-2z M175,71h5v1h-5z M183,71h4v1h-4z M191,71h5v1h-5z M199,70h9v2h-9z M209,71h5v1h-5z M217,71h5v1h-5z M226,71h5v1h-5z M235,71h10v1h-10z M247,71h5v1h-5z M1,72h5v1h-5z M7,72h5v1h-5z M15,72h4v1h-4z M23,72h6v1h-6z M33,72h5v1h-5z M39,72h4v1h-4z M48,72h4v1h-4z M56,72h3v1h-3z M69,72h5v1h-5z M85,72h5v1h-5z M96,72h4v1h-4z M104,72h4v1h-4z M114,72h4v1h-4z M121,72h3v1h-3z M132,71h4v2h-4z M137,72h5v1h-5z M146,72h4v1h-4z M154,72h4v1h-4z M160,72h4v1h-4z M169,72h4v1h-4z M175,72h4v1h-4z M182,72h4v1h-4z M191,72h4v1h-4z M199,72h1v1h-1z M201,72h5v1h-5z M208,72h6v1h-6z M216,72h5v1h-5z M225,72h5v1h-5z M234,72h4v1h-4z M240,72h4v1h-4z M246,72h4v1h-4z M253,71h4v2h-4z M260,71h5v2h-5z M1,73h9v1h-9z M14,73h5v1h-5z M22,73h5v1h-5z M32,73h4v1h-4z M38,73h5v1h-5z M47,73h4v1h-4z M55,73h4v1h-4z M61,72h4v2h-4z M68,73h5v1h-5z M84,73h5v1h-5z M96,73h3v1h-3z M103,73h4v1h-4z M113,73h4v1h-4z M119,73h5v1h-5z M127,73h2v1h-2z M131,73h4v1h-4z M137,73h4v1h-4z M145,73h4v1h-4z M154,73h3v1h-3z M160,73h3v1h-3z M168,73h4v1h-4z M174,73h4v1h-4z M181,73h5v1h-5z M190,73h4v1h-4z M200,73h5v1h-5z M207,73h5v1h-5z M215,73h5v1h-5z M233,73h5v1h-5z M240,73h3v1h-3z M252,73h5v1h-5z M1,74h8v1h-8z M21,74h5v1h-5z M32,74h3v1h-3z M38,74h4v1h-4z M46,74h4v1h-4z M54,74h4v1h-4z M61,74h3v1h-3z M67,74h5v1h-5z M83,74h5v1h-5z M95,74h4v1h-4z M103,74h3v1h-3z M112,74h4v1h-4z M118,74h5v1h-5z M125,74h9v1h-9z M136,74h4v1h-4z M144,74h4v1h-4z M153,74h4v1h-4z M159,74h4v1h-4z M167,74h5v1h-5z M173,74h4v1h-4z M181,74h4v1h-4z M189,74h5v1h-5z M199,74h5v1h-5z M206,74h6v1h-6z M224,73h4v2h-4z M233,74h4v1h-4z M240,74h2v1h-2z M245,73h4v2h-4z M252,74h4v1h-4z M13,74h4v2h-4z M20,75h5v1h-5z M31,75h4v1h-4z M37,75h5v1h-5z M45,75h5v1h-5z M54,75h3v1h-3z M62,75h1v1h-1z M66,75h5v1h-5z M82,75h5v1h-5z M94,75h4v1h-4z M102,75h4v1h-4z M112,75h3v1h-3z M117,75h5v1h-5z M124,75h10v1h-10z M137,75h2v1h-2z M143,75h4v1h-4z M152,75h4v1h-4z M159,75h3v1h-3z M166,75h5v1h-5z M172,75h5v1h-5z M180,75h4v1h-4z M189,75h4v1h-4z M199,75h4v1h-4z M206,75h4v1h-4z M214,74h5v2h-5z M223,75h4v1h-4z M232,75h4v1h-4z M244,75h4v1h-4z M258,73h7v3h-7z M1,75h7v2h-7z M12,76h4v1h-4z M19,76h4v1h-4z M30,76h4v1h-4z M37,76h4v1h-4z M44,76h5v1h-5z M53,76h4v1h-4z M65,76h5v1h-5z M81,76h4v1h-4z M93,76h5v1h-5z M101,76h4v1h-4z M111,76h3v1h-3z M116,76h5v1h-5z M123,76h10v1h-10z M142,76h4v1h-4z M151,76h5v1h-5z M158,76h3v1h-3z M166,76h4v1h-4z M172,76h4v1h-4z M188,76h4v1h-4z M197,76h5v1h-5z M204,76h5v1h-5z M213,76h4v1h-4z M221,76h5v1h-5z M243,76h4v1h-4z M251,75h4v2h-4z M257,76h8v1h-8z M11,77h4v1h-4z M17,77h5v1h-5z M36,77h5v1h-5z M44,77h4v1h-4z M52,77h4v1h-4z M64,77h5v1h-5z M80,77h4v1h-4z M93,77h4v1h-4z M100,77h5v1h-5z M115,77h5v1h-5z M122,77h5v1h-5z M128,77h5v1h-5z M141,77h4v1h-4z M151,77h4v1h-4z M157,77h4v1h-4z M165,77h5v1h-5z M171,77h4v1h-4z M179,76h4v2h-4z M187,77h5v1h-5z M196,77h5v1h-5z M203,77h5v1h-5z M211,77h6v1h-6z M220,77h5v1h-5z M231,76h4v2h-4z M242,77h4v1h-4z M250,77h4v1h-4z M257,77h3v1h-3z M1,77h6v2h-6z M10,78h4v1h-4z M16,78h6v1h-6z M29,77h4v2h-4z M35,78h5v1h-5z M43,78h4v1h-4z M63,78h5v1h-5z M72,78h2v1h-2z M79,78h5v1h-5z M92,78h5v1h-5z M99,78h5v1h-5z M114,78h5v1h-5z M121,78h5v1h-5z M128,78h4v1h-4z M140,78h4v1h-4z M149,78h5v1h-5z M156,78h5v1h-5z M164,78h5v1h-5z M170,78h5v1h-5z M178,78h4v1h-4z M187,78h4v1h-4z M195,78h5v1h-5z M203,78h4v1h-4z M210,78h5v1h-5z M220,78h4v1h-4z M230,78h4v1h-4z M241,78h4v1h-4z M257,78h1v1h-1z M261,77h4v2h-4z M9,79h5v1h-5z M15,79h5v1h-5z M28,79h4v1h-4z M35,79h4v1h-4z M42,79h5v1h-5z M51,78h4v2h-4z M62,79h5v1h-5z M71,79h3v1h-3z M78,79h5v1h-5z M99,79h4v1h-4z M113,79h5v1h-5z M120,79h5v1h-5z M139,79h4v1h-4z M149,79h4v1h-4z M155,79h5v1h-5z M163,79h5v1h-5z M170,79h4v1h-4z M177,79h4v1h-4z M183,79h7v1h-7z M194,79h5v1h-5z M202,79h4v1h-4z M210,79h4v1h-4z M219,79h4v1h-4z M240,79h4v1h-4z M249,78h4v2h-4z M1,79h5v2h-5z M8,80h11v1h-11z M27,80h4v1h-4z M34,80h5v1h-5z M41,80h5v1h-5z M50,80h4v1h-4z M61,80h5v1h-5z M70,80h4v1h-4z M77,80h5v1h-5z M86,80h1v1h-1z M91,79h5v2h-5z M98,80h4v1h-4z M112,80h5v1h-5z M120,80h4v1h-4z M127,79h4v2h-4z M139,80h3v1h-3z M148,80h4v1h-4z M163,80h4v1h-4z M169,80h4v1h-4z M176,80h4v1h-4z M182,80h8v1h-8z M193,80h5v1h-5z M201,80h5v1h-5z M209,80h4v1h-4z M217,80h6v1h-6z M229,79h4v2h-4z M240,80h3v1h-3z M248,80h4v1h-4z M260,79h5v2h-5z M1,81h11v1h-11z M13,81h5v1h-5z M20,81h1v1h-1z M27,81h3v1h-3z M34,81h4v1h-4z M41,81h4v1h-4z M49,81h4v1h-4z M60,81h5v1h-5z M68,81h5v1h-5z M76,81h5v1h-5z M84,81h3v1h-3z M90,81h4v1h-4z M97,81h4v1h-4z M110,81h6v1h-6z M119,81h4v1h-4z M126,81h4v1h-4z M138,81h4v1h-4z M147,81h4v1h-4z M154,80h5v2h-5z M162,81h10v1h-10z M175,81h4v1h-4z M181,81h9v1h-9z M192,81h5v1h-5z M200,81h5v1h-5z M208,81h5v1h-5z M228,81h5v1h-5z M238,81h4v1h-4z M259,81h7v1h-7z M1,82h10v1h-10z M13,82h4v1h-4z M26,82h3v1h-3z M33,82h4v1h-4z M40,82h4v1h-4z M48,82h4v1h-4z M59,82h5v1h-5z M68,82h4v1h-4z M75,82h4v1h-4z M83,82h4v1h-4z M89,82h4v1h-4z M109,82h6v1h-6z M117,82h5v1h-5z M125,82h4v1h-4z M137,82h4v1h-4z M147,82h3v1h-3z M153,82h4v1h-4z M161,82h4v1h-4z M167,82h5v1h-5z M174,82h4v1h-4z M181,82h8v1h-8z M191,82h5v1h-5z M199,82h5v1h-5z M207,82h5v1h-5z M216,81h6v2h-6z M228,82h4v1h-4z M237,82h5v1h-5z M247,81h4v2h-4z M1,83h9v1h-9z M12,83h4v1h-4z M19,82h3v2h-3z M25,83h4v1h-4z M32,83h5v1h-5z M48,83h3v1h-3z M58,83h5v1h-5z M67,83h4v1h-4z M74,83h5v1h-5z M82,83h4v1h-4z M88,83h5v1h-5z M96,82h5v2h-5z M108,83h5v1h-5z M116,83h5v1h-5z M124,83h4v1h-4z M136,83h5v1h-5z M145,83h4v1h-4z M152,83h4v1h-4z M160,83h5v1h-5z M167,83h4v1h-4z M173,83h4v1h-4z M180,83h9v1h-9z M190,83h5v1h-5z M199,83h4v1h-4z M206,83h5v1h-5z M214,83h9v1h-9z M227,83h4v1h-4z M236,83h4v1h-4z M245,83h5v1h-5z M258,82h7v2h-7z M1,84h8v1h-8z M11,84h4v1h-4z M17,84h4v1h-4z M24,84h4v1h-4z M32,84h4v1h-4z M39,83h4v2h-4z M57,84h4v1h-4z M66,84h4v1h-4z M74,84h4v1h-4z M81,84h4v1h-4z M88,84h4v1h-4z M95,84h4v1h-4z M107,84h5v1h-5z M115,84h5v1h-5z M123,84h5v1h-5z M145,84h3v1h-3z M160,84h4v1h-4z M166,84h4v1h-4z M172,84h4v1h-4z M179,84h9v1h-9z M190,84h3v1h-3z M198,84h5v1h-5z M205,84h5v1h-5z M213,84h9v1h-9z M227,84h3v1h-3z M235,84h4v1h-4z M245,84h4v1h-4z M10,85h5v1h-5z M16,85h4v1h-4z M31,85h4v1h-4z M38,85h4v1h-4z M47,84h4v2h-4z M56,85h4v1h-4z M65,85h5v1h-5z M73,85h4v1h-4z M80,85h4v1h-4z M86,85h5v1h-5z M93,85h6v1h-6z M100,84h4v2h-4z M106,85h5v1h-5z M115,85h4v1h-4z M129,85h2v1h-2z M136,84h4v2h-4z M144,85h4v1h-4z M151,84h5v2h-5z M159,85h4v1h-4z M166,85h3v1h-3z M171,85h5v1h-5z M178,85h5v1h-5z M184,85h3v1h-3z M198,85h4v1h-4z M205,85h4v1h-4z M212,85h6v1h-6z M219,85h3v1h-3z M226,85h3v1h-3z M235,85h3v1h-3z M244,85h5v1h-5z M257,84h8v2h-8z M1,85h6v2h-6z M9,86h5v1h-5z M23,85h4v2h-4z M30,86h5v1h-5z M37,86h4v1h-4z M46,86h4v1h-4z M55,86h4v1h-4z M64,86h4v1h-4z M72,86h5v1h-5z M79,86h5v1h-5z M86,86h4v1h-4z M93,86h10v1h-10z M106,86h4v1h-4z M114,86h4v1h-4z M122,85h5v2h-5z M135,86h4v1h-4z M143,86h4v1h-4z M150,86h5v1h-5z M158,86h4v1h-4z M166,86h2v1h-2z M171,86h4v1h-4z M178,86h4v1h-4z M183,86h4v1h-4z M197,86h4v1h-4z M204,86h4v1h-4z M211,86h10v1h-10z M225,86h4v1h-4z M234,86h4v1h-4z M243,86h5v1h-5z M1,87h5v1h-5z M9,87h4v1h-4z M15,86h4v2h-4z M22,87h4v1h-4z M29,87h5v1h-5z M36,87h5v1h-5z M46,87h3v1h-3z M54,87h4v1h-4z M64,87h3v1h-3z M71,87h5v1h-5z M79,87h4v1h-4z M85,87h4v1h-4z M92,87h5v1h-5z M98,87h5v1h-5z M105,87h4v1h-4z M113,87h4v1h-4z M121,87h5v1h-5z M128,86h3v2h-3z M134,87h4v1h-4z M142,87h5v1h-5z M149,87h5v1h-5z M157,87h4v1h-4z M170,87h4v1h-4z M177,87h9v1h-9z M196,87h5v1h-5z M203,87h4v1h-4z M210,87h11v1h-11z M224,87h4v1h-4z M233,87h4v1h-4z M242,87h5v1h-5z M256,86h4v2h-4z M1,88h4v1h-4z M8,88h5v1h-5z M14,88h4v1h-4z M21,88h4v1h-4z M28,88h5v1h-5z M36,88h4v1h-4z M45,88h4v1h-4z M53,88h4v1h-4z M62,88h4v1h-4z M70,88h5v1h-5z M78,88h4v1h-4z M85,88h3v1h-3z M91,88h5v1h-5z M97,88h5v1h-5z M104,88h4v1h-4z M112,88h5v1h-5z M120,88h5v1h-5z M127,88h4v1h-4z M134,88h3v1h-3z M142,88h4v1h-4z M148,88h5v1h-5z M168,88h5v1h-5z M176,88h4v1h-4z M181,88h5v1h-5z M195,88h5v1h-5z M203,88h3v1h-3z M209,88h5v1h-5z M223,88h5v1h-5z M232,88h4v1h-4z M241,88h5v1h-5z M250,88h2v1h-2z M256,88h3v1h-3z M1,89h5v1h-5z M8,89h8v1h-8z M20,89h4v1h-4z M27,89h5v1h-5z M35,89h4v1h-4z M44,89h4v1h-4z M52,89h4v1h-4z M61,89h4v1h-4z M69,89h5v1h-5z M77,89h5v1h-5z M91,89h4v1h-4z M96,89h5v1h-5z M103,89h5v1h-5z M111,89h5v1h-5z M119,89h5v1h-5z M126,89h5v1h-5z M133,89h4v1h-4z M140,89h5v1h-5z M147,89h5v1h-5z M156,88h4v2h-4z M167,89h5v1h-5z M175,89h4v1h-4z M195,89h4v1h-4z M207,89h6v1h-6z M215,88h4v2h-4z M222,89h5v1h-5z M230,89h5v1h-5z M241,89h4v1h-4z M255,89h4v1h-4z M262,86h3v4h-3z M1,90h10v1h-10z M13,90h2v1h-2z M26,90h5v1h-5z M34,90h5v1h-5z M44,90h3v1h-3z M51,90h4v1h-4z M60,90h5v1h-5z M69,90h4v1h-4z M77,90h4v1h-4z M89,90h5v1h-5z M96,90h4v1h-4z M103,90h4v1h-4z M111,90h4v1h-4z M118,90h5v1h-5z M126,90h4v1h-4z M133,90h3v1h-3z M140,90h4v1h-4z M146,90h5v1h-5z M155,90h4v1h-4z M166,90h5v1h-5z M174,90h4v1h-4z M181,89h4v2h-4z M189,90h1v1h-1z M194,90h5v1h-5z M207,90h4v1h-4z M214,90h4v1h-4z M229,90h5v1h-5z M240,90h5v1h-5z M249,89h4v2h-4z M254,90h5v1h-5z M1,91h9v1h-9z M19,90h4v2h-4z M26,91h4v1h-4z M33,91h5v1h-5z M43,91h4v1h-4z M50,91h5v1h-5z M59,91h5v1h-5z M68,91h4v1h-4z M76,91h4v1h-4z M88,91h6v1h-6z M95,91h5v1h-5z M102,91h4v1h-4z M110,91h4v1h-4z M117,91h5v1h-5z M125,91h4v1h-4z M132,91h3v1h-3z M139,91h4v1h-4z M145,91h4v1h-4z M154,91h5v1h-5z M165,91h5v1h-5z M173,91h5v1h-5z M180,91h4v1h-4z M188,91h3v1h-3z M194,91h4v1h-4z M205,91h6v1h-6z M213,91h4v1h-4z M221,90h5v2h-5z M227,91h6v1h-6z M239,91h5v1h-5z M248,91h4v1h-4z M18,92h4v1h-4z M25,92h5v1h-5z M32,92h5v1h-5z M43,92h3v1h-3z M50,92h4v1h-4z M59,92h4v1h-4z M67,92h4v1h-4z M75,92h4v1h-4z M87,92h5v1h-5z M94,92h4v1h-4z M101,92h5v1h-5z M109,92h5v1h-5z M117,92h4v1h-4z M124,92h4v1h-4z M131,92h3v1h-3z M138,92h4v1h-4z M144,92h4v1h-4z M154,92h4v1h-4z M164,92h5v1h-5z M172,92h5v1h-5z M179,92h5v1h-5z M187,92h10v1h-10z M204,92h5v1h-5z M212,92h4v1h-4z M220,92h5v1h-5z M227,92h4v1h-4z M239,92h4v1h-4z M247,92h4v1h-4z M254,91h4v2h-4z M1,92h8v2h-8z M17,93h4v1h-4z M24,93h5v1h-5z M31,93h5v1h-5z M42,93h4v1h-4z M58,93h5v1h-5z M74,93h4v1h-4z M86,93h5v1h-5z M93,93h5v1h-5z M100,93h5v1h-5z M108,93h5v1h-5z M116,93h4v1h-4z M130,93h4v1h-4z M138,93h3v1h-3z M145,93h2v1h-2z M153,93h4v1h-4z M163,93h5v1h-5z M172,93h4v1h-4z M179,93h4v1h-4z M187,93h4v1h-4z M203,93h5v1h-5z M212,93h3v1h-3z M219,93h5v1h-5z M225,93h5v1h-5z M237,93h5v1h-5z M246,93h4v1h-4z M261,90h4v4h-4z M1,94h7v1h-7z M16,94h4v1h-4z M23,94h5v1h-5z M30,94h5v1h-5z M49,93h4v2h-4z M57,94h5v1h-5z M66,93h4v2h-4z M74,94h3v1h-3z M85,94h5v1h-5z M92,94h5v1h-5z M99,94h5v1h-5z M108,94h4v1h-4z M115,94h4v1h-4z M123,93h4v2h-4z M129,94h5v1h-5z M137,94h3v1h-3z M152,94h4v1h-4z M162,94h5v1h-5z M170,94h5v1h-5z M178,94h5v1h-5z M186,94h4v1h-4z M202,94h5v1h-5z M211,94h4v1h-4z M218,94h5v1h-5z M224,94h6v1h-6z M231,94h1v1h-1z M245,94h4v1h-4z M253,93h4v2h-4z M260,94h5v1h-5z M15,95h4v1h-4z M22,95h4v1h-4z M29,95h5v1h-5z M41,94h4v2h-4z M48,95h4v1h-4z M56,95h5v1h-5z M65,95h4v1h-4z M73,95h4v1h-4z M84,95h5v1h-5z M91,95h5v1h-5z M99,95h4v1h-4z M107,95h4v1h-4z M114,95h4v1h-4z M122,95h5v1h-5z M129,95h4v1h-4z M136,95h4v1h-4z M161,95h5v1h-5z M170,95h4v1h-4z M178,95h4v1h-4z M185,95h5v1h-5z M192,93h4v3h-4z M201,95h5v1h-5z M210,95h4v1h-4z M217,95h5v1h-5z M223,95h10v1h-10z M236,94h5v2h-5z M244,95h5v1h-5z M14,96h4v1h-4z M29,96h4v1h-4z M40,96h4v1h-4z M56,96h4v1h-4z M65,96h3v1h-3z M72,96h5v1h-5z M83,96h5v1h-5z M91,96h4v1h-4z M98,96h4v1h-4z M106,96h4v1h-4z M113,96h5v1h-5z M121,96h5v1h-5z M128,96h3v1h-3z M135,96h4v1h-4z M151,95h4v2h-4z M161,96h4v1h-4z M169,96h4v1h-4z M177,96h5v1h-5z M185,96h4v1h-4z M200,96h5v1h-5z M209,96h5v1h-5z M216,96h5v1h-5z M223,96h4v1h-4z M229,96h4v1h-4z M235,96h5v1h-5z M244,96h4v1h-4z M252,95h4v2h-4z M259,95h6v2h-6z M1,95h6v3h-6z M13,97h4v1h-4z M27,97h5v1h-5z M47,96h4v2h-4z M64,97h4v1h-4z M72,97h4v1h-4z M81,97h6v1h-6z M89,97h5v1h-5z M97,97h4v1h-4z M105,97h4v1h-4z M112,97h5v1h-5z M120,97h4v1h-4z M129,97h2v1h-2z M134,97h4v1h-4z M150,97h4v1h-4z M159,97h5v1h-5z M168,97h5v1h-5z M177,97h4v1h-4z M184,97h4v1h-4z M191,96h4v2h-4z M199,97h5v1h-5z M208,97h5v1h-5z M215,97h5v1h-5z M221,97h12v1h-12z M234,97h5v1h-5z M243,97h4v1h-4z M251,97h4v1h-4z M258,97h7v1h-7z M12,98h4v1h-4z M21,96h4v3h-4z M26,98h5v1h-5z M39,97h4v2h-4z M46,98h4v1h-4z M55,97h4v2h-4z M63,98h4v1h-4z M71,98h5v1h-5z M80,98h5v1h-5z M88,98h5v1h-5z M104,98h4v1h-4z M112,98h4v1h-4z M118,98h5v1h-5z M144,98h2v1h-2z M149,98h5v1h-5z M158,98h5v1h-5z M167,98h5v1h-5z M176,98h4v1h-4z M183,98h4v1h-4z M198,98h5v1h-5z M207,98h5v1h-5z M214,98h5v1h-5z M221,98h11v1h-11z M234,98h4v1h-4z M242,98h5v1h-5z M250,98h5v1h-5z M10,99h6v1h-6z M23,99h6v1h-6z M32,99h2v1h-2z M38,99h4v1h-4z M45,99h5v1h-5z M53,99h5v1h-5z M63,99h3v1h-3z M70,99h5v1h-5z M79,99h5v1h-5z M87,99h5v1h-5z M95,98h5v2h-5z M103,99h4v1h-4z M111,99h4v1h-4z M118,99h4v1h-4z M133,98h4v2h-4z M143,99h4v1h-4z M149,99h4v1h-4z M157,99h5v1h-5z M166,99h5v1h-5z M175,99h4v1h-4z M182,99h5v1h-5z M190,98h4v2h-4z M197,99h5v1h-5z M207,99h4v1h-4z M213,99h17v1h-17z M232,99h6v1h-6z M241,99h5v1h-5z M250,99h4v1h-4z M257,98h8v2h-8z M10,100h5v1h-5z M23,100h5v1h-5z M45,100h4v1h-4z M53,100h4v1h-4z M62,100h4v1h-4z M70,100h4v1h-4z M78,100h5v1h-5z M86,100h5v1h-5z M94,100h4v1h-4z M102,100h4v1h-4z M110,100h5v1h-5z M117,100h4v1h-4z M131,100h5v1h-5z M142,100h11v1h-11z M156,100h5v1h-5z M165,100h5v1h-5z M181,100h5v1h-5z M197,100h4v1h-4z M206,100h5v1h-5z M219,100h5v1h-5z M225,100h3v1h-3z M232,100h4v1h-4z M240,100h5v1h-5z M249,100h4v1h-4z M256,100h4v1h-4z M261,100h4v1h-4z M9,101h4v1h-4z M22,101h5v1h-5z M31,100h3v2h-3z M37,100h4v2h-4z M44,101h4v1h-4z M52,101h4v1h-4z M61,101h4v1h-4z M69,101h4v1h-4z M76,101h6v1h-6z M86,101h4v1h-4z M92,101h5v1h-5z M101,101h5v1h-5z M109,101h4v1h-4z M116,101h4v1h-4z M130,101h5v1h-5z M141,101h5v1h-5z M147,101h5v1h-5z M155,101h5v1h-5z M164,101h5v1h-5z M174,100h4v2h-4z M181,101h4v1h-4z M189,100h4v2h-4z M205,101h4v1h-4z M213,100h4v2h-4z M218,101h5v1h-5z M224,101h3v1h-3z M238,101h5v1h-5z M248,101h4v1h-4z M255,101h5v1h-5z M262,101h3v1h-3z M8,102h5v1h-5z M21,102h5v1h-5z M29,102h5v1h-5z M36,102h4v1h-4z M52,102h3v1h-3z M61,102h3v1h-3z M68,102h5v1h-5z M75,102h6v1h-6z M85,102h4v1h-4z M91,102h6v1h-6z M100,102h5v1h-5z M108,102h4v1h-4z M115,102h4v1h-4z M129,102h5v1h-5z M140,102h5v1h-5z M155,102h4v1h-4z M163,102h5v1h-5z M173,102h4v1h-4z M180,102h5v1h-5z M188,102h4v1h-4z M195,101h4v2h-4z M204,102h5v1h-5z M215,102h7v1h-7z M223,102h4v1h-4z M230,101h5v2h-5z M238,102h4v1h-4z M247,102h5v1h-5z M255,102h4v1h-4z M8,103h4v1h-4z M19,103h5v1h-5z M28,103h5v1h-5z M35,103h4v1h-4z M43,102h4v2h-4z M50,103h5v1h-5z M60,103h4v1h-4z M68,103h4v1h-4z M75,103h4v1h-4z M83,103h5v1h-5z M91,103h5v1h-5z M99,103h5v1h-5z M107,103h5v1h-5z M114,103h5v1h-5z M123,103h1v1h-1z M128,103h5v1h-5z M139,103h5v1h-5z M146,102h5v2h-5z M155,103h3v1h-3z M162,103h4v1h-4z M172,103h5v1h-5z M179,103h5v1h-5z M188,103h3v1h-3z M194,103h4v1h-4z M203,103h5v1h-5z M229,103h5v1h-5z M236,103h5v1h-5z M247,103h4v1h-4z M254,103h4v1h-4z M1,98h5v7h-5z M7,104h4v1h-4z M17,104h6v1h-6z M27,104h5v1h-5z M35,104h3v1h-3z M49,104h5v1h-5z M59,104h4v1h-4z M67,104h4v1h-4z M75,104h2v1h-2z M82,104h6v1h-6z M90,104h4v1h-4z M97,104h6v1h-6z M106,104h5v1h-5z M112,104h6v1h-6z M121,104h4v1h-4z M128,104h4v1h-4z M138,104h5v1h-5z M145,104h4v1h-4z M161,104h4v1h-4z M171,104h5v1h-5z M179,104h4v1h-4z M187,104h4v1h-4z M193,104h4v1h-4z M202,104h5v1h-5z M215,103h11v2h-11z M227,104h5v1h-5z M235,104h5v1h-5z M246,104h4v1h-4z M253,104h5v1h-5z M261,102h4v3h-4z M1,105h10v1h-10z M16,105h6v1h-6z M27,105h4v1h-4z M34,105h4v1h-4z M42,104h4v2h-4z M49,105h4v1h-4z M58,105h5v1h-5z M66,105h4v1h-4z M81,105h8v1h-8z M91,105h2v1h-2z M96,105h6v1h-6z M106,105h4v1h-4z M111,105h5v1h-5z M120,105h4v1h-4z M127,105h5v1h-5z M137,105h4v1h-4z M144,105h5v1h-5z M159,105h6v1h-6z M170,105h5v1h-5z M178,105h4v1h-4z M186,105h5v1h-5z M192,105h4v1h-4z M201,105h5v1h-5z M213,105h18v1h-18z M234,105h5v1h-5z M245,105h5v1h-5z M253,105h4v1h-4z M260,105h5v1h-5z M14,106h6v1h-6z M26,106h4v1h-4z M33,106h4v1h-4z M48,106h4v1h-4z M57,106h4v1h-4z M65,106h5v1h-5z M79,106h10v1h-10z M95,106h5v1h-5z M108,106h7v1h-7z M119,106h4v1h-4z M126,106h5v1h-5z M136,106h4v1h-4z M144,106h4v1h-4z M158,106h6v1h-6z M169,106h5v1h-5z M177,106h4v1h-4z M186,106h4v1h-4z M200,106h5v1h-5z M212,106h18v1h-18z M233,106h5v1h-5z M245,106h4v1h-4z M252,106h4v1h-4z M1,106h8v2h-8z M12,107h7v1h-7z M25,107h4v1h-4z M32,107h4v1h-4z M41,106h4v2h-4z M46,107h5v1h-5z M56,107h5v1h-5z M64,107h5v1h-5z M78,107h10v1h-10z M94,107h5v1h-5z M108,107h6v1h-6z M117,107h6v1h-6z M125,107h5v1h-5z M134,107h5v1h-5z M143,107h4v1h-4z M157,107h6v1h-6z M169,107h4v1h-4z M176,107h4v1h-4z M192,106h3v2h-3z M199,107h5v1h-5z M211,107h12v1h-12z M224,107h5v1h-5z M231,107h6v1h-6z M244,107h3v1h-3z M261,106h4v2h-4z M1,108h7v1h-7z M11,108h6v1h-6z M24,108h5v1h-5z M31,108h5v1h-5z M40,108h4v1h-4z M45,108h5v1h-5z M56,108h4v1h-4z M63,108h5v1h-5z M77,108h10v1h-10z M94,108h4v1h-4z M107,108h6v1h-6z M117,108h11v1h-11z M133,108h5v1h-5z M142,108h5v1h-5z M156,108h5v1h-5z M168,108h4v1h-4z M175,108h5v1h-5z M185,107h4v2h-4z M197,108h6v1h-6z M211,108h5v1h-5z M217,108h5v1h-5z M224,108h4v1h-4z M230,108h6v1h-6z M243,108h4v1h-4z M251,107h4v2h-4z M262,108h3v1h-3z M11,109h5v1h-5z M23,109h4v1h-4z M31,109h4v1h-4z M40,109h9v1h-9z M56,109h3v1h-3z M62,109h5v1h-5z M74,109h12v1h-12z M92,109h4v1h-4z M105,109h6v1h-6z M115,109h6v1h-6z M122,109h5v1h-5z M132,109h5v1h-5z M141,109h5v1h-5z M154,109h6v1h-6z M161,109h4v1h-4z M167,109h5v1h-5z M174,109h5v1h-5z M184,109h4v1h-4z M196,109h6v1h-6z M216,109h5v1h-5z M225,109h3v1h-3z M229,109h6v1h-6z M242,109h4v1h-4z M250,109h4v1h-4z M260,109h5v1h-5z M1,109h6v2h-6z M11,110h3v1h-3z M23,110h3v1h-3z M30,110h4v1h-4z M42,110h7v1h-7z M55,110h4v1h-4z M61,110h5v1h-5z M73,110h12v1h-12z M90,110h6v1h-6z M104,110h6v1h-6z M115,110h11v1h-11z M131,110h5v1h-5z M140,110h5v1h-5z M153,110h12v1h-12z M167,110h4v1h-4z M173,110h5v1h-5z M184,110h3v1h-3z M195,110h6v1h-6z M209,109h6v2h-6z M216,110h4v1h-4z M226,110h8v1h-8z M241,110h5v1h-5z M258,110h8v1h-8z M21,111h4v1h-4z M29,111h5v1h-5z M42,111h5v1h-5z M56,111h2v1h-2z M60,111h5v1h-5z M72,111h6v1h-6z M80,111h5v1h-5z M90,111h4v1h-4z M103,111h6v1h-6z M113,111h12v1h-12z M130,111h5v1h-5z M139,111h5v1h-5z M152,111h6v1h-6z M159,111h11v1h-11z M172,111h5v1h-5z M183,111h4v1h-4z M194,111h5v1h-5z M203,111h2v1h-2z M208,111h4v1h-4z M215,111h4v1h-4z M226,111h5v1h-5z M240,111h5v1h-5z M249,110h5v2h-5z M257,111h8v1h-8z M13,112h2v1h-2z M20,112h4v1h-4z M28,112h5v1h-5z M42,112h4v1h-4z M59,112h6v1h-6z M70,112h6v1h-6z M80,112h4v1h-4z M89,112h4v1h-4z M101,112h6v1h-6z M112,112h6v1h-6z M119,112h5v1h-5z M129,112h5v1h-5z M139,112h4v1h-4z M151,112h5v1h-5z M158,112h11v1h-11z M171,112h5v1h-5z M182,112h4v1h-4z M193,112h6v1h-6z M202,112h3v1h-3z M207,112h5v1h-5z M214,112h5v1h-5z M225,112h5v1h-5z M232,111h4v2h-4z M240,112h4v1h-4z M247,112h5v1h-5z M256,112h9v1h-9z M19,113h5v1h-5z M27,113h5v1h-5z M40,113h5v1h-5z M58,113h6v1h-6z M69,113h6v1h-6z M79,113h4v1h-4z M87,113h5v1h-5z M100,113h6v1h-6z M111,113h6v1h-6z M118,113h5v1h-5z M127,113h6v1h-6z M137,113h6v1h-6z M149,113h6v1h-6z M170,113h5v1h-5z M182,113h3v1h-3z M192,113h5v1h-5z M201,113h4v1h-4z M207,113h4v1h-4z M213,113h5v1h-5z M223,113h7v1h-7z M231,113h5v1h-5z M238,113h5v1h-5z M246,113h5v1h-5z M255,113h5v1h-5z M261,113h4v1h-4z M1,111h5v4h-5z M11,113h4v2h-4z M18,114h5v1h-5z M27,114h4v1h-4z M39,114h5v1h-5z M47,114h3v1h-3z M57,114h5v1h-5z M68,114h6v1h-6z M77,114h5v1h-5z M87,114h4v1h-4z M99,114h5v1h-5z M109,114h6v1h-6z M117,114h5v1h-5z M126,114h6v1h-6z M137,114h4v1h-4z M148,114h6v1h-6z M157,113h10v2h-10z M169,114h5v1h-5z M181,114h4v1h-4z M192,114h4v1h-4z M200,114h4v1h-4z M206,114h4v1h-4z M212,114h5v1h-5z M222,114h6v1h-6z M229,114h6v1h-6z M237,114h5v1h-5z M245,114h5v1h-5z M254,114h5v1h-5z M10,115h4v1h-4z M17,115h5v1h-5z M26,115h4v1h-4z M38,115h5v1h-5z M46,115h4v1h-4z M56,115h5v1h-5z M67,115h6v1h-6z M77,115h4v1h-4z M86,115h4v1h-4z M97,115h6v1h-6z M108,115h6v1h-6z M116,115h5v1h-5z M125,115h6v1h-6z M135,115h5v1h-5z M147,115h6v1h-6z M156,115h4v1h-4z M168,115h5v1h-5z M180,115h4v1h-4z M190,115h5v1h-5z M199,115h4v1h-4z M205,115h5v1h-5z M211,115h5v1h-5z M221,115h5v1h-5z M229,115h5v1h-5z M236,115h5v1h-5z M245,115h4v1h-4z M253,115h5v1h-5z M8,116h5v1h-5z M16,116h5v1h-5z M25,116h4v1h-4z M37,116h5v1h-5z M45,116h4v1h-4z M55,116h5v1h-5z M66,116h4v1h-4z M76,116h5v1h-5z M85,116h4v1h-4z M96,116h5v1h-5z M107,116h6v1h-6z M124,116h5v1h-5z M135,116h4v1h-4z M146,116h5v1h-5z M155,116h4v1h-4z M162,115h4v2h-4z M167,116h6v1h-6z M188,116h6v1h-6z M197,116h5v1h-5z M204,116h5v1h-5z M220,116h5v1h-5z M228,116h5v1h-5z M235,116h5v1h-5z M244,116h5v1h-5z M252,116h5v1h-5z M262,114h4v3h-4z M1,115h4v3h-4z M8,117h3v1h-3z M15,117h4v1h-4z M24,117h4v1h-4z M36,117h5v1h-5z M44,117h5v1h-5z M53,117h5v1h-5z M64,117h5v1h-5z M75,117h5v1h-5z M84,117h5v1h-5z M94,117h5v1h-5z M105,117h6v1h-6z M114,116h5v2h-5z M123,117h5v1h-5z M133,117h5v1h-5z M144,117h5v1h-5z M154,117h4v1h-4z M163,117h1v1h-1z M167,117h4v1h-4z M179,116h4v2h-4z M187,117h6v1h-6z M196,117h5v1h-5z M204,117h4v1h-4z M210,116h5v2h-5z M219,117h5v1h-5z M227,117h4v1h-4z M235,117h4v1h-4z M243,117h4v1h-4z M251,117h5v1h-5z M1,118h5v1h-5z M7,118h4v1h-4z M14,118h5v1h-5z M23,118h4v1h-4z M34,118h6v1h-6z M44,118h4v1h-4z M52,118h5v1h-5z M63,118h5v1h-5z M75,118h4v1h-4z M83,118h4v1h-4z M92,118h6v1h-6z M104,118h5v1h-5z M113,118h4v1h-4z M122,118h5v1h-5z M132,118h6v1h-6z M143,118h5v1h-5z M153,118h4v1h-4z M165,118h7v1h-7z M178,118h4v1h-4z M187,118h5v1h-5z M194,118h5v1h-5z M202,118h6v1h-6z M210,118h3v1h-3z M218,118h5v1h-5z M226,118h4v1h-4z M234,118h4v1h-4z M242,118h5v1h-5z M250,118h5v1h-5z M262,117h3v2h-3z M1,119h9v1h-9z M14,119h4v1h-4z M33,119h5v1h-5z M42,119h5v1h-5z M51,119h4v1h-4z M61,119h6v1h-6z M82,119h4v1h-4z M91,119h6v1h-6z M103,119h5v1h-5z M112,119h5v1h-5z M121,119h5v1h-5z M131,119h6v1h-6z M141,119h6v1h-6z M152,119h5v1h-5z M164,119h11v1h-11z M177,119h4v1h-4z M186,119h5v1h-5z M194,119h4v1h-4z M202,119h4v1h-4z M209,119h4v1h-4z M217,119h5v1h-5z M225,119h4v1h-4z M233,119h4v1h-4z M241,119h5v1h-5z M1,120h8v1h-8z M13,120h4v1h-4z M22,119h4v2h-4z M32,120h5v1h-5z M41,120h5v1h-5z M50,120h5v1h-5z M60,120h6v1h-6z M74,119h4v2h-4z M81,120h5v1h-5z M90,120h5v1h-5z M101,120h6v1h-6z M111,120h4v1h-4z M120,120h5v1h-5z M130,120h5v1h-5z M140,120h6v1h-6z M152,120h4v1h-4z M163,120h5v1h-5z M170,120h5v1h-5z M176,120h5v1h-5z M184,120h6v1h-6z M193,120h5v1h-5z M201,120h5v1h-5z M208,120h4v1h-4z M216,120h5v1h-5z M224,120h4v1h-4z M232,120h4v1h-4z M240,120h4v1h-4z M249,119h4v2h-4z M261,119h4v2h-4z M1,121h7v1h-7z M12,121h4v1h-4z M20,121h5v1h-5z M30,121h6v1h-6z M40,121h5v1h-5z M48,121h6v1h-6z M59,121h6v1h-6z M80,121h5v1h-5z M89,121h5v1h-5z M101,121h5v1h-5z M110,121h5v1h-5z M119,121h4v1h-4z M129,121h5v1h-5z M139,121h5v1h-5z M151,121h4v1h-4z M161,121h6v1h-6z M169,121h4v1h-4z M176,121h4v1h-4z M183,121h5v1h-5z M192,121h5v1h-5z M200,121h4v1h-4z M215,121h4v1h-4z M223,121h4v1h-4z M231,121h4v1h-4z M239,121h4v1h-4z M247,121h4v1h-4z M255,121h2v1h-2z M11,122h4v1h-4z M20,122h4v1h-4z M29,122h6v1h-6z M39,122h5v1h-5z M47,122h6v1h-6z M58,122h5v1h-5z M64,122h1v1h-1z M73,121h4v2h-4z M80,122h4v1h-4z M88,122h5v1h-5z M99,122h5v1h-5z M108,122h5v1h-5z M117,122h5v1h-5z M128,122h5v1h-5z M138,122h5v1h-5z M150,122h5v1h-5z M161,122h4v1h-4z M168,122h4v1h-4z M175,122h4v1h-4z M182,122h5v1h-5z M191,122h5v1h-5z M199,122h5v1h-5z M206,121h5v2h-5z M214,122h4v1h-4z M221,122h5v1h-5z M230,122h5v1h-5z M238,122h5v1h-5z M246,122h4v1h-4z M255,122h3v1h-3z M260,121h5v2h-5z M1,122h5v2h-5z M10,123h5v1h-5z M18,123h5v1h-5z M28,123h5v1h-5z M38,123h4v1h-4z M46,123h6v1h-6z M57,123h4v1h-4z M72,123h4v1h-4z M79,123h4v1h-4z M86,123h5v1h-5z M97,123h5v1h-5z M107,123h5v1h-5z M116,123h5v1h-5z M127,123h5v1h-5z M137,123h5v1h-5z M149,123h5v1h-5z M160,123h5v1h-5z M167,123h5v1h-5z M174,123h4v1h-4z M181,123h5v1h-5z M190,123h5v1h-5z M198,123h5v1h-5z M206,123h4v1h-4z M213,123h4v1h-4z M220,123h5v1h-5z M229,123h5v1h-5z M237,123h5v1h-5z M245,123h4v1h-4z M253,123h5v1h-5z M259,123h6v1h-6z M10,124h4v1h-4z M18,124h4v1h-4z M27,124h5v1h-5z M37,124h4v1h-4z M44,124h6v1h-6z M56,124h5v1h-5z M63,123h3v2h-3z M72,124h3v1h-3z M78,124h4v1h-4z M86,124h4v1h-4z M96,124h5v1h-5z M106,124h5v1h-5z M116,124h4v1h-4z M125,124h6v1h-6z M135,124h8v1h-8z M148,124h5v1h-5z M158,124h5v1h-5z M166,124h5v1h-5z M173,124h4v1h-4z M180,124h5v1h-5z M189,124h5v1h-5z M205,124h5v1h-5z M212,124h5v1h-5z M220,124h4v1h-4z M228,124h5v1h-5z M236,124h5v1h-5z M245,124h3v1h-3z M252,124h5v1h-5z M258,124h7v1h-7z M9,125h4v1h-4z M17,125h4v1h-4z M26,125h5v1h-5z M36,125h5v1h-5z M43,125h6v1h-6z M55,125h5v1h-5z M61,125h5v1h-5z M70,125h4v1h-4z M77,125h5v1h-5z M84,125h5v1h-5z M94,125h5v1h-5z M105,125h5v1h-5z M115,125h4v1h-4z M124,125h6v1h-6z M134,125h5v1h-5z M141,125h3v1h-3z M148,125h4v1h-4z M157,125h6v1h-6z M165,125h5v1h-5z M173,125h3v1h-3z M179,125h5v1h-5z M198,124h4v2h-4z M204,125h5v1h-5z M212,125h4v1h-4z M218,125h5v1h-5z M228,125h4v1h-4z M235,125h5v1h-5z M244,125h3v1h-3z M8,126h4v1h-4z M16,126h4v1h-4z M24,126h6v1h-6z M35,126h5v1h-5z M42,126h5v1h-5z M54,126h5v1h-5z M60,126h5v1h-5z M69,126h5v1h-5z M76,126h5v1h-5z M84,126h4v1h-4z M93,126h5v1h-5z M103,126h5v1h-5z M114,126h4v1h-4z M123,126h5v1h-5z M133,126h5v1h-5z M140,126h4v1h-4z M147,126h5v1h-5z M155,126h6v1h-6z M164,126h5v1h-5z M172,126h4v1h-4z M178,126h6v1h-6z M187,125h5v2h-5z M197,126h4v1h-4z M204,126h4v1h-4z M211,126h4v1h-4z M218,126h4v1h-4z M227,126h4v1h-4z M234,126h5v1h-5z M243,126h4v1h-4z M251,125h4v2h-4z M257,125h8v2h-8z M15,127h4v1h-4z M23,127h6v1h-6z M33,127h5v1h-5z M41,127h5v1h-5z M59,127h5v1h-5z M68,127h5v1h-5z M76,127h4v1h-4z M82,127h6v1h-6z M92,127h5v1h-5z M102,127h5v1h-5z M113,127h4v1h-4z M121,127h6v1h-6z M132,127h5v1h-5z M139,127h4v1h-4z M146,127h4v1h-4z M154,127h6v1h-6z M163,127h5v1h-5z M171,127h5v1h-5z M177,127h6v1h-6z M186,127h4v1h-4z M196,127h4v1h-4z M210,127h4v1h-4z M217,127h5v1h-5z M226,127h4v1h-4z M233,127h5v1h-5z M241,127h5v1h-5z M249,127h5v1h-5z M256,127h9v1h-9z M1,124h4v5h-4z M7,127h4v2h-4z M13,128h6v1h-6z M22,128h5v1h-5z M32,128h5v1h-5z M40,128h5v1h-5z M52,127h5v2h-5z M58,128h5v1h-5z M67,128h5v1h-5z M75,128h4v1h-4z M82,128h4v1h-4z M91,128h5v1h-5z M102,128h4v1h-4z M112,128h4v1h-4z M121,128h5v1h-5z M131,128h4v1h-4z M138,128h5v1h-5z M146,128h3v1h-3z M153,128h6v1h-6z M162,128h4v1h-4z M170,128h5v1h-5z M176,128h6v1h-6z M185,128h5v1h-5z M195,128h4v1h-4z M203,127h4v2h-4z M209,128h4v1h-4z M216,128h4v1h-4z M226,128h3v1h-3z M232,128h5v1h-5z M241,128h4v1h-4z M249,128h4v1h-4z M256,128h4v1h-4z M12,129h6v1h-6z M20,129h6v1h-6z M31,129h5v1h-5z M39,129h5v1h-5z M51,129h5v1h-5z M57,129h5v1h-5z M66,129h5v1h-5z M74,129h5v1h-5z M81,129h4v1h-4z M90,129h5v1h-5z M100,129h5v1h-5z M110,129h5v1h-5z M119,129h6v1h-6z M130,129h5v1h-5z M136,129h6v1h-6z M145,129h4v1h-4z M152,129h6v1h-6z M161,129h5v1h-5z M169,129h5v1h-5z M175,129h6v1h-6z M184,129h5v1h-5z M194,129h5v1h-5z M208,129h5v1h-5z M215,129h5v1h-5z M224,129h5v1h-5z M232,129h4v1h-4z M240,129h4v1h-4z M247,129h5v1h-5z M255,129h5v1h-5z M261,128h4v2h-4z M1,129h9v2h-9z M11,130h5v1h-5z M19,130h5v1h-5z M29,130h6v1h-6z M38,130h5v1h-5z M50,130h4v1h-4z M57,130h4v1h-4z M65,130h5v1h-5z M73,130h4v1h-4z M80,130h4v1h-4z M89,130h5v1h-5z M99,130h4v1h-4z M110,130h4v1h-4z M129,130h5v1h-5z M135,130h6v1h-6z M144,130h4v1h-4z M152,130h5v1h-5z M160,130h5v1h-5z M168,130h5v1h-5z M175,130h4v1h-4z M183,130h5v1h-5z M193,130h5v1h-5z M202,129h4v2h-4z M208,130h4v1h-4z M215,130h4v1h-4z M223,130h5v1h-5z M231,130h5v1h-5z M239,130h4v1h-4z M247,130h4v1h-4z M254,130h3v1h-3z M1,131h14v1h-14z M18,131h5v1h-5z M28,131h6v1h-6z M37,131h5v1h-5z M49,131h5v1h-5z M55,131h5v1h-5z M79,131h5v1h-5z M88,131h5v1h-5z M109,131h5v1h-5z M118,130h4v2h-4z M128,131h11v1h-11z M144,131h3v1h-3z M151,131h5v1h-5z M168,131h4v1h-4z M174,131h4v1h-4z M182,131h5v1h-5z M201,131h4v1h-4z M207,131h4v1h-4z M214,131h4v1h-4z M223,131h4v1h-4z M238,131h4v1h-4z M246,131h4v1h-4z M253,131h3v1h-3z M259,130h6v2h-6z M1,132h33v1h-33z M36,132h6v1h-6z M48,132h12v1h-12z M64,131h5v2h-5z M74,131h2v2h-2z M77,132h5v1h-5z M87,132h6v1h-6z M98,131h4v2h-4z M108,132h5v1h-5z M119,132h2v1h-2z M127,132h12v1h-12z M143,132h4v1h-4z M151,132h3v1h-3z M159,131h5v2h-5z M167,132h5v1h-5z M173,132h5v1h-5z M182,132h4v1h-4z M193,131h4v2h-4z M200,132h4v1h-4z M206,132h5v1h-5z M215,132h2v1h-2z M222,132h5v1h-5z M231,131h3v2h-3z M237,132h5v1h-5z M245,132h4v1h-4z M251,132h5v1h-5z M258,132h7v1h-7z M2,133h187v1h-187z M191,133h52v1h-52z M244,133h21v1h-21z M2,134h263v2h-263z M30,136h1v1h-1z M33,136h2v1h-2z M41,136h3v1h-3z M47,136h218v1h-218z M118,137h1v1h-1z M252,137h2v1h-2z M261,137h3v1h-3z
  "/>
</svg>