<?xml version="1.0" encoding="UTF-8"?>
<svg xmlns="http://www.w3.org/2000/svg" viewBox="0 0 267 139" width="267" height="139">
  <title>03 Gravel and stratified drift</title>
  <path fill="#111111" fill-rule="nonzero" d="
    M61,0h5v1h-5z M69,0h1v1h-1z M76,0h2v1h-2z M80,0h4v1h-4z M88,0h4v1h-4z M93,0h60v1h-60z M4,1h194v1h-194z M199,1h1v1h-1z M203,1h3v1h-3z M211,1h1v1h-1z M2,2h232v1h-232z M238,2h15v1h-15z M255,2h1v1h-1z M260,2h2v1h-2z M1,3h265v1h-265z M1,4h37v1h-37z M45,4h7v1h-7z M57,4h6v1h-6z M66,4h3v1h-3z M70,4h1v1h-1z M76,4h2v1h-2z M81,4h6v1h-6z M92,4h3v1h-3z M96,4h2v1h-2z M106,4h11v1h-11z M118,4h5v1h-5z M129,4h11v1h-11z M147,4h7v1h-7z M156,4h8v1h-8z M165,4h101v1h-101z M46,5h5v1h-5z M57,5h5v1h-5z M82,5h4v1h-4z M89,4h2v2h-2z M107,5h9v1h-9z M119,5h4v1h-4z M130,5h4v1h-4z M159,5h5v1h-5z M166,5h11v1h-11z M182,5h6v1h-6z M193,5h4v1h-4z M206,5h8v1h-8z M215,5h51v1h-51z M20,6h2v1h-2z M28,5h10v2h-10z M46,6h4v1h-4z M67,5h3v2h-3z M83,6h1v1h-1z M88,6h4v1h-4z M119,6h3v1h-3z M129,6h5v1h-5z M136,5h3v2h-3z M149,5h4v2h-4z M160,6h4v1h-4z M166,6h5v1h-5z M183,6h4v1h-4z M259,6h7v1h-7z M48,7h1v1h-1z M67,7h4v1h-4z M87,7h5v1h-5z M97,7h3v1h-3z M108,6h7v2h-7z M120,7h1v1h-1z M137,7h1v1h-1z M150,7h2v1h-2z M160,7h3v1h-3z M166,7h4v1h-4z M184,7h2v1h-2z M193,6h3v2h-3z M205,7h2v1h-2z M216,6h9v2h-9z M246,6h8v2h-8z M7,7h3v2h-3z M28,7h12v2h-12z M56,6h6v3h-6z M67,8h3v1h-3z M77,8h2v1h-2z M96,8h4v1h-4z M109,8h5v1h-5z M160,8h2v1h-2z M166,8h5v1h-5z M173,6h4v3h-4z M194,8h2v1h-2z M215,8h11v1h-11z M236,8h2v1h-2z M262,7h4v2h-4z M13,9h2v1h-2z M19,7h4v3h-4z M29,9h7v1h-7z M38,9h2v1h-2z M55,9h7v1h-7z M87,8h6v2h-6z M112,9h1v1h-1z M127,7h7v3h-7z M154,9h2v1h-2z M167,9h9v1h-9z M195,9h1v1h-1z M245,8h10v2h-10z M7,9h4v2h-4z M20,10h2v1h-2z M76,9h4v2h-4z M87,10h5v1h-5z M104,9h3v2h-3z M127,10h8v1h-8z M143,10h2v1h-2z M163,10h2v1h-2z M195,10h2v1h-2z M204,8h4v3h-4z M215,9h4v2h-4z M236,9h3v2h-3z M245,10h5v1h-5z M12,10h3v2h-3z M56,10h6v2h-6z M74,11h4v1h-4z M87,11h4v1h-4z M105,11h1v1h-1z M120,11h2v1h-2z M125,11h12v1h-12z M142,11h4v1h-4z M153,10h3v2h-3z M163,11h3v1h-3z M168,10h8v2h-8z M183,11h2v1h-2z M192,11h6v1h-6z M206,11h1v1h-1z M214,11h5v1h-5z M236,11h2v1h-2z M245,11h4v1h-4z M259,9h7v3h-7z M13,12h1v1h-1z M20,12h2v1h-2z M58,12h3v1h-3z M72,12h6v1h-6z M100,12h5v1h-5z M112,10h3v3h-3z M119,12h18v1h-18z M143,12h2v1h-2z M153,12h2v1h-2z M163,12h4v1h-4z M171,12h3v1h-3z M192,12h8v1h-8z M215,12h4v1h-4z M222,9h4v4h-4z M246,12h4v1h-4z M251,10h4v3h-4z M260,12h7v1h-7z M16,13h8v1h-8z M30,13h3v1h-3z M42,11h3v3h-3z M52,13h3v1h-3z M64,13h2v1h-2z M71,13h7v1h-7z M99,13h7v1h-7z M113,13h1v1h-1z M120,13h17v1h-17z M149,13h6v1h-6z M164,13h2v1h-2z M182,12h4v2h-4z M191,13h9v1h-9z M216,13h10v1h-10z M246,13h9v1h-9z M30,14h4v1h-4z M43,14h2v1h-2z M52,14h4v1h-4z M71,14h8v1h-8z M93,14h1v1h-1z M121,14h13v1h-13z M148,14h7v1h-7z M174,14h3v1h-3z M183,14h2v1h-2z M196,14h4v1h-4z M208,14h2v1h-2z M216,14h9v1h-9z M247,14h7v1h-7z M262,13h5v2h-5z M15,14h10v2h-10z M52,15h3v1h-3z M64,14h3v2h-3z M70,15h9v1h-9z M84,13h4v3h-4z M99,14h8v2h-8z M148,15h8v1h-8z M191,14h4v2h-4z M197,15h3v1h-3z M217,15h8v1h-8z M248,15h6v1h-6z M15,16h4v1h-4z M30,15h3v2h-3z M64,16h2v1h-2z M69,16h5v1h-5z M75,16h5v1h-5z M85,16h2v1h-2z M92,15h2v2h-2z M112,16h3v1h-3z M129,15h5v2h-5z M143,16h1v1h-1z M147,16h10v1h-10z M173,15h4v2h-4z M191,16h9v1h-9z M207,15h3v2h-3z M219,16h5v1h-5z M249,16h3v1h-3z M10,17h2v1h-2z M15,17h3v1h-3z M21,16h4v2h-4z M69,17h11v1h-11z M99,16h3v2h-3z M104,16h4v2h-4z M112,17h4v1h-4z M122,15h4v3h-4z M128,17h6v1h-6z M141,17h3v1h-3z M146,17h5v1h-5z M153,17h3v1h-3z M174,17h2v1h-2z M187,17h1v1h-1z M191,17h8v1h-8z M230,17h6v1h-6z M15,18h4v1h-4z M20,18h5v1h-5z M48,18h5v1h-5z M60,18h1v1h-1z M113,18h2v1h-2z M147,18h9v1h-9z M161,18h3v1h-3z M175,18h1v1h-1z M186,18h3v1h-3z M192,18h6v1h-6z M214,18h3v1h-3z M228,18h10v1h-10z M243,18h2v1h-2z M39,19h2v1h-2z M47,19h7v1h-7z M59,19h3v1h-3z M69,18h10v2h-10z M99,18h9v2h-9z M123,18h11v2h-11z M142,18h2v2h-2z M161,19h4v1h-4z M185,19h4v1h-4z M193,19h3v1h-3z M227,19h11v1h-11z M9,18h3v3h-3z M15,19h10v2h-10z M46,20h8v1h-8z M70,20h8v1h-8z M83,20h2v1h-2z M100,20h7v1h-7z M124,20h13v1h-13z M148,19h8v2h-8z M162,20h2v1h-2z M181,20h2v1h-2z M186,20h3v1h-3z M192,20h2v1h-2z M214,19h4v2h-4z M227,20h5v1h-5z M242,19h4v2h-4z M16,21h9v1h-9z M28,21h2v1h-2z M45,21h10v1h-10z M58,20h4v2h-4z M73,21h1v1h-1z M82,21h4v1h-4z M101,21h4v1h-4z M129,21h8v1h-8z M149,21h6v1h-6z M168,21h3v1h-3z M180,21h4v1h-4z M215,21h3v1h-3z M227,21h4v1h-4z M234,20h4v2h-4z M243,21h2v1h-2z M255,21h3v1h-3z M18,22h2v1h-2z M28,22h3v1h-3z M38,20h3v3h-3z M45,22h4v1h-4z M50,22h5v1h-5z M60,22h1v1h-1z M68,22h2v1h-2z M82,22h3v1h-3z M109,22h1v1h-1z M149,22h4v1h-4z M168,22h4v1h-4z M181,22h3v1h-3z M202,22h3v1h-3z M227,22h11v1h-11z M254,22h5v1h-5z M28,23h2v1h-2z M92,21h3v3h-3z M108,23h3v1h-3z M116,23h2v1h-2z M124,21h3v3h-3z M130,22h7v2h-7z M141,23h3v1h-3z M164,23h1v1h-1z M169,23h6v1h-6z M182,23h3v1h-3z M191,21h3v3h-3z M202,23h4v1h-4z M228,23h9v1h-9z M255,23h4v1h-4z M28,24h1v1h-1z M44,23h4v2h-4z M51,23h4v2h-4z M93,24h2v1h-2z M102,24h1v1h-1z M108,24h4v1h-4z M115,24h4v1h-4z M124,24h2v1h-2z M148,23h5v2h-5z M158,24h2v1h-2z M162,24h3v1h-3z M171,24h9v1h-9z M183,24h3v1h-3z M188,24h1v1h-1z M196,24h2v1h-2z M203,24h2v1h-2z M207,24h3v1h-3z M213,24h3v1h-3z M229,24h7v1h-7z M250,24h2v1h-2z M256,24h2v1h-2z M44,25h11v1h-11z M68,23h3v3h-3z M100,25h4v1h-4z M110,25h1v1h-1z M116,25h3v1h-3z M130,24h5v2h-5z M141,24h4v2h-4z M148,25h4v1h-4z M171,25h10v1h-10z M183,25h7v1h-7z M195,25h4v1h-4z M206,25h4v1h-4z M227,25h2v1h-2z M231,25h5v1h-5z M249,25h4v1h-4z M8,26h2v1h-2z M18,26h2v1h-2z M45,26h9v1h-9z M100,26h3v1h-3z M116,26h2v1h-2z M130,26h6v1h-6z M141,26h3v1h-3z M152,26h3v1h-3z M157,25h3v2h-3z M161,25h5v2h-5z M171,26h4v1h-4z M176,26h5v1h-5z M183,26h17v1h-17z M203,26h7v1h-7z M221,24h3v3h-3z M240,25h3v2h-3z M262,15h4v12h-4z M8,27h3v1h-3z M45,27h8v1h-8z M60,27h3v1h-3z M78,26h3v2h-3z M89,27h2v1h-2z M123,27h2v1h-2z M130,27h7v1h-7z M140,27h4v1h-4z M151,27h5v1h-5z M157,27h1v1h-1z M164,27h2v1h-2z M167,27h6v1h-6z M177,27h8v1h-8z M186,27h9v1h-9z M196,27h5v1h-5z M202,27h7v1h-7z M213,25h4v3h-4z M227,26h3v2h-3z M244,26h2v2h-2z M249,26h5v2h-5z M260,27h6v1h-6z M8,28h2v1h-2z M26,28h2v1h-2z M46,28h6v1h-6z M60,28h6v1h-6z M78,28h2v1h-2z M122,28h3v1h-3z M130,28h15v1h-15z M151,28h7v1h-7z M166,28h8v1h-8z M178,28h7v1h-7z M188,28h1v1h-1z M191,28h4v1h-4z M196,28h10v1h-10z M211,28h7v1h-7z M227,28h2v1h-2z M232,28h2v1h-2z M244,28h1v1h-1z M249,28h7v1h-7z M17,27h3v3h-3z M25,29h4v1h-4z M54,29h1v1h-1z M61,29h7v1h-7z M88,28h4v2h-4z M104,29h4v1h-4z M130,29h5v1h-5z M136,29h10v1h-10z M149,29h10v1h-10z M162,29h1v1h-1z M165,29h10v1h-10z M177,29h9v1h-9z M191,29h14v1h-14z M210,29h9v1h-9z M220,27h3v3h-3z M228,29h1v1h-1z M231,29h7v1h-7z M250,29h6v1h-6z M25,30h8v1h-8z M39,29h3v2h-3z M53,30h3v1h-3z M89,30h2v1h-2z M102,30h7v1h-7z M111,30h2v1h-2z M122,29h4v2h-4z M136,30h69v1h-69z M209,30h14v1h-14z M229,30h9v1h-9z M245,30h5v1h-5z M252,30h5v1h-5z M259,28h7v3h-7z M40,31h2v1h-2z M82,31h5v1h-5z M122,31h3v1h-3z M136,31h4v1h-4z M141,31h12v1h-12z M171,31h34v1h-34z M207,31h7v1h-7z M215,31h9v1h-9z M227,31h12v1h-12z M244,31h6v1h-6z M253,31h4v1h-4z M261,31h5v1h-5z M26,31h8v2h-8z M53,31h4v2h-4z M62,30h8v3h-8z M81,32h7v1h-7z M101,31h9v2h-9z M130,30h4v3h-4z M136,32h17v1h-17z M156,31h13v2h-13z M171,32h10v1h-10z M182,32h16v1h-16z M201,32h11v1h-11z M216,32h17v1h-17z M234,32h5v1h-5z M242,32h8v1h-8z M254,32h4v1h-4z M262,32h4v1h-4z M9,33h4v1h-4z M63,33h8v1h-8z M74,32h2v2h-2z M80,33h8v1h-8z M95,31h3v3h-3z M101,33h10v1h-10z M136,33h10v1h-10z M147,33h6v1h-6z M154,33h6v1h-6z M162,33h7v1h-7z M170,33h35v1h-35z M207,33h6v1h-6z M216,33h11v1h-11z M228,33h11v1h-11z M240,33h1v1h-1z M245,33h6v1h-6z M253,33h4v1h-4z M260,33h6v1h-6z M47,34h3v1h-3z M63,34h7v1h-7z M79,34h10v1h-10z M114,34h4v1h-4z M119,34h6v1h-6z M137,34h8v1h-8z M150,34h10v1h-10z M165,34h21v1h-21z M207,34h13v1h-13z M221,34h4v1h-4z M229,34h10v1h-10z M246,34h11v1h-11z M7,34h7v2h-7z M64,35h5v1h-5z M79,35h4v1h-4z M101,34h9v2h-9z M130,33h5v3h-5z M137,35h7v1h-7z M151,35h8v1h-8z M166,35h19v1h-19z M192,34h12v2h-12z M221,35h5v1h-5z M229,35h9v1h-9z M248,35h9v1h-9z M20,36h2v1h-2z M26,33h9v4h-9z M39,36h2v1h-2z M46,35h4v2h-4z M59,36h1v1h-1z M65,36h2v1h-2z M79,36h3v1h-3z M84,35h5v2h-5z M102,36h8v1h-8z M114,35h12v2h-12z M160,36h3v1h-3z M166,36h11v1h-11z M180,36h4v1h-4z M188,36h3v1h-3z M192,36h8v1h-8z M203,36h2v1h-2z M208,35h12v2h-12z M221,36h16v1h-16z M240,36h2v1h-2z M249,36h7v1h-7z M259,34h7v3h-7z M7,36h8v2h-8z M20,37h3v1h-3z M27,37h6v1h-6z M38,37h4v1h-4z M79,37h9v1h-9z M103,37h6v1h-6z M116,37h10v1h-10z M130,36h14v2h-14z M145,36h3v2h-3z M149,37h2v1h-2z M160,37h4v1h-4z M169,37h1v1h-1z M174,37h3v1h-3z M187,37h11v1h-11z M203,37h31v1h-31z M239,37h4v1h-4z M244,37h3v1h-3z M250,37h5v1h-5z M7,38h7v1h-7z M20,38h2v1h-2z M28,38h4v1h-4z M39,38h2v1h-2z M58,37h2v2h-2z M71,38h2v1h-2z M105,38h2v1h-2z M119,38h7v1h-7z M130,38h8v1h-8z M141,38h3v1h-3z M146,38h6v1h-6z M160,38h7v1h-7z M181,37h3v2h-3z M187,38h7v1h-7z M202,38h12v1h-12z M216,38h17v1h-17z M238,38h10v1h-10z M252,38h4v1h-4z M260,37h6v2h-6z M8,39h6v1h-6z M29,39h2v1h-2z M79,38h8v2h-8z M98,39h2v1h-2z M120,39h6v1h-6z M129,39h9v1h-9z M142,39h1v1h-1z M147,39h6v1h-6z M157,39h2v1h-2z M161,39h8v1h-8z M180,39h5v1h-5z M188,39h6v1h-6z M196,38h4v2h-4z M217,39h19v1h-19z M239,39h9v1h-9z M250,39h1v1h-1z M253,39h13v1h-13z M10,40h2v1h-2z M70,39h3v2h-3z M80,40h4v1h-4z M97,40h3v1h-3z M113,40h1v1h-1z M122,40h2v1h-2z M144,40h2v1h-2z M148,40h5v1h-5z M161,40h9v1h-9z M176,40h1v1h-1z M189,40h5v1h-5z M195,40h5v1h-5z M203,39h10v2h-10z M217,40h12v1h-12z M240,40h12v1h-12z M253,40h2v1h-2z M32,41h2v1h-2z M49,41h3v1h-3z M113,41h3v1h-3z M128,40h6v2h-6z M136,41h3v1h-3z M156,40h4v2h-4z M161,41h10v1h-10z M175,41h1v1h-1z M181,40h4v2h-4z M195,41h1v1h-1z M197,41h3v1h-3z M203,41h5v1h-5z M217,41h11v1h-11z M232,40h4v2h-4z M241,41h4v1h-4z M257,40h10v2h-10z M16,42h1v1h-1z M32,42h3v1h-3z M39,42h5v1h-5z M50,42h2v1h-2z M78,41h4v2h-4z M107,41h2v2h-2z M112,42h4v1h-4z M129,42h5v1h-5z M143,41h3v2h-3z M158,42h13v1h-13z M180,42h6v1h-6z M190,41h4v2h-4z M204,42h4v1h-4z M210,41h4v2h-4z M217,42h3v1h-3z M224,42h5v1h-5z M233,42h3v1h-3z M248,41h4v2h-4z M259,42h1v1h-1z M261,42h5v1h-5z M15,43h2v1h-2z M50,43h1v1h-1z M64,43h3v1h-3z M92,43h1v1h-1z M113,43h3v1h-3z M120,43h3v1h-3z M135,42h5v2h-5z M144,43h2v1h-2z M161,43h10v1h-10z M180,43h7v1h-7z M191,43h3v1h-3z M204,43h3v1h-3z M211,43h2v1h-2z M224,43h6v1h-6z M240,42h6v2h-6z M249,43h2v1h-2z M255,43h1v1h-1z M7,44h2v1h-2z M14,44h4v1h-4z M32,43h4v2h-4z M59,44h1v1h-1z M63,44h4v1h-4z M78,43h3v2h-3z M91,44h2v1h-2z M120,44h4v1h-4z M137,44h2v1h-2z M144,44h1v1h-1z M157,44h1v1h-1z M163,44h8v1h-8z M178,44h10v1h-10z M216,43h4v2h-4z M223,44h6v1h-6z M1,5h4v41h-4z M6,45h4v1h-4z M15,45h2v1h-2z M24,45h3v1h-3z M33,45h2v1h-2z M38,43h7v3h-7z M57,45h6v1h-6z M64,45h2v1h-2z M91,45h1v1h-1z M100,45h1v1h-1z M120,45h3v1h-3z M130,43h4v3h-4z M144,45h2v1h-2z M156,45h3v1h-3z M163,45h6v1h-6z M217,45h4v1h-4z M222,45h5v1h-5z M239,44h7v2h-7z M1,46h8v1h-8z M37,46h8v1h-8z M56,46h8v1h-8z M92,46h1v1h-1z M121,46h1v1h-1z M129,46h5v1h-5z M143,46h4v1h-4z M178,45h4v2h-4z M184,45h4v2h-4z M192,44h3v3h-3z M217,46h9v1h-9z M239,46h6v1h-6z M7,47h1v1h-1z M23,46h4v2h-4z M38,47h7v1h-7z M48,47h2v1h-2z M83,46h3v2h-3z M90,47h4v1h-4z M100,46h2v2h-2z M117,47h2v1h-2z M128,47h5v1h-5z M142,47h5v1h-5z M155,46h4v2h-4z M178,47h10v1h-10z M197,47h4v1h-4z M218,47h7v1h-7z M231,47h1v1h-1z M240,47h4v1h-4z M249,47h1v1h-1z M24,48h3v1h-3z M39,48h5v1h-5z M47,48h4v1h-4z M55,47h10v2h-10z M70,46h3v3h-3z M84,48h1v1h-1z M89,48h6v1h-6z M100,48h1v1h-1z M114,48h7v1h-7z M142,48h4v1h-4z M158,48h6v1h-6z M179,48h8v1h-8z M195,48h7v1h-7z M206,47h2v2h-2z M219,48h6v1h-6z M248,48h3v1h-3z M254,48h6v1h-6z M262,43h4v6h-4z M48,49h3v1h-3z M55,49h4v1h-4z M60,49h5v1h-5z M88,49h8v1h-8z M128,48h6v2h-6z M137,49h5v1h-5z M149,49h4v1h-4z M158,49h7v1h-7z M175,49h1v1h-1z M180,49h6v1h-6z M194,49h9v1h-9z M212,48h3v2h-3z M250,49h1v1h-1z M253,49h13v1h-13z M9,50h3v1h-3z M17,50h2v1h-2z M31,50h3v1h-3z M49,50h1v1h-1z M55,50h10v1h-10z M77,50h2v1h-2z M87,50h9v1h-9z M113,49h9v2h-9z M129,50h5v1h-5z M136,50h7v1h-7z M149,50h5v1h-5z M181,50h4v1h-4z M194,50h10v1h-10z M231,48h2v3h-2z M252,50h14v1h-14z M9,51h5v1h-5z M15,51h6v1h-6z M31,51h4v1h-4z M55,51h9v1h-9z M76,51h3v1h-3z M87,51h3v1h-3z M107,49h3v3h-3z M112,51h5v1h-5z M118,51h5v1h-5z M150,51h3v1h-3z M236,51h3v1h-3z M9,52h13v1h-13z M31,52h3v1h-3z M40,52h2v1h-2z M56,52h7v1h-7z M68,52h1v1h-1z M77,52h2v1h-2z M93,51h4v2h-4z M112,52h4v1h-4z M119,52h4v1h-4z M151,52h1v1h-1z M174,50h4v3h-4z M193,51h4v2h-4z M200,51h4v2h-4z M223,52h2v1h-2z M234,52h6v1h-6z M244,52h3v1h-3z M252,51h4v2h-4z M258,51h8v2h-8z M10,53h13v1h-13z M39,53h4v1h-4z M46,53h2v1h-2z M57,53h6v1h-6z M86,52h4v2h-4z M93,53h3v1h-3z M102,53h2v1h-2z M113,53h4v1h-4z M118,53h7v1h-7z M130,51h14v3h-14z M157,50h9v4h-9z M187,52h3v2h-3z M194,53h4v1h-4z M199,53h4v1h-4z M213,53h4v1h-4z M222,53h4v1h-4z M233,53h8v1h-8z M244,53h4v1h-4z M252,53h14v1h-14z M12,54h5v1h-5z M39,54h11v1h-11z M58,54h4v1h-4z M68,53h3v2h-3z M86,54h5v1h-5z M92,54h4v1h-4z M102,54h3v1h-3z M113,54h13v1h-13z M130,54h15v1h-15z M158,54h7v1h-7z M170,54h1v1h-1z M187,54h2v1h-2z M194,54h9v1h-9z M212,54h6v1h-6z M223,54h2v1h-2z M232,54h10v1h-10z M244,54h3v1h-3z M253,54h8v1h-8z M263,54h4v1h-4z M12,55h4v1h-4z M18,54h5v2h-5z M26,55h2v1h-2z M40,55h11v1h-11z M68,55h2v1h-2z M78,55h1v1h-1z M86,55h10v1h-10z M103,55h1v1h-1z M111,55h10v1h-10z M123,55h2v1h-2z M130,55h14v1h-14z M148,55h2v1h-2z M159,55h5v1h-5z M169,55h3v1h-3z M196,55h6v1h-6z M231,55h4v1h-4z M238,55h5v1h-5z M253,55h7v1h-7z M12,56h5v1h-5z M18,56h4v1h-4z M42,56h9v1h-9z M59,55h3v2h-3z M77,56h4v1h-4z M87,56h8v1h-8z M110,56h4v1h-4z M115,56h5v1h-5z M130,56h4v1h-4z M135,56h8v1h-8z M147,56h4v1h-4z M168,56h5v1h-5z M181,56h1v1h-1z M196,56h5v1h-5z M210,55h9v2h-9z M232,56h3v1h-3z M239,56h4v1h-4z M255,56h3v1h-3z M12,57h10v1h-10z M25,56h4v2h-4z M42,57h10v1h-10z M60,57h2v1h-2z M75,57h8v1h-8z M89,57h5v1h-5z M111,57h3v1h-3z M117,57h2v1h-2z M129,57h13v1h-13z M147,57h3v1h-3z M178,57h4v1h-4z M195,57h2v1h-2z M206,57h1v1h-1z M210,57h4v1h-4z M215,57h4v1h-4z M232,57h4v1h-4z M238,57h5v1h-5z M248,57h1v1h-1z M13,58h8v1h-8z M26,58h2v1h-2z M43,58h9v1h-9z M74,58h9v1h-9z M111,58h2v1h-2z M123,58h3v1h-3z M130,58h8v1h-8z M157,58h3v1h-3z M169,57h4v2h-4z M194,58h3v1h-3z M205,58h3v1h-3z M232,58h10v1h-10z M247,58h3v1h-3z M1,47h4v13h-4z M6,59h4v1h-4z M14,59h6v1h-6z M38,59h1v1h-1z M44,59h7v1h-7z M66,59h3v1h-3z M74,59h10v1h-10z M96,58h3v2h-3z M105,59h2v1h-2z M130,59h7v1h-7z M148,59h1v1h-1z M156,59h5v1h-5z M179,58h3v2h-3z M205,59h4v1h-4z M210,58h9v2h-9z M221,59h3v1h-3z M226,59h3v1h-3z M233,59h9v1h-9z M247,59h4v1h-4z M262,55h4v5h-4z M1,60h10v1h-10z M15,60h3v1h-3z M29,60h3v1h-3z M37,60h3v1h-3z M44,60h6v1h-6z M52,60h4v1h-4z M66,60h4v1h-4z M74,60h4v1h-4z M80,60h4v1h-4z M96,60h2v1h-2z M122,59h5v2h-5z M130,60h5v1h-5z M141,60h3v1h-3z M153,60h7v1h-7z M175,60h3v1h-3z M180,60h2v1h-2z M193,59h4v2h-4z M205,60h3v1h-3z M211,60h7v1h-7z M220,60h9v1h-9z M234,60h7v1h-7z M248,60h3v1h-3z M261,60h5v1h-5z M1,61h9v1h-9z M28,61h7v1h-7z M36,61h4v1h-4z M45,61h4v1h-4z M53,61h3v1h-3z M67,61h3v1h-3z M74,61h10v1h-10z M88,61h1v1h-1z M95,61h5v1h-5z M104,60h4v2h-4z M115,60h3v2h-3z M124,61h2v1h-2z M130,61h4v1h-4z M146,60h4v2h-4z M152,61h8v1h-8z M166,61h3v1h-3z M180,61h3v1h-3z M187,61h2v1h-2z M194,61h2v1h-2z M213,61h4v1h-4z M220,61h4v1h-4z M226,61h3v1h-3z M232,61h3v1h-3z M236,61h4v1h-4z M243,61h3v1h-3z M260,61h7v1h-7z M6,62h3v1h-3z M22,62h1v1h-1z M28,62h12v1h-12z M46,62h1v1h-1z M67,62h2v1h-2z M74,62h9v1h-9z M87,62h3v1h-3z M94,62h8v1h-8z M114,62h4v1h-4z M130,62h8v1h-8z M140,61h5v2h-5z M147,62h9v1h-9z M160,62h3v1h-3z M166,62h4v1h-4z M174,61h4v2h-4z M180,62h4v1h-4z M186,62h3v1h-3z M193,62h3v1h-3z M204,62h2v1h-2z M215,62h3v1h-3z M242,62h5v1h-5z M252,60h4v3h-4z M11,63h2v1h-2z M20,63h3v1h-3z M27,63h10v1h-10z M52,63h1v1h-1z M60,63h1v1h-1z M75,63h7v1h-7z M88,63h2v1h-2z M93,63h10v1h-10z M112,63h5v1h-5z M130,63h14v1h-14z M148,63h8v1h-8z M160,63h4v1h-4z M165,63h5v1h-5z M175,63h3v1h-3z M180,63h5v1h-5z M187,63h2v1h-2z M193,63h4v1h-4z M203,63h7v1h-7z M215,63h4v1h-4z M221,62h3v2h-3z M242,63h4v1h-4z M253,63h3v1h-3z M260,62h6v2h-6z M10,64h6v1h-6z M20,64h4v1h-4z M27,64h9v1h-9z M44,64h3v1h-3z M49,64h6v1h-6z M68,64h2v1h-2z M76,64h5v1h-5z M92,64h12v1h-12z M110,64h6v1h-6z M121,64h1v1h-1z M130,64h10v1h-10z M148,64h9v1h-9z M160,64h10v1h-10z M176,64h1v1h-1z M181,64h4v1h-4z M192,64h8v1h-8z M203,64h11v1h-11z M215,64h5v1h-5z M221,64h6v1h-6z M232,62h4v3h-4z M243,64h2v1h-2z M252,64h4v1h-4z M261,64h5v1h-5z M8,65h9v1h-9z M20,65h3v1h-3z M44,65h12v1h-12z M59,64h3v2h-3z M65,65h8v1h-8z M100,65h4v1h-4z M119,65h4v1h-4z M130,65h11v1h-11z M147,65h10v1h-10z M165,65h6v1h-6z M175,65h3v1h-3z M182,65h5v1h-5z M188,65h1v1h-1z M191,65h28v1h-28z M220,65h8v1h-8z M235,65h8v1h-8z M251,65h7v1h-7z M7,66h11v1h-11z M26,65h10v2h-10z M45,66h11v1h-11z M64,66h9v1h-9z M106,65h11v2h-11z M119,66h5v1h-5z M130,66h5v1h-5z M137,66h7v1h-7z M147,66h4v1h-4z M154,66h3v1h-3z M159,66h4v1h-4z M166,66h7v1h-7z M175,66h5v1h-5z M183,66h33v1h-33z M218,66h10v1h-10z M234,66h10v1h-10z M250,66h9v1h-9z M7,67h5v1h-5z M27,67h8v1h-8z M46,67h5v1h-5z M52,67h5v1h-5z M64,67h10v1h-10z M79,67h2v1h-2z M92,65h4v3h-4z M101,66h3v2h-3z M106,67h6v1h-6z M114,67h3v1h-3z M120,67h7v1h-7z M130,67h4v1h-4z M146,67h4v1h-4z M168,67h5v1h-5z M175,67h6v1h-6z M184,67h13v1h-13z M199,67h12v1h-12z M212,67h5v1h-5z M218,67h4v1h-4z M225,67h20v1h-20z M247,67h14v1h-14z M262,65h4v3h-4z M6,68h5v1h-5z M15,67h3v2h-3z M28,68h6v1h-6z M54,68h3v1h-3z M63,68h5v1h-5z M69,68h6v1h-6z M92,68h5v1h-5z M100,68h4v1h-4z M107,68h5v1h-5z M114,68h4v1h-4z M120,68h8v1h-8z M130,68h5v1h-5z M138,67h7v2h-7z M146,68h5v1h-5z M156,68h1v1h-1z M159,67h7v2h-7z M169,68h4v1h-4z M174,68h8v1h-8z M184,68h12v1h-12z M199,68h11v1h-11z M212,68h10v1h-10z M226,68h13v1h-13z M240,68h5v1h-5z M246,68h7v1h-7z M255,68h11v1h-11z M6,69h6v1h-6z M14,69h4v1h-4z M31,69h2v1h-2z M54,69h4v1h-4z M78,68h3v2h-3z M84,69h4v1h-4z M93,69h11v1h-11z M108,69h9v1h-9z M143,69h2v1h-2z M147,69h4v1h-4z M154,69h3v1h-3z M161,69h5v1h-5z M170,69h11v1h-11z M184,69h5v1h-5z M257,69h9v1h-9z M26,70h1v1h-1z M39,68h3v3h-3z M47,68h4v3h-4z M53,70h4v1h-4z M63,69h11v2h-11z M79,70h1v1h-1z M83,70h6v1h-6z M94,70h9v1h-9z M130,69h11v2h-11z M146,70h6v1h-6z M153,70h4v1h-4z M162,70h26v1h-26z M192,69h30v2h-30z M226,69h12v2h-12z M241,69h12v2h-12z M256,70h10v1h-10z M7,70h11v2h-11z M23,71h7v1h-7z M39,71h2v1h-2z M46,71h11v1h-11z M64,71h9v1h-9z M82,71h8v1h-8z M94,71h8v1h-8z M110,70h7v2h-7z M121,69h8v3h-8z M146,71h11v1h-11z M162,71h10v1h-10z M173,71h15v1h-15z M190,71h1v1h-1z M193,71h8v1h-8z M203,71h13v1h-13z M218,71h5v1h-5z M225,71h7v1h-7z M234,71h5v1h-5z M240,71h26v1h-26z M8,72h9v1h-9z M22,72h8v1h-8z M65,72h7v1h-7z M93,72h6v1h-6z M103,72h1v1h-1z M115,72h1v1h-1z M120,72h8v1h-8z M130,71h13v2h-13z M159,72h1v1h-1z M161,72h11v1h-11z M174,72h13v1h-13z M204,72h12v1h-12z M219,72h14v1h-14z M234,72h32v1h-32z M9,73h5v1h-5z M17,73h3v1h-3z M21,73h10v1h-10z M34,73h1v1h-1z M44,72h12v2h-12z M75,73h1v1h-1z M82,72h9v2h-9z M93,73h3v1h-3z M103,73h2v1h-2z M117,73h3v1h-3z M122,73h6v1h-6z M129,73h9v1h-9z M140,73h4v1h-4z M145,72h11v2h-11z M158,73h9v1h-9z M168,73h4v1h-4z M177,73h8v1h-8z M189,72h4v2h-4z M194,72h6v2h-6z M210,73h5v1h-5z M217,73h18v1h-18z M236,73h23v1h-23z M261,73h5v1h-5z M1,62h4v13h-4z M11,74h2v1h-2z M34,74h2v1h-2z M92,74h4v1h-4z M103,74h3v1h-3z M116,74h3v1h-3z M123,74h14v1h-14z M140,74h3v1h-3z M152,74h4v1h-4z M157,74h9v1h-9z M169,74h3v1h-3z M188,74h5v1h-5z M194,74h5v1h-5z M204,73h4v2h-4z M209,74h18v1h-18z M230,74h5v1h-5z M238,74h19v1h-19z M260,74h6v1h-6z M1,75h6v1h-6z M16,74h9v2h-9z M27,74h4v2h-4z M44,74h4v2h-4z M58,74h3v2h-3z M75,74h2v2h-2z M83,74h7v2h-7z M93,75h2v1h-2z M103,75h5v1h-5z M128,75h11v1h-11z M152,75h9v1h-9z M162,75h4v1h-4z M176,74h4v2h-4z M189,75h3v1h-3z M195,75h4v1h-4z M200,75h3v1h-3z M205,75h15v1h-15z M230,75h4v1h-4z M237,75h19v1h-19z M258,75h8v1h-8z M1,76h8v1h-8z M17,76h15v1h-15z M34,75h3v2h-3z M43,76h4v1h-4z M84,76h5v1h-5z M103,76h7v1h-7z M128,76h12v1h-12z M158,76h10v1h-10z M177,76h5v1h-5z M196,76h2v1h-2z M217,76h2v1h-2z M222,75h5v2h-5z M231,76h2v1h-2z M244,76h12v1h-12z M258,76h9v1h-9z M22,77h9v1h-9z M68,77h5v1h-5z M97,77h1v1h-1z M103,77h8v1h-8z M124,77h2v1h-2z M129,77h12v1h-12z M152,76h4v2h-4z M177,77h6v1h-6z M200,76h4v2h-4z M207,76h9v2h-9z M223,77h5v1h-5z M229,77h1v1h-1z M252,77h4v1h-4z M258,77h3v1h-3z M23,78h7v1h-7z M40,77h7v2h-7z M52,78h1v1h-1z M61,78h1v1h-1z M67,78h7v1h-7z M82,78h2v1h-2z M121,78h6v1h-6z M129,78h13v1h-13z M145,74h4v5h-4z M154,78h1v1h-1z M159,77h10v2h-10z M200,78h3v1h-3z M223,78h3v1h-3z M228,78h4v1h-4z M237,76h4v3h-4z M244,77h4v2h-4z M253,78h2v1h-2z M262,77h5v2h-5z M1,77h9v3h-9z M24,79h5v1h-5z M39,79h9v1h-9z M51,79h3v1h-3z M81,79h3v1h-3z M103,78h9v2h-9z M114,79h2v1h-2z M137,79h5v1h-5z M166,79h3v1h-3z M177,78h8v2h-8z M207,78h3v2h-3z M212,78h4v2h-4z M220,79h1v1h-1z M228,79h5v1h-5z M21,80h2v1h-2z M25,80h2v1h-2z M39,80h4v1h-4z M44,80h5v1h-5z M51,80h4v1h-4z M67,79h8v2h-8z M80,80h4v1h-4z M89,80h1v1h-1z M96,78h3v3h-3z M103,80h4v1h-4z M108,80h4v1h-4z M114,80h4v1h-4z M120,79h8v2h-8z M130,79h6v2h-6z M139,80h3v1h-3z M160,79h4v2h-4z M165,80h4v1h-4z M177,80h9v1h-9z M189,80h1v1h-1z M196,80h3v1h-3z M206,80h10v1h-10z M219,80h3v1h-3z M229,80h3v1h-3z M238,79h9v2h-9z M262,79h4v2h-4z M1,80h4v2h-4z M6,80h4v2h-4z M20,81h3v1h-3z M36,81h7v1h-7z M44,81h4v1h-4z M51,81h3v1h-3z M60,79h3v3h-3z M66,81h9v1h-9z M81,81h2v1h-2z M87,81h6v1h-6z M103,81h8v1h-8z M114,81h3v1h-3z M130,81h7v1h-7z M138,81h5v1h-5z M160,81h9v1h-9z M177,81h3v1h-3z M182,81h4v1h-4z M195,81h6v1h-6z M207,81h9v1h-9z M239,81h7v1h-7z M258,81h8v1h-8z M11,81h4v2h-4z M35,82h13v1h-13z M52,82h2v1h-2z M60,82h2v1h-2z M67,82h9v1h-9z M87,82h7v1h-7z M104,82h7v1h-7z M119,81h4v2h-4z M125,81h3v2h-3z M155,82h2v1h-2z M160,82h8v1h-8z M188,81h2v2h-2z M193,82h8v1h-8z M208,82h7v1h-7z M218,81h5v2h-5z M240,82h5v1h-5z M250,82h2v1h-2z M258,82h3v1h-3z M1,82h8v2h-8z M11,83h3v1h-3z M19,82h4v2h-4z M35,83h12v1h-12z M68,83h7v1h-7z M104,83h6v1h-6z M130,82h12v2h-12z M147,83h2v1h-2z M154,83h4v1h-4z M162,83h6v1h-6z M177,82h8v2h-8z M193,83h9v1h-9z M209,83h4v1h-4z M219,83h3v1h-3z M226,83h2v1h-2z M236,83h2v1h-2z M249,83h4v1h-4z M259,83h1v1h-1z M263,82h3v2h-3z M1,84h7v1h-7z M20,84h4v1h-4z M30,84h2v1h-2z M36,84h2v1h-2z M40,84h7v1h-7z M56,84h2v1h-2z M69,84h4v1h-4z M107,84h1v1h-1z M119,83h9v2h-9z M130,84h11v1h-11z M144,84h6v1h-6z M155,84h2v1h-2z M163,84h3v1h-3z M172,83h4v2h-4z M177,84h7v1h-7z M224,84h6v1h-6z M234,84h4v1h-4z M243,84h2v1h-2z M250,84h2v1h-2z M1,85h6v1h-6z M20,85h7v1h-7z M29,85h3v1h-3z M41,85h5v1h-5z M100,85h2v1h-2z M120,85h7v1h-7z M136,85h3v1h-3z M172,85h3v1h-3z M179,85h3v1h-3z M193,84h4v2h-4z M199,84h3v2h-3z M235,85h3v1h-3z M243,85h3v1h-3z M262,84h4v2h-4z M1,86h5v1h-5z M30,86h1v1h-1z M47,86h2v1h-2z M55,85h4v2h-4z M78,84h3v3h-3z M86,83h9v4h-9z M100,86h3v1h-3z M121,86h5v1h-5z M143,85h8v2h-8z M165,85h1v2h-1z M173,86h2v1h-2z M207,86h2v1h-2z M236,86h1v1h-1z M243,86h2v1h-2z M261,86h5v1h-5z M19,86h9v2h-9z M55,87h3v1h-3z M62,87h3v1h-3z M78,87h2v1h-2z M87,87h7v1h-7z M100,87h2v1h-2z M138,87h3v1h-3z M142,87h9v1h-9z M164,87h3v1h-3z M193,86h9v2h-9z M206,87h3v1h-3z M223,85h8v3h-8z M15,88h1v1h-1z M37,88h2v1h-2z M60,88h7v1h-7z M88,88h5v1h-5z M108,86h3v3h-3z M122,87h3v2h-3z M137,88h14v1h-14z M194,88h7v1h-7z M222,88h9v1h-9z M251,88h2v1h-2z M7,89h2v1h-2z M19,88h10v2h-10z M36,89h4v1h-4z M46,87h4v3h-4z M72,89h2v1h-2z M121,89h4v1h-4z M138,89h4v1h-4z M143,89h8v1h-8z M164,88h4v2h-4z M180,88h3v2h-3z M195,89h4v1h-4z M206,88h4v2h-4z M219,89h3v1h-3z M223,89h7v1h-7z M248,89h7v1h-7z M6,90h4v1h-4z M19,90h9v1h-9z M37,90h3v1h-3z M48,90h1v1h-1z M59,89h9v2h-9z M71,90h4v1h-4z M115,90h2v1h-2z M122,90h3v1h-3z M138,90h3v1h-3z M144,90h6v1h-6z M157,88h3v3h-3z M165,90h1v1h-1z M179,90h5v1h-5z M207,90h2v1h-2z M217,90h4v1h-4z M224,90h5v1h-5z M238,89h4v2h-4z M248,90h8v1h-8z M260,87h6v4h-6z M7,91h1v1h-1z M14,89h3v3h-3z M20,91h8v1h-8z M58,91h5v1h-5z M64,91h5v1h-5z M71,91h3v1h-3z M89,91h1v1h-1z M115,91h3v1h-3z M130,85h4v7h-4z M147,91h1v1h-1z M158,91h1v1h-1z M189,89h3v3h-3z M211,91h10v1h-10z M227,91h1v1h-1z M237,91h5v1h-5z M247,91h9v1h-9z M261,91h5v1h-5z M21,92h6v1h-6z M54,92h3v1h-3z M58,92h4v1h-4z M65,92h4v1h-4z M72,92h1v1h-1z M96,91h2v2h-2z M104,92h2v1h-2z M115,92h2v1h-2z M129,92h9v1h-9z M179,91h6v2h-6z M190,92h2v1h-2z M210,92h7v1h-7z M218,92h2v1h-2z M238,92h3v1h-3z M53,93h9v1h-9z M80,91h3v3h-3z M88,92h3v2h-3z M103,93h4v1h-4z M110,93h2v1h-2z M127,93h12v1h-12z M156,93h1v1h-1z M161,93h3v1h-3z M197,93h1v1h-1z M203,93h1v1h-1z M215,93h3v1h-3z M247,92h3v2h-3z M252,92h4v2h-4z M54,94h3v1h-3z M58,94h4v1h-4z M65,93h3v2h-3z M104,94h10v1h-10z M127,94h11v1h-11z M145,94h2v1h-2z M155,94h4v1h-4z M160,94h4v1h-4z M165,93h4v2h-4z M178,93h8v2h-8z M190,94h1v1h-1z M203,94h2v1h-2z M209,93h5v2h-5z M216,94h2v1h-2z M227,94h2v1h-2z M238,94h1v1h-1z M11,95h5v1h-5z M31,93h2v3h-2z M44,94h3v2h-3z M58,95h10v1h-10z M90,95h2v1h-2z M105,95h10v1h-10z M120,95h1v1h-1z M127,95h7v1h-7z M136,95h1v1h-1z M144,95h4v1h-4z M154,95h5v1h-5z M160,95h8v1h-8z M170,95h2v1h-2z M177,95h9v1h-9z M189,95h3v1h-3z M195,94h4v2h-4z M209,95h4v1h-4z M216,95h1v1h-1z M222,95h2v1h-2z M237,95h3v1h-3z M247,94h9v2h-9z M10,96h7v1h-7z M23,96h2v1h-2z M31,96h1v1h-1z M44,96h2v1h-2z M59,96h8v1h-8z M89,96h7v1h-7z M106,96h9v1h-9z M129,96h5v1h-5z M140,96h1v1h-1z M144,96h5v1h-5z M153,96h6v1h-6z M162,96h1v1h-1z M164,96h2v1h-2z M170,96h3v1h-3z M176,96h10v1h-10z M189,96h4v1h-4z M196,96h2v1h-2z M209,96h8v1h-8z M222,96h3v1h-3z M226,95h4v2h-4z M233,96h1v1h-1z M236,96h4v1h-4z M248,96h7v1h-7z M262,92h4v5h-4z M37,97h3v1h-3z M60,97h8v1h-8z M88,97h8v1h-8z M105,97h5v1h-5z M111,97h4v1h-4z M139,97h3v1h-3z M145,97h3v1h-3z M151,97h6v1h-6z M164,97h3v1h-3z M169,97h3v1h-3z M175,97h11v1h-11z M188,97h5v1h-5z M202,95h4v3h-4z M217,97h3v1h-3z M222,97h4v1h-4z M227,97h3v1h-3z M232,97h8v1h-8z M243,97h2v1h-2z M250,97h6v1h-6z M258,97h8v1h-8z M22,97h3v2h-3z M36,98h4v1h-4z M60,98h4v1h-4z M68,98h2v1h-2z M87,98h10v1h-10z M105,98h4v1h-4z M119,96h3v3h-3z M124,98h5v1h-5z M130,97h4v2h-4z M139,98h4v1h-4z M145,98h4v1h-4z M151,98h7v1h-7z M164,98h4v1h-4z M169,98h4v1h-4z M174,98h21v1h-21z M202,98h3v1h-3z M210,97h6v2h-6z M222,98h3v1h-3z M250,98h1v1h-1z M252,98h14v1h-14z M9,97h9v3h-9z M22,99h2v1h-2z M37,99h4v1h-4z M50,99h1v1h-1z M60,99h3v1h-3z M68,99h3v1h-3z M75,97h2v3h-2z M92,99h5v1h-5z M105,99h5v1h-5z M112,98h3v2h-3z M122,99h15v1h-15z M139,99h10v1h-10z M151,99h10v1h-10z M171,99h8v1h-8z M184,99h13v1h-13z M202,99h2v1h-2z M208,99h7v1h-7z M229,98h7v2h-7z M237,98h2v2h-2z M243,98h3v2h-3z M249,99h8v1h-8z M258,99h8v1h-8z M1,87h4v14h-4z M37,100h5v1h-5z M68,100h4v1h-4z M82,100h3v1h-3z M87,99h4v2h-4z M93,100h4v1h-4z M100,100h2v1h-2z M106,100h10v1h-10z M122,100h27v1h-27z M151,100h11v1h-11z M164,99h3v2h-3z M170,100h9v1h-9z M184,100h14v1h-14z M207,100h8v1h-8z M217,98h4v3h-4z M228,100h11v1h-11z M243,100h12v1h-12z M259,100h7v1h-7z M1,101h6v1h-6z M10,100h8v2h-8z M29,101h3v1h-3z M38,101h6v1h-6z M59,100h4v2h-4z M70,101h5v1h-5z M82,101h4v1h-4z M100,101h3v1h-3z M106,101h9v1h-9z M122,101h41v1h-41z M165,101h15v1h-15z M182,101h17v1h-17z M206,101h10v1h-10z M218,101h3v1h-3z M227,101h14v1h-14z M10,102h6v1h-6z M29,102h4v1h-4z M38,102h8v1h-8z M49,100h3v3h-3z M61,102h1v1h-1z M82,102h3v1h-3z M87,101h10v2h-10z M100,102h2v1h-2z M107,102h7v1h-7z M127,102h10v1h-10z M138,102h19v1h-19z M165,102h9v1h-9z M176,102h15v1h-15z M194,102h8v1h-8z M205,102h5v1h-5z M226,102h16v1h-16z M245,101h10v2h-10z M1,102h7v2h-7z M12,103h3v1h-3z M25,103h7v1h-7z M38,103h9v1h-9z M69,102h8v2h-8z M88,103h8v1h-8z M109,103h3v1h-3z M116,103h1v1h-1z M122,102h3v2h-3z M127,103h8v1h-8z M145,103h11v1h-11z M159,102h4v2h-4z M164,103h9v1h-9z M177,103h9v1h-9z M195,103h8v1h-8z M212,102h4v2h-4z M219,102h4v2h-4z M226,103h4v1h-4z M245,103h4v1h-4z M252,103h4v1h-4z M1,104h6v1h-6z M17,104h1v1h-1z M37,104h10v1h-10z M68,104h10v1h-10z M88,104h7v1h-7z M115,104h2v1h-2z M138,103h4v2h-4z M145,104h5v1h-5z M151,104h6v1h-6z M159,104h14v1h-14z M182,104h4v1h-4z M187,103h4v2h-4z M194,104h9v1h-9z M205,103h4v2h-4z M213,104h4v1h-4z M219,104h3v1h-3z M225,104h4v1h-4z M233,103h4v2h-4z M238,103h4v2h-4z M244,104h5v1h-5z M251,104h5v1h-5z M16,105h4v1h-4z M57,105h1v1h-1z M68,105h4v1h-4z M81,105h1v1h-1z M137,105h5v1h-5z M145,105h4v1h-4z M153,105h14v1h-14z M170,105h5v1h-5z M177,104h4v2h-4z M188,105h15v1h-15z M206,105h16v1h-16z M225,105h5v1h-5z M233,105h8v1h-8z M1,105h4v2h-4z M17,106h3v1h-3z M37,105h5v2h-5z M44,105h4v2h-4z M87,105h4v2h-4z M98,106h1v1h-1z M122,104h12v3h-12z M136,106h13v1h-13z M154,106h13v1h-13z M171,106h11v1h-11z M187,106h12v1h-12z M200,106h3v1h-3z M206,106h17v1h-17z M225,106h16v1h-16z M244,105h11v2h-11z M259,105h1v2h-1z M262,101h4v6h-4z M0,107h5v1h-5z M17,107h2v1h-2z M24,104h6v4h-6z M34,107h2v1h-2z M38,107h10v1h-10z M57,106h2v2h-2z M68,106h3v2h-3z M74,105h4v3h-4z M80,106h3v2h-3z M87,107h3v1h-3z M105,106h3v2h-3z M120,107h15v1h-15z M150,107h3v1h-3z M155,107h7v1h-7z M163,107h4v1h-4z M170,107h13v1h-13z M186,107h13v1h-13z M207,107h17v1h-17z M226,107h15v1h-15z M242,107h13v1h-13z M260,107h6v1h-6z M24,108h5v1h-5z M33,108h4v1h-4z M39,108h8v1h-8z M68,108h9v1h-9z M80,108h2v1h-2z M88,108h2v1h-2z M96,107h3v2h-3z M106,108h2v1h-2z M119,108h4v1h-4z M136,107h12v2h-12z M149,108h4v1h-4z M157,108h4v1h-4z M164,108h12v1h-12z M179,108h4v1h-4z M186,108h4v1h-4z M191,108h8v1h-8z M203,108h2v1h-2z M208,108h4v1h-4z M213,108h11v1h-11z M227,108h29v1h-29z M1,108h4v2h-4z M26,109h2v1h-2z M33,109h3v1h-3z M39,109h7v1h-7z M64,109h2v1h-2z M69,109h8v1h-8z M81,109h1v1h-1z M89,109h2v1h-2z M96,109h4v1h-4z M112,109h1v1h-1z M137,109h4v1h-4z M142,109h6v1h-6z M150,109h3v1h-3z M158,109h3v1h-3z M167,109h6v1h-6z M175,109h1v1h-1z M180,109h4v1h-4z M186,109h3v1h-3z M192,109h6v1h-6z M202,109h3v1h-3z M208,109h2v1h-2z M213,109h4v1h-4z M221,109h4v1h-4z M228,109h5v1h-5z M237,109h10v1h-10z M251,109h6v1h-6z M1,110h5v1h-5z M9,109h3v2h-3z M20,109h3v2h-3z M40,110h6v1h-6z M63,110h3v1h-3z M70,110h5v1h-5z M88,110h10v1h-10z M111,110h2v1h-2z M120,109h3v2h-3z M130,108h4v3h-4z M137,110h3v1h-3z M143,110h5v1h-5z M159,110h1v1h-1z M163,110h2v1h-2z M168,110h4v1h-4z M175,110h2v1h-2z M192,110h3v1h-3z M199,110h5v1h-5z M208,110h1v1h-1z M214,110h3v1h-3z M220,110h12v1h-12z M243,110h5v1h-5z M252,110h5v1h-5z M258,108h8v3h-8z M1,111h10v1h-10z M20,111h4v1h-4z M28,111h2v1h-2z M57,111h2v1h-2z M87,111h10v1h-10z M103,111h2v1h-2z M118,111h5v1h-5z M127,111h7v1h-7z M137,111h4v1h-4z M145,111h2v1h-2z M162,111h4v1h-4z M170,111h1v1h-1z M175,111h3v1h-3z M187,110h1v2h-1z M192,111h2v1h-2z M197,111h7v1h-7z M220,111h11v1h-11z M253,111h3v1h-3z M22,112h1v1h-1z M55,112h6v1h-6z M86,112h11v1h-11z M126,112h8v1h-8z M137,112h3v1h-3z M152,112h4v1h-4z M162,112h3v1h-3z M174,112h4v1h-4z M196,112h8v1h-8z M219,112h16v1h-16z M239,110h1v3h-1z M244,111h4v2h-4z M262,111h4v2h-4z M27,112h4v2h-4z M44,111h3v3h-3z M54,113h8v1h-8z M78,113h2v1h-2z M116,112h8v2h-8z M126,113h12v1h-12z M151,113h7v1h-7z M163,113h2v1h-2z M186,112h8v2h-8z M195,113h10v1h-10z M219,113h11v1h-11z M245,113h3v1h-3z M263,113h3v1h-3z M27,114h2v1h-2z M37,114h1v1h-1z M45,114h1v1h-1z M54,114h9v1h-9z M70,114h2v1h-2z M93,113h4v2h-4z M103,112h3v3h-3z M120,114h5v1h-5z M127,114h12v1h-12z M187,114h2v1h-2z M191,114h14v1h-14z M220,114h10v1h-10z M232,113h4v2h-4z M262,114h4v1h-4z M1,112h9v4h-9z M13,115h2v1h-2z M20,115h2v1h-2z M53,115h10v1h-10z M70,115h3v1h-3z M77,114h3v2h-3z M86,113h4v3h-4z M94,115h3v1h-3z M150,114h9v2h-9z M192,115h7v1h-7z M202,115h4v1h-4z M220,115h9v1h-9z M233,115h1v1h-1z M12,116h3v1h-3z M17,116h5v1h-5z M36,115h3v2h-3z M53,116h4v1h-4z M59,116h4v1h-4z M70,116h2v1h-2z M78,116h2v1h-2z M86,116h5v1h-5z M93,116h4v1h-4z M115,114h4v3h-4z M121,115h4v2h-4z M150,116h4v1h-4z M155,116h4v1h-4z M168,116h1v1h-1z M183,116h1v1h-1z M195,116h4v1h-4z M202,116h3v1h-3z M221,116h6v1h-6z M258,116h3v1h-3z M262,115h5v2h-5z M1,116h8v2h-8z M12,117h11v1h-11z M53,117h9v1h-9z M109,115h2v3h-2z M167,117h3v1h-3z M182,117h3v1h-3z M195,117h10v1h-10z M221,117h5v1h-5z M239,117h4v1h-4z M1,118h7v1h-7z M13,118h11v1h-11z M50,117h2v2h-2z M54,118h8v1h-8z M87,117h9v2h-9z M102,118h1v1h-1z M115,117h9v2h-9z M130,115h10v4h-10z M145,118h1v1h-1z M150,117h9v2h-9z M166,118h4v1h-4z M183,118h1v1h-1z M195,118h9v1h-9z M237,118h8v1h-8z M258,117h8v2h-8z M28,118h3v2h-3z M55,119h7v1h-7z M78,119h1v1h-1z M86,119h10v1h-10z M101,119h3v1h-3z M116,119h7v1h-7z M130,119h9v1h-9z M151,119h7v1h-7z M167,119h3v1h-3z M196,119h7v1h-7z M258,119h3v1h-3z M1,119h4v2h-4z M7,120h2v1h-2z M28,120h4v1h-4z M56,120h4v1h-4z M78,120h2v1h-2z M85,120h3v1h-3z M90,120h6v1h-6z M119,120h1v1h-1z M130,120h4v1h-4z M144,119h4v2h-4z M153,120h2v1h-2z M189,120h3v1h-3z M200,120h2v1h-2z M236,119h10v2h-10z M251,120h1v1h-1z M29,121h2v1h-2z M41,120h3v2h-3z M71,121h4v1h-4z M77,121h3v1h-3z M85,121h2v1h-2z M93,121h3v1h-3z M101,120h4v2h-4z M115,121h1v1h-1z M130,121h5v1h-5z M145,121h3v1h-3z M188,121h4v1h-4z M229,121h2v1h-2z M242,121h4v1h-4z M249,121h4v1h-4z M262,119h5v3h-5z M1,121h8v2h-8z M42,122h2v1h-2z M64,120h3v3h-3z M69,122h11v1h-11z M113,122h3v1h-3z M123,122h2v1h-2z M178,122h2v1h-2z M189,122h3v1h-3z M200,122h1v1h-1z M235,121h4v2h-4z M243,122h3v1h-3z M7,123h1v1h-1z M15,119h9v5h-9z M34,123h5v1h-5z M107,123h1v1h-1z M112,123h5v1h-5z M166,123h5v1h-5z M178,123h3v1h-3z M200,123h2v1h-2z M228,122h4v2h-4z M236,123h4v1h-4z M242,123h4v1h-4z M248,122h5v2h-5z M16,124h7v1h-7z M33,124h8v1h-8z M49,123h2v2h-2z M59,123h2v2h-2z M83,124h2v1h-2z M92,122h4v3h-4z M106,124h2v1h-2z M111,124h6v1h-6z M123,123h3v2h-3z M140,124h5v1h-5z M159,121h3v4h-3z M165,124h7v1h-7z M177,124h4v1h-4z M201,124h1v1h-1z M208,122h3v3h-3z M213,124h7v1h-7z M229,124h2v1h-2z M236,124h10v1h-10z M250,124h2v1h-2z M262,122h4v3h-4z M13,125h2v1h-2z M20,125h2v1h-2z M25,125h1v1h-1z M32,125h9v1h-9z M48,125h3v1h-3z M83,125h3v1h-3z M90,125h6v1h-6z M110,125h8v1h-8z M130,122h4v4h-4z M139,125h7v1h-7z M178,125h2v1h-2z M190,125h3v1h-3z M209,125h2v1h-2z M212,125h9v1h-9z M237,125h8v1h-8z M256,125h10v1h-10z M49,126h2v1h-2z M68,123h9v4h-9z M82,126h4v1h-4z M130,126h5v1h-5z M138,126h9v1h-9z M164,125h9v2h-9z M179,126h1v1h-1z M189,126h6v1h-6z M211,126h10v1h-10z M238,126h6v1h-6z M255,126h11v1h-11z M12,126h3v2h-3z M23,126h4v2h-4z M69,127h8v1h-8z M84,127h1v1h-1z M89,126h7v2h-7z M109,126h10v2h-10z M130,127h6v1h-6z M137,127h11v1h-11z M150,125h4v3h-4z M164,127h4v1h-4z M170,127h3v1h-3z M211,127h4v1h-4z M13,128h2v1h-2z M24,128h3v1h-3z M46,128h2v1h-2z M69,128h7v1h-7z M88,128h9v1h-9z M109,128h4v1h-4z M115,128h4v1h-4z M130,128h11v1h-11z M151,128h1v1h-1z M163,128h5v1h-5z M169,128h4v1h-4z M212,128h3v1h-3z M217,127h4v2h-4z M254,127h12v2h-12z M19,129h1v1h-1z M32,126h10v4h-10z M71,129h3v1h-3z M164,129h9v1h-9z M253,129h13v1h-13z M7,129h3v2h-3z M18,130h3v1h-3z M29,130h3v1h-3z M34,130h7v1h-7z M45,129h3v2h-3z M78,130h3v1h-3z M99,128h3v3h-3z M107,130h1v1h-1z M109,129h10v2h-10z M123,130h3v1h-3z M130,129h5v2h-5z M136,129h5v2h-5z M144,128h4v3h-4z M164,130h8v1h-8z M182,130h1v1h-1z M188,127h8v4h-8z M212,129h9v2h-9z M225,130h2v1h-2z M254,130h12v1h-12z M1,123h4v9h-4z M6,131h5v1h-5z M17,131h4v1h-4z M28,131h4v1h-4z M35,131h6v1h-6z M46,131h2v1h-2z M55,131h1v1h-1z M63,130h3v2h-3z M77,131h4v1h-4z M100,131h1v1h-1z M105,131h13v1h-13z M130,131h4v1h-4z M137,131h10v1h-10z M159,130h3v2h-3z M166,131h5v1h-5z M180,131h3v1h-3z M189,131h6v1h-6z M213,131h7v1h-7z M224,131h3v1h-3z M240,131h2v1h-2z M251,131h2v1h-2z M255,131h5v1h-5z M262,131h4v1h-4z M1,132h11v1h-11z M17,132h5v1h-5z M28,132h6v1h-6z M35,132h5v1h-5z M45,132h3v1h-3z M53,132h5v1h-5z M62,132h6v1h-6z M76,132h6v1h-6z M88,129h8v4h-8z M104,132h5v1h-5z M111,132h6v1h-6z M122,131h5v2h-5z M130,132h5v1h-5z M138,132h9v1h-9z M149,132h5v1h-5z M158,132h5v1h-5z M180,132h4v1h-4z M190,132h2v1h-2z M199,129h4v4h-4z M214,132h4v1h-4z M251,132h3v1h-3z M256,132h3v1h-3z M1,133h154v1h-154z M157,133h6v1h-6z M166,133h1v1h-1z M169,133h2v1h-2z M179,133h5v1h-5z M190,133h1v1h-1z M200,133h2v1h-2z M224,132h4v2h-4z M239,132h4v2h-4z M250,133h5v1h-5z M262,132h5v2h-5z M1,134h265v3h-265z M3,137h1v1h-1z M13,137h2v1h-2z M27,137h1v1h-1z M44,137h2v1h-2z M51,137h1v1h-1z M68,137h1v1h-1z M70,137h4v1h-4z M98,137h2v1h-2z M103,137h1v1h-1z M105,137h1v1h-1z M108,137h1v1h-1z M111,137h5v1h-5z M117,137h2v1h-2z M121,137h2v1h-2z M124,137h15v1h-15z M140,137h12v1h-12z M155,137h111v1h-111z M132,138h1v1h-1z M215,138h4v1h-4z M226,138h4v1h-4z M232,138h3v1h-3z M239,138h1v1h-1z M244,138h8v1h-8z M253,138h11v1h-11z
  "/>
</svg>