<?xml version="1.0" encoding="UTF-8"?>
<svg xmlns="http://www.w3.org/2000/svg" viewBox="0 0 267 139" width="267" height="139">
  <title>65 Massive igneous rock 65</title>
  <path fill="#111111" fill-rule="nonzero" d="
    M118,0h2v1h-2z M3,1h3v1h-3z M7,1h15v1h-15z M24,1h5v1h-5z M35,1h1v1h-1z M42,1h5v1h-5z M116,1h6v1h-6z M132,1h2v1h-2z M1,2h202v1h-202z M205,2h5v1h-5z M240,2h1v1h-1z M262,2h2v1h-2z M1,3h264v1h-264z M1,4h265v1h-265z M1,5h5v1h-5z M10,5h2v1h-2z M17,5h3v1h-3z M27,5h41v1h-41z M70,5h7v1h-7z M82,5h184v1h-184z M89,6h8v1h-8z M119,6h5v1h-5z M142,6h7v1h-7z M207,6h1v1h-1z M225,6h1v1h-1z M247,6h19v1h-19z M91,7h5v1h-5z M110,7h2v1h-2z M117,7h6v1h-6z M143,7h5v1h-5z M109,8h3v1h-3z M116,8h7v1h-7z M142,8h5v1h-5z M206,8h2v1h-2z M109,9h14v1h-14z M142,9h4v1h-4z M173,9h3v1h-3z M248,9h3v1h-3z M79,10h2v1h-2z M109,10h12v1h-12z M140,10h5v1h-5z M173,10h4v1h-4z M205,9h4v2h-4z M247,10h5v1h-5z M50,11h2v1h-2z M109,11h9v1h-9z M136,11h8v1h-8z M173,11h5v1h-5z M240,11h2v1h-2z M246,11h6v1h-6z M50,12h3v1h-3z M108,12h9v1h-9z M135,12h8v1h-8z M174,12h5v1h-5z M204,11h4v2h-4z M239,12h12v1h-12z M11,13h3v1h-3z M40,13h5v1h-5z M47,13h7v1h-7z M107,13h9v1h-9z M174,13h6v1h-6z M183,13h1v1h-1z M200,13h7v1h-7z M239,13h11v1h-11z M11,14h4v1h-4z M40,14h22v1h-22z M106,14h10v1h-10z M175,14h11v1h-11z M199,14h8v1h-8z M239,14h8v1h-8z M11,15h5v1h-5z M40,15h23v1h-23z M79,11h3v5h-3z M104,15h7v1h-7z M114,15h1v1h-1z M135,13h7v3h-7z M176,15h10v1h-10z M199,15h9v1h-9z M239,15h7v1h-7z M12,16h5v1h-5z M41,16h22v1h-22z M77,16h6v1h-6z M104,16h5v1h-5z M134,16h8v1h-8z M176,16h9v1h-9z M200,16h9v1h-9z M236,16h10v1h-10z M13,17h10v1h-10z M44,17h1v1h-1z M48,17h6v1h-6z M56,17h6v1h-6z M76,17h10v1h-10z M104,17h3v1h-3z M133,17h9v1h-9z M235,17h11v1h-11z M14,18h9v1h-9z M75,18h12v1h-12z M132,18h5v1h-5z M140,18h1v1h-1z M201,17h9v2h-9z M233,18h8v1h-8z M242,18h4v1h-4z M50,18h3v2h-3z M76,19h11v1h-11z M132,19h4v1h-4z M160,16h3v4h-3z M176,17h8v3h-8z M200,19h5v1h-5z M233,19h6v1h-6z M15,19h7v2h-7z M79,20h7v1h-7z M130,20h5v1h-5z M180,20h5v1h-5z M233,20h4v1h-4z M79,21h4v1h-4z M130,21h4v1h-4z M181,21h4v1h-4z M200,20h4v2h-4z M233,21h2v1h-2z M262,7h4v15h-4z M14,21h9v2h-9z M130,22h3v1h-3z M159,20h4v3h-4z M14,23h4v1h-4z M19,23h5v1h-5z M130,23h2v1h-2z M159,23h3v1h-3z M182,22h4v2h-4z M199,22h4v2h-4z M263,22h3v2h-3z M20,24h5v1h-5z M158,24h4v1h-4z M183,24h3v1h-3z M21,25h5v1h-5z M155,25h7v1h-7z M185,25h1v1h-1z M198,24h4v2h-4z M22,26h4v1h-4z M155,26h8v1h-8z M198,26h3v1h-3z M23,27h2v1h-2z M80,22h3v6h-3z M155,27h9v1h-9z M199,27h1v1h-1z M215,27h3v1h-3z M156,28h8v1h-8z M214,28h5v1h-5z M57,29h1v1h-1z M157,29h7v1h-7z M215,29h5v1h-5z M224,29h2v1h-2z M38,30h4v1h-4z M157,30h6v1h-6z M36,31h6v1h-6z M216,30h10v2h-10z M28,32h3v1h-3z M34,32h8v1h-8z M56,30h3v3h-3z M95,32h3v1h-3z M103,32h1v1h-1z M157,31h3v2h-3z M218,32h8v1h-8z M247,29h3v4h-3z M28,33h12v1h-12z M94,33h11v1h-11z M218,33h7v1h-7z M28,34h11v1h-11z M56,33h4v2h-4z M94,34h12v1h-12z M156,33h4v2h-4z M218,34h8v1h-8z M246,33h4v2h-4z M262,24h4v11h-4z M28,35h8v1h-8z M55,35h6v1h-6z M94,35h14v1h-14z M130,35h3v1h-3z M156,35h3v1h-3z M218,35h9v1h-9z M244,35h6v1h-6z M27,36h8v1h-8z M54,36h8v1h-8z M97,36h14v1h-14z M130,36h4v1h-4z M218,36h10v1h-10z M242,36h8v1h-8z M26,37h9v1h-9z M99,37h13v1h-13z M130,37h5v1h-5z M218,37h3v1h-3z M223,37h6v1h-6z M24,38h11v1h-11z M53,37h9v2h-9z M99,38h5v1h-5z M106,38h6v1h-6z M131,38h5v1h-5z M224,38h6v1h-6z M242,37h10v2h-10z M263,35h3v4h-3z M23,39h12v1h-12z M54,39h7v1h-7z M108,39h3v1h-3z M132,39h7v1h-7z M243,39h10v1h-10z M262,39h4v1h-4z M23,40h5v1h-5z M32,40h2v1h-2z M56,40h4v1h-4z M100,39h3v2h-3z M132,40h8v1h-8z M183,40h3v1h-3z M226,39h4v2h-4z M244,40h8v1h-8z M24,41h2v1h-2z M57,41h3v1h-3z M133,41h7v1h-7z M181,41h5v1h-5z M244,41h4v1h-4z M134,42h6v1h-6z M173,42h3v1h-3z M179,42h7v1h-7z M244,42h3v1h-3z M263,40h3v3h-3z M133,43h7v1h-7z M173,43h12v1h-12z M262,43h4v1h-4z M132,44h9v1h-9z M172,44h11v1h-11z M262,44h5v1h-5z M57,42h4v4h-4z M81,45h2v1h-2z M132,45h10v1h-10z M171,45h10v1h-10z M263,45h4v1h-4z M58,46h1v1h-1z M80,46h4v1h-4z M132,46h4v1h-4z M138,46h5v1h-5z M168,46h12v1h-12z M243,43h4v4h-4z M79,47h5v1h-5z M139,47h5v1h-5z M167,47h12v1h-12z M243,47h3v1h-3z M78,48h5v1h-5z M122,48h2v1h-2z M140,48h5v1h-5z M165,48h13v1h-13z M206,48h2v1h-2z M244,48h1v1h-1z M77,49h5v1h-5z M164,49h7v1h-7z M175,49h3v1h-3z M205,49h4v1h-4z M263,46h3v4h-3z M72,50h2v1h-2z M75,50h6v1h-6z M114,50h1v1h-1z M120,49h5v2h-5z M141,49h4v2h-4z M164,50h4v1h-4z M176,50h2v1h-2z M197,50h14v1h-14z M214,50h3v1h-3z M114,51h4v1h-4z M119,51h5v1h-5z M142,51h2v1h-2z M196,51h22v1h-22z M12,52h3v1h-3z M71,51h8v2h-8z M113,52h9v1h-9z M197,52h21v1h-21z M11,53h5v1h-5z M19,53h4v1h-4z M113,53h6v1h-6z M198,53h19v1h-19z M11,54h12v1h-12z M112,54h7v1h-7z M263,50h4v5h-4z M12,55h11v1h-11z M71,53h7v3h-7z M110,55h10v1h-10z M205,54h4v2h-4z M13,56h10v1h-10z M45,56h3v1h-3z M70,56h9v1h-9z M109,56h10v1h-10z M206,56h3v1h-3z M16,57h9v1h-9z M69,57h5v1h-5z M75,57h3v1h-3z M108,57h5v1h-5z M116,57h3v1h-3z M206,57h2v1h-2z M17,58h11v1h-11z M44,57h4v2h-4z M68,58h5v1h-5z M108,58h4v1h-4z M17,59h12v1h-12z M43,59h4v1h-4z M66,59h6v1h-6z M108,59h3v1h-3z M16,60h5v1h-5z M22,60h7v1h-7z M42,60h4v1h-4z M232,60h4v1h-4z M243,60h2v1h-2z M263,55h3v6h-3z M17,61h3v1h-3z M25,61h4v1h-4z M38,61h8v1h-8z M66,60h4v2h-4z M89,61h1v1h-1z M232,61h6v1h-6z M242,61h3v1h-3z M66,62h3v1h-3z M88,62h3v1h-3z M178,62h3v1h-3z M232,62h14v1h-14z M37,62h8v2h-8z M234,63h16v1h-16z M263,61h4v3h-4z M38,64h8v1h-8z M88,63h4v2h-4z M178,63h4v2h-4z M237,64h19v1h-19z M88,65h5v1h-5z M179,65h3v1h-3z M239,65h17v1h-17z M263,64h3v2h-3z M38,65h9v2h-9z M89,66h4v1h-4z M179,66h7v1h-7z M213,66h1v1h-1z M240,66h6v1h-6z M247,66h8v1h-8z M263,66h4v1h-4z M38,67h4v1h-4z M90,67h6v1h-6z M146,67h3v1h-3z M179,67h9v1h-9z M211,67h4v1h-4z M37,68h5v1h-5z M90,68h7v1h-7z M146,68h4v1h-4z M178,68h10v1h-10z M210,68h5v1h-5z M241,67h3v2h-3z M37,69h4v1h-4z M89,69h8v1h-8z M145,69h6v1h-6z M152,69h7v1h-7z M177,69h10v1h-10z M203,69h3v1h-3z M208,69h6v1h-6z M36,70h5v1h-5z M87,70h10v1h-10z M120,70h2v1h-2z M138,70h21v1h-21z M176,70h8v1h-8z M203,70h10v1h-10z M36,71h4v1h-4z M119,71h3v1h-3z M138,71h20v1h-20z M177,71h7v1h-7z M202,71h10v1h-10z M35,72h5v1h-5z M87,71h9v2h-9z M138,72h15v1h-15z M180,72h4v1h-4z M203,72h8v1h-8z M263,67h3v6h-3z M15,73h3v1h-3z M35,73h4v1h-4z M92,73h4v1h-4z M119,72h4v2h-4z M138,73h4v1h-4z M144,73h6v1h-6z M15,74h4v1h-4z M36,74h2v1h-2z M203,73h7v2h-7z M93,74h4v2h-4z M118,74h4v2h-4z M146,74h4v2h-4z M202,75h9v1h-9z M263,73h4v3h-4z M14,75h5v2h-5z M93,76h5v1h-5z M117,76h5v1h-5z M148,76h1v1h-1z M200,76h12v1h-12z M94,77h3v1h-3z M114,77h8v1h-8z M181,73h4v5h-4z M199,77h6v1h-6z M208,77h3v1h-3z M14,77h4v2h-4z M62,77h4v2h-4z M70,78h5v1h-5z M114,78h9v1h-9z M182,78h3v1h-3z M198,78h5v1h-5z M209,78h1v1h-1z M13,79h5v1h-5z M61,79h15v1h-15z M114,79h10v1h-10z M183,79h2v1h-2z M198,79h4v1h-4z M222,79h2v1h-2z M10,80h7v1h-7z M57,80h19v1h-19z M115,80h9v1h-9z M198,80h3v1h-3z M221,80h3v1h-3z M10,81h8v1h-8z M55,81h20v1h-20z M116,81h6v1h-6z M10,82h10v1h-10z M54,82h15v1h-15z M116,82h4v1h-4z M167,82h3v1h-3z M221,81h4v2h-4z M258,81h2v2h-2z M10,83h11v1h-11z M56,83h11v1h-11z M116,83h3v1h-3z M256,83h4v1h-4z M12,84h9v1h-9z M166,83h4v2h-4z M221,83h8v2h-8z M255,84h5v1h-5z M12,85h8v1h-8z M63,84h3v2h-3z M115,84h4v2h-4z M219,85h10v1h-10z M250,85h8v1h-8z M165,85h4v2h-4z M218,86h10v1h-10z M250,86h7v1h-7z M12,86h4v2h-4z M164,87h4v1h-4z M218,87h8v1h-8z M12,88h3v1h-3z M219,88h6v1h-6z M250,87h6v2h-6z M30,89h4v1h-4z M42,89h1v1h-1z M115,86h3v4h-3z M134,88h3v2h-3z M160,88h8v2h-8z M221,89h4v1h-4z M249,89h7v1h-7z M30,90h6v1h-6z M41,90h3v1h-3z M116,90h1v1h-1z M134,90h4v1h-4z M160,90h10v1h-10z M248,90h9v1h-9z M11,89h4v3h-4z M31,91h7v1h-7z M40,91h4v1h-4z M134,91h5v1h-5z M142,91h3v1h-3z M247,91h10v1h-10z M11,92h3v1h-3z M32,92h12v1h-12z M135,92h10v1h-10z M162,91h9v2h-9z M192,92h1v1h-1z M246,92h5v1h-5z M254,92h3v1h-3z M12,93h1v1h-1z M34,93h11v1h-11z M136,93h9v1h-9z M162,93h8v1h-8z M191,93h3v1h-3z M245,93h5v1h-5z M255,93h1v1h-1z M36,94h11v1h-11z M136,94h8v1h-8z M162,94h3v1h-3z M184,94h5v1h-5z M190,94h6v1h-6z M222,90h3v5h-3z M1,6h4v90h-4z M37,95h12v1h-12z M135,95h8v1h-8z M161,95h4v1h-4z M183,95h17v1h-17z M244,94h4v2h-4z M263,76h3v20h-3z M1,96h3v1h-3z M38,96h12v1h-12z M97,96h2v1h-2z M135,96h7v1h-7z M161,96h3v1h-3z M183,96h20v1h-20z M222,95h4v2h-4z M245,96h1v1h-1z M38,97h4v1h-4z M44,97h7v1h-7z M72,96h2v2h-2z M88,97h4v1h-4z M95,97h4v1h-4z M160,97h4v1h-4z M184,97h20v1h-20z M222,97h3v1h-3z M263,96h4v2h-4z M38,98h3v1h-3z M46,98h4v1h-4z M71,98h3v1h-3z M134,97h9v2h-9z M160,98h3v1h-3z M189,98h15v1h-15z M223,98h2v1h-2z M70,99h4v1h-4z M88,98h11v2h-11z M135,99h1v1h-1z M139,99h5v1h-5z M159,99h4v1h-4z M199,99h5v1h-5z M67,100h7v1h-7z M89,100h11v1h-11z M140,100h4v1h-4z M190,99h4v2h-4z M66,101h8v1h-8z M91,101h11v1h-11z M159,100h3v2h-3z M191,101h3v1h-3z M65,102h9v1h-9z M93,102h13v1h-13z M141,101h4v2h-4z M160,102h2v1h-2z M192,102h1v1h-1z M263,98h3v5h-3z M93,103h15v1h-15z M142,103h2v1h-2z M263,103h4v1h-4z M66,103h10v2h-10z M94,104h14v1h-14z M67,105h9v1h-9z M94,105h3v1h-3z M102,105h6v1h-6z M67,106h4v1h-4z M73,106h2v1h-2z M262,104h5v3h-5z M262,107h4v1h-4z M18,108h2v1h-2z M25,108h4v1h-4z M66,107h4v2h-4z M121,108h1v1h-1z M250,108h3v1h-3z M17,109h4v1h-4z M23,109h6v1h-6z M65,109h4v1h-4z M177,109h1v1h-1z M208,109h3v1h-3z M17,110h12v1h-12z M64,110h5v1h-5z M176,110h3v1h-3z M17,111h10v1h-10z M64,111h4v1h-4z M175,111h5v1h-5z M250,109h4v3h-4z M16,112h9v1h-9z M44,112h5v1h-5z M63,112h5v1h-5z M207,110h4v3h-4z M251,112h4v1h-4z M16,113h8v1h-8z M43,113h5v1h-5z M64,113h3v1h-3z M176,112h4v2h-4z M229,113h2v1h-2z M251,113h5v1h-5z M257,113h1v1h-1z M1,97h4v18h-4z M14,114h9v1h-9z M65,114h1v1h-1z M206,113h4v2h-4z M1,115h3v1h-3z M12,115h11v1h-11z M119,109h4v7h-4z M177,114h4v2h-4z M228,114h4v2h-4z M238,115h1v1h-1z M251,114h7v2h-7z M263,108h3v8h-3z M11,116h7v1h-7z M94,116h3v1h-3z M177,116h7v1h-7z M205,115h4v2h-4z M228,116h12v1h-12z M250,116h8v1h-8z M262,116h4v1h-4z M11,117h5v1h-5z M43,114h4v4h-4z M93,117h4v1h-4z M119,116h3v2h-3z M150,117h2v1h-2z M158,117h2v1h-2z M176,117h9v1h-9z M204,117h5v1h-5z M221,117h19v1h-19z M262,117h5v1h-5z M12,118h2v1h-2z M44,118h4v1h-4z M86,118h3v1h-3z M91,118h6v1h-6z M117,118h6v1h-6z M157,118h4v1h-4z M175,118h10v1h-10z M220,118h20v1h-20z M249,117h7v2h-7z M263,118h4v1h-4z M44,119h6v1h-6z M86,119h10v1h-10z M149,118h4v2h-4z M156,119h5v1h-5z M174,119h10v1h-10z M201,118h7v2h-7z M220,119h17v1h-17z M250,119h1v1h-1z M43,120h8v1h-8z M86,120h8v1h-8z M149,120h12v1h-12z M201,120h8v1h-8z M221,120h13v1h-13z M253,119h3v2h-3z M41,121h9v1h-9z M85,121h8v1h-8z M116,119h10v3h-10z M148,121h10v1h-10z M174,120h9v2h-9z M253,121h4v1h-4z M84,122h8v1h-8z M118,122h7v1h-7z M147,122h9v1h-9z M179,122h4v1h-4z M201,121h9v2h-9z M229,121h4v2h-4z M254,122h3v1h-3z M41,122h8v2h-8z M83,123h9v1h-9z M143,123h12v1h-12z M180,123h3v1h-3z M202,123h7v1h-7z M230,123h2v1h-2z M44,124h5v1h-5z M81,124h11v1h-11z M119,123h3v2h-3z M141,124h13v1h-13z M201,124h5v1h-5z M254,123h4v2h-4z M80,125h5v1h-5z M89,125h3v1h-3z M119,125h2v1h-2z M141,125h6v1h-6z M151,125h3v1h-3z M200,125h5v1h-5z M45,125h4v2h-4z M80,126h4v1h-4z M119,126h3v1h-3z M141,126h4v1h-4z M152,126h2v1h-2z M180,124h4v3h-4z M200,126h4v1h-4z M255,125h3v2h-3z M81,127h1v1h-1z M181,127h3v1h-3z M200,127h3v1h-3z M1,116h4v13h-4z M46,127h4v2h-4z M118,127h4v2h-4z M46,129h3v1h-3z M119,129h3v1h-3z M199,128h4v2h-4z M263,119h3v11h-3z M47,130h2v1h-2z M198,130h4v1h-4z M199,131h2v1h-2z M262,130h4v2h-4z M0,129h5v4h-5z M0,133h6v1h-6z M263,132h3v2h-3z M0,134h152v1h-152z M153,134h15v1h-15z M170,134h3v1h-3z M174,134h1v1h-1z M194,134h1v1h-1z M262,134h4v1h-4z M0,135h266v1h-266z M1,136h265v1h-265z M2,137h264v1h-264z M86,138h1v1h-1z M132,138h2v1h-2z M137,138h3v1h-3z M144,138h3v1h-3z M148,138h18v1h-18z M170,138h9v1h-9z M180,138h1v1h-1z M182,138h16v1h-16z M202,138h19v1h-19z M225,138h16v1h-16z M242,138h23v1h-23z
  "/>
</svg>