<?xml version="1.0" encoding="UTF-8"?>
<svg xmlns="http://www.w3.org/2000/svg" viewBox="0 0 268 140" width="268" height="140">
  <title>17 Limestone containing nodules of chert or flint</title>
  <path fill="#111111" fill-rule="nonzero" d="
    M231,0h2v1h-2z M234,0h1v1h-1z M237,0h4v1h-4z M242,0h22v1h-22z M68,1h2v1h-2z M76,1h3v1h-3z M82,1h2v1h-2z M88,1h2v1h-2z M95,1h2v1h-2z M116,1h13v1h-13z M131,1h8v1h-8z M140,1h125v1h-125z M4,2h262v1h-262z M2,3h265v1h-265z M1,4h238v1h-238z M242,4h25v1h-25z M1,5h119v1h-119z M121,5h4v1h-4z M127,5h2v1h-2z M132,5h9v1h-9z M152,5h4v1h-4z M158,5h6v1h-6z M172,5h4v1h-4z M188,5h4v1h-4z M210,5h7v1h-7z M220,5h1v1h-1z M262,5h4v1h-4z M11,6h4v1h-4z M20,6h2v1h-2z M51,6h5v1h-5z M90,6h12v1h-12z M210,6h5v1h-5z M26,7h2v1h-2z M83,7h22v1h-22z M160,7h17v1h-17z M236,7h8v1h-8z M263,6h3v2h-3z M14,8h18v1h-18z M79,8h28v1h-28z M155,8h25v1h-25z M231,8h23v1h-23z M1,6h5v4h-5z M10,9h25v1h-25z M78,9h30v1h-30z M152,9h31v1h-31z M230,9h27v1h-27z M9,10h27v1h-27z M77,10h19v1h-19z M101,10h8v1h-8z M151,10h21v1h-21z M175,10h10v1h-10z M228,10h30v1h-30z M262,8h4v3h-4z M8,11h15v1h-15z M27,11h9v1h-9z M77,11h6v1h-6z M104,11h6v1h-6z M150,11h9v1h-9z M164,11h3v1h-3z M178,11h9v1h-9z M227,11h8v1h-8z M246,11h12v1h-12z M7,12h5v1h-5z M77,12h4v1h-4z M253,12h5v1h-5z M31,12h5v2h-5z M76,13h4v1h-4z M106,12h4v2h-4z M150,12h5v2h-5z M182,12h5v2h-5z M254,13h4v1h-4z M7,13h4v2h-4z M22,14h13v1h-13z M76,14h5v1h-5z M105,14h5v1h-5z M133,6h3v9h-3z M150,14h8v1h-8z M181,14h7v1h-7z M227,12h5v3h-5z M245,14h13v1h-13z M7,15h28v1h-28z M76,15h33v1h-33z M132,15h4v1h-4z M151,15h36v1h-36z M227,15h31v1h-31z M262,11h5v5h-5z M1,10h4v7h-4z M8,16h25v1h-25z M77,16h31v1h-31z M151,16h35v1h-35z M228,16h28v1h-28z M263,16h4v1h-4z M2,17h3v1h-3z M9,17h22v1h-22z M78,17h28v1h-28z M153,17h31v1h-31z M228,17h26v1h-26z M2,18h4v1h-4z M10,18h14v1h-14z M79,18h25v1h-25z M133,16h3v3h-3z M156,18h24v1h-24z M230,18h8v1h-8z M239,18h4v1h-4z M132,19h5v1h-5z M211,7h4v13h-4z M233,19h1v1h-1z M241,19h2v1h-2z M262,17h4v3h-4z M51,7h4v14h-4z M131,20h6v1h-6z M150,20h7v1h-7z M162,20h4v1h-4z M170,20h6v1h-6z M177,20h1v1h-1z M180,20h3v1h-3z M186,20h4v1h-4z M201,20h1v1h-1z M203,20h3v1h-3z M210,20h8v1h-8z M219,20h47v1h-47z M1,19h5v3h-5z M23,21h1v1h-1z M47,21h11v1h-11z M59,21h3v1h-3z M70,21h4v1h-4z M76,21h2v1h-2z M79,21h187v1h-187z M1,22h265v2h-265z M1,24h157v1h-157z M159,24h2v1h-2z M163,24h6v1h-6z M173,24h6v1h-6z M180,24h1v1h-1z M182,24h4v1h-4z M187,24h3v1h-3z M194,24h3v1h-3z M200,24h15v1h-15z M237,24h4v1h-4z M1,25h23v1h-23z M25,25h12v1h-12z M133,25h19v1h-19z M196,25h19v1h-19z M237,25h3v1h-3z M262,24h4v2h-4z M1,26h5v1h-5z M52,25h19v2h-19z M130,26h24v1h-24z M193,26h25v1h-25z M263,26h3v1h-3z M46,27h28v1h-28z M126,27h30v1h-30z M190,27h28v1h-28z M237,26h4v2h-4z M43,28h32v1h-32z M125,28h32v1h-32z M189,28h30v1h-30z M1,27h4v3h-4z M42,29h33v1h-33z M124,29h12v1h-12z M149,29h9v1h-9z M188,29h11v1h-11z M215,29h5v1h-5z M262,27h5v3h-5z M1,30h5v1h-5z M42,30h10v1h-10z M70,30h6v1h-6z M101,25h4v6h-4z M152,30h6v1h-6z M42,31h5v1h-5z M101,31h3v1h-3z M153,31h5v1h-5z M187,30h5v2h-5z M216,30h4v2h-4z M42,32h4v1h-4z M72,31h4v2h-4z M124,30h4v3h-4z M152,32h6v1h-6z M187,32h6v1h-6z M198,32h2v1h-2z M215,32h5v1h-5z M42,33h5v1h-5z M71,33h5v1h-5z M124,33h7v1h-7z M132,33h3v1h-3z M138,33h1v1h-1z M150,33h7v1h-7z M188,33h22v1h-22z M211,33h8v1h-8z M43,34h9v1h-9z M59,34h2v1h-2z M66,34h9v1h-9z M124,34h32v1h-32z M188,34h30v1h-30z M1,31h4v5h-4z M44,35h30v1h-30z M126,35h29v1h-29z M174,25h4v11h-4z M190,35h26v1h-26z M237,28h3v8h-3z M1,36h5v1h-5z M45,36h28v1h-28z M128,36h25v1h-25z M175,36h3v1h-3z M194,36h20v1h-20z M263,30h4v7h-4z M49,37h22v1h-22z M130,37h1v1h-1z M139,37h13v1h-13z M174,37h4v1h-4z M198,37h1v1h-1z M237,36h4v2h-4z M262,37h5v1h-5z M1,37h4v2h-4z M26,26h4v13h-4z M56,38h13v1h-13z M101,32h4v7h-4z M132,38h2v1h-2z M149,38h2v1h-2z M173,38h6v1h-6z M197,38h4v1h-4z M213,38h1v1h-1z M236,38h6v1h-6z M243,38h12v1h-12z M256,38h1v1h-1z M261,38h5v1h-5z M1,39h5v1h-5z M25,39h6v1h-6z M56,39h14v1h-14z M97,39h16v1h-16z M117,39h150v1h-150z M1,40h8v1h-8z M10,40h257v1h-257z M1,41h266v1h-266z M1,42h163v1h-163z M167,42h2v1h-2z M173,42h20v1h-20z M196,42h5v1h-5z M203,42h4v1h-4z M211,42h2v1h-2z M220,42h6v1h-6z M261,42h6v1h-6z M1,43h34v1h-34z M39,43h22v1h-22z M62,43h6v1h-6z M69,43h8v1h-8z M80,43h1v1h-1z M85,43h1v1h-1z M87,43h3v1h-3z M91,43h6v1h-6z M262,43h5v1h-5z M1,44h5v1h-5z M99,44h7v1h-7z M148,43h4v2h-4z M174,44h2v1h-2z M178,44h16v1h-16z M242,44h7v1h-7z M253,44h1v1h-1z M31,45h13v1h-13z M96,45h19v1h-19z M171,45h27v1h-27z M235,45h22v1h-22z M1,45h4v2h-4z M22,46h25v1h-25z M73,44h4v3h-4z M93,46h25v1h-25z M148,45h3v2h-3z M169,46h30v1h-30z M233,46h25v1h-25z M21,47h27v1h-27z M92,47h28v1h-28z M167,47h33v1h-33z M232,47h26v1h-26z M1,47h5v2h-5z M19,48h30v1h-30z M92,48h7v1h-7z M105,48h15v1h-15z M167,48h23v1h-23z M191,48h2v1h-2z M194,48h6v1h-6z M232,48h9v1h-9z M246,48h4v1h-4z M253,48h5v1h-5z M19,49h13v1h-13z M42,49h7v1h-7z M91,49h5v1h-5z M186,49h2v1h-2z M195,49h5v1h-5z M232,49h5v1h-5z M254,49h4v1h-4z M18,50h6v1h-6z M28,50h1v1h-1z M43,50h6v1h-6z M73,47h3v4h-3z M91,50h4v1h-4z M108,50h2v1h-2z M114,49h6v2h-6z M167,49h6v2h-6z M177,50h23v1h-23z M1,49h4v3h-4z M18,51h4v1h-4z M33,51h3v1h-3z M39,51h9v1h-9z M167,51h32v1h-32z M232,50h26v2h-26z M18,52h29v1h-29z M91,51h28v2h-28z M168,52h30v1h-30z M233,52h24v1h-24z M19,53h28v1h-28z M92,53h25v1h-25z M169,53h27v1h-27z M235,53h20v1h-20z M20,54h24v1h-24z M72,51h4v4h-4z M94,54h20v1h-20z M172,54h2v1h-2z M177,54h1v1h-1z M263,44h4v11h-4z M22,55h7v1h-7z M30,55h1v1h-1z M38,55h3v1h-3z M73,55h3v1h-3z M148,47h4v9h-4z M221,43h4v13h-4z M262,55h5v1h-5z M1,52h5v5h-5z M72,56h5v1h-5z M148,56h5v1h-5z M219,56h10v1h-10z M233,56h34v1h-34z M1,57h6v1h-6z M52,57h3v1h-3z M58,57h2v1h-2z M72,57h6v1h-6z M80,57h10v1h-10z M92,57h15v1h-15z M110,57h158v1h-158z M1,58h267v2h-267z M1,60h199v1h-199z M203,60h15v1h-15z M220,60h5v1h-5z M226,60h2v1h-2z M1,61h72v1h-72z M75,61h1v1h-1z M78,61h4v1h-4z M87,61h7v1h-7z M122,61h6v1h-6z M210,61h5v1h-5z M262,60h5v3h-5z M261,63h6v1h-6z M248,64h19v1h-19z M158,65h19v1h-19z M242,65h25v1h-25z M1,62h5v5h-5z M78,66h8v1h-8z M155,66h24v1h-24z M240,66h27v1h-27z M1,67h12v1h-12z M68,67h24v1h-24z M153,67h27v1h-27z M239,67h19v1h-19z M259,67h1v1h-1z M261,67h6v1h-6z M1,68h14v1h-14z M65,68h28v1h-28z M152,68h13v1h-13z M171,68h11v1h-11z M238,68h11v1h-11z M1,69h16v1h-16z M64,69h30v1h-30z M152,69h5v1h-5z M176,69h7v1h-7z M238,69h7v1h-7z M263,68h4v2h-4z M1,70h17v1h-17z M63,70h11v1h-11z M76,70h2v1h-2z M86,70h9v1h-9z M152,70h4v1h-4z M178,70h6v1h-6z M211,62h4v9h-4z M237,70h5v1h-5z M260,70h7v1h-7z M12,71h6v1h-6z M62,71h6v1h-6z M89,71h7v1h-7z M152,71h5v1h-5z M180,71h4v1h-4z M237,71h6v1h-6z M244,71h23v1h-23z M13,72h5v1h-5z M92,72h4v1h-4z M123,62h4v11h-4z M153,72h17v1h-17z M178,72h6v1h-6z M1,71h4v3h-4z M11,73h6v1h-6z M62,72h5v2h-5z M91,73h5v1h-5z M153,73h30v1h-30z M238,72h29v2h-29z M1,74h5v1h-5z M8,74h8v1h-8z M62,74h6v1h-6z M73,74h2v1h-2z M76,74h20v1h-20z M154,74h29v1h-29z M239,74h28v1h-28z M1,75h14v1h-14z M63,75h32v1h-32z M156,75h26v1h-26z M211,71h3v5h-3z M241,75h2v1h-2z M244,75h2v1h-2z M262,75h5v1h-5z M1,76h13v1h-13z M64,76h29v1h-29z M123,73h3v4h-3z M169,76h1v1h-1z M172,76h7v1h-7z M1,77h10v1h-10z M65,77h26v1h-26z M70,78h4v1h-4z M81,78h5v1h-5z M263,76h4v3h-4z M1,78h5v2h-5z M262,79h5v1h-5z M263,80h4v2h-4z M123,77h4v6h-4z M211,76h4v7h-4z M262,82h5v1h-5z M1,80h4v4h-4z M38,62h4v22h-4z M122,83h5v1h-5z M172,83h3v1h-3z M186,83h2v1h-2z M203,83h3v1h-3z M209,83h12v1h-12z M232,83h35v1h-35z M1,84h5v1h-5z M36,84h231v1h-231z M1,85h265v1h-265z M1,86h233v1h-233z M235,86h31v1h-31z M1,87h95v1h-95z M102,87h14v1h-14z M117,87h11v1h-11z M132,87h7v1h-7z M141,87h9v1h-9z M151,87h1v1h-1z M156,87h5v1h-5z M167,87h1v1h-1z M181,87h2v1h-2z M187,87h2v1h-2z M228,87h5v1h-5z M1,88h5v1h-5z M10,88h1v1h-1z M12,88h9v1h-9z M44,88h1v1h-1z M84,88h5v1h-5z M85,89h3v1h-3z M85,90h4v1h-4z M262,87h5v4h-5z M192,91h6v1h-6z M259,91h1v1h-1z M261,91h6v1h-6z M50,92h3v1h-3z M85,91h3v2h-3z M118,92h14v1h-14z M188,92h16v1h-16z M256,92h11v1h-11z M43,93h15v1h-15z M111,93h23v1h-23z M185,93h22v1h-22z M254,93h13v1h-13z M40,94h24v1h-24z M109,94h28v1h-28z M183,94h26v1h-26z M253,94h14v1h-14z M37,95h30v1h-30z M108,95h29v1h-29z M183,95h27v1h-27z M253,95h7v1h-7z M35,96h13v1h-13z M49,96h19v1h-19z M107,96h6v1h-6z M115,96h6v1h-6z M132,96h7v1h-7z M182,96h6v1h-6z M203,96h8v1h-8z M252,96h5v1h-5z M34,97h10v1h-10z M58,97h11v1h-11z M85,93h4v5h-4z M134,97h5v1h-5z M252,97h7v1h-7z M262,95h5v3h-5z M34,98h7v1h-7z M107,97h4v2h-4z M135,98h4v1h-4z M181,97h5v2h-5z M207,97h5v2h-5z M253,98h14v1h-14z M34,99h5v1h-5z M65,98h4v2h-4z M107,99h5v1h-5z M134,99h5v1h-5z M182,99h8v1h-8z M193,99h3v1h-3z M206,99h6v1h-6z M34,100h6v1h-6z M64,100h5v1h-5z M107,100h32v1h-32z M183,100h28v1h-28z M254,99h13v2h-13z M35,101h16v1h-16z M54,101h3v1h-3z M58,101h10v1h-10z M85,98h3v4h-3z M108,101h30v1h-30z M183,101h27v1h-27z M258,101h9v1h-9z M36,102h32v1h-32z M109,102h28v1h-28z M185,102h24v1h-24z M37,103h30v1h-30z M116,103h19v1h-19z M187,103h18v1h-18z M262,102h5v2h-5z M39,104h4v1h-4z M45,104h20v1h-20z M263,104h4v1h-4z M56,105h2v1h-2z M229,88h3v19h-3z M85,102h4v6h-4z M156,88h4v20h-4z M228,107h5v1h-5z M262,105h5v3h-5z M1,89h4v20h-4z M16,89h4v20h-4z M84,108h5v1h-5z M155,108h7v1h-7z M165,108h3v1h-3z M179,108h3v1h-3z M186,108h81v1h-81z M1,109h5v1h-5z M15,109h5v1h-5z M33,109h2v1h-2z M39,109h12v1h-12z M52,109h13v1h-13z M72,109h195v1h-195z M1,110h266v2h-266z M1,112h95v1h-95z M97,112h7v1h-7z M105,112h50v1h-50z M156,112h8v1h-8z M167,112h1v1h-1z M186,112h2v1h-2z M197,112h3v1h-3z M1,113h5v1h-5z M7,113h6v1h-6z M15,113h5v1h-5z M46,113h7v1h-7z M17,114h2v1h-2z M233,117h19v1h-19z M1,114h4v5h-4z M90,118h3v1h-3z M158,118h8v1h-8z M228,118h26v1h-26z M1,119h5v1h-5z M78,119h25v1h-25z M132,113h4v7h-4z M155,119h27v1h-27z M226,119h29v1h-29z M1,120h17v1h-17z M75,120h30v1h-30z M133,120h3v1h-3z M153,120h31v1h-31z M224,120h31v1h-31z M74,121h32v1h-32z M152,121h9v1h-9z M163,121h22v1h-22z M223,121h9v1h-9z M236,121h3v1h-3z M250,121h6v1h-6z M1,121h19v2h-19z M73,122h10v1h-10z M96,122h12v1h-12z M152,122h5v1h-5z M180,122h6v1h-6z M252,122h4v1h-4z M1,123h20v1h-20z M72,123h7v1h-7z M103,123h6v1h-6z M152,123h4v1h-4z M223,122h5v2h-5z M251,123h5v1h-5z M262,112h5v12h-5z M11,124h11v1h-11z M72,124h5v1h-5z M105,124h4v1h-4z M151,124h5v1h-5z M181,123h5v2h-5z M223,124h6v1h-6z M248,124h8v1h-8z M1,124h5v2h-5z M11,125h10v1h-10z M72,125h6v1h-6z M152,125h7v1h-7z M163,125h1v1h-1z M165,125h3v1h-3z M171,125h1v1h-1z M174,125h1v1h-1z M180,125h5v1h-5z M223,125h32v1h-32z M263,124h4v2h-4z M1,126h19v1h-19z M73,126h9v1h-9z M85,126h13v1h-13z M105,125h5v2h-5z M152,126h33v1h-33z M224,126h30v1h-30z M1,127h18v1h-18z M74,127h35v1h-35z M153,127h31v1h-31z M225,127h27v1h-27z M1,128h16v1h-16z M75,128h34v1h-34z M154,128h29v1h-29z M206,112h4v17h-4z M228,128h16v1h-16z M1,129h10v1h-10z M48,114h4v16h-4z M77,129h31v1h-31z M172,129h7v1h-7z M206,129h3v1h-3z M49,130h3v1h-3z M100,130h6v1h-6z M132,121h4v10h-4z M133,131h3v1h-3z M206,130h4v2h-4z M262,126h5v6h-5z M48,131h4v2h-4z M132,132h4v1h-4z M205,132h5v1h-5z M261,132h6v1h-6z M1,130h5v4h-5z M48,133h5v1h-5z M98,133h1v1h-1z M115,133h2v1h-2z M127,133h14v1h-14z M146,133h3v1h-3z M152,133h5v1h-5z M162,133h27v1h-27z M195,133h72v1h-72z M1,134h266v1h-266z M2,135h265v1h-265z M2,136h264v1h-264z M2,137h228v1h-228z M233,137h3v1h-3z M258,137h2v1h-2z M4,138h57v1h-57z M69,138h3v1h-3z M79,138h6v1h-6z M87,138h3v1h-3z M96,138h12v1h-12z M162,138h1v1h-1z M179,138h1v1h-1z M223,138h4v1h-4z
  "/>
</svg>