<?xml version="1.0" encoding="UTF-8"?>
<svg xmlns="http://www.w3.org/2000/svg" viewBox="0 0 266 137" width="266" height="137">
  <title>37 Gypsum</title>
  <path fill="#111111" fill-rule="nonzero" d="
    M204,0h2v1h-2z M210,0h4v1h-4z M221,0h1v1h-1z M223,0h2v1h-2z M245,0h2v1h-2z M249,0h9v1h-9z M3,1h261v1h-261z M2,2h262v1h-262z M1,3h264v1h-264z M1,4h6v1h-6z M8,4h114v1h-114z M123,4h16v1h-16z M143,4h24v1h-24z M170,4h5v1h-5z M177,4h3v1h-3z M195,4h1v1h-1z M197,4h1v1h-1z M199,4h1v1h-1z M204,4h3v1h-3z M210,4h7v1h-7z M225,4h1v1h-1z M232,4h1v1h-1z M254,4h4v1h-4z M259,4h6v1h-6z M1,5h4v10h-4z M1,15h3v8h-3z M1,23h4v1h-4z M0,24h4v1h-4z M1,25h3v4h-3z M0,29h4v2h-4z M261,5h4v32h-4z M1,31h4v7h-4z M181,37h1v1h-1z M186,37h2v1h-2z M196,37h69v1h-69z M1,38h5v1h-5z M7,38h2v1h-2z M14,38h6v1h-6z M31,38h2v1h-2z M36,38h1v1h-1z M50,38h8v1h-8z M69,38h196v1h-196z M66,39h199v2h-199z M1,39h64v3h-64z M67,41h35v1h-35z M103,41h20v1h-20z M126,41h10v1h-10z M137,41h21v1h-21z M160,41h10v1h-10z M173,41h7v1h-7z M184,41h7v1h-7z M195,41h7v1h-7z M206,41h7v1h-7z M217,41h7v1h-7z M228,41h7v1h-7z M239,41h7v1h-7z M250,41h7v1h-7z M260,41h5v1h-5z M9,42h9v1h-9z M21,42h7v1h-7z M33,42h8v1h-8z M45,42h6v1h-6z M55,42h8v1h-8z M68,42h6v1h-6z M78,42h8v1h-8z M88,42h1v1h-1z M92,42h6v1h-6z M104,42h5v1h-5z M115,42h6v1h-6z M127,42h6v1h-6z M138,42h6v1h-6z M150,42h5v1h-5z M162,42h6v1h-6z M173,42h6v1h-6z M184,42h6v1h-6z M195,42h6v1h-6z M206,42h6v1h-6z M217,42h6v1h-6z M228,42h6v1h-6z M239,42h6v1h-6z M250,42h6v1h-6z M9,43h6v1h-6z M21,43h6v1h-6z M33,43h5v1h-5z M43,43h6v1h-6z M67,43h6v1h-6z M91,43h5v1h-5z M103,43h6v1h-6z M115,43h5v1h-5z M126,43h6v1h-6z M137,43h6v1h-6z M149,43h6v1h-6z M161,43h5v1h-5z M172,43h6v1h-6z M183,43h6v1h-6z M194,43h6v1h-6z M205,43h6v1h-6z M216,43h6v1h-6z M227,43h5v1h-5z M238,43h6v1h-6z M249,43h6v1h-6z M261,42h4v2h-4z M8,44h6v1h-6z M20,44h6v1h-6z M32,44h5v1h-5z M43,44h5v1h-5z M55,43h6v2h-6z M67,44h5v1h-5z M78,43h6v2h-6z M90,44h6v1h-6z M102,44h5v1h-5z M114,44h5v1h-5z M125,44h5v1h-5z M136,44h6v1h-6z M148,44h5v1h-5z M160,44h5v1h-5z M171,44h6v1h-6z M182,44h6v1h-6z M193,44h6v1h-6z M203,44h7v1h-7z M215,44h6v1h-6z M226,44h6v1h-6z M238,44h5v1h-5z M249,44h5v1h-5z M260,44h5v1h-5z M7,45h6v1h-6z M20,45h5v1h-5z M30,45h6v1h-6z M42,45h5v1h-5z M54,45h6v1h-6z M66,45h5v1h-5z M77,45h6v1h-6z M89,45h6v1h-6z M101,45h5v1h-5z M113,45h5v1h-5z M124,45h6v1h-6z M135,45h6v1h-6z M147,45h6v1h-6z M159,45h5v1h-5z M170,45h6v1h-6z M181,45h6v1h-6z M192,45h6v1h-6z M203,45h6v1h-6z M214,45h6v1h-6z M225,45h7v1h-7z M236,45h6v1h-6z M248,45h5v1h-5z M259,45h6v1h-6z M1,42h4v5h-4z M6,46h6v1h-6z M19,46h5v1h-5z M30,46h5v1h-5z M41,46h5v1h-5z M53,46h6v1h-6z M65,46h5v1h-5z M76,46h6v1h-6z M88,46h6v1h-6z M100,46h5v1h-5z M112,46h6v1h-6z M123,46h5v1h-5z M134,46h6v1h-6z M146,46h6v1h-6z M158,46h5v1h-5z M169,46h6v1h-6z M180,46h5v1h-5z M191,46h5v1h-5z M202,46h6v1h-6z M213,46h6v1h-6z M224,46h6v1h-6z M236,46h5v1h-5z M247,46h5v1h-5z M258,46h6v1h-6z M0,47h11v1h-11z M17,47h6v1h-6z M29,47h5v1h-5z M40,47h6v1h-6z M52,47h6v1h-6z M64,47h5v1h-5z M76,47h5v1h-5z M87,47h6v1h-6z M98,47h7v1h-7z M111,47h5v1h-5z M122,47h6v1h-6z M133,47h6v1h-6z M146,47h4v1h-4z M156,47h6v1h-6z M168,47h5v1h-5z M179,47h5v1h-5z M190,47h6v1h-6z M201,47h5v1h-5z M212,47h6v1h-6z M223,47h6v1h-6z M235,47h5v1h-5z M246,47h4v1h-4z M257,47h7v1h-7z M16,48h6v1h-6z M28,48h5v1h-5z M39,48h6v1h-6z M51,48h6v1h-6z M63,48h5v1h-5z M75,48h5v1h-5z M86,48h6v1h-6z M98,48h6v1h-6z M110,48h5v1h-5z M121,48h6v1h-6z M132,48h6v1h-6z M144,48h6v1h-6z M156,48h5v1h-5z M167,48h6v1h-6z M178,48h5v1h-5z M189,48h6v1h-6z M200,48h5v1h-5z M211,48h6v1h-6z M222,48h6v1h-6z M233,48h6v1h-6z M245,48h5v1h-5z M256,48h9v1h-9z M1,48h8v2h-8z M15,49h6v1h-6z M27,49h6v1h-6z M38,49h6v1h-6z M50,49h6v1h-6z M62,49h5v1h-5z M73,49h5v1h-5z M85,49h6v1h-6z M97,49h5v1h-5z M108,49h6v1h-6z M120,49h5v1h-5z M131,49h6v1h-6z M143,49h5v1h-5z M154,49h6v1h-6z M166,49h5v1h-5z M177,49h5v1h-5z M188,49h6v1h-6z M199,49h5v1h-5z M210,49h6v1h-6z M221,49h6v1h-6z M233,49h5v1h-5z M243,49h6v1h-6z M255,49h10v1h-10z M0,50h8v1h-8z M15,50h5v1h-5z M25,50h6v1h-6z M37,50h6v1h-6z M49,50h6v1h-6z M60,50h6v1h-6z M72,50h6v1h-6z M84,50h6v1h-6z M96,50h5v1h-5z M108,50h5v1h-5z M119,50h5v1h-5z M130,50h6v1h-6z M142,50h6v1h-6z M154,50h5v1h-5z M165,50h5v1h-5z M176,50h5v1h-5z M187,50h6v1h-6z M198,50h6v1h-6z M209,50h6v1h-6z M220,50h5v1h-5z M232,50h4v1h-4z M243,50h5v1h-5z M254,50h5v1h-5z M0,51h6v1h-6z M14,51h5v1h-5z M25,51h5v1h-5z M36,51h6v1h-6z M48,51h6v1h-6z M59,51h6v1h-6z M71,51h6v1h-6z M83,51h5v1h-5z M95,51h5v1h-5z M107,51h5v1h-5z M118,51h5v1h-5z M130,51h5v1h-5z M141,51h5v1h-5z M152,51h6v1h-6z M164,51h6v1h-6z M175,51h5v1h-5z M186,51h6v1h-6z M197,51h6v1h-6z M208,51h6v1h-6z M219,51h5v1h-5z M230,51h5v1h-5z M242,51h5v1h-5z M253,51h6v1h-6z M1,52h5v1h-5z M12,52h6v1h-6z M23,52h7v1h-7z M35,52h5v1h-5z M47,52h6v1h-6z M59,52h5v1h-5z M70,52h6v1h-6z M82,52h5v1h-5z M94,52h5v1h-5z M106,52h5v1h-5z M117,52h5v1h-5z M129,52h5v1h-5z M140,52h5v1h-5z M152,52h5v1h-5z M163,52h5v1h-5z M174,52h5v1h-5z M186,52h4v1h-4z M196,52h5v1h-5z M207,52h6v1h-6z M218,52h5v1h-5z M229,52h5v1h-5z M240,52h5v1h-5z M252,52h5v1h-5z M12,53h5v1h-5z M23,53h5v1h-5z M34,53h6v1h-6z M46,53h6v1h-6z M57,53h6v1h-6z M69,53h5v1h-5z M82,53h4v1h-4z M93,53h5v1h-5z M105,53h5v1h-5z M117,53h4v1h-4z M128,53h4v1h-4z M139,53h5v1h-5z M151,53h5v1h-5z M162,53h5v1h-5z M173,53h6v1h-6z M184,53h5v1h-5z M195,53h6v1h-6z M207,53h5v1h-5z M217,53h5v1h-5z M228,53h5v1h-5z M240,53h4v1h-4z M251,53h5v1h-5z M261,50h4v4h-4z M0,53h5v2h-5z M11,54h4v1h-4z M22,54h5v1h-5z M33,54h6v1h-6z M45,54h6v1h-6z M57,54h5v1h-5z M68,54h6v1h-6z M81,54h5v1h-5z M93,54h4v1h-4z M104,54h5v1h-5z M115,54h6v1h-6z M127,54h5v1h-5z M138,54h6v1h-6z M150,54h5v1h-5z M161,54h6v1h-6z M172,54h5v1h-5z M183,54h5v1h-5z M194,54h5v1h-5z M205,54h5v1h-5z M216,54h6v1h-6z M227,54h5v1h-5z M238,54h6v1h-6z M250,54h5v1h-5z M261,54h3v1h-3z M1,55h4v1h-4z M9,55h6v1h-6z M21,55h6v1h-6z M32,55h6v1h-6z M44,55h6v1h-6z M56,55h5v1h-5z M67,55h5v1h-5z M79,55h6v1h-6z M91,55h5v1h-5z M103,55h5v1h-5z M115,55h4v1h-4z M125,55h6v1h-6z M137,55h6v1h-6z M149,55h5v1h-5z M160,55h6v1h-6z M171,55h5v1h-5z M182,55h5v1h-5z M193,55h5v1h-5z M204,55h6v1h-6z M215,55h5v1h-5z M226,55h6v1h-6z M238,55h5v1h-5z M249,55h5v1h-5z M0,56h5v1h-5z M9,56h4v1h-4z M20,56h6v1h-6z M31,56h6v1h-6z M42,56h7v1h-7z M55,56h5v1h-5z M66,56h6v1h-6z M79,56h5v1h-5z M90,56h6v1h-6z M102,56h5v1h-5z M113,56h6v1h-6z M125,56h5v1h-5z M136,56h5v1h-5z M148,56h5v1h-5z M159,56h6v1h-6z M170,56h5v1h-5z M181,56h5v1h-5z M192,56h5v1h-5z M203,56h6v1h-6z M214,56h5v1h-5z M225,56h6v1h-6z M236,56h6v1h-6z M249,56h4v1h-4z M260,55h5v2h-5z M1,57h4v1h-4z M7,57h6v1h-6z M18,57h6v1h-6z M30,57h6v1h-6z M42,57h6v1h-6z M54,57h5v1h-5z M65,57h6v1h-6z M78,57h5v1h-5z M89,57h5v1h-5z M101,57h5v1h-5z M112,57h5v1h-5z M123,57h6v1h-6z M135,57h6v1h-6z M147,57h6v1h-6z M159,57h4v1h-4z M169,57h5v1h-5z M180,57h5v1h-5z M191,57h5v1h-5z M202,57h5v1h-5z M213,57h5v1h-5z M224,57h6v1h-6z M235,57h6v1h-6z M247,57h5v1h-5z M259,57h5v1h-5z M1,58h11v1h-11z M18,58h5v1h-5z M29,58h6v1h-6z M41,58h6v1h-6z M53,58h5v1h-5z M65,58h5v1h-5z M76,58h6v1h-6z M88,58h5v1h-5z M100,58h5v1h-5z M111,58h5v1h-5z M122,58h6v1h-6z M134,58h5v1h-5z M146,58h5v1h-5z M157,58h6v1h-6z M168,58h6v1h-6z M190,58h5v1h-5z M201,58h5v1h-5z M212,58h5v1h-5z M234,58h6v1h-6z M246,58h5v1h-5z M258,58h6v1h-6z M1,59h10v1h-10z M16,59h6v1h-6z M27,59h7v1h-7z M40,59h5v1h-5z M51,59h6v1h-6z M63,59h5v1h-5z M75,59h6v1h-6z M87,59h5v1h-5z M99,59h6v1h-6z M111,59h4v1h-4z M121,59h6v1h-6z M133,59h5v1h-5z M145,59h5v1h-5z M156,59h6v1h-6z M167,59h6v1h-6z M178,58h6v2h-6z M189,59h5v1h-5z M201,59h4v1h-4z M211,59h5v1h-5z M223,58h5v2h-5z M233,59h6v1h-6z M245,59h5v1h-5z M256,59h8v1h-8z M0,60h10v1h-10z M16,60h5v1h-5z M27,60h6v1h-6z M39,60h6v1h-6z M50,60h6v1h-6z M62,60h5v1h-5z M74,60h6v1h-6z M86,60h6v1h-6z M98,60h5v1h-5z M109,60h5v1h-5z M120,60h5v1h-5z M132,60h5v1h-5z M144,60h5v1h-5z M155,60h5v1h-5z M166,60h5v1h-5z M177,60h6v1h-6z M188,60h5v1h-5z M200,60h4v1h-4z M210,60h5v1h-5z M222,60h4v1h-4z M233,60h5v1h-5z M244,60h5v1h-5z M0,61h9v1h-9z M15,61h5v1h-5z M26,61h5v1h-5z M38,61h6v1h-6z M49,61h6v1h-6z M61,61h5v1h-5z M73,61h6v1h-6z M85,61h6v1h-6z M97,61h5v1h-5z M108,61h6v1h-6z M119,61h6v1h-6z M131,61h6v1h-6z M143,61h5v1h-5z M154,61h6v1h-6z M165,61h6v1h-6z M176,61h5v1h-5z M187,61h5v1h-5z M198,61h5v1h-5z M209,61h5v1h-5z M220,61h5v1h-5z M243,61h5v1h-5z M255,60h9v2h-9z M0,62h8v1h-8z M13,62h6v1h-6z M25,62h5v1h-5z M37,62h5v1h-5z M48,62h6v1h-6z M60,62h5v1h-5z M72,62h6v1h-6z M84,62h5v1h-5z M96,62h5v1h-5z M108,62h4v1h-4z M119,62h5v1h-5z M130,62h6v1h-6z M142,62h5v1h-5z M153,62h6v1h-6z M164,62h5v1h-5z M175,62h5v1h-5z M186,62h5v1h-5z M198,62h4v1h-4z M208,62h5v1h-5z M220,62h4v1h-4z M231,61h5v2h-5z M242,62h5v1h-5z M254,62h5v1h-5z M0,63h7v1h-7z M13,63h5v1h-5z M24,63h6v1h-6z M36,63h6v1h-6z M48,63h5v1h-5z M59,63h5v1h-5z M72,63h5v1h-5z M83,63h5v1h-5z M95,63h5v1h-5z M106,63h6v1h-6z M117,63h6v1h-6z M130,63h5v1h-5z M141,63h5v1h-5z M152,63h6v1h-6z M163,63h5v1h-5z M174,63h5v1h-5z M185,63h5v1h-5z M196,63h5v1h-5z M207,63h5v1h-5z M218,63h5v1h-5z M229,63h5v1h-5z M241,63h5v1h-5z M253,63h5v1h-5z M0,64h6v1h-6z M12,64h5v1h-5z M23,64h6v1h-6z M35,64h6v1h-6z M46,64h6v1h-6z M59,64h4v1h-4z M71,64h4v1h-4z M82,64h6v1h-6z M94,64h6v1h-6z M106,64h5v1h-5z M116,64h6v1h-6z M128,64h5v1h-5z M140,64h5v1h-5z M151,64h6v1h-6z M162,64h5v1h-5z M173,64h6v1h-6z M184,64h5v1h-5z M195,64h6v1h-6z M206,64h5v1h-5z M217,64h5v1h-5z M228,64h5v1h-5z M240,64h5v1h-5z M251,64h6v1h-6z M11,65h5v1h-5z M22,65h6v1h-6z M34,65h6v1h-6z M46,65h5v1h-5z M57,65h5v1h-5z M69,65h6v1h-6z M81,65h6v1h-6z M93,65h6v1h-6z M105,65h4v1h-4z M115,65h6v1h-6z M127,65h6v1h-6z M139,65h5v1h-5z M150,65h5v1h-5z M161,65h6v1h-6z M172,65h6v1h-6z M183,65h5v1h-5z M193,65h6v1h-6z M204,65h7v1h-7z M216,65h5v1h-5z M228,65h4v1h-4z M239,65h5v1h-5z M250,65h6v1h-6z M261,62h3v4h-3z M10,66h5v1h-5z M21,66h6v1h-6z M33,66h6v1h-6z M45,66h5v1h-5z M57,66h4v1h-4z M69,66h4v1h-4z M80,66h5v1h-5z M92,66h5v1h-5z M103,66h5v1h-5z M115,66h5v1h-5z M126,66h5v1h-5z M138,66h5v1h-5z M149,66h5v1h-5z M160,66h6v1h-6z M171,66h5v1h-5z M182,66h5v1h-5z M193,66h5v1h-5z M204,66h5v1h-5z M215,66h5v1h-5z M227,66h4v1h-4z M238,66h6v1h-6z M249,66h6v1h-6z M261,66h4v1h-4z M1,65h4v3h-4z M9,67h5v1h-5z M20,67h6v1h-6z M32,67h5v1h-5z M43,67h6v1h-6z M55,67h5v1h-5z M67,67h5v1h-5z M79,67h5v1h-5z M91,67h5v1h-5z M102,67h5v1h-5z M113,67h6v1h-6z M125,67h5v1h-5z M137,67h5v1h-5z M148,67h5v1h-5z M159,67h6v1h-6z M170,67h5v1h-5z M181,67h5v1h-5z M192,67h6v1h-6z M203,67h5v1h-5z M214,67h5v1h-5z M225,67h5v1h-5z M237,67h6v1h-6z M248,67h6v1h-6z M260,67h5v1h-5z M8,68h5v1h-5z M19,68h5v1h-5z M31,68h6v1h-6z M42,68h6v1h-6z M54,68h6v1h-6z M66,68h6v1h-6z M78,68h5v1h-5z M90,68h5v1h-5z M101,68h6v1h-6z M112,68h6v1h-6z M124,68h5v1h-5z M136,68h5v1h-5z M147,68h5v1h-5z M158,68h5v1h-5z M168,68h6v1h-6z M180,68h5v1h-5z M191,68h5v1h-5z M202,68h5v1h-5z M213,68h5v1h-5z M225,68h4v1h-4z M236,68h5v1h-5z M247,68h6v1h-6z M259,68h5v1h-5z M0,68h5v2h-5z M6,69h6v1h-6z M18,69h5v1h-5z M41,69h6v1h-6z M54,69h5v1h-5z M65,69h6v1h-6z M77,69h5v1h-5z M89,69h5v1h-5z M100,69h6v1h-6z M112,69h5v1h-5z M123,69h5v1h-5z M134,69h6v1h-6z M146,69h5v1h-5z M157,69h6v1h-6z M168,69h5v1h-5z M179,69h5v1h-5z M190,69h5v1h-5z M201,69h5v1h-5z M212,69h5v1h-5z M223,69h5v1h-5z M234,69h6v1h-6z M246,69h6v1h-6z M258,69h6v1h-6z M17,70h6v1h-6z M30,69h5v2h-5z M41,70h5v1h-5z M52,70h5v1h-5z M64,70h6v1h-6z M76,70h5v1h-5z M88,70h6v1h-6z M99,70h6v1h-6z M111,70h5v1h-5z M122,70h6v1h-6z M134,70h5v1h-5z M145,70h5v1h-5z M156,70h5v1h-5z M167,70h5v1h-5z M178,70h5v1h-5z M189,70h6v1h-6z M200,70h5v1h-5z M211,70h5v1h-5z M222,70h5v1h-5z M234,70h5v1h-5z M246,70h5v1h-5z M257,70h7v1h-7z M0,70h11v2h-11z M16,71h6v1h-6z M28,71h6v1h-6z M40,71h5v1h-5z M63,71h6v1h-6z M75,71h5v1h-5z M87,71h6v1h-6z M99,71h4v1h-4z M110,71h4v1h-4z M121,71h5v1h-5z M133,71h5v1h-5z M144,71h5v1h-5z M155,71h5v1h-5z M166,71h6v1h-6z M177,71h5v1h-5z M188,71h5v1h-5z M199,71h5v1h-5z M211,71h4v1h-4z M222,71h4v1h-4z M233,71h4v1h-4z M245,71h5v1h-5z M256,71h9v1h-9z M1,72h8v1h-8z M15,72h6v1h-6z M27,72h6v1h-6z M39,72h5v1h-5z M51,71h5v2h-5z M62,72h6v1h-6z M74,72h5v1h-5z M86,72h5v1h-5z M98,72h5v1h-5z M109,72h4v1h-4z M120,72h5v1h-5z M132,72h5v1h-5z M143,72h6v1h-6z M154,72h5v1h-5z M165,72h6v1h-6z M176,72h5v1h-5z M187,72h5v1h-5z M198,72h5v1h-5z M209,72h5v1h-5z M221,72h4v1h-4z M232,72h5v1h-5z M244,72h4v1h-4z M255,72h10v1h-10z M1,73h7v1h-7z M15,73h5v1h-5z M26,73h5v1h-5z M38,73h5v1h-5z M49,73h6v1h-6z M61,73h6v1h-6z M73,73h5v1h-5z M85,73h6v1h-6z M97,73h5v1h-5z M107,73h6v1h-6z M119,73h5v1h-5z M131,73h5v1h-5z M142,73h6v1h-6z M164,73h5v1h-5z M175,73h5v1h-5z M186,73h5v1h-5z M197,73h5v1h-5z M208,73h5v1h-5z M220,73h5v1h-5z M231,73h5v1h-5z M243,73h4v1h-4z M254,73h5v1h-5z M260,73h4v1h-4z M1,74h6v1h-6z M13,74h5v1h-5z M25,74h6v1h-6z M37,74h5v1h-5z M48,74h6v1h-6z M61,74h4v1h-4z M72,74h5v1h-5z M85,74h5v1h-5z M96,74h4v1h-4z M107,74h5v1h-5z M118,74h5v1h-5z M130,74h5v1h-5z M141,74h6v1h-6z M152,73h6v2h-6z M163,74h5v1h-5z M174,74h5v1h-5z M185,74h6v1h-6z M196,74h5v1h-5z M207,74h5v1h-5z M218,74h5v1h-5z M229,74h6v1h-6z M241,74h5v1h-5z M253,74h6v1h-6z M261,74h3v1h-3z M1,75h5v1h-5z M12,75h6v1h-6z M24,75h5v1h-5z M36,75h5v1h-5z M48,75h5v1h-5z M59,75h5v1h-5z M71,75h5v1h-5z M83,75h6v1h-6z M95,75h4v1h-4z M105,75h6v1h-6z M117,75h5v1h-5z M129,75h6v1h-6z M140,75h6v1h-6z M151,75h6v1h-6z M162,75h5v1h-5z M173,75h5v1h-5z M184,75h5v1h-5z M195,75h5v1h-5z M206,75h5v1h-5z M217,75h5v1h-5z M229,75h5v1h-5z M240,75h5v1h-5z M252,75h6v1h-6z M11,76h5v1h-5z M23,76h6v1h-6z M35,76h5v1h-5z M47,76h5v1h-5z M58,76h5v1h-5z M70,76h6v1h-6z M82,76h5v1h-5z M93,76h5v1h-5z M105,76h5v1h-5z M116,76h5v1h-5z M128,76h5v1h-5z M139,76h5v1h-5z M150,76h5v1h-5z M161,76h5v1h-5z M172,76h5v1h-5z M183,76h5v1h-5z M194,76h5v1h-5z M205,76h5v1h-5z M216,76h5v1h-5z M228,76h5v1h-5z M239,76h5v1h-5z M251,76h5v1h-5z M1,76h4v2h-4z M10,77h6v1h-6z M22,77h5v1h-5z M33,77h6v1h-6z M46,77h4v1h-4z M57,77h5v1h-5z M69,77h6v1h-6z M81,77h6v1h-6z M93,77h4v1h-4z M104,77h5v1h-5z M115,77h5v1h-5z M127,77h5v1h-5z M138,77h6v1h-6z M149,77h5v1h-5z M160,77h5v1h-5z M171,77h5v1h-5z M182,77h5v1h-5z M193,77h5v1h-5z M204,77h5v1h-5z M215,77h5v1h-5z M227,77h5v1h-5z M238,77h5v1h-5z M250,77h5v1h-5z M261,75h4v3h-4z M0,78h5v1h-5z M9,78h5v1h-5z M21,78h6v1h-6z M33,78h5v1h-5z M44,78h6v1h-6z M57,78h4v1h-4z M68,78h5v1h-5z M80,78h5v1h-5z M91,78h5v1h-5z M103,78h5v1h-5z M114,78h6v1h-6z M126,78h5v1h-5z M137,78h5v1h-5z M148,78h5v1h-5z M159,78h5v1h-5z M170,78h5v1h-5z M181,78h5v1h-5z M192,78h5v1h-5z M203,78h5v1h-5z M214,78h5v1h-5z M226,78h4v1h-4z M237,78h5v1h-5z M249,78h6v1h-6z M8,79h5v1h-5z M21,79h4v1h-4z M32,79h5v1h-5z M43,79h5v1h-5z M55,79h5v1h-5z M67,79h5v1h-5z M79,79h5v1h-5z M90,79h6v1h-6z M102,79h4v1h-4z M113,79h6v1h-6z M125,79h5v1h-5z M136,79h5v1h-5z M147,79h6v1h-6z M158,79h5v1h-5z M169,79h5v1h-5z M180,79h5v1h-5z M191,79h5v1h-5z M202,79h4v1h-4z M213,79h6v1h-6z M225,79h4v1h-4z M237,79h4v1h-4z M248,79h5v1h-5z M260,78h4v2h-4z M1,79h4v2h-4z M7,80h6v1h-6z M19,80h6v1h-6z M30,80h6v1h-6z M42,80h5v1h-5z M54,80h5v1h-5z M66,80h5v1h-5z M78,80h5v1h-5z M90,80h5v1h-5z M101,80h4v1h-4z M112,80h6v1h-6z M124,80h5v1h-5z M135,80h6v1h-6z M146,80h5v1h-5z M157,80h5v1h-5z M168,80h5v1h-5z M179,80h5v1h-5z M190,80h5v1h-5z M201,80h5v1h-5z M212,80h5v1h-5z M223,80h5v1h-5z M236,80h5v1h-5z M247,80h5v1h-5z M259,80h5v1h-5z M1,81h11v1h-11z M18,81h5v1h-5z M30,81h5v1h-5z M41,81h5v1h-5z M53,81h5v1h-5z M65,81h6v1h-6z M77,81h6v1h-6z M89,81h5v1h-5z M100,81h5v1h-5z M111,81h5v1h-5z M123,81h5v1h-5z M134,81h5v1h-5z M145,81h5v1h-5z M156,81h5v1h-5z M167,81h5v1h-5z M178,81h5v1h-5z M189,81h5v1h-5z M200,81h5v1h-5z M211,81h5v1h-5z M223,81h4v1h-4z M234,81h5v1h-5z M246,81h5v1h-5z M258,81h6v1h-6z M1,82h9v1h-9z M17,82h5v1h-5z M29,82h5v1h-5z M40,82h6v1h-6z M52,82h5v1h-5z M64,82h5v1h-5z M76,82h5v1h-5z M88,82h5v1h-5z M99,82h5v1h-5z M110,82h5v1h-5z M122,82h5v1h-5z M133,82h5v1h-5z M144,82h5v1h-5z M155,82h5v1h-5z M166,82h5v1h-5z M177,82h5v1h-5z M188,82h5v1h-5z M199,82h5v1h-5z M210,82h5v1h-5z M222,82h5v1h-5z M233,82h6v1h-6z M245,82h5v1h-5z M257,82h7v1h-7z M1,83h8v1h-8z M16,83h5v1h-5z M27,83h6v1h-6z M39,83h5v1h-5z M51,83h6v1h-6z M64,83h4v1h-4z M75,83h5v1h-5z M87,83h4v1h-4z M98,83h5v1h-5z M109,83h6v1h-6z M121,83h5v1h-5z M132,83h5v1h-5z M143,83h5v1h-5z M154,83h5v1h-5z M165,83h5v1h-5z M176,83h5v1h-5z M187,83h5v1h-5z M198,83h5v1h-5z M209,83h5v1h-5z M220,83h6v1h-6z M232,83h5v1h-5z M244,83h6v1h-6z M256,83h8v1h-8z M1,84h7v1h-7z M15,84h6v1h-6z M27,84h5v1h-5z M38,84h6v1h-6z M50,84h6v1h-6z M62,84h5v1h-5z M74,84h5v1h-5z M85,84h6v1h-6z M97,84h5v1h-5z M108,84h6v1h-6z M120,84h5v1h-5z M131,84h5v1h-5z M142,84h5v1h-5z M153,84h5v1h-5z M163,84h6v1h-6z M175,84h5v1h-5z M186,84h5v1h-5z M197,84h4v1h-4z M208,84h5v1h-5z M219,84h6v1h-6z M232,84h4v1h-4z M243,84h6v1h-6z M255,84h9v1h-9z M14,85h5v1h-5z M25,85h6v1h-6z M37,85h5v1h-5z M50,85h5v1h-5z M61,85h5v1h-5z M73,85h5v1h-5z M84,85h6v1h-6z M96,85h5v1h-5z M107,85h5v1h-5z M118,85h6v1h-6z M130,85h5v1h-5z M141,85h6v1h-6z M152,85h6v1h-6z M162,85h6v1h-6z M174,85h5v1h-5z M185,85h5v1h-5z M195,85h5v1h-5z M207,85h5v1h-5z M218,85h6v1h-6z M230,85h5v1h-5z M242,85h5v1h-5z M254,85h5v1h-5z M1,85h6v2h-6z M13,86h6v1h-6z M25,86h5v1h-5z M36,86h5v1h-5z M48,86h6v1h-6z M61,86h4v1h-4z M72,86h5v1h-5z M84,86h5v1h-5z M95,86h4v1h-4z M106,86h5v1h-5z M118,86h5v1h-5z M129,86h5v1h-5z M140,86h5v1h-5z M151,86h5v1h-5z M162,86h5v1h-5z M173,86h5v1h-5z M183,86h6v1h-6z M194,86h6v1h-6z M206,86h5v1h-5z M217,86h6v1h-6z M229,86h6v1h-6z M241,86h5v1h-5z M252,86h6v1h-6z M1,87h5v1h-5z M12,87h5v1h-5z M23,87h6v1h-6z M35,87h5v1h-5z M47,87h6v1h-6z M59,87h5v1h-5z M71,87h6v1h-6z M83,87h4v1h-4z M94,87h5v1h-5z M105,87h6v1h-6z M117,87h6v1h-6z M128,87h5v1h-5z M139,87h5v1h-5z M149,87h6v1h-6z M160,87h6v1h-6z M172,87h5v1h-5z M183,87h5v1h-5z M194,87h5v1h-5z M205,87h5v1h-5z M216,87h6v1h-6z M228,87h5v1h-5z M240,87h6v1h-6z M252,87h5v1h-5z M261,85h3v3h-3z M11,88h5v1h-5z M22,88h6v1h-6z M34,88h5v1h-5z M46,88h5v1h-5z M58,88h5v1h-5z M70,88h6v1h-6z M82,88h5v1h-5z M93,88h5v1h-5z M104,88h6v1h-6z M116,88h5v1h-5z M127,88h5v1h-5z M138,88h6v1h-6z M149,88h5v1h-5z M160,88h5v1h-5z M171,88h5v1h-5z M181,88h6v1h-6z M192,88h6v1h-6z M204,88h5v1h-5z M215,88h6v1h-6z M227,88h5v1h-5z M239,88h6v1h-6z M251,88h5v1h-5z M1,88h4v2h-4z M10,89h5v1h-5z M21,89h6v1h-6z M33,89h5v1h-5z M45,89h5v1h-5z M57,89h5v1h-5z M69,89h6v1h-6z M81,89h5v1h-5z M91,89h6v1h-6z M103,89h5v1h-5z M115,89h6v1h-6z M126,89h6v1h-6z M137,89h5v1h-5z M148,89h6v1h-6z M159,89h5v1h-5z M170,89h5v1h-5z M181,89h5v1h-5z M192,89h5v1h-5z M203,89h5v1h-5z M214,89h6v1h-6z M226,89h6v1h-6z M238,89h5v1h-5z M250,89h5v1h-5z M260,88h4v2h-4z M21,90h5v1h-5z M33,90h4v1h-4z M44,90h5v1h-5z M57,90h4v1h-4z M68,90h5v1h-5z M80,90h5v1h-5z M90,90h6v1h-6z M102,90h5v1h-5z M114,90h6v1h-6z M125,90h6v1h-6z M136,90h6v1h-6z M147,90h6v1h-6z M158,90h5v1h-5z M169,90h5v1h-5z M180,90h5v1h-5z M191,90h5v1h-5z M202,90h5v1h-5z M213,90h6v1h-6z M225,90h6v1h-6z M237,90h6v1h-6z M249,90h5v1h-5z M259,90h5v1h-5z M9,90h5v2h-5z M31,91h5v1h-5z M43,91h6v1h-6z M55,91h5v1h-5z M68,91h4v1h-4z M79,91h5v1h-5z M90,91h5v1h-5z M101,91h6v1h-6z M113,91h6v1h-6z M124,91h6v1h-6z M134,91h6v1h-6z M146,91h6v1h-6z M157,91h6v1h-6z M167,91h7v1h-7z M178,91h7v1h-7z M190,91h6v1h-6z M201,91h7v1h-7z M211,91h8v1h-8z M223,91h10v1h-10z M235,91h29v1h-29z M0,90h5v3h-5z M7,92h8v1h-8z M19,91h6v2h-6z M30,92h7v1h-7z M42,92h7v1h-7z M54,92h7v1h-7z M66,92h7v1h-7z M77,92h8v1h-8z M88,92h9v1h-9z M98,92h22v1h-22z M121,92h144v1h-144z M0,93h265v1h-265z M0,94h264v1h-264z M0,95h169v1h-169z M171,95h4v1h-4z M176,95h10v1h-10z M193,95h1v1h-1z M199,95h3v1h-3z M211,95h4v1h-4z M222,95h1v1h-1z M0,96h82v1h-82z M260,95h4v2h-4z M1,97h4v1h-4z M0,98h4v1h-4z M1,99h3v2h-3z M261,97h3v4h-3z M1,101h4v1h-4z M1,102h3v1h-3z M261,101h4v3h-4z M1,103h4v2h-4z M0,105h5v2h-5z M261,104h3v4h-3z M261,108h4v3h-4z M0,107h4v8h-4z M261,111h3v7h-3z M1,115h3v4h-3z M261,118h4v1h-4z M261,119h3v10h-3z M0,119h4v11h-4z M261,129h4v1h-4z M0,130h5v1h-5z M261,130h3v1h-3z M1,131h4v1h-4z M230,131h3v1h-3z M251,131h1v1h-1z M256,131h1v1h-1z M260,131h4v1h-4z M1,132h11v1h-11z M20,132h5v1h-5z M27,132h8v1h-8z M39,132h3v1h-3z M50,132h35v1h-35z M88,132h176v1h-176z M1,133h263v2h-263z M2,135h13v1h-13z M17,135h8v1h-8z M27,135h214v1h-214z M249,135h15v1h-15z M261,136h2v1h-2z
  "/>
</svg>