<?xml version="1.0" encoding="UTF-8"?>
<svg xmlns="http://www.w3.org/2000/svg" viewBox="0 0 266 139" width="266" height="139">
  <title>14 Sandy limestone</title>
  <path fill="#111111" fill-rule="nonzero" d="
    M1,0h7v1h-7z M0,1h43v1h-43z M53,1h1v1h-1z M0,2h88v1h-88z M89,2h3v1h-3z M93,2h6v1h-6z M102,2h2v1h-2z M120,2h1v1h-1z M0,3h198v1h-198z M201,3h7v1h-7z M209,3h2v1h-2z M221,3h42v1h-42z M0,4h265v1h-265z M9,5h1v1h-1z M15,5h10v1h-10z M27,5h2v1h-2z M30,5h235v1h-235z M0,5h5v2h-5z M31,6h2v1h-2z M54,6h5v1h-5z M67,6h1v1h-1z M69,6h10v1h-10z M80,6h5v1h-5z M89,6h8v1h-8z M98,6h167v1h-167z M30,7h3v1h-3z M125,7h5v1h-5z M153,7h6v1h-6z M160,7h5v1h-5z M169,7h1v1h-1z M176,7h54v1h-54z M234,7h12v1h-12z M249,7h5v1h-5z M15,6h4v3h-4z M55,7h3v2h-3z M75,7h3v2h-3z M87,8h2v1h-2z M102,7h1v2h-1z M155,8h3v1h-3z M208,8h2v1h-2z M227,8h3v1h-3z M243,8h1v1h-1z M16,9h2v1h-2z M29,8h5v2h-5z M45,8h3v2h-3z M74,9h5v1h-5z M86,9h3v1h-3z M101,9h3v1h-3z M115,9h2v1h-2z M154,9h5v1h-5z M175,9h2v1h-2z M199,8h5v2h-5z M208,9h3v1h-3z M257,7h8v3h-8z M30,10h3v1h-3z M44,10h4v1h-4z M54,9h5v2h-5z M75,10h4v1h-4z M100,10h4v1h-4z M125,8h4v3h-4z M155,10h4v1h-4z M174,10h4v1h-4z M191,8h5v3h-5z M226,9h4v2h-4z M257,10h9v1h-9z M45,11h3v1h-3z M77,11h1v1h-1z M86,10h4v2h-4z M101,11h3v1h-3z M114,10h4v2h-4z M126,11h3v1h-3z M133,9h5v3h-5z M155,11h2v1h-2z M175,11h3v1h-3z M192,11h3v1h-3z M200,10h3v2h-3z M207,10h4v2h-4z M227,11h3v1h-3z M8,12h3v1h-3z M55,11h3v2h-3z M87,12h2v1h-2z M115,12h2v1h-2z M135,12h1v1h-1z M146,12h3v1h-3z M165,12h2v1h-2z M219,12h1v1h-1z M227,12h2v1h-2z M243,9h3v4h-3z M64,13h4v1h-4z M199,12h4v2h-4z M7,13h4v2h-4z M145,13h5v2h-5z M182,14h3v1h-3z M218,13h3v2h-3z M8,15h2v1h-2z M18,13h4v3h-4z M37,15h3v1h-3z M63,14h5v2h-5z M74,15h2v1h-2z M125,12h4v4h-4z M145,15h4v1h-4z M165,13h3v3h-3z M199,14h5v2h-5z M219,15h2v1h-2z M234,14h4v2h-4z M252,15h4v1h-4z M261,11h5v5h-5z M19,16h3v1h-3z M37,16h4v1h-4z M55,13h4v4h-4z M64,16h3v1h-3z M73,16h4v1h-4z M92,16h3v1h-3z M108,16h3v1h-3z M182,15h4v2h-4z M192,16h4v1h-4z M235,16h3v1h-3z M251,16h5v1h-5z M37,17h3v1h-3z M54,17h5v1h-5z M92,17h4v1h-4z M121,17h1v1h-1z M137,17h2v1h-2z M182,17h3v1h-3z M252,17h4v1h-4z M55,18h4v1h-4z M73,17h5v2h-5z M92,18h3v1h-3z M107,17h4v2h-4z M120,18h2v1h-2z M136,18h4v1h-4z M174,18h5v1h-5z M210,18h3v1h-3z M228,18h2v1h-2z M245,18h3v1h-3z M253,18h3v1h-3z M0,7h4v13h-4z M6,19h1v1h-1z M55,19h3v1h-3z M74,19h2v1h-2z M108,19h3v1h-3z M121,19h1v1h-1z M192,17h5v3h-5z M210,19h4v1h-4z M227,19h4v1h-4z M244,19h5v1h-5z M262,16h4v4h-4z M0,20h26v1h-26z M54,20h5v1h-5z M109,20h2v1h-2z M126,16h4v5h-4z M136,19h3v2h-3z M157,18h4v3h-4z M174,19h4v2h-4z M200,16h3v5h-3z M211,20h3v1h-3z M227,20h3v1h-3z M245,20h4v1h-4z M0,21h91v1h-91z M92,21h20v1h-20z M113,21h2v1h-2z M116,21h2v1h-2z M125,21h5v1h-5z M135,21h4v1h-4z M156,21h4v1h-4z M174,21h5v1h-5z M193,20h3v2h-3z M199,21h4v1h-4z M211,21h2v1h-2z M229,21h1v1h-1z M244,21h5v1h-5z M257,21h2v1h-2z M261,20h5v2h-5z M0,22h266v1h-266z M0,23h265v1h-265z M0,24h5v1h-5z M11,24h2v1h-2z M36,24h229v1h-229z M81,25h1v1h-1z M86,25h13v1h-13z M115,25h3v1h-3z M123,25h4v1h-4z M130,25h15v1h-15z M149,25h1v1h-1z M151,25h20v1h-20z M172,25h31v1h-31z M205,25h46v1h-46z M254,25h12v1h-12z M87,26h5v1h-5z M114,26h3v1h-3z M201,26h2v1h-2z M239,26h2v1h-2z M261,26h5v1h-5z M9,25h4v3h-4z M29,27h1v1h-1z M80,27h2v1h-2z M98,27h2v1h-2z M140,26h4v2h-4z M163,26h5v2h-5z M172,27h2v1h-2z M200,27h3v1h-3z M238,27h3v1h-3z M9,28h3v1h-3z M28,28h3v1h-3z M47,28h2v1h-2z M68,28h3v1h-3z M79,28h3v1h-3z M97,28h3v1h-3z M127,28h2v1h-2z M141,28h2v1h-2z M156,26h3v3h-3z M171,28h3v1h-3z M238,28h4v1h-4z M27,29h4v1h-4z M67,29h4v1h-4z M79,29h4v1h-4z M87,27h4v3h-4z M114,27h4v3h-4z M185,29h2v1h-2z M215,26h4v4h-4z M238,29h3v1h-3z M257,29h3v1h-3z M262,27h4v3h-4z M68,30h3v1h-3z M97,29h4v2h-4z M171,29h4v2h-4z M200,28h4v3h-4z M216,30h3v1h-3z M261,30h5v1h-5z M16,31h3v1h-3z M46,29h3v3h-3z M80,30h2v2h-2z M98,31h2v1h-2z M126,29h4v3h-4z M171,31h3v1h-3z M184,30h5v2h-5z M202,31h1v1h-1z M256,30h4v2h-4z M261,31h4v1h-4z M15,32h4v1h-4z M47,32h1v1h-1z M87,30h5v3h-5z M127,32h2v1h-2z M185,32h4v1h-4z M208,32h1v1h-1z M247,30h4v3h-4z M257,32h2v1h-2z M16,33h4v1h-4z M58,33h2v1h-2z M107,33h1v1h-1z M186,33h2v1h-2z M238,33h1v1h-1z M248,33h1v1h-1z M17,34h1v1h-1z M36,34h3v1h-3z M57,34h3v1h-3z M136,34h3v1h-3z M148,32h3v3h-3z M179,34h1v1h-1z M222,34h1v1h-1z M262,32h4v3h-4z M58,35h2v1h-2z M87,33h4v3h-4z M149,35h2v1h-2z M178,35h3v1h-3z M193,35h2v1h-2z M207,33h4v3h-4z M237,34h4v2h-4z M8,36h2v1h-2z M35,35h5v2h-5z M73,36h3v1h-3z M88,36h3v1h-3z M106,34h4v3h-4z M135,35h4v2h-4z M191,36h4v1h-4z M208,36h2v1h-2z M229,26h4v11h-4z M238,36h1v1h-1z M36,37h3v1h-3z M50,37h1v1h-1z M107,37h2v1h-2z M137,37h1v1h-1z M177,36h4v2h-4z M221,35h4v3h-4z M229,37h3v1h-3z M6,37h4v2h-4z M24,38h1v1h-1z M49,38h3v1h-3z M72,37h4v2h-4z M82,38h3v1h-3z M119,36h4v3h-4z M157,38h2v1h-2z M179,38h2v1h-2z M192,37h3v2h-3z M222,38h2v1h-2z M254,38h4v1h-4z M7,39h3v1h-3z M48,39h5v1h-5z M73,39h2v1h-2z M82,39h4v1h-4z M87,37h4v3h-4z M119,39h2v1h-2z M202,39h2v1h-2z M229,38h4v2h-4z M245,39h1v1h-1z M254,39h5v1h-5z M23,39h4v2h-4z M48,40h4v1h-4z M63,40h3v1h-3z M81,40h5v1h-5z M96,38h4v3h-4z M146,40h1v1h-1z M156,39h5v2h-5z M163,28h4v13h-4z M216,40h1v1h-1z M254,40h4v1h-4z M0,25h4v17h-4z M23,41h3v1h-3z M50,41h2v1h-2z M82,41h3v1h-3z M97,41h3v1h-3z M111,41h4v1h-4z M156,41h4v1h-4z M170,41h3v1h-3z M214,41h4v1h-4z M228,40h5v2h-5z M255,41h3v1h-3z M261,35h5v7h-5z M0,42h5v1h-5z M13,42h1v1h-1z M50,42h1v1h-1z M62,41h4v2h-4z M83,42h1v1h-1z M88,40h3v3h-3z M131,41h3v2h-3z M145,41h3v2h-3z M157,42h2v1h-2z M163,41h5v2h-5z M182,41h4v2h-4z M201,40h4v3h-4z M213,42h5v1h-5z M229,42h4v1h-4z M234,41h4v2h-4z M243,40h4v3h-4z M0,43h27v1h-27z M35,43h1v1h-1z M62,43h5v1h-5z M87,43h4v1h-4z M110,42h5v2h-5z M131,43h2v1h-2z M163,43h4v1h-4z M169,42h4v2h-4z M182,43h5v1h-5z M229,43h3v1h-3z M234,43h3v1h-3z M262,42h3v2h-3z M0,44h108v1h-108z M110,44h11v1h-11z M133,44h1v1h-1z M140,44h1v1h-1z M145,44h2v1h-2z M157,44h1v1h-1z M162,44h6v1h-6z M169,44h5v1h-5z M182,44h6v1h-6z M197,44h1v1h-1z M202,43h3v2h-3z M214,43h4v2h-4z M228,44h5v1h-5z M235,44h2v1h-2z M245,43h1v2h-1z M261,44h5v1h-5z M0,45h266v1h-266z M0,46h265v1h-265z M12,47h4v1h-4z M36,47h5v1h-5z M43,47h4v1h-4z M49,47h14v1h-14z M65,47h200v1h-200z M12,48h3v1h-3z M100,48h1v1h-1z M102,48h1v1h-1z M119,48h4v1h-4z M124,48h6v1h-6z M137,48h7v1h-7z M149,48h11v1h-11z M164,48h21v1h-21z M188,48h1v1h-1z M190,48h2v1h-2z M195,48h5v1h-5z M201,48h15v1h-15z M218,48h35v1h-35z M254,48h11v1h-11z M43,49h3v1h-3z M70,49h2v1h-2z M86,48h2v2h-2z M114,48h2v2h-2z M125,49h5v1h-5z M139,49h2v1h-2z M156,49h3v1h-3z M206,49h1v1h-1z M225,49h3v1h-3z M248,49h1v1h-1z M257,49h9v1h-9z M11,49h5v2h-5z M100,50h3v1h-3z M114,50h3v1h-3z M155,50h4v1h-4z M190,50h3v1h-3z M205,50h3v1h-3z M211,49h5v2h-5z M224,50h4v1h-4z M248,50h2v1h-2z M256,50h10v1h-10z M13,51h3v1h-3z M23,50h4v2h-4z M42,50h4v2h-4z M55,51h3v1h-3z M69,50h4v2h-4z M99,51h4v1h-4z M114,51h4v1h-4z M140,50h4v2h-4z M155,51h5v1h-5z M171,49h4v3h-4z M237,51h2v1h-2z M248,51h3v1h-3z M257,51h9v1h-9z M0,47h4v6h-4z M24,52h3v1h-3z M43,52h3v1h-3z M70,52h3v1h-3z M85,50h4v3h-4z M99,52h5v1h-5z M114,52h3v1h-3z M140,52h3v1h-3z M156,52h4v1h-4z M172,52h2v1h-2z M190,51h4v2h-4z M247,52h4v1h-4z M258,52h1v1h-1z M0,53h5v1h-5z M6,53h2v1h-2z M54,52h4v2h-4z M86,53h2v1h-2z M101,53h2v1h-2z M115,53h2v1h-2z M141,53h2v1h-2z M157,53h2v1h-2z M182,53h2v1h-2z M191,53h3v1h-3z M205,51h4v3h-4z M223,51h5v3h-5z M236,52h4v2h-4z M0,54h8v1h-8z M55,54h3v1h-3z M133,54h2v1h-2z M164,53h3v2h-3z M224,54h4v1h-4z M236,54h3v1h-3z M248,53h3v2h-3z M6,55h2v1h-2z M125,50h4v6h-4z M164,55h4v1h-4z M181,54h4v2h-4z M200,55h1v1h-1z M212,51h4v5h-4z M0,55h5v2h-5z M16,56h3v1h-3z M30,56h3v1h-3z M64,56h2v1h-2z M107,56h2v1h-2z M131,55h5v2h-5z M148,54h4v3h-4z M165,56h3v1h-3z M175,56h1v1h-1z M182,56h3v1h-3z M199,56h3v1h-3z M220,56h2v1h-2z M15,57h4v1h-4z M29,57h4v1h-4z M47,57h2v1h-2z M63,57h4v1h-4z M77,56h4v2h-4z M92,57h2v1h-2z M125,56h5v2h-5z M133,57h2v1h-2z M149,57h2v1h-2z M174,57h3v1h-3z M199,57h4v1h-4z M212,56h3v2h-3z M230,57h2v1h-2z M244,57h1v1h-1z M254,57h2v1h-2z M0,57h4v2h-4z M30,58h3v1h-3z M37,48h4v11h-4z M62,58h5v1h-5z M76,58h5v1h-5z M142,58h3v1h-3z M173,58h5v1h-5z M200,58h3v1h-3z M212,58h4v1h-4z M229,58h4v1h-4z M253,58h4v1h-4z M0,59h8v1h-8z M16,58h3v2h-3z M31,59h1v1h-1z M36,59h5v1h-5z M46,58h4v2h-4z M62,59h4v1h-4z M77,59h3v1h-3z M106,57h4v3h-4z M119,57h4v3h-4z M157,58h3v2h-3z M174,59h4v1h-4z M192,58h3v2h-3z M219,57h4v3h-4z M243,59h1v1h-1z M0,60h42v1h-42z M44,60h10v1h-10z M56,60h3v1h-3z M62,60h5v1h-5z M76,60h3v1h-3z M91,58h4v3h-4z M102,60h8v1h-8z M119,60h3v1h-3z M125,58h4v3h-4z M141,59h5v2h-5z M156,60h5v1h-5z M174,60h3v1h-3z M191,60h4v1h-4z M208,60h2v1h-2z M211,59h5v2h-5z M221,60h1v1h-1z M229,59h5v2h-5z M243,60h3v1h-3z M253,59h3v2h-3z M261,52h5v9h-5z M0,61h133v1h-133z M135,61h1v1h-1z M139,61h24v1h-24z M164,61h3v1h-3z M170,61h2v1h-2z M173,61h5v1h-5z M180,61h1v1h-1z M188,61h1v1h-1z M190,61h8v1h-8z M202,61h15v1h-15z M220,61h3v1h-3z M229,61h8v1h-8z M240,61h8v1h-8z M252,61h14v1h-14z M0,62h266v1h-266z M11,63h255v1h-255z M0,63h5v2h-5z M47,64h6v1h-6z M58,64h2v1h-2z M67,64h3v1h-3z M71,64h194v1h-194z M122,65h3v1h-3z M130,65h1v1h-1z M155,65h13v1h-13z M169,65h12v1h-12z M184,65h20v1h-20z M207,65h4v1h-4z M212,65h23v1h-23z M236,65h13v1h-13z M250,65h3v1h-3z M254,65h5v1h-5z M260,65h5v1h-5z M7,66h3v1h-3z M86,66h3v1h-3z M164,66h4v1h-4z M195,66h3v1h-3z M218,66h1v1h-1z M261,66h4v1h-4z M6,67h4v1h-4z M19,67h1v1h-1z M64,67h1v1h-1z M113,67h2v1h-2z M147,67h1v1h-1z M196,67h1v1h-1z M258,67h1v1h-1z M262,67h3v1h-3z M7,68h2v1h-2z M19,68h2v1h-2z M48,65h3v4h-3z M64,68h3v1h-3z M85,67h4v2h-4z M98,68h3v1h-3z M130,67h4v2h-4z M159,66h3v3h-3z M164,67h5v2h-5z M176,66h4v3h-4z M219,67h1v2h-1z M239,66h5v3h-5z M257,68h2v1h-2z M261,68h4v1h-4z M20,69h1v1h-1z M63,69h4v1h-4z M112,68h3v2h-3z M131,69h3v1h-3z M147,68h2v2h-2z M164,69h4v1h-4z M177,69h2v1h-2z M219,69h2v1h-2z M231,68h4v2h-4z M246,69h2v1h-2z M29,70h4v1h-4z M64,70h3v1h-3z M97,69h5v2h-5z M205,70h2v1h-2z M233,70h1v1h-1z M256,69h4v2h-4z M98,71h3v1h-3z M205,71h4v1h-4z M245,70h4v2h-4z M257,71h3v1h-3z M261,69h5v3h-5z M15,72h2v1h-2z M29,71h5v2h-5z M42,72h2v1h-2z M55,72h2v1h-2z M123,72h3v1h-3z M158,69h5v4h-5z M204,72h5v1h-5z M246,72h2v1h-2z M30,73h3v1h-3z M122,73h4v1h-4z M137,73h2v1h-2z M159,73h4v1h-4z M170,73h1v1h-1z M187,73h2v1h-2z M205,73h3v1h-3z M15,73h3v2h-3z M41,73h4v2h-4z M54,73h4v2h-4z M90,74h3v1h-3z M106,74h3v1h-3z M123,74h3v1h-3z M187,74h3v1h-3z M206,74h1v1h-1z M239,69h4v6h-4z M261,72h4v3h-4z M16,75h2v1h-2z M42,75h3v1h-3z M69,75h2v1h-2z M90,75h4v1h-4z M105,75h4v1h-4z M123,75h2v1h-2z M137,74h4v2h-4z M151,74h3v2h-3z M168,74h5v2h-5z M187,75h2v1h-2z M224,74h4v2h-4z M261,75h5v1h-5z M0,65h4v12h-4z M7,76h2v1h-2z M55,75h3v2h-3z M90,76h3v1h-3z M105,76h3v1h-3z M137,76h3v1h-3z M169,76h3v1h-3z M197,76h3v1h-3z M225,76h2v1h-2z M6,77h4v1h-4z M24,77h4v1h-4z M91,77h1v1h-1z M105,77h2v1h-2z M151,76h4v2h-4z M170,77h1v1h-1z M213,76h3v2h-3z M240,75h3v3h-3z M251,75h4v3h-4z M6,78h5v1h-5z M69,76h3v3h-3z M116,78h2v1h-2z M152,78h2v1h-2z M158,74h4v5h-4z M179,78h1v1h-1z M213,78h2v1h-2z M233,78h3v1h-3z M0,77h5v3h-5z M6,79h4v1h-4z M24,78h5v2h-5z M197,77h4v3h-4z M232,79h4v1h-4z M24,80h4v1h-4z M36,80h3v1h-3z M50,80h2v1h-2z M115,79h4v2h-4z M128,80h4v1h-4z M159,79h3v2h-3z M178,79h3v2h-3z M198,80h1v1h-1z M233,80h3v1h-3z M247,80h1v1h-1z M261,76h4v5h-4z M0,80h4v2h-4z M16,81h3v1h-3z M49,81h4v1h-4z M60,81h3v1h-3z M83,81h1v1h-1z M99,81h3v1h-3z M116,81h3v1h-3z M127,81h5v1h-5z M143,81h2v1h-2z M159,81h4v1h-4z M178,81h4v1h-4z M222,81h2v1h-2z M234,81h2v1h-2z M246,81h3v1h-3z M257,81h8v1h-8z M49,82h3v1h-3z M60,82h4v1h-4z M116,82h2v1h-2z M128,82h4v1h-4z M143,82h3v1h-3z M158,82h5v1h-5z M166,82h1v1h-1z M179,82h1v1h-1z M189,82h2v1h-2z M206,82h3v1h-3z M246,82h4v1h-4z M0,82h5v2h-5z M15,82h5v2h-5z M49,83h2v1h-2z M61,83h2v1h-2z M76,65h4v19h-4z M99,82h4v2h-4z M129,83h2v1h-2z M143,83h2v1h-2z M159,83h4v1h-4z M206,83h4v1h-4z M256,82h9v2h-9z M0,84h10v1h-10z M11,84h10v1h-10z M35,81h4v4h-4z M62,84h1v1h-1z M76,84h5v1h-5z M82,82h3v3h-3z M99,84h3v1h-3z M205,84h5v1h-5z M221,82h4v3h-4z M239,78h4v7h-4z M246,83h3v2h-3z M257,84h3v1h-3z M0,85h63v1h-63z M68,85h3v1h-3z M75,85h11v1h-11z M99,85h4v1h-4z M159,84h3v2h-3z M165,83h4v3h-4z M188,83h4v3h-4z M206,85h3v1h-3z M222,85h3v1h-3z M239,85h5v1h-5z M0,86h117v1h-117z M157,86h14v1h-14z M181,86h3v1h-3z M188,86h5v1h-5z M195,86h2v1h-2z M205,86h4v1h-4z M219,86h1v1h-1z M222,86h5v1h-5z M238,86h7v1h-7z M249,86h5v1h-5z M261,84h4v3h-4z M0,87h265v1h-265z M0,88h5v1h-5z M6,88h1v1h-1z M8,88h8v1h-8z M19,88h2v1h-2z M22,88h14v1h-14z M38,88h227v1h-227z M23,89h5v1h-5z M62,89h2v1h-2z M65,89h6v1h-6z M76,89h189v1h-189z M24,90h4v1h-4z M49,89h2v2h-2z M66,90h4v1h-4z M84,90h4v1h-4z M116,90h6v1h-6z M130,90h1v1h-1z M134,90h4v1h-4z M141,90h2v1h-2z M150,90h8v1h-8z M159,90h3v1h-3z M163,90h4v1h-4z M169,90h5v1h-5z M179,90h3v1h-3z M185,90h4v1h-4z M193,90h6v1h-6z M206,90h1v1h-1z M212,90h15v1h-15z M228,90h4v1h-4z M233,90h9v1h-9z M253,90h5v1h-5z M259,90h1v1h-1z M0,89h4v3h-4z M25,91h3v1h-3z M103,90h3v2h-3z M135,91h2v1h-2z M170,91h2v1h-2z M186,91h3v1h-3z M16,92h2v1h-2z M48,91h3v2h-3z M66,91h5v2h-5z M135,92h3v1h-3z M151,91h4v2h-4z M235,91h5v2h-5z M255,92h2v1h-2z M50,93h1v1h-1z M66,93h4v1h-4z M85,91h4v3h-4z M103,92h4v2h-4z M117,91h4v3h-4z M135,93h2v1h-2z M152,93h3v1h-3z M169,92h3v2h-3z M186,92h4v2h-4z M215,91h4v3h-4z M236,93h4v1h-4z M58,94h2v1h-2z M68,94h1v1h-1z M76,94h3v1h-3z M86,94h2v1h-2z M95,94h2v1h-2z M112,94h3v1h-3z M116,94h5v1h-5z M169,94h2v1h-2z M179,94h1v1h-1z M187,94h2v1h-2z M216,94h1v1h-1z M237,94h2v1h-2z M254,93h4v2h-4z M0,92h9v4h-9z M15,93h3v3h-3z M30,89h4v7h-4z M37,94h4v2h-4z M57,95h4v1h-4z M179,95h2v1h-2z M205,95h1v1h-1z M227,95h3v1h-3z M255,95h2v1h-2z M0,96h5v1h-5z M6,96h13v1h-13z M30,96h5v1h-5z M36,96h5v1h-5z M125,94h4v3h-4z M144,95h2v2h-2z M162,96h1v1h-1z M178,96h3v1h-3z M227,96h4v1h-4z M245,96h4v1h-4z M261,90h4v7h-4z M0,97h46v1h-46z M47,97h1v1h-1z M51,97h2v1h-2z M56,96h5v2h-5z M68,97h6v1h-6z M75,95h5v3h-5z M94,95h4v3h-4z M111,95h4v3h-4z M117,95h4v3h-4z M162,97h2v1h-2z M177,97h4v1h-4z M194,91h4v7h-4z M226,97h5v1h-5z M245,97h5v1h-5z M261,97h5v1h-5z M0,98h107v1h-107z M111,98h11v1h-11z M126,97h1v2h-1z M145,98h2v1h-2z M177,98h5v1h-5z M193,98h6v1h-6z M203,96h4v3h-4z M214,98h2v1h-2z M227,98h6v1h-6z M235,98h1v1h-1z M245,98h6v1h-6z M259,98h7v1h-7z M0,99h265v1h-265z M0,100h7v1h-7z M9,100h1v1h-1z M11,100h13v1h-13z M25,100h240v1h-240z M0,101h5v1h-5z M46,101h1v1h-1z M62,101h3v1h-3z M68,101h197v1h-197z M25,102h2v1h-2z M63,102h2v1h-2z M73,102h5v1h-5z M120,102h7v1h-7z M129,102h10v1h-10z M141,102h4v1h-4z M147,102h11v1h-11z M160,102h21v1h-21z M182,102h31v1h-31z M214,102h15v1h-15z M230,102h13v1h-13z M245,102h8v1h-8z M257,102h2v1h-2z M8,103h4v1h-4z M62,103h3v1h-3z M74,103h4v1h-4z M80,102h5v2h-5z M101,102h4v2h-4z M150,103h5v1h-5z M202,103h5v1h-5z M232,103h2v1h-2z M261,102h4v2h-4z M7,104h6v1h-6z M74,104h3v1h-3z M81,104h3v1h-3z M101,104h3v1h-3z M160,103h3v2h-3z M202,104h3v1h-3z M262,104h4v1h-4z M7,105h5v1h-5z M45,102h4v4h-4z M62,104h4v2h-4z M102,105h2v1h-2z M120,103h3v3h-3z M142,105h2v1h-2z M160,105h4v1h-4z M183,103h3v3h-3z M203,105h2v1h-2z M232,104h3v2h-3z M246,105h2v1h-2z M8,106h4v1h-4z M24,103h3v4h-3z M36,106h3v1h-3z M63,106h2v1h-2z M74,105h4v2h-4z M121,106h2v1h-2z M161,106h2v1h-2z M183,106h2v1h-2z M203,106h1v1h-1z M215,103h4v4h-4z M245,106h4v1h-4z M18,107h1v1h-1z M69,107h3v1h-3z M73,107h5v1h-5z M93,107h1v1h-1z M194,107h3v1h-3z M216,107h2v1h-2z M246,107h3v1h-3z M256,107h2v1h-2z M16,108h4v1h-4z M35,107h5v2h-5z M54,108h3v1h-3z M68,108h9v1h-9z M92,108h3v1h-3z M132,108h2v1h-2z M169,106h3v3h-3z M246,108h2v1h-2z M256,108h3v1h-3z M16,109h5v1h-5z M37,109h1v1h-1z M53,109h4v1h-4z M68,109h10v1h-10z M91,109h5v1h-5z M111,108h3v2h-3z M131,109h4v1h-4z M170,109h1v1h-1z M194,108h4v2h-4z M210,109h1v1h-1z M223,103h4v7h-4z M256,109h2v1h-2z M8,110h1v1h-1z M16,110h4v1h-4z M54,110h2v1h-2z M69,110h3v1h-3z M83,110h1v1h-1z M92,110h3v1h-3z M111,110h2v1h-2z M132,110h3v1h-3z M177,110h3v1h-3z M195,110h1v1h-1z M262,105h3v6h-3z M7,111h3v1h-3z M18,111h1v1h-1z M28,111h4v1h-4z M47,111h2v1h-2z M70,111h1v1h-1z M93,111h1v1h-1z M209,110h4v2h-4z M231,111h2v1h-2z M6,112h5v1h-5z M82,111h4v2h-4z M106,112h1v1h-1z M125,112h3v1h-3z M158,112h2v1h-2z M187,112h2v1h-2z M209,112h3v1h-3z M218,112h2v1h-2z M223,110h3v3h-3z M230,112h4v1h-4z M239,112h3v1h-3z M261,111h5v2h-5z M0,102h4v12h-4z M6,113h4v1h-4z M27,112h5v2h-5z M46,112h4v2h-4z M63,113h2v1h-2z M82,113h3v1h-3z M104,113h3v1h-3z M142,113h2v1h-2z M177,111h4v3h-4z M202,113h1v1h-1z M211,113h1v1h-1z M229,113h5v1h-5z M238,113h4v1h-4z M0,114h5v1h-5z M6,114h5v1h-5z M28,114h3v1h-3z M46,114h3v1h-3z M62,114h4v1h-4z M83,114h2v1h-2z M103,114h4v1h-4z M124,113h4v2h-4z M142,114h3v1h-3z M170,114h1v1h-1z M178,114h1v1h-1z M200,114h4v1h-4z M218,113h9v2h-9z M230,114h4v1h-4z M237,114h5v1h-5z M0,115h31v1h-31z M45,115h5v1h-5z M61,115h5v1h-5z M74,110h4v6h-4z M104,115h3v1h-3z M125,115h2v1h-2z M150,104h4v12h-4z M170,115h3v1h-3z M186,113h4v3h-4z M223,115h4v1h-4z M249,113h3v3h-3z M262,113h4v3h-4z M0,116h86v1h-86z M87,116h1v1h-1z M92,116h3v1h-3z M97,116h5v1h-5z M103,116h6v1h-6z M114,116h2v1h-2z M119,116h3v1h-3z M142,115h2v2h-2z M149,116h5v1h-5z M157,113h4v4h-4z M169,116h5v1h-5z M185,116h4v1h-4z M199,115h6v2h-6z M218,115h4v2h-4z M223,116h5v1h-5z M231,115h2v2h-2z M238,115h4v2h-4z M249,116h4v1h-4z M261,116h5v1h-5z M0,117h265v1h-265z M0,118h266v1h-266z M0,119h5v1h-5z M7,119h1v1h-1z M23,119h3v1h-3z M31,119h5v1h-5z M39,119h6v1h-6z M47,119h16v1h-16z M66,119h200v1h-200z M0,120h4v1h-4z M7,120h3v1h-3z M23,120h2v1h-2z M40,120h3v1h-3z M58,120h1v1h-1z M76,120h1v1h-1z M93,120h3v1h-3z M111,120h7v1h-7z M120,120h4v1h-4z M126,120h8v1h-8z M135,120h106v1h-106z M243,120h23v1h-23z M0,121h5v1h-5z M6,121h5v1h-5z M23,121h3v1h-3z M57,121h3v1h-3z M73,121h1v1h-1z M92,121h3v1h-3z M185,121h6v1h-6z M201,121h1v1h-1z M214,121h2v1h-2z M230,121h3v1h-3z M245,121h5v1h-5z M261,121h5v1h-5z M7,122h3v1h-3z M31,120h4v3h-4z M39,121h4v2h-4z M72,122h3v1h-3z M112,121h3v2h-3z M125,122h3v1h-3z M152,122h2v1h-2z M165,122h2v1h-2z M185,122h5v1h-5z M193,121h2v2h-2z M213,122h2v1h-2z M262,122h4v1h-4z M0,122h4v2h-4z M7,123h2v1h-2z M40,123h3v1h-3z M57,122h4v2h-4z M72,123h4v1h-4z M106,123h2v1h-2z M125,123h4v1h-4z M138,123h4v1h-4z M152,123h3v1h-3z M186,123h4v1h-4z M193,123h3v1h-3z M246,122h4v2h-4z M0,124h5v1h-5z M15,124h3v1h-3z M32,123h3v2h-3z M49,124h2v1h-2z M58,124h1v1h-1z M73,124h2v1h-2z M84,124h2v1h-2z M92,122h4v3h-4z M124,124h5v1h-5z M138,124h5v1h-5z M164,123h3v2h-3z M193,124h4v1h-4z M212,123h3v2h-3z M247,124h2v1h-2z M15,125h4v1h-4z M66,125h2v1h-2z M83,125h3v1h-3z M105,124h3v2h-3z M125,125h4v1h-4z M163,125h4v1h-4z M194,125h3v1h-3z M213,125h2v1h-2z M229,122h4v4h-4z M240,125h1v1h-1z M0,125h4v2h-4z M15,126h3v1h-3z M48,125h4v2h-4z M84,126h2v1h-2z M106,126h1v1h-1z M126,126h2v1h-2z M139,125h4v2h-4z M151,124h5v3h-5z M165,126h1v1h-1z M177,126h1v1h-1z M195,126h1v1h-1z M238,126h4v1h-4z M16,127h2v1h-2z M27,125h8v3h-8z M48,127h3v1h-3z M65,126h4v2h-4z M175,127h3v1h-3z M185,124h5v4h-5z M221,127h2v1h-2z M238,127h5v1h-5z M255,127h1v1h-1z M261,123h5v5h-5z M0,127h5v2h-5z M41,128h2v1h-2z M49,128h2v1h-2z M66,128h3v1h-3z M99,128h2v1h-2z M175,128h2v1h-2z M221,128h3v1h-3z M238,128h4v1h-4z M253,128h4v1h-4z M0,129h4v1h-4z M7,128h3v2h-3z M21,129h2v1h-2z M58,129h2v1h-2z M77,129h2v1h-2z M120,129h3v1h-3z M131,129h4v1h-4z M186,128h4v2h-4z M253,129h5v1h-5z M0,130h5v1h-5z M6,130h4v1h-4z M20,130h4v1h-4z M98,129h5v2h-5z M112,123h4v8h-4z M185,130h5v1h-5z M203,128h3v3h-3z M221,129h4v2h-4z M231,130h3v1h-3z M253,130h4v1h-4z M0,131h11v1h-11z M20,131h5v1h-5z M31,128h4v4h-4z M40,129h3v3h-3z M57,130h4v2h-4z M99,131h4v1h-4z M119,130h4v2h-4z M144,131h3v1h-3z M157,130h3v2h-3z M186,131h4v1h-4z M212,131h3v1h-3z M230,131h4v1h-4z M246,131h2v1h-2z M255,131h1v1h-1z M262,128h4v4h-4z M0,132h37v1h-37z M39,132h5v1h-5z M50,132h1v1h-1z M56,132h5v1h-5z M76,130h4v3h-4z M91,132h4v1h-4z M112,131h3v2h-3z M119,132h3v1h-3z M130,130h5v3h-5z M143,132h4v1h-4z M168,132h3v1h-3z M182,132h2v1h-2z M186,132h3v1h-3z M211,132h4v1h-4z M261,132h4v1h-4z M0,133h100v1h-100z M105,133h2v1h-2z M111,133h5v1h-5z M118,133h5v1h-5z M129,133h6v1h-6z M143,133h5v1h-5z M157,132h4v2h-4z M167,133h5v1h-5z M181,133h9v1h-9z M193,131h4v3h-4z M211,133h5v1h-5z M230,132h5v2h-5z M245,132h4v2h-4z M261,133h5v1h-5z M1,134h265v1h-265z M2,135h2v1h-2z M5,135h261v1h-261z M13,136h1v1h-1z M28,136h2v1h-2z M33,136h1v1h-1z M36,136h230v1h-230z M66,137h1v1h-1z M69,137h17v1h-17z M90,137h3v1h-3z M95,137h170v1h-170z M115,138h2v1h-2z M163,138h3v1h-3z M168,138h3v1h-3z M177,138h4v1h-4z M191,138h12v1h-12z M214,138h5v1h-5z M224,138h7v1h-7z M234,138h1v1h-1z M236,138h7v1h-7z M251,138h8v1h-8z M262,138h2v1h-2z
  "/>
</svg>