<?xml version="1.0" encoding="UTF-8"?>
<svg xmlns="http://www.w3.org/2000/svg" viewBox="0 0 267 140" width="267" height="140">
  <title>51 Volcanic breccia or agglomerate</title>
  <path fill="#111111" fill-rule="nonzero" d="
    M3,1h259v1h-259z M2,2h262v1h-262z M2,3h263v1h-263z M1,4h5v1h-5z M51,4h1v1h-1z M53,4h1v1h-1z M56,4h10v1h-10z M74,4h3v1h-3z M82,4h5v1h-5z M95,4h6v1h-6z M102,4h12v1h-12z M122,4h3v1h-3z M146,4h20v1h-20z M175,4h4v1h-4z M193,4h18v1h-18z M213,4h2v1h-2z M216,4h1v1h-1z M229,4h3v1h-3z M234,4h31v1h-31z M9,4h7v2h-7z M147,5h19v1h-19z M175,5h2v1h-2z M195,5h16v1h-16z M236,5h10v1h-10z M261,5h4v1h-4z M8,6h9v1h-9z M75,6h2v1h-2z M103,5h11v2h-11z M146,6h20v1h-20z M174,6h4v1h-4z M195,6h18v1h-18z M231,6h2v1h-2z M237,6h1v1h-1z M242,6h5v1h-5z M254,5h4v2h-4z M1,5h4v3h-4z M6,7h6v1h-6z M13,7h6v1h-6z M59,5h7v3h-7z M73,7h5v1h-5z M103,7h13v1h-13z M144,7h7v1h-7z M152,7h15v1h-15z M173,7h5v1h-5z M194,7h21v1h-21z M230,7h3v1h-3z M243,7h5v1h-5z M253,7h5v1h-5z M15,8h5v1h-5z M59,8h8v1h-8z M72,8h6v1h-6z M87,8h2v1h-2z M100,8h18v1h-18z M143,8h5v1h-5z M163,8h4v1h-4z M244,8h5v1h-5z M254,8h4v1h-4z M1,8h9v2h-9z M16,9h5v1h-5z M34,9h7v1h-7z M60,9h7v1h-7z M72,9h7v1h-7z M86,9h4v1h-4z M99,9h20v1h-20z M141,9h6v1h-6z M194,8h24v2h-24z M246,9h5v1h-5z M254,9h3v1h-3z M1,10h8v1h-8z M17,10h4v1h-4z M32,10h9v1h-9z M51,10h3v1h-3z M62,10h5v1h-5z M70,10h9v1h-9z M98,10h22v1h-22z M128,9h4v2h-4z M140,10h5v1h-5z M164,9h3v2h-3z M171,8h7v3h-7z M186,10h1v1h-1z M193,10h26v1h-26z M229,8h4v3h-4z M247,10h4v1h-4z M30,11h12v1h-12z M50,11h5v1h-5z M64,11h2v1h-2z M70,11h3v1h-3z M75,11h4v1h-4z M85,10h5v2h-5z M139,11h4v1h-4z M185,11h3v1h-3z M193,11h18v1h-18z M213,11h5v1h-5z M230,11h3v1h-3z M262,6h4v6h-4z M17,11h3v2h-3z M29,12h13v1h-13z M50,12h6v1h-6z M69,12h3v1h-3z M76,12h3v1h-3z M98,11h23v2h-23z M127,11h5v2h-5z M171,11h6v2h-6z M193,12h25v1h-25z M229,12h4v1h-4z M240,12h3v1h-3z M248,11h4v2h-4z M6,11h3v3h-3z M16,13h4v1h-4z M28,13h14v1h-14z M49,13h7v1h-7z M67,13h6v1h-6z M76,13h4v1h-4z M84,12h6v2h-6z M97,13h23v1h-23z M165,11h3v3h-3z M171,13h5v1h-5z M184,12h5v2h-5z M230,13h4v1h-4z M236,13h16v1h-16z M15,14h4v1h-4z M27,14h16v1h-16z M48,14h9v1h-9z M85,14h5v1h-5z M97,14h22v1h-22z M139,12h3v3h-3z M164,14h4v1h-4z M172,14h3v1h-3z M183,14h6v1h-6z M192,13h26v2h-26z M230,14h21v1h-21z M14,15h4v1h-4z M26,15h17v1h-17z M54,15h4v1h-4z M67,14h13v2h-13z M87,15h2v1h-2z M97,15h21v1h-21z M126,13h6v3h-6z M139,15h5v1h-5z M163,15h5v1h-5z M192,15h25v1h-25z M230,15h7v1h-7z M241,15h9v1h-9z M7,14h3v3h-3z M13,16h5v1h-5z M24,16h19v1h-19z M67,16h5v1h-5z M74,16h5v1h-5z M98,16h19v1h-19z M127,16h5v1h-5z M140,16h6v1h-6z M162,16h5v1h-5z M184,15h6v2h-6z M193,16h24v1h-24z M231,16h4v1h-4z M247,16h3v1h-3z M262,12h3v5h-3z M8,17h8v1h-8z M23,17h20v1h-20z M48,15h4v3h-4z M102,17h13v1h-13z M130,17h1v1h-1z M141,17h8v1h-8z M153,17h13v1h-13z M186,17h2v1h-2z M195,17h21v1h-21z M232,17h1v1h-1z M8,18h7v1h-7z M21,18h23v1h-23z M49,18h4v1h-4z M55,16h3v3h-3z M107,18h6v1h-6z M144,18h21v1h-21z M199,18h7v1h-7z M220,17h4v2h-4z M249,18h4v1h-4z M49,19h9v1h-9z M146,19h6v1h-6z M156,19h8v1h-8z M170,19h5v1h-5z M219,19h5v1h-5z M229,19h4v1h-4z M247,19h7v1h-7z M8,19h6v2h-6z M20,19h24v2h-24z M50,20h8v1h-8z M84,20h7v1h-7z M160,20h2v1h-2z M168,20h14v1h-14z M228,20h6v1h-6z M246,20h9v1h-9z M9,21h4v1h-4z M53,21h5v1h-5z M68,21h5v1h-5z M82,21h10v1h-10z M102,21h3v1h-3z M168,21h15v1h-15z M219,20h4v2h-4z M228,21h7v1h-7z M244,21h11v1h-11z M9,22h3v1h-3z M19,21h26v2h-26z M54,22h4v1h-4z M66,22h7v1h-7z M81,22h6v1h-6z M88,22h4v1h-4z M101,22h5v1h-5z M125,22h3v1h-3z M168,22h3v1h-3z M174,22h9v1h-9z M205,22h2v1h-2z M219,22h3v1h-3z M228,22h8v1h-8z M244,22h12v1h-12z M262,17h4v6h-4z M60,23h14v1h-14z M80,23h5v1h-5z M100,23h6v1h-6z M123,23h5v1h-5z M155,23h4v1h-4z M203,23h5v1h-5z M229,23h7v1h-7z M243,23h14v1h-14z M18,23h28v2h-28z M59,24h10v1h-10z M70,24h4v1h-4z M80,24h4v1h-4z M89,23h4v2h-4z M99,24h8v1h-8z M121,24h9v1h-9z M140,24h3v1h-3z M167,23h3v2h-3z M178,23h5v2h-5z M191,24h4v1h-4z M232,24h3v1h-3z M241,24h17v1h-17z M262,23h3v2h-3z M17,25h29v1h-29z M58,25h7v1h-7z M71,25h4v1h-4z M80,25h3v1h-3z M90,25h4v1h-4z M119,25h6v1h-6z M126,25h4v1h-4z M139,25h5v1h-5z M154,24h5v2h-5z M166,25h4v1h-4z M178,25h4v1h-4z M190,25h5v1h-5z M202,24h6v2h-6z M240,25h18v1h-18z M58,26h4v1h-4z M81,26h2v1h-2z M91,26h3v1h-3z M127,26h5v1h-5z M155,26h3v1h-3z M167,26h8v1h-8z M177,26h4v1h-4z M189,26h7v1h-7z M203,26h5v1h-5z M239,26h19v1h-19z M16,26h29v2h-29z M57,27h4v1h-4z M72,26h3v2h-3z M91,27h4v1h-4z M99,25h9v3h-9z M118,26h6v2h-6z M128,27h5v1h-5z M167,27h12v1h-12z M188,27h9v1h-9z M204,27h4v1h-4z M238,27h20v1h-20z M16,28h28v1h-28z M72,28h4v1h-4z M81,27h3v2h-3z M100,28h8v1h-8z M119,28h8v1h-8z M128,28h6v1h-6z M138,26h6v3h-6z M168,28h9v1h-9z M187,28h4v1h-4z M211,28h3v1h-3z M15,29h29v1h-29z M82,29h3v1h-3z M92,28h3v2h-3z M102,29h6v1h-6z M120,29h14v1h-14z M140,29h4v1h-4z M171,29h2v1h-2z M186,29h4v1h-4z M193,28h4v2h-4z M209,29h6v1h-6z M14,30h30v1h-30z M57,28h3v3h-3z M73,29h4v2h-4z M82,30h4v1h-4z M122,30h1v1h-1z M124,30h10v1h-10z M157,30h4v1h-4z M185,30h5v1h-5z M194,30h3v1h-3z M207,30h8v1h-8z M225,30h2v1h-2z M237,28h20v3h-20z M56,31h4v1h-4z M74,31h4v1h-4z M83,31h4v1h-4z M91,30h4v2h-4z M128,31h5v1h-5z M155,31h7v1h-7z M184,31h6v1h-6z M193,31h4v1h-4z M207,31h9v1h-9z M224,31h4v1h-4z M238,31h19v1h-19z M14,31h29v2h-29z M56,32h3v1h-3z M75,32h3v1h-3z M84,32h3v1h-3z M91,32h3v1h-3z M153,32h10v1h-10z M184,32h13v1h-13z M205,32h11v1h-11z M223,32h5v1h-5z M238,32h18v1h-18z M13,33h29v1h-29z M56,33h2v1h-2z M75,33h4v1h-4z M84,33h4v1h-4z M90,33h4v1h-4z M151,33h13v1h-13z M184,33h12v1h-12z M222,33h7v1h-7z M239,33h17v1h-17z M13,34h27v1h-27z M85,34h8v1h-8z M149,34h17v1h-17z M185,34h3v1h-3z M189,34h7v1h-7z M204,33h12v2h-12z M13,35h25v1h-25z M110,35h3v1h-3z M126,35h4v1h-4z M147,35h21v1h-21z M191,35h2v1h-2z M202,35h14v1h-14z M240,34h16v2h-16z M12,36h24v1h-24z M86,35h6v2h-6z M99,36h6v1h-6z M107,36h8v1h-8z M146,36h23v1h-23z M201,36h15v1h-15z M221,34h8v3h-8z M13,37h21v1h-21z M55,34h3v4h-3z M87,37h4v1h-4z M98,37h17v1h-17z M125,36h6v2h-6z M144,37h25v1h-25z M176,37h1v1h-1z M200,37h16v1h-16z M222,37h7v1h-7z M241,36h14v2h-14z M13,38h7v1h-7z M43,38h5v1h-5z M55,38h4v1h-4z M88,38h3v1h-3z M98,38h18v1h-18z M124,38h8v1h-8z M175,38h4v1h-4z M198,38h18v1h-18z M241,38h13v1h-13z M15,39h2v1h-2z M40,39h9v1h-9z M56,39h4v1h-4z M76,34h3v6h-3z M144,38h26v2h-26z M197,39h19v1h-19z M242,39h11v1h-11z M39,40h11v1h-11z M97,39h20v2h-20z M124,39h9v2h-9z M174,39h6v2h-6z M196,40h21v1h-21z M232,40h1v1h-1z M234,40h5v1h-5z M242,40h10v1h-10z M37,41h5v1h-5z M46,41h5v1h-5z M57,40h23v2h-23z M124,41h10v1h-10z M144,40h25v2h-25z M174,41h7v1h-7z M195,41h23v1h-23z M227,41h13v1h-13z M243,41h8v1h-8z M24,42h3v1h-3z M36,42h5v1h-5z M48,42h4v1h-4z M58,42h5v1h-5z M68,42h5v1h-5z M75,42h5v1h-5z M125,42h9v1h-9z M145,42h23v1h-23z M194,42h26v1h-26z M226,42h8v1h-8z M236,42h4v1h-4z M243,42h7v1h-7z M22,43h6v1h-6z M48,43h5v1h-5z M77,43h2v1h-2z M97,41h21v3h-21z M129,43h5v1h-5z M174,42h8v2h-8z M192,43h29v1h-29z M226,43h4v1h-4z M237,43h4v1h-4z M244,43h5v1h-5z M50,44h4v1h-4z M146,43h22v2h-22z M173,44h10v1h-10z M189,44h32v1h-32z M225,44h4v1h-4z M238,44h3v1h-3z M245,44h4v1h-4z M36,43h4v3h-4z M51,45h4v1h-4z M174,45h9v1h-9z M187,45h35v1h-35z M225,45h5v1h-5z M12,46h2v1h-2z M37,46h3v1h-3z M51,46h5v1h-5z M61,46h2v1h-2z M175,46h8v1h-8z M186,46h36v1h-36z M226,46h6v1h-6z M254,46h1v1h-1z M11,47h4v1h-4z M37,47h4v1h-4z M60,47h5v1h-5z M147,45h21v3h-21z M179,47h4v1h-4z M185,47h37v1h-37z M227,47h8v1h-8z M238,45h4v3h-4z M252,47h5v1h-5z M20,44h9v5h-9z M53,47h4v2h-4z M60,48h6v1h-6z M148,48h19v1h-19z M229,48h12v1h-12z M251,48h6v1h-6z M1,11h4v39h-4z M10,48h5v2h-5z M20,49h8v1h-8z M34,49h1v1h-1z M38,48h3v2h-3z M52,49h5v1h-5z M59,49h7v1h-7z M84,49h3v1h-3z M148,49h18v1h-18z M232,49h8v1h-8z M250,49h7v1h-7z M9,50h6v1h-6z M20,50h7v1h-7z M33,50h3v1h-3z M38,50h4v1h-4z M49,50h7v1h-7z M59,50h6v1h-6z M79,50h9v1h-9z M96,44h22v7h-22z M129,50h6v1h-6z M148,50h17v1h-17z M185,48h36v3h-36z M234,50h4v1h-4z M251,50h6v1h-6z M2,50h3v2h-3z M8,51h7v1h-7z M21,51h6v1h-6z M39,51h3v1h-3z M48,51h7v1h-7z M70,51h19v1h-19z M97,51h21v1h-21z M128,51h10v1h-10z M149,51h15v1h-15z M252,51h5v1h-5z M7,52h4v1h-4z M13,52h2v1h-2z M21,52h5v1h-5z M39,52h4v1h-4z M47,52h6v1h-6z M69,52h21v1h-21z M102,52h16v1h-16z M127,52h11v1h-11z M150,52h13v1h-13z M172,52h1v1h-1z M186,51h35v2h-35z M241,52h2v1h-2z M252,52h4v1h-4z M7,53h3v1h-3z M22,53h3v1h-3z M32,51h5v3h-5z M40,53h9v1h-9z M66,53h16v1h-16z M103,53h15v1h-15z M126,53h4v1h-4z M134,53h4v1h-4z M186,53h34v1h-34z M234,53h13v1h-13z M7,54h4v1h-4z M13,53h3v2h-3z M33,54h5v1h-5z M40,54h8v1h-8z M65,54h17v1h-17z M86,53h4v2h-4z M96,54h3v1h-3z M105,54h12v1h-12z M125,54h4v1h-4z M170,53h5v2h-5z M186,54h12v1h-12z M207,54h13v1h-13z M231,54h17v1h-17z M8,55h8v1h-8z M34,55h3v1h-3z M41,55h6v1h-6z M63,55h21v1h-21z M85,55h5v1h-5z M95,55h5v1h-5z M107,55h10v1h-10z M124,55h4v1h-4z M168,55h8v1h-8z M187,55h5v1h-5z M208,55h12v1h-12z M230,55h8v1h-8z M239,55h1v1h-1z M244,55h7v1h-7z M8,56h7v1h-7z M35,56h1v1h-1z M42,56h4v1h-4z M109,56h7v1h-7z M124,56h3v1h-3z M135,54h3v3h-3z M154,56h2v1h-2z M212,56h8v1h-8z M229,56h5v1h-5z M246,56h6v1h-6z M9,57h6v1h-6z M30,57h2v1h-2z M43,57h2v1h-2z M63,56h28v2h-28z M123,57h4v1h-4z M151,57h5v1h-5z M215,57h5v1h-5z M228,57h5v1h-5z M248,57h8v1h-8z M10,58h5v1h-5z M29,58h4v1h-4z M94,56h6v3h-6z M122,58h4v1h-4z M136,57h3v2h-3z M148,58h8v1h-8z M166,56h10v3h-10z M217,58h3v1h-3z M228,58h4v1h-4z M249,58h8v1h-8z M11,59h3v1h-3z M27,59h6v1h-6z M121,59h5v1h-5z M145,59h10v1h-10z M167,59h7v1h-7z M220,59h4v1h-4z M227,59h4v1h-4z M252,59h6v1h-6z M12,60h1v1h-1z M25,60h8v1h-8z M62,58h30v3h-30z M95,59h4v2h-4z M120,60h13v1h-13z M136,59h4v2h-4z M144,60h10v1h-10z M181,60h1v1h-1z M220,60h11v1h-11z M254,60h4v1h-4z M1,52h4v10h-4z M24,61h4v1h-4z M29,61h4v1h-4z M46,61h2v1h-2z M96,61h2v1h-2z M120,61h20v1h-20z M144,61h9v1h-9z M177,61h6v1h-6z M207,61h5v1h-5z M220,61h15v1h-15z M23,62h4v1h-4z M31,62h2v1h-2z M44,62h5v1h-5z M62,61h31v2h-31z M121,62h19v1h-19z M143,62h9v1h-9z M176,62h8v1h-8z M207,62h9v1h-9z M225,62h11v1h-11z M255,61h3v2h-3z M2,62h3v2h-3z M21,63h5v1h-5z M62,63h30v1h-30z M108,63h3v1h-3z M123,63h1v1h-1z M133,63h6v1h-6z M173,63h11v1h-11z M207,63h10v1h-10z M225,63h12v1h-12z M254,63h5v1h-5z M20,64h4v1h-4z M63,64h27v1h-27z M107,64h4v1h-4z M136,64h1v1h-1z M143,63h8v2h-8z M169,64h9v1h-9z M180,64h5v1h-5z M207,64h11v1h-11z M233,64h4v1h-4z M253,64h6v1h-6z M19,65h5v1h-5z M31,63h3v3h-3z M56,65h2v1h-2z M66,65h2v1h-2z M71,65h13v1h-13z M106,65h6v1h-6z M165,65h11v1h-11z M181,65h5v1h-5z M198,65h4v1h-4z M234,65h4v1h-4z M250,65h8v1h-8z M20,66h4v1h-4z M31,66h4v1h-4z M42,63h7v4h-7z M55,66h7v1h-7z M74,66h7v1h-7z M105,66h7v1h-7z M128,66h4v1h-4z M144,65h6v2h-6z M162,66h3v1h-3z M166,66h8v1h-8z M193,66h10v1h-10z M209,65h9v2h-9z M235,66h4v1h-4z M249,66h9v1h-9z M20,67h15v1h-15z M54,67h9v1h-9z M104,67h7v1h-7z M127,67h6v1h-6z M144,67h5v1h-5z M161,67h4v1h-4z M182,66h4v2h-4z M192,67h11v1h-11z M210,67h6v1h-6z M236,67h4v1h-4z M246,67h12v1h-12z M21,68h14v1h-14z M43,67h6v2h-6z M86,68h4v1h-4z M103,68h8v1h-8z M125,68h10v1h-10z M145,68h3v1h-3z M182,68h3v1h-3z M211,68h4v1h-4z M227,68h1v1h-1z M237,68h7v1h-7z M245,68h5v1h-5z M22,69h13v1h-13z M44,69h4v1h-4z M53,68h10v2h-10z M83,69h8v1h-8z M123,69h17v1h-17z M161,68h3v2h-3z M181,69h4v1h-4z M224,69h6v1h-6z M238,69h7v1h-7z M253,68h5v2h-5z M1,64h4v7h-4z M28,70h6v1h-6z M45,70h3v1h-3z M53,70h11v1h-11z M79,70h13v1h-13z M121,70h20v1h-20z M161,70h2v1h-2z M180,70h4v1h-4z M191,68h11v3h-11z M221,70h9v1h-9z M239,70h4v1h-4z M253,70h6v1h-6z M15,71h4v1h-4z M52,71h12v1h-12z M77,71h17v1h-17z M102,69h9v3h-9z M119,71h24v1h-24z M161,71h3v1h-3z M180,71h3v1h-3z M218,71h13v1h-13z M252,71h7v1h-7z M12,72h7v1h-7z M75,72h9v1h-9z M89,72h6v1h-6z M102,72h8v1h-8z M116,72h27v1h-27z M179,72h4v1h-4z M216,72h8v1h-8z M227,72h5v1h-5z M10,73h9v1h-9z M36,73h4v1h-4z M51,72h14v2h-14z M73,73h6v1h-6z M91,73h5v1h-5z M103,73h7v1h-7z M115,73h28v1h-28z M178,73h4v1h-4z M216,73h5v1h-5z M228,73h6v1h-6z M248,73h1v1h-1z M253,72h6v2h-6z M9,74h5v1h-5z M15,74h5v1h-5z M35,74h7v1h-7z M72,74h5v1h-5z M104,74h6v1h-6z M114,74h29v1h-29z M160,72h3v3h-3z M176,74h6v1h-6z M191,71h10v4h-10z M229,74h6v1h-6z M246,74h6v1h-6z M254,74h4v1h-4z M8,75h4v1h-4z M92,74h4v2h-4z M105,75h4v1h-4z M113,75h30v1h-30z M151,75h3v1h-3z M160,75h4v1h-4z M169,75h12v1h-12z M190,75h10v1h-10z M206,75h1v1h-1z M216,74h4v2h-4z M230,75h5v1h-5z M244,75h13v1h-13z M35,75h8v2h-8z M50,74h16v3h-16z M91,76h5v1h-5z M112,76h30v1h-30z M149,76h6v1h-6z M160,76h20v1h-20z M190,76h8v1h-8z M205,76h3v1h-3z M231,76h5v1h-5z M242,76h14v1h-14z M34,77h2v1h-2z M40,77h3v1h-3z M51,77h15v1h-15z M71,75h4v3h-4z M89,77h6v1h-6z M113,77h28v1h-28z M148,77h7v1h-7z M161,77h12v1h-12z M176,77h2v1h-2z M183,77h1v1h-1z M191,77h5v1h-5z M231,77h4v1h-4z M241,77h15v1h-15z M17,75h3v4h-3z M33,78h3v1h-3z M58,78h8v1h-8z M71,78h5v1h-5z M87,78h8v1h-8z M113,78h27v1h-27z M161,78h7v1h-7z M181,78h5v1h-5z M191,78h4v1h-4z M230,78h4v1h-4z M240,78h16v1h-16z M16,79h4v1h-4z M33,79h4v1h-4z M41,78h3v2h-3z M61,79h4v1h-4z M71,79h9v1h-9z M84,79h10v1h-10z M179,79h9v1h-9z M204,77h4v3h-4z M217,76h3v4h-3z M229,79h5v1h-5z M239,79h17v1h-17z M8,76h3v5h-3z M15,80h4v1h-4z M33,80h11v1h-11z M73,80h18v1h-18z M114,79h25v2h-25z M176,80h14v1h-14z M205,80h3v1h-3z M217,80h16v1h-16z M239,80h16v1h-16z M8,81h10v1h-10z M34,81h10v1h-10z M74,81h13v1h-13z M115,81h22v1h-22z M146,78h9v4h-9z M175,81h16v1h-16z M217,81h15v1h-15z M2,71h3v12h-3z M9,82h8v1h-8z M36,82h8v1h-8z M79,82h6v1h-6z M95,82h3v1h-3z M116,82h16v1h-16z M147,82h8v1h-8z M174,82h19v1h-19z M218,82h7v1h-7z M1,83h4v1h-4z M9,83h5v1h-5z M61,83h3v1h-3z M82,83h1v1h-1z M93,83h6v1h-6z M117,83h10v1h-10z M149,83h6v1h-6z M172,83h22v1h-22z M219,83h3v1h-3z M238,81h17v3h-17z M10,84h3v1h-3z M58,84h7v1h-7z M106,84h4v1h-4z M118,84h6v1h-6z M150,84h5v1h-5z M170,84h24v1h-24z M22,85h4v1h-4z M56,85h9v1h-9z M105,85h7v1h-7z M120,85h3v1h-3z M169,85h25v1h-25z M208,85h3v1h-3z M226,85h2v1h-2z M237,84h18v2h-18z M2,84h3v3h-3z M21,86h7v1h-7z M55,86h9v1h-9z M92,84h7v3h-7z M104,86h10v1h-10z M133,86h2v1h-2z M168,86h27v1h-27z M207,86h6v1h-6z M225,86h4v1h-4z M236,86h18v1h-18z M21,87h9v1h-9z M52,87h6v1h-6z M75,87h1v1h-1z M93,87h5v1h-5z M104,87h4v1h-4z M109,87h7v1h-7z M128,87h11v1h-11z M167,87h28v1h-28z M206,87h8v1h-8z M236,87h17v1h-17z M20,88h16v1h-16z M51,88h4v1h-4z M74,88h6v1h-6z M94,88h3v1h-3z M103,88h4v1h-4z M111,88h6v1h-6z M127,88h6v1h-6z M134,88h7v1h-7z M166,88h29v1h-29z M205,88h11v1h-11z M223,87h6v2h-6z M235,88h17v1h-17z M20,89h17v1h-17z M50,89h4v1h-4z M72,89h19v1h-19z M103,89h3v1h-3z M113,89h5v1h-5z M127,89h4v1h-4z M136,89h6v1h-6z M166,89h30v1h-30z M212,89h5v1h-5z M235,89h15v1h-15z M19,90h18v1h-18z M71,90h22v1h-22z M103,90h2v1h-2z M126,90h4v1h-4z M138,90h5v1h-5z M150,90h4v1h-4z M165,90h31v1h-31z M204,89h3v2h-3z M213,90h5v1h-5z M224,89h5v2h-5z M234,90h15v1h-15z M50,90h3v2h-3z M61,87h3v5h-3z M70,91h24v1h-24z M125,91h3v1h-3z M149,91h7v1h-7z M165,91h30v1h-30z M203,91h3v1h-3z M214,91h4v1h-4z M225,91h4v1h-4z M235,91h13v1h-13z M19,91h19v2h-19z M50,92h4v1h-4z M60,92h4v1h-4z M69,92h25v1h-25z M102,91h4v2h-4z M115,90h4v3h-4z M124,92h3v1h-3z M148,92h9v1h-9z M202,92h3v1h-3z M215,92h3v1h-3z M226,92h2v1h-2z M235,92h12v1h-12z M253,92h3v1h-3z M68,93h27v1h-27z M102,93h6v1h-6z M115,93h3v1h-3z M123,93h3v1h-3z M147,93h10v1h-10z M164,92h30v2h-30z M201,93h3v1h-3z M214,93h4v1h-4z M238,93h1v1h-1z M242,93h3v1h-3z M252,93h6v1h-6z M19,93h20v2h-20z M51,93h12v2h-12z M67,94h29v1h-29z M103,94h16v1h-16z M122,94h3v1h-3z M140,91h3v4h-3z M147,94h11v1h-11z M163,94h30v1h-30z M200,94h3v1h-3z M213,94h4v1h-4z M1,87h4v9h-4z M11,95h4v1h-4z M51,95h11v1h-11z M66,95h31v1h-31z M104,95h14v1h-14z M121,95h3v1h-3z M162,95h29v1h-29z M199,95h3v1h-3z M212,95h4v1h-4z M252,94h7v2h-7z M9,96h7v1h-7z M19,95h21v2h-21z M52,96h4v1h-4z M65,96h33v1h-33z M109,96h8v1h-8z M120,96h4v1h-4z M146,95h13v2h-13z M162,96h28v1h-28z M199,96h4v1h-4z M209,96h6v1h-6z M229,96h5v1h-5z M47,97h3v1h-3z M64,97h35v1h-35z M118,97h5v1h-5z M139,95h3v3h-3z M145,97h14v1h-14z M161,97h27v1h-27z M199,97h14v1h-14z M228,97h8v1h-8z M251,96h7v2h-7z M8,97h8v2h-8z M19,97h22v2h-22z M63,98h37v1h-37z M118,98h4v1h-4z M145,98h12v1h-12z M160,98h26v1h-26z M199,98h13v1h-13z M227,98h11v1h-11z M47,98h4v2h-4z M62,99h39v1h-39z M145,99h11v1h-11z M160,99h24v1h-24z M200,99h5v1h-5z M226,99h4v1h-4z M234,99h5v1h-5z M251,98h6v2h-6z M61,100h41v1h-41z M145,100h9v1h-9z M159,100h23v1h-23z M211,100h5v1h-5z M225,100h4v1h-4z M236,100h4v1h-4z M250,100h6v1h-6z M2,96h3v6h-3z M20,99h22v3h-22z M46,100h6v2h-6z M60,101h42v1h-42z M118,99h3v3h-3z M147,101h1v1h-1z M158,101h15v1h-15z M210,101h6v1h-6z M224,101h3v1h-3z M8,99h7v4h-7z M20,102h21v1h-21z M119,102h3v1h-3z M138,98h3v5h-3z M158,102h13v1h-13z M187,102h3v1h-3z M223,102h4v1h-4z M46,102h7v2h-7z M59,102h43v2h-43z M106,103h3v1h-3z M136,103h4v1h-4z M158,103h12v1h-12z M185,103h5v1h-5z M222,103h4v1h-4z M237,101h3v3h-3z M251,101h4v3h-4z M9,103h5v2h-5z M20,103h20v2h-20z M59,104h42v1h-42z M135,104h4v1h-4z M158,104h11v1h-11z M221,104h4v1h-4z M235,104h5v1h-5z M10,105h3v1h-3z M20,105h11v1h-11z M32,105h7v1h-7z M46,104h8v2h-8z M59,105h41v1h-41z M134,105h4v1h-4z M159,105h6v1h-6z M184,104h7v2h-7z M209,102h7v4h-7z M232,105h6v1h-6z M242,105h4v1h-4z M1,102h4v5h-4z M21,106h5v1h-5z M46,106h7v1h-7z M59,106h40v1h-40z M120,103h2v4h-2z M132,106h5v1h-5z M160,106h3v1h-3z M172,106h4v1h-4z M202,106h3v1h-3z M210,106h5v1h-5z M220,105h3v2h-3z M231,106h5v1h-5z M23,107h1v1h-1z M48,107h4v1h-4z M60,107h37v1h-37z M105,104h5v4h-5z M130,107h6v1h-6z M149,107h4v1h-4z M170,107h7v1h-7z M200,107h6v1h-6z M210,107h4v1h-4z M230,107h4v1h-4z M262,25h4v83h-4z M60,108h35v1h-35z M106,108h4v1h-4z M128,108h7v1h-7z M143,108h11v1h-11z M169,108h8v1h-8z M200,108h7v1h-7z M218,107h4v2h-4z M228,108h4v1h-4z M240,106h6v3h-6z M61,109h33v1h-33z M120,107h3v3h-3z M126,109h8v1h-8z M139,109h15v1h-15z M168,109h10v1h-10z M183,106h8v4h-8z M199,109h8v1h-8z M217,109h8v1h-8z M227,109h4v1h-4z M240,109h5v1h-5z M30,110h2v1h-2z M61,110h32v1h-32z M120,110h12v1h-12z M138,110h17v1h-17z M165,110h5v1h-5z M184,110h7v1h-7z M198,110h10v1h-10z M216,110h14v1h-14z M2,107h3v5h-3z M17,111h2v1h-2z M29,111h5v1h-5z M61,111h31v1h-31z M108,111h3v1h-3z M121,111h8v1h-8z M136,111h19v1h-19z M163,111h5v1h-5z M175,110h3v2h-3z M185,111h6v1h-6z M197,111h11v1h-11z M217,111h12v1h-12z M16,112h4v1h-4z M29,112h6v1h-6z M46,112h7v1h-7z M62,112h30v1h-30z M106,112h7v1h-7z M121,112h6v1h-6z M135,112h20v1h-20z M174,112h4v1h-4z M186,112h5v1h-5z M195,112h14v1h-14z M226,112h1v1h-1z M247,112h3v1h-3z M1,112h4v2h-4z M14,113h7v1h-7z M44,113h9v1h-9z M63,113h4v1h-4z M77,113h12v1h-12z M105,113h9v1h-9z M122,113h2v1h-2z M134,113h22v1h-22z M173,113h3v1h-3z M195,113h15v1h-15z M245,113h12v1h-12z M262,108h3v6h-3z M14,114h6v1h-6z M44,114h10v1h-10z M78,114h8v1h-8z M104,114h4v1h-4z M109,114h6v1h-6z M132,114h24v1h-24z M162,112h4v3h-4z M172,114h4v1h-4z M244,114h14v1h-14z M12,115h9v1h-9z M28,113h8v3h-8z M44,115h3v1h-3z M50,115h4v1h-4z M80,115h1v1h-1z M102,115h4v1h-4z M112,115h4v1h-4z M131,115h25v1h-25z M163,115h4v1h-4z M171,115h4v1h-4z M183,115h3v1h-3z M194,114h16v2h-16z M229,115h4v1h-4z M243,115h15v1h-15z M2,114h3v3h-3z M11,116h4v1h-4z M17,116h4v1h-4z M29,116h7v1h-7z M44,116h2v1h-2z M51,116h4v1h-4z M101,116h4v1h-4z M113,116h4v1h-4z M129,116h27v1h-27z M164,116h4v1h-4z M170,116h4v1h-4z M182,116h5v1h-5z M194,116h17v1h-17z M242,116h16v1h-16z M9,117h5v1h-5z M18,117h3v1h-3z M30,117h6v1h-6z M42,117h3v1h-3z M52,117h3v1h-3z M100,117h4v1h-4z M128,117h27v1h-27z M164,117h9v1h-9z M195,117h16v1h-16z M228,116h6v2h-6z M241,117h17v1h-17z M8,118h5v1h-5z M17,118h4v1h-4z M32,118h3v1h-3z M42,118h2v1h-2z M52,118h4v1h-4z M70,118h3v1h-3z M99,118h4v1h-4z M113,117h3v2h-3z M128,118h26v1h-26z M165,118h7v1h-7z M180,117h8v2h-8z M198,118h12v1h-12z M218,118h4v1h-4z M227,118h7v1h-7z M240,118h18v1h-18z M8,119h13v1h-13z M41,119h3v1h-3z M53,119h3v1h-3z M89,119h2v1h-2z M99,119h3v1h-3z M128,119h24v1h-24z M161,119h1v1h-1z M166,119h5v1h-5z M178,119h4v1h-4z M185,119h4v1h-4z M199,119h11v1h-11z M217,119h6v1h-6z M228,119h6v1h-6z M238,119h21v1h-21z M262,114h4v6h-4z M1,117h4v4h-4z M8,120h12v1h-12z M40,120h3v1h-3z M53,120h4v1h-4z M69,119h5v2h-5z M85,120h8v1h-8z M99,120h4v1h-4z M112,119h3v2h-3z M129,120h20v1h-20z M158,120h5v1h-5z M167,120h2v1h-2z M176,120h5v1h-5z M186,120h3v1h-3z M200,120h8v1h-8z M217,120h8v1h-8z M229,120h5v1h-5z M237,120h22v1h-22z M8,121h11v1h-11z M40,121h2v1h-2z M54,121h3v1h-3z M68,121h6v1h-6z M84,121h11v1h-11z M112,121h2v1h-2z M130,121h14v1h-14z M158,121h6v1h-6z M175,121h4v1h-4z M201,121h5v1h-5z M216,121h4v1h-4z M221,121h5v1h-5z M231,121h2v1h-2z M14,122h4v1h-4z M54,122h4v1h-4z M67,122h8v1h-8z M84,122h5v1h-5z M91,122h4v1h-4z M100,121h3v2h-3z M112,122h1v1h-1z M131,122h8v1h-8z M174,122h4v1h-4z M196,122h1v1h-1z M215,122h3v1h-3z M222,122h4v1h-4z M236,121h23v2h-23z M39,122h3v2h-3z M66,123h9v1h-9z M84,123h4v1h-4z M92,123h4v1h-4z M101,123h3v1h-3z M132,123h5v1h-5z M147,123h1v1h-1z M157,122h7v2h-7z M172,123h4v1h-4z M186,121h4v3h-4z M194,123h3v1h-3z M214,123h3v1h-3z M235,123h24v1h-24z M2,121h3v4h-3z M39,124h4v1h-4z M85,124h4v1h-4z M93,124h3v1h-3z M101,124h4v1h-4z M111,123h2v2h-2z M145,124h5v1h-5z M156,124h8v1h-8z M172,124h3v1h-3z M194,124h4v1h-4z M214,124h2v1h-2z M234,124h25v1h-25z M24,125h3v1h-3z M39,125h5v1h-5z M55,123h4v3h-4z M65,124h11v2h-11z M86,125h3v1h-3z M93,125h2v1h-2z M102,125h3v1h-3z M110,125h3v1h-3z M122,125h6v1h-6z M144,125h6v1h-6z M157,125h6v1h-6z M193,125h5v1h-5z M213,125h2v1h-2z M223,123h3v3h-3z M234,125h24v1h-24z M23,126h5v1h-5z M40,126h6v1h-6z M55,126h3v1h-3z M64,126h12v1h-12z M87,126h3v1h-3z M93,126h1v1h-1z M102,126h10v1h-10z M142,126h7v1h-7z M158,126h5v1h-5z M170,125h4v2h-4z M186,124h3v3h-3z M192,126h7v1h-7z M212,126h3v1h-3z M222,126h4v1h-4z M234,126h23v1h-23z M1,125h4v3h-4z M21,127h7v1h-7z M42,127h5v1h-5z M53,127h4v1h-4z M65,127h11v1h-11z M87,127h7v1h-7z M103,127h9v1h-9z M140,127h9v1h-9z M170,127h5v1h-5z M186,127h2v1h-2z M192,127h8v1h-8z M212,127h4v1h-4z M221,127h5v1h-5z M235,127h21v1h-21z M20,128h8v1h-8z M44,128h5v1h-5z M51,128h5v1h-5z M65,128h10v1h-10z M87,128h6v1h-6z M107,128h5v1h-5z M120,126h8v3h-8z M170,128h8v1h-8z M181,128h1v1h-1z M184,128h4v1h-4z M194,128h6v1h-6z M211,128h13v1h-13z M238,128h2v1h-2z M242,128h12v1h-12z M262,120h3v9h-3z M19,129h5v1h-5z M45,129h9v1h-9z M67,129h4v1h-4z M88,129h5v1h-5z M109,129h2v1h-2z M121,129h6v1h-6z M138,128h11v2h-11z M172,129h16v1h-16z M195,129h5v1h-5z M212,129h8v1h-8z M244,129h9v1h-9z M47,130h7v1h-7z M89,130h3v1h-3z M122,130h5v1h-5z M138,130h9v1h-9z M175,130h13v1h-13z M197,130h2v1h-2z M18,130h5v2h-5z M26,129h3v3h-3z M48,131h2v1h-2z M185,131h2v1h-2z M262,129h4v3h-4z M2,128h3v5h-3z M18,132h11v1h-11z M262,132h3v1h-3z M1,133h7v1h-7z M16,133h14v1h-14z M128,133h2v1h-2z M186,133h1v1h-1z M260,133h5v1h-5z M2,134h263v1h-263z M2,135h262v1h-262z M2,136h261v1h-261z M64,137h2v1h-2z M69,137h5v1h-5z M138,137h4v1h-4z M70,138h3v1h-3z M71,139h1v1h-1z
  "/>
</svg>