<?xml version="1.0" encoding="UTF-8"?>
<svg xmlns="http://www.w3.org/2000/svg" viewBox="0 0 255 143" width="255" height="143">
  <title>10 Cross-bedded sandstone</title>
  <path fill="#111111" fill-rule="nonzero" d="
    M235,0h17v1h-17z M183,1h2v1h-2z M186,1h2v1h-2z M190,1h63v1h-63z M2,2h3v1h-3z M161,2h2v1h-2z M166,2h88v1h-88z M1,3h21v1h-21z M23,3h2v1h-2z M134,3h1v1h-1z M138,3h6v1h-6z M145,3h109v1h-109z M1,4h36v1h-36z M115,4h113v1h-113z M234,4h5v1h-5z M243,4h11v1h-11z M1,5h52v1h-52z M91,5h90v1h-90z M182,5h7v1h-7z M209,5h5v1h-5z M222,5h5v1h-5z M234,5h4v1h-4z M249,5h5v1h-5z M1,6h67v1h-67z M73,6h91v1h-91z M165,6h6v1h-6z M175,6h5v1h-5z M183,6h5v1h-5z M196,5h5v2h-5z M210,6h3v1h-3z M218,6h1v1h-1z M223,6h2v1h-2z M235,6h2v1h-2z M1,7h7v1h-7z M9,7h5v1h-5z M19,7h5v1h-5z M27,7h104v1h-104z M133,7h6v1h-6z M149,7h6v1h-6z M159,7h4v1h-4z M176,7h4v1h-4z M184,7h4v1h-4z M197,7h4v1h-4z M244,5h4v3h-4z M1,8h12v1h-12z M19,8h4v1h-4z M31,8h6v1h-6z M43,8h68v1h-68z M113,8h5v1h-5z M125,8h7v1h-7z M135,8h3v1h-3z M141,7h4v2h-4z M147,8h6v1h-6z M166,7h4v2h-4z M171,8h1v1h-1z M177,8h4v1h-4z M184,8h3v1h-3z M198,8h2v1h-2z M230,8h2v1h-2z M250,6h4v3h-4z M11,9h1v1h-1z M17,9h2v1h-2z M32,9h4v1h-4z M44,9h5v1h-5z M56,9h41v1h-41z M103,9h5v1h-5z M114,9h4v1h-4z M126,9h7v1h-7z M136,9h3v1h-3z M217,7h3v3h-3z M229,9h4v1h-4z M240,9h2v1h-2z M1,9h8v2h-8z M11,10h2v1h-2z M33,10h2v1h-2z M45,10h3v1h-3z M57,10h5v1h-5z M70,10h6v1h-6z M80,10h4v1h-4z M93,10h4v1h-4z M105,10h2v1h-2z M115,10h2v1h-2z M127,10h6v1h-6z M147,9h4v2h-4z M154,10h3v1h-3z M189,10h3v1h-3z M203,8h3v3h-3z M212,10h1v1h-1z M218,10h1v1h-1z M224,10h2v1h-2z M230,10h3v1h-3z M240,10h3v1h-3z M10,11h3v1h-3z M16,10h3v2h-3z M28,11h3v1h-3z M40,11h1v1h-1z M46,11h1v1h-1z M58,11h4v1h-4z M71,11h3v1h-3z M81,11h3v1h-3z M93,11h3v1h-3z M121,11h2v1h-2z M130,11h3v1h-3z M136,10h4v2h-4z M142,11h2v1h-2z M148,11h3v1h-3z M153,11h5v1h-5z M163,10h3v2h-3z M204,11h2v1h-2z M231,11h1v1h-1z M239,11h8v1h-8z M1,11h5v2h-5z M17,12h1v1h-1z M22,12h3v1h-3z M27,12h4v1h-4z M53,12h2v1h-2z M58,12h3v1h-3z M81,12h2v1h-2z M99,12h2v1h-2z M110,12h1v1h-1z M131,12h9v1h-9z M153,12h6v1h-6z M163,12h4v1h-4z M171,9h3v4h-3z M178,9h5v4h-5z M189,11h4v2h-4z M196,12h3v1h-3z M234,12h2v1h-2z M240,12h7v1h-7z M249,9h5v4h-5z M1,13h6v1h-6z M10,12h4v2h-4z M28,13h2v1h-2z M39,12h3v2h-3z M52,13h4v1h-4z M67,13h1v1h-1z M120,12h3v2h-3z M126,12h2v2h-2z M131,13h8v1h-8z M148,13h1v1h-1z M153,13h7v1h-7z M164,13h3v1h-3z M171,13h4v1h-4z M190,13h2v1h-2z M195,13h5v1h-5z M211,11h3v3h-3z M224,11h3v3h-3z M243,13h4v1h-4z M250,13h4v1h-4z M11,14h3v1h-3z M18,14h1v1h-1z M22,13h4v2h-4z M40,14h1v1h-1z M51,14h5v1h-5z M66,14h2v1h-2z M88,14h2v1h-2z M98,13h4v2h-4z M109,13h3v2h-3z M121,14h2v1h-2z M125,14h4v1h-4z M132,14h6v1h-6z M142,12h3v3h-3z M147,14h3v1h-3z M156,14h5v1h-5z M164,14h4v1h-4z M181,13h4v2h-4z M205,14h1v1h-1z M212,14h2v1h-2z M244,14h2v1h-2z M249,14h5v1h-5z M1,14h7v2h-7z M23,15h2v1h-2z M47,15h1v1h-1z M53,15h2v1h-2z M67,15h1v1h-1z M75,13h4v3h-4z M87,15h3v1h-3z M99,15h2v1h-2z M109,15h2v1h-2z M116,15h1v1h-1z M121,15h3v1h-3z M126,15h5v1h-5z M132,15h7v1h-7z M144,15h1v1h-1z M147,15h4v1h-4z M158,15h2v1h-2z M165,15h3v1h-3z M171,14h5v2h-5z M196,14h3v2h-3z M204,15h3v1h-3z M218,14h2v2h-2z M233,13h4v3h-4z M1,16h6v1h-6z M12,16h2v1h-2z M61,16h2v1h-2z M76,16h3v1h-3z M83,16h1v1h-1z M88,16h2v1h-2z M116,16h2v1h-2z M127,16h5v1h-5z M134,16h6v1h-6z M147,16h3v1h-3z M153,16h1v1h-1z M159,16h3v1h-3z M165,16h4v1h-4z M172,16h3v1h-3z M182,15h3v2h-3z M189,16h3v1h-3z M227,16h3v1h-3z M1,17h4v1h-4z M17,15h3v3h-3z M28,17h2v1h-2z M33,15h4v3h-4z M46,16h4v2h-4z M60,17h4v1h-4z M71,17h2v1h-2z M82,17h2v1h-2z M91,17h2v1h-2z M103,17h1v1h-1z M115,17h4v1h-4z M120,16h5v2h-5z M128,17h4v1h-4z M142,17h2v1h-2z M148,17h1v1h-1z M153,17h2v1h-2z M159,17h4v1h-4z M174,17h4v1h-4z M188,17h5v1h-5z M204,16h4v2h-4z M218,16h3v2h-3z M235,17h2v1h-2z M247,15h7v3h-7z M27,18h3v1h-3z M34,18h3v1h-3z M41,18h3v1h-3z M46,18h3v1h-3z M56,18h2v1h-2z M61,18h2v1h-2z M82,18h3v1h-3z M103,18h2v1h-2z M115,18h11v1h-11z M128,18h7v1h-7z M136,17h4v2h-4z M153,18h3v1h-3z M158,18h5v1h-5z M189,18h4v1h-4z M197,18h2v1h-2z M205,18h2v1h-2z M211,18h2v1h-2z M226,17h5v2h-5z M1,18h8v2h-8z M12,17h3v3h-3z M27,19h4v1h-4z M40,19h4v1h-4z M70,18h3v2h-3z M83,19h2v1h-2z M91,18h3v2h-3z M116,19h11v1h-11z M130,19h5v1h-5z M141,18h4v2h-4z M148,19h1v1h-1z M153,19h4v1h-4z M159,19h4v1h-4z M166,17h3v3h-3z M175,18h4v2h-4z M189,19h3v1h-3z M227,19h4v1h-4z M235,18h3v2h-3z M243,17h3v3h-3z M248,18h6v2h-6z M1,20h9v1h-9z M21,20h2v1h-2z M27,20h3v1h-3z M36,20h2v1h-2z M40,20h5v1h-5z M50,20h2v1h-2z M55,19h4v2h-4z M71,20h1v1h-1z M91,20h2v1h-2z M114,20h13v1h-13z M131,20h4v1h-4z M137,19h3v2h-3z M142,20h2v1h-2z M147,20h3v1h-3z M154,20h4v1h-4z M159,20h3v1h-3z M176,20h2v1h-2z M196,19h4v2h-4z M220,20h2v1h-2z M228,20h1v1h-1z M247,20h7v1h-7z M6,21h3v1h-3z M28,21h2v1h-2z M41,21h3v1h-3z M50,21h3v1h-3z M56,21h3v1h-3z M64,21h2v1h-2z M76,20h4v2h-4z M114,21h14v1h-14z M137,21h4v1h-4z M147,21h4v1h-4z M154,21h5v1h-5z M197,21h3v1h-3z M210,19h4v3h-4z M220,21h3v1h-3z M235,20h2v2h-2z M246,21h8v1h-8z M50,22h4v1h-4z M64,22h3v1h-3z M77,22h3v1h-3z M108,20h3v3h-3z M132,21h2v2h-2z M137,22h3v1h-3z M148,22h4v1h-4z M155,22h4v1h-4z M166,20h4v3h-4z M182,20h4v3h-4z M190,22h2v1h-2z M211,22h2v1h-2z M234,22h1v1h-1z M246,22h7v1h-7z M1,21h4v3h-4z M15,23h3v1h-3z M21,21h3v3h-3z M35,21h4v3h-4z M50,23h3v1h-3z M65,23h2v1h-2z M109,23h1v1h-1z M114,22h16v2h-16z M132,23h3v1h-3z M138,23h2v1h-2z M142,23h3v1h-3z M149,23h3v1h-3z M155,23h3v1h-3z M159,23h1v1h-1z M166,23h5v1h-5z M176,23h2v1h-2z M182,23h3v1h-3z M205,22h2v2h-2z M220,22h4v2h-4z M233,23h3v1h-3z M247,23h6v1h-6z M1,24h5v1h-5z M9,24h3v1h-3z M14,24h4v1h-4z M21,24h2v1h-2z M30,23h3v2h-3z M36,24h2v1h-2z M51,24h1v1h-1z M59,24h2v1h-2z M84,23h3v2h-3z M102,24h3v1h-3z M114,24h15v1h-15z M131,24h5v1h-5z M142,24h4v1h-4z M149,24h4v1h-4z M168,24h2v1h-2z M175,24h3v1h-3z M199,24h2v1h-2z M205,24h3v1h-3z M213,24h3v1h-3z M221,24h6v1h-6z M233,24h4v1h-4z M15,25h3v1h-3z M30,25h4v1h-4z M39,25h1v1h-1z M72,24h3v2h-3z M79,25h2v1h-2z M85,25h2v1h-2z M91,25h2v1h-2z M114,25h4v1h-4z M121,25h9v1h-9z M132,25h7v1h-7z M143,25h2v1h-2z M150,25h3v1h-3z M154,25h1v1h-1z M158,24h4v2h-4z M168,25h3v1h-3z M175,25h4v1h-4z M189,23h3v3h-3z M206,25h1v1h-1z M223,25h5v1h-5z M233,25h3v1h-3z M240,22h4v4h-4z M247,24h7v2h-7z M8,25h4v2h-4z M16,26h5v1h-5z M30,26h3v1h-3z M44,23h3v4h-3z M53,26h2v1h-2z M58,25h4v2h-4z M72,26h1v1h-1z M102,25h4v2h-4z M107,24h3v3h-3z M113,26h4v1h-4z M122,26h8v1h-8z M133,26h7v1h-7z M151,26h4v1h-4z M158,26h5v1h-5z M168,26h4v1h-4z M176,26h2v1h-2z M184,26h2v1h-2z M190,26h3v1h-3z M207,26h2v1h-2z M212,25h4v2h-4z M223,26h4v1h-4z M233,26h2v1h-2z M241,26h3v1h-3z M1,25h6v3h-6z M9,27h3v1h-3z M45,27h2v1h-2z M59,27h2v1h-2z M78,26h4v2h-4z M90,26h4v2h-4z M103,27h2v1h-2z M108,27h1v1h-1z M112,27h5v1h-5z M136,27h5v1h-5z M147,27h2v1h-2z M159,27h5v1h-5z M183,27h3v1h-3z M198,25h3v3h-3z M206,27h3v1h-3z M213,27h3v1h-3z M224,27h3v1h-3z M246,26h8v2h-8z M1,28h5v1h-5z M11,28h3v1h-3z M17,27h4v2h-4z M24,25h4v4h-4z M32,28h4v1h-4z M45,28h3v1h-3z M52,27h4v2h-4z M67,27h2v2h-2z M80,28h2v1h-2z M91,28h2v1h-2z M96,28h3v1h-3z M118,28h2v1h-2z M122,27h9v2h-9z M136,28h7v1h-7z M152,27h4v2h-4z M161,28h4v1h-4z M167,27h5v2h-5z M183,28h4v1h-4z M206,28h4v1h-4z M225,28h4v1h-4z M233,28h3v1h-3z M247,28h7v1h-7z M18,29h4v1h-4z M38,26h3v4h-3z M53,29h3v1h-3z M61,29h2v1h-2z M68,29h1v1h-1z M85,29h1v1h-1z M113,28h3v2h-3z M123,29h7v1h-7z M134,29h3v1h-3z M139,29h5v1h-5z M146,28h4v2h-4z M152,29h6v1h-6z M161,29h5v1h-5z M168,29h3v1h-3z M176,29h3v1h-3z M184,29h2v1h-2z M191,27h4v3h-4z M207,29h3v1h-3z M219,29h3v1h-3z M241,27h4v3h-4z M248,29h6v1h-6z M7,30h2v1h-2z M18,30h3v1h-3z M27,30h2v1h-2z M40,30h1v1h-1z M45,29h4v2h-4z M54,30h3v1h-3z M60,30h3v1h-3z M84,30h2v1h-2z M96,29h4v2h-4z M118,29h4v2h-4z M123,30h5v1h-5z M140,30h4v1h-4z M146,30h5v1h-5z M156,30h3v1h-3z M162,30h3v1h-3z M186,30h3v1h-3z M192,30h3v1h-3z M201,30h3v1h-3z M208,30h1v1h-1z M218,30h5v1h-5z M226,29h4v2h-4z M233,29h4v2h-4z M242,30h3v1h-3z M247,30h7v1h-7z M12,29h4v3h-4z M33,29h3v3h-3z M40,31h3v1h-3z M46,31h3v1h-3z M61,31h3v1h-3z M73,29h3v3h-3z M84,31h3v1h-3z M97,31h2v1h-2z M105,31h3v1h-3z M118,31h3v1h-3z M123,31h4v1h-4z M133,30h4v2h-4z M141,31h4v1h-4z M147,31h5v1h-5z M155,31h4v1h-4z M200,31h5v1h-5z M219,31h4v1h-4z M227,31h3v1h-3z M233,31h3v1h-3z M246,31h8v1h-8z M6,31h4v2h-4z M13,32h2v1h-2z M21,32h3v1h-3z M26,31h4v2h-4z M34,32h2v1h-2z M46,32h2v1h-2z M54,31h4v2h-4z M69,32h1v1h-1z M85,32h1v1h-1z M104,32h4v1h-4z M118,32h1v1h-1z M124,32h4v1h-4z M131,32h5v1h-5z M144,32h4v1h-4z M149,32h4v1h-4z M156,32h3v1h-3z M167,32h3v1h-3z M175,30h5v3h-5z M186,31h4v2h-4z M195,32h2v1h-2z M200,32h4v1h-4z M219,32h3v1h-3z M228,32h1v1h-1z M234,32h2v1h-2z M238,32h1v1h-1z M245,32h9v1h-9z M7,33h2v1h-2z M16,33h2v1h-2z M21,33h4v1h-4z M27,33h2v1h-2z M79,33h1v1h-1z M105,33h3v1h-3z M113,33h1v1h-1z M130,33h6v1h-6z M143,33h10v1h-10z M155,33h3v1h-3z M161,33h2v1h-2z M166,33h4v1h-4z M177,33h4v1h-4z M186,33h3v1h-3z M195,33h3v1h-3z M201,33h3v1h-3z M220,33h2v1h-2z M230,33h1v1h-1z M238,33h3v1h-3z M16,34h3v1h-3z M20,34h5v1h-5z M28,34h1v1h-1z M33,33h4v2h-4z M40,32h4v3h-4z M49,34h3v1h-3z M54,33h5v2h-5z M68,33h3v2h-3z M78,34h3v1h-3z M91,32h3v3h-3z M98,34h2v1h-2z M105,34h2v1h-2z M124,33h3v2h-3z M130,34h9v1h-9z M143,34h5v1h-5z M151,34h1v1h-1z M167,34h3v1h-3z M179,34h2v1h-2z M187,34h3v1h-3z M194,34h4v1h-4z M215,34h2v1h-2z M221,34h2v1h-2z M229,34h3v1h-3z M237,34h4v1h-4z M1,29h4v7h-4z M6,35h3v1h-3z M11,35h2v1h-2z M15,35h5v1h-5z M21,35h4v1h-4z M43,35h3v1h-3z M64,35h1v1h-1z M78,35h2v1h-2z M87,35h1v1h-1z M131,35h2v1h-2z M160,34h4v2h-4z M168,35h1v1h-1z M172,35h3v1h-3z M195,35h3v1h-3z M201,34h2v2h-2z M207,35h3v1h-3z M214,35h4v1h-4z M220,35h4v1h-4z M238,35h4v1h-4z M1,36h13v1h-13z M15,36h4v1h-4z M23,36h2v1h-2z M28,35h3v2h-3z M34,35h3v2h-3z M49,35h4v2h-4z M73,36h2v1h-2z M86,36h3v1h-3z M97,35h3v2h-3z M104,36h2v1h-2z M112,34h3v3h-3z M135,35h5v2h-5z M143,35h4v2h-4z M161,36h3v1h-3z M172,36h4v1h-4z M179,35h3v2h-3z M229,35h4v2h-4z M239,36h4v1h-4z M10,37h4v1h-4z M23,37h3v1h-3z M28,37h4v1h-4z M38,37h2v1h-2z M50,37h3v1h-3z M58,37h3v1h-3z M63,36h3v2h-3z M72,37h3v1h-3z M85,37h4v1h-4z M96,37h3v1h-3z M104,37h3v1h-3z M124,37h3v1h-3z M136,37h4v1h-4z M142,37h5v1h-5z M149,37h2v1h-2z M154,34h3v4h-3z M166,37h2v1h-2z M171,37h5v1h-5z M180,37h1v1h-1z M188,35h4v3h-4z M200,36h4v2h-4z M214,36h10v2h-10z M229,37h3v1h-3z M1,37h8v2h-8z M12,38h1v1h-1z M17,37h2v2h-2z M23,38h4v1h-4z M29,38h3v1h-3z M33,38h1v1h-1z M38,38h3v1h-3z M43,36h4v3h-4z M72,38h4v1h-4z M80,38h3v1h-3z M86,38h3v1h-3z M103,38h4v1h-4z M111,38h2v1h-2z M118,35h3v4h-3z M143,38h4v1h-4z M148,38h4v1h-4z M172,38h4v1h-4z M188,38h3v1h-3z M200,38h3v1h-3z M206,36h4v3h-4z M213,38h6v1h-6z M220,38h3v1h-3z M226,38h3v1h-3z M233,38h2v1h-2z M246,33h8v6h-8z M12,39h2v1h-2z M17,39h3v1h-3z M23,39h3v1h-3z M29,39h1v1h-1z M33,39h2v1h-2z M37,39h4v1h-4z M44,39h3v1h-3z M57,38h4v2h-4z M73,39h3v1h-3z M92,39h2v1h-2z M103,39h3v1h-3z M124,38h4v2h-4z M132,39h3v1h-3z M143,39h3v1h-3z M156,39h2v1h-2z M166,38h3v2h-3z M173,39h2v1h-2z M176,39h2v1h-2z M182,37h3v3h-3z M188,39h2v1h-2z M192,39h3v1h-3z M199,39h5v1h-5z M206,39h3v1h-3z M213,39h3v1h-3z M219,39h3v1h-3z M225,39h4v1h-4z M239,37h5v3h-5z M1,39h4v2h-4z M6,39h2v2h-2z M28,40h2v1h-2z M38,40h3v1h-3z M47,40h3v1h-3z M51,38h3v3h-3z M59,40h1v1h-1z M74,40h2v1h-2z M79,39h4v2h-4z M118,40h3v1h-3z M144,40h1v1h-1z M149,39h3v2h-3z M166,40h2v1h-2z M182,40h8v1h-8z M206,40h4v1h-4z M240,40h3v1h-3z M11,40h9v2h-9z M32,40h4v2h-4z M41,41h3v1h-3z M46,41h8v1h-8z M67,40h3v2h-3z M80,41h3v1h-3z M91,40h3v2h-3z M100,41h3v1h-3z M110,39h4v3h-4z M125,40h2v2h-2z M131,40h4v2h-4z M139,41h2v1h-2z M149,41h2v1h-2z M162,41h3v1h-3z M192,40h4v2h-4z M198,40h5v2h-5z M205,41h5v1h-5z M212,40h4v2h-4z M225,40h5v2h-5z M247,39h7v3h-7z M12,42h4v1h-4z M17,42h3v1h-3z M22,42h2v1h-2z M33,42h3v1h-3z M46,42h4v1h-4z M52,42h1v1h-1z M73,41h3v2h-3z M92,42h1v1h-1z M111,42h2v1h-2z M117,41h4v2h-4z M124,42h3v1h-3z M132,42h2v1h-2z M146,42h3v1h-3z M155,40h3v3h-3z M168,42h3v1h-3z M175,40h4v3h-4z M186,41h4v2h-4z M192,42h3v1h-3z M198,42h4v1h-4z M232,39h4v4h-4z M239,41h4v2h-4z M246,42h8v1h-8z M12,43h3v1h-3z M17,43h8v1h-8z M27,41h4v3h-4z M34,43h4v1h-4z M41,42h4v2h-4z M47,43h4v1h-4z M61,41h3v3h-3z M73,43h4v1h-4z M85,43h3v1h-3z M100,42h4v2h-4z M107,43h3v1h-3z M118,43h3v1h-3z M133,43h1v1h-1z M138,42h4v2h-4z M145,43h4v1h-4z M161,42h4v2h-4z M175,43h3v1h-3z M185,43h4v1h-4z M197,43h4v1h-4z M205,42h4v2h-4z M211,42h4v2h-4z M218,40h4v4h-4z M226,42h3v2h-3z M232,43h5v1h-5z M239,43h5v1h-5z M1,41h8v4h-8z M12,44h2v1h-2z M28,44h5v1h-5z M42,44h3v1h-3z M49,44h3v1h-3z M56,43h3v2h-3z M62,44h1v1h-1z M68,44h2v1h-2z M73,44h3v1h-3z M84,44h5v1h-5z M101,44h2v1h-2z M124,43h4v2h-4z M132,44h2v1h-2z M145,44h5v1h-5z M152,44h3v1h-3z M162,44h2v1h-2z M168,43h4v2h-4z M184,44h5v1h-5z M205,44h3v1h-3z M239,44h4v1h-4z M11,45h3v1h-3z M16,44h9v2h-9z M43,45h1v1h-1z M56,45h4v1h-4z M67,45h4v1h-4z M85,45h3v1h-3z M107,44h4v2h-4z M114,45h2v1h-2z M124,45h3v1h-3z M132,45h3v1h-3z M138,44h3v2h-3z M145,45h4v1h-4z M159,45h1v1h-1z M168,45h3v1h-3z M180,45h3v1h-3z M185,45h4v1h-4z M226,44h4v2h-4z M233,44h4v2h-4z M240,45h5v1h-5z M247,43h7v3h-7z M1,45h7v2h-7z M26,46h2v1h-2z M36,44h4v3h-4z M44,46h1v1h-1z M49,45h4v2h-4z M56,46h3v1h-3z M63,46h2v1h-2z M68,46h3v1h-3z M107,46h3v1h-3z M123,46h2v1h-2z M146,46h2v1h-2z M151,45h4v2h-4z M158,46h2v1h-2z M164,46h1v1h-1z M185,46h5v1h-5z M204,45h4v2h-4z M218,44h5v3h-5z M226,46h5v1h-5z M234,46h4v1h-4z M241,46h13v1h-13z M11,46h11v2h-11z M30,45h4v3h-4z M37,47h2v1h-2z M49,47h3v1h-3z M57,47h2v1h-2z M69,47h1v1h-1z M92,46h3v2h-3z M98,47h3v1h-3z M114,46h3v2h-3z M131,46h4v2h-4z M145,47h3v1h-3z M163,47h3v1h-3z M174,44h3v4h-3z M180,46h4v2h-4z M197,44h3v4h-3z M205,47h2v1h-2z M210,44h5v4h-5z M219,47h4v1h-4z M227,47h5v1h-5z M237,47h3v1h-3z M242,47h12v1h-12z M1,47h8v2h-8z M11,48h12v1h-12z M25,47h4v2h-4z M31,48h3v1h-3z M50,48h2v1h-2z M56,48h4v1h-4z M62,47h4v2h-4z M92,48h4v1h-4z M97,48h4v1h-4z M115,48h2v1h-2z M121,47h4v2h-4z M138,46h4v3h-4z M157,47h3v2h-3z M171,48h3v1h-3z M179,48h4v1h-4z M192,48h3v1h-3z M220,48h4v1h-4z M229,48h4v1h-4z M236,48h18v1h-18z M37,48h3v2h-3z M43,47h4v3h-4z M54,49h6v1h-6z M63,49h4v1h-4z M77,47h3v3h-3z M93,49h1v1h-1z M97,49h5v1h-5z M106,49h2v1h-2z M122,49h3v1h-3z M129,49h3v1h-3z M138,49h3v1h-3z M144,48h4v2h-4z M152,47h3v3h-3z M158,49h2v1h-2z M162,48h4v2h-4z M177,49h4v1h-4z M186,47h4v3h-4z M192,49h4v1h-4z M199,49h1v1h-1z M205,49h1v1h-1z M221,49h4v1h-4z M229,49h5v1h-5z M236,49h5v1h-5z M243,49h10v1h-10z M10,49h3v2h-3z M15,49h8v2h-8z M26,49h3v2h-3z M31,49h4v2h-4z M38,50h3v1h-3z M44,50h2v1h-2z M53,50h7v1h-7z M78,50h2v1h-2z M85,50h2v1h-2z M98,50h3v1h-3z M105,50h3v1h-3z M113,50h2v1h-2z M123,50h1v1h-1z M145,50h3v1h-3z M159,50h6v1h-6z M170,49h4v2h-4z M176,50h4v1h-4z M186,50h3v1h-3z M197,50h4v1h-4z M204,50h3v1h-3z M211,48h4v3h-4z M220,50h6v1h-6z M230,50h4v1h-4z M1,49h7v3h-7z M31,51h5v1h-5z M39,51h1v1h-1z M53,51h6v1h-6z M99,51h2v1h-2z M105,51h4v1h-4z M129,50h4v2h-4z M151,50h4v2h-4z M170,51h3v1h-3z M176,51h5v1h-5z M184,51h3v1h-3z M191,50h5v2h-5z M204,51h4v1h-4z M210,51h5v1h-5z M216,51h1v1h-1z M220,51h5v1h-5z M230,51h3v1h-3z M1,52h8v1h-8z M20,51h3v2h-3z M32,52h4v1h-4z M42,52h1v1h-1z M47,51h3v2h-3z M53,52h3v1h-3z M66,50h3v3h-3z M92,52h2v1h-2z M105,52h3v1h-3z M112,51h4v2h-4z M130,52h2v1h-2z M136,50h5v3h-5z M145,51h2v2h-2z M152,52h3v1h-3z M166,52h3v1h-3z M176,52h4v1h-4z M183,52h4v1h-4z M191,52h4v1h-4z M197,51h5v2h-5z M203,52h5v1h-5z M209,52h5v1h-5z M216,52h3v1h-3z M221,52h4v1h-4z M244,50h10v3h-10z M10,51h8v3h-8z M25,51h4v3h-4z M32,53h3v1h-3z M47,53h2v1h-2z M59,53h2v1h-2z M67,53h2v1h-2z M84,51h4v3h-4z M92,53h3v1h-3z M112,53h3v1h-3z M120,53h3v1h-3z M127,53h2v1h-2z M137,53h3v1h-3z M159,51h4v3h-4z M173,53h2v1h-2z M179,53h1v1h-1z M183,53h5v1h-5z M190,53h5v1h-5z M197,53h4v1h-4z M203,53h10v1h-10z M236,50h4v4h-4z M1,53h7v2h-7z M9,54h9v1h-9z M19,53h5v2h-5z M27,54h5v1h-5z M41,53h3v2h-3z M73,53h3v2h-3z M113,54h2v1h-2z M126,54h3v1h-3z M145,53h3v2h-3z M153,54h1v1h-1z M166,53h4v2h-4z M179,54h2v1h-2z M184,54h4v1h-4z M190,54h4v1h-4z M197,54h15v1h-15z M215,53h4v2h-4z M222,53h4v2h-4z M229,54h3v1h-3z M235,54h5v1h-5z M29,55h3v1h-3z M42,55h2v1h-2z M73,55h4v1h-4z M80,55h3v1h-3z M91,54h4v2h-4z M119,54h4v2h-4z M133,55h2v1h-2z M145,55h2v1h-2z M166,55h3v1h-3z M186,55h2v1h-2z M191,55h3v1h-3z M214,55h4v1h-4z M221,55h5v1h-5z M246,53h8v3h-8z M1,55h17v2h-17z M20,55h3v2h-3z M25,56h8v1h-8z M35,54h3v3h-3z M43,56h1v1h-1z M73,56h3v1h-3z M92,56h3v1h-3z M99,55h4v2h-4z M108,56h1v1h-1z M120,56h3v1h-3z M125,55h4v2h-4z M131,56h5v1h-5z M152,55h4v2h-4z M160,56h3v1h-3z M167,56h2v1h-2z M172,54h4v3h-4z M186,56h3v1h-3z M197,55h9v2h-9z M214,56h3v1h-3z M220,56h6v1h-6z M228,55h4v2h-4z M234,55h9v2h-9z M245,56h9v1h-9z M19,57h4v1h-4z M29,57h7v1h-7z M43,57h2v1h-2z M49,57h3v1h-3z M59,54h3v4h-3z M79,56h5v2h-5z M88,57h2v1h-2z M107,57h3v1h-3z M115,57h1v1h-1z M140,57h3v1h-3z M152,57h3v1h-3z M167,57h3v1h-3z M173,57h3v1h-3z M185,57h4v1h-4z M193,57h3v1h-3z M198,57h7v1h-7z M208,55h4v3h-4z M220,57h5v1h-5z M25,57h3v2h-3z M30,58h5v1h-5z M42,58h4v1h-4z M67,58h1v1h-1z M80,58h4v1h-4z M100,57h3v2h-3z M132,57h4v2h-4z M139,58h4v1h-4z M160,57h4v2h-4z M174,58h2v1h-2z M178,55h4v4h-4z M185,58h5v1h-5z M193,58h4v1h-4z M207,58h4v1h-4z M213,57h5v2h-5z M220,58h4v1h-4z M227,57h5v2h-5z M234,57h5v2h-5z M240,57h14v2h-14z M1,57h16v3h-16z M18,58h5v2h-5z M25,59h2v1h-2z M31,59h4v1h-4z M42,59h3v1h-3z M48,58h5v2h-5z M80,59h3v1h-3z M87,58h4v2h-4z M96,59h1v1h-1z M107,58h4v2h-4z M114,58h3v2h-3z M121,59h3v1h-3z M140,59h3v1h-3z M148,59h3v1h-3z M160,59h3v1h-3z M174,59h3v1h-3z M180,59h3v1h-3z M186,59h3v1h-3z M192,59h4v1h-4z M199,58h5v2h-5z M213,59h4v1h-4z M219,59h5v1h-5z M227,59h4v1h-4z M234,59h11v1h-11z M246,59h8v1h-8z M1,60h7v1h-7z M9,60h7v1h-7z M19,60h5v1h-5z M32,60h3v1h-3z M39,60h3v1h-3z M49,60h3v1h-3z M55,60h3v1h-3z M66,59h3v2h-3z M73,60h3v1h-3z M87,60h3v1h-3z M94,60h3v1h-3z M107,60h3v1h-3z M115,60h2v1h-2z M129,60h2v1h-2z M141,60h1v1h-1z M157,60h1v1h-1z M167,58h4v3h-4z M174,60h4v1h-4z M187,60h3v1h-3z M199,60h4v1h-4z M226,60h5v1h-5z M234,60h5v1h-5z M240,60h5v1h-5z M38,61h5v1h-5z M67,61h2v1h-2z M73,61h4v1h-4z M120,60h4v2h-4z M148,60h4v2h-4z M170,61h2v1h-2z M174,61h3v1h-3z M193,60h3v2h-3z M206,59h4v3h-4z M212,60h4v2h-4z M226,61h4v1h-4z M234,61h4v1h-4z M240,61h6v1h-6z M11,61h4v2h-4z M16,62h1v1h-1z M20,61h4v2h-4z M28,61h8v2h-8z M55,61h4v2h-4z M72,62h5v1h-5z M80,62h3v1h-3z M88,61h1v2h-1z M94,61h4v2h-4z M101,61h3v2h-3z M109,62h1v1h-1z M120,62h3v1h-3z M128,61h4v2h-4z M136,62h1v1h-1z M149,62h2v1h-2z M156,61h4v2h-4z M165,62h2v1h-2z M170,62h3v1h-3z M175,62h2v1h-2z M200,61h3v2h-3z M206,62h5v1h-5z M212,62h5v1h-5z M219,60h4v3h-4z M232,62h5v1h-5z M241,62h5v1h-5z M11,63h3v1h-3z M21,63h3v1h-3z M28,63h4v1h-4z M38,62h4v2h-4z M45,63h3v1h-3z M55,63h3v1h-3z M63,63h2v1h-2z M73,63h4v1h-4z M87,63h2v1h-2z M96,63h1v1h-1z M101,63h4v1h-4z M129,63h3v1h-3z M136,63h3v1h-3z M156,63h3v1h-3z M176,63h2v1h-2z M180,60h4v4h-4z M187,61h4v3h-4z M200,63h4v1h-4z M207,63h4v1h-4z M213,63h10v1h-10z M231,63h5v1h-5z M238,63h8v1h-8z M247,60h7v4h-7z M6,64h3v1h-3z M12,64h2v1h-2z M24,64h8v1h-8z M34,64h3v1h-3z M39,64h2v1h-2z M44,64h4v1h-4z M74,64h2v1h-2z M79,63h5v2h-5z M87,64h3v1h-3z M101,64h3v1h-3z M108,63h4v2h-4z M119,64h3v1h-3z M130,64h1v1h-1z M149,64h2v1h-2z M164,63h4v2h-4z M169,63h5v2h-5z M176,64h3v1h-3z M193,62h4v3h-4z M199,64h5v1h-5z M225,62h4v3h-4z M232,64h4v1h-4z M6,65h4v1h-4z M11,65h3v1h-3z M16,63h3v3h-3z M30,65h1v1h-1z M33,65h4v1h-4z M43,65h5v1h-5z M52,65h2v1h-2z M62,64h3v2h-3z M80,65h3v1h-3z M109,65h3v1h-3z M118,65h4v1h-4z M135,64h4v2h-4z M142,64h4v2h-4z M163,65h2v1h-2z M169,65h4v1h-4z M188,64h3v2h-3z M200,65h4v1h-4z M215,64h4v2h-4z M223,65h6v1h-6z M231,65h5v1h-5z M237,64h17v2h-17z M6,66h8v1h-8z M16,66h2v1h-2z M24,65h5v2h-5z M33,66h5v1h-5z M41,66h7v1h-7z M51,66h4v1h-4z M70,66h1v1h-1z M86,65h4v2h-4z M94,66h2v1h-2z M109,66h2v1h-2z M135,66h3v1h-3z M141,66h4v1h-4z M155,66h3v1h-3z M161,66h4v1h-4z M170,66h2v1h-2z M194,65h4v2h-4z M201,66h4v1h-4z M215,66h5v1h-5z M229,66h4v1h-4z M1,61h4v7h-4z M7,67h7v1h-7z M25,67h7v1h-7z M34,67h4v1h-4z M41,67h8v1h-8z M50,67h6v1h-6z M76,67h2v1h-2z M101,67h1v1h-1z M118,66h3v2h-3z M142,67h2v1h-2z M148,65h4v3h-4z M154,67h4v1h-4z M161,67h5v1h-5z M188,66h4v2h-4z M195,67h4v1h-4z M202,67h4v1h-4z M208,64h4v4h-4z M214,67h6v1h-6z M223,66h4v2h-4z M1,68h14v1h-14z M37,68h8v1h-8z M47,68h9v1h-9z M59,67h3v2h-3z M69,67h3v2h-3z M93,67h4v2h-4z M100,68h3v1h-3z M113,68h2v1h-2z M127,66h3v3h-3z M134,67h4v2h-4z M141,68h3v1h-3z M149,68h3v1h-3z M155,68h3v1h-3z M162,68h4v1h-4z M169,67h3v2h-3z M194,68h5v1h-5z M202,68h19v1h-19z M223,68h3v1h-3z M1,69h16v1h-16z M19,67h4v3h-4z M28,68h4v2h-4z M37,69h6v1h-6z M47,69h6v1h-6z M54,69h3v1h-3z M58,69h4v1h-4z M67,69h5v1h-5z M75,68h4v2h-4z M94,69h3v1h-3z M100,69h2v1h-2z M106,68h4v2h-4z M128,69h2v1h-2z M134,69h3v1h-3z M156,69h2v1h-2z M163,69h2v1h-2z M168,69h4v1h-4z M175,65h4v5h-4z M194,69h4v1h-4z M202,69h24v1h-24z M6,70h6v1h-6z M20,70h3v1h-3z M24,70h2v1h-2z M29,70h3v1h-3z M47,70h4v1h-4z M59,70h3v1h-3z M66,70h3v1h-3z M76,70h3v1h-3z M96,70h1v1h-1z M107,70h2v1h-2z M113,69h3v2h-3z M121,70h3v1h-3z M136,70h1v1h-1z M141,69h4v2h-4z M159,70h2v1h-2z M166,70h6v1h-6z M174,70h4v1h-4z M188,68h3v3h-3z M193,70h5v1h-5z M201,70h5v1h-5z M207,70h2v1h-2z M212,70h14v1h-14z M234,66h20v5h-20z M6,71h5v1h-5z M21,71h6v1h-6z M29,71h4v1h-4z M37,70h4v2h-4z M42,71h2v1h-2z M48,71h3v1h-3z M89,71h2v1h-2z M96,71h2v1h-2z M107,71h1v1h-1z M113,71h2v1h-2z M121,71h4v1h-4z M130,71h1v1h-1z M142,71h2v1h-2z M148,69h5v3h-5z M165,71h12v1h-12z M181,64h4v8h-4z M187,71h4v1h-4z M200,71h5v1h-5z M207,71h3v1h-3z M213,71h13v1h-13z M229,67h3v5h-3z M14,70h4v3h-4z M23,72h5v1h-5z M30,72h4v1h-4z M40,72h6v1h-6z M49,72h2v1h-2z M54,70h4v3h-4z M63,72h2v1h-2z M66,71h2v2h-2z M73,72h1v1h-1z M82,69h3v4h-3z M121,72h3v1h-3z M130,72h2v1h-2z M149,72h5v1h-5z M157,71h5v2h-5z M165,72h4v1h-4z M171,72h4v1h-4z M180,72h3v1h-3z M186,72h5v1h-5z M199,72h5v1h-5z M228,72h4v1h-4z M233,71h13v2h-13z M247,71h7v2h-7z M1,70h4v4h-4z M7,72h6v2h-6z M15,73h1v1h-1z M20,73h8v1h-8z M31,73h3v1h-3z M41,73h5v1h-5z M50,73h3v1h-3z M55,73h3v1h-3z M72,73h3v1h-3z M83,73h1v1h-1z M105,73h3v1h-3z M122,73h1v1h-1z M129,73h4v1h-4z M151,73h3v1h-3z M158,73h3v1h-3z M165,73h3v1h-3z M185,73h6v1h-6z M193,71h4v3h-4z M200,73h4v1h-4z M219,72h6v2h-6z M228,73h3v1h-3z M233,73h21v1h-21z M1,74h12v1h-12z M19,74h9v1h-9z M32,74h2v1h-2z M37,74h2v1h-2z M42,74h4v1h-4z M61,73h4v2h-4z M68,74h2v1h-2z M72,74h4v1h-4z M80,74h2v1h-2z M89,72h3v3h-3z M96,72h3v3h-3z M112,74h2v1h-2z M130,74h2v1h-2z M137,73h3v2h-3z M145,74h3v1h-3z M159,74h2v1h-2z M171,73h5v2h-5z M185,74h5v1h-5z M191,74h5v1h-5z M198,74h1v1h-1z M201,74h4v1h-4z M206,72h4v3h-4z M213,72h4v3h-4z M219,74h5v1h-5z M232,74h22v1h-22z M9,75h3v1h-3z M19,75h4v1h-4z M43,75h2v1h-2z M58,75h7v1h-7z M68,75h3v1h-3z M72,75h3v1h-3z M89,75h4v1h-4z M104,74h4v2h-4z M112,75h3v1h-3z M138,75h2v1h-2z M166,74h2v2h-2z M172,75h3v1h-3z M179,73h4v3h-4z M185,75h4v1h-4z M208,75h2v1h-2z M213,75h5v1h-5z M219,75h4v1h-4z M226,74h3v2h-3z M242,75h12v1h-12z M9,76h2v1h-2z M15,76h2v1h-2z M20,76h3v1h-3z M25,75h4v2h-4z M36,75h4v2h-4z M46,76h3v1h-3z M50,74h4v3h-4z M67,76h4v1h-4z M99,76h1v1h-1z M105,76h2v1h-2z M126,76h2v1h-2z M144,75h4v2h-4z M151,74h4v3h-4z M158,75h3v2h-3z M180,76h2v1h-2z M187,76h1v1h-1z M208,76h3v1h-3z M220,76h3v1h-3z M225,76h4v1h-4z M14,77h4v1h-4z M32,77h9v1h-9z M45,77h4v1h-4z M53,77h3v1h-3z M57,76h4v2h-4z M65,77h6v1h-6z M79,75h3v3h-3z M90,76h3v2h-3z M98,77h3v1h-3z M111,76h4v2h-4z M118,76h3v2h-3z M133,77h1v1h-1z M146,77h1v1h-1z M152,77h2v1h-2z M174,77h3v1h-3z M190,75h5v3h-5z M196,75h4v3h-4z M202,75h4v3h-4z M220,77h4v1h-4z M226,77h3v1h-3z M231,75h5v3h-5z M237,75h4v3h-4z M1,75h7v4h-7z M10,78h2v1h-2z M14,78h5v1h-5z M21,77h8v2h-8z M37,78h3v1h-3z M45,78h5v1h-5z M53,78h8v1h-8z M64,78h6v1h-6z M75,78h2v1h-2z M97,78h4v1h-4z M110,78h4v1h-4z M119,78h3v1h-3z M125,77h4v2h-4z M140,78h2v1h-2z M159,77h2v2h-2z M165,76h4v3h-4z M184,78h1v1h-1z M197,78h3v1h-3z M203,78h3v1h-3z M237,78h3v1h-3z M1,79h4v1h-4z M8,79h5v1h-5z M15,79h4v1h-4z M20,79h10v1h-10z M39,79h6v1h-6z M46,79h4v1h-4z M64,79h4v1h-4z M83,79h1v1h-1z M85,78h3v2h-3z M109,79h3v1h-3z M121,79h3v1h-3z M126,79h3v1h-3z M132,78h3v2h-3z M140,79h3v1h-3z M166,79h3v1h-3z M174,78h4v2h-4z M183,79h3v1h-3z M190,78h4v2h-4z M208,77h4v3h-4z M214,76h4v4h-4z M243,76h11v4h-11z M16,80h14v1h-14z M32,78h4v3h-4z M47,80h4v1h-4z M53,79h4v2h-4z M64,80h3v1h-3z M75,79h3v2h-3z M82,80h6v1h-6z M94,79h3v2h-3z M105,80h7v1h-7z M121,80h4v1h-4z M132,80h2v1h-2z M139,80h4v1h-4z M157,80h2v1h-2z M174,80h3v1h-3z M182,80h4v1h-4z M197,79h4v2h-4z M204,80h3v1h-3z M210,80h3v1h-3z M216,80h3v1h-3z M221,78h3v3h-3z M226,78h4v3h-4z M231,78h4v3h-4z M1,80h13v2h-13z M17,81h13v1h-13z M34,81h3v1h-3z M41,80h4v2h-4z M48,81h4v1h-4z M54,81h2v1h-2z M59,81h2v1h-2z M64,81h2v1h-2z M71,81h2v1h-2z M74,81h3v1h-3z M81,81h5v1h-5z M95,81h1v1h-1z M105,81h4v1h-4z M117,81h1v1h-1z M122,81h3v1h-3z M131,81h2v1h-2z M140,81h3v1h-3z M165,81h2v1h-2z M183,81h3v1h-3z M198,81h3v1h-3z M222,81h13v1h-13z M237,79h4v3h-4z M1,82h14v1h-14z M17,82h5v1h-5z M25,82h5v1h-5z M41,82h5v1h-5z M48,82h5v1h-5z M70,82h4v1h-4z M123,82h2v1h-2z M149,80h4v3h-4z M164,82h3v1h-3z M172,82h3v1h-3z M180,82h1v1h-1z M189,80h5v3h-5z M198,82h2v1h-2z M203,81h5v2h-5z M223,82h4v1h-4z M230,82h5v1h-5z M236,82h4v1h-4z M242,80h4v3h-4z M248,80h6v3h-6z M1,83h9v1h-9z M11,83h13v1h-13z M26,83h3v1h-3z M35,82h4v2h-4z M43,83h9v1h-9z M58,82h4v2h-4z M70,83h3v1h-3z M81,82h3v2h-3z M105,82h3v2h-3z M111,83h2v1h-2z M116,82h3v2h-3z M148,83h4v1h-4z M156,81h4v3h-4z M163,83h4v1h-4z M193,83h2v1h-2z M201,83h7v1h-7z M210,81h4v3h-4z M216,81h4v3h-4z M230,83h4v1h-4z M1,84h6v1h-6z M12,84h6v1h-6z M20,84h5v1h-5z M30,84h2v1h-2z M35,84h5v1h-5z M43,84h5v1h-5z M54,84h2v1h-2z M59,84h3v1h-3z M67,84h4v1h-4z M77,84h1v1h-1z M89,82h3v3h-3z M117,84h2v1h-2z M124,83h4v2h-4z M135,84h3v1h-3z M140,82h2v3h-2z M148,84h3v1h-3z M164,84h3v1h-3z M193,84h3v1h-3z M207,84h9v1h-9z M217,84h3v1h-3z M222,83h5v2h-5z M229,84h5v1h-5z M236,83h3v2h-3z M241,83h4v2h-4z M1,85h4v1h-4z M13,85h4v1h-4z M21,85h7v1h-7z M29,85h4v1h-4z M40,85h8v1h-8z M52,85h5v1h-5z M64,85h1v1h-1z M66,85h4v1h-4z M84,85h3v1h-3z M89,85h2v1h-2z M96,85h2v1h-2z M100,83h3v3h-3z M125,85h3v1h-3z M135,85h4v1h-4z M141,85h1v1h-1z M144,85h1v1h-1z M147,85h4v1h-4z M171,83h4v3h-4z M178,83h4v3h-4z M186,83h4v3h-4z M193,85h4v1h-4z M206,85h5v1h-5z M1,86h7v1h-7z M13,86h3v1h-3z M22,86h11v1h-11z M40,86h7v1h-7z M63,86h7v1h-7z M76,85h3v2h-3z M92,86h7v1h-7z M110,84h3v3h-3z M125,86h2v1h-2z M131,86h1v1h-1z M142,86h3v1h-3z M148,86h3v1h-3z M156,84h3v3h-3z M179,86h2v1h-2z M186,86h3v1h-3z M200,84h4v3h-4z M219,85h14v2h-14z M236,85h4v2h-4z M241,85h3v2h-3z M247,83h7v4h-7z M23,87h10v1h-10z M36,85h2v3h-2z M39,87h8v1h-8z M50,86h7v2h-7z M71,87h2v1h-2z M76,87h7v1h-7z M84,86h4v2h-4z M91,87h8v1h-8z M100,86h2v2h-2z M105,86h3v2h-3z M111,87h3v1h-3z M119,86h3v2h-3z M129,87h4v1h-4z M135,86h3v2h-3z M142,87h4v1h-4z M157,87h2v1h-2z M171,86h3v2h-3z M185,87h4v1h-4z M207,86h4v2h-4z M212,85h5v3h-5z M220,87h4v1h-4z M231,87h5v1h-5z M237,87h4v1h-4z M242,87h3v1h-3z M1,87h8v2h-8z M14,88h2v1h-2z M40,88h8v1h-8z M49,88h5v1h-5z M59,88h1v1h-1z M63,87h4v2h-4z M70,88h4v1h-4z M76,88h13v1h-13z M91,88h7v1h-7z M105,88h4v1h-4z M119,88h4v1h-4z M130,88h8v1h-8z M143,88h3v1h-3z M158,88h1v1h-1z M165,88h3v1h-3z M171,88h4v1h-4z M179,88h3v1h-3z M193,86h3v3h-3z M213,88h3v1h-3z M220,88h3v1h-3z M225,87h4v2h-4z M248,87h6v2h-6z M6,89h3v1h-3z M14,89h3v1h-3z M26,88h2v2h-2z M35,88h3v2h-3z M51,89h2v1h-2z M58,89h3v1h-3z M65,89h9v1h-9z M76,89h8v1h-8z M86,89h11v1h-11z M105,89h5v1h-5z M120,89h4v1h-4z M125,87h3v3h-3z M143,89h2v1h-2z M157,89h3v1h-3z M164,89h4v1h-4z M171,89h5v1h-5z M185,88h3v2h-3z M192,89h4v1h-4z M202,89h3v1h-3z M213,89h2v1h-2z M227,89h1v1h-1z M233,88h3v2h-3z M238,88h3v2h-3z M242,88h4v2h-4z M6,90h2v1h-2z M13,90h4v1h-4z M21,90h3v1h-3z M36,90h1v1h-1z M45,89h4v2h-4z M52,90h11v1h-11z M66,90h8v1h-8z M75,90h10v1h-10z M86,90h12v1h-12z M100,88h4v3h-4z M107,90h4v1h-4z M113,88h4v3h-4z M135,89h3v2h-3z M151,90h3v1h-3z M157,90h4v1h-4z M164,90h5v1h-5z M171,90h6v1h-6z M185,90h12v1h-12z M202,90h5v1h-5z M212,90h3v1h-3z M234,90h1v1h-1z M243,90h3v1h-3z M247,89h7v2h-7z M46,91h2v1h-2z M52,91h12v1h-12z M66,91h5v1h-5z M75,91h5v1h-5z M81,91h11v1h-11z M93,91h6v1h-6z M100,91h5v1h-5z M114,91h4v1h-4z M121,90h7v2h-7z M135,91h4v1h-4z M144,91h3v1h-3z M156,91h5v1h-5z M165,91h5v1h-5z M173,91h4v1h-4z M179,89h4v3h-4z M184,91h3v1h-3z M188,91h9v1h-9z M202,91h6v1h-6z M219,91h3v1h-3z M244,91h1v1h-1z M248,91h6v1h-6z M7,92h2v1h-2z M14,91h3v2h-3z M20,91h4v2h-4z M28,91h3v2h-3z M52,92h5v1h-5z M61,92h5v1h-5z M67,92h6v1h-6z M76,92h5v1h-5z M82,92h18v1h-18z M102,92h5v1h-5z M121,92h3v1h-3z M136,92h4v1h-4z M157,92h5v1h-5z M166,92h5v1h-5z M174,92h3v1h-3z M180,92h7v1h-7z M189,92h4v1h-4z M194,92h5v1h-5z M212,91h4v2h-4z M218,92h5v1h-5z M228,92h3v1h-3z M235,92h1v1h-1z M6,93h3v1h-3z M21,93h2v1h-2z M27,93h4v1h-4z M35,93h3v1h-3z M53,93h4v1h-4z M62,93h3v1h-3z M77,93h10v1h-10z M88,93h11v1h-11z M103,93h4v1h-4z M108,91h3v3h-3z M115,92h4v2h-4z M137,93h3v1h-3z M151,91h4v3h-4z M159,93h4v1h-4z M174,93h2v1h-2z M177,93h4v1h-4z M182,93h5v1h-5z M190,93h3v1h-3z M195,93h4v1h-4z M202,92h8v2h-8z M218,93h6v1h-6z M227,93h5v1h-5z M241,93h2v1h-2z M6,94h4v1h-4z M13,93h2v2h-2z M28,94h3v1h-3z M51,94h5v1h-5z M70,93h3v2h-3z M78,94h8v1h-8z M91,94h6v1h-6z M115,94h5v1h-5z M124,94h3v1h-3z M144,92h4v3h-4z M152,94h5v1h-5z M167,93h4v2h-4z M174,94h1v1h-1z M190,94h2v1h-2z M196,94h3v1h-3z M202,94h3v1h-3z M206,94h4v1h-4z M212,93h5v2h-5z M218,94h3v1h-3z M223,94h9v1h-9z M234,93h3v2h-3z M240,94h8v1h-8z M249,92h5v3h-5z M7,95h3v1h-3z M12,95h4v1h-4z M20,95h2v1h-2z M29,95h1v1h-1z M34,94h4v2h-4z M78,95h3v1h-3z M91,95h3v1h-3z M103,94h3v2h-3z M110,95h2v1h-2z M130,94h4v2h-4z M137,94h4v2h-4z M148,95h3v1h-3z M153,95h5v1h-5z M172,95h3v1h-3z M176,94h5v2h-5z M183,94h4v2h-4z M190,95h4v1h-4z M196,95h2v1h-2z M201,95h4v1h-4z M206,95h5v1h-5z M213,95h4v1h-4z M219,95h2v1h-2z M228,95h4v1h-4z M235,95h2v1h-2z M240,95h14v1h-14z M13,96h4v1h-4z M35,96h3v1h-3z M42,94h4v3h-4z M50,95h5v2h-5z M77,96h3v1h-3z M90,96h4v1h-4z M97,95h1v2h-1z M124,95h4v2h-4z M131,96h6v1h-6z M139,96h4v1h-4z M160,94h4v3h-4z M172,96h9v1h-9z M214,96h2v1h-2z M237,96h17v1h-17z M13,97h2v1h-2z M19,96h4v2h-4z M27,97h3v1h-3z M36,97h1v1h-1z M43,97h3v1h-3z M50,97h4v1h-4z M71,95h2v3h-2z M83,97h2v1h-2z M89,97h4v1h-4z M95,97h3v1h-3z M116,95h5v3h-5z M124,97h5v1h-5z M132,97h5v1h-5z M148,96h4v2h-4z M154,96h4v2h-4z M160,97h3v1h-3z M165,97h3v1h-3z M172,97h4v1h-4z M177,97h4v1h-4z M190,96h7v2h-7z M202,96h3v2h-3z M207,96h5v2h-5z M214,97h1v1h-1z M229,96h4v2h-4z M236,97h18v1h-18z M20,98h3v1h-3z M50,98h3v1h-3z M58,96h4v3h-4z M70,98h3v1h-3z M102,96h4v3h-4z M109,96h4v3h-4z M140,97h4v2h-4z M154,98h3v1h-3z M172,98h3v1h-3z M178,98h2v1h-2z M184,96h3v3h-3z M190,98h8v1h-8z M214,98h2v1h-2z M26,98h4v2h-4z M34,98h3v2h-3z M41,99h2v1h-2z M58,99h3v1h-3z M64,97h3v3h-3z M70,99h4v1h-4z M76,97h4v3h-4z M88,98h5v2h-5z M95,98h4v2h-4z M102,99h3v1h-3z M110,99h3v1h-3z M125,98h5v2h-5z M133,98h4v2h-4z M141,99h3v1h-3z M149,98h2v2h-2z M178,99h3v1h-3z M185,99h2v1h-2z M190,99h9v1h-9z M202,98h4v2h-4z M218,96h4v4h-4z M223,95h4v5h-4z M230,98h3v2h-3z M236,98h7v2h-7z M245,98h9v2h-9z M27,100h2v1h-2z M33,100h5v1h-5z M49,100h3v1h-3z M66,100h1v1h-1z M71,100h2v1h-2z M77,100h2v1h-2z M83,98h3v3h-3z M89,100h3v1h-3z M96,100h3v1h-3z M111,100h3v1h-3z M118,98h3v3h-3z M126,100h4v1h-4z M134,100h3v1h-3z M142,100h1v1h-1z M149,100h3v1h-3z M153,99h3v2h-3z M159,98h4v3h-4z M165,98h4v3h-4z M172,99h2v2h-2z M177,100h5v1h-5z M185,100h1v1h-1z M195,100h5v1h-5z M203,100h3v1h-3z M213,99h4v2h-4z M224,100h3v1h-3z M237,100h17v1h-17z M9,99h3v3h-3z M34,101h3v1h-3z M56,101h3v1h-3z M84,101h2v1h-2z M90,101h1v1h-1z M104,100h2v2h-2z M127,101h2v1h-2z M142,101h2v1h-2z M160,101h2v1h-2z M183,101h2v1h-2z M196,101h4v1h-4z M214,101h3v1h-3z M225,101h3v1h-3z M230,100h4v2h-4z M239,101h15v1h-15z M10,102h1v1h-1z M23,102h3v1h-3z M35,102h1v1h-1z M41,100h4v3h-4z M64,102h1v1h-1z M84,102h3v1h-3z M90,102h2v1h-2z M98,102h3v1h-3z M135,102h3v1h-3z M148,101h8v2h-8z M161,102h1v1h-1z M171,101h4v2h-4z M177,101h4v2h-4z M183,102h3v1h-3z M189,100h4v3h-4z M196,102h3v1h-3z M203,101h2v2h-2z M208,98h3v5h-3z M219,100h4v3h-4z M231,102h4v1h-4z M240,102h1v1h-1z M17,101h2v3h-2z M22,103h4v1h-4z M30,103h3v1h-3z M36,103h1v1h-1z M41,103h3v1h-3z M48,101h4v3h-4z M55,102h4v2h-4z M63,103h3v1h-3z M69,103h2v1h-2z M90,103h3v1h-3z M110,101h5v3h-5z M118,101h4v3h-4z M129,103h1v1h-1z M134,103h4v1h-4z M149,103h2v1h-2z M160,103h3v1h-3z M172,103h4v1h-4z M191,103h8v1h-8z M220,103h3v1h-3z M225,102h4v2h-4z M232,103h4v1h-4z M238,103h3v1h-3z M23,104h3v1h-3z M36,104h2v1h-2z M49,104h3v1h-3z M56,104h3v1h-3z M62,104h4v1h-4z M75,103h4v2h-4z M83,103h4v2h-4z M90,104h4v1h-4z M98,103h4v2h-4z M103,102h4v3h-4z M120,104h3v1h-3z M134,104h5v1h-5z M141,102h4v3h-4z M154,104h2v1h-2z M166,101h3v4h-3z M178,103h9v2h-9z M193,104h7v1h-7z M208,103h4v2h-4z M214,102h4v3h-4z M221,104h2v1h-2z M225,104h5v1h-5z M234,104h8v1h-8z M244,102h10v3h-10z M8,105h3v1h-3z M24,105h1v1h-1z M29,104h4v2h-4z M35,105h4v1h-4z M44,105h2v1h-2z M52,105h1v1h-1z M63,105h3v1h-3z M69,104h3v2h-3z M83,105h3v1h-3z M90,105h3v1h-3z M98,105h3v1h-3z M104,105h3v1h-3z M111,104h4v2h-4z M128,104h4v2h-4z M135,105h3v1h-3z M142,105h2v1h-2z M159,104h5v2h-5z M166,105h2v1h-2z M172,104h3v2h-3z M178,105h4v1h-4z M185,105h1v1h-1z M193,105h4v1h-4z M202,103h4v3h-4z M215,105h2v1h-2z M221,105h4v1h-4z M226,105h4v1h-4z M234,105h20v1h-20z M7,106h4v1h-4z M30,106h3v1h-3z M69,106h2v1h-2z M76,105h3v2h-3z M85,106h1v1h-1z M106,106h2v1h-2z M128,106h3v1h-3z M148,106h2v1h-2z M154,105h3v2h-3z M160,106h4v1h-4z M166,106h1v1h-1z M171,106h4v1h-4z M178,106h3v1h-3z M183,106h1v1h-1z M187,105h4v2h-4z M193,106h3v1h-3z M203,106h3v1h-3z M8,107h3v1h-3z M14,107h3v1h-3z M36,106h3v2h-3z M99,106h1v2h-1z M106,107h3v1h-3z M112,106h4v2h-4z M120,105h4v3h-4z M128,107h2v1h-2z M143,107h1v1h-1z M160,107h3v1h-3z M172,107h4v1h-4z M177,107h1v1h-1z M188,107h7v1h-7z M203,107h4v1h-4z M209,105h4v3h-4z M216,107h2v1h-2z M220,106h5v2h-5z M227,106h9v2h-9z M238,106h16v2h-16z M9,108h1v1h-1z M13,108h4v1h-4z M43,106h4v3h-4z M51,106h4v3h-4z M59,108h3v1h-3z M81,108h1v1h-1z M98,108h3v1h-3z M112,108h3v1h-3z M122,108h1v1h-1z M137,108h1v1h-1z M147,107h4v2h-4z M159,108h3v1h-3z M172,108h6v1h-6z M182,107h3v2h-3z M198,105h3v4h-3z M202,108h5v1h-5z M210,108h2v1h-2z M221,108h4v1h-4z M228,108h13v1h-13z M243,108h11v1h-11z M14,109h3v1h-3z M52,109h3v1h-3z M73,109h3v1h-3z M79,109h4v1h-4z M98,109h4v1h-4z M105,108h3v2h-3z M113,109h1v1h-1z M135,109h3v1h-3z M142,108h3v2h-3z M148,109h2v1h-2z M153,107h4v3h-4z M158,109h5v1h-5z M165,107h3v3h-3z M174,109h4v1h-4z M191,108h4v2h-4z M198,109h8v1h-8z M209,109h3v1h-3z M221,109h20v1h-20z M243,109h3v1h-3z M1,89h4v22h-4z M14,110h2v1h-2z M20,108h3v3h-3z M28,110h2v1h-2z M37,110h2v1h-2z M59,109h4v2h-4z M79,110h5v1h-5z M85,109h4v2h-4z M98,110h3v1h-3z M122,110h1v1h-1z M128,110h2v1h-2z M135,110h4v1h-4z M142,110h2v1h-2z M159,110h4v1h-4z M165,110h2v1h-2z M175,110h3v1h-3z M191,110h15v1h-15z M215,108h4v3h-4z M221,110h8v1h-8z M231,110h3v1h-3z M235,110h12v1h-12z M248,109h6v2h-6z M21,111h1v1h-1z M60,111h2v1h-2z M66,109h3v3h-3z M73,110h4v2h-4z M79,111h4v1h-4z M86,111h3v1h-3z M92,108h3v4h-3z M112,111h2v1h-2z M135,111h3v1h-3z M147,111h2v1h-2z M152,110h5v2h-5z M160,111h5v1h-5z M182,109h4v3h-4z M189,111h17v1h-17z M209,110h4v2h-4z M221,111h13v1h-13z M236,111h18v1h-18z M11,112h3v1h-3z M28,111h3v2h-3z M36,111h4v2h-4z M44,112h3v1h-3z M67,112h1v1h-1z M73,112h3v1h-3z M80,112h3v1h-3z M86,112h2v1h-2z M93,112h2v1h-2z M105,112h2v1h-2z M128,111h3v2h-3z M141,112h1v1h-1z M146,112h4v1h-4z M153,112h4v1h-4z M169,110h4v3h-4z M194,112h5v1h-5z M209,112h6v1h-6z M222,112h32v1h-32z M17,113h2v1h-2z M37,113h3v1h-3z M53,113h2v1h-2z M74,113h2v1h-2z M98,113h3v1h-3z M105,113h3v1h-3z M127,113h3v1h-3z M133,113h1v1h-1z M140,113h2v1h-2z M154,113h3v1h-3z M162,112h3v2h-3z M195,113h5v1h-5z M202,112h4v2h-4z M209,113h1v1h-1z M218,113h3v1h-3z M10,113h4v2h-4z M37,114h2v1h-2z M44,113h4v2h-4z M52,114h3v1h-3z M59,114h2v1h-2z M91,114h2v1h-2z M104,114h4v1h-4z M112,112h3v3h-3z M120,111h4v4h-4z M126,114h4v1h-4z M132,114h3v1h-3z M139,114h3v1h-3z M146,113h5v2h-5z M155,114h3v1h-3z M163,114h2v1h-2z M188,112h4v3h-4z M203,114h3v1h-3z M208,114h2v1h-2z M224,113h30v2h-30z M1,111h5v5h-5z M11,115h3v1h-3z M25,115h1v1h-1z M45,115h2v1h-2z M52,115h4v1h-4z M58,115h3v1h-3z M91,115h3v1h-3z M97,114h4v2h-4z M104,115h3v1h-3z M120,115h3v1h-3z M132,115h4v1h-4z M140,115h2v1h-2z M147,115h5v1h-5z M156,115h3v1h-3z M168,113h4v3h-4z M189,115h3v1h-3z M196,114h4v2h-4z M217,114h5v2h-5z M234,115h20v1h-20z M17,114h3v3h-3z M32,116h2v1h-2z M53,116h2v1h-2z M58,116h4v1h-4z M70,116h2v1h-2z M90,116h4v1h-4z M98,116h3v1h-3z M105,116h2v1h-2z M112,115h2v2h-2z M119,116h3v1h-3z M126,115h3v2h-3z M133,116h3v1h-3z M156,116h2v1h-2z M162,115h2v2h-2z M168,116h3v1h-3z M175,111h4v6h-4z M183,112h3v5h-3z M197,116h2v1h-2z M218,116h3v1h-3z M236,116h18v1h-18z M1,116h4v2h-4z M18,117h2v1h-2z M24,116h3v2h-3z M32,117h3v1h-3z M58,117h3v1h-3z M64,116h3v2h-3z M77,116h3v2h-3z M83,115h3v3h-3z M91,117h2v1h-2z M98,117h2v1h-2z M106,117h2v1h-2z M119,117h4v1h-4z M134,117h3v1h-3z M141,116h4v2h-4z M149,116h3v2h-3z M155,117h2v1h-2z M167,117h4v1h-4z M175,117h5v1h-5z M183,117h2v1h-2z M189,116h4v2h-4z M201,117h2v1h-2z M218,117h2v1h-2z M223,115h4v3h-4z M237,117h2v1h-2z M242,117h12v1h-12z M1,118h7v1h-7z M38,118h2v1h-2z M64,118h2v1h-2z M84,118h1v1h-1z M99,118h1v1h-1z M106,118h3v1h-3z M119,118h5v1h-5z M126,117h4v2h-4z M135,118h3v1h-3z M141,118h5v1h-5z M176,118h3v1h-3z M183,118h1v1h-1z M189,118h5v1h-5z M200,118h4v1h-4z M206,115h4v4h-4z M212,113h4v6h-4z M217,118h3v1h-3z M223,118h3v1h-3z M236,118h3v1h-3z M248,118h6v1h-6z M12,119h3v1h-3z M31,118h4v2h-4z M37,119h4v1h-4z M43,118h3v2h-3z M50,119h2v1h-2z M70,117h3v3h-3z M92,119h2v1h-2z M105,119h4v1h-4z M120,119h5v1h-5z M135,119h4v1h-4z M142,119h6v1h-6z M167,118h3v2h-3z M177,119h1v1h-1z M182,119h3v1h-3z M190,119h3v1h-3z M200,119h8v1h-8z M212,119h9v1h-9z M222,119h2v1h-2z M230,115h3v5h-3z M235,119h5v1h-5z M241,118h5v2h-5z M247,119h7v1h-7z M1,119h8v2h-8z M33,120h1v1h-1z M43,120h4v1h-4z M50,120h3v1h-3z M58,120h2v1h-2z M71,120h2v1h-2z M78,118h2v3h-2z M86,120h1v1h-1z M99,119h3v2h-3z M121,120h5v1h-5z M145,120h4v1h-4z M161,117h3v4h-3z M168,120h1v1h-1z M176,120h1v1h-1z M194,120h3v1h-3z M200,120h11v1h-11z M212,120h17v1h-17z M236,120h4v1h-4z M241,120h13v1h-13z M1,121h7v1h-7z M11,120h4v2h-4z M38,120h3v2h-3z M44,121h2v1h-2z M49,121h4v1h-4z M65,121h2v1h-2z M72,121h2v1h-2z M85,121h3v1h-3z M91,120h4v2h-4z M99,121h2v1h-2z M106,120h2v2h-2z M112,117h3v5h-3z M122,121h4v1h-4z M136,120h3v2h-3z M146,121h3v1h-3z M162,121h2v1h-2z M175,121h3v1h-3z M182,120h4v2h-4z M189,121h8v1h-8z M201,121h11v1h-11z M216,121h14v1h-14z M232,121h2v1h-2z M237,121h2v1h-2z M241,121h4v1h-4z M11,122h3v1h-3z M25,122h1v1h-1z M50,122h3v1h-3z M57,121h4v2h-4z M85,122h4v1h-4z M92,122h2v1h-2z M117,122h3v1h-3z M123,122h2v1h-2z M128,119h3v4h-3z M146,122h2v1h-2z M154,118h3v5h-3z M169,122h3v1h-3z M175,122h4v1h-4z M183,122h1v1h-1z M189,122h9v1h-9z M204,122h8v1h-8z M215,122h4v1h-4z M220,122h15v1h-15z M238,122h1v1h-1z M241,122h3v1h-3z M246,121h8v2h-8z M18,121h3v3h-3z M32,123h1v1h-1z M39,122h1v2h-1z M58,123h2v1h-2z M65,122h3v2h-3z M72,122h3v2h-3z M77,121h4v3h-4z M85,123h3v1h-3z M104,123h3v1h-3z M111,122h4v2h-4z M117,123h4v1h-4z M136,122h4v2h-4z M150,123h1v1h-1z M154,123h2v1h-2z M168,123h4v1h-4z M175,123h3v1h-3z M205,123h7v1h-7z M221,123h14v1h-14z M247,123h7v1h-7z M9,124h1v1h-1z M19,124h1v1h-1z M25,123h3v2h-3z M38,124h3v1h-3z M66,124h1v1h-1z M73,124h1v1h-1z M78,124h3v1h-3z M83,124h4v1h-4z M97,124h2v1h-2z M103,124h4v1h-4z M118,124h3v1h-3z M128,123h4v2h-4z M137,124h4v1h-4z M142,124h2v1h-2z M176,124h2v1h-2z M188,123h4v2h-4z M194,123h3v2h-3z M200,124h3v1h-3z M206,124h6v1h-6z M228,124h1v1h-1z M230,124h5v1h-5z M236,123h4v2h-4z M243,124h3v1h-3z M25,125h2v1h-2z M31,124h3v2h-3z M47,125h2v1h-2z M90,125h2v1h-2z M119,125h4v1h-4z M129,125h3v1h-3z M149,124h3v2h-3z M161,125h3v1h-3z M169,124h3v2h-3z M180,125h2v1h-2z M188,125h5v1h-5z M194,125h2v1h-2z M206,125h5v1h-5z M214,123h4v3h-4z M220,124h3v2h-3z M230,125h4v1h-4z M236,125h5v1h-5z M248,124h6v2h-6z M32,126h2v1h-2z M38,125h4v2h-4z M52,126h3v1h-3z M60,126h2v1h-2z M74,126h2v1h-2z M89,126h3v1h-3z M97,125h3v2h-3z M104,125h3v2h-3z M120,126h3v1h-3z M129,126h1v1h-1z M141,125h3v2h-3z M149,126h2v1h-2z M155,126h1v1h-1z M160,126h5v1h-5z M179,126h3v1h-3z M187,126h9v1h-9z M199,125h4v2h-4z M206,126h4v1h-4z M212,126h2v1h-2z M215,126h3v1h-3z M219,126h5v1h-5z M226,126h2v1h-2z M231,126h2v1h-2z M237,126h3v1h-3z M242,125h4v2h-4z M247,126h7v1h-7z M1,122h4v6h-4z M8,125h3v3h-3z M39,127h2v1h-2z M46,126h4v2h-4z M74,127h3v1h-3z M97,127h2v1h-2z M104,127h2v1h-2z M112,124h3v4h-3z M121,127h2v1h-2z M142,127h1v1h-1z M154,127h3v1h-3z M179,127h4v1h-4z M184,127h12v1h-12z M198,127h5v1h-5z M205,127h5v1h-5z M211,127h5v1h-5z M220,127h4v1h-4z M225,127h4v1h-4z M230,127h3v1h-3z M242,127h12v1h-12z M1,128h5v1h-5z M22,128h3v1h-3z M46,128h3v1h-3z M52,127h4v2h-4z M66,127h3v2h-3z M73,128h4v1h-4z M82,125h4v4h-4z M89,127h4v2h-4z M98,128h1v1h-1z M112,128h4v1h-4z M148,128h1v1h-1z M153,128h4v1h-4z M161,127h3v2h-3z M175,128h2v1h-2z M180,128h2v1h-2z M189,128h29v1h-29z M224,128h10v1h-10z M236,127h3v2h-3z M242,128h4v1h-4z M14,127h4v3h-4z M22,129h4v1h-4z M29,129h3v1h-3z M53,129h2v1h-2z M59,127h3v3h-3z M66,129h2v1h-2z M74,129h2v1h-2z M83,129h2v1h-2z M90,129h3v1h-3z M120,129h2v1h-2z M134,127h3v3h-3z M138,129h1v1h-1z M146,129h3v1h-3z M166,129h2v1h-2z M183,128h5v2h-5z M189,129h20v1h-20z M210,129h9v1h-9z M220,128h3v2h-3z M225,129h9v1h-9z M235,129h5v1h-5z M242,129h3v1h-3z M8,130h2v1h-2z M15,130h2v1h-2z M22,130h3v1h-3z M38,130h3v1h-3z M83,130h1v1h-1z M91,130h2v1h-2z M104,128h3v3h-3z M113,129h2v2h-2z M127,127h3v4h-3z M137,130h4v1h-4z M154,129h3v2h-3z M166,130h5v1h-5z M174,129h4v2h-4z M181,130h15v1h-15z M197,130h12v1h-12z M210,130h13v1h-13z M225,130h3v1h-3z M235,130h11v1h-11z M247,128h7v3h-7z M23,131h1v1h-1z M29,130h4v2h-4z M37,131h4v1h-4z M53,131h2v1h-2z M61,131h1v1h-1z M81,131h3v1h-3z M105,131h2v1h-2z M113,131h3v1h-3z M119,130h4v2h-4z M146,130h4v2h-4z M166,131h6v1h-6z M175,131h3v1h-3z M180,131h44v1h-44z M225,131h4v1h-4z M230,130h4v2h-4z M235,131h19v1h-19z M1,129h4v4h-4z M7,131h4v2h-4z M29,132h3v1h-3z M45,132h3v1h-3z M60,132h3v1h-3z M73,132h3v1h-3z M90,131h4v2h-4z M97,129h3v4h-3z M107,132h2v1h-2z M113,132h4v1h-4z M120,132h3v1h-3z M130,132h3v1h-3z M155,131h1v2h-1z M163,132h2v1h-2z M167,132h5v1h-5z M175,132h79v1h-79z M1,133h5v1h-5z M8,133h3v1h-3z M19,133h2v1h-2z M38,132h3v2h-3z M45,133h4v1h-4z M60,133h4v1h-4z M81,132h4v2h-4z M90,133h3v1h-3z M98,133h2v1h-2z M113,133h3v1h-3z M120,133h2v1h-2z M138,131h3v3h-3z M154,133h3v1h-3z M162,133h4v1h-4z M168,133h3v1h-3z M174,133h80v1h-80z M1,134h10v1h-10z M18,134h5v1h-5z M45,134h3v1h-3z M52,132h4v3h-4z M60,134h3v1h-3z M67,132h3v3h-3z M73,133h4v2h-4z M82,134h2v1h-2z M98,134h3v1h-3z M106,133h4v2h-4z M114,134h2v1h-2z M131,133h2v2h-2z M153,134h6v1h-6z M161,134h93v1h-93z M1,135h23v1h-23z M26,135h2v1h-2z M53,135h2v1h-2z M61,135h2v1h-2z M74,135h2v1h-2z M98,135h4v1h-4z M107,135h3v1h-3z M114,135h1v1h-1z M130,135h4v1h-4z M137,135h117v1h-117z M2,136h47v1h-47z M53,136h1v1h-1z M98,136h5v1h-5z M106,136h5v1h-5z M112,136h141v1h-141z M2,137h59v1h-59z M87,137h126v1h-126z M249,137h4v1h-4z M3,138h66v1h-66z M73,138h95v1h-95z M175,138h3v1h-3z M180,138h2v1h-2z M24,139h108v1h-108z M134,139h3v1h-3z M43,140h69v1h-69z M60,141h32v1h-32z
  "/>
</svg>