<?xml version="1.0" encoding="UTF-8"?>
<svg xmlns="http://www.w3.org/2000/svg" viewBox="0 0 257 144" width="257" height="144">
  <title>05 Glacial till and moraines b</title>
  <path fill="#111111" fill-rule="nonzero" d="
    M2,0h21v1h-21z M1,1h30v1h-30z M1,2h39v1h-39z M41,2h2v1h-2z M1,3h52v1h-52z M54,3h6v1h-6z M65,3h5v1h-5z M11,4h75v1h-75z M20,5h117v1h-117z M29,6h4v1h-4z M34,6h147v1h-147z M18,7h4v1h-4z M41,7h3v1h-3z M50,7h2v1h-2z M53,7h183v1h-183z M238,7h6v1h-6z M245,7h10v1h-10z M17,8h6v1h-6z M60,8h2v1h-2z M74,8h6v1h-6z M81,8h2v1h-2z M85,8h1v1h-1z M87,8h169v1h-169z M9,9h2v1h-2z M58,9h4v1h-4z M120,9h14v1h-14z M135,9h1v1h-1z M138,9h119v1h-119z M18,9h4v2h-4z M77,10h4v1h-4z M123,10h4v1h-4z M130,10h3v1h-3z M170,10h87v1h-87z M19,11h3v1h-3z M39,11h7v1h-7z M57,10h5v2h-5z M74,11h8v1h-8z M117,11h3v1h-3z M123,11h3v1h-3z M228,11h8v1h-8z M241,11h9v1h-9z M252,11h5v1h-5z M20,12h5v1h-5z M58,12h4v1h-4z M72,12h10v1h-10z M103,12h3v1h-3z M116,12h5v1h-5z M130,11h4v2h-4z M141,12h3v1h-3z M201,11h12v2h-12z M242,12h5v1h-5z M8,10h4v4h-4z M18,13h8v1h-8z M31,13h1v1h-1z M39,12h8v2h-8z M60,13h1v1h-1z M71,13h11v1h-11z M88,13h3v1h-3z M102,13h5v1h-5z M117,13h4v1h-4z M138,13h8v1h-8z M186,13h5v1h-5z M201,13h11v1h-11z M17,14h9v1h-9z M31,14h3v1h-3z M37,14h5v1h-5z M43,14h5v1h-5z M70,14h6v1h-6z M77,14h5v1h-5z M101,14h6v1h-6z M118,14h3v1h-3z M137,14h10v1h-10z M184,14h7v1h-7z M201,14h12v1h-12z M253,12h4v3h-4z M17,15h10v1h-10z M70,15h5v1h-5z M87,14h5v2h-5z M102,15h5v1h-5z M123,12h4v4h-4z M134,15h14v1h-14z M181,15h11v1h-11z M201,15h11v1h-11z M241,13h5v3h-5z M252,15h5v1h-5z M16,16h11v1h-11z M30,15h5v2h-5z M44,15h5v2h-5z M88,16h4v1h-4z M103,16h3v1h-3z M133,16h8v1h-8z M143,16h5v1h-5z M179,16h14v1h-14z M202,16h9v1h-9z M221,16h4v1h-4z M240,16h6v1h-6z M251,16h6v1h-6z M15,17h12v1h-12z M31,17h3v1h-3z M38,15h4v3h-4z M44,17h4v1h-4z M78,15h4v3h-4z M89,17h2v1h-2z M123,16h7v2h-7z M133,17h6v1h-6z M144,17h5v1h-5z M177,17h8v1h-8z M188,17h5v1h-5z M203,17h7v1h-7z M219,17h10v1h-10z M240,17h17v1h-17z M15,18h5v1h-5z M32,18h1v1h-1z M38,18h10v1h-10z M79,18h4v1h-4z M123,18h8v1h-8z M161,18h5v1h-5z M176,18h6v1h-6z M189,18h5v1h-5z M218,18h12v1h-12z M242,18h15v1h-15z M11,19h1v1h-1z M15,19h4v1h-4z M38,19h9v1h-9z M70,16h4v4h-4z M78,19h5v1h-5z M161,19h7v1h-7z M175,19h6v1h-6z M189,19h6v1h-6z M217,19h13v1h-13z M243,19h14v1h-14z M9,20h4v1h-4z M39,20h7v1h-7z M57,20h2v1h-2z M71,20h3v1h-3z M78,20h4v1h-4z M133,18h4v3h-4z M160,20h8v1h-8z M175,20h5v1h-5z M189,20h8v1h-8z M215,20h7v1h-7z M247,20h1v1h-1z M15,20h5v2h-5z M23,18h5v4h-5z M39,21h6v1h-6z M71,21h4v1h-4z M77,21h5v1h-5z M113,21h2v1h-2z M145,18h5v4h-5z M158,21h10v1h-10z M191,21h7v1h-7z M214,21h7v1h-7z M225,20h6v2h-6z M9,21h5v2h-5z M16,22h5v1h-5z M22,22h6v1h-6z M40,22h3v1h-3z M56,21h4v2h-4z M71,22h10v1h-10z M110,22h6v1h-6z M145,22h4v1h-4z M157,22h4v1h-4z M164,22h4v1h-4z M192,22h6v1h-6z M213,22h6v1h-6z M225,22h5v1h-5z M10,23h3v1h-3z M16,23h11v1h-11z M57,23h3v1h-3z M72,23h9v1h-9z M107,23h11v1h-11z M132,21h4v3h-4z M143,23h6v1h-6z M156,23h4v1h-4z M176,21h4v3h-4z M193,23h6v1h-6z M213,23h5v1h-5z M224,23h5v1h-5z M11,24h2v1h-2z M72,24h8v1h-8z M95,23h5v2h-5z M104,24h15v1h-15z M123,19h4v6h-4z M132,24h5v1h-5z M140,24h9v1h-9z M156,24h5v1h-5z M177,24h4v1h-4z M223,24h6v1h-6z M17,24h10v2h-10z M67,25h3v1h-3z M73,25h5v1h-5z M96,25h3v1h-3z M103,25h7v1h-7z M114,25h5v1h-5z M123,25h3v1h-3z M132,25h15v1h-15z M156,25h6v1h-6z M165,23h4v3h-4z M177,25h11v1h-11z M194,24h5v2h-5z M212,24h5v2h-5z M223,25h5v1h-5z M18,26h7v1h-7z M96,26h2v1h-2z M102,26h6v1h-6z M132,26h13v1h-13z M157,26h11v1h-11z M213,26h5v1h-5z M222,26h5v1h-5z M17,27h6v1h-6z M33,27h3v1h-3z M56,27h4v1h-4z M84,27h3v1h-3z M102,27h5v1h-5z M133,27h9v1h-9z M158,27h10v1h-10z M178,26h20v2h-20z M214,27h5v1h-5z M221,27h5v1h-5z M239,27h5v1h-5z M18,28h2v1h-2z M43,26h4v3h-4z M54,28h7v1h-7z M67,26h4v3h-4z M135,28h4v1h-4z M160,28h7v1h-7z M179,28h5v1h-5z M185,28h11v1h-11z M215,28h11v1h-11z M236,28h10v1h-10z M32,28h5v2h-5z M44,29h3v1h-3z M53,29h9v1h-9z M83,28h4v2h-4z M102,28h4v2h-4z M115,26h4v4h-4z M164,29h1v1h-1z M216,29h9v1h-9z M234,29h12v1h-12z M20,30h4v1h-4z M33,30h3v1h-3z M52,30h10v1h-10z M84,30h3v1h-3z M202,30h2v1h-2z M216,30h8v1h-8z M232,30h14v1h-14z M72,31h3v1h-3z M84,31h1v1h-1z M102,30h3v2h-3z M114,30h4v2h-4z M199,31h7v1h-7z M217,31h6v1h-6z M232,31h7v1h-7z M242,31h5v1h-5z M50,31h6v2h-6z M58,31h5v2h-5z M71,32h6v1h-6z M101,32h5v1h-5z M145,32h5v1h-5z M198,32h9v1h-9z M218,32h3v1h-3z M231,32h7v1h-7z M36,33h6v1h-6z M58,33h4v1h-4z M69,33h9v1h-9z M102,33h4v1h-4z M113,32h5v2h-5z M143,33h9v1h-9z M197,33h10v1h-10z M231,33h5v1h-5z M243,32h4v2h-4z M1,4h4v31h-4z M19,31h5v4h-5z M35,34h8v1h-8z M68,34h11v1h-11z M102,34h6v1h-6z M113,34h4v1h-4z M142,34h12v1h-12z M197,34h3v1h-3z M203,34h4v1h-4z M231,34h4v1h-4z M243,34h5v1h-5z M1,35h3v1h-3z M8,32h4v4h-4z M21,35h2v1h-2z M34,35h10v1h-10z M57,34h4v2h-4z M68,35h4v1h-4z M74,35h6v1h-6z M83,35h6v1h-6z M102,35h8v1h-8z M112,35h5v1h-5z M141,35h6v1h-6z M148,35h7v1h-7z M196,35h4v1h-4z M204,35h3v1h-3z M231,35h3v1h-3z M8,36h3v1h-3z M28,36h2v1h-2z M34,36h11v1h-11z M50,33h4v4h-4z M56,36h5v1h-5z M68,36h3v1h-3z M82,36h8v1h-8z M104,36h12v1h-12z M140,36h5v1h-5z M151,36h5v1h-5z M195,36h5v1h-5z M202,36h5v1h-5z M252,20h5v17h-5z M27,37h4v1h-4z M33,37h12v1h-12z M67,37h5v1h-5z M74,36h5v2h-5z M82,37h9v1h-9z M108,37h8v1h-8z M139,37h4v1h-4z M195,37h12v1h-12z M231,36h4v2h-4z M243,35h4v3h-4z M1,36h4v3h-4z M33,38h11v1h-11z M51,37h9v2h-9z M67,38h12v1h-12z M81,38h11v1h-11z M108,38h7v1h-7z M123,26h4v13h-4z M152,37h5v2h-5z M196,38h11v1h-11z M232,38h4v1h-4z M242,38h5v1h-5z M253,37h4v2h-4z M26,38h6v2h-6z M34,39h10v1h-10z M52,39h8v1h-8z M68,39h10v1h-10z M80,39h5v1h-5z M87,39h5v1h-5z M111,39h2v1h-2z M138,38h5v2h-5z M152,39h4v1h-4z M178,39h8v1h-8z M198,39h3v1h-3z M202,39h4v1h-4z M233,39h5v1h-5z M239,39h8v1h-8z M1,39h5v2h-5z M27,40h5v1h-5z M35,40h9v1h-9z M52,40h7v1h-7z M69,40h8v1h-8z M87,40h4v1h-4z M151,40h5v1h-5z M177,40h10v1h-10z M233,40h13v1h-13z M19,41h1v1h-1z M35,41h8v1h-8z M52,41h6v1h-6z M70,41h6v1h-6z M80,40h4v2h-4z M86,41h5v1h-5z M99,41h2v1h-2z M121,39h6v3h-6z M150,41h5v1h-5z M176,41h12v1h-12z M235,41h10v1h-10z M1,41h7v2h-7z M18,42h3v1h-3z M53,42h3v1h-3z M73,42h1v1h-1z M80,42h11v1h-11z M98,42h3v1h-3z M122,42h4v1h-4z M138,40h4v3h-4z M149,42h5v1h-5z M175,42h6v1h-6z M182,42h6v1h-6z M237,42h7v1h-7z M17,43h5v1h-5z M62,43h2v1h-2z M80,43h10v1h-10z M97,43h5v1h-5z M139,43h5v1h-5z M147,43h6v1h-6z M174,43h5v1h-5z M219,43h4v1h-4z M239,43h2v1h-2z M0,43h9v2h-9z M17,44h6v1h-6z M61,44h4v1h-4z M80,44h9v1h-9z M98,44h3v1h-3z M109,44h6v1h-6z M139,44h12v1h-12z M160,44h4v1h-4z M174,44h4v1h-4z M199,44h1v1h-1z M218,44h6v1h-6z M0,45h10v1h-10z M16,45h7v1h-7z M81,45h6v1h-6z M99,45h2v1h-2z M107,45h9v1h-9z M140,45h10v1h-10z M158,45h6v1h-6z M197,45h10v1h-10z M217,45h7v1h-7z M247,45h3v1h-3z M1,46h9v1h-9z M16,46h6v1h-6z M60,45h5v2h-5z M106,46h11v1h-11z M141,46h9v1h-9z M157,46h8v1h-8z M184,43h4v4h-4z M217,46h8v1h-8z M245,46h6v1h-6z M252,39h5v8h-5z M7,47h4v1h-4z M17,47h4v1h-4z M31,47h5v1h-5z M61,47h3v1h-3z M75,47h2v1h-2z M105,47h13v1h-13z M143,47h4v1h-4z M156,47h9v1h-9z M173,45h5v3h-5z M183,47h5v1h-5z M197,46h11v2h-11z M216,47h9v1h-9z M245,47h12v1h-12z M7,48h5v1h-5z M18,48h2v1h-2z M29,48h9v1h-9z M75,48h3v1h-3z M104,48h6v1h-6z M113,48h5v1h-5z M155,48h4v1h-4z M161,48h4v1h-4z M174,48h5v1h-5z M182,48h5v1h-5z M196,48h5v1h-5z M203,48h5v1h-5z M215,48h4v1h-4z M221,48h4v1h-4z M8,49h5v1h-5z M74,49h3v1h-3z M104,49h5v1h-5z M114,49h4v1h-4z M154,49h4v1h-4z M175,49h11v1h-11z M196,49h4v1h-4z M244,48h13v2h-13z M1,47h4v4h-4z M27,49h12v2h-12z M76,50h1v1h-1z M104,50h4v1h-4z M115,50h3v1h-3z M131,50h8v1h-8z M154,50h3v1h-3z M176,50h9v1h-9z M214,49h4v2h-4z M221,49h5v2h-5z M244,50h4v1h-4z M249,50h8v1h-8z M1,51h3v1h-3z M9,50h4v2h-4z M25,51h8v1h-8z M35,51h6v1h-6z M54,51h2v1h-2z M103,51h5v1h-5z M115,51h5v1h-5z M154,51h5v1h-5z M162,49h3v3h-3z M177,51h7v1h-7z M195,50h4v2h-4z M204,49h5v3h-5z M222,51h4v1h-4z M244,51h13v1h-13z M0,52h4v1h-4z M8,52h5v1h-5z M25,52h7v1h-7z M44,52h1v1h-1z M53,52h5v1h-5z M66,52h1v1h-1z M76,52h4v1h-4z M123,43h4v10h-4z M130,51h9v2h-9z M154,52h11v1h-11z M178,52h5v1h-5z M193,52h5v1h-5z M205,52h3v1h-3z M221,52h5v1h-5z M243,52h14v1h-14z M24,53h7v1h-7z M36,52h5v2h-5z M43,53h3v1h-3z M52,53h5v1h-5z M64,53h4v1h-4z M73,53h12v1h-12z M155,53h10v1h-10z M180,53h2v1h-2z M204,53h4v1h-4z M213,51h4v3h-4z M219,53h6v1h-6z M244,53h13v1h-13z M1,53h4v2h-4z M7,53h5v2h-5z M24,54h5v1h-5z M37,54h4v1h-4z M53,54h4v1h-4z M73,54h14v1h-14z M123,53h5v2h-5z M129,53h4v2h-4z M135,53h4v2h-4z M157,54h7v1h-7z M192,53h5v2h-5z M203,54h5v1h-5z M212,54h12v1h-12z M245,54h12v1h-12z M1,55h10v1h-10z M20,55h1v1h-1z M42,54h5v2h-5z M53,55h3v1h-3z M63,54h5v2h-5z M72,55h16v1h-16z M96,53h3v3h-3z M103,52h4v4h-4z M116,52h4v4h-4z M123,55h16v1h-16z M160,55h3v1h-3z M212,55h11v1h-11z M1,56h9v1h-9z M23,55h5v2h-5z M36,55h5v2h-5z M43,56h3v1h-3z M55,56h1v1h-1z M64,56h3v1h-3z M71,56h17v1h-17z M103,56h5v1h-5z M115,56h5v1h-5z M129,56h9v1h-9z M161,56h1v1h-1z M192,55h4v2h-4z M203,55h4v2h-4z M212,56h9v1h-9z M236,56h5v1h-5z M1,57h7v1h-7z M35,57h5v1h-5z M43,57h2v1h-2z M64,57h2v1h-2z M70,57h6v1h-6z M84,57h4v1h-4z M104,57h6v1h-6z M113,57h7v1h-7z M130,57h7v1h-7z M193,57h4v1h-4z M202,57h4v1h-4z M213,57h7v1h-7z M233,57h9v1h-9z M1,58h5v1h-5z M16,56h4v3h-4z M23,57h4v2h-4z M34,58h6v1h-6z M54,58h3v1h-3z M68,58h6v1h-6z M105,58h14v1h-14z M134,58h1v1h-1z M194,58h4v1h-4z M200,58h5v1h-5z M232,58h11v1h-11z M16,59h5v1h-5z M23,59h6v1h-6z M34,59h5v1h-5z M53,59h7v1h-7z M68,59h5v1h-5z M85,58h4v2h-4z M106,59h12v1h-12z M123,56h4v4h-4z M143,59h7v1h-7z M161,59h2v1h-2z M194,59h10v1h-10z M230,59h14v1h-14z M9,60h3v1h-3z M18,60h3v1h-3z M33,60h6v1h-6z M52,60h9v1h-9z M67,60h5v1h-5z M99,60h2v1h-2z M108,60h7v1h-7z M142,60h9v1h-9z M160,60h5v1h-5z M195,60h8v1h-8z M229,60h7v1h-7z M240,60h5v1h-5z M24,60h6v2h-6z M33,61h5v1h-5z M51,61h11v1h-11z M84,60h5v2h-5z M123,60h5v2h-5z M141,61h10v1h-10z M159,61h7v1h-7z M196,61h5v1h-5z M228,61h6v1h-6z M240,61h6v1h-6z M25,62h6v1h-6z M33,62h4v1h-4z M50,62h12v1h-12z M83,62h5v1h-5z M116,62h2v1h-2z M140,62h11v1h-11z M158,62h8v1h-8z M198,62h2v1h-2z M227,62h5v1h-5z M241,62h6v1h-6z M8,61h5v3h-5z M57,63h5v1h-5z M67,61h4v3h-4z M82,63h6v1h-6z M98,61h4v3h-4z M124,62h3v2h-3z M148,63h3v1h-3z M157,63h9v1h-9z M226,63h5v1h-5z M8,64h4v1h-4z M20,64h1v1h-1z M27,63h10v2h-10z M42,64h2v1h-2z M67,64h6v1h-6z M78,64h9v1h-9z M99,64h2v1h-2z M115,63h4v2h-4z M123,64h4v1h-4z M140,63h5v2h-5z M148,64h4v1h-4z M156,64h11v1h-11z M243,63h4v2h-4z M9,65h2v1h-2z M19,65h4v1h-4z M28,65h9v1h-9z M50,63h5v3h-5z M58,64h4v2h-4z M68,65h17v1h-17z M116,65h3v1h-3z M141,65h10v1h-10z M155,65h6v1h-6z M163,65h4v1h-4z M180,65h3v1h-3z M242,65h5v1h-5z M29,66h8v1h-8z M41,65h5v2h-5z M51,66h12v1h-12z M68,66h16v1h-16z M86,66h1v1h-1z M116,66h1v1h-1z M123,65h5v2h-5z M129,66h5v1h-5z M142,66h9v1h-9z M155,66h4v1h-4z M164,66h5v1h-5z M178,66h6v1h-6z M201,66h3v1h-3z M207,66h5v1h-5z M227,64h4v3h-4z M242,66h4v1h-4z M18,66h6v2h-6z M30,67h6v1h-6z M42,67h4v1h-4z M51,67h11v1h-11z M69,67h19v1h-19z M106,67h2v1h-2z M123,67h12v1h-12z M143,67h7v1h-7z M154,67h4v1h-4z M164,67h6v1h-6z M178,67h8v1h-8z M199,67h14v1h-14z M241,67h5v1h-5z M19,68h4v1h-4z M31,68h4v1h-4z M44,68h1v1h-1z M53,68h8v1h-8z M70,68h11v1h-11z M123,68h14v1h-14z M144,68h2v1h-2z M153,68h5v1h-5z M165,68h7v1h-7z M177,68h10v1h-10z M199,68h15v1h-15z M226,67h4v2h-4z M238,68h8v1h-8z M20,69h3v1h-3z M54,69h6v1h-6z M65,69h2v1h-2z M95,69h3v1h-3z M123,69h15v1h-15z M152,69h5v1h-5z M167,69h5v1h-5z M177,69h5v1h-5z M183,69h5v1h-5z M198,69h16v1h-16z M226,69h5v1h-5z M234,69h11v1h-11z M14,70h3v1h-3z M55,70h5v1h-5z M64,70h3v1h-3z M84,68h4v3h-4z M95,70h4v1h-4z M105,68h4v3h-4z M123,70h7v1h-7z M134,70h6v1h-6z M151,70h5v1h-5z M184,70h5v1h-5z M205,70h2v1h-2z M227,70h16v1h-16z M13,71h5v1h-5z M29,71h2v1h-2z M55,71h1v1h-1z M95,71h3v1h-3z M124,71h6v1h-6z M135,71h6v1h-6z M150,71h5v1h-5z M177,70h4v2h-4z M198,70h4v2h-4z M210,70h5v2h-5z M226,71h15v1h-15z M12,72h6v1h-6z M29,72h3v1h-3z M63,71h5v2h-5z M96,72h2v1h-2z M123,72h7v1h-7z M137,72h5v1h-5z M168,70h4v3h-4z M176,72h4v1h-4z M185,71h4v2h-4z M198,72h3v1h-3z M221,72h16v1h-16z M13,73h5v1h-5z M26,73h7v1h-7z M65,73h2v1h-2z M115,71h4v3h-4z M150,72h4v2h-4z M176,73h5v1h-5z M183,73h5v1h-5z M197,73h4v1h-4z M219,73h11v1h-11z M15,74h2v1h-2z M25,74h9v1h-9z M41,74h2v1h-2z M51,74h4v1h-4z M78,74h1v1h-1z M100,74h1v1h-1z M116,74h3v1h-3z M123,73h8v2h-8z M138,73h4v2h-4z M150,74h5v1h-5z M167,73h4v2h-4z M176,74h12v1h-12z M197,74h5v1h-5z M210,72h4v3h-4z M252,55h5v20h-5z M24,75h10v1h-10z M37,75h8v1h-8z M50,75h5v1h-5z M99,75h5v1h-5z M137,75h5v1h-5z M151,75h5v1h-5z M165,75h5v1h-5z M177,75h10v1h-10z M198,75h7v1h-7z M209,75h4v1h-4z M218,74h12v2h-12z M253,75h4v1h-4z M1,59h4v18h-4z M23,76h12v1h-12z M36,76h11v1h-11z M76,75h3v2h-3z M98,76h6v1h-6z M137,76h4v1h-4z M152,76h5v1h-5z M165,76h4v1h-4z M178,76h8v1h-8z M199,76h14v1h-14z M218,76h5v1h-5z M225,76h5v1h-5z M243,76h5v1h-5z M252,76h5v1h-5z M1,77h5v1h-5z M23,77h25v1h-25z M51,76h4v2h-4z M77,77h2v1h-2z M123,75h9v3h-9z M136,77h5v1h-5z M153,77h4v1h-4z M163,77h5v1h-5z M178,77h7v1h-7z M200,77h13v1h-13z M226,77h5v1h-5z M241,77h7v1h-7z M23,78h5v1h-5z M30,78h19v1h-19z M52,78h1v1h-1z M61,78h8v1h-8z M97,77h8v2h-8z M123,78h5v1h-5z M129,78h4v1h-4z M135,78h4v1h-4z M154,78h4v1h-4z M163,78h4v1h-4z M203,78h8v1h-8z M219,77h4v2h-4z M227,78h4v1h-4z M240,78h8v1h-8z M253,77h4v2h-4z M23,79h17v1h-17z M44,79h5v1h-5z M60,79h10v1h-10z M87,77h4v3h-4z M96,79h10v1h-10z M123,79h4v1h-4z M130,79h9v1h-9z M155,79h4v1h-4z M161,79h6v1h-6z M205,79h6v1h-6z M240,79h9v1h-9z M1,78h10v3h-10z M21,80h2v1h-2z M24,80h15v1h-15z M46,80h4v1h-4z M87,80h3v1h-3z M96,80h4v1h-4z M102,80h4v1h-4z M121,80h6v1h-6z M131,80h7v1h-7z M144,80h3v1h-3z M155,80h11v1h-11z M219,79h5v2h-5z M7,81h2v1h-2z M20,81h4v1h-4z M26,81h12v1h-12z M47,81h3v1h-3z M59,80h12v2h-12z M95,81h4v1h-4z M103,81h4v1h-4z M110,79h3v3h-3z M118,81h9v1h-9z M131,81h5v1h-5z M141,81h7v1h-7z M156,81h8v1h-8z M174,81h5v1h-5z M220,81h5v1h-5z M228,79h3v3h-3z M240,80h3v2h-3z M245,80h5v2h-5z M27,82h11v1h-11z M65,82h6v1h-6z M94,82h4v1h-4z M103,82h5v1h-5z M111,82h2v1h-2z M119,82h8v1h-8z M140,82h8v1h-8z M157,82h6v1h-6z M221,82h10v1h-10z M19,82h6v2h-6z M27,83h4v1h-4z M34,83h5v1h-5z M59,82h4v2h-4z M67,83h4v1h-4z M111,83h1v1h-1z M119,83h3v1h-3z M144,83h5v1h-5z M159,83h2v1h-2z M173,82h8v2h-8z M189,83h9v1h-9z M222,83h9v1h-9z M239,82h11v2h-11z M20,84h4v1h-4z M35,84h5v1h-5z M47,82h4v3h-4z M66,84h5v1h-5z M104,83h4v2h-4z M140,83h3v2h-3z M172,84h3v1h-3z M177,84h5v1h-5z M188,84h12v1h-12z M223,84h7v1h-7z M240,84h10v1h-10z M252,79h5v6h-5z M11,85h3v1h-3z M21,85h3v1h-3z M30,85h2v1h-2z M35,85h6v1h-6z M46,85h5v1h-5z M76,85h4v1h-4z M93,83h4v3h-4z M123,83h4v3h-4z M139,85h5v1h-5z M145,84h4v2h-4z M171,85h3v1h-3z M178,85h4v1h-4z M187,85h14v1h-14z M225,85h4v1h-4z M241,85h6v1h-6z M10,86h8v1h-8z M20,86h4v1h-4z M30,86h13v1h-13z M45,86h6v1h-6z M55,84h8v3h-8z M66,85h4v2h-4z M76,86h5v1h-5z M94,86h4v1h-4z M105,85h4v2h-4z M140,86h10v1h-10z M170,86h6v1h-6z M179,86h3v1h-3z M186,86h5v1h-5z M196,86h5v1h-5z M244,86h1v1h-1z M10,87h10v1h-10z M29,87h6v1h-6z M37,87h13v1h-13z M55,87h3v1h-3z M59,87h11v1h-11z M105,87h5v1h-5z M124,86h3v2h-3z M140,87h9v1h-9z M170,87h12v1h-12z M186,87h4v1h-4z M198,87h4v1h-4z M231,87h1v1h-1z M233,87h1v1h-1z M10,88h11v1h-11z M28,88h7v1h-7z M37,88h12v1h-12z M59,88h10v1h-10z M77,87h3v2h-3z M94,87h3v2h-3z M141,88h8v1h-8z M157,88h2v1h-2z M171,88h11v1h-11z M186,88h3v1h-3z M198,88h3v1h-3z M229,88h7v1h-7z M9,89h13v1h-13z M29,89h6v1h-6z M39,89h10v1h-10z M60,89h9v1h-9z M94,89h4v1h-4z M143,89h2v1h-2z M146,89h1v1h-1z M154,89h6v1h-6z M172,89h9v1h-9z M185,89h4v1h-4z M228,89h10v1h-10z M253,85h4v5h-4z M9,90h14v1h-14z M30,90h4v1h-4z M41,90h5v1h-5z M63,90h4v1h-4z M106,88h4v3h-4z M152,90h10v1h-10z M175,90h5v1h-5z M226,90h12v1h-12z M9,91h4v1h-4z M64,91h3v1h-3z M94,90h3v2h-3z M104,91h5v1h-5z M124,88h4v4h-4z M130,91h7v1h-7z M151,91h13v1h-13z M177,91h2v1h-2z M197,89h4v3h-4z M226,91h5v1h-5z M234,91h4v1h-4z M8,92h5v1h-5z M87,92h4v1h-4z M94,92h4v1h-4z M101,92h8v1h-8z M116,89h4v4h-4z M123,92h5v1h-5z M129,92h9v1h-9z M150,92h6v1h-6z M159,92h10v1h-10z M184,90h5v3h-5z M196,92h4v1h-4z M225,92h6v1h-6z M18,91h5v3h-5z M49,93h2v1h-2z M94,93h14v1h-14z M118,93h1v1h-1z M123,93h16v1h-16z M148,93h6v1h-6z M160,93h10v1h-10z M185,93h4v1h-4z M195,93h4v1h-4z M224,93h5v1h-5z M38,94h3v1h-3z M49,94h3v1h-3z M94,94h11v1h-11z M123,94h11v1h-11z M135,94h4v1h-4z M147,94h6v1h-6z M161,94h10v1h-10z M185,94h5v1h-5z M193,94h6v1h-6z M252,90h5v5h-5z M8,93h4v3h-4z M17,94h7v2h-7z M37,95h3v1h-3z M50,95h2v1h-2z M62,95h1v1h-1z M75,95h1v1h-1z M87,93h5v3h-5z M94,95h10v1h-10z M123,95h10v1h-10z M145,95h6v1h-6z M162,95h10v1h-10z M186,95h12v1h-12z M209,95h5v1h-5z M224,94h4v2h-4z M15,96h7v1h-7z M23,96h5v1h-5z M37,96h4v1h-4z M50,96h1v1h-1z M61,96h4v1h-4z M88,96h3v1h-3z M95,96h8v1h-8z M123,96h8v1h-8z M163,96h8v1h-8z M187,96h10v1h-10z M207,96h9v1h-9z M223,96h4v1h-4z M253,95h4v2h-4z M9,96h4v2h-4z M14,97h8v1h-8z M23,97h6v1h-6z M36,97h5v1h-5z M95,97h4v1h-4z M105,97h4v1h-4z M145,96h5v2h-5z M161,97h10v1h-10z M188,97h7v1h-7z M206,97h10v1h-10z M9,98h12v1h-12z M24,98h5v1h-5z M37,98h4v1h-4z M60,97h5v2h-5z M73,96h4v3h-4z M96,98h1v1h-1z M120,97h11v2h-11z M145,98h25v1h-25z M190,98h3v1h-3z M206,98h4v1h-4z M212,98h5v1h-5z M223,97h3v2h-3z M235,92h4v7h-4z M252,97h5v2h-5z M10,99h9v1h-9z M24,99h4v1h-4z M38,99h2v1h-2z M61,99h3v1h-3z M74,99h2v1h-2z M105,98h5v2h-5z M120,99h10v1h-10z M146,99h23v1h-23z M205,99h5v1h-5z M213,99h4v1h-4z M222,99h5v1h-5z M234,99h5v1h-5z M251,99h6v1h-6z M10,100h8v1h-8z M62,100h1v1h-1z M82,100h2v1h-2z M106,100h3v1h-3z M121,100h9v1h-9z M136,95h4v6h-4z M147,100h17v1h-17z M222,100h16v1h-16z M250,100h7v1h-7z M10,101h7v1h-7z M41,101h4v1h-4z M73,101h3v1h-3z M97,101h3v1h-3z M152,101h7v1h-7z M206,100h11v2h-11z M223,101h14v1h-14z M248,101h9v1h-9z M11,102h7v1h-7z M40,102h11v1h-11z M69,102h9v1h-9z M123,101h9v2h-9z M135,101h5v2h-5z M207,102h9v1h-9z M223,102h12v1h-12z M247,102h10v1h-10z M1,81h4v23h-4z M12,103h4v1h-4z M39,103h12v1h-12z M52,103h1v1h-1z M54,103h3v1h-3z M66,103h12v1h-12z M81,101h4v3h-4z M96,102h4v2h-4z M123,103h10v1h-10z M136,103h3v1h-3z M208,103h8v1h-8z M224,103h8v1h-8z M245,103h12v1h-12z M13,104h2v1h-2z M65,104h14v1h-14z M82,104h2v1h-2z M97,104h2v1h-2z M123,104h16v1h-16z M172,104h5v1h-5z M188,104h6v1h-6z M244,104h7v1h-7z M252,104h5v1h-5z M31,105h4v1h-4z M38,104h14v2h-14z M64,105h8v1h-8z M74,105h6v1h-6z M87,105h3v1h-3z M113,105h3v1h-3z M130,105h9v1h-9z M171,105h8v1h-8z M187,105h7v1h-7z M253,105h4v1h-4z M1,104h8v3h-8z M30,106h5v1h-5z M38,106h5v1h-5z M54,104h4v3h-4z M63,106h6v1h-6z M75,106h6v1h-6z M86,106h5v1h-5z M101,106h7v1h-7z M131,106h8v1h-8z M170,106h10v1h-10z M243,105h5v2h-5z M253,106h3v1h-3z M6,107h2v1h-2z M30,107h11v1h-11z M47,106h5v2h-5z M54,107h3v1h-3z M63,107h5v1h-5z M76,107h5v1h-5z M87,107h4v1h-4z M99,107h10v1h-10z M113,106h4v2h-4z M133,107h5v1h-5z M169,107h12v1h-12z M186,106h9v2h-9z M216,107h4v1h-4z M31,108h10v1h-10z M87,108h3v1h-3z M99,108h11v1h-11z M134,108h2v1h-2z M168,108h5v1h-5z M177,108h4v1h-4z M185,108h4v1h-4z M191,108h4v1h-4z M215,108h7v1h-7z M32,109h2v1h-2z M77,108h4v2h-4z M99,109h4v1h-4z M105,109h5v1h-5z M148,109h7v1h-7z M167,109h5v1h-5z M177,109h5v1h-5z M214,109h9v1h-9z M243,107h4v3h-4z M252,107h5v3h-5z M23,109h2v2h-2z M36,109h5v2h-5z M47,108h4v3h-4z M63,108h4v3h-4z M76,110h5v1h-5z M98,110h4v1h-4z M106,110h4v1h-4z M124,105h3v6h-3z M147,110h9v1h-9z M167,110h4v1h-4z M178,110h3v1h-3z M185,109h10v2h-10z M214,110h4v1h-4z M219,110h4v1h-4z M243,110h5v1h-5z M253,110h4v1h-4z M21,111h5v1h-5z M37,111h6v1h-6z M98,111h3v1h-3z M146,111h11v1h-11z M166,111h5v1h-5z M185,111h8v1h-8z M203,111h2v1h-2z M213,111h4v1h-4z M219,111h5v1h-5z M243,111h14v1h-14z M38,112h6v1h-6z M48,111h3v2h-3z M75,111h5v2h-5z M146,112h4v1h-4z M151,112h6v1h-6z M166,112h4v1h-4z M185,112h7v1h-7z M202,112h5v1h-5z M20,112h6v2h-6z M39,113h5v1h-5z M47,113h5v1h-5z M64,111h4v3h-4z M73,113h6v1h-6z M107,111h4v3h-4z M145,113h5v1h-5z M153,113h5v1h-5z M165,113h5v1h-5z M186,113h3v1h-3z M201,113h8v1h-8z M213,112h10v2h-10z M244,112h13v2h-13z M12,113h4v2h-4z M20,114h5v1h-5z M40,114h5v1h-5z M46,114h6v1h-6z M64,114h7v1h-7z M72,114h7v1h-7z M97,112h4v3h-4z M107,114h3v1h-3z M146,114h4v1h-4z M154,114h4v1h-4z M164,114h5v1h-5z M199,114h11v1h-11z M214,114h8v1h-8z M246,114h11v1h-11z M12,115h5v1h-5z M64,115h13v1h-13z M97,115h6v1h-6z M106,115h4v1h-4z M118,115h3v1h-3z M146,115h11v1h-11z M164,115h3v1h-3z M198,115h6v1h-6z M205,115h5v1h-5z M214,115h7v1h-7z M251,115h6v1h-6z M12,116h4v1h-4z M41,115h10v2h-10z M57,115h4v2h-4z M65,116h11v1h-11z M97,116h13v1h-13z M118,116h4v1h-4z M147,116h9v1h-9z M164,116h4v1h-4z M197,116h6v1h-6z M13,117h2v1h-2z M24,117h3v1h-3z M34,117h3v1h-3z M42,117h7v1h-7z M66,117h8v1h-8z M98,117h11v1h-11z M118,117h3v1h-3z M148,117h7v1h-7z M177,111h4v7h-4z M197,117h5v1h-5z M206,116h4v2h-4z M252,116h5v2h-5z M44,118h3v1h-3z M51,118h2v1h-2z M57,117h5v2h-5z M100,118h8v1h-8z M151,118h2v1h-2z M164,117h5v2h-5z M197,118h4v1h-4z M205,118h5v1h-5z M252,118h4v1h-4z M23,118h6v2h-6z M33,118h5v2h-5z M50,119h2v1h-2z M57,119h3v1h-3z M70,118h2v2h-2z M84,116h3v4h-3z M165,119h5v1h-5z M177,118h3v2h-3z M205,119h4v1h-4z M253,119h4v1h-4z M22,120h8v1h-8z M33,120h4v1h-4z M70,120h3v1h-3z M95,120h3v1h-3z M166,120h5v1h-5z M176,120h4v1h-4z M196,119h5v2h-5z M204,120h5v1h-5z M218,120h17v1h-17z M21,121h10v1h-10z M35,121h1v1h-1z M167,121h6v1h-6z M175,121h5v1h-5z M197,121h4v1h-4z M203,121h5v1h-5z M216,121h21v1h-21z M20,122h11v1h-11z M81,122h2v1h-2z M124,111h4v12h-4z M168,122h12v1h-12z M197,122h10v1h-10z M215,122h22v1h-22z M245,122h4v1h-4z M252,120h5v3h-5z M19,123h6v1h-6z M27,123h5v1h-5z M70,121h4v3h-4z M80,123h5v1h-5z M94,121h5v3h-5z M111,121h4v3h-4z M139,123h5v1h-5z M170,123h9v1h-9z M198,123h8v1h-8z M213,123h10v1h-10z M227,123h4v1h-4z M232,123h6v1h-6z M244,123h6v1h-6z M252,123h4v1h-4z M7,124h3v1h-3z M18,124h6v1h-6z M27,124h4v1h-4z M43,124h3v1h-3z M70,124h3v1h-3z M79,124h8v1h-8z M95,124h3v1h-3z M111,124h3v1h-3z M137,124h8v1h-8z M171,124h7v1h-7z M199,124h6v1h-6z M233,124h5v1h-5z M17,125h7v1h-7z M42,125h4v1h-4z M60,125h3v1h-3z M76,125h13v1h-13z M123,123h5v3h-5z M135,125h10v1h-10z M174,125h1v1h-1z M212,124h7v2h-7z M233,125h4v1h-4z M243,124h8v2h-8z M6,125h5v2h-5z M17,126h5v1h-5z M42,126h5v1h-5z M59,126h4v1h-4z M75,126h14v1h-14z M123,126h23v1h-23z M155,126h6v1h-6z M213,126h4v1h-4z M232,126h5v1h-5z M247,126h4v1h-4z M7,127h3v1h-3z M26,125h5v3h-5z M43,127h3v1h-3z M74,127h6v1h-6z M84,127h5v1h-5z M124,127h15v1h-15z M141,127h5v1h-5z M153,127h9v1h-9z M231,127h5v1h-5z M248,127h3v1h-3z M252,124h5v4h-5z M17,127h6v2h-6z M25,128h6v1h-6z M43,128h2v1h-2z M59,127h5v2h-5z M72,128h7v1h-7z M85,128h4v1h-4z M105,128h3v1h-3z M143,128h3v1h-3z M152,128h11v1h-11z M213,127h7v2h-7z M229,128h6v1h-6z M242,126h4v3h-4z M247,128h10v1h-10z M18,129h12v1h-12z M34,129h3v1h-3z M71,129h7v1h-7z M86,129h4v1h-4z M124,128h11v2h-11z M143,129h4v1h-4z M152,129h5v1h-5z M158,129h5v1h-5z M177,129h5v1h-5z M215,129h7v1h-7z M228,129h6v1h-6z M242,129h9v1h-9z M252,129h5v1h-5z M19,130h11v1h-11z M33,130h5v1h-5z M70,130h7v1h-7z M85,130h5v1h-5z M105,129h4v2h-4z M124,130h7v1h-7z M144,130h4v1h-4z M159,130h4v1h-4z M175,130h9v1h-9z M197,130h6v1h-6z M217,130h6v1h-6z M226,130h7v1h-7z M243,130h6v1h-6z M1,107h4v25h-4z M15,131h2v1h-2z M33,131h6v1h-6z M51,131h1v1h-1z M85,131h4v1h-4z M105,131h3v1h-3z M143,131h5v1h-5z M152,130h4v2h-4z M160,131h3v1h-3z M173,131h11v1h-11z M196,131h8v1h-8z M218,131h13v1h-13z M244,131h4v1h-4z M253,130h4v2h-4z M1,132h12v1h-12z M14,132h5v1h-5z M20,131h9v2h-9z M50,132h3v1h-3z M64,132h3v1h-3z M69,131h6v2h-6z M95,132h1v1h-1z M124,131h6v2h-6z M143,132h4v1h-4z M152,132h11v1h-11z M173,132h12v1h-12z M219,132h11v1h-11z M245,132h3v1h-3z M1,133h32v1h-32z M34,132h4v2h-4z M70,133h5v1h-5z M84,132h5v2h-5z M116,133h3v1h-3z M141,133h6v1h-6z M153,133h10v1h-10z M195,132h10v2h-10z M221,133h8v1h-8z M248,133h2v1h-2z M252,132h5v2h-5z M2,134h37v1h-37z M41,134h2v1h-2z M49,133h4v2h-4z M71,134h5v1h-5z M83,134h5v1h-5z M94,133h4v2h-4z M115,134h4v1h-4z M141,134h4v1h-4z M154,134h7v1h-7z M181,133h4v2h-4z M195,134h4v1h-4z M201,134h4v1h-4z M222,134h5v1h-5z M247,134h10v1h-10z M2,135h55v1h-55z M63,133h5v3h-5z M71,135h7v1h-7z M82,135h5v1h-5z M93,135h5v1h-5z M116,135h3v1h-3z M124,133h7v3h-7z M139,135h5v1h-5z M156,135h3v1h-3z M172,133h5v3h-5z M181,135h5v1h-5z M196,135h9v1h-9z M223,135h2v1h-2z M245,135h12v1h-12z M8,136h71v1h-71z M80,136h7v1h-7z M92,136h6v1h-6z M123,136h9v1h-9z M137,136h6v1h-6z M173,136h12v1h-12z M196,136h8v1h-8z M244,136h13v1h-13z M18,137h83v1h-83z M103,137h4v1h-4z M116,137h2v1h-2z M122,137h20v1h-20z M174,137h11v1h-11z M197,137h6v1h-6z M244,137h6v1h-6z M251,137h6v1h-6z M29,138h2v1h-2z M34,138h127v1h-127z M174,138h10v1h-10z M200,138h1v1h-1z M243,138h5v1h-5z M252,138h5v1h-5z M50,139h155v1h-155z M208,139h1v1h-1z M210,139h17v1h-17z M231,139h26v1h-26z M59,140h198v1h-198z M112,141h5v1h-5z M121,141h5v1h-5z M127,141h1v1h-1z M129,141h127v1h-127z M142,142h1v1h-1z M148,142h2v1h-2z M160,142h96v1h-96z M184,143h7v1h-7z M239,143h16v1h-16z
  "/>
</svg>