<?xml version="1.0" encoding="UTF-8"?>
<svg xmlns="http://www.w3.org/2000/svg" viewBox="0 0 269 141" width="269" height="141">
  <title>33 Bone</title>
  <path fill="#111111" fill-rule="nonzero" d="
    M253,0h1v1h-1z M259,0h1v1h-1z M220,1h1v1h-1z M228,1h6v1h-6z M236,1h31v1h-31z M184,2h1v1h-1z M186,2h81v1h-81z M130,3h6v1h-6z M141,3h4v1h-4z M146,3h121v1h-121z M36,4h3v1h-3z M50,4h217v1h-217z M3,5h258v1h-258z M2,6h248v1h-248z M256,6h4v1h-4z M1,7h108v1h-108z M115,7h5v1h-5z M126,7h113v1h-113z M245,7h4v1h-4z M256,7h3v1h-3z M1,8h100v1h-100z M103,8h5v1h-5z M115,8h4v1h-4z M126,8h4v1h-4z M135,8h103v1h-103z M245,8h3v1h-3z M255,8h4v1h-4z M1,9h108v1h-108z M114,9h4v1h-4z M125,9h4v1h-4z M135,9h101v1h-101z M254,9h4v1h-4z M1,10h116v1h-116z M124,10h4v1h-4z M134,10h101v1h-101z M243,9h4v2h-4z M253,10h4v1h-4z M1,11h115v1h-115z M123,11h4v1h-4z M133,11h52v1h-52z M187,11h18v1h-18z M208,11h10v1h-10z M219,11h10v1h-10z M231,11h4v1h-4z M242,11h4v1h-4z M253,11h3v1h-3z M264,5h3v7h-3z M1,12h104v1h-104z M107,12h2v1h-2z M110,12h5v1h-5z M122,12h4v1h-4z M132,12h7v1h-7z M141,12h21v1h-21z M163,12h7v1h-7z M176,12h5v1h-5z M187,12h6v1h-6z M198,12h5v1h-5z M210,12h27v1h-27z M240,12h5v1h-5z M252,12h3v1h-3z M263,12h4v1h-4z M1,13h81v1h-81z M85,13h8v1h-8z M97,13h6v1h-6z M110,13h4v1h-4z M121,13h4v1h-4z M131,13h5v1h-5z M142,13h4v1h-4z M152,13h5v1h-5z M163,13h6v1h-6z M176,13h4v1h-4z M187,13h5v1h-5z M197,13h5v1h-5z M208,13h37v1h-37z M251,13h3v1h-3z M262,13h5v1h-5z M1,14h56v1h-56z M62,14h7v1h-7z M86,14h5v1h-5z M98,14h4v1h-4z M109,14h4v1h-4z M120,14h4v1h-4z M130,14h5v1h-5z M141,14h4v1h-4z M152,14h4v1h-4z M163,14h5v1h-5z M175,14h4v1h-4z M186,14h5v1h-5z M197,14h4v1h-4z M203,14h42v1h-42z M250,14h4v1h-4z M261,14h7v1h-7z M1,15h23v1h-23z M28,15h6v1h-6z M40,15h5v1h-5z M51,15h5v1h-5z M63,15h4v1h-4z M74,14h5v2h-5z M86,15h4v1h-4z M97,15h4v1h-4z M108,15h4v1h-4z M119,15h4v1h-4z M130,15h4v1h-4z M140,15h4v1h-4z M151,15h3v1h-3z M163,15h4v1h-4z M174,15h4v1h-4z M185,15h5v1h-5z M196,15h4v1h-4z M203,15h41v1h-41z M249,15h3v1h-3z M261,15h6v1h-6z M1,16h9v1h-9z M16,16h6v1h-6z M28,16h5v1h-5z M40,16h4v1h-4z M50,16h5v1h-5z M62,16h4v1h-4z M73,16h5v1h-5z M85,16h5v1h-5z M96,16h4v1h-4z M108,16h3v1h-3z M118,16h4v1h-4z M129,16h4v1h-4z M140,16h3v1h-3z M150,16h4v1h-4z M161,16h5v1h-5z M173,16h4v1h-4z M184,16h5v1h-5z M195,16h4v1h-4z M204,16h29v1h-29z M235,16h7v1h-7z M248,16h3v1h-3z M260,16h7v1h-7z M1,17h8v1h-8z M16,17h5v1h-5z M27,17h5v1h-5z M39,17h4v1h-4z M49,17h5v1h-5z M61,17h4v1h-4z M72,17h5v1h-5z M84,17h5v1h-5z M95,17h4v1h-4z M106,17h4v1h-4z M128,17h4v1h-4z M139,17h3v1h-3z M149,17h4v1h-4z M160,17h5v1h-5z M172,17h4v1h-4z M183,17h5v1h-5z M194,17h4v1h-4z M204,17h7v1h-7z M213,17h6v1h-6z M223,17h7v1h-7z M236,17h5v1h-5z M246,17h5v1h-5z M259,17h3v1h-3z M1,18h7v1h-7z M15,18h5v1h-5z M27,18h4v1h-4z M38,18h4v1h-4z M48,18h5v1h-5z M60,18h5v1h-5z M72,18h3v1h-3z M83,18h5v1h-5z M95,18h3v1h-3z M106,18h3v1h-3z M117,17h4v2h-4z M127,18h4v1h-4z M138,18h4v1h-4z M148,18h5v1h-5z M159,18h5v1h-5z M171,18h4v1h-4z M182,18h5v1h-5z M193,18h5v1h-5z M204,18h4v1h-4z M214,18h4v1h-4z M224,18h5v1h-5z M235,18h19v1h-19z M258,18h4v1h-4z M1,19h6v1h-6z M15,19h4v1h-4z M26,19h3v1h-3z M37,19h5v1h-5z M47,19h5v1h-5z M59,19h5v1h-5z M71,19h3v1h-3z M82,19h5v1h-5z M93,19h5v1h-5z M104,19h5v1h-5z M115,19h5v1h-5z M125,19h6v1h-6z M136,19h28v1h-28z M170,19h5v1h-5z M181,19h5v1h-5z M192,19h5v1h-5z M204,19h3v1h-3z M213,19h4v1h-4z M234,19h26v1h-26z M1,20h5v1h-5z M14,20h4v1h-4z M25,20h4v1h-4z M36,20h5v1h-5z M47,20h4v1h-4z M58,20h5v1h-5z M70,20h4v1h-4z M81,20h5v1h-5z M92,20h6v1h-6z M103,20h6v1h-6z M115,20h6v1h-6z M124,20h6v1h-6z M135,20h40v1h-40z M180,20h6v1h-6z M191,20h5v1h-5z M203,20h3v1h-3z M212,20h4v1h-4z M223,19h5v2h-5z M233,20h26v1h-26z M13,21h4v1h-4z M24,21h3v1h-3z M35,21h4v1h-4z M46,21h4v1h-4z M57,21h5v1h-5z M69,21h5v1h-5z M80,21h116v1h-116z M202,21h4v1h-4z M211,21h4v1h-4z M221,21h38v1h-38z M1,21h4v2h-4z M11,22h4v1h-4z M23,22h4v1h-4z M34,22h4v1h-4z M45,22h5v1h-5z M56,22h6v1h-6z M67,22h142v1h-142z M210,22h4v1h-4z M219,22h39v1h-39z M264,17h3v6h-3z M11,23h3v1h-3z M22,23h4v1h-4z M33,23h4v1h-4z M44,23h5v1h-5z M54,23h159v1h-159z M218,23h39v1h-39z M10,24h4v1h-4z M21,24h4v1h-4z M32,24h5v1h-5z M43,24h4v1h-4z M50,24h162v1h-162z M217,24h18v1h-18z M239,24h5v1h-5z M251,24h4v1h-4z M263,23h4v2h-4z M9,25h4v1h-4z M20,25h4v1h-4z M31,25h4v1h-4z M42,25h4v1h-4z M51,25h160v1h-160z M217,25h5v1h-5z M228,25h4v1h-4z M239,25h4v1h-4z M251,25h3v1h-3z M262,25h5v1h-5z M8,26h3v1h-3z M19,26h4v1h-4z M30,26h5v1h-5z M41,26h5v1h-5z M52,26h151v1h-151z M205,26h5v1h-5z M217,26h4v1h-4z M228,26h3v1h-3z M239,26h3v1h-3z M250,26h3v1h-3z M7,27h4v1h-4z M19,27h3v1h-3z M30,27h4v1h-4z M40,27h4v1h-4z M51,27h149v1h-149z M216,27h4v1h-4z M227,27h3v1h-3z M238,27h3v1h-3z M250,27h2v1h-2z M261,26h6v2h-6z M1,23h3v6h-3z M5,28h5v1h-5z M18,28h4v1h-4z M28,28h5v1h-5z M39,28h4v1h-4z M59,28h134v1h-134z M194,28h5v1h-5z M205,27h4v2h-4z M215,28h4v1h-4z M226,28h3v1h-3z M237,28h4v1h-4z M248,28h3v1h-3z M259,28h4v1h-4z M1,29h8v1h-8z M17,29h4v1h-4z M27,29h5v1h-5z M38,29h4v1h-4z M50,28h5v2h-5z M60,29h29v1h-29z M90,29h2v1h-2z M93,29h95v1h-95z M194,29h4v1h-4z M204,29h4v1h-4z M214,29h4v1h-4z M225,29h4v1h-4z M237,29h3v1h-3z M247,29h4v1h-4z M259,29h2v1h-2z M1,30h9v1h-9z M15,30h20v1h-20z M37,30h5v1h-5z M49,30h5v1h-5z M60,30h5v1h-5z M94,30h5v1h-5z M101,30h76v1h-76z M181,30h5v1h-5z M194,30h3v1h-3z M203,30h4v1h-4z M213,30h5v1h-5z M224,30h4v1h-4z M235,30h4v1h-4z M246,30h4v1h-4z M258,30h3v1h-3z M1,31h42v1h-42z M47,31h7v1h-7z M59,31h6v1h-6z M70,30h18v2h-18z M93,31h4v1h-4z M103,31h5v1h-5z M111,31h53v1h-53z M169,31h6v1h-6z M181,31h4v1h-4z M192,31h4v1h-4z M202,31h4v1h-4z M212,31h5v1h-5z M223,31h5v1h-5z M234,31h4v1h-4z M245,31h6v1h-6z M256,31h5v1h-5z M264,28h3v4h-3z M1,32h96v1h-96z M103,32h4v1h-4z M113,32h5v1h-5z M119,32h44v1h-44z M169,32h5v1h-5z M180,32h5v1h-5z M191,32h4v1h-4z M201,32h4v1h-4z M212,32h4v1h-4z M223,32h4v1h-4z M233,32h34v1h-34z M113,33h4v1h-4z M122,33h6v1h-6z M133,33h5v1h-5z M145,33h5v1h-5z M156,33h5v1h-5z M168,33h5v1h-5z M179,33h5v1h-5z M191,33h3v1h-3z M201,33h3v1h-3z M211,33h4v1h-4z M221,33h46v1h-46z M1,33h106v2h-106z M112,34h5v1h-5z M122,34h5v1h-5z M133,34h4v1h-4z M145,34h4v1h-4z M156,34h4v1h-4z M179,34h4v1h-4z M190,34h3v1h-3z M200,34h3v1h-3z M210,34h4v1h-4z M219,34h48v1h-48z M1,35h116v1h-116z M121,35h6v1h-6z M132,35h4v1h-4z M143,35h5v1h-5z M155,35h5v1h-5z M167,34h5v2h-5z M178,35h5v1h-5z M188,35h5v1h-5z M198,35h6v1h-6z M207,35h60v1h-60z M1,36h128v1h-128z M131,36h5v1h-5z M142,36h6v1h-6z M155,36h4v1h-4z M166,36h5v1h-5z M174,36h94v1h-94z M142,37h5v1h-5z M165,37h103v1h-103z M1,37h133v2h-133z M141,38h5v1h-5z M153,37h4v2h-4z M164,38h103v1h-103z M1,39h132v1h-132z M140,39h5v1h-5z M151,39h116v1h-116z M1,40h123v1h-123z M125,40h8v1h-8z M139,40h7v1h-7z M147,40h120v1h-120z M1,41h112v1h-112z M115,41h6v1h-6z M122,41h145v1h-145z M115,42h5v1h-5z M1,42h109v2h-109z M114,43h4v1h-4z M121,42h146v2h-146z M1,44h110v1h-110z M113,44h4v1h-4z M122,44h145v1h-145z M123,45h4v1h-4z M134,45h5v1h-5z M144,45h124v1h-124z M1,45h115v2h-115z M122,46h4v1h-4z M134,46h4v1h-4z M145,46h122v1h-122z M1,47h60v1h-60z M64,47h22v1h-22z M87,47h7v1h-7z M96,47h9v1h-9z M110,47h5v1h-5z M121,47h4v1h-4z M133,47h4v1h-4z M144,47h123v1h-123z M1,48h59v1h-59z M65,48h5v1h-5z M76,48h6v1h-6z M87,48h5v1h-5z M98,48h5v1h-5z M109,48h5v1h-5z M121,48h3v1h-3z M131,48h6v1h-6z M143,48h16v1h-16z M164,48h7v1h-7z M1,49h58v1h-58z M65,49h4v1h-4z M76,49h4v1h-4z M87,49h4v1h-4z M97,49h5v1h-5z M108,49h5v1h-5z M119,49h4v1h-4z M131,49h5v1h-5z M142,49h4v1h-4z M152,49h6v1h-6z M164,49h5v1h-5z M1,50h56v1h-56z M64,50h5v1h-5z M75,50h5v1h-5z M86,50h5v1h-5z M96,50h5v1h-5z M107,50h4v1h-4z M118,50h4v1h-4z M130,50h4v1h-4z M141,50h4v1h-4z M152,50h5v1h-5z M164,50h4v1h-4z M175,48h92v3h-92z M1,51h45v1h-45z M51,51h6v1h-6z M63,51h4v1h-4z M74,51h4v1h-4z M85,51h5v1h-5z M95,51h5v1h-5z M117,51h5v1h-5z M129,51h5v1h-5z M140,51h4v1h-4z M151,51h5v1h-5z M163,51h4v1h-4z M174,51h4v1h-4z M183,51h5v1h-5z M192,51h7v1h-7z M203,51h6v1h-6z M214,51h18v1h-18z M237,51h5v1h-5z M249,51h5v1h-5z M259,51h8v1h-8z M1,52h9v1h-9z M15,52h6v1h-6z M27,52h5v1h-5z M39,52h5v1h-5z M51,52h5v1h-5z M63,52h3v1h-3z M74,52h3v1h-3z M84,52h5v1h-5z M95,52h4v1h-4z M106,51h4v2h-4z M117,52h4v1h-4z M128,52h5v1h-5z M139,52h5v1h-5z M151,52h4v1h-4z M162,52h4v1h-4z M173,52h4v1h-4z M183,52h3v1h-3z M193,52h4v1h-4z M204,52h4v1h-4z M214,52h5v1h-5z M226,52h4v1h-4z M237,52h3v1h-3z M249,52h4v1h-4z M260,52h7v1h-7z M1,53h8v1h-8z M15,53h5v1h-5z M27,53h4v1h-4z M39,53h4v1h-4z M51,53h4v1h-4z M62,53h4v1h-4z M73,53h4v1h-4z M83,53h5v1h-5z M93,53h6v1h-6z M104,53h6v1h-6z M115,53h6v1h-6z M127,53h6v1h-6z M138,53h7v1h-7z M149,53h5v1h-5z M161,53h4v1h-4z M172,53h4v1h-4z M182,53h3v1h-3z M192,53h4v1h-4z M203,53h4v1h-4z M214,53h4v1h-4z M225,53h5v1h-5z M248,53h4v1h-4z M259,53h4v1h-4z M1,54h7v1h-7z M15,54h4v1h-4z M26,54h4v1h-4z M38,54h4v1h-4z M49,54h6v1h-6z M61,54h5v1h-5z M71,54h9v1h-9z M82,54h7v1h-7z M90,54h1v1h-1z M92,54h61v1h-61z M160,54h5v1h-5z M171,54h4v1h-4z M181,54h3v1h-3z M191,54h4v1h-4z M202,54h4v1h-4z M213,54h4v1h-4z M224,54h5v1h-5z M236,53h3v2h-3z M247,54h4v1h-4z M258,54h4v1h-4z M1,55h6v1h-6z M14,55h4v1h-4z M25,55h4v1h-4z M37,55h4v1h-4z M47,55h8v1h-8z M56,55h96v1h-96z M159,55h4v1h-4z M170,55h4v1h-4z M180,55h3v1h-3z M191,55h3v1h-3z M201,55h4v1h-4z M212,55h4v1h-4z M223,55h5v1h-5z M235,55h3v1h-3z M247,55h3v1h-3z M258,55h3v1h-3z M264,53h4v3h-4z M1,56h5v1h-5z M13,56h4v1h-4z M25,56h3v1h-3z M36,56h5v1h-5z M158,56h5v1h-5z M169,56h4v1h-4z M179,56h4v1h-4z M189,56h5v1h-5z M201,56h3v1h-3z M211,56h4v1h-4z M223,56h4v1h-4z M234,56h3v1h-3z M246,56h3v1h-3z M257,56h3v1h-3z M1,57h4v1h-4z M12,57h4v1h-4z M23,57h4v1h-4z M36,57h4v1h-4z M43,56h108v2h-108z M157,57h5v1h-5z M168,57h5v1h-5z M178,57h7v1h-7z M188,57h5v1h-5z M200,57h4v1h-4z M210,57h4v1h-4z M222,57h4v1h-4z M233,57h3v1h-3z M245,57h3v1h-3z M256,57h3v1h-3z M11,58h4v1h-4z M23,58h3v1h-3z M35,58h3v1h-3z M44,58h7v1h-7z M54,58h74v1h-74z M133,58h18v1h-18z M156,58h5v1h-5z M167,58h29v1h-29z M199,58h26v1h-26z M232,58h4v1h-4z M244,58h3v1h-3z M255,58h3v1h-3z M265,56h3v3h-3z M11,59h3v1h-3z M22,59h3v1h-3z M33,59h6v1h-6z M42,59h119v1h-119z M163,59h61v1h-61z M231,59h4v1h-4z M243,59h4v1h-4z M253,59h5v1h-5z M264,59h4v1h-4z M9,60h4v1h-4z M21,60h5v1h-5z M30,60h193v1h-193z M230,60h5v1h-5z M241,60h19v1h-19z M263,60h5v1h-5z M8,61h5v1h-5z M18,61h198v1h-198z M7,62h204v1h-204z M217,61h51v2h-51z M6,63h202v1h-202z M216,63h52v1h-52z M1,58h3v7h-3z M5,64h202v1h-202z M215,64h53v1h-53z M215,65h4v1h-4z M221,65h47v1h-47z M1,65h205v2h-205z M214,66h4v1h-4z M223,66h8v1h-8z M232,66h11v1h-11z M244,66h7v1h-7z M257,66h5v1h-5z M1,67h204v1h-204z M213,67h4v1h-4z M223,67h5v1h-5z M235,67h4v1h-4z M246,67h4v1h-4z M257,67h4v1h-4z M1,68h197v1h-197z M199,68h5v1h-5z M212,68h4v1h-4z M223,68h3v1h-3z M235,68h3v1h-3z M246,68h3v1h-3z M257,68h3v1h-3z M1,69h192v1h-192z M199,69h4v1h-4z M211,69h4v1h-4z M222,69h3v1h-3z M234,69h3v1h-3z M244,69h4v1h-4z M256,69h3v1h-3z M1,70h181v1h-181z M187,70h4v1h-4z M199,70h3v1h-3z M210,70h4v1h-4z M221,70h4v1h-4z M233,70h4v1h-4z M244,70h3v1h-3z M255,70h3v1h-3z M265,66h3v5h-3z M1,71h179v1h-179z M187,71h3v1h-3z M198,71h3v1h-3z M209,71h4v1h-4z M220,71h4v1h-4z M232,71h4v1h-4z M243,71h3v1h-3z M254,71h3v1h-3z M1,72h168v1h-168z M174,72h5v1h-5z M186,72h4v1h-4z M197,72h4v1h-4z M208,72h5v1h-5z M219,72h4v1h-4z M231,72h4v1h-4z M242,72h4v1h-4z M253,72h3v1h-3z M264,71h4v2h-4z M7,73h6v1h-6z M15,73h142v1h-142z M163,73h4v1h-4z M174,73h4v1h-4z M185,73h5v1h-5z M195,73h9v1h-9z M206,73h10v1h-10z M217,73h7v1h-7z M226,73h2v1h-2z M229,73h8v1h-8z M240,73h6v1h-6z M251,73h4v1h-4z M262,73h6v1h-6z M7,74h4v1h-4z M17,74h129v1h-129z M151,74h5v1h-5z M163,74h3v1h-3z M173,74h81v1h-81z M6,75h4v1h-4z M17,75h5v1h-5z M29,75h6v1h-6z M39,75h98v1h-98z M140,75h5v1h-5z M151,75h4v1h-4z M162,75h3v1h-3z M172,75h81v1h-81z M261,74h7v2h-7z M1,73h3v4h-3z M5,76h4v1h-4z M17,76h4v1h-4z M29,76h5v1h-5z M40,76h4v1h-4z M50,76h39v1h-39z M92,76h7v1h-7z M102,76h31v1h-31z M139,76h5v1h-5z M151,76h3v1h-3z M161,76h3v1h-3z M171,76h5v1h-5z M178,76h75v1h-75z M260,76h3v1h-3z M264,76h4v1h-4z M1,77h7v1h-7z M17,77h3v1h-3z M28,77h4v1h-4z M39,77h4v1h-4z M50,77h4v1h-4z M59,77h19v1h-19z M81,77h5v1h-5z M93,77h4v1h-4z M104,77h5v1h-5z M114,77h6v1h-6z M127,77h5v1h-5z M139,77h4v1h-4z M150,77h3v1h-3z M160,77h3v1h-3z M171,77h4v1h-4z M180,77h74v1h-74z M258,77h10v1h-10z M1,78h6v1h-6z M16,78h3v1h-3z M27,78h4v1h-4z M38,78h4v1h-4z M49,78h4v1h-4z M70,78h6v1h-6z M81,78h4v1h-4z M92,78h4v1h-4z M104,78h4v1h-4z M115,78h4v1h-4z M127,78h4v1h-4z M138,78h4v1h-4z M149,78h3v1h-3z M159,78h4v1h-4z M170,78h4v1h-4z M179,78h89v1h-89z M15,79h3v1h-3z M26,79h4v1h-4z M37,79h4v1h-4z M48,79h4v1h-4z M59,78h5v2h-5z M80,79h4v1h-4z M91,79h4v1h-4z M103,79h4v1h-4z M114,79h4v1h-4z M125,79h5v1h-5z M137,79h4v1h-4z M148,79h3v1h-3z M158,79h3v1h-3z M169,79h99v1h-99z M1,79h5v2h-5z M14,80h4v1h-4z M25,80h4v1h-4z M36,80h4v1h-4z M47,80h4v1h-4z M58,80h4v1h-4z M69,79h5v2h-5z M79,80h4v1h-4z M90,80h4v1h-4z M102,80h4v1h-4z M114,80h3v1h-3z M125,80h4v1h-4z M136,80h5v1h-5z M147,80h4v1h-4z M157,80h4v1h-4z M167,80h101v1h-101z M1,81h4v1h-4z M13,81h4v1h-4z M24,81h4v1h-4z M46,81h3v1h-3z M57,81h4v1h-4z M68,81h5v1h-5z M90,81h3v1h-3z M101,81h4v1h-4z M113,81h3v1h-3z M124,81h4v1h-4z M135,81h5v1h-5z M146,81h4v1h-4z M156,81h5v1h-5z M163,81h105v1h-105z M12,82h4v1h-4z M23,82h5v1h-5z M35,81h4v2h-4z M45,82h4v1h-4z M56,82h4v1h-4z M67,82h4v1h-4z M78,81h4v2h-4z M88,82h5v1h-5z M100,82h4v1h-4z M111,82h4v1h-4z M122,82h5v1h-5z M134,82h5v1h-5z M145,82h4v1h-4z M155,82h113v1h-113z M1,82h3v2h-3z M11,83h5v1h-5z M22,83h5v1h-5z M33,83h6v1h-6z M44,83h5v1h-5z M55,83h5v1h-5z M66,83h5v1h-5z M77,83h4v1h-4z M88,83h3v1h-3z M110,83h5v1h-5z M121,83h6v1h-6z M133,83h5v1h-5z M144,83h7v1h-7z M152,83h116v1h-116z M1,84h50v1h-50z M52,84h7v1h-7z M65,84h5v1h-5z M76,84h4v1h-4z M87,84h4v1h-4z M99,83h4v2h-4z M109,84h30v1h-30z M142,84h126v1h-126z M1,85h58v1h-58z M64,85h6v1h-6z M75,85h4v1h-4z M84,85h8v1h-8z M94,85h1v1h-1z M96,85h172v1h-172z M1,86h69v1h-69z M73,86h195v1h-195z M1,87h267v4h-267z M1,91h107v1h-107z M113,91h155v1h-155z M114,92h154v1h-154z M1,92h105v2h-105z M113,93h4v1h-4z M121,93h147v1h-147z M1,94h108v1h-108z M110,94h6v1h-6z M122,94h146v1h-146z M122,95h5v1h-5z M129,95h139v1h-139z M1,95h114v2h-114z M121,96h5v1h-5z M130,96h52v1h-52z M184,96h44v1h-44z M229,96h7v1h-7z M238,96h30v1h-30z M1,97h92v1h-92z M94,97h8v1h-8z M107,97h6v1h-6z M120,97h5v1h-5z M129,97h52v1h-52z M185,97h4v1h-4z M195,97h6v1h-6z M207,97h6v1h-6z M218,97h5v1h-5z M230,97h3v1h-3z M240,97h5v1h-5z M249,97h20v1h-20z M1,98h77v1h-77z M96,98h4v1h-4z M108,98h4v1h-4z M119,98h5v1h-5z M129,98h53v1h-53z M184,98h4v1h-4z M195,98h4v1h-4z M207,98h4v1h-4z M218,98h4v1h-4z M229,98h3v1h-3z M240,98h4v1h-4z M250,98h4v1h-4z M259,98h9v1h-9z M1,99h65v1h-65z M72,99h4v1h-4z M84,98h5v2h-5z M107,99h4v1h-4z M118,99h5v1h-5z M129,99h58v1h-58z M194,99h5v1h-5z M207,99h3v1h-3z M217,99h4v1h-4z M228,99h3v1h-3z M239,99h4v1h-4z M250,99h3v1h-3z M260,99h8v1h-8z M1,100h54v1h-54z M60,100h5v1h-5z M71,100h4v1h-4z M83,100h4v1h-4z M95,99h4v2h-4z M106,100h4v1h-4z M117,100h5v1h-5z M128,100h5v1h-5z M137,100h6v1h-6z M146,100h21v1h-21z M170,100h5v1h-5z M182,100h4v1h-4z M193,100h5v1h-5z M206,100h3v1h-3z M216,100h4v1h-4z M227,100h3v1h-3z M238,100h4v1h-4z M249,100h4v1h-4z M259,100h9v1h-9z M1,101h34v1h-34z M36,101h7v1h-7z M49,101h5v1h-5z M60,101h4v1h-4z M71,101h3v1h-3z M83,101h3v1h-3z M93,101h5v1h-5z M105,101h4v1h-4z M117,101h4v1h-4z M127,101h4v1h-4z M147,101h5v1h-5z M169,101h5v1h-5z M181,101h5v1h-5z M193,101h4v1h-4z M205,101h3v1h-3z M216,101h3v1h-3z M227,101h2v1h-2z M237,101h4v1h-4z M248,101h4v1h-4z M259,101h3v1h-3z M1,102h8v1h-8z M12,102h8v1h-8z M25,102h5v1h-5z M37,102h5v1h-5z M48,102h5v1h-5z M59,102h4v1h-4z M70,102h4v1h-4z M81,102h5v1h-5z M92,102h5v1h-5z M104,102h5v1h-5z M116,102h4v1h-4z M126,102h4v1h-4z M137,101h4v2h-4z M147,102h4v1h-4z M158,101h5v2h-5z M169,102h4v1h-4z M181,102h4v1h-4z M192,102h4v1h-4z M204,102h4v1h-4z M215,102h3v1h-3z M225,102h3v1h-3z M237,102h3v1h-3z M247,102h4v1h-4z M258,102h4v1h-4z M1,103h6v1h-6z M25,103h4v1h-4z M36,103h5v1h-5z M47,103h5v1h-5z M58,103h4v1h-4z M69,103h4v1h-4z M80,103h5v1h-5z M92,103h4v1h-4z M104,103h3v1h-3z M115,103h4v1h-4z M125,103h4v1h-4z M136,103h3v1h-3z M146,103h4v1h-4z M157,103h4v1h-4z M168,103h4v1h-4z M180,103h4v1h-4z M191,103h4v1h-4z M203,103h4v1h-4z M214,103h3v1h-3z M224,103h4v1h-4z M236,103h3v1h-3z M247,103h3v1h-3z M257,103h4v1h-4z M0,104h6v1h-6z M14,103h4v2h-4z M25,104h3v1h-3z M35,104h5v1h-5z M47,104h4v1h-4z M57,104h4v1h-4z M68,104h4v1h-4z M80,104h4v1h-4z M91,104h4v1h-4z M102,104h4v1h-4z M114,104h4v1h-4z M124,104h4v1h-4z M135,104h4v1h-4z M145,104h4v1h-4z M156,104h5v1h-5z M167,104h4v1h-4z M179,104h4v1h-4z M190,104h4v1h-4z M202,104h4v1h-4z M213,104h3v1h-3z M223,104h4v1h-4z M235,104h3v1h-3z M246,104h3v1h-3z M256,104h4v1h-4z M0,105h5v1h-5z M13,105h4v1h-4z M23,105h4v1h-4z M35,105h4v1h-4z M46,105h4v1h-4z M56,105h4v1h-4z M67,105h4v1h-4z M78,105h5v1h-5z M90,105h4v1h-4z M101,105h5v1h-5z M113,105h5v1h-5z M123,105h4v1h-4z M134,105h4v1h-4z M144,105h5v1h-5z M155,105h5v1h-5z M167,105h3v1h-3z M178,105h4v1h-4z M189,105h4v1h-4z M201,105h4v1h-4z M212,105h4v1h-4z M223,105h3v1h-3z M234,105h3v1h-3z M244,105h5v1h-5z M255,105h4v1h-4z M1,106h4v1h-4z M12,106h4v1h-4z M23,106h3v1h-3z M34,106h4v1h-4z M45,106h4v1h-4z M55,106h4v1h-4z M66,106h4v1h-4z M78,106h4v1h-4z M89,106h4v1h-4z M101,106h4v1h-4z M112,106h4v1h-4z M123,106h3v1h-3z M133,106h4v1h-4z M143,106h4v1h-4z M155,106h4v1h-4z M165,106h4v1h-4z M177,106h4v1h-4z M188,106h4v1h-4z M200,106h5v1h-5z M211,106h5v1h-5z M221,106h5v1h-5z M232,106h7v1h-7z M240,106h1v1h-1z M242,106h7v1h-7z M255,106h3v1h-3z M1,107h3v1h-3z M11,107h4v1h-4z M22,107h4v1h-4z M33,107h4v1h-4z M44,107h4v1h-4z M54,107h5v1h-5z M65,107h5v1h-5z M77,107h4v1h-4z M88,107h4v1h-4z M100,107h4v1h-4z M111,107h5v1h-5z M122,107h4v1h-4z M132,107h4v1h-4z M142,107h4v1h-4z M154,107h4v1h-4z M164,107h5v1h-5z M176,107h6v1h-6z M187,107h6v1h-6z M199,107h51v1h-51z M253,107h5v1h-5z M265,101h3v7h-3z M10,108h4v1h-4z M21,108h3v1h-3z M32,108h4v1h-4z M43,108h4v1h-4z M53,108h6v1h-6z M63,108h11v1h-11z M75,108h8v1h-8z M84,108h9v1h-9z M99,108h5v1h-5z M110,108h5v1h-5z M121,108h4v1h-4z M131,108h4v1h-4z M142,108h3v1h-3z M152,108h5v1h-5z M163,108h87v1h-87z M252,108h10v1h-10z M263,108h5v1h-5z M0,108h4v2h-4z M9,109h4v1h-4z M20,109h3v1h-3z M31,109h4v1h-4z M42,109h4v1h-4z M52,109h51v1h-51z M104,109h3v1h-3z M109,109h5v1h-5z M120,109h4v1h-4z M130,109h4v1h-4z M141,109h4v1h-4z M151,109h5v1h-5z M251,109h17v1h-17z M8,110h4v1h-4z M19,110h4v1h-4z M30,110h4v1h-4z M41,110h4v1h-4z M51,110h6v1h-6z M58,110h67v1h-67z M129,110h6v1h-6z M139,110h6v1h-6z M151,110h4v1h-4z M161,109h85v2h-85z M249,110h19v1h-19z M1,110h3v2h-3z M7,111h4v1h-4z M18,111h5v1h-5z M28,111h7v1h-7z M40,111h6v1h-6z M50,111h95v1h-95z M150,111h4v1h-4z M161,111h4v1h-4z M1,112h4v1h-4z M6,112h6v1h-6z M16,112h128v1h-128z M149,112h4v1h-4z M159,112h5v1h-5z M168,111h100v2h-100z M148,113h4v1h-4z M159,113h4v1h-4z M1,113h140v2h-140z M147,114h5v1h-5z M158,114h4v1h-4z M169,113h99v2h-99z M1,115h141v1h-141z M146,115h6v1h-6z M157,115h4v1h-4z M168,115h100v1h-100z M167,116h101v1h-101z M1,116h160v3h-160z M166,117h102v2h-102z M1,119h159v1h-159z M165,119h103v1h-103z M1,120h156v1h-156z M164,120h4v1h-4z M171,120h97v1h-97z M1,121h154v1h-154z M163,121h4v1h-4z M173,121h95v1h-95z M1,122h146v1h-146z M150,122h5v1h-5z M163,122h3v1h-3z M173,122h5v1h-5z M181,122h87v1h-87z M1,123h142v1h-142z M149,123h5v1h-5z M162,123h3v1h-3z M173,123h4v1h-4z M184,123h84v1h-84z M1,124h141v1h-141z M148,124h5v1h-5z M161,124h3v1h-3z M172,124h3v1h-3z M184,124h4v1h-4z M192,124h76v1h-76z M1,125h129v1h-129z M136,125h5v1h-5z M147,125h5v1h-5z M160,125h3v1h-3z M171,125h4v1h-4z M183,125h3v1h-3z M193,125h4v1h-4z M203,125h5v1h-5z M214,125h5v1h-5z M225,125h43v1h-43z M1,126h120v1h-120z M123,126h6v1h-6z M136,126h4v1h-4z M147,126h4v1h-4z M159,126h3v1h-3z M170,126h3v1h-3z M182,126h4v1h-4z M193,126h3v1h-3z M203,126h4v1h-4z M214,126h4v1h-4z M225,126h4v1h-4z M234,126h34v1h-34z M1,127h116v1h-116z M124,127h4v1h-4z M135,127h5v1h-5z M146,127h5v1h-5z M157,127h5v1h-5z M169,127h3v1h-3z M181,127h4v1h-4z M192,127h3v1h-3z M202,127h4v1h-4z M213,127h4v1h-4z M224,127h4v1h-4z M235,127h4v1h-4z M245,127h15v1h-15z M263,127h5v1h-5z M1,128h97v1h-97z M99,128h8v1h-8z M123,128h4v1h-4z M133,128h30v1h-30z M168,128h4v1h-4z M180,128h4v1h-4z M191,128h3v1h-3z M201,128h5v1h-5z M213,128h3v1h-3z M224,128h3v1h-3z M235,128h3v1h-3z M245,128h4v1h-4z M254,128h4v1h-4z M264,128h4v1h-4z M1,129h71v1h-71z M78,129h5v1h-5z M89,129h6v1h-6z M100,129h5v1h-5z M112,128h4v2h-4z M121,129h44v1h-44z M167,129h4v1h-4z M179,129h4v1h-4z M190,129h3v1h-3z M201,129h4v1h-4z M212,129h3v1h-3z M223,129h3v1h-3z M234,129h3v1h-3z M245,129h3v1h-3z M254,129h3v1h-3z M263,129h5v1h-5z M1,130h36v1h-36z M41,130h18v1h-18z M65,130h5v1h-5z M78,130h4v1h-4z M89,130h4v1h-4z M100,130h4v1h-4z M111,130h4v1h-4z M121,130h49v1h-49z M178,130h4v1h-4z M189,130h3v1h-3z M200,130h3v1h-3z M211,130h3v1h-3z M222,130h3v1h-3z M233,130h3v1h-3z M244,130h3v1h-3z M253,130h3v1h-3z M262,130h6v1h-6z M1,131h4v1h-4z M8,131h9v1h-9z M19,131h8v1h-8z M31,131h3v1h-3z M42,131h4v1h-4z M54,131h4v1h-4z M65,131h4v1h-4z M78,131h3v1h-3z M100,131h3v1h-3z M110,131h4v1h-4z M119,131h43v1h-43z M188,131h4v1h-4z M199,131h4v1h-4z M210,131h3v1h-3z M221,131h4v1h-4z M232,131h3v1h-3z M243,131h3v1h-3z M252,131h4v1h-4z M261,131h7v1h-7z M9,132h4v1h-4z M19,132h6v1h-6z M41,132h4v1h-4z M53,132h4v1h-4z M64,132h4v1h-4z M77,132h3v1h-3z M89,131h3v2h-3z M99,132h3v1h-3z M109,132h4v1h-4z M119,132h5v1h-5z M128,132h6v1h-6z M149,132h1v1h-1z M152,132h5v1h-5z M164,131h5v2h-5z M177,131h4v2h-4z M187,132h4v1h-4z M198,132h4v1h-4z M209,132h4v1h-4z M220,132h4v1h-4z M231,132h5v1h-5z M240,132h8v1h-8z M249,132h19v1h-19z M8,133h4v1h-4z M18,133h6v1h-6z M30,133h2v1h-2z M40,133h4v1h-4z M52,133h4v1h-4z M76,133h3v1h-3z M87,133h3v1h-3z M98,133h3v1h-3z M108,133h4v1h-4z M118,133h4v1h-4z M129,133h4v1h-4z M140,132h5v2h-5z M152,133h4v1h-4z M164,133h4v1h-4z M175,133h5v1h-5z M186,133h4v1h-4z M197,133h5v1h-5z M207,133h7v1h-7z M218,133h50v1h-50z M7,134h4v1h-4z M28,134h4v1h-4z M39,134h4v1h-4z M51,134h4v1h-4z M63,133h4v2h-4z M75,134h4v1h-4z M86,134h4v1h-4z M97,134h4v1h-4z M107,134h5v1h-5z M117,134h5v1h-5z M128,134h5v1h-5z M139,134h5v1h-5z M151,134h6v1h-6z M161,134h8v1h-8z M170,134h2v1h-2z M173,134h7v1h-7z M181,134h87v1h-87z M1,132h3v4h-3z M6,135h5v1h-5z M17,134h6v2h-6z M27,135h5v1h-5z M38,135h5v1h-5z M49,135h6v1h-6z M61,135h6v1h-6z M73,135h6v1h-6z M84,135h8v1h-8z M94,135h8v1h-8z M103,135h22v1h-22z M127,135h136v1h-136z M1,136h221v1h-221z M226,136h2v1h-2z M1,137h182v1h-182z M184,137h3v1h-3z M1,138h126v1h-126z M131,138h2v1h-2z M136,138h4v1h-4z M143,138h1v1h-1z M1,139h5v1h-5z M18,139h2v1h-2z M2,140h1v1h-1z
  "/>
</svg>