<?xml version="1.0" encoding="UTF-8"?>
<svg xmlns="http://www.w3.org/2000/svg" viewBox="0 0 267 139" width="267" height="139">
  <title>24 Calcareous shale or shaly limestone</title>
  <path fill="#111111" fill-rule="nonzero" d="
    M2,0h21v1h-21z M29,0h3v1h-3z M1,1h65v1h-65z M67,1h16v1h-16z M1,2h132v1h-132z M134,2h131v1h-131z M1,3h265v1h-265z M1,4h15v1h-15z M18,4h2v1h-2z M25,4h241v1h-241z M27,5h1v1h-1z M60,5h1v1h-1z M67,5h6v1h-6z M75,5h191v1h-191z M79,6h3v1h-3z M131,6h1v1h-1z M135,6h5v1h-5z M160,6h3v1h-3z M196,6h6v1h-6z M205,6h4v1h-4z M227,6h2v1h-2z M230,6h3v1h-3z M234,6h9v1h-9z M244,6h11v1h-11z M256,6h1v1h-1z M258,6h8v1h-8z M26,6h3v2h-3z M80,7h2v1h-2z M197,7h4v1h-4z M262,7h5v1h-5z M79,8h3v1h-3z M137,7h2v2h-2z M198,8h3v1h-3z M25,8h4v3h-4z M247,7h3v4h-3z M263,8h4v3h-4z M1,5h4v7h-4z M9,11h2v1h-2z M25,11h5v1h-5z M34,11h1v1h-1z M79,9h4v3h-4z M137,9h3v3h-3z M197,9h4v3h-4z M263,11h3v1h-3z M1,12h40v1h-40z M42,12h5v1h-5z M78,12h6v1h-6z M88,12h1v1h-1z M136,12h5v1h-5z M197,12h5v1h-5z M246,11h5v2h-5z M262,12h4v1h-4z M0,13h7v1h-7z M8,13h39v1h-39z M60,13h4v1h-4z M71,13h71v1h-71z M143,13h13v1h-13z M168,13h53v1h-53z M235,13h31v1h-31z M0,14h5v1h-5z M11,14h37v1h-37z M60,14h5v1h-5z M71,14h87v1h-87z M61,15h3v1h-3z M72,15h3v1h-3z M78,15h80v1h-80z M168,14h54v2h-54z M234,14h32v2h-32z M24,15h24v2h-24z M83,16h48v1h-48z M138,16h2v1h-2z M142,16h15v1h-15z M169,16h2v1h-2z M175,16h5v1h-5z M187,16h2v1h-2z M192,16h30v1h-30z M237,16h7v1h-7z M248,16h2v1h-2z M253,16h13v1h-13z M24,17h25v1h-25z M84,17h47v1h-47z M141,17h20v1h-20z M194,17h23v1h-23z M219,17h7v1h-7z M262,17h4v1h-4z M25,18h23v1h-23z M85,18h46v1h-46z M139,18h25v1h-25z M194,18h43v1h-43z M263,18h3v1h-3z M87,19h45v1h-45z M140,19h24v1h-24z M194,19h44v1h-44z M110,20h15v1h-15z M126,20h1v1h-1z M128,20h1v1h-1z M130,20h1v1h-1z M141,20h27v1h-27z M195,20h42v1h-42z M54,21h2v1h-2z M165,21h3v1h-3z M214,21h6v1h-6z M223,21h3v1h-3z M228,21h5v1h-5z M262,19h4v3h-4z M1,15h4v8h-4z M165,22h4v1h-4z M0,23h7v1h-7z M23,23h4v1h-4z M33,23h1v1h-1z M53,22h4v2h-4z M262,22h5v2h-5z M21,24h56v1h-56z M83,24h3v1h-3z M112,21h4v4h-4z M164,23h5v2h-5z M215,22h4v3h-4z M262,24h4v1h-4z M1,24h7v2h-7z M21,25h66v1h-66z M112,25h5v1h-5z M134,25h49v1h-49z M198,25h13v1h-13z M212,25h21v1h-21z M235,25h7v1h-7z M256,25h3v1h-3z M261,25h5v1h-5z M1,26h5v1h-5z M22,26h65v1h-65z M102,26h22v1h-22z M134,26h51v1h-51z M196,26h47v1h-47z M254,26h12v1h-12z M43,27h7v1h-7z M51,27h35v1h-35z M101,27h24v1h-24z M135,27h50v1h-50z M196,27h48v1h-48z M253,27h13v1h-13z M27,27h1v2h-1z M101,28h22v1h-22z M152,28h4v1h-4z M157,28h26v1h-26z M197,28h39v1h-39z M239,28h1v1h-1z M255,28h11v1h-11z M27,29h2v1h-2z M102,29h7v1h-7z M114,29h6v1h-6z M261,29h5v1h-5z M87,30h1v1h-1z M143,30h2v1h-2z M199,31h2v1h-2z M262,30h4v3h-4z M86,31h4v3h-4z M199,32h3v2h-3z M262,33h5v1h-5z M26,30h4v5h-4z M198,34h5v1h-5z M25,35h5v1h-5z M16,36h6v1h-6z M24,36h7v1h-7z M33,36h1v1h-1z M86,34h3v3h-3z M198,35h4v2h-4z M262,34h4v3h-4z M11,37h63v1h-63z M83,37h8v1h-8z M96,37h2v1h-2z M102,37h1v1h-1z M119,37h3v1h-3z M142,31h4v7h-4z M198,37h5v1h-5z M261,37h5v1h-5z M116,38h48v1h-48z M172,38h15v1h-15z M189,38h4v1h-4z M1,27h4v13h-4z M11,38h95v2h-95z M115,39h50v1h-50z M170,39h24v1h-24z M42,40h2v1h-2z M48,40h2v1h-2z M51,40h2v1h-2z M54,40h52v1h-52z M116,40h49v1h-49z M169,40h24v1h-24z M198,38h68v3h-68z M1,40h36v2h-36z M58,41h20v1h-20z M80,41h15v1h-15z M103,41h2v1h-2z M119,41h39v1h-39z M161,41h4v1h-4z M170,41h23v1h-23z M199,41h30v1h-30z M232,41h34v1h-34z M59,42h36v1h-36z M121,42h36v1h-36z M171,42h24v1h-24z M199,42h13v1h-13z M213,42h12v1h-12z M261,42h5v1h-5z M1,42h37v2h-37z M52,43h2v1h-2z M60,43h36v1h-36z M121,43h34v1h-34z M174,43h53v1h-53z M7,44h1v1h-1z M61,44h35v1h-35z M116,43h2v2h-2z M123,44h18v1h-18z M143,44h3v1h-3z M150,44h3v1h-3z M174,44h54v1h-54z M65,45h2v1h-2z M70,45h5v1h-5z M79,45h13v1h-13z M172,45h56v1h-56z M172,46h3v1h-3z M180,46h46v1h-46z M227,46h2v1h-2z M51,44h4v4h-4z M1,44h4v5h-4z M171,47h4v2h-4z M227,47h4v2h-4z M262,43h4v6h-4z M1,49h5v1h-5z M52,48h3v2h-3z M1,50h34v1h-34z M41,50h1v1h-1z M51,50h5v1h-5z M115,45h3v6h-3z M172,49h3v2h-3z M228,49h3v2h-3z M262,49h5v2h-5z M1,51h55v1h-55z M73,51h35v1h-35z M109,51h3v1h-3z M113,51h7v1h-7z M127,51h2v1h-2z M171,51h4v1h-4z M186,51h1v1h-1z M227,51h6v1h-6z M259,51h7v1h-7z M1,52h56v1h-56z M72,52h79v1h-79z M164,52h73v1h-73z M1,53h16v1h-16z M21,53h36v1h-36z M72,53h80v1h-80z M249,52h17v2h-17z M1,54h5v1h-5z M74,54h77v1h-77z M163,53h75v2h-75z M250,54h16v1h-16z M78,55h3v1h-3z M85,55h6v1h-6z M127,55h25v1h-25z M166,55h4v1h-4z M173,55h1v1h-1z M176,55h2v1h-2z M185,55h16v1h-16z M203,55h30v1h-30z M235,55h1v1h-1z M250,55h2v1h-2z M255,55h11v1h-11z M32,54h3v3h-3z M79,56h2v1h-2z M87,56h3v1h-3z M188,56h4v1h-4z M87,57h1v1h-1z M126,56h37v2h-37z M249,56h3v2h-3z M31,57h4v2h-4z M127,58h36v1h-36z M189,57h3v2h-3z M142,59h5v1h-5z M159,59h2v1h-2z M188,59h5v2h-5z M78,57h3v5h-3z M1,55h4v8h-4z M31,59h5v4h-5z M13,63h7v1h-7z M27,63h1v1h-1z M30,63h7v1h-7z M39,63h1v1h-1z M78,62h4v2h-4z M143,60h3v4h-3z M188,61h4v3h-4z M1,63h5v2h-5z M12,64h47v1h-47z M69,64h5v1h-5z M75,64h8v1h-8z M91,64h1v1h-1z M97,64h2v1h-2z M142,64h5v1h-5z M188,64h5v1h-5z M249,58h4v7h-4z M12,65h48v1h-48z M68,65h36v1h-36z M127,65h76v1h-76z M227,65h15v1h-15z M243,65h16v1h-16z M13,66h48v1h-48z M68,66h37v1h-37z M126,66h79v1h-79z M226,66h33v1h-33z M262,56h4v11h-4z M1,65h4v3h-4z M7,67h1v1h-1z M9,67h10v1h-10z M22,67h6v1h-6z M29,67h6v1h-6z M38,67h1v1h-1z M43,67h2v1h-2z M54,67h4v1h-4z M69,67h36v1h-36z M115,67h2v1h-2z M127,67h78v1h-78z M226,67h34v1h-34z M261,67h5v1h-5z M1,68h39v1h-39z M78,68h27v1h-27z M115,68h1v1h-1z M128,68h7v1h-7z M137,68h2v1h-2z M144,68h2v1h-2z M147,68h1v1h-1z M149,68h55v1h-55z M227,68h32v1h-32z M1,69h40v1h-40z M63,69h1v1h-1z M78,69h57v1h-57z M185,69h21v1h-21z M211,69h3v1h-3z M220,69h1v1h-1z M226,69h12v1h-12z M7,70h1v1h-1z M9,70h32v1h-32z M62,70h3v1h-3z M78,70h58v1h-58z M186,70h52v1h-52z M253,69h6v2h-6z M30,71h3v1h-3z M36,71h3v1h-3z M79,71h57v1h-57z M186,71h53v1h-53z M252,71h7v1h-7z M1,70h4v3h-4z M105,72h3v1h-3z M117,72h18v1h-18z M167,69h3v4h-3z M187,72h51v1h-51z M253,72h6v1h-6z M1,73h5v1h-5z M62,71h4v3h-4z M166,73h4v1h-4z M218,73h6v1h-6z M226,73h2v1h-2z M229,73h2v1h-2z M1,74h25v1h-25z M27,74h2v1h-2z M36,74h3v1h-3z M61,74h5v1h-5z M119,73h3v2h-3z M262,68h4v7h-4z M1,75h71v1h-71z M93,75h2v1h-2z M118,75h5v1h-5z M166,74h5v2h-5z M219,74h4v2h-4z M257,75h9v1h-9z M91,76h94v1h-94z M196,76h52v1h-52z M1,76h72v2h-72z M91,77h95v1h-95z M195,77h53v1h-53z M23,78h20v1h-20z M47,78h36v1h-36z M84,78h3v1h-3z M90,78h95v1h-95z M196,78h52v1h-52z M253,76h13v3h-13z M23,79h19v1h-19z M50,79h2v1h-2z M63,79h36v1h-36z M126,79h58v1h-58z M197,79h50v1h-50z M261,79h5v1h-5z M23,80h20v1h-20z M126,80h51v1h-51z M25,81h2v1h-2z M28,81h14v1h-14z M49,80h3v2h-3z M62,80h37v2h-37z M126,81h50v1h-50z M245,81h2v1h-2z M66,82h5v1h-5z M72,82h27v1h-27z M127,82h49v1h-49z M194,81h3v2h-3z M245,82h3v1h-3z M167,83h7v1h-7z M1,78h4v8h-4z M244,83h5v3h-5z M1,86h5v1h-5z M49,82h4v5h-4z M106,83h3v4h-3z M245,86h3v1h-3z M1,87h24v1h-24z M36,87h3v1h-3z M48,87h5v1h-5z M106,87h4v1h-4z M245,87h4v1h-4z M35,88h19v1h-19z M59,88h20v1h-20z M86,88h1v1h-1z M100,88h4v1h-4z M105,88h7v1h-7z M194,83h4v6h-4z M244,88h5v1h-5z M1,88h26v2h-26z M36,89h18v1h-18z M98,89h49v1h-49z M155,89h49v1h-49z M212,89h1v1h-1z M217,89h2v1h-2z M224,89h5v1h-5z M243,89h7v1h-7z M251,89h2v1h-2z M262,80h4v10h-4z M1,90h25v1h-25z M37,90h16v1h-16z M58,89h33v2h-33z M98,90h52v1h-52z M154,90h76v1h-76z M1,91h5v1h-5z M50,91h2v1h-2z M59,91h32v1h-32z M99,91h51v1h-51z M154,91h77v1h-77z M83,92h7v1h-7z M106,92h1v1h-1z M123,92h5v1h-5z M129,92h2v1h-2z M132,92h18v1h-18z M154,92h76v1h-76z M239,90h27v3h-27z M27,92h2v2h-2z M84,93h5v1h-5z M148,93h1v1h-1z M197,93h2v1h-2z M210,93h5v1h-5z M251,93h2v1h-2z M261,93h5v1h-5z M27,94h3v1h-3z M85,94h3v1h-3z M210,94h4v1h-4z M27,95h4v1h-4z M33,95h1v1h-1z M35,95h3v1h-3z M39,95h1v1h-1z M84,95h4v1h-4z M210,95h5v1h-5z M27,96h55v1h-55z M83,96h5v1h-5z M103,96h3v1h-3z M128,96h3v1h-3z M1,92h4v6h-4z M27,97h61v1h-61z M102,97h42v1h-42z M184,97h10v1h-10z M198,97h2v1h-2z M254,97h3v1h-3z M1,98h5v1h-5z M7,98h1v1h-1z M26,98h63v1h-63z M101,98h43v1h-43z M181,98h21v1h-21z M210,96h4v3h-4z M239,98h21v1h-21z M262,94h4v5h-4z M63,99h26v1h-26z M101,99h42v1h-42z M154,93h4v7h-4z M180,99h22v1h-22z M207,99h7v1h-7z M238,99h28v1h-28z M1,99h46v2h-46z M64,100h77v1h-77z M148,100h15v1h-15z M165,100h12v1h-12z M179,100h23v1h-23z M207,100h10v1h-10z M229,100h6v1h-6z M236,100h30v1h-30z M1,101h45v1h-45z M64,101h75v1h-75z M147,101h43v1h-43z M193,101h73v1h-73z M1,102h24v1h-24z M27,102h19v1h-19z M65,102h74v1h-74z M147,102h42v1h-42z M57,103h3v1h-3z M66,103h49v1h-49z M116,103h23v1h-23z M149,103h39v1h-39z M195,102h71v2h-71z M123,104h1v1h-1z M163,104h2v1h-2z M195,104h10v1h-10z M215,104h2v1h-2z M241,104h4v1h-4z M261,104h5v1h-5z M192,105h3v1h-3z M242,105h3v1h-3z M191,106h4v2h-4z M57,104h4v6h-4z M192,108h3v2h-3z M26,110h13v1h-13z M44,110h2v1h-2z M56,110h5v1h-5z M117,104h4v7h-4z M191,110h5v1h-5z M242,106h4v5h-4z M24,111h67v1h-67z M102,111h6v1h-6z M113,111h9v1h-9z M124,111h4v1h-4z M129,111h9v1h-9z M173,111h1v1h-1z M189,111h9v1h-9z M205,111h2v1h-2z M242,111h5v1h-5z M262,105h4v7h-4z M1,103h4v10h-4z M166,112h55v1h-55z M1,113h11v1h-11z M15,113h2v1h-2z M24,112h69v2h-69z M101,112h39v2h-39z M147,111h3v3h-3z M166,113h56v1h-56z M1,114h59v1h-59z M63,114h31v1h-31z M100,114h40v1h-40z M147,114h4v1h-4z M165,114h57v1h-57z M234,112h25v3h-25z M1,115h58v1h-58z M145,115h14v1h-14z M160,115h44v1h-44z M208,115h15v1h-15z M225,115h6v1h-6z M233,115h16v1h-16z M251,115h7v1h-7z M261,112h5v4h-5z M1,116h59v1h-59z M79,115h53v2h-53z M141,116h61v1h-61z M212,116h36v1h-36z M17,117h2v1h-2z M20,117h5v1h-5z M27,117h32v1h-32z M80,117h52v1h-52z M140,117h62v1h-62z M213,117h36v1h-36z M56,118h1v1h-1z M82,118h8v1h-8z M96,118h23v1h-23z M120,118h11v1h-11z M140,118h61v1h-61z M213,118h35v1h-35z M1,117h5v3h-5z M142,119h4v1h-4z M187,119h2v1h-2z M214,119h5v1h-5z M1,120h23v1h-23z M84,119h5v2h-5z M1,121h57v1h-57z M71,121h8v1h-8z M84,121h4v1h-4z M215,120h4v2h-4z M262,116h4v6h-4z M1,122h59v1h-59z M70,122h10v1h-10z M93,122h48v1h-48z M142,122h11v1h-11z M161,122h10v1h-10z M174,122h38v1h-38z M213,122h7v1h-7z M224,122h6v1h-6z M248,122h18v1h-18z M1,123h60v1h-60z M69,123h12v1h-12z M85,122h3v2h-3z M92,123h61v1h-61z M243,123h23v1h-23z M1,124h5v1h-5z M12,124h5v1h-5z M32,124h3v1h-3z M36,124h26v1h-26z M69,124h14v1h-14z M86,124h1v1h-1z M93,124h61v1h-61z M160,123h73v2h-73z M242,124h24v1h-24z M43,125h46v1h-46z M93,125h60v1h-60z M162,125h9v1h-9z M172,125h63v1h-63z M237,125h29v1h-29z M43,126h47v1h-47z M94,126h54v1h-54z M200,126h5v1h-5z M216,126h50v1h-50z M13,125h3v3h-3z M44,127h46v1h-46z M94,127h53v1h-53z M163,126h3v2h-3z M200,127h4v1h-4z M216,127h33v1h-33z M60,128h19v1h-19z M80,128h9v1h-9z M95,128h52v1h-52z M163,128h4v1h-4z M200,128h5v1h-5z M217,128h32v1h-32z M254,127h12v2h-12z M13,128h4v2h-4z M61,129h4v1h-4z M110,129h5v1h-5z M142,129h3v1h-3z M200,129h4v1h-4z M224,129h1v1h-1z M228,129h1v1h-1z M232,129h14v1h-14z M253,129h13v1h-13z M1,125h4v6h-4z M110,130h4v1h-4z M261,130h5v1h-5z M1,131h5v1h-5z M12,130h5v2h-5z M61,130h3v2h-3z M111,131h3v1h-3z M262,131h4v1h-4z M1,132h28v1h-28z M32,132h8v1h-8z M60,132h5v1h-5z M111,132h4v1h-4z M163,129h3v4h-3z M200,130h5v3h-5z M252,130h4v3h-4z M261,132h5v1h-5z M1,133h82v1h-82z M87,133h4v1h-4z M95,133h1v1h-1z M110,133h5v1h-5z M163,133h4v1h-4z M200,133h6v1h-6z M224,133h1v1h-1z M251,133h6v1h-6z M260,133h6v1h-6z M1,134h265v1h-265z M3,135h262v1h-262z M15,136h1v1h-1z M24,136h5v1h-5z M30,136h235v1h-235z M62,137h1v1h-1z M67,137h196v1h-196z M95,138h3v1h-3z M152,138h2v1h-2z M157,138h6v1h-6z M166,138h2v1h-2z M170,138h7v1h-7z M179,138h5v1h-5z M187,138h13v1h-13z M205,138h2v1h-2z M223,138h2v1h-2z M254,138h2v1h-2z
  "/>
</svg>