<?xml version="1.0" encoding="UTF-8"?>
<svg xmlns="http://www.w3.org/2000/svg" viewBox="0 0 269 138" width="269" height="138">
  <title>52 Basaltic flows</title>
  <path fill="#111111" fill-rule="nonzero" d="
    M3,1h189v1h-189z M193,1h3v1h-3z M2,2h264v1h-264z M1,3h266v1h-266z M1,4h9v1h-9z M22,4h42v1h-42z M69,4h4v1h-4z M75,4h9v1h-9z M86,4h5v1h-5z M94,4h5v1h-5z M100,4h63v1h-63z M165,4h102v1h-102z M23,5h3v1h-3z M75,5h4v1h-4z M106,5h41v1h-41z M181,5h4v1h-4z M188,5h5v1h-5z M195,5h4v1h-4z M203,5h5v1h-5z M210,5h6v1h-6z M222,5h5v1h-5z M228,5h5v1h-5z M234,5h9v1h-9z M245,5h22v1h-22z M1,5h4v2h-4z M7,5h2v2h-2z M18,4h3v3h-3z M28,5h3v2h-3z M52,5h12v2h-12z M87,5h3v2h-3z M95,5h4v2h-4z M149,5h3v2h-3z M175,5h2v2h-2z M196,6h3v1h-3z M220,6h1v1h-1z M223,6h4v1h-4z M245,6h12v1h-12z M56,7h4v1h-4z M96,7h3v1h-3z M129,6h18v2h-18z M157,5h4v3h-4z M165,7h2v1h-2z M169,5h3v3h-3z M204,6h3v2h-3z M210,6h4v2h-4z M215,7h2v1h-2z M218,7h4v1h-4z M229,6h3v2h-3z M245,7h7v1h-7z M253,7h3v1h-3z M18,7h2v2h-2z M23,6h2v3h-2z M27,7h4v2h-4z M65,4h3v5h-3z M70,5h3v4h-3z M96,8h2v1h-2z M148,7h3v2h-3z M168,8h4v1h-4z M66,9h2v1h-2z M189,6h3v4h-3z M210,8h3v2h-3z M214,8h8v2h-8z M66,10h1v1h-1z M81,5h3v6h-3z M96,9h3v2h-3z M169,9h3v2h-3z M204,8h2v3h-2z M6,7h3v5h-3z M27,9h3v3h-3z M32,5h17v7h-17z M82,11h2v1h-2z M106,6h22v6h-22z M203,11h3v1h-3z M7,12h2v1h-2z M22,9h4v4h-4z M71,9h1v4h-1z M81,12h3v1h-3z M88,7h2v6h-2z M106,12h4v1h-4z M111,12h17v1h-17z M149,9h2v4h-2z M245,8h11v5h-11z M264,6h4v7h-4z M1,7h3v7h-3z M22,13h3v1h-3z M164,8h3v6h-3z M169,11h2v3h-2z M196,7h2v7h-2z M258,6h3v8h-3z M1,14h4v1h-4z M22,14h4v1h-4z M82,13h2v2h-2z M96,11h2v4h-2z M130,8h17v7h-17z M195,14h3v1h-3z M229,8h2v7h-2z M265,13h3v2h-3z M22,15h3v1h-3z M61,7h3v9h-3z M70,13h2v3h-2z M131,15h16v1h-16z M204,12h2v4h-2z M235,6h3v10h-3z M246,13h10v3h-10z M69,16h4v1h-4z M131,16h15v1h-15z M218,10h4v7h-4z M240,6h3v11h-3z M27,12h22v6h-22z M56,8h3v10h-3z M61,16h6v2h-6z M131,17h16v1h-16z M169,14h3v4h-3z M181,6h3v12h-3z M203,16h3v2h-3z M219,17h3v1h-3z M223,7h3v11h-3z M240,17h2v1h-2z M246,16h11v2h-11z M46,18h4v1h-4z M106,13h22v6h-22z M181,18h4v1h-4z M235,16h2v3h-2z M264,15h4v4h-4z M6,13h3v7h-3z M27,18h11v2h-11z M56,18h4v2h-4z M219,18h7v2h-7z M229,15h3v5h-3z M245,18h12v2h-12z M35,20h3v1h-3z M61,18h7v3h-7z M96,15h3v6h-3z M106,19h7v2h-7z M115,19h13v2h-13z M229,20h2v1h-2z M240,18h3v3h-3z M245,20h3v1h-3z M249,20h7v1h-7z M70,17h2v5h-2z M115,21h12v1h-12z M203,18h2v4h-2z M240,21h2v1h-2z M259,14h2v8h-2z M7,20h2v3h-2z M36,21h2v2h-2z M39,18h6v5h-6z M115,22h13v1h-13z M164,14h2v9h-2z M189,10h2v13h-2z M196,15h2v8h-2z M218,20h8v3h-8z M230,21h1v2h-1z M246,21h2v2h-2z M249,21h3v2h-3z M253,21h3v2h-3z M7,23h1v1h-1z M12,4h3v20h-3z M76,6h2v18h-2z M115,23h12v1h-12z M131,18h15v6h-15z M218,23h7v1h-7z M246,23h6v1h-6z M264,19h3v5h-3z M27,20h7v5h-7z M35,23h3v2h-3z M61,21h6v4h-6z M115,24h13v1h-13z M169,18h2v7h-2z M182,19h3v6h-3z M189,23h1v2h-1z M245,24h7v1h-7z M259,22h3v3h-3z M12,24h4v2h-4z M23,16h2v10h-2z M27,25h11v1h-11z M40,23h5v3h-5z M47,19h3v7h-3z M56,20h3v6h-3z M96,21h2v5h-2z M130,24h16v2h-16z M182,25h2v1h-2z M189,25h2v1h-2z M210,10h7v16h-7z M218,24h4v2h-4z M229,25h2v1h-2z M240,22h3v4h-3z M246,25h2v1h-2z M249,25h3v1h-3z M254,23h2v3h-2z M17,9h3v18h-3z M27,26h7v1h-7z M35,26h3v1h-3z M47,26h2v1h-2z M52,7h3v20h-3z M76,24h3v3h-3z M114,25h14v2h-14z M210,26h3v1h-3z M259,25h2v2h-2z M13,26h2v2h-2z M23,26h3v2h-3z M27,27h11v1h-11z M41,26h5v2h-5z M47,27h3v1h-3z M53,27h2v1h-2z M61,25h3v3h-3z M65,25h2v3h-2z M76,27h2v1h-2z M87,13h3v15h-3z M107,21h6v7h-6z M114,27h13v1h-13z M203,22h3v6h-3z M210,27h2v1h-2z M214,26h8v2h-8z M223,24h2v4h-2z M230,26h1v2h-1z M264,24h4v4h-4z M12,28h4v1h-4z M18,27h2v2h-2z M23,28h16v1h-16z M41,28h14v1h-14z M57,26h2v3h-2z M62,28h4v1h-4z M69,22h3v7h-3z M81,15h3v14h-3z M87,28h2v1h-2z M96,26h3v3h-3z M101,5h3v24h-3z M106,28h21v1h-21z M130,26h17v3h-17z M149,13h3v16h-3z M157,8h3v21h-3z M163,23h3v6h-3z M168,25h3v4h-3z M174,7h3v22h-3z M188,26h3v3h-3z M214,28h12v1h-12z M229,28h3v1h-3z M235,19h3v10h-3z M241,26h2v3h-2z M246,26h6v3h-6z M254,26h3v3h-3z M258,27h3v2h-3z M265,28h3v1h-3z M1,15h3v15h-3z M5,29h3v1h-3z M80,29h4v1h-4z M87,29h3v1h-3z M95,29h4v1h-4z M101,29h4v1h-4z M106,29h22v1h-22z M130,29h42v1h-42z M173,29h4v1h-4z M182,26h3v4h-3z M195,23h3v7h-3z M213,29h20v1h-20z M235,29h4v1h-4z M240,29h21v1h-21z M12,29h50v2h-50z M63,29h9v2h-9z M81,30h2v1h-2z M87,30h4v1h-4z M93,30h85v1h-85z M181,30h4v1h-4z M189,29h2v2h-2z M210,30h52v1h-52z M264,29h4v2h-4z M1,30h8v2h-8z M12,31h60v1h-60z M76,28h3v4h-3z M86,31h92v1h-92z M180,31h4v1h-4z M190,31h1v1h-1z M195,30h4v2h-4z M207,31h61v1h-61z M1,32h9v1h-9z M13,32h59v1h-59z M85,32h93v1h-93z M179,32h5v1h-5z M190,32h2v1h-2z M194,32h6v1h-6z M201,32h2v1h-2z M207,32h7v1h-7z M216,32h51v1h-51z M1,33h10v1h-10z M13,33h4v1h-4z M19,33h28v1h-28z M85,33h50v1h-50z M138,33h46v1h-46z M206,33h7v1h-7z M218,33h43v1h-43z M1,34h16v1h-16z M24,34h4v1h-4z M35,34h12v1h-12z M49,33h23v2h-23z M77,32h2v3h-2z M81,34h1v1h-1z M84,34h5v1h-5z M90,34h18v1h-18z M110,34h4v1h-4z M115,34h11v1h-11z M127,34h8v1h-8z M141,34h42v1h-42z M206,34h3v1h-3z M246,34h9v1h-9z M256,34h4v1h-4z M264,33h3v2h-3z M29,34h4v2h-4z M49,35h24v1h-24z M76,35h3v1h-3z M81,35h7v1h-7z M91,35h16v1h-16z M124,35h1v1h-1z M128,35h7v1h-7z M142,35h3v1h-3z M185,35h2v1h-2z M189,33h15v3h-15z M256,35h5v1h-5z M264,35h4v1h-4z M19,34h3v3h-3z M36,35h11v2h-11z M49,36h17v1h-17z M67,36h6v1h-6z M76,36h12v1h-12z M123,36h2v1h-2z M190,36h14v1h-14z M218,34h24v3h-24z M247,35h7v2h-7z M264,36h3v1h-3z M18,37h4v1h-4z M49,37h4v1h-4z M54,37h19v1h-19z M91,36h12v2h-12z M104,36h3v2h-3z M128,36h3v2h-3z M132,36h3v2h-3z M141,36h3v2h-3z M146,35h36v3h-36z M189,37h15v1h-15z M205,35h4v3h-4z M247,37h8v1h-8z M257,36h4v2h-4z M1,35h3v4h-3z M19,38h3v1h-3z M24,35h3v4h-3z M110,35h3v4h-3z M142,38h2v1h-2z M185,36h3v3h-3z M189,38h20v1h-20z M252,38h4v1h-4z M1,39h4v1h-4z M6,35h11v5h-11z M24,39h4v1h-4z M110,39h4v1h-4z M123,37h3v3h-3z M141,39h3v1h-3z M185,39h19v1h-19z M218,37h23v3h-23z M258,38h3v2h-3z M1,40h16v1h-16z M76,37h11v4h-11z M91,38h16v3h-16z M124,40h2v1h-2z M189,40h15v1h-15z M205,39h4v2h-4z M222,40h19v1h-19z M252,39h3v2h-3z M1,41h4v1h-4z M50,38h3v4h-3z M92,41h15v1h-15z M110,40h3v2h-3z M142,40h2v2h-2z M147,38h35v4h-35z M185,40h3v2h-3z M189,41h20v1h-20z M218,40h3v2h-3z M222,41h20v1h-20z M30,36h3v7h-3z M54,38h20v5h-20z M77,41h2v2h-2z M80,41h7v2h-7z M91,42h16v1h-16z M110,42h4v1h-4z M116,35h3v8h-3z M123,41h3v2h-3z M128,38h7v5h-7z M210,34h3v9h-3z M6,41h11v3h-11z M18,39h4v5h-4z M24,40h3v4h-3z M30,43h2v1h-2z M76,43h11v1h-11z M91,43h29v1h-29z M122,43h4v1h-4z M127,43h7v1h-7z M141,42h3v2h-3z M147,42h36v2h-36z M185,42h24v2h-24z M210,43h4v1h-4z M223,42h19v2h-19z M259,40h2v4h-2z M6,44h22v1h-22z M29,44h4v1h-4z M35,37h12v8h-12z M49,42h4v3h-4z M55,43h19v2h-19z M76,44h12v1h-12z M91,44h41v1h-41z M147,44h67v1h-67z M217,42h4v3h-4z M226,44h16v1h-16z M247,38h3v7h-3z M253,41h3v4h-3z M259,44h3v1h-3z M6,45h47v1h-47z M55,45h76v1h-76z M147,45h74v1h-74z M227,45h16v1h-16z M247,45h4v1h-4z M252,45h5v1h-5z M258,45h4v1h-4z M7,46h124v1h-124z M134,46h2v1h-2z M148,46h74v1h-74z M231,46h31v1h-31z M7,47h72v1h-72z M80,47h2v1h-2z M83,47h1v1h-1z M85,47h44v1h-44z M152,47h7v1h-7z M160,47h59v1h-59z M231,47h32v1h-32z M9,48h12v1h-12z M22,48h57v1h-57z M84,48h6v1h-6z M91,48h4v1h-4z M96,48h5v1h-5z M103,48h26v1h-26z M139,47h2v2h-2z M169,48h13v1h-13z M186,48h31v1h-31z M232,48h9v1h-9z M242,48h1v1h-1z M244,48h19v1h-19z M10,49h4v1h-4z M28,49h28v1h-28z M57,49h4v1h-4z M63,49h4v1h-4z M81,49h7v1h-7z M89,49h1v1h-1z M93,49h2v1h-2z M96,49h34v1h-34z M134,47h3v3h-3z M145,49h1v1h-1z M152,48h6v2h-6z M165,48h1v2h-1z M169,49h5v1h-5z M192,49h19v1h-19z M233,49h3v1h-3z M237,49h3v1h-3z M245,49h18v1h-18z M10,50h3v1h-3z M19,50h1v1h-1z M29,50h20v1h-20z M71,49h8v2h-8z M80,50h7v1h-7z M88,50h42v1h-42z M134,50h2v1h-2z M169,50h4v1h-4z M244,50h19v1h-19z M23,49h4v3h-4z M53,51h1v1h-1z M151,50h4v2h-4z M227,50h2v2h-2z M233,50h2v2h-2z M238,50h2v2h-2z M7,51h6v2h-6z M134,51h1v2h-1z M151,52h3v1h-3z M164,50h3v3h-3z M208,50h3v3h-3z M221,47h2v6h-2z M227,52h3v1h-3z M6,53h7v1h-7z M71,51h3v3h-3z M75,51h55v3h-55z M144,50h3v4h-3z M164,53h2v1h-2z M170,51h3v3h-3z M187,49h3v5h-3z M192,50h14v4h-14z M207,53h4v1h-4z M238,52h3v2h-3z M1,42h3v13h-3z M7,54h6v1h-6z M24,52h3v3h-3z M71,54h2v1h-2z M133,53h2v2h-2z M145,54h2v1h-2z M152,53h2v2h-2z M170,54h4v1h-4z M175,49h7v6h-7z M192,54h19v1h-19z M237,54h4v1h-4z M242,51h20v4h-20z M1,55h4v1h-4z M6,55h3v1h-3z M10,55h3v1h-3z M75,54h8v2h-8z M84,54h46v2h-46z M151,55h3v1h-3z M170,55h12v1h-12z M220,53h4v3h-4z M237,55h25v1h-25z M23,55h4v2h-4z M58,50h3v7h-3z M133,55h3v2h-3z M170,56h4v1h-4z M175,56h7v1h-7z M192,55h14v2h-14z M207,55h4v2h-4z M213,49h3v8h-3z M233,52h3v5h-3z M237,56h4v1h-4z M64,50h3v8h-3z M70,55h3v3h-3z M187,54h2v4h-2z M221,56h3v2h-3z M71,58h2v1h-2z M214,57h2v2h-2z M233,57h2v2h-2z M64,58h4v2h-4z M192,57h19v3h-19z M238,57h2v3h-2z M59,57h2v4h-2z M75,56h55v5h-55z M133,57h2v4h-2z M187,58h3v3h-3z M192,60h18v1h-18z M1,56h8v6h-8z M59,61h3v1h-3z M146,60h1v2h-1z M213,59h3v3h-3z M221,58h2v4h-2z M227,53h2v9h-2z M65,60h3v3h-3z M75,61h56v2h-56z M152,56h2v7h-2z M156,50h3v13h-3z M214,62h2v1h-2z M75,63h47v1h-47z M124,63h2v1h-2z M127,63h4v1h-4z M145,62h2v2h-2z M164,54h3v10h-3z M264,37h4v27h-4z M1,62h3v3h-3z M29,51h19v14h-19z M59,62h2v3h-2z M75,64h43v1h-43z M128,64h2v1h-2z M145,64h1v1h-1z M156,63h4v2h-4z M164,64h2v1h-2z M18,51h3v15h-3z M52,52h3v14h-3z M58,65h3v1h-3z M65,63h2v3h-2z M70,59h3v7h-3z M75,65h42v1h-42z M132,61h3v5h-3z M145,65h2v1h-2z M156,65h3v1h-3z M164,65h3v1h-3z M170,57h3v9h-3z M175,57h6v9h-6z M186,61h4v5h-4z M191,61h20v5h-20z M237,60h3v6h-3z M242,56h20v10h-20z M6,62h3v5h-3z M11,56h2v11h-2z M19,66h3v1h-3z M24,57h3v10h-3z M29,65h20v2h-20z M52,66h4v1h-4z M58,66h4v1h-4z M64,66h3v1h-3z M70,66h4v1h-4z M75,66h61v1h-61z M138,49h3v18h-3z M144,66h3v1h-3z M151,63h3v4h-3z M156,66h4v1h-4z M163,66h5v1h-5z M169,66h12v1h-12z M187,66h24v1h-24z M213,63h3v4h-3z M221,62h3v5h-3z M226,62h3v5h-3z M232,59h3v8h-3z M237,66h25v1h-25z M265,64h3v3h-3z M1,65h4v3h-4z M6,67h8v1h-8z M18,67h4v1h-4z M24,67h124v1h-124z M149,67h33v1h-33z M187,67h30v1h-30z M221,67h4v1h-4z M226,67h4v1h-4z M232,67h30v1h-30z M187,68h76v1h-76z M264,67h4v2h-4z M1,68h181v2h-181z M187,69h81v1h-81z M1,70h113v1h-113z M120,70h56v1h-56z M178,70h5v1h-5z M189,70h79v1h-79z M1,71h38v1h-38z M43,71h4v1h-4z M49,71h4v1h-4z M55,71h20v1h-20z M81,71h5v1h-5z M89,71h5v1h-5z M100,71h4v1h-4z M128,71h4v1h-4z M136,71h21v1h-21z M171,71h5v1h-5z M179,71h3v1h-3z M191,71h9v1h-9z M209,71h24v1h-24z M244,71h5v1h-5z M253,71h15v1h-15z M1,72h21v1h-21z M24,72h4v1h-4z M33,72h3v1h-3z M77,72h1v1h-1z M95,71h4v2h-4z M100,72h3v1h-3z M106,71h8v2h-8z M139,72h4v1h-4z M145,72h9v1h-9z M162,71h6v2h-6z M179,72h4v1h-4z M215,72h17v1h-17z M237,72h1v1h-1z M254,72h9v1h-9z M24,73h3v1h-3z M36,73h2v1h-2z M106,73h9v1h-9z M116,73h1v1h-1z M128,72h5v2h-5z M156,73h1v1h-1z M162,73h7v1h-7z M171,72h6v2h-6z M179,73h3v1h-3z M186,73h1v1h-1z M192,72h2v2h-2z M202,71h2v3h-2z M209,72h2v2h-2z M230,73h2v1h-2z M245,72h2v2h-2z M264,72h3v2h-3z M31,74h2v1h-2z M81,72h4v3h-4z M95,73h8v2h-8z M105,74h13v1h-13z M135,73h2v2h-2z M186,74h2v1h-2z M196,72h3v3h-3z M231,74h1v1h-1z M6,73h16v3h-16z M44,72h3v4h-3z M90,72h3v4h-3z M150,73h3v3h-3z M196,75h2v1h-2z M215,73h14v3h-14z M230,75h2v1h-2z M1,73h4v4h-4z M30,75h3v2h-3z M44,76h2v1h-2z M95,75h9v2h-9z M105,75h10v2h-10z M116,75h2v2h-2z M128,74h4v3h-4z M135,75h3v2h-3z M151,76h2v1h-2z M202,74h3v3h-3z M215,76h17v1h-17z M254,73h8v4h-8z M76,73h3v5h-3z M95,77h8v1h-8z M105,77h13v1h-13z M134,77h3v1h-3z M162,74h15v4h-15z M197,76h2v2h-2z M25,74h2v5h-2z M45,77h1v2h-1z M105,78h9v1h-9z M115,78h3v1h-3z M122,71h3v8h-3z M146,73h3v6h-3z M202,77h2v2h-2z M215,77h18v2h-18z M244,74h3v5h-3z M89,76h3v4h-3z M95,78h3v2h-3z M99,78h4v2h-4z M122,79h2v1h-2z M155,74h3v6h-3z M230,79h2v1h-2z M236,73h3v7h-3z M264,74h4v6h-4z M106,79h8v2h-8z M115,79h4v2h-4z M215,79h14v2h-14z M230,80h3v1h-3z M244,79h2v2h-2z M31,77h2v5h-2z M36,74h3v8h-3z M75,78h4v4h-4z M80,75h5v7h-5z M90,80h2v2h-2z M106,81h13v1h-13z M140,73h3v9h-3z M145,79h4v3h-4z M264,80h3v2h-3z M55,72h19v11h-19z M80,82h4v1h-4z M89,82h3v1h-3z M95,80h8v3h-8z M105,82h14v1h-14z M180,74h3v9h-3z M237,80h2v3h-2z M244,81h3v2h-3z M44,79h2v5h-2z M76,82h3v2h-3z M99,83h4v1h-4z M128,77h5v7h-5z M161,78h16v6h-16z M253,77h9v7h-9z M89,83h4v2h-4z M191,74h3v11h-3z M105,83h9v3h-9z M115,83h4v3h-4z M122,80h3v6h-3z M135,78h2v8h-2z M154,80h4v6h-4z M179,83h4v3h-4z M37,82h2v5h-2z M100,84h3v3h-3z M122,86h2v1h-2z M191,85h2v2h-2z M122,87h3v1h-3z M196,78h3v10h-3z M215,81h18v7h-18z M236,83h3v5h-3z M100,87h2v2h-2z M236,88h4v1h-4z M50,72h3v18h-3z M201,79h3v11h-3z M209,74h3v16h-3z M225,88h8v2h-8z M76,84h2v7h-2z M90,85h2v6h-2z M100,89h3v2h-3z M191,87h3v4h-3z M209,90h2v1h-2z M219,88h5v3h-5z M225,90h3v1h-3z M236,89h3v2h-3z M253,84h10v7h-10z M264,82h4v9h-4z M6,76h15v16h-15z M31,82h3v10h-3z M95,83h3v9h-3z M100,91h2v1h-2z M122,88h2v4h-2z M191,91h2v1h-2z M215,88h3v4h-3z M219,91h9v1h-9z M229,90h4v2h-4z M37,87h3v6h-3z M121,92h3v1h-3z M140,82h2v11h-2z M195,88h3v5h-3z M201,90h2v3h-2z M209,91h3v2h-3z M215,92h13v1h-13z M230,92h3v1h-3z M31,92h2v2h-2z M99,92h4v2h-4z M106,86h12v8h-12z M121,93h4v1h-4z M128,84h4v10h-4z M134,86h3v8h-3z M146,82h3v12h-3z M150,77h3v17h-3z M155,86h3v8h-3z M191,92h3v2h-3z M195,93h4v1h-4z M201,93h3v1h-3z M208,93h4v1h-4z M214,93h14v1h-14z M229,93h4v1h-4z M236,91h4v3h-4z M245,83h3v11h-3z M253,91h15v3h-15z M1,77h3v18h-3z M7,92h14v3h-14z M37,93h2v2h-2z M51,90h2v5h-2z M55,83h14v12h-14z M71,83h3v12h-3z M76,91h3v4h-3z M81,83h4v12h-4z M90,91h3v4h-3z M95,92h2v3h-2z M100,94h3v1h-3z M106,94h13v1h-13z M120,94h5v1h-5z M127,94h5v1h-5z M133,94h4v1h-4z M139,93h3v2h-3z M145,94h13v1h-13z M160,84h17v11h-17z M180,86h3v9h-3z M185,75h3v20h-3z M191,94h50v1h-50z M244,94h4v1h-4z M252,94h10v1h-10z M264,94h3v1h-3z M1,95h4v1h-4z M6,95h15v1h-15z M24,79h3v17h-3z M31,94h3v2h-3z M55,95h31v1h-31z M90,95h8v1h-8z M99,95h4v1h-4z M105,95h37v1h-37z M145,95h33v1h-33z M180,95h81v1h-81z M264,95h4v1h-4z M1,96h27v1h-27z M30,96h5v1h-5z M37,95h3v2h-3z M44,84h3v13h-3z M50,95h4v2h-4z M55,96h206v1h-206z M263,96h5v1h-5z M1,97h41v1h-41z M43,97h4v1h-4z M50,97h211v1h-211z M262,97h6v1h-6z M1,98h46v1h-46z M50,98h130v1h-130z M183,98h52v1h-52z M243,98h4v1h-4z M0,99h20v1h-20z M21,99h26v1h-26z M50,99h68v1h-68z M120,99h45v1h-45z M166,99h9v1h-9z M183,99h14v1h-14z M199,99h8v1h-8z M209,99h4v1h-4z M221,99h4v1h-4z M231,99h4v1h-4z M238,98h3v2h-3z M243,99h3v1h-3z M249,98h18v2h-18z M0,100h9v1h-9z M21,100h5v1h-5z M32,100h51v1h-51z M84,100h34v1h-34z M121,100h3v1h-3z M131,100h33v1h-33z M167,100h7v1h-7z M199,100h7v1h-7z M215,99h4v2h-4z M227,99h2v2h-2z M230,100h4v1h-4z M243,100h4v1h-4z M248,100h19v1h-19z M0,101h4v1h-4z M32,101h23v1h-23z M61,101h21v1h-21z M103,101h14v1h-14z M125,100h4v2h-4z M184,100h13v2h-13z M198,101h8v1h-8z M1,102h3v1h-3z M11,100h8v3h-8z M61,102h7v1h-7z M97,101h4v2h-4z M167,101h2v2h-2z M171,101h4v2h-4z M184,102h22v1h-22z M209,100h3v3h-3z M215,101h3v2h-3z M6,101h3v3h-3z M11,103h4v1h-4z M27,100h3v4h-3z M62,103h6v1h-6z M107,102h10v2h-10z M121,101h2v3h-2z M167,103h3v1h-3z M172,103h3v1h-3z M184,103h23v1h-23z M209,103h4v1h-4z M227,101h7v3h-7z M237,100h4v4h-4z M69,102h13v3h-13z M103,102h3v3h-3z M107,104h11v1h-11z M168,104h2v1h-2z M237,104h3v1h-3z M6,104h8v2h-8z M16,103h3v3h-3z M74,105h8v1h-8z M103,105h15v1h-15z M161,101h3v5h-3z M168,105h1v1h-1z M209,104h3v2h-3z M11,106h8v1h-8z M21,101h4v6h-4z M61,104h7v3h-7z M103,106h14v1h-14z M161,106h2v1h-2z M208,106h4v1h-4z M227,104h3v3h-3z M231,104h3v3h-3z M0,103h4v5h-4z M6,106h4v2h-4z M11,107h3v1h-3z M15,107h4v1h-4z M22,107h3v1h-3z M27,104h4v4h-4z M33,102h21v6h-21z M62,107h6v1h-6z M69,105h4v3h-4z M75,106h7v2h-7z M85,101h11v7h-11z M98,103h3v5h-3z M103,107h15v1h-15z M120,104h3v4h-3z M126,102h3v6h-3z M161,107h3v1h-3z M168,106h2v2h-2z M184,104h22v4h-22z M215,103h4v5h-4z M221,100h3v8h-3z M227,107h7v1h-7z M1,108h3v1h-3z M5,108h15v1h-15z M21,108h5v1h-5z M27,108h28v1h-28z M56,101h4v8h-4z M62,108h34v1h-34z M97,108h21v1h-21z M121,108h2v1h-2z M125,108h4v1h-4z M162,108h1v1h-1z M177,99h3v10h-3z M184,108h23v1h-23z M209,107h3v2h-3z M215,108h9v1h-9z M226,108h8v1h-8z M1,109h54v1h-54z M56,109h63v1h-63z M120,109h10v1h-10z M137,101h22v9h-22z M167,108h3v2h-3z M172,104h2v6h-2z M177,109h4v1h-4z M1,110h129v1h-129z M132,101h3v10h-3z M137,110h23v1h-23z M166,110h9v1h-9z M176,110h6v1h-6z M183,109h51v2h-51z M237,105h4v6h-4z M243,101h24v10h-24z M1,111h54v1h-54z M56,111h74v1h-74z M137,111h98v1h-98z M236,111h31v1h-31z M1,112h53v1h-53z M58,112h13v1h-13z M72,112h58v1h-58z M143,112h124v1h-124z M0,113h30v1h-30z M31,113h4v1h-4z M40,113h2v1h-2z M47,113h4v1h-4z M73,113h4v1h-4z M80,113h8v1h-8z M89,113h40v1h-40z M137,112h4v2h-4z M147,113h15v1h-15z M165,113h41v1h-41z M212,113h55v1h-55z M10,114h14v1h-14z M33,114h1v1h-1z M47,114h3v1h-3z M55,114h1v1h-1z M60,114h2v1h-2z M131,111h4v4h-4z M170,114h17v1h-17z M207,113h4v2h-4z M212,114h16v1h-16z M230,114h37v1h-37z M0,114h4v2h-4z M5,114h4v2h-4z M33,115h2v1h-2z M40,115h1v1h-1z M66,115h2v1h-2z M80,114h7v2h-7z M95,114h7v2h-7z M153,114h2v2h-2z M159,114h2v2h-2z M207,115h23v1h-23z M231,115h5v1h-5z M240,115h4v1h-4z M246,115h3v1h-3z M252,115h10v1h-10z M32,116h3v1h-3z M39,116h2v1h-2z M47,115h2v2h-2z M54,115h3v2h-3z M95,116h8v1h-8z M171,115h3v2h-3z M225,116h11v1h-11z M241,116h3v1h-3z M252,116h4v1h-4z M0,116h9v2h-9z M10,115h8v3h-8z M19,115h4v3h-4z M32,117h4v1h-4z M84,116h3v2h-3z M90,114h4v4h-4z M147,114h3v4h-3z M152,116h3v2h-3z M171,117h2v1h-2z M182,115h4v3h-4z M207,116h16v2h-16z M224,117h12v1h-12z M10,118h7v1h-7z M73,114h3v5h-3z M104,114h25v5h-25z M137,114h3v5h-3z M252,117h3v2h-3z M10,119h8v1h-8z M32,118h3v2h-3z M65,116h3v4h-3z M84,118h4v2h-4z M176,115h4v5h-4z M189,114h16v6h-16z M5,118h4v3h-4z M10,120h7v1h-7z M47,117h3v4h-3z M66,120h2v1h-2z M73,119h4v2h-4z M85,120h3v1h-3z M153,118h2v3h-2z M247,116h2v5h-2z M253,119h2v2h-2z M264,115h3v6h-3z M5,121h12v1h-12z M19,118h3v4h-3z M33,120h2v2h-2z M60,115h3v7h-3z M84,121h4v1h-4z M137,119h4v3h-4z M207,118h28v4h-28z M252,121h3v1h-3z M47,121h2v2h-2z M80,116h3v7h-3z M159,116h3v7h-3z M190,120h15v3h-15z M232,122h3v1h-3z M241,117h2v6h-2z M264,121h4v2h-4z M5,122h13v2h-13z M19,122h4v2h-4z M79,123h4v1h-4z M138,122h3v2h-3z M147,118h2v6h-2z M152,121h3v3h-3z M232,123h4v1h-4z M0,118h4v7h-4z M5,124h18v1h-18z M26,114h3v11h-3z M39,117h3v8h-3z M48,123h1v2h-1z M152,124h4v1h-4z M166,114h3v11h-3z M182,118h3v7h-3z M0,125h23v1h-23z M66,121h3v5h-3z M73,121h3v5h-3z M105,119h24v7h-24z M146,124h3v2h-3z M167,125h2v1h-2z M177,120h3v6h-3z M207,122h24v4h-24z M0,126h9v1h-9z M26,125h4v2h-4z M39,125h2v2h-2z M79,124h3v3h-3z M84,122h3v5h-3z M138,124h2v3h-2z M176,126h4v1h-4z M182,125h4v2h-4z M258,116h4v11h-4z M26,127h3v1h-3z M55,117h2v11h-2z M104,126h25v2h-25z M171,118h3v10h-3z M177,127h3v1h-3z M182,127h3v1h-3z M207,126h4v2h-4z M212,126h19v2h-19z M240,123h3v5h-3z M253,122h2v6h-2z M0,127h4v2h-4z M5,127h4v2h-4z M10,126h12v3h-12z M39,127h3v2h-3z M55,128h1v1h-1z M104,128h26v1h-26z M131,115h3v14h-3z M138,127h3v2h-3z M0,129h9v1h-9z M26,128h4v2h-4z M66,126h2v4h-2z M79,127h8v3h-8z M159,123h2v7h-2z M170,128h4v2h-4z M176,128h4v2h-4z M239,128h4v2h-4z M258,127h3v3h-3z M39,129h2v2h-2z M47,125h2v6h-2z M54,129h2v2h-2z M60,122h2v9h-2z M66,130h3v1h-3z M72,126h3v5h-3z M80,130h7v1h-7z M130,129h4v2h-4z M137,129h3v2h-3z M147,126h2v5h-2z M153,125h3v6h-3z M159,130h3v1h-3z M166,126h3v5h-3z M182,128h4v3h-4z M189,123h16v8h-16z M246,121h3v10h-3z M253,128h3v3h-3z M0,130h4v2h-4z M5,130h4v2h-4z M10,129h13v3h-13z M26,130h3v2h-3z M32,122h3v10h-3z M39,131h3v1h-3z M47,131h3v1h-3z M54,131h3v1h-3z M59,131h3v1h-3z M67,131h1v1h-1z M90,118h3v14h-3z M95,117h7v15h-7z M104,129h25v3h-25z M131,131h3v1h-3z M137,131h4v1h-4z M147,131h3v1h-3z M182,131h3v1h-3z M189,131h17v1h-17z M207,128h24v4h-24z M233,124h3v8h-3z M240,130h3v2h-3z M253,131h2v1h-2z M0,132h23v1h-23z M26,132h4v1h-4z M32,132h4v1h-4z M39,132h4v1h-4z M46,132h4v1h-4z M53,132h4v1h-4z M59,132h4v1h-4z M72,131h4v2h-4z M83,131h4v2h-4z M90,132h39v1h-39z M131,132h4v1h-4z M138,132h4v1h-4z M146,132h5v1h-5z M152,131h4v2h-4z M159,131h2v2h-2z M170,130h5v3h-5z M177,130h4v3h-4z M183,132h3v1h-3z M189,132h47v1h-47z M247,131h2v2h-2z M253,132h1v1h-1z M258,130h4v3h-4z M264,123h3v10h-3z M1,133h23v1h-23z M25,133h11v1h-11z M38,133h13v1h-13z M52,133h36v1h-36z M89,133h56v1h-56z M146,133h41v1h-41z M188,133h49v1h-49z M240,132h2v2h-2z M247,133h3v1h-3z M258,133h9v1h-9z M1,134h266v2h-266z M2,136h264v1h-264z M226,137h2v1h-2z M240,137h1v1h-1z M245,137h4v1h-4z M260,137h3v1h-3z
  "/>
</svg>