<?xml version="1.0" encoding="UTF-8"?>
<svg xmlns="http://www.w3.org/2000/svg" viewBox="0 0 269 139" width="269" height="139">
  <title>36 Carbonaceous shale</title>
  <path fill="#111111" fill-rule="nonzero" d="
    M26,1h33v1h-33z M60,1h1v1h-1z M62,1h2v1h-2z M65,1h111v1h-111z M177,1h15v1h-15z M193,1h72v1h-72z M4,2h262v1h-262z M3,3h263v1h-263z M2,4h264v1h-264z M2,5h168v1h-168z M171,5h48v1h-48z M220,5h27v1h-27z M248,5h6v1h-6z M255,5h6v1h-6z M263,5h3v2h-3z M2,6h4v2h-4z M249,7h5v1h-5z M256,7h1v1h-1z M262,7h4v1h-4z M2,8h64v1h-64z M68,8h5v1h-5z M74,8h192v1h-192z M2,9h265v3h-265z M2,12h264v1h-264z M2,13h13v1h-13z M54,13h5v1h-5z M66,13h2v1h-2z M120,13h2v1h-2z M129,13h1v1h-1z M133,13h2v1h-2z M263,13h4v2h-4z M2,14h5v2h-5z M24,15h7v1h-7z M50,15h1v1h-1z M57,15h2v1h-2z M65,15h2v1h-2z M78,15h28v1h-28z M108,15h29v1h-29z M138,15h5v1h-5z M144,15h2v1h-2z M148,15h1v1h-1z M154,15h3v1h-3z M159,15h3v1h-3z M164,15h8v1h-8z M173,15h5v1h-5z M184,15h10v1h-10z M197,15h2v1h-2z M211,15h26v1h-26z M240,15h27v1h-27z M2,16h265v3h-265z M2,19h259v1h-259z M263,19h3v1h-3z M2,20h5v1h-5z M8,20h11v1h-11z M21,20h17v1h-17z M39,20h47v1h-47z M87,20h1v1h-1z M90,20h23v1h-23z M114,20h13v1h-13z M133,20h12v1h-12z M146,20h3v1h-3z M151,20h5v1h-5z M163,20h7v1h-7z M171,20h14v1h-14z M186,20h2v1h-2z M189,20h1v1h-1z M194,20h9v1h-9z M204,20h2v1h-2z M210,20h4v1h-4z M60,21h2v1h-2z M264,20h3v2h-3z M2,21h4v2h-4z M23,22h2v1h-2z M58,22h2v1h-2z M69,22h1v1h-1z M99,22h4v1h-4z M133,22h1v1h-1z M212,22h11v1h-11z M228,22h9v1h-9z M238,22h3v1h-3z M244,22h5v1h-5z M250,22h17v1h-17z M2,23h265v4h-265z M2,27h215v1h-215z M218,27h16v1h-16z M235,27h4v1h-4z M241,27h4v1h-4z M250,27h17v1h-17z M2,28h4v1h-4z M165,28h2v1h-2z M2,29h3v2h-3z M222,30h1v1h-1z M263,28h4v3h-4z M2,31h265v5h-265z M2,36h7v1h-7z M19,36h1v1h-1z M65,36h1v1h-1z M112,36h2v1h-2z M154,36h1v1h-1z M263,36h4v1h-4z M2,37h3v1h-3z M264,37h3v1h-3z M2,38h4v1h-4z M259,38h8v1h-8z M2,39h5v1h-5z M8,39h259v1h-259z M2,40h265v3h-265z M2,43h235v1h-235z M240,43h16v1h-16z M258,43h9v1h-9z M2,44h7v1h-7z M28,44h1v1h-1z M57,44h1v1h-1z M2,45h3v1h-3z M2,46h4v1h-4z M263,44h4v3h-4z M2,47h265v5h-265z M2,52h61v1h-61z M65,52h33v1h-33z M99,52h11v1h-11z M114,52h2v1h-2z M117,52h8v1h-8z M126,52h3v1h-3z M137,52h6v1h-6z M149,52h7v1h-7z M159,52h11v1h-11z M183,52h1v1h-1z M186,52h15v1h-15z M203,52h1v1h-1z M208,52h5v1h-5z M223,52h3v1h-3z M262,52h5v1h-5z M2,53h3v2h-3z M263,53h4v2h-4z M2,55h4v1h-4z M13,55h2v1h-2z M21,55h13v1h-13z M35,55h17v1h-17z M54,55h52v1h-52z M108,55h38v1h-38z M149,55h13v1h-13z M164,55h17v1h-17z M184,55h83v1h-83z M2,56h265v4h-265z M2,60h209v1h-209z M219,60h23v1h-23z M243,60h4v1h-4z M250,60h3v1h-3z M261,60h6v1h-6z M2,61h4v1h-4z M8,61h1v1h-1z M15,61h1v1h-1z M2,62h3v1h-3z M264,61h3v2h-3z M2,63h10v1h-10z M13,63h25v1h-25z M40,63h72v1h-72z M114,63h64v1h-64z M191,63h76v1h-76z M2,64h265v4h-265z M2,68h218v1h-218z M222,68h2v1h-2z M226,68h6v1h-6z M235,68h6v1h-6z M242,68h1v1h-1z M245,68h4v1h-4z M250,68h17v1h-17z M2,69h4v1h-4z M10,69h2v1h-2z M23,69h4v1h-4z M53,69h4v1h-4z M60,69h2v1h-2z M67,69h3v1h-3z M77,69h1v1h-1z M95,69h5v1h-5z M114,69h2v1h-2z M2,70h3v1h-3z M264,69h3v2h-3z M2,71h46v1h-46z M51,71h15v1h-15z M67,71h103v1h-103z M172,71h12v1h-12z M191,71h6v1h-6z M201,71h6v1h-6z M208,71h59v1h-59z M2,72h265v4h-265z M2,76h37v1h-37z M43,76h34v1h-34z M78,76h32v1h-32z M111,76h6v1h-6z M119,76h63v1h-63z M183,76h27v1h-27z M213,76h1v1h-1z M215,76h1v1h-1z M217,76h5v1h-5z M226,76h11v1h-11z M261,76h6v1h-6z M138,77h4v1h-4z M230,77h1v1h-1z M263,77h4v1h-4z M2,77h3v2h-3z M80,78h1v1h-1z M88,78h2v1h-2z M92,78h4v1h-4z M98,78h2v1h-2z M114,78h2v1h-2z M124,78h4v1h-4z M135,78h7v1h-7z M165,78h1v1h-1z M174,78h2v1h-2z M185,78h2v1h-2z M202,78h1v1h-1z M213,78h5v1h-5z M219,78h19v1h-19z M243,78h7v1h-7z M252,78h15v1h-15z M1,79h266v5h-266z M1,84h8v1h-8z M10,84h3v1h-3z M20,84h1v1h-1z M33,84h3v1h-3z M44,84h6v1h-6z M59,84h1v1h-1z M101,84h3v1h-3z M106,84h2v1h-2z M113,84h1v1h-1z M120,84h2v1h-2z M127,84h2v1h-2z M146,84h1v1h-1z M148,84h4v1h-4z M171,84h7v1h-7z M184,84h3v1h-3z M207,84h3v1h-3z M227,84h3v1h-3z M263,84h4v2h-4z M2,85h3v2h-3z M79,86h1v1h-1z M97,86h1v1h-1z M106,86h3v1h-3z M121,86h2v1h-2z M171,86h4v1h-4z M176,86h4v1h-4z M200,86h1v1h-1z M207,86h60v1h-60z M2,87h265v4h-265z M2,91h240v1h-240z M243,91h24v1h-24z M2,92h36v1h-36z M41,92h33v1h-33z M75,92h5v1h-5z M82,92h3v1h-3z M110,92h15v1h-15z M126,92h1v1h-1z M135,92h16v1h-16z M173,92h1v1h-1z M176,92h2v1h-2z M195,92h2v1h-2z M204,92h4v1h-4z M263,92h4v1h-4z M2,93h3v1h-3z M146,93h5v1h-5z M194,93h3v1h-3z M205,93h5v1h-5z M234,93h1v1h-1z M246,93h1v1h-1z M250,93h2v1h-2z M255,93h12v1h-12z M2,94h4v1h-4z M20,94h7v1h-7z M30,94h6v1h-6z M40,94h18v1h-18z M64,94h23v1h-23z M89,94h178v1h-178z M2,95h265v3h-265z M1,98h266v1h-266z M1,99h209v1h-209z M213,99h5v1h-5z M222,99h10v1h-10z M234,99h2v1h-2z M238,99h2v1h-2z M260,99h7v1h-7z M2,100h7v1h-7z M10,100h2v1h-2z M42,100h1v1h-1z M137,100h1v1h-1z M263,100h4v1h-4z M2,101h4v1h-4z M43,101h1v1h-1z M87,101h1v1h-1z M95,101h1v1h-1z M123,101h2v1h-2z M132,101h1v1h-1z M137,101h5v1h-5z M149,101h2v1h-2z M171,101h3v1h-3z M176,101h3v1h-3z M212,101h19v1h-19z M232,101h25v1h-25z M258,101h1v1h-1z M260,101h7v1h-7z M2,102h265v4h-265z M2,106h236v1h-236z M239,106h2v1h-2z M242,106h25v1h-25z M2,107h5v1h-5z M20,107h3v1h-3z M38,107h1v1h-1z M82,107h1v1h-1z M116,107h2v1h-2z M174,107h2v1h-2z M2,108h3v1h-3z M87,107h1v2h-1z M263,107h4v2h-4z M2,109h6v1h-6z M9,109h1v1h-1z M12,109h2v1h-2z M20,109h6v1h-6z M28,109h6v1h-6z M35,109h232v1h-232z M2,110h265v1h-265z M1,111h266v3h-266z M2,114h106v1h-106z M109,114h4v1h-4z M114,114h41v1h-41z M158,114h3v1h-3z M165,114h8v1h-8z M176,114h15v1h-15z M192,114h3v1h-3z M206,114h1v1h-1z M217,114h2v1h-2z M226,114h3v1h-3z M234,114h3v1h-3z M238,114h4v1h-4z M250,114h17v1h-17z M9,115h1v1h-1z M264,115h3v1h-3z M2,115h3v2h-3z M117,116h2v1h-2z M146,116h1v1h-1z M234,116h1v1h-1z M259,116h1v1h-1z M263,116h4v1h-4z M2,117h265v5h-265z M2,122h48v1h-48z M56,122h2v1h-2z M60,122h8v1h-8z M78,122h2v1h-2z M236,122h3v1h-3z M259,122h2v1h-2z M262,122h5v1h-5z M2,123h3v2h-3z M150,124h1v1h-1z M179,124h1v1h-1z M236,124h1v1h-1z M247,124h5v1h-5z M255,124h1v1h-1z M258,124h2v1h-2z M263,123h4v2h-4z M2,125h265v5h-265z M2,130h43v1h-43z M47,130h41v1h-41z M93,130h5v1h-5z M103,130h15v1h-15z M120,130h11v1h-11z M135,130h4v1h-4z M140,130h3v1h-3z M149,130h2v1h-2z M178,130h1v1h-1z M187,130h1v1h-1z M217,130h3v1h-3z M221,130h3v1h-3z M236,130h7v1h-7z M259,130h1v1h-1z M2,131h4v1h-4z M10,131h5v1h-5z M16,131h4v1h-4z M25,131h5v1h-5z M35,131h1v1h-1z M96,131h1v1h-1z M114,131h1v1h-1z M122,131h1v1h-1z M264,130h3v2h-3z M1,132h36v1h-36z M41,132h4v1h-4z M47,132h5v1h-5z M54,132h3v1h-3z M61,132h2v1h-2z M71,132h88v1h-88z M161,132h20v1h-20z M184,132h21v1h-21z M206,132h61v1h-61z M1,133h266v1h-266z M2,134h265v2h-265z M2,136h264v1h-264z M3,137h72v1h-72z M76,137h53v1h-53z M130,137h5v1h-5z M136,137h44v1h-44z
  "/>
</svg>