<?xml version="1.0" encoding="UTF-8"?>
<svg xmlns="http://www.w3.org/2000/svg" viewBox="0 0 267 139" width="267" height="139">
  <title>61 Massive igneous rock 61</title>
  <path fill="#111111" fill-rule="nonzero" d="
    M4,0h3v1h-3z M24,0h1v1h-1z M112,0h2v1h-2z M128,0h2v1h-2z M2,1h263v1h-263z M1,2h265v3h-265z M1,5h5v1h-5z M44,5h4v1h-4z M55,5h2v1h-2z M117,5h5v1h-5z M126,5h2v1h-2z M133,5h6v1h-6z M165,5h6v1h-6z M181,5h2v1h-2z M239,5h2v1h-2z M261,5h5v1h-5z M1,6h4v1h-4z M11,5h5v2h-5z M24,6h2v1h-2z M36,6h1v1h-1z M45,6h3v1h-3z M97,5h3v2h-3z M118,6h4v1h-4z M164,6h6v1h-6z M180,6h3v1h-3z M12,7h4v1h-4z M36,7h3v1h-3z M118,7h5v1h-5z M135,6h3v2h-3z M161,7h10v1h-10z M180,7h4v1h-4z M18,8h2v1h-2z M23,7h4v2h-4z M36,8h4v1h-4z M44,7h3v2h-3z M55,6h3v3h-3z M62,8h3v1h-3z M71,5h4v4h-4z M89,8h3v1h-3z M97,7h4v2h-4z M107,5h4v4h-4z M119,8h3v1h-3z M127,8h2v1h-2z M131,8h2v1h-2z M159,8h11v1h-11z M179,8h7v1h-7z M1,7h8v3h-8z M24,9h2v1h-2z M36,9h5v1h-5z M43,9h4v1h-4z M72,9h3v1h-3z M88,9h4v1h-4z M98,9h3v1h-3z M108,9h1v1h-1z M120,9h1v1h-1z M126,9h4v1h-4z M158,9h12v1h-12z M221,9h3v1h-3z M1,10h5v1h-5z M37,10h5v1h-5z M43,10h3v1h-3z M62,9h4v2h-4z M79,10h2v1h-2z M88,10h3v1h-3z M179,9h9v2h-9z M220,10h5v1h-5z M37,11h9v1h-9z M64,11h1v1h-1z M79,11h4v1h-4z M111,11h3v1h-3z M131,9h3v3h-3z M158,10h7v2h-7z M179,11h10v1h-10z M245,11h4v1h-4z M32,10h3v3h-3z M38,12h8v1h-8z M50,12h3v1h-3z M79,12h6v1h-6z M100,12h2v1h-2z M118,12h4v1h-4z M159,12h7v1h-7z M185,12h5v1h-5z M220,11h6v2h-6z M9,13h5v1h-5z M33,13h1v1h-1z M39,13h6v1h-6z M78,13h8v1h-8z M110,12h5v2h-5z M118,13h5v1h-5z M125,10h5v4h-5z M162,13h6v1h-6z M186,13h4v1h-4z M220,13h8v1h-8z M9,14h6v1h-6z M17,9h4v6h-4z M26,14h2v1h-2z M49,13h4v2h-4z M78,14h10v1h-10z M99,13h4v2h-4z M111,14h4v1h-4z M118,14h12v1h-12z M163,14h5v1h-5z M220,14h9v1h-9z M245,12h5v3h-5z M9,15h12v1h-12z M25,15h4v1h-4z M40,14h5v2h-5z M50,15h3v1h-3z M61,15h3v1h-3z M79,15h10v1h-10z M99,15h3v1h-3z M111,15h3v1h-3z M119,15h10v1h-10z M164,15h4v1h-4z M201,15h2v1h-2z M220,15h10v1h-10z M244,15h7v1h-7z M10,16h11v1h-11z M24,16h5v1h-5z M84,16h6v1h-6z M120,16h9v1h-9z M166,16h2v1h-2z M179,12h4v5h-4z M200,16h8v1h-8z M220,16h11v1h-11z M13,17h8v1h-8z M25,17h3v1h-3z M60,16h4v2h-4z M68,15h4v3h-4z M85,17h5v1h-5z M121,17h8v1h-8z M152,17h1v1h-1z M180,17h2v1h-2z M226,17h5v1h-5z M244,16h8v2h-8z M15,18h6v1h-6z M26,18h1v1h-1z M35,17h3v2h-3z M69,18h1v1h-1z M78,16h5v3h-5z M87,18h1v1h-1z M93,18h2v1h-2z M103,18h4v1h-4z M123,18h6v1h-6z M135,16h3v3h-3z M151,18h2v1h-2z M181,18h1v1h-1z M227,18h4v1h-4z M244,18h3v1h-3z M248,18h5v1h-5z M1,11h4v9h-4z M6,19h2v1h-2z M17,19h4v1h-4z M45,18h3v2h-3z M60,18h5v2h-5z M79,19h4v1h-4z M116,19h1v1h-1z M125,19h6v1h-6z M200,17h11v3h-11z M228,19h3v1h-3z M249,19h5v1h-5z M34,19h4v2h-4z M46,20h2v1h-2z M55,20h1v1h-1z M102,19h5v2h-5z M116,20h2v1h-2z M128,20h4v1h-4z M200,20h5v1h-5z M229,20h1v1h-1z M243,19h4v2h-4z M250,20h4v1h-4z M35,21h2v1h-2z M53,21h5v1h-5z M61,20h4v2h-4z M80,20h3v2h-3z M92,19h4v3h-4z M101,21h5v1h-5z M143,21h4v1h-4z M201,21h5v1h-5z M220,17h4v5h-4z M251,21h3v1h-3z M34,22h2v1h-2z M93,22h2v1h-2z M101,22h4v1h-4z M129,21h3v2h-3z M142,22h6v1h-6z M202,22h5v1h-5z M221,22h3v1h-3z M243,21h3v2h-3z M1,20h9v4h-9z M17,23h2v1h-2z M33,23h7v1h-7z M53,22h13v2h-13z M73,23h1v1h-1z M108,23h4v1h-4z M136,23h1v1h-1z M143,23h6v1h-6z M150,19h4v5h-4z M188,23h2v1h-2z M203,23h4v1h-4z M243,23h2v1h-2z M1,24h5v1h-5z M17,24h3v1h-3z M32,24h11v1h-11z M54,24h12v1h-12z M100,23h5v2h-5z M106,24h7v1h-7z M124,24h3v1h-3z M144,24h10v1h-10z M187,24h3v1h-3z M203,24h5v1h-5z M17,25h2v1h-2z M56,25h10v1h-10z M72,24h3v2h-3z M99,25h13v1h-13z M123,25h4v1h-4z M135,24h3v2h-3z M145,25h9v1h-9z M186,25h4v1h-4z M204,25h4v1h-4z M25,24h3v3h-3z M32,25h12v2h-12z M60,26h6v1h-6z M73,26h1v1h-1z M99,26h12v1h-12z M123,26h5v1h-5z M136,26h2v1h-2z M147,26h7v1h-7z M185,26h5v1h-5z M26,27h2v1h-2z M32,27h11v1h-11z M63,27h2v1h-2z M99,27h10v1h-10z M114,27h3v1h-3z M123,27h4v1h-4z M148,27h6v1h-6z M185,27h4v1h-4z M81,27h3v2h-3z M99,28h8v1h-8z M124,28h3v1h-3z M149,28h4v1h-4z M184,28h4v1h-4z M1,25h4v5h-4z M7,28h3v2h-3z M14,29h3v1h-3z M43,29h3v1h-3z M53,29h2v1h-2z M68,29h1v1h-1z M82,29h2v1h-2z M99,29h6v1h-6z M113,28h4v2h-4z M183,29h5v1h-5z M231,29h1v1h-1z M13,30h5v1h-5z M33,28h3v3h-3z M52,30h4v1h-4z M67,30h4v1h-4z M100,30h3v1h-3z M114,30h2v1h-2z M182,30h12v1h-12z M230,30h3v1h-3z M1,30h9v2h-9z M12,31h7v1h-7z M43,30h4v2h-4z M53,31h3v1h-3z M106,31h3v1h-3z M120,31h1v1h-1z M128,31h3v1h-3z M135,31h2v1h-2z M12,32h8v1h-8z M27,32h1v1h-1z M44,32h2v1h-2z M66,31h5v2h-5z M76,32h1v1h-1z M182,31h13v2h-13z M229,31h4v2h-4z M11,33h9v1h-9z M26,33h3v1h-3z M33,31h4v3h-4z M59,33h2v1h-2z M67,33h3v1h-3z M74,33h10v1h-10z M97,33h3v1h-3z M106,32h4v2h-4z M120,32h2v2h-2z M128,32h4v2h-4z M134,32h4v2h-4z M162,33h5v1h-5z M182,33h12v1h-12z M10,34h12v1h-12z M26,34h4v1h-4z M34,34h3v1h-3z M73,34h12v1h-12z M96,34h5v1h-5z M107,34h1v1h-1z M129,34h2v1h-2z M135,34h3v1h-3z M161,34h8v1h-8z M224,34h2v1h-2z M1,32h5v4h-5z M10,35h4v1h-4z M17,35h5v1h-5z M26,35h3v1h-3z M35,35h1v1h-1z M73,35h13v1h-13z M88,33h3v3h-3z M97,35h4v1h-4z M162,35h9v1h-9z M224,35h4v1h-4z M229,33h5v3h-5z M9,36h5v1h-5z M18,36h5v1h-5z M27,36h2v1h-2z M49,36h2v1h-2z M58,34h4v3h-4z M68,36h1v1h-1z M74,36h12v1h-12z M89,36h1v1h-1z M97,36h3v1h-3z M112,36h2v1h-2z M129,36h1v1h-1z M162,36h11v1h-11z M250,36h3v1h-3z M10,37h3v1h-3z M19,37h3v1h-3z M38,36h4v2h-4z M59,37h2v1h-2z M67,37h3v1h-3z M75,37h10v1h-10z M122,37h10v1h-10z M224,36h10v2h-10z M11,38h1v1h-1z M21,38h1v1h-1z M38,38h5v1h-5z M76,38h4v1h-4z M112,37h3v2h-3z M162,37h12v2h-12z M225,38h9v1h-9z M248,37h5v2h-5z M262,6h4v33h-4z M38,39h4v1h-4z M48,37h3v3h-3z M67,38h4v2h-4z M76,39h6v1h-6z M90,39h1v1h-1z M113,39h1v1h-1z M121,38h12v2h-12z M170,39h4v1h-4z M204,39h1v1h-1z M211,39h1v1h-1z M227,39h7v1h-7z M246,39h6v1h-6z M32,40h1v1h-1z M68,40h2v1h-2z M77,40h6v1h-6z M101,40h2v1h-2z M121,40h11v1h-11z M136,40h1v1h-1z M203,40h3v1h-3z M229,40h5v1h-5z M245,40h6v1h-6z M262,39h5v2h-5z M14,39h4v3h-4z M30,41h5v1h-5z M78,41h5v1h-5z M89,40h4v2h-4z M100,41h3v1h-3z M121,41h5v1h-5z M135,41h2v1h-2z M210,40h3v2h-3z M231,41h2v1h-2z M245,41h8v1h-8z M14,42h3v1h-3z M23,42h2v1h-2z M30,42h4v1h-4z M60,42h3v1h-3z M79,42h4v1h-4z M90,42h3v1h-3z M100,42h4v1h-4z M108,42h1v1h-1z M122,42h5v1h-5z M134,42h3v1h-3z M144,42h1v1h-1z M163,39h4v4h-4z M244,42h10v1h-10z M32,43h2v1h-2z M74,43h2v1h-2z M80,43h2v1h-2z M100,43h3v1h-3z M118,43h2v1h-2z M123,43h5v1h-5z M135,43h2v1h-2z M144,43h2v1h-2z M203,41h4v3h-4z M209,42h4v2h-4z M7,43h3v2h-3z M23,43h3v2h-3z M123,44h6v1h-6z M164,43h3v2h-3z M244,43h12v2h-12z M7,45h4v1h-4z M43,45h3v1h-3z M52,45h2v1h-2z M59,43h4v3h-4z M73,44h4v2h-4z M107,43h4v3h-4z M117,44h4v2h-4z M124,45h5v1h-5z M143,44h4v2h-4z M204,44h8v2h-8z M249,45h2v1h-2z M252,45h3v1h-3z M41,46h6v1h-6z M59,46h3v1h-3z M74,46h3v1h-3z M92,46h2v1h-2z M97,46h3v1h-3z M117,46h3v1h-3z M125,46h4v1h-4z M142,46h5v1h-5z M17,47h1v1h-1z M37,47h10v1h-10z M58,47h4v1h-4z M66,47h3v1h-3z M81,47h2v1h-2z M97,47h5v1h-5z M107,46h3v2h-3z M127,47h1v1h-1z M205,46h6v2h-6z M35,48h12v1h-12z M51,46h4v3h-4z M58,48h3v1h-3z M64,48h6v1h-6z M91,47h3v2h-3z M98,48h5v1h-5z M106,48h4v1h-4z M112,48h2v1h-2z M150,48h3v1h-3z M206,48h4v1h-4z M262,41h4v8h-4z M15,48h4v2h-4z M34,49h12v1h-12z M52,49h2v1h-2z M58,49h4v1h-4z M63,49h6v1h-6z M92,49h1v1h-1z M98,49h6v1h-6z M107,49h3v1h-3z M136,49h2v1h-2z M142,47h4v3h-4z M147,49h7v1h-7z M207,49h3v1h-3z M15,50h3v1h-3z M34,50h9v1h-9z M57,50h11v1h-11z M80,48h4v3h-4z M99,50h11v1h-11z M112,49h3v2h-3z M124,50h1v1h-1z M135,50h3v1h-3z M208,50h1v1h-1z M262,49h5v2h-5z M34,51h5v1h-5z M57,51h10v1h-10z M81,51h2v1h-2z M100,51h10v1h-10z M135,51h4v1h-4z M141,50h13v2h-13z M21,51h3v2h-3z M34,52h6v1h-6z M57,52h9v1h-9z M102,52h8v1h-8z M122,51h4v2h-4z M135,52h3v1h-3z M141,52h11v1h-11z M183,52h3v1h-3z M190,50h3v3h-3z M233,52h2v1h-2z M35,53h6v1h-6z M57,53h7v1h-7z M103,53h7v1h-7z M123,53h3v1h-3z M130,53h2v1h-2z M141,53h8v1h-8z M183,53h4v1h-4z M189,53h5v1h-5z M12,54h3v1h-3z M21,53h4v2h-4z M36,54h7v1h-7z M50,54h1v1h-1z M56,54h6v1h-6z M104,54h5v1h-5z M117,54h2v1h-2z M130,54h3v1h-3z M142,54h3v1h-3z M183,54h5v1h-5z M189,54h4v1h-4z M232,53h4v2h-4z M29,55h3v1h-3z M38,55h5v1h-5z M57,55h4v1h-4z M78,55h1v1h-1z M98,55h2v1h-2z M105,55h4v1h-4z M130,55h2v1h-2z M184,55h9v1h-9z M231,55h4v1h-4z M255,55h2v1h-2z M12,55h5v2h-5z M29,56h4v1h-4z M39,56h5v1h-5z M67,54h4v3h-4z M88,53h3v4h-3z M97,56h3v1h-3z M116,55h3v2h-3z M171,56h1v1h-1z M185,56h8v1h-8z M230,56h5v1h-5z M254,56h4v1h-4z M13,57h5v1h-5z M20,55h4v3h-4z M28,57h5v1h-5z M40,57h4v1h-4z M49,55h4v3h-4z M68,57h2v1h-2z M76,56h4v2h-4z M97,57h4v1h-4z M117,57h2v1h-2z M170,57h3v1h-3z M230,57h4v1h-4z M254,57h5v1h-5z M14,58h10v1h-10z M29,58h3v1h-3z M42,58h1v1h-1z M50,58h1v1h-1z M77,58h3v1h-3z M86,58h3v1h-3z M98,58h3v1h-3z M111,58h3v1h-3z M135,58h3v1h-3z M186,57h7v2h-7z M229,58h5v1h-5z M255,58h4v1h-4z M15,59h9v1h-9z M31,59h1v1h-1z M77,59h2v1h-2z M85,59h5v1h-5z M134,59h4v1h-4z M161,59h3v1h-3z M188,59h4v1h-4z M216,59h4v1h-4z M229,59h7v1h-7z M16,60h7v1h-7z M82,60h7v1h-7z M110,59h4v2h-4z M128,60h3v1h-3z M135,60h3v1h-3z M161,60h4v1h-4z M169,58h4v3h-4z M189,60h2v1h-2z M213,60h9v1h-9z M229,60h10v1h-10z M249,60h3v1h-3z M17,61h6v1h-6z M68,61h3v1h-3z M80,61h9v1h-9z M102,61h3v1h-3z M112,61h1v1h-1z M128,61h4v1h-4z M161,61h5v1h-5z M168,61h5v1h-5z M211,61h10v1h-10z M248,61h5v1h-5z M256,59h4v3h-4z M18,62h5v1h-5z M36,62h2v1h-2z M58,61h3v2h-3z M78,62h9v1h-9z M92,62h2v1h-2z M121,61h3v2h-3z M127,62h5v1h-5z M162,62h4v1h-4z M168,62h4v1h-4z M210,62h10v1h-10z M229,61h11v2h-11z M248,62h13v1h-13z M20,63h2v1h-2z M58,63h2v1h-2z M77,63h9v1h-9z M102,62h4v2h-4z M121,63h4v1h-4z M128,63h3v1h-3z M209,63h11v1h-11z M236,63h3v1h-3z M249,63h12v1h-12z M7,61h4v4h-4z M24,64h3v1h-3z M35,63h3v2h-3z M51,64h1v1h-1z M68,62h4v3h-4z M91,63h4v2h-4z M103,64h2v1h-2z M121,64h5v1h-5z M163,63h9v2h-9z M209,64h5v1h-5z M251,64h10v1h-10z M262,51h4v14h-4z M69,65h2v1h-2z M76,64h8v2h-8z M93,65h1v1h-1z M164,65h8v1h-8z M211,65h1v1h-1z M216,64h4v2h-4z M253,65h13v1h-13z M24,65h4v2h-4z M77,66h9v1h-9z M110,66h2v1h-2z M122,65h4v2h-4z M135,66h2v1h-2z M165,66h6v1h-6z M256,66h4v1h-4z M26,67h1v1h-1z M50,65h3v3h-3z M67,67h1v1h-1z M79,67h9v1h-9z M116,67h2v1h-2z M120,67h7v1h-7z M167,67h4v1h-4z M216,66h3v2h-3z M14,66h4v3h-4z M32,68h1v1h-1z M40,67h4v2h-4z M61,68h1v1h-1z M80,68h8v1h-8z M109,67h3v2h-3z M215,68h4v1h-4z M15,69h2v1h-2z M31,69h3v1h-3z M41,69h3v1h-3z M60,69h4v1h-4z M75,69h2v1h-2z M83,69h5v1h-5z M94,69h2v1h-2z M110,69h1v1h-1z M115,68h12v2h-12z M134,67h4v3h-4z M215,69h3v1h-3z M22,70h2v1h-2z M30,70h4v1h-4z M59,70h5v1h-5z M85,70h2v1h-2z M116,70h11v1h-11z M135,70h3v1h-3z M150,70h1v1h-1z M216,70h2v1h-2z M1,36h4v36h-4z M31,71h3v1h-3z M59,71h6v1h-6z M74,70h4v2h-4z M93,70h4v2h-4z M120,71h6v1h-6z M32,72h1v1h-1z M59,72h7v1h-7z M75,72h3v1h-3z M93,72h3v1h-3z M99,72h4v1h-4z M191,71h2v2h-2z M1,72h5v2h-5z M7,72h3v2h-3z M21,71h4v3h-4z M52,73h2v1h-2z M59,73h8v1h-8z M93,73h2v1h-2z M99,73h5v1h-5z M129,73h2v1h-2z M142,73h3v1h-3z M148,71h4v3h-4z M236,73h1v1h-1z M7,74h4v1h-4z M22,74h2v1h-2z M33,74h6v1h-6z M58,74h10v1h-10z M84,74h3v1h-3z M98,74h6v1h-6z M119,74h2v1h-2z M141,74h4v1h-4z M235,74h3v1h-3z M8,75h2v1h-2z M17,75h1v1h-1z M33,75h10v1h-10z M64,75h5v1h-5z M97,75h8v1h-8z M135,75h3v1h-3z M141,75h6v1h-6z M149,74h3v2h-3z M15,76h6v1h-6z M33,76h12v1h-12z M51,74h4v3h-4z M58,75h4v2h-4z M65,76h4v1h-4z M83,75h4v2h-4z M97,76h9v1h-9z M112,76h2v1h-2z M128,74h3v3h-3z M142,76h10v1h-10z M190,73h4v4h-4z M197,76h3v1h-3z M234,75h5v2h-5z M11,77h10v1h-10z M33,77h13v1h-13z M52,77h2v1h-2z M73,77h3v1h-3z M84,77h3v1h-3z M96,77h10v1h-10z M112,77h3v1h-3z M119,75h3v3h-3z M135,76h4v2h-4z M144,77h8v1h-8z M189,77h5v1h-5z M196,77h4v1h-4z M1,74h4v5h-4z M9,78h12v1h-12z M33,78h12v1h-12z M66,77h4v2h-4z M96,78h4v1h-4z M102,78h5v1h-5z M112,78h2v1h-2z M136,78h1v1h-1z M145,78h7v1h-7z M189,78h11v1h-11z M233,77h7v2h-7z M0,79h5v1h-5z M33,79h5v1h-5z M42,79h3v1h-3z M147,79h6v1h-6z M189,79h10v1h-10z M233,79h8v1h-8z M9,79h11v2h-11z M27,79h2v2h-2z M73,78h4v3h-4z M89,80h2v1h-2z M95,79h4v2h-4z M103,79h5v2h-5z M148,80h4v1h-4z M189,80h9v1h-9z M233,80h9v1h-9z M10,81h3v1h-3z M27,81h3v1h-3z M34,80h4v2h-4z M45,81h3v1h-3z M74,81h2v1h-2z M94,81h5v1h-5z M104,81h4v1h-4z M127,81h2v1h-2z M150,81h1v1h-1z M176,81h2v1h-2z M189,81h8v1h-8z M15,81h4v2h-4z M27,82h2v1h-2z M34,82h5v1h-5z M57,77h4v6h-4z M94,82h4v1h-4z M114,82h3v1h-3z M126,82h3v1h-3z M170,82h9v1h-9z M189,82h6v1h-6z M238,81h4v2h-4z M15,83h3v1h-3z M58,83h2v1h-2z M88,81h4v3h-4z M95,83h3v1h-3z M114,83h4v1h-4z M127,83h1v1h-1z M167,83h12v1h-12z M191,83h2v1h-2z M232,81h4v3h-4z M240,83h1v1h-1z M20,84h3v1h-3z M45,82h4v3h-4z M88,84h3v1h-3z M135,84h1v1h-1z M166,84h13v1h-13z M217,84h3v1h-3z M14,84h4v2h-4z M35,83h4v3h-4z M114,84h3v2h-3z M122,85h2v1h-2z M134,85h3v1h-3z M166,85h11v1h-11z M214,85h7v1h-7z M232,84h3v2h-3z M254,85h3v1h-3z M262,66h4v20h-4z M13,86h4v1h-4z M20,85h4v2h-4z M36,86h3v1h-3z M66,84h3v3h-3z M121,86h4v1h-4z M135,86h2v1h-2z M166,86h7v1h-7z M212,86h9v1h-9z M262,86h5v1h-5z M14,87h3v1h-3z M21,87h2v1h-2z M67,87h1v1h-1z M82,87h2v1h-2z M103,87h1v1h-1z M120,87h6v1h-6z M167,87h7v1h-7z M209,87h11v1h-11z M1,80h4v9h-4z M28,88h2v1h-2z M52,85h3v4h-3z M119,88h7v1h-7z M168,88h7v1h-7z M209,88h7v1h-7z M73,89h2v1h-2z M81,88h4v2h-4z M92,89h2v1h-2z M102,88h3v2h-3z M109,88h3v2h-3z M118,89h9v1h-9z M170,89h6v1h-6z M208,89h6v1h-6z M27,89h3v2h-3z M44,90h1v1h-1z M60,90h2v1h-2z M73,90h3v1h-3z M82,90h2v1h-2z M91,90h4v1h-4z M117,90h10v1h-10z M130,88h3v3h-3z M171,90h5v1h-5z M209,90h5v1h-5z M247,90h3v1h-3z M254,86h4v5h-4z M0,89h5v3h-5z M117,91h5v1h-5z M123,91h5v1h-5z M172,91h4v1h-4z M209,91h6v1h-6z M246,91h12v1h-12z M58,91h5v2h-5z M72,91h4v2h-4z M92,91h3v2h-3z M116,92h5v1h-5z M124,92h5v1h-5z M135,92h2v1h-2z M211,92h5v1h-5z M247,92h11v1h-11z M9,93h3v1h-3z M35,93h3v1h-3z M43,91h3v3h-3z M59,93h4v1h-4z M99,93h2v1h-2z M134,93h4v1h-4z M211,93h7v1h-7z M248,93h10v1h-10z M1,92h4v3h-4z M16,93h4v2h-4z M34,94h4v1h-4z M44,94h2v1h-2z M109,94h2v1h-2z M116,93h4v2h-4z M125,93h4v2h-4z M135,94h3v1h-3z M150,93h5v2h-5z M187,94h3v1h-3z M212,94h6v1h-6z M250,94h8v1h-8z M1,95h5v1h-5z M8,94h4v2h-4z M15,95h5v1h-5z M34,95h3v1h-3z M78,95h3v1h-3z M87,95h2v1h-2z M98,94h4v2h-4z M126,95h3v1h-3z M136,95h1v1h-1z M148,95h7v1h-7z M186,95h7v1h-7z M213,95h5v1h-5z M253,95h5v1h-5z M9,96h2v1h-2z M16,96h4v1h-4z M71,93h4v4h-4z M76,96h5v1h-5z M99,96h3v1h-3z M108,95h4v2h-4z M127,96h1v1h-1z M147,96h8v1h-8z M186,96h9v1h-9z M216,96h1v1h-1z M254,96h4v1h-4z M262,87h4v10h-4z M17,97h2v1h-2z M100,97h1v1h-1z M108,97h3v1h-3z M146,97h9v1h-9z M186,97h11v1h-11z M232,97h1v1h-1z M70,97h11v2h-11z M87,96h3v3h-3z M102,98h3v1h-3z M123,98h1v1h-1z M145,98h10v1h-10z M186,98h13v1h-13z M230,98h5v1h-5z M262,97h5v2h-5z M26,99h3v1h-3z M53,96h4v4h-4z M63,97h4v3h-4z M70,99h9v1h-9z M95,99h11v1h-11z M135,99h1v1h-1z M144,99h5v1h-5z M187,99h12v1h-12z M230,99h6v1h-6z M45,100h3v1h-3z M53,100h3v1h-3z M64,100h2v1h-2z M70,100h8v1h-8z M115,100h1v1h-1z M122,99h3v2h-3z M144,100h4v1h-4z M187,100h5v1h-5z M193,100h6v1h-6z M230,100h7v1h-7z M34,101h2v1h-2z M45,101h4v1h-4z M71,101h5v1h-5z M94,100h12v2h-12z M145,101h2v1h-2z M151,99h4v3h-4z M188,101h4v1h-4z M196,101h3v1h-3z M230,101h8v1h-8z M19,102h2v1h-2z M26,100h4v3h-4z M33,102h3v1h-3z M45,102h6v1h-6z M78,102h3v1h-3z M94,102h11v1h-11z M114,101h3v2h-3z M134,100h4v3h-4z M188,102h6v1h-6z M230,102h9v1h-9z M9,103h2v1h-2z M18,103h5v1h-5z M33,103h4v1h-4z M46,103h6v1h-6z M53,101h4v3h-4z M101,103h1v1h-1z M135,103h2v1h-2z M152,102h3v2h-3z M230,103h10v1h-10z M8,104h3v1h-3z M18,104h7v1h-7z M27,103h4v2h-4z M34,104h2v1h-2z M47,104h10v1h-10z M78,103h4v2h-4z M94,103h6v2h-6z M152,104h2v1h-2z M189,103h5v2h-5z M236,104h4v1h-4z M18,105h13v1h-13z M48,105h9v1h-9z M78,105h3v1h-3z M95,105h5v1h-5z M107,105h3v1h-3z M127,105h3v1h-3z M190,105h4v1h-4z M236,105h5v1h-5z M8,105h4v2h-4z M20,106h12v1h-12z M49,106h8v1h-8z M79,106h1v1h-1z M96,106h6v1h-6z M128,106h2v1h-2z M176,106h1v1h-1z M192,106h1v1h-1z M237,106h4v1h-4z M262,99h4v8h-4z M9,107h2v1h-2z M22,107h10v1h-10z M44,107h2v1h-2z M50,107h7v1h-7z M70,106h3v2h-3z M97,107h6v1h-6z M107,106h4v2h-4z M119,107h1v1h-1z M175,107h3v1h-3z M239,107h2v1h-2z M24,108h8v1h-8z M44,108h3v1h-3z M51,108h6v1h-6z M60,106h3v3h-3z M70,108h2v1h-2z M99,108h5v1h-5z M108,108h2v1h-2z M118,108h3v1h-3z M135,108h3v1h-3z M166,108h4v1h-4z M230,104h4v5h-4z M16,109h2v1h-2z M26,109h6v1h-6z M44,109h2v1h-2z M53,109h4v1h-4z M83,109h1v1h-1z M93,109h1v1h-1z M99,109h4v1h-4z M117,109h5v1h-5z M134,109h4v1h-4z M166,109h5v1h-5z M231,109h2v1h-2z M28,110h3v1h-3z M82,110h4v1h-4z M118,110h4v1h-4z M134,110h5v1h-5z M166,110h6v1h-6z M174,108h4v3h-4z M15,110h4v2h-4z M37,111h1v1h-1z M81,111h5v1h-5z M126,111h3v1h-3z M135,111h3v1h-3z M167,111h5v1h-5z M173,111h4v1h-4z M17,112h1v1h-1z M82,112h4v1h-4z M92,110h4v3h-4z M112,112h1v1h-1z M125,112h8v1h-8z M168,112h9v1h-9z M1,96h4v18h-4z M72,113h3v1h-3z M83,113h1v1h-1z M93,113h1v1h-1z M125,113h10v1h-10z M169,113h8v1h-8z M1,114h8v1h-8z M36,112h4v3h-4z M57,113h2v2h-2z M125,114h11v1h-11z M170,114h7v1h-7z M20,115h3v1h-3z M36,115h3v1h-3z M50,115h1v1h-1z M109,115h1v1h-1z M126,115h10v1h-10z M171,115h6v1h-6z M205,115h2v1h-2z M212,115h3v1h-3z M251,115h3v1h-3z M262,107h5v9h-5z M1,115h9v2h-9z M72,114h4v3h-4z M126,116h4v1h-4z M132,116h3v1h-3z M171,116h5v1h-5z M204,116h3v1h-3z M211,116h4v1h-4z M8,117h1v1h-1z M12,117h3v1h-3z M20,116h4v2h-4z M63,117h4v1h-4z M108,116h3v2h-3z M172,117h4v1h-4z M210,117h5v1h-5z M251,116h4v2h-4z M11,118h5v1h-5z M21,118h2v1h-2z M62,118h8v1h-8z M86,118h2v1h-2z M101,116h3v3h-3z M174,118h1v1h-1z M204,117h4v2h-4z M210,118h4v1h-4z M250,118h6v1h-6z M262,116h4v3h-4z M10,119h6v1h-6z M39,119h4v1h-4z M62,119h11v1h-11z M79,119h2v1h-2z M127,117h4v3h-4z M157,119h2v1h-2z M205,119h9v1h-9z M250,119h7v1h-7z M10,120h7v1h-7z M27,120h1v1h-1z M39,120h5v1h-5z M62,120h13v1h-13z M108,118h4v3h-4z M114,120h3v1h-3z M135,120h2v1h-2z M187,120h3v1h-3z M225,120h1v1h-1z M249,120h8v1h-8z M9,121h8v1h-8z M26,121h3v1h-3z M38,121h7v1h-7z M63,121h12v1h-12z M78,120h4v2h-4z M108,121h3v1h-3z M113,121h5v1h-5z M122,121h3v1h-3z M128,120h4v2h-4z M135,121h3v1h-3z M147,121h3v1h-3z M156,120h4v2h-4z M186,121h4v1h-4z M205,120h8v2h-8z M224,121h8v1h-8z M249,121h9v1h-9z M9,122h9v1h-9z M26,122h4v1h-4z M48,122h3v1h-3z M63,122h6v1h-6z M70,122h4v1h-4z M78,122h3v1h-3z M94,122h1v1h-1z M108,122h10v1h-10z M129,122h3v1h-3z M134,122h5v1h-5z M155,122h4v1h-4z M185,122h5v1h-5z M249,122h4v1h-4z M254,122h4v1h-4z M262,119h5v4h-5z M8,123h10v1h-10z M26,123h3v1h-3z M37,122h8v2h-8z M48,123h4v1h-4z M64,123h4v1h-4z M85,119h4v5h-4z M92,123h4v1h-4z M108,123h9v1h-9z M121,122h4v2h-4z M130,123h1v1h-1z M135,123h3v1h-3z M147,122h4v2h-4z M154,123h5v1h-5z M184,123h5v1h-5z M206,122h6v2h-6z M223,122h12v2h-12z M254,123h5v1h-5z M8,124h4v1h-4z M14,124h5v1h-5z M36,124h4v1h-4z M41,124h5v1h-5z M49,124h2v1h-2z M64,124h5v1h-5z M86,124h4v1h-4z M91,124h5v1h-5z M108,124h7v1h-7z M123,124h2v1h-2z M136,124h1v1h-1z M148,124h4v1h-4z M154,124h4v1h-4z M183,124h5v1h-5z M207,124h4v1h-4z M224,124h11v1h-11z M1,117h4v9h-4z M7,125h5v1h-5z M15,125h4v1h-4z M35,125h5v1h-5z M42,125h4v1h-4z M65,125h4v1h-4z M86,125h9v1h-9z M102,125h2v1h-2z M108,125h6v1h-6z M148,125h10v1h-10z M182,125h5v1h-5z M208,125h2v1h-2z M224,125h5v1h-5z M232,125h2v1h-2z M248,123h4v3h-4z M255,124h4v2h-4z M42,126h5v1h-5z M109,126h4v1h-4z M149,126h9v1h-9z M181,126h6v1h-6z M225,126h4v1h-4z M248,126h3v1h-3z M256,126h3v1h-3z M1,126h10v2h-10z M16,126h4v2h-4z M34,126h5v2h-5z M65,126h5v2h-5z M86,126h8v2h-8z M101,126h3v2h-3z M181,127h10v1h-10z M225,127h5v1h-5z M247,127h4v1h-4z M1,128h5v1h-5z M7,128h3v1h-3z M17,128h2v1h-2z M34,128h4v1h-4z M43,127h5v2h-5z M57,126h4v3h-4z M66,128h3v1h-3z M74,127h3v2h-3z M86,128h7v1h-7z M98,128h1v1h-1z M120,128h3v1h-3z M128,128h2v1h-2z M150,127h7v2h-7z M181,128h11v1h-11z M22,129h3v1h-3z M34,129h3v1h-3z M44,129h3v1h-3z M58,129h2v1h-2z M73,129h5v1h-5z M82,129h2v1h-2z M120,129h4v1h-4z M128,129h3v1h-3z M135,129h3v1h-3z M151,129h5v1h-5z M182,129h11v1h-11z M226,128h5v2h-5z M1,129h4v2h-4z M21,130h4v1h-4z M74,130h3v1h-3z M87,129h5v2h-5z M97,129h3v2h-3z M112,130h1v1h-1z M120,130h3v1h-3z M127,130h4v1h-4z M152,130h4v1h-4z M184,130h9v1h-9z M227,130h4v1h-4z M21,131h3v1h-3z M81,130h4v2h-4z M88,131h3v1h-3z M97,131h4v1h-4z M112,131h2v1h-2z M135,130h4v2h-4z M190,131h2v1h-2z M228,131h2v1h-2z M1,131h5v2h-5z M22,132h2v1h-2z M82,132h3v1h-3z M98,132h1v1h-1z M112,132h3v1h-3z M136,132h2v1h-2z M262,123h4v10h-4z M1,133h6v1h-6z M9,133h1v1h-1z M68,133h1v1h-1z M76,133h3v1h-3z M80,133h1v1h-1z M82,133h4v1h-4z M97,133h4v1h-4z M110,133h5v1h-5z M136,133h1v1h-1z M157,133h1v1h-1z M227,133h3v1h-3z M231,133h6v1h-6z M239,133h3v1h-3z M254,133h2v1h-2z M258,133h8v1h-8z M1,134h265v2h-265z M2,136h263v1h-263z M3,137h257v1h-257z M263,137h1v1h-1z M18,138h1v1h-1z M78,138h4v1h-4z
  "/>
</svg>