<?xml version="1.0" encoding="UTF-8"?>
<svg xmlns="http://www.w3.org/2000/svg" viewBox="0 0 255 141" width="255" height="141">
  <title>20 Marble</title>
  <path fill="#111111" fill-rule="nonzero" d="
    M235,0h4v1h-4z M248,0h4v1h-4z M187,1h6v1h-6z M202,1h51v1h-51z M173,2h1v1h-1z M175,2h2v1h-2z M180,2h74v1h-74z M2,3h21v1h-21z M130,3h1v1h-1z M136,3h118v1h-118z M1,4h36v1h-36z M111,4h143v1h-143z M1,5h58v1h-58z M60,5h1v1h-1z M89,5h107v1h-107z M198,5h3v1h-3z M1,6h5v1h-5z M9,6h140v1h-140z M153,6h8v1h-8z M175,6h5v1h-5z M24,7h106v1h-106z M42,8h1v1h-1z M44,8h66v1h-66z M176,7h3v2h-3z M54,9h6v1h-6z M61,9h25v1h-25z M116,8h5v2h-5z M55,10h5v1h-5z M176,9h4v2h-4z M232,5h4v6h-4z M51,11h9v1h-9z M175,11h5v1h-5z M229,11h16v1h-16z M46,12h16v1h-16z M116,10h4v3h-4z M175,12h15v1h-15z M43,13h22v1h-22z M116,13h5v1h-5z M221,12h25v2h-25z M250,5h4v9h-4z M41,14h26v1h-26z M110,14h2v1h-2z M116,14h11v1h-11z M167,13h24v2h-24z M222,14h23v1h-23z M249,14h5v1h-5z M40,15h13v1h-13z M61,15h8v1h-8z M108,15h21v1h-21z M167,15h13v1h-13z M183,15h1v1h-1z M187,15h3v1h-3z M231,15h5v1h-5z M62,16h9v1h-9z M107,16h22v1h-22z M40,16h8v2h-8z M64,17h9v1h-9z M108,17h21v1h-21z M175,16h5v2h-5z M41,18h9v1h-9z M67,18h6v1h-6z M109,18h6v1h-6z M116,18h5v1h-5z M175,18h4v1h-4z M42,19h11v1h-11z M65,19h8v1h-8z M45,20h9v1h-9z M61,20h12v1h-12z M176,19h4v2h-4z M250,15h4v6h-4z M1,7h4v15h-4z M47,21h25v1h-25z M176,21h3v1h-3z M232,16h4v6h-4z M249,21h5v1h-5z M1,22h5v1h-5z M51,22h20v1h-20z M175,22h5v1h-5z M211,22h5v1h-5z M219,22h7v1h-7z M228,22h26v1h-26z M1,23h11v1h-11z M52,23h13v1h-13z M117,19h3v5h-3z M170,23h84v1h-84z M1,24h32v1h-32z M47,24h2v1h-2z M54,24h6v1h-6z M116,24h5v1h-5z M129,24h2v1h-2z M136,24h118v1h-118z M1,25h59v1h-59z M97,25h157v1h-157z M1,26h65v1h-65z M74,26h125v1h-125z M201,26h1v1h-1z M204,26h7v1h-7z M216,26h3v1h-3z M225,26h1v1h-1z M249,26h5v1h-5z M21,27h3v1h-3z M26,27h119v1h-119z M148,27h5v1h-5z M27,28h5v1h-5z M40,28h75v1h-75z M119,28h1v1h-1z M129,28h1v1h-1z M26,29h6v1h-6z M59,29h34v1h-34z M95,29h7v1h-7z M205,27h5v3h-5z M23,30h10v1h-10z M80,30h1v1h-1z M84,30h1v1h-1z M86,30h7v1h-7z M18,31h18v1h-18z M84,31h11v1h-11z M206,30h4v2h-4z M14,32h24v1h-24z M82,32h16v1h-16z M135,28h4v5h-4z M200,32h2v1h-2z M205,32h6v1h-6z M212,32h7v1h-7z M13,33h8v1h-8z M22,33h7v1h-7z M30,33h10v1h-10z M78,33h22v1h-22z M134,33h5v1h-5z M143,33h3v1h-3z M33,34h10v1h-10z M75,34h13v1h-13z M91,34h12v1h-12z M130,34h17v1h-17z M194,33h25v2h-25z M13,34h7v2h-7z M35,35h10v1h-10z M74,35h11v1h-11z M94,35h12v1h-12z M129,35h19v1h-19z M194,35h23v1h-23z M13,36h9v1h-9z M37,36h8v1h-8z M73,36h9v1h-9z M97,36h10v1h-10z M129,36h18v1h-18z M195,36h6v1h-6z M205,36h6v1h-6z M14,37h11v1h-11z M36,37h10v1h-10z M73,37h6v1h-6z M99,37h8v1h-8z M130,37h12v1h-12z M144,37h2v1h-2z M206,37h4v1h-4z M16,38h30v1h-30z M73,38h7v1h-7z M97,38h10v1h-10z M19,39h26v1h-26z M73,39h10v1h-10z M94,39h11v1h-11z M182,39h1v1h-1z M250,27h4v13h-4z M22,40h19v1h-19z M74,40h13v1h-13z M91,40h12v1h-12z M181,40h3v1h-3z M206,38h3v3h-3z M249,40h5v1h-5z M1,27h4v15h-4z M25,41h12v1h-12z M75,41h25v1h-25z M180,41h4v1h-4z M193,41h2v1h-2z M205,41h8v1h-8z M216,41h38v1h-38z M1,42h5v1h-5z M80,42h17v1h-17z M135,38h4v5h-4z M169,42h4v1h-4z M174,42h1v1h-1z M177,42h77v1h-77z M1,43h19v1h-19z M23,43h2v1h-2z M26,42h6v2h-6z M82,43h13v1h-13z M134,43h5v1h-5z M142,43h2v1h-2z M145,43h109v1h-109z M1,44h39v1h-39z M84,44h9v1h-9z M116,44h4v1h-4z M121,44h120v1h-120z M242,44h12v1h-12z M1,45h54v1h-54z M81,45h117v1h-117z M1,46h64v1h-64z M71,46h72v1h-72z M150,46h4v1h-4z M178,46h5v1h-5z M249,45h5v2h-5z M22,47h105v1h-105z M129,47h2v1h-2z M179,47h3v1h-3z M27,48h6v1h-6z M45,48h2v1h-2z M49,48h52v1h-52z M105,48h2v1h-2z M115,48h6v1h-6z M179,48h4v1h-4z M58,49h31v1h-31z M116,49h4v1h-4z M250,47h4v3h-4z M59,50h5v1h-5z M235,45h4v6h-4z M59,51h4v1h-4z M178,49h6v3h-6z M227,51h18v1h-18z M58,52h6v1h-6z M117,50h3v3h-3z M171,52h20v1h-20z M52,53h13v1h-13z M116,53h5v1h-5z M125,53h2v1h-2z M169,53h22v1h-22z M225,52h21v2h-21z M250,50h5v4h-5z M48,54h21v1h-21z M107,54h21v1h-21z M169,54h23v1h-23z M226,54h19v1h-19z M46,55h24v1h-24z M106,55h22v1h-22z M171,55h14v1h-14z M186,55h5v1h-5z M234,55h6v1h-6z M45,56h14v1h-14z M60,56h14v1h-14z M106,56h21v1h-21z M178,56h5v1h-5z M45,57h10v1h-10z M65,57h11v1h-11z M107,57h14v1h-14z M46,58h9v1h-9z M47,59h10v1h-10z M67,58h10v2h-10z M116,58h4v2h-4z M48,60h11v1h-11z M63,60h14v1h-14z M235,56h4v5h-4z M250,54h4v7h-4z M1,47h4v15h-4z M51,61h25v1h-25z M117,60h3v2h-3z M179,57h4v5h-4z M229,61h1v1h-1z M231,61h2v1h-2z M234,61h6v1h-6z M249,61h5v1h-5z M1,62h5v1h-5z M54,62h19v1h-19z M178,62h6v1h-6z M190,62h4v1h-4z M197,62h57v1h-57z M1,63h19v1h-19z M57,63h13v1h-13z M116,62h4v2h-4z M153,63h12v1h-12z M168,63h86v1h-86z M1,64h32v1h-32z M58,64h6v1h-6z M65,64h2v1h-2z M116,64h6v1h-6z M128,64h126v1h-126z M1,65h63v1h-63z M90,65h1v1h-1z M93,65h136v1h-136z M232,65h7v1h-7z M249,65h5v1h-5z M1,66h5v1h-5z M8,66h60v1h-60z M71,66h85v1h-85z M157,66h4v1h-4z M164,66h8v1h-8z M217,66h5v1h-5z M20,67h112v1h-112z M217,67h4v1h-4z M21,68h4v1h-4z M40,68h68v1h-68z M111,68h2v1h-2z M165,67h4v2h-4z M217,68h5v1h-5z M21,69h5v1h-5z M58,69h35v1h-35z M217,69h4v1h-4z M18,70h11v1h-11z M87,70h6v1h-6z M166,69h3v2h-3z M217,70h5v1h-5z M15,71h15v1h-15z M86,71h9v1h-9z M165,71h5v1h-5z M217,71h12v1h-12z M11,72h21v1h-21z M84,72h13v1h-13z M165,72h12v1h-12z M211,72h19v1h-19z M8,73h27v1h-27z M81,73h19v1h-19z M159,73h19v1h-19z M209,73h22v1h-22z M8,74h11v1h-11z M27,74h10v1h-10z M79,74h10v1h-10z M91,74h12v1h-12z M158,74h21v1h-21z M209,74h21v1h-21z M7,75h9v1h-9z M29,75h10v1h-10z M76,75h10v1h-10z M94,75h10v1h-10z M157,75h20v1h-20z M210,75h19v1h-19z M7,76h8v1h-8z M31,76h9v1h-9z M75,76h10v1h-10z M97,76h9v1h-9z M159,76h16v1h-16z M211,76h3v1h-3z M217,76h5v1h-5z M8,77h8v1h-8z M32,77h8v1h-8z M74,77h8v1h-8z M99,77h7v1h-7z M165,77h5v1h-5z M8,78h10v1h-10z M30,78h10v1h-10z M74,78h7v1h-7z M99,78h8v1h-8z M165,78h4v1h-4z M10,79h10v1h-10z M26,79h14v1h-14z M75,79h8v1h-8z M97,79h9v1h-9z M12,80h26v1h-26z M75,80h12v1h-12z M93,80h12v1h-12z M217,77h4v4h-4z M250,66h4v15h-4z M15,81h21v1h-21z M77,81h26v1h-26z M166,79h3v3h-3z M217,81h5v1h-5z M237,81h2v1h-2z M244,81h4v1h-4z M249,81h5v1h-5z M18,82h14v1h-14z M79,82h21v1h-21z M165,82h4v1h-4z M202,82h52v1h-52z M1,67h4v17h-4z M20,83h10v1h-10z M81,83h17v1h-17z M161,83h1v1h-1z M164,83h7v1h-7z M173,83h81v1h-81z M1,84h6v1h-6z M15,84h1v1h-1z M21,84h7v1h-7z M84,84h11v1h-11z M142,84h1v1h-1z M145,84h109v1h-109z M1,85h30v1h-30z M87,85h7v1h-7z M114,85h125v1h-125z M249,85h5v1h-5z M1,86h48v1h-48z M51,86h2v1h-2z M87,86h96v1h-96z M184,86h9v1h-9z M1,87h62v1h-62z M75,87h83v1h-83z M163,87h1v1h-1z M234,86h4v2h-4z M1,88h5v1h-5z M16,88h5v1h-5z M23,88h106v1h-106z M134,88h3v1h-3z M37,89h71v1h-71z M114,89h6v1h-6z M54,90h7v1h-7z M62,90h27v1h-27z M90,90h2v1h-2z M235,88h3v3h-3z M234,91h5v1h-5z M55,91h4v2h-4z M178,87h4v6h-4z M223,92h24v1h-24z M54,93h6v1h-6z M169,93h20v1h-20z M50,94h11v1h-11z M116,90h4v5h-4z M221,93h26v2h-26z M45,95h18v1h-18z M116,95h5v1h-5z M124,95h2v1h-2z M168,94h22v2h-22z M222,95h24v1h-24z M250,86h4v10h-4z M43,96h22v1h-22z M109,96h19v1h-19z M168,96h21v1h-21z M224,96h1v1h-1z M234,96h5v1h-5z M41,97h12v1h-12z M59,97h8v1h-8z M108,97h20v1h-20z M177,97h5v1h-5z M234,97h4v1h-4z M249,96h5v2h-5z M41,98h9v1h-9z M62,98h7v1h-7z M107,98h21v1h-21z M235,98h3v1h-3z M250,98h4v1h-4z M41,99h6v1h-6z M63,99h7v1h-7z M108,99h13v1h-13z M125,99h1v1h-1z M250,99h5v1h-5z M41,100h7v1h-7z M110,100h2v1h-2z M113,100h7v1h-7z M41,101h8v1h-8z M66,100h6v2h-6z M43,102h9v1h-9z M65,102h7v1h-7z M178,98h3v5h-3z M250,100h4v3h-4z M44,103h10v1h-10z M60,103h12v1h-12z M177,103h4v1h-4z M234,99h4v5h-4z M247,103h7v1h-7z M47,104h25v1h-25z M177,104h5v1h-5z M217,104h37v1h-37z M50,105h19v1h-19z M170,105h1v1h-1z M173,105h81v1h-81z M1,89h4v18h-4z M51,106h14v1h-14z M116,101h4v6h-4z M146,106h108v1h-108z M1,107h16v1h-16z M53,107h10v1h-10z M115,107h122v1h-122z M241,107h13v1h-13z M1,108h36v1h-36z M38,108h4v1h-4z M52,108h8v1h-8z M97,108h104v1h-104z M202,108h2v1h-2z M207,108h7v1h-7z M249,108h5v1h-5z M1,109h61v1h-61z M65,109h1v1h-1z M73,109h2v1h-2z M78,109h3v1h-3z M82,109h76v1h-76z M159,109h10v1h-10z M1,110h5v1h-5z M9,110h9v1h-9z M19,110h119v1h-119z M152,110h5v1h-5z M208,109h5v2h-5z M22,111h5v1h-5z M30,111h5v1h-5z M37,111h73v1h-73z M115,111h1v1h-1z M52,112h2v1h-2z M56,112h41v1h-41z M22,112h4v2h-4z M78,113h2v1h-2z M86,113h5v1h-5z M21,114h7v1h-7z M87,114h4v1h-4z M152,111h4v4h-4z M208,111h4v4h-4z M19,115h11v1h-11z M86,115h5v1h-5z M209,115h3v1h-3z M14,116h17v1h-17z M85,116h8v1h-8z M208,116h5v1h-5z M12,117h21v1h-21z M83,117h13v1h-13z M200,117h1v1h-1z M207,117h15v1h-15z M9,118h11v1h-11z M27,118h8v1h-8z M81,118h18v1h-18z M153,115h3v4h-3z M198,118h25v1h-25z M8,119h10v1h-10z M29,119h8v1h-8z M79,119h9v1h-9z M89,119h12v1h-12z M152,119h5v1h-5z M197,119h27v1h-27z M8,120h7v1h-7z M31,120h8v1h-8z M78,120h7v1h-7z M92,120h11v1h-11z M146,120h20v1h-20z M197,120h26v1h-26z M34,121h7v1h-7z M76,121h7v1h-7z M94,121h12v1h-12z M142,121h25v1h-25z M198,121h24v1h-24z M7,121h6v2h-6z M35,122h6v1h-6z M74,122h7v1h-7z M98,122h9v1h-9z M141,122h26v1h-26z M8,123h6v1h-6z M36,123h5v1h-5z M72,123h6v1h-6z M101,123h7v1h-7z M141,123h24v1h-24z M9,124h8v1h-8z M35,124h6v1h-6z M102,124h6v1h-6z M143,124h3v1h-3z M147,124h1v1h-1z M152,124h6v1h-6z M12,125h7v1h-7z M33,125h8v1h-8z M72,124h5v2h-5z M100,125h7v1h-7z M250,109h4v17h-4z M13,126h8v1h-8z M29,126h11v1h-11z M72,126h7v1h-7z M97,126h9v1h-9z M249,126h5v1h-5z M15,127h8v1h-8z M26,127h11v1h-11z M73,127h7v1h-7z M95,127h7v1h-7z M152,125h5v3h-5z M16,128h18v1h-18z M75,128h9v1h-9z M93,128h8v1h-8z M152,128h4v1h-4z M19,129h13v1h-13z M77,129h10v1h-10z M91,129h8v1h-8z M250,127h4v3h-4z M21,130h8v1h-8z M81,130h16v1h-16z M171,128h2v3h-2z M200,130h1v1h-1z M208,122h4v9h-4z M249,130h5v1h-5z M22,131h5v1h-5z M82,131h13v1h-13z M153,129h3v3h-3z M172,131h1v1h-1z M197,131h6v1h-6z M207,131h7v1h-7z M217,131h3v1h-3z M221,131h33v1h-33z M1,111h4v22h-4z M23,132h4v1h-4z M84,132h10v1h-10z M152,132h5v1h-5z M164,132h5v1h-5z M170,132h84v1h-84z M1,133h6v1h-6z M22,133h5v1h-5z M86,133h6v1h-6z M142,133h112v1h-112z M1,134h29v1h-29z M32,134h1v1h-1z M87,134h4v1h-4z M113,134h140v1h-140z M1,135h49v1h-49z M81,135h1v1h-1z M84,135h1v1h-1z M87,135h5v1h-5z M97,135h155v1h-155z M1,136h66v1h-66z M75,136h109v1h-109z M185,136h11v1h-11z M197,136h5v1h-5z M204,136h1v1h-1z M2,137h148v1h-148z M154,137h1v1h-1z M161,137h3v1h-3z M23,138h101v1h-101z M127,138h2v1h-2z M41,139h60v1h-60z M104,139h1v1h-1z M60,140h31v1h-31z M201,140h3v1h-3z
  "/>
</svg>