<?xml version="1.0" encoding="UTF-8"?>
<svg xmlns="http://www.w3.org/2000/svg" viewBox="0 0 259 140" width="259" height="140">
  <title>41 Peat</title>
  <path fill="#111111" fill-rule="nonzero" d="
    M23,1h1v1h-1z M29,1h9v1h-9z M3,2h53v1h-53z M2,3h91v1h-91z M144,3h3v1h-3z M2,4h163v1h-163z M166,4h4v1h-4z M173,4h7v1h-7z M182,4h3v1h-3z M187,4h3v1h-3z M234,4h1v1h-1z M2,5h9v1h-9z M18,5h6v1h-6z M30,5h227v1h-227z M1,6h9v1h-9z M18,6h5v1h-5z M30,6h5v1h-5z M39,6h7v1h-7z M50,6h7v1h-7z M60,6h7v1h-7z M69,6h189v1h-189z M1,7h8v1h-8z M17,7h5v1h-5z M29,7h5v1h-5z M39,7h6v1h-6z M50,7h4v1h-4z M60,7h6v1h-6z M71,7h6v1h-6z M83,7h6v1h-6z M95,7h5v1h-5z M107,7h6v1h-6z M118,7h8v1h-8z M127,7h1v1h-1z M131,7h7v1h-7z M140,7h118v1h-118z M1,8h7v1h-7z M16,8h5v1h-5z M38,8h6v1h-6z M48,8h6v1h-6z M59,8h6v1h-6z M71,8h5v1h-5z M83,8h5v1h-5z M94,8h5v1h-5z M106,8h5v1h-5z M119,8h5v1h-5z M131,8h6v1h-6z M143,8h5v1h-5z M155,8h6v1h-6z M167,8h6v1h-6z M179,8h6v1h-6z M191,8h7v1h-7z M203,8h6v1h-6z M214,8h7v1h-7z M226,8h6v1h-6z M237,8h8v1h-8z M248,8h10v1h-10z M1,9h6v1h-6z M15,9h6v1h-6z M28,8h5v2h-5z M37,9h6v1h-6z M47,9h6v1h-6z M58,9h5v1h-5z M70,9h5v1h-5z M83,9h4v1h-4z M93,9h5v1h-5z M106,9h4v1h-4z M118,9h4v1h-4z M130,9h6v1h-6z M142,9h5v1h-5z M155,9h4v1h-4z M167,9h4v1h-4z M179,9h4v1h-4z M191,9h5v1h-5z M203,9h5v1h-5z M215,9h4v1h-4z M226,9h5v1h-5z M239,9h4v1h-4z M13,10h6v1h-6z M27,10h6v1h-6z M35,10h17v1h-17z M57,10h5v1h-5z M69,10h5v1h-5z M81,10h5v1h-5z M93,10h4v1h-4z M105,10h4v1h-4z M117,10h5v1h-5z M129,10h6v1h-6z M142,10h4v1h-4z M154,10h4v1h-4z M166,10h5v1h-5z M177,10h5v1h-5z M190,10h5v1h-5z M202,10h5v1h-5z M214,10h4v1h-4z M225,10h5v1h-5z M238,10h4v1h-4z M249,9h9v2h-9z M1,10h7v2h-7z M13,11h5v1h-5z M20,10h3v2h-3z M25,11h27v1h-27z M55,11h7v1h-7z M68,11h7v1h-7z M80,11h5v1h-5z M91,11h5v1h-5z M104,11h4v1h-4z M116,11h5v1h-5z M129,11h5v1h-5z M140,11h5v1h-5z M153,11h4v1h-4z M165,11h4v1h-4z M176,11h5v1h-5z M189,11h5v1h-5z M201,11h5v1h-5z M213,11h4v1h-4z M225,11h4v1h-4z M237,11h4v1h-4z M248,11h5v1h-5z M1,12h5v1h-5z M12,12h5v1h-5z M21,12h2v1h-2z M24,12h28v1h-28z M53,12h7v1h-7z M79,12h16v1h-16z M103,12h4v1h-4z M115,12h6v1h-6z M127,12h11v1h-11z M139,12h6v1h-6z M151,12h5v1h-5z M164,12h4v1h-4z M176,12h4v1h-4z M188,12h5v1h-5z M200,12h5v1h-5z M212,12h4v1h-4z M224,12h4v1h-4z M236,12h5v1h-5z M247,12h4v1h-4z M255,11h3v2h-3z M11,13h6v1h-6z M23,13h5v1h-5z M32,13h19v1h-19z M53,13h6v1h-6z M63,12h12v2h-12z M78,13h17v1h-17z M97,13h3v1h-3z M101,13h6v1h-6z M112,13h7v1h-7z M149,13h6v1h-6z M158,13h2v1h-2z M163,13h5v1h-5z M174,13h5v1h-5z M187,13h10v1h-10z M199,13h5v1h-5z M211,13h4v1h-4z M223,13h4v1h-4z M235,13h6v1h-6z M245,13h6v1h-6z M253,13h5v1h-5z M10,14h8v1h-8z M22,14h5v1h-5z M32,14h8v1h-8z M41,14h8v1h-8z M54,14h4v1h-4z M63,14h7v1h-7z M71,14h4v1h-4z M77,14h17v1h-17z M121,13h24v2h-24z M148,14h6v1h-6z M173,14h5v1h-5z M184,14h20v1h-20z M210,14h5v1h-5z M221,14h6v1h-6z M233,14h25v1h-25z M1,13h4v3h-4z M9,15h10v1h-10z M21,15h5v1h-5z M32,15h5v1h-5z M42,15h6v1h-6z M53,15h4v1h-4z M63,15h6v1h-6z M74,15h1v1h-1z M76,15h5v1h-5z M83,15h11v1h-11z M97,14h10v2h-10z M111,14h6v2h-6z M122,15h23v1h-23z M148,15h5v1h-5z M157,14h11v2h-11z M172,15h5v1h-5z M183,15h32v1h-32z M220,15h6v1h-6z M8,16h17v1h-17z M31,16h5v1h-5z M41,16h5v1h-5z M53,16h3v1h-3z M63,16h5v1h-5z M75,16h5v1h-5z M86,16h9v1h-9z M98,16h6v1h-6z M111,16h4v1h-4z M123,16h6v1h-6z M134,16h9v1h-9z M147,16h5v1h-5z M158,16h10v1h-10z M171,16h6v1h-6z M182,16h34v1h-34z M219,16h7v1h-7z M229,15h29v2h-29z M1,16h3v2h-3z M7,17h17v1h-17z M30,17h5v1h-5z M52,17h3v1h-3z M62,17h5v1h-5z M74,17h5v1h-5z M85,17h17v1h-17z M110,17h4v1h-4z M123,17h4v1h-4z M134,17h5v1h-5z M146,17h5v1h-5z M158,17h5v1h-5z M166,17h1v1h-1z M170,17h5v1h-5z M182,17h7v1h-7z M194,17h17v1h-17z M213,17h3v1h-3z M218,17h7v1h-7z M229,17h7v1h-7z M239,17h8v1h-8z M1,18h4v1h-4z M6,18h18v1h-18z M29,18h6v1h-6z M40,17h5v2h-5z M51,18h4v1h-4z M61,18h4v1h-4z M74,18h4v1h-4z M85,18h16v1h-16z M109,18h4v1h-4z M122,18h4v1h-4z M133,18h5v1h-5z M145,18h5v1h-5z M157,18h5v1h-5z M170,18h4v1h-4z M182,18h5v1h-5z M194,18h5v1h-5z M203,18h7v1h-7z M217,18h6v1h-6z M229,18h6v1h-6z M240,18h5v1h-5z M252,17h6v2h-6z M27,19h9v1h-9z M38,19h7v1h-7z M49,19h16v1h-16z M72,19h4v1h-4z M84,19h17v1h-17z M108,19h4v1h-4z M121,19h4v1h-4z M132,19h5v1h-5z M144,19h5v1h-5z M156,19h5v1h-5z M168,19h5v1h-5z M193,19h5v1h-5z M204,19h5v1h-5z M216,19h5v1h-5z M228,19h5v1h-5z M239,19h5v1h-5z M1,19h22v2h-22z M27,20h40v1h-40z M71,20h5v1h-5z M82,20h19v1h-19z M107,20h5v1h-5z M120,20h4v1h-4z M131,20h6v1h-6z M143,20h5v1h-5z M155,20h5v1h-5z M167,20h5v1h-5z M180,19h5v2h-5z M191,20h6v1h-6z M203,20h5v1h-5z M215,20h5v1h-5z M228,20h4v1h-4z M239,20h4v1h-4z M251,19h7v2h-7z M1,21h21v1h-21z M26,21h41v1h-41z M70,21h5v1h-5z M106,21h9v1h-9z M118,21h17v1h-17z M137,21h2v1h-2z M142,21h6v1h-6z M154,21h5v1h-5z M166,21h5v1h-5z M178,21h6v1h-6z M191,21h5v1h-5z M202,21h4v1h-4z M215,21h4v1h-4z M227,21h5v1h-5z M237,21h6v1h-6z M249,21h9v1h-9z M1,22h8v1h-8z M13,22h6v1h-6z M26,22h4v1h-4z M34,22h28v1h-28z M64,22h4v1h-4z M69,22h5v1h-5z M79,21h22v2h-22z M105,22h29v1h-29z M137,22h11v1h-11z M153,22h5v1h-5z M165,22h30v1h-30z M201,22h5v1h-5z M213,22h5v1h-5z M223,22h12v1h-12z M236,22h8v1h-8z M248,22h10v1h-10z M1,23h5v1h-5z M13,23h5v1h-5z M25,23h4v1h-4z M35,23h18v1h-18z M67,23h6v1h-6z M79,23h6v1h-6z M86,23h15v1h-15z M104,23h29v1h-29z M137,23h12v1h-12z M152,23h5v1h-5z M162,23h32v1h-32z M195,23h3v1h-3z M200,23h6v1h-6z M211,23h6v1h-6z M221,23h24v1h-24z M247,23h5v1h-5z M12,24h5v1h-5z M24,24h4v1h-4z M34,24h16v1h-16z M55,23h5v2h-5z M67,24h4v1h-4z M78,24h21v1h-21z M103,24h5v1h-5z M111,24h1v1h-1z M113,24h19v1h-19z M138,24h10v1h-10z M151,24h5v1h-5z M162,24h31v1h-31z M195,24h12v1h-12z M210,24h7v1h-7z M220,24h32v1h-32z M254,23h4v2h-4z M11,25h5v1h-5z M23,25h4v1h-4z M33,25h16v1h-16z M54,25h4v1h-4z M66,25h4v1h-4z M77,25h5v1h-5z M102,25h5v1h-5z M114,25h5v1h-5z M126,25h5v1h-5z M138,25h5v1h-5z M150,25h5v1h-5z M162,25h29v1h-29z M196,25h11v1h-11z M210,25h9v1h-9z M220,25h30v1h-30z M10,26h5v1h-5z M21,26h6v1h-6z M31,26h18v1h-18z M65,26h4v1h-4z M77,26h4v1h-4z M84,25h13v2h-13z M101,26h4v1h-4z M113,26h4v1h-4z M125,26h5v1h-5z M137,26h4v1h-4z M148,26h6v1h-6z M161,26h4v1h-4z M169,26h9v1h-9z M185,26h5v1h-5z M196,26h10v1h-10z M209,26h17v1h-17z M231,26h7v1h-7z M244,26h5v1h-5z M255,25h3v2h-3z M1,24h4v4h-4z M10,27h4v1h-4z M19,27h30v1h-30z M53,26h4v2h-4z M64,27h5v1h-5z M76,27h4v1h-4z M85,27h11v1h-11z M100,27h4v1h-4z M112,27h5v1h-5z M124,27h5v1h-5z M136,27h4v1h-4z M147,27h6v1h-6z M160,27h4v1h-4z M169,27h8v1h-8z M185,27h4v1h-4z M196,27h4v1h-4z M208,27h17v1h-17z M231,27h5v1h-5z M243,27h5v1h-5z M1,28h5v1h-5z M9,28h4v1h-4z M17,28h32v1h-32z M63,28h5v1h-5z M74,28h5v1h-5z M85,28h10v1h-10z M99,28h5v1h-5z M111,28h5v1h-5z M123,28h4v1h-4z M134,28h6v1h-6z M147,28h5v1h-5z M159,28h5v1h-5z M168,28h8v1h-8z M184,28h4v1h-4z M195,28h4v1h-4z M205,28h19v1h-19z M230,28h5v1h-5z M242,28h5v1h-5z M254,27h4v2h-4z M1,29h12v1h-12z M16,29h33v1h-33z M52,28h3v2h-3z M60,29h7v1h-7z M68,29h2v1h-2z M73,29h6v1h-6z M85,29h19v1h-19z M110,29h5v1h-5z M122,29h5v1h-5z M132,29h7v1h-7z M146,29h5v1h-5z M158,29h4v1h-4z M165,29h11v1h-11z M183,29h4v1h-4z M195,29h3v1h-3z M204,29h19v1h-19z M229,29h5v1h-5z M241,29h5v1h-5z M253,29h5v1h-5z M1,30h11v1h-11z M16,30h7v1h-7z M24,30h1v1h-1z M26,30h29v1h-29z M59,30h6v1h-6z M67,30h4v1h-4z M72,30h8v1h-8z M85,30h30v1h-30z M118,30h1v1h-1z M121,30h5v1h-5z M131,30h8v1h-8z M144,30h6v1h-6z M157,30h5v1h-5z M164,30h14v1h-14z M182,30h5v1h-5z M193,30h5v1h-5z M200,30h23v1h-23z M228,30h5v1h-5z M240,30h5v1h-5z M252,30h6v1h-6z M1,31h10v1h-10z M16,31h5v1h-5z M28,31h4v1h-4z M59,31h5v1h-5z M68,31h12v1h-12z M84,31h30v1h-30z M117,31h11v1h-11z M130,31h9v1h-9z M140,31h9v1h-9z M150,31h4v1h-4z M156,31h5v1h-5z M163,31h24v1h-24z M192,31h5v1h-5z M239,31h7v1h-7z M251,31h7v1h-7z M1,32h8v1h-8z M15,32h6v1h-6z M27,32h4v1h-4z M35,31h19v2h-19z M58,32h5v1h-5z M69,32h6v1h-6z M76,32h3v1h-3z M83,32h31v1h-31z M117,32h31v1h-31z M150,32h9v1h-9z M191,32h5v1h-5z M199,31h34v2h-34z M238,32h10v1h-10z M250,32h8v1h-8z M1,33h7v1h-7z M14,33h6v1h-6z M26,33h4v1h-4z M35,33h17v1h-17z M57,33h6v1h-6z M69,33h5v1h-5z M81,33h5v1h-5z M92,33h7v1h-7z M104,33h10v1h-10z M117,33h6v1h-6z M125,33h14v1h-14z M140,33h6v1h-6z M150,33h8v1h-8z M162,32h25v2h-25z M190,33h5v1h-5z M199,33h35v1h-35z M237,33h21v1h-21z M1,34h6v1h-6z M25,34h5v1h-5z M35,34h16v1h-16z M57,34h5v1h-5z M68,34h5v1h-5z M81,34h4v1h-4z M92,34h5v1h-5z M105,34h5v1h-5z M117,34h4v1h-4z M127,34h10v1h-10z M140,34h5v1h-5z M151,34h6v1h-6z M163,34h19v1h-19z M189,34h5v1h-5z M207,34h26v1h-26z M236,34h5v1h-5z M244,34h14v1h-14z M2,35h4v1h-4z M13,34h5v2h-5z M24,35h5v1h-5z M35,35h5v1h-5z M44,35h7v1h-7z M56,35h5v1h-5z M67,35h5v1h-5z M79,35h5v1h-5z M92,35h4v1h-4z M104,35h5v1h-5z M116,35h4v1h-4z M127,35h6v1h-6z M135,35h1v1h-1z M140,35h4v1h-4z M151,35h5v1h-5z M163,35h18v1h-18z M188,35h5v1h-5z M200,34h5v2h-5z M207,35h21v1h-21z M235,35h5v1h-5z M246,35h12v1h-12z M2,36h5v1h-5z M11,36h7v1h-7z M23,36h4v1h-4z M34,36h5v1h-5z M42,36h9v1h-9z M55,36h4v1h-4z M67,36h4v1h-4z M79,36h4v1h-4z M91,36h4v1h-4z M103,36h5v1h-5z M115,36h4v1h-4z M127,36h4v1h-4z M139,36h5v1h-5z M151,36h4v1h-4z M163,36h17v1h-17z M187,36h5v1h-5z M199,36h5v1h-5z M207,36h20v1h-20z M234,36h5v1h-5z M246,36h5v1h-5z M1,37h19v1h-19z M22,37h5v1h-5z M41,37h10v1h-10z M53,37h6v1h-6z M65,37h4v1h-4z M77,37h5v1h-5z M90,37h4v1h-4z M102,37h5v1h-5z M114,37h5v1h-5z M126,37h5v1h-5z M138,37h6v1h-6z M149,37h5v1h-5z M162,37h9v1h-9z M174,37h5v1h-5z M186,37h4v1h-4z M198,37h5v1h-5z M208,37h18v1h-18z M233,37h5v1h-5z M245,37h5v1h-5z M255,36h3v2h-3z M1,38h25v1h-25z M29,37h10v2h-10z M64,38h5v1h-5z M75,38h6v1h-6z M86,38h8v1h-8z M101,38h5v1h-5z M113,38h5v1h-5z M125,38h4v1h-4z M137,38h8v1h-8z M149,38h4v1h-4z M161,38h4v1h-4z M173,38h5v1h-5z M185,38h4v1h-4z M197,38h5v1h-5z M208,38h17v1h-17z M232,38h5v1h-5z M244,38h7v1h-7z M254,38h4v1h-4z M1,39h12v1h-12z M17,39h9v1h-9z M29,39h9v1h-9z M41,38h18v2h-18z M63,39h5v1h-5z M72,39h23v1h-23z M99,39h6v1h-6z M108,39h10v1h-10z M123,39h7v1h-7z M136,39h10v1h-10z M147,39h6v1h-6z M160,39h4v1h-4z M173,39h4v1h-4z M183,39h6v1h-6z M196,39h5v1h-5z M208,39h16v1h-16z M231,39h5v1h-5z M243,39h15v1h-15z M6,40h6v1h-6z M18,40h6v1h-6z M30,40h5v1h-5z M40,40h19v1h-19z M62,40h5v1h-5z M71,40h24v1h-24z M98,40h6v1h-6z M108,40h11v1h-11z M122,40h31v1h-31z M159,40h5v1h-5z M167,40h2v1h-2z M171,40h7v1h-7z M180,40h11v1h-11z M195,40h6v1h-6z M204,40h21v1h-21z M228,40h8v1h-8z M240,40h18v1h-18z M2,40h3v2h-3z M6,41h5v1h-5z M18,41h5v1h-5z M30,41h4v1h-4z M39,41h7v1h-7z M49,41h8v1h-8z M62,41h4v1h-4z M71,41h23v1h-23z M98,41h5v1h-5z M108,41h10v1h-10z M122,41h32v1h-32z M158,41h5v1h-5z M167,41h33v1h-33z M1,42h9v1h-9z M17,42h4v1h-4z M29,42h4v1h-4z M39,42h5v1h-5z M50,42h5v1h-5z M60,42h5v1h-5z M71,42h19v1h-19z M97,42h5v1h-5z M116,42h2v1h-2z M121,42h32v1h-32z M157,42h6v1h-6z M166,42h34v1h-34z M203,41h55v2h-55z M1,43h8v1h-8z M16,43h4v1h-4z M28,43h4v1h-4z M38,43h5v1h-5z M49,43h5v1h-5z M59,43h5v1h-5z M71,43h5v1h-5z M83,43h5v1h-5z M96,43h5v1h-5z M108,42h5v2h-5z M120,43h5v1h-5z M128,43h12v1h-12z M143,43h5v1h-5z M156,43h6v1h-6z M167,43h8v1h-8z M176,43h9v1h-9z M188,43h9v1h-9z M203,43h6v1h-6z M211,43h47v1h-47z M1,44h7v1h-7z M15,44h4v1h-4z M27,44h4v1h-4z M37,44h5v1h-5z M48,44h5v1h-5z M59,44h4v1h-4z M71,44h4v1h-4z M82,44h5v1h-5z M95,44h4v1h-4z M107,44h5v1h-5z M119,44h7v1h-7z M127,44h12v1h-12z M143,44h4v1h-4z M155,44h6v1h-6z M167,44h5v1h-5z M178,44h5v1h-5z M190,44h5v1h-5z M203,44h4v1h-4z M213,44h6v1h-6z M226,44h5v1h-5z M14,45h4v1h-4z M26,45h4v1h-4z M36,45h5v1h-5z M47,45h5v1h-5z M57,45h5v1h-5z M69,45h5v1h-5z M82,45h4v1h-4z M94,45h5v1h-5z M106,45h4v1h-4z M118,45h20v1h-20z M142,45h4v1h-4z M153,45h5v1h-5z M166,45h5v1h-5z M177,45h5v1h-5z M190,45h4v1h-4z M202,45h5v1h-5z M213,45h4v1h-4z M225,45h5v1h-5z M236,44h22v2h-22z M1,45h6v2h-6z M13,46h5v1h-5z M25,46h5v1h-5z M32,46h9v1h-9z M45,46h8v1h-8z M57,46h4v1h-4z M68,46h5v1h-5z M81,46h4v1h-4z M93,46h5v1h-5z M105,46h4v1h-4z M117,46h21v1h-21z M141,46h4v1h-4z M152,46h5v1h-5z M166,46h4v1h-4z M177,46h4v1h-4z M189,46h5v1h-5z M201,46h4v1h-4z M212,46h4v1h-4z M224,46h4v1h-4z M236,46h5v1h-5z M242,46h16v1h-16z M2,47h21v1h-21z M24,47h6v1h-6z M31,47h11v1h-11z M45,47h16v1h-16z M67,47h6v1h-6z M79,47h5v1h-5z M91,47h18v1h-18z M115,47h22v1h-22z M139,47h5v1h-5z M151,47h5v1h-5z M165,47h4v1h-4z M175,47h5v1h-5z M188,47h5v1h-5z M200,47h5v1h-5z M211,47h4v1h-4z M223,47h4v1h-4z M234,47h5v1h-5z M244,47h8v1h-8z M2,48h40v1h-40z M44,48h21v1h-21z M66,48h8v1h-8z M78,48h9v1h-9z M139,48h4v1h-4z M150,48h7v1h-7z M164,48h4v1h-4z M175,48h4v1h-4z M187,48h5v1h-5z M199,48h5v1h-5z M210,48h5v1h-5z M222,48h5v1h-5z M230,48h1v1h-1z M232,48h7v1h-7z M245,48h6v1h-6z M1,49h36v1h-36z M43,49h6v1h-6z M50,49h24v1h-24z M77,49h6v1h-6z M84,49h4v1h-4z M90,48h46v2h-46z M138,49h6v1h-6z M145,49h23v1h-23z M174,49h4v1h-4z M186,49h6v1h-6z M193,49h10v1h-10z M209,49h7v1h-7z M221,49h5v1h-5z M228,49h12v1h-12z M245,49h5v1h-5z M1,50h4v1h-4z M8,50h6v1h-6z M16,50h2v1h-2z M20,50h8v1h-8z M29,50h9v1h-9z M42,50h5v1h-5z M52,50h22v1h-22z M76,50h6v1h-6z M84,50h10v1h-10z M95,50h27v1h-27z M123,50h46v1h-46z M173,50h5v1h-5z M180,50h26v1h-26z M207,50h10v1h-10z M220,50h5v1h-5z M228,50h13v1h-13z M244,50h6v1h-6z M254,47h4v4h-4z M8,51h4v1h-4z M19,51h27v1h-27z M52,51h6v1h-6z M59,51h1v1h-1z M61,51h7v1h-7z M75,51h6v1h-6z M85,51h7v1h-7z M99,51h6v1h-6z M109,51h7v1h-7z M123,51h5v1h-5z M132,51h37v1h-37z M172,51h6v1h-6z M192,51h25v1h-25z M219,51h5v1h-5z M228,51h12v1h-12z M242,51h8v1h-8z M1,51h3v2h-3z M7,52h4v1h-4z M18,52h28v1h-28z M52,52h3v1h-3z M62,52h5v1h-5z M75,52h5v1h-5z M86,52h6v1h-6z M99,52h5v1h-5z M110,52h5v1h-5z M122,52h5v1h-5z M133,52h6v1h-6z M141,52h10v1h-10z M155,52h8v1h-8z M167,52h2v1h-2z M171,52h7v1h-7z M180,51h8v2h-8z M194,52h29v1h-29z M228,52h6v1h-6z M237,52h2v1h-2z M242,52h7v1h-7z M253,51h5v2h-5z M1,53h4v1h-4z M6,53h5v1h-5z M18,53h27v1h-27z M51,53h4v1h-4z M61,53h5v1h-5z M73,53h6v1h-6z M86,53h5v1h-5z M98,53h4v1h-4z M109,53h5v1h-5z M121,53h5v1h-5z M133,53h5v1h-5z M144,53h6v1h-6z M158,53h4v1h-4z M170,53h4v1h-4z M193,53h6v1h-6z M202,53h8v1h-8z M216,53h6v1h-6z M228,53h5v1h-5z M240,53h5v1h-5z M252,53h6v1h-6z M17,54h28v1h-28z M50,54h4v1h-4z M61,54h4v1h-4z M73,54h5v1h-5z M85,54h5v1h-5z M97,54h4v1h-4z M109,54h4v1h-4z M120,54h5v1h-5z M132,54h5v1h-5z M144,54h5v1h-5z M157,54h4v1h-4z M169,54h4v1h-4z M176,53h11v2h-11z M193,54h4v1h-4z M203,54h5v1h-5z M216,54h4v1h-4z M227,54h5v1h-5z M239,54h5v1h-5z M251,54h7v1h-7z M1,54h8v2h-8z M14,55h40v1h-40z M59,55h6v1h-6z M71,55h7v1h-7z M83,55h6v1h-6z M95,55h6v1h-6z M108,55h4v1h-4z M119,55h6v1h-6z M131,55h5v1h-5z M143,55h4v1h-4z M156,55h4v1h-4z M168,55h4v1h-4z M176,55h12v1h-12z M191,55h5v1h-5z M215,55h4v1h-4z M226,55h5v1h-5z M238,55h5v1h-5z M250,55h7v1h-7z M1,56h9v1h-9z M13,56h54v1h-54z M68,56h11v1h-11z M82,56h7v1h-7z M92,56h10v1h-10z M106,56h5v1h-5z M118,56h7v1h-7z M130,56h5v1h-5z M142,56h5v1h-5z M155,56h4v1h-4z M167,56h4v1h-4z M176,56h20v1h-20z M202,55h5v2h-5z M214,56h4v1h-4z M225,56h5v1h-5z M237,56h5v1h-5z M249,56h8v1h-8z M1,57h10v1h-10z M12,57h11v1h-11z M24,57h6v1h-6z M31,57h57v1h-57z M91,57h12v1h-12z M105,57h5v1h-5z M114,57h1v1h-1z M116,57h18v1h-18z M141,57h5v1h-5z M154,57h5v1h-5z M165,57h5v1h-5z M213,57h5v1h-5z M224,57h5v1h-5z M236,57h6v1h-6z M248,57h9v1h-9z M1,58h22v1h-22z M24,58h5v1h-5z M32,58h21v1h-21z M54,58h33v1h-33z M91,58h18v1h-18z M112,58h22v1h-22z M137,58h9v1h-9z M149,58h10v1h-10z M160,58h11v1h-11z M176,57h31v2h-31z M211,58h7v1h-7z M223,58h5v1h-5z M234,58h23v1h-23z M7,59h21v1h-21z M33,59h6v1h-6z M43,59h8v1h-8z M55,59h5v1h-5z M63,59h22v1h-22z M91,59h5v1h-5z M112,59h21v1h-21z M175,59h43v1h-43z M222,59h5v1h-5z M231,59h26v1h-26z M1,59h4v2h-4z M10,60h17v1h-17z M33,60h5v1h-5z M44,60h5v1h-5z M54,60h5v1h-5z M65,60h6v1h-6z M91,60h4v1h-4z M99,59h9v2h-9z M113,60h8v1h-8z M126,60h6v1h-6z M136,59h9v2h-9z M149,59h22v2h-22z M174,60h28v1h-28z M204,60h14v1h-14z M221,60h6v1h-6z M230,60h22v1h-22z M253,60h5v1h-5z M10,61h16v1h-16z M32,61h5v1h-5z M43,61h5v1h-5z M53,61h5v1h-5z M66,61h5v1h-5z M78,60h7v2h-7z M90,61h4v1h-4z M98,61h11v1h-11z M112,61h6v1h-6z M126,61h4v1h-4z M136,61h6v1h-6z M143,61h1v1h-1z M149,61h5v1h-5z M157,61h9v1h-9z M173,61h28v1h-28z M207,61h11v1h-11z M220,61h5v1h-5z M230,61h19v1h-19z M9,62h16v1h-16z M32,62h4v1h-4z M42,62h5v1h-5z M53,62h4v1h-4z M65,62h6v1h-6z M77,62h8v1h-8z M89,62h4v1h-4z M98,62h19v1h-19z M124,62h5v1h-5z M136,62h4v1h-4z M149,62h4v1h-4z M159,62h6v1h-6z M172,62h28v1h-28z M207,62h17v1h-17z M229,62h19v1h-19z M254,61h4v2h-4z M1,61h3v3h-3z M8,63h16v1h-16z M31,63h5v1h-5z M41,63h6v1h-6z M52,63h5v1h-5z M64,63h20v1h-20z M88,63h4v1h-4z M98,63h17v1h-17z M123,63h5v1h-5z M135,63h4v1h-4z M159,63h4v1h-4z M171,63h28v1h-28z M207,63h16v1h-16z M229,63h18v1h-18z M253,63h5v1h-5z M28,64h8v1h-8z M40,64h5v1h-5z M49,64h6v1h-6z M63,64h20v1h-20z M87,64h5v1h-5z M97,64h18v1h-18z M122,64h5v1h-5z M134,64h4v1h-4z M147,63h5v2h-5z M158,64h4v1h-4z M171,64h27v1h-27z M206,64h16v1h-16z M253,64h4v1h-4z M1,64h22v2h-22z M47,65h8v1h-8z M61,65h22v1h-22z M86,65h5v1h-5z M97,65h21v1h-21z M121,65h5v1h-5z M133,65h4v1h-4z M146,65h4v1h-4z M157,65h5v1h-5z M169,65h28v1h-28z M205,65h4v1h-4z M212,65h9v1h-9z M228,64h19v2h-19z M252,65h5v1h-5z M39,65h5v2h-5z M47,66h36v1h-36z M85,66h6v1h-6z M96,66h30v1h-30z M131,66h5v1h-5z M145,66h4v1h-4z M156,66h5v1h-5z M168,66h28v1h-28z M204,66h4v1h-4z M214,66h6v1h-6z M227,66h20v1h-20z M250,66h7v1h-7z M1,66h21v2h-21z M26,65h10v3h-10z M38,67h5v1h-5z M95,67h31v1h-31z M130,67h5v1h-5z M144,67h4v1h-4z M152,67h43v1h-43z M203,67h5v1h-5z M212,67h7v1h-7z M224,67h23v1h-23z M249,67h8v1h-8z M1,68h7v1h-7z M13,68h6v1h-6z M26,68h5v1h-5z M37,68h5v1h-5z M47,67h44v2h-44z M95,68h30v1h-30z M129,68h6v1h-6z M137,68h3v1h-3z M143,68h5v1h-5z M151,68h43v1h-43z M210,68h47v1h-47z M1,69h5v1h-5z M13,69h5v1h-5z M25,69h4v1h-4z M36,69h5v1h-5z M47,69h4v1h-4z M54,69h32v1h-32z M93,69h5v1h-5z M104,69h6v1h-6z M116,69h8v1h-8z M128,69h5v1h-5z M138,69h2v1h-2z M142,69h5v1h-5z M151,69h6v1h-6z M159,69h34v1h-34z M197,68h10v2h-10z M210,69h7v1h-7z M218,69h39v1h-39z M12,70h5v1h-5z M24,70h4v1h-4z M35,70h4v1h-4z M46,70h4v1h-4z M56,70h29v1h-29z M92,70h5v1h-5z M104,70h5v1h-5z M116,70h5v1h-5z M123,70h9v1h-9z M139,70h7v1h-7z M151,70h5v1h-5z M161,70h8v1h-8z M175,70h17v1h-17z M197,70h9v1h-9z M210,70h5v1h-5z M219,70h38v1h-38z M1,70h4v2h-4z M12,71h4v1h-4z M23,71h4v1h-4z M34,71h5v1h-5z M45,71h5v1h-5z M55,71h6v1h-6z M62,71h22v1h-22z M91,71h5v1h-5z M103,71h5v1h-5z M115,71h5v1h-5z M123,71h8v1h-8z M139,71h5v1h-5z M151,71h4v1h-4z M163,71h5v1h-5z M175,71h16v1h-16z M198,71h6v1h-6z M210,71h4v1h-4z M220,71h7v1h-7z M232,71h19v1h-19z M253,71h4v1h-4z M1,72h3v1h-3z M11,72h4v1h-4z M22,72h5v1h-5z M33,72h6v1h-6z M44,72h5v1h-5z M54,72h29v1h-29z M90,72h5v1h-5z M102,72h5v1h-5z M114,72h5v1h-5z M139,72h4v1h-4z M150,72h4v1h-4z M162,72h5v1h-5z M174,72h16v1h-16z M198,72h4v1h-4z M209,72h5v1h-5z M221,72h5v1h-5z M232,72h6v1h-6z M242,72h8v1h-8z M1,73h4v1h-4z M9,73h6v1h-6z M20,73h8v1h-8z M42,73h7v1h-7z M53,73h21v1h-21z M89,73h5v1h-5z M101,73h5v1h-5z M113,73h5v1h-5z M122,72h8v2h-8z M138,73h4v1h-4z M149,73h4v1h-4z M161,73h4v1h-4z M173,73h16v1h-16z M196,73h5v1h-5z M208,73h5v1h-5z M221,73h4v1h-4z M231,73h6v1h-6z M243,73h7v1h-7z M254,72h4v2h-4z M19,74h10v1h-10z M32,73h5v2h-5z M38,74h13v1h-13z M53,74h5v1h-5z M60,74h12v1h-12z M76,73h6v2h-6z M88,74h5v1h-5z M100,74h5v1h-5z M112,74h5v1h-5z M122,74h7v1h-7z M136,74h5v1h-5z M148,74h4v1h-4z M160,74h5v1h-5z M172,74h15v1h-15z M195,74h5v1h-5z M207,74h4v1h-4z M220,74h4v1h-4z M231,74h5v1h-5z M243,74h6v1h-6z M254,74h3v1h-3z M1,74h14v2h-14z M18,75h11v1h-11z M31,75h5v1h-5z M38,75h19v1h-19z M61,75h11v1h-11z M75,75h18v1h-18z M99,75h5v1h-5z M111,75h5v1h-5z M121,75h8v1h-8z M136,75h4v1h-4z M147,75h4v1h-4z M159,75h5v1h-5z M171,75h5v1h-5z M178,75h8v1h-8z M195,75h4v1h-4z M206,75h4v1h-4z M218,75h3v1h-3z M242,75h5v1h-5z M1,76h10v1h-10z M12,76h2v1h-2z M18,76h5v1h-5z M25,76h3v1h-3z M30,76h5v1h-5z M39,76h18v1h-18z M61,76h10v1h-10z M74,76h20v1h-20z M98,76h5v1h-5z M109,76h7v1h-7z M120,76h20v1h-20z M145,76h6v1h-6z M158,76h5v1h-5z M167,76h7v1h-7z M180,76h6v1h-6z M193,76h5v1h-5z M205,76h4v1h-4z M217,76h4v1h-4z M229,75h5v2h-5z M241,76h6v1h-6z M253,75h4v2h-4z M1,77h9v1h-9z M17,77h5v1h-5z M29,77h5v1h-5z M39,77h6v1h-6z M48,77h9v1h-9z M60,77h11v1h-11z M73,77h21v1h-21z M97,77h5v1h-5z M107,77h9v1h-9z M120,77h31v1h-31z M156,77h18v1h-18z M179,77h6v1h-6z M192,77h5v1h-5z M202,77h7v1h-7z M215,77h6v1h-6z M227,77h8v1h-8z M240,77h17v1h-17z M16,78h5v1h-5z M28,78h5v1h-5z M38,78h5v1h-5z M49,78h7v1h-7z M68,78h3v1h-3z M72,78h23v1h-23z M96,78h6v1h-6z M106,78h10v1h-10z M155,78h19v1h-19z M179,78h5v1h-5z M214,78h7v1h-7z M226,78h10v1h-10z M239,78h18v1h-18z M1,78h8v2h-8z M15,79h5v1h-5z M27,79h4v1h-4z M38,79h4v1h-4z M48,79h6v1h-6z M60,78h5v2h-5z M71,79h6v1h-6z M83,79h7v1h-7z M92,79h8v1h-8z M106,79h7v1h-7z M119,78h32v2h-32z M155,79h18v1h-18z M177,79h6v1h-6z M187,78h22v2h-22z M213,79h7v1h-7z M225,79h5v1h-5z M1,80h6v1h-6z M14,80h5v1h-5z M26,80h4v1h-4z M37,80h4v1h-4z M48,80h4v1h-4z M59,80h5v1h-5z M70,80h5v1h-5z M82,80h5v1h-5z M93,80h6v1h-6z M106,80h5v1h-5z M117,80h5v1h-5z M140,80h6v1h-6z M154,80h18v1h-18z M177,80h5v1h-5z M187,80h20v1h-20z M212,80h6v1h-6z M224,80h6v1h-6z M233,79h24v2h-24z M1,81h5v1h-5z M13,81h5v1h-5z M25,81h5v1h-5z M36,81h5v1h-5z M47,81h4v1h-4z M58,81h4v1h-4z M69,81h5v1h-5z M81,81h5v1h-5z M93,81h5v1h-5z M105,81h5v1h-5z M116,81h5v1h-5z M129,80h8v2h-8z M141,81h4v1h-4z M153,81h4v1h-4z M159,81h10v1h-10z M176,81h5v1h-5z M188,81h4v1h-4z M197,81h7v1h-7z M212,81h5v1h-5z M223,81h5v1h-5z M235,81h6v1h-6z M247,81h10v1h-10z M1,82h4v1h-4z M13,82h4v1h-4z M24,82h5v1h-5z M35,82h5v1h-5z M46,82h5v1h-5z M57,82h5v1h-5z M69,82h4v1h-4z M80,82h6v1h-6z M92,82h5v1h-5z M104,82h5v1h-5z M115,82h5v1h-5z M126,82h11v1h-11z M140,82h4v1h-4z M152,82h4v1h-4z M159,82h9v1h-9z M175,82h5v1h-5z M187,82h4v1h-4z M198,82h5v1h-5z M211,82h5v1h-5z M222,82h5v1h-5z M234,82h5v1h-5z M247,82h5v1h-5z M1,83h5v1h-5z M10,83h10v1h-10z M23,83h6v1h-6z M33,83h9v1h-9z M45,83h6v1h-6z M53,83h9v1h-9z M64,83h2v1h-2z M67,83h5v1h-5z M77,83h9v1h-9z M91,83h4v1h-4z M103,83h5v1h-5z M114,83h5v1h-5z M124,83h13v1h-13z M138,83h5v1h-5z M151,83h5v1h-5z M157,83h10v1h-10z M174,83h5v1h-5z M186,83h5v1h-5z M197,83h5v1h-5z M210,83h4v1h-4z M222,83h4v1h-4z M234,83h4v1h-4z M246,83h5v1h-5z M1,84h29v1h-29z M33,84h5v1h-5z M39,84h5v1h-5z M45,84h28v1h-28z M75,84h12v1h-12z M90,84h5v1h-5z M102,84h5v1h-5z M113,84h5v1h-5z M122,84h20v1h-20z M150,84h5v1h-5z M156,84h10v1h-10z M173,84h4v1h-4z M186,84h4v1h-4z M196,84h5v1h-5z M209,84h4v1h-4z M221,84h4v1h-4z M233,84h4v1h-4z M245,84h5v1h-5z M1,85h36v1h-36z M39,85h56v1h-56z M100,85h7v1h-7z M112,85h6v1h-6z M120,85h21v1h-21z M149,85h5v1h-5z M155,85h11v1h-11z M172,85h4v1h-4z M184,85h5v1h-5z M195,85h5v1h-5z M208,85h4v1h-4z M220,85h4v1h-4z M231,85h6v1h-6z M244,85h5v1h-5z M1,86h12v1h-12z M18,86h6v1h-6z M27,86h9v1h-9z M40,86h78v1h-78z M119,86h21v1h-21z M148,86h18v1h-18z M170,86h5v1h-5z M183,86h5v1h-5z M194,86h5v1h-5z M207,86h5v1h-5z M219,86h4v1h-4z M230,86h6v1h-6z M243,86h6v1h-6z M254,82h3v5h-3z M1,87h4v1h-4z M6,87h6v1h-6z M19,87h4v1h-4z M28,87h8v1h-8z M41,87h6v1h-6z M52,87h5v1h-5z M58,87h2v1h-2z M71,87h68v1h-68z M177,87h4v1h-4z M182,87h6v1h-6z M193,87h5v1h-5z M205,87h17v1h-17z M229,87h9v1h-9z M242,87h5v1h-5z M1,88h3v1h-3z M6,88h5v1h-5z M18,88h6v1h-6z M27,88h8v1h-8z M40,88h6v1h-6z M52,88h4v1h-4z M62,87h6v2h-6z M72,88h18v1h-18z M93,88h25v1h-25z M119,88h20v1h-20z M143,87h32v2h-32z M177,88h11v1h-11z M192,88h5v1h-5z M202,88h37v1h-37z M240,88h7v1h-7z M248,87h9v2h-9z M1,89h9v1h-9z M17,89h18v1h-18z M40,89h5v1h-5z M51,89h4v1h-4z M62,89h4v1h-4z M73,89h16v1h-16z M96,89h6v1h-6z M106,89h7v1h-7z M120,89h19v1h-19z M143,89h6v1h-6z M153,89h8v1h-8z M162,89h13v1h-13z M178,89h10v1h-10z M191,89h5v1h-5z M202,89h30v1h-30z M234,89h12v1h-12z M1,90h8v1h-8z M16,90h19v1h-19z M39,90h5v1h-5z M50,90h5v1h-5z M61,90h4v1h-4z M72,90h16v1h-16z M96,90h5v1h-5z M107,90h4v1h-4z M120,90h16v1h-16z M143,90h5v1h-5z M155,90h5v1h-5z M165,90h7v1h-7z M178,90h5v1h-5z M191,90h4v1h-4z M202,90h29v1h-29z M235,90h10v1h-10z M1,91h7v1h-7z M15,91h20v1h-20z M38,91h5v1h-5z M49,91h5v1h-5z M60,91h4v1h-4z M71,91h16v1h-16z M95,91h4v1h-4z M106,91h4v1h-4z M119,91h15v1h-15z M143,91h4v1h-4z M155,91h4v1h-4z M165,91h5v1h-5z M178,91h4v1h-4z M189,91h5v1h-5z M201,91h17v1h-17z M224,91h6v1h-6z M249,89h8v3h-8z M14,92h22v1h-22z M37,92h5v1h-5z M48,92h5v1h-5z M59,92h4v1h-4z M70,92h16v1h-16z M94,92h4v1h-4z M105,92h5v1h-5z M118,92h6v1h-6z M125,92h8v1h-8z M142,92h4v1h-4z M153,92h5v1h-5z M165,92h4v1h-4z M177,92h4v1h-4z M188,92h5v1h-5z M200,92h17v1h-17z M224,92h5v1h-5z M236,91h6v2h-6z M248,92h9v1h-9z M1,92h6v2h-6z M13,93h40v1h-40z M57,93h6v1h-6z M69,93h16v1h-16z M93,93h4v1h-4z M117,93h4v1h-4z M127,93h5v1h-5z M141,93h4v1h-4z M153,93h4v1h-4z M164,93h4v1h-4z M176,93h4v1h-4z M187,93h5v1h-5z M199,93h17v1h-17z M224,93h4v1h-4z M235,93h6v1h-6z M247,93h10v1h-10z M1,94h7v1h-7z M12,94h50v1h-50z M63,94h1v1h-1z M79,94h6v1h-6z M92,94h5v1h-5z M104,93h4v2h-4z M116,94h5v1h-5z M127,94h4v1h-4z M140,94h4v1h-4z M152,94h4v1h-4z M163,94h4v1h-4z M175,94h4v1h-4z M186,94h4v1h-4z M222,94h5v1h-5z M235,94h4v1h-4z M246,94h6v1h-6z M11,95h6v1h-6z M18,95h48v1h-48z M68,94h5v2h-5z M76,95h9v1h-9z M91,95h9v1h-9z M102,95h5v1h-5z M115,95h5v1h-5z M126,95h5v1h-5z M139,95h4v1h-4z M151,95h5v1h-5z M162,95h4v1h-4z M173,95h6v1h-6z M185,95h5v1h-5z M196,94h19v2h-19z M221,95h5v1h-5z M234,95h4v1h-4z M245,95h6v1h-6z M253,94h4v2h-4z M1,95h8v2h-8z M10,96h5v1h-5z M19,96h31v1h-31z M51,96h9v1h-9z M62,96h11v1h-11z M75,96h11v1h-11z M90,96h17v1h-17z M110,96h3v1h-3z M114,96h6v1h-6z M123,96h9v1h-9z M137,96h6v1h-6z M148,96h11v1h-11z M160,96h5v1h-5z M171,96h9v1h-9z M184,96h6v1h-6z M196,96h30v1h-30z M233,96h4v1h-4z M243,96h14v1h-14z M1,97h4v1h-4z M9,97h5v1h-5z M19,97h19v1h-19z M39,97h10v1h-10z M53,97h6v1h-6z M63,97h10v1h-10z M75,97h12v1h-12z M88,97h19v1h-19z M110,97h10v1h-10z M122,97h11v1h-11z M136,97h9v1h-9z M146,97h19v1h-19z M170,97h6v1h-6z M178,97h4v1h-4z M183,97h10v1h-10z M194,97h33v1h-33z M231,97h6v1h-6z M241,97h16v1h-16z M8,98h5v1h-5z M42,98h6v1h-6z M53,98h5v1h-5z M64,98h5v1h-5z M71,98h1v1h-1z M75,98h6v1h-6z M82,98h14v1h-14z M97,98h9v1h-9z M110,98h9v1h-9z M122,98h6v1h-6z M130,98h2v1h-2z M135,98h31v1h-31z M170,98h5v1h-5z M179,98h48v1h-48z M231,98h5v1h-5z M1,98h3v2h-3z M8,99h4v1h-4z M19,98h17v2h-17z M42,99h5v1h-5z M53,99h3v1h-3z M63,99h5v1h-5z M75,99h4v1h-4z M85,99h7v1h-7z M98,99h6v1h-6z M110,99h6v1h-6z M122,99h4v1h-4z M134,99h7v1h-7z M142,99h9v1h-9z M156,99h8v1h-8z M169,99h5v1h-5z M179,99h6v1h-6z M189,99h33v1h-33z M230,99h5v1h-5z M240,98h17v2h-17z M1,100h4v1h-4z M7,100h4v1h-4z M18,100h5v1h-5z M28,100h7v1h-7z M41,100h5v1h-5z M52,100h4v1h-4z M62,100h5v1h-5z M74,100h4v1h-4z M85,100h5v1h-5z M97,100h5v1h-5z M110,100h5v1h-5z M122,100h3v1h-3z M134,100h4v1h-4z M144,100h6v1h-6z M156,100h5v1h-5z M169,100h4v1h-4z M179,100h5v1h-5z M191,100h29v1h-29z M229,100h5v1h-5z M240,100h6v1h-6z M1,101h9v1h-9z M17,101h5v1h-5z M29,101h5v1h-5z M40,101h5v1h-5z M51,101h4v1h-4z M62,101h4v1h-4z M73,101h4v1h-4z M96,101h5v1h-5z M109,101h4v1h-4z M120,101h4v1h-4z M133,101h4v1h-4z M144,101h5v1h-5z M156,101h3v1h-3z M167,101h5v1h-5z M179,101h4v1h-4z M191,101h28v1h-28z M228,101h4v1h-4z M239,101h5v1h-5z M251,100h6v2h-6z M1,102h8v1h-8z M16,102h5v1h-5z M28,102h6v1h-6z M39,102h5v1h-5z M50,102h4v1h-4z M61,102h4v1h-4z M72,102h4v1h-4z M84,101h5v2h-5z M95,102h4v1h-4z M108,102h5v1h-5z M119,102h4v1h-4z M131,102h4v1h-4z M143,102h5v1h-5z M155,102h3v1h-3z M167,102h4v1h-4z M178,102h5v1h-5z M191,102h27v1h-27z M226,102h5v1h-5z M238,102h5v1h-5z M249,102h8v1h-8z M1,103h9v1h-9z M15,103h5v1h-5z M25,103h19v1h-19z M48,103h6v1h-6z M59,103h5v1h-5z M71,103h4v1h-4z M83,103h4v1h-4z M94,103h5v1h-5z M107,103h6v1h-6z M118,103h5v1h-5z M130,103h4v1h-4z M143,103h4v1h-4z M153,103h5v1h-5z M166,103h4v1h-4z M177,103h4v1h-4z M189,103h7v1h-7z M225,103h5v1h-5z M237,103h5v1h-5z M1,104h18v1h-18z M48,104h5v1h-5z M58,104h9v1h-9z M69,104h6v1h-6z M81,104h6v1h-6z M92,104h6v1h-6z M106,104h9v1h-9z M116,104h6v1h-6z M129,104h5v1h-5z M141,104h5v1h-5z M153,104h4v1h-4z M165,104h4v1h-4z M176,104h4v1h-4z M188,104h5v1h-5z M200,103h17v2h-17z M224,104h5v1h-5z M236,104h5v1h-5z M248,103h9v2h-9z M47,105h5v1h-5z M57,105h22v1h-22z M80,105h6v1h-6z M91,105h32v1h-32z M128,105h5v1h-5z M140,105h5v1h-5z M152,105h5v1h-5z M164,105h5v1h-5z M175,105h5v1h-5z M187,105h5v1h-5z M199,105h5v1h-5z M209,105h8v1h-8z M223,105h6v1h-6z M235,105h5v1h-5z M247,105h5v1h-5z M1,105h17v2h-17z M23,104h21v3h-21z M47,106h4v1h-4z M56,106h30v1h-30z M90,106h6v1h-6z M98,106h26v1h-26z M127,106h5v1h-5z M136,106h10v1h-10z M150,106h29v1h-29z M183,106h9v1h-9z M197,106h5v1h-5z M206,106h23v1h-23z M234,106h5v1h-5z M241,106h2v1h-2z M246,106h5v1h-5z M1,107h4v1h-4z M10,107h6v1h-6z M23,107h5v1h-5z M34,107h7v1h-7z M46,107h4v1h-4z M55,107h8v1h-8z M65,107h19v1h-19z M90,107h5v1h-5z M98,107h12v1h-12z M112,107h11v1h-11z M126,107h6v1h-6z M135,107h10v1h-10z M149,107h29v1h-29z M182,107h11v1h-11z M196,107h5v1h-5z M233,107h5v1h-5z M240,107h11v1h-11z M10,108h4v1h-4z M23,108h4v1h-4z M34,108h5v1h-5z M45,108h4v1h-4z M54,108h19v1h-19z M76,108h6v1h-6z M89,108h5v1h-5z M100,108h6v1h-6z M113,108h5v1h-5z M120,108h2v1h-2z M125,108h6v1h-6z M136,108h8v1h-8z M149,108h28v1h-28z M182,108h10v1h-10z M196,108h4v1h-4z M205,107h24v2h-24z M232,108h5v1h-5z M240,108h10v1h-10z M9,109h4v1h-4z M44,109h4v1h-4z M54,109h16v1h-16z M76,109h5v1h-5z M88,109h5v1h-5z M100,109h5v1h-5z M113,109h3v1h-3z M124,109h5v1h-5z M136,109h5v1h-5z M147,109h5v1h-5z M159,109h5v1h-5z M170,109h5v1h-5z M183,109h5v1h-5z M195,109h4v1h-4z M218,109h9v1h-9z M231,109h5v1h-5z M241,109h8v1h-8z M254,105h3v5h-3z M9,110h3v1h-3z M21,109h5v2h-5z M33,109h5v2h-5z M43,110h5v1h-5z M53,110h16v1h-16z M75,110h6v1h-6z M87,110h5v1h-5z M100,110h4v1h-4z M123,110h4v1h-4z M135,110h4v1h-4z M146,110h4v1h-4z M159,110h4v1h-4z M170,110h4v1h-4z M182,110h4v1h-4z M194,110h4v1h-4z M206,109h9v2h-9z M218,110h5v1h-5z M230,110h5v1h-5z M241,110h6v1h-6z M253,110h4v1h-4z M1,108h3v4h-3z M7,111h5v1h-5z M19,111h5v1h-5z M32,111h7v1h-7z M42,111h6v1h-6z M53,111h15v1h-15z M75,111h5v1h-5z M86,111h4v1h-4z M99,111h4v1h-4z M111,110h4v2h-4z M135,111h3v1h-3z M145,111h4v1h-4z M158,111h4v1h-4z M169,111h4v1h-4z M182,111h3v1h-3z M193,111h4v1h-4z M205,111h4v1h-4z M211,111h4v1h-4z M217,111h5v1h-5z M229,111h5v1h-5z M241,111h4v1h-4z M252,111h5v1h-5z M1,112h11v1h-11z M17,112h6v1h-6z M26,112h2v1h-2z M29,112h20v1h-20z M52,112h15v1h-15z M73,112h6v1h-6z M85,112h5v1h-5z M98,112h4v1h-4z M109,112h5v1h-5z M122,111h4v2h-4z M133,112h4v1h-4z M145,112h3v1h-3z M157,112h5v1h-5z M168,112h4v1h-4z M180,112h4v1h-4z M192,112h4v1h-4z M204,112h4v1h-4z M216,112h5v1h-5z M228,112h5v1h-5z M240,112h4v1h-4z M251,112h6v1h-6z M17,113h5v1h-5z M25,113h42v1h-42z M72,113h7v1h-7z M83,113h7v1h-7z M97,113h4v1h-4z M108,113h4v1h-4z M120,113h6v1h-6z M127,113h2v1h-2z M132,113h5v1h-5z M144,113h4v1h-4z M155,113h8v1h-8z M166,113h5v1h-5z M191,113h5v1h-5z M203,113h4v1h-4z M211,112h3v2h-3z M215,113h4v1h-4z M227,113h4v1h-4z M239,113h4v1h-4z M250,113h7v1h-7z M2,113h11v2h-11z M16,114h5v1h-5z M25,114h20v1h-20z M47,114h44v1h-44z M96,114h5v1h-5z M107,114h4v1h-4z M119,114h19v1h-19z M142,114h5v1h-5z M154,114h17v1h-17z M179,113h4v2h-4z M188,114h11v1h-11z M202,114h4v1h-4z M210,114h9v1h-9z M226,114h4v1h-4z M237,114h6v1h-6z M249,114h8v1h-8z M1,115h7v1h-7z M11,115h1v1h-1z M16,115h4v1h-4z M27,115h6v1h-6z M37,115h7v1h-7z M95,115h5v1h-5z M101,115h2v1h-2z M106,115h5v1h-5z M118,115h29v1h-29z M152,115h17v1h-17z M171,115h3v1h-3z M178,115h28v1h-28z M210,115h10v1h-10z M225,115h4v1h-4z M234,115h9v1h-9z M245,115h12v1h-12z M1,116h6v1h-6z M15,116h4v1h-4z M27,116h4v1h-4z M37,116h6v1h-6z M48,115h43v2h-43z M94,116h5v1h-5z M116,116h32v1h-32z M151,116h17v1h-17z M171,116h36v1h-36z M210,116h7v1h-7z M218,116h3v1h-3z M224,116h5v1h-5z M14,117h4v1h-4z M26,117h4v1h-4z M37,117h5v1h-5z M47,117h27v1h-27z M78,117h7v1h-7z M93,117h5v1h-5z M101,116h10v2h-10z M115,117h18v1h-18z M136,117h12v1h-12z M151,117h16v1h-16z M171,117h21v1h-21z M197,117h10v1h-10z M210,117h6v1h-6z M218,117h4v1h-4z M223,117h5v1h-5z M232,116h24v2h-24z M1,117h4v2h-4z M13,118h4v1h-4z M22,118h8v1h-8z M36,118h5v1h-5z M46,118h5v1h-5z M53,118h19v1h-19z M79,118h4v1h-4z M92,118h5v1h-5z M101,118h7v1h-7z M115,118h6v1h-6z M127,118h4v1h-4z M138,118h5v1h-5z M145,118h2v1h-2z M150,118h17v1h-17z M172,118h6v1h-6z M183,118h7v1h-7z M197,118h9v1h-9z M210,118h5v1h-5z M220,118h7v1h-7z M232,118h18v1h-18z M252,118h4v1h-4z M12,119h5v1h-5z M20,119h9v1h-9z M35,119h5v1h-5z M45,119h5v1h-5z M53,119h18v1h-18z M78,119h5v1h-5z M91,119h4v1h-4z M102,119h5v1h-5z M114,119h5v1h-5z M126,119h5v1h-5z M137,119h4v1h-4z M173,119h4v1h-4z M184,119h5v1h-5z M197,119h4v1h-4z M209,119h5v1h-5z M232,119h17v1h-17z M11,120h18v1h-18z M34,120h5v1h-5z M77,120h5v1h-5z M90,120h4v1h-4z M101,120h7v1h-7z M113,120h4v1h-4z M125,120h5v1h-5z M137,120h3v1h-3z M149,119h18v2h-18z M172,120h4v1h-4z M184,120h4v1h-4z M196,120h4v1h-4z M208,120h5v1h-5z M220,119h5v2h-5z M232,120h16v1h-16z M254,119h2v2h-2z M1,119h3v3h-3z M10,121h19v1h-19z M33,121h5v1h-5z M40,121h2v1h-2z M44,120h5v2h-5z M54,120h16v2h-16z M89,121h4v1h-4z M100,121h9v1h-9z M112,121h4v1h-4z M124,121h5v1h-5z M136,121h4v1h-4z M148,121h20v1h-20z M171,121h4v1h-4z M183,121h4v1h-4z M195,121h4v1h-4z M207,121h6v1h-6z M219,121h4v1h-4z M230,121h17v1h-17z M1,122h4v1h-4z M9,122h29v1h-29z M39,122h10v1h-10z M53,122h16v1h-16z M76,121h4v2h-4z M88,122h5v1h-5z M99,122h16v1h-16z M123,122h4v1h-4z M135,122h3v1h-3z M146,122h22v1h-22z M170,122h4v1h-4z M182,122h5v1h-5z M194,122h4v1h-4z M206,122h7v1h-7z M218,122h4v1h-4z M229,122h17v1h-17z M253,121h4v2h-4z M1,123h36v1h-36z M38,123h31v1h-31z M75,123h4v1h-4z M87,123h5v1h-5z M98,123h17v1h-17z M122,123h4v1h-4z M133,123h5v1h-5z M145,123h4v1h-4z M181,123h8v1h-8z M191,123h6v1h-6z M205,123h8v1h-8z M217,123h5v1h-5z M228,123h18v1h-18z M252,123h5v1h-5z M1,124h35v1h-35z M38,124h30v1h-30z M71,124h9v1h-9z M85,124h31v1h-31z M121,124h5v1h-5z M128,124h10v1h-10z M144,124h6v1h-6z M153,123h20v2h-20z M179,124h17v1h-17z M204,124h9v1h-9z M216,124h31v1h-31z M251,124h6v1h-6z M1,125h26v1h-26z M28,125h7v1h-7z M39,125h6v1h-6z M47,125h21v1h-21z M70,125h10v1h-10z M84,125h42v1h-42z M143,125h52v1h-52z M203,125h11v1h-11z M215,125h42v1h-42z M1,126h9v1h-9z M16,126h9v1h-9z M29,126h4v1h-4z M39,126h5v1h-5z M48,126h7v1h-7z M59,126h21v1h-21z M84,126h41v1h-41z M128,125h11v2h-11z M142,126h52v1h-52z M198,126h59v1h-59z M1,127h7v1h-7z M16,127h5v1h-5z M28,127h4v1h-4z M38,127h5v1h-5z M49,127h5v1h-5z M59,127h16v1h-16z M83,127h6v1h-6z M91,127h7v1h-7z M100,127h10v1h-10z M114,127h10v1h-10z M128,127h5v1h-5z M137,127h1v1h-1z M141,127h6v1h-6z M148,127h34v1h-34z M188,127h5v1h-5z M197,127h60v1h-60z M1,128h6v1h-6z M15,128h5v1h-5z M48,128h5v1h-5z M58,128h5v1h-5z M65,128h8v1h-8z M81,128h6v1h-6z M92,128h5v1h-5z M103,128h6v1h-6z M116,128h5v1h-5z M128,128h4v1h-4z M140,128h5v1h-5z M150,128h6v1h-6z M159,128h12v1h-12z M173,128h7v1h-7z M188,128h4v1h-4z M198,128h7v1h-7z M207,128h9v1h-9z M222,128h5v1h-5z M232,128h25v1h-25z M1,129h5v1h-5z M14,129h5v1h-5z M27,128h4v2h-4z M37,128h5v2h-5z M47,129h5v1h-5z M56,129h5v1h-5z M66,129h7v1h-7z M81,129h4v1h-4z M92,129h4v1h-4z M103,129h5v1h-5z M116,129h4v1h-4z M127,129h5v1h-5z M139,129h5v1h-5z M150,129h5v1h-5z M174,129h5v1h-5z M187,129h4v1h-4z M198,129h5v1h-5z M208,129h7v1h-7z M233,129h18v1h-18z M1,130h4v1h-4z M13,130h5v1h-5z M25,130h5v1h-5z M36,130h5v1h-5z M46,130h5v1h-5z M55,130h6v1h-6z M66,130h6v1h-6z M80,130h4v1h-4z M91,130h4v1h-4z M103,130h4v1h-4z M116,130h3v1h-3z M126,130h4v1h-4z M138,130h5v1h-5z M150,130h4v1h-4z M162,129h8v2h-8z M173,130h5v1h-5z M186,130h4v1h-4z M198,130h4v1h-4z M208,130h6v1h-6z M222,129h4v2h-4z M233,130h17v1h-17z M2,131h3v1h-3z M12,131h5v1h-5z M24,131h5v1h-5z M35,131h5v1h-5z M45,131h5v1h-5z M54,131h6v1h-6z M66,131h5v1h-5z M79,131h4v1h-4z M90,131h4v1h-4z M102,131h4v1h-4z M114,131h4v1h-4z M125,131h5v1h-5z M137,131h5v1h-5z M148,131h5v1h-5z M161,131h8v1h-8z M172,131h5v1h-5z M184,131h5v1h-5z M197,131h4v1h-4z M208,131h5v1h-5z M220,131h5v1h-5z M232,131h4v1h-4z M239,131h10v1h-10z M1,132h5v1h-5z M7,132h1v1h-1z M11,132h7v1h-7z M19,132h23v1h-23z M44,132h6v1h-6z M53,132h6v1h-6z M65,132h5v1h-5z M78,132h4v1h-4z M89,132h4v1h-4z M113,132h4v1h-4z M124,132h5v1h-5z M136,132h4v1h-4z M160,132h4v1h-4z M172,132h4v1h-4z M184,132h4v1h-4z M196,132h4v1h-4z M208,132h4v1h-4z M219,132h5v1h-5z M231,132h4v1h-4z M240,132h8v1h-8z M2,133h49v1h-49z M52,133h8v1h-8z M63,133h7v1h-7z M76,133h6v1h-6z M88,133h5v1h-5z M101,132h4v2h-4z M112,133h4v1h-4z M123,133h5v1h-5z M135,133h5v1h-5z M147,132h4v2h-4z M159,133h4v1h-4z M170,133h5v1h-5z M182,133h5v1h-5z M195,133h4v1h-4z M207,133h4v1h-4z M219,133h4v1h-4z M230,133h5v1h-5z M241,133h6v1h-6z M253,129h4v5h-4z M2,134h103v1h-103z M108,134h8v1h-8z M122,134h6v1h-6z M134,134h5v1h-5z M146,134h4v1h-4z M158,134h5v1h-5z M169,134h5v1h-5z M181,134h5v1h-5z M194,134h4v1h-4z M206,134h4v1h-4z M217,134h5v1h-5z M229,134h5v1h-5z M241,134h5v1h-5z M252,134h5v1h-5z M3,135h148v1h-148z M152,135h24v1h-24z M180,135h7v1h-7z M192,135h7v1h-7z M202,135h9v1h-9z M216,135h6v1h-6z M228,135h6v1h-6z M240,135h6v1h-6z M251,135h6v1h-6z M39,136h218v1h-218z M74,137h8v1h-8z M83,137h4v1h-4z M88,137h4v1h-4z M94,137h163v1h-163z M167,138h1v1h-1z M174,138h1v1h-1z M177,138h3v1h-3z M186,138h7v1h-7z M194,138h62v1h-62z
  "/>
</svg>