<?xml version="1.0" encoding="UTF-8"?>
<svg xmlns="http://www.w3.org/2000/svg" viewBox="0 0 265 136" width="265" height="136">
  <title>39 Phosphate rock</title>
  <path fill="#111111" fill-rule="nonzero" d="
    M91,1h2v1h-2z M101,1h110v1h-110z M213,1h3v1h-3z M218,1h18v1h-18z M237,1h9v1h-9z M2,2h261v1h-261z M2,3h262v1h-262z M1,4h115v1h-115z M139,4h4v1h-4z M144,4h6v1h-6z M153,4h5v1h-5z M161,4h10v1h-10z M173,4h1v1h-1z M184,4h80v1h-80z M1,5h8v1h-8z M11,5h1v1h-1z M31,5h1v1h-1z M260,5h4v13h-4z M1,6h4v15h-4z M2,21h3v2h-3z M261,18h3v5h-3z M1,23h4v6h-4z M2,29h3v9h-3z M146,37h5v1h-5z M215,37h1v1h-1z M23,38h1v1h-1z M42,38h3v1h-3z M53,38h1v1h-1z M145,38h7v1h-7z M157,38h1v1h-1z M213,38h4v1h-4z M21,39h7v1h-7z M30,38h5v2h-5z M39,39h7v1h-7z M52,39h7v1h-7z M77,39h3v1h-3z M111,39h4v1h-4z M122,39h5v1h-5z M135,39h5v1h-5z M145,39h8v1h-8z M156,39h4v1h-4z M166,39h8v1h-8z M182,39h5v1h-5z M212,39h6v1h-6z M8,40h6v1h-6z M21,40h15v1h-15z M38,40h10v1h-10z M51,40h8v1h-8z M65,40h5v1h-5z M74,40h7v1h-7z M86,40h4v1h-4z M98,40h7v1h-7z M110,40h6v1h-6z M122,40h6v1h-6z M134,40h6v1h-6z M155,40h5v1h-5z M164,40h12v1h-12z M181,40h6v1h-6z M195,40h2v1h-2z M198,40h1v1h-1z M204,40h1v1h-1z M211,40h8v1h-8z M234,40h5v1h-5z M254,40h2v1h-2z M1,38h4v4h-4z M7,41h8v1h-8z M32,41h4v1h-4z M50,41h10v1h-10z M63,41h8v1h-8z M73,41h9v1h-9z M85,41h7v1h-7z M97,41h9v1h-9z M110,41h7v1h-7z M120,41h8v1h-8z M155,41h4v1h-4z M161,41h16v1h-16z M192,41h8v1h-8z M210,41h10v1h-10z M233,41h7v1h-7z M254,41h1v1h-1z M21,41h9v2h-9z M50,42h11v1h-11z M63,42h13v1h-13z M78,42h15v1h-15z M96,42h26v1h-26z M125,42h3v1h-3z M144,40h9v3h-9z M155,42h22v1h-22z M180,41h7v2h-7z M191,42h10v1h-10z M203,41h2v2h-2z M210,42h4v1h-4z M232,42h9v1h-9z M1,42h15v2h-15z M20,43h10v1h-10z M89,43h4v1h-4z M96,43h6v1h-6z M103,43h19v1h-19z M144,43h8v1h-8z M181,43h6v1h-6z M190,43h4v1h-4z M204,43h1v1h-1z M231,43h10v1h-10z M247,43h8v1h-8z M1,44h32v1h-32z M37,41h11v4h-11z M62,43h4v2h-4z M68,43h7v2h-7z M112,44h11v1h-11z M125,43h4v2h-4z M132,41h8v4h-8z M146,44h6v1h-6z M158,43h20v2h-20z M181,44h5v1h-5z M189,44h4v1h-4z M196,43h5v2h-5z M205,44h1v1h-1z M209,43h4v2h-4z M216,42h4v3h-4z M226,44h15v1h-15z M245,44h11v1h-11z M2,45h45v1h-45z M49,43h12v3h-12z M62,45h14v1h-14z M77,43h10v3h-10z M90,44h3v2h-3z M96,44h5v2h-5z M104,44h7v2h-7z M112,45h2v1h-2z M115,45h14v1h-14z M133,45h3v1h-3z M138,45h4v1h-4z M148,45h5v1h-5z M182,45h4v1h-4z M196,45h6v1h-6z M205,45h2v1h-2z M208,45h4v1h-4z M215,45h4v1h-4z M223,45h18v1h-18z M245,45h12v1h-12z M1,46h5v1h-5z M39,46h8v1h-8z M50,46h26v1h-26z M78,46h9v1h-9z M88,46h5v1h-5z M96,46h15v1h-15z M115,46h13v1h-13z M138,46h6v1h-6z M149,46h4v1h-4z M157,45h22v2h-22z M183,46h3v1h-3z M189,45h3v2h-3z M195,46h7v1h-7z M208,46h10v1h-10z M245,46h13v1h-13z M7,46h31v2h-31z M40,47h7v1h-7z M50,47h20v1h-20z M73,47h19v1h-19z M96,47h16v1h-16z M114,47h13v1h-13z M137,47h8v1h-8z M188,47h4v1h-4z M194,47h8v1h-8z M204,46h3v2h-3z M209,47h9v1h-9z M223,46h17v2h-17z M245,47h4v1h-4z M8,48h7v1h-7z M35,48h4v1h-4z M41,48h7v1h-7z M52,48h17v1h-17z M74,48h9v1h-9z M84,48h39v1h-39z M136,48h10v1h-10z M148,47h5v2h-5z M157,47h23v2h-23z M204,48h2v1h-2z M210,48h7v1h-7z M223,48h16v1h-16z M245,48h3v1h-3z M11,49h3v1h-3z M17,48h15v2h-15z M36,49h3v1h-3z M42,49h7v1h-7z M54,49h12v1h-12z M67,49h5v1h-5z M74,49h14v1h-14z M89,49h34v1h-34z M142,49h11v1h-11z M188,48h13v2h-13z M213,49h2v1h-2z M223,49h15v1h-15z M245,49h4v1h-4z M251,47h7v3h-7z M1,47h4v4h-4z M11,50h4v1h-4z M16,50h17v1h-17z M35,50h4v1h-4z M41,50h9v1h-9z M54,50h11v1h-11z M66,50h8v1h-8z M77,50h10v1h-10z M90,50h9v1h-9z M100,50h24v1h-24z M125,50h4v1h-4z M136,49h4v2h-4z M143,50h9v1h-9z M158,49h22v2h-22z M189,50h11v1h-11z M205,50h1v1h-1z M224,50h13v1h-13z M10,51h29v1h-29z M54,51h20v1h-20z M78,51h9v1h-9z M89,51h10v1h-10z M101,51h11v1h-11z M136,51h3v1h-3z M144,51h7v1h-7z M159,51h20v1h-20z M189,51h10v1h-10z M202,51h5v1h-5z M225,51h10v1h-10z M245,50h12v2h-12z M9,52h19v1h-19z M30,52h8v1h-8z M41,51h10v2h-10z M54,52h21v1h-21z M78,52h34v1h-34z M114,51h16v2h-16z M144,52h5v1h-5z M171,52h7v1h-7z M183,50h3v3h-3z M190,52h17v1h-17z M226,52h7v1h-7z M239,52h2v1h-2z M8,53h9v1h-9z M18,53h9v1h-9z M31,53h7v1h-7z M40,53h11v1h-11z M54,53h15v1h-15z M70,53h5v1h-5z M78,53h17v1h-17z M96,53h17v1h-17z M115,53h4v1h-4z M120,53h11v1h-11z M136,52h4v2h-4z M144,53h4v1h-4z M173,53h5v1h-5z M184,53h1v1h-1z M192,53h5v1h-5z M215,53h3v1h-3z M239,53h3v1h-3z M246,52h10v2h-10z M8,54h8v1h-8z M20,54h7v1h-7z M33,54h42v1h-42z M77,54h36v1h-36z M115,54h15v1h-15z M137,54h11v1h-11z M174,54h3v1h-3z M183,54h4v1h-4z M198,53h9v2h-9z M214,54h3v1h-3z M239,54h4v1h-4z M247,54h8v1h-8z M9,55h7v1h-7z M21,55h6v1h-6z M65,55h10v1h-10z M77,55h22v1h-22z M100,55h12v1h-12z M115,55h9v1h-9z M125,55h5v1h-5z M137,55h9v1h-9z M164,55h4v1h-4z M183,55h6v1h-6z M213,55h4v1h-4z M231,55h5v1h-5z M240,55h3v1h-3z M249,55h6v1h-6z M2,51h3v6h-3z M9,56h6v1h-6z M20,56h8v1h-8z M66,56h8v1h-8z M77,56h35v1h-35z M117,56h12v1h-12z M139,56h6v1h-6z M152,56h4v1h-4z M161,56h7v1h-7z M197,55h10v2h-10z M213,56h3v1h-3z M223,56h2v1h-2z M228,56h9v1h-9z M240,56h4v1h-4z M250,56h5v1h-5z M1,57h4v1h-4z M8,57h7v1h-7z M19,57h10v1h-10z M34,55h30v3h-30z M66,57h7v1h-7z M76,57h36v1h-36z M119,57h9v1h-9z M149,57h9v1h-9z M160,57h4v1h-4z M165,57h2v1h-2z M182,56h7v2h-7z M197,57h11v1h-11z M227,57h12v1h-12z M241,57h4v1h-4z M248,57h7v1h-7z M2,58h3v1h-3z M7,58h9v1h-9z M19,58h11v1h-11z M34,58h31v1h-31z M66,58h6v1h-6z M120,58h8v1h-8z M134,58h5v1h-5z M147,58h16v1h-16z M170,58h3v1h-3z M181,58h8v1h-8z M197,58h13v1h-13z M212,58h2v1h-2z M222,57h3v2h-3z M226,58h6v1h-6z M234,58h5v1h-5z M242,58h3v1h-3z M247,58h8v1h-8z M2,59h15v1h-15z M18,59h12v1h-12z M33,59h27v1h-27z M61,59h11v1h-11z M75,58h42v2h-42z M120,59h9v1h-9z M132,59h9v1h-9z M147,59h5v1h-5z M154,59h9v1h-9z M169,59h7v1h-7z M181,59h9v1h-9z M197,59h19v1h-19z M221,59h3v1h-3z M226,59h4v1h-4z M235,59h5v1h-5z M2,60h29v1h-29z M33,60h40v1h-40z M76,60h9v1h-9z M86,60h21v1h-21z M109,60h20v1h-20z M132,60h10v1h-10z M146,60h5v1h-5z M155,60h6v1h-6z M168,60h9v1h-9z M182,60h7v1h-7z M225,60h4v1h-4z M237,60h3v1h-3z M242,59h11v2h-11z M2,61h6v1h-6z M10,61h16v1h-16z M27,61h4v1h-4z M33,61h41v1h-41z M76,61h8v1h-8z M86,61h10v1h-10z M97,61h10v1h-10z M109,61h21v1h-21z M131,61h11v1h-11z M146,61h4v1h-4z M154,61h6v1h-6z M167,61h12v1h-12z M183,61h6v1h-6z M197,60h20v2h-20z M220,60h3v2h-3z M242,61h5v1h-5z M251,61h3v1h-3z M2,62h7v1h-7z M10,62h21v1h-21z M33,62h63v1h-63z M97,62h4v1h-4z M103,62h27v1h-27z M131,62h10v1h-10z M146,62h5v1h-5z M153,62h7v1h-7z M174,62h6v1h-6z M185,62h2v1h-2z M198,62h19v1h-19z M219,62h4v1h-4z M242,62h4v1h-4z M1,63h30v1h-30z M32,63h31v1h-31z M132,63h8v1h-8z M146,63h14v1h-14z M167,62h4v2h-4z M198,63h18v1h-18z M242,63h3v1h-3z M250,62h5v2h-5z M1,64h61v1h-61z M64,63h37v2h-37z M104,63h26v2h-26z M133,64h7v1h-7z M146,64h13v1h-13z M167,64h7v1h-7z M176,63h4v2h-4z M190,64h3v1h-3z M225,61h3v4h-3z M237,61h4v4h-4z M249,64h7v1h-7z M1,65h5v1h-5z M7,65h55v1h-55z M65,65h36v1h-36z M103,65h26v1h-26z M136,65h5v1h-5z M147,65h12v1h-12z M168,65h12v1h-12z M189,65h5v1h-5z M199,64h17v2h-17z M219,63h3v3h-3z M225,65h4v1h-4z M237,65h3v1h-3z M248,65h8v1h-8z M8,66h30v1h-30z M40,66h10v1h-10z M51,66h11v1h-11z M65,66h31v1h-31z M97,66h32v1h-32z M149,66h9v1h-9z M162,66h1v1h-1z M171,66h8v1h-8z M187,66h8v1h-8z M200,66h16v1h-16z M219,66h2v1h-2z M226,66h3v1h-3z M235,66h5v1h-5z M1,66h4v2h-4z M11,67h28v1h-28z M40,67h3v1h-3z M46,67h4v1h-4z M52,67h10v1h-10z M66,67h30v1h-30z M97,67h31v1h-31z M150,67h6v1h-6z M161,67h4v1h-4z M172,67h6v1h-6z M186,67h9v1h-9z M201,67h14v1h-14z M219,67h1v1h-1z M235,67h4v1h-4z M247,66h9v2h-9z M15,68h11v1h-11z M28,68h15v1h-15z M47,68h3v1h-3z M51,68h12v1h-12z M65,68h5v1h-5z M72,68h12v1h-12z M86,68h9v1h-9z M96,68h31v1h-31z M135,66h7v3h-7z M154,68h1v1h-1z M161,68h5v1h-5z M174,68h4v1h-4z M185,68h5v1h-5z M192,68h4v1h-4z M202,68h12v1h-12z M226,67h4v2h-4z M246,68h11v1h-11z M8,68h5v2h-5z M28,69h16v1h-16z M46,69h4v1h-4z M51,69h20v1h-20z M72,69h11v1h-11z M95,69h32v1h-32z M135,69h8v1h-8z M144,69h5v1h-5z M161,69h7v1h-7z M184,69h5v1h-5z M193,69h4v1h-4z M203,69h10v1h-10z M235,68h3v2h-3z M245,69h13v1h-13z M2,68h3v3h-3z M6,70h8v1h-8z M15,69h4v2h-4z M29,70h9v1h-9z M51,70h31v1h-31z M95,70h22v1h-22z M118,70h9v1h-9z M134,70h15v1h-15z M161,70h8v1h-8z M175,69h3v2h-3z M183,70h5v1h-5z M193,70h7v1h-7z M204,70h8v1h-8z M218,70h2v1h-2z M227,69h4v2h-4z M243,70h10v1h-10z M254,70h4v1h-4z M2,71h18v1h-18z M22,69h4v3h-4z M29,71h8v1h-8z M40,70h10v2h-10z M51,71h32v1h-32z M85,69h7v3h-7z M94,71h23v1h-23z M118,71h10v1h-10z M132,71h16v1h-16z M154,71h9v1h-9z M164,71h5v1h-5z M174,71h4v1h-4z M182,71h5v1h-5z M193,71h8v1h-8z M206,71h6v1h-6z M217,71h5v1h-5z M228,71h4v1h-4z M234,70h4v2h-4z M242,71h10v1h-10z M11,72h14v1h-14z M29,72h7v1h-7z M41,72h25v1h-25z M67,72h26v1h-26z M94,72h34v1h-34z M131,72h9v1h-9z M142,72h4v1h-4z M152,72h10v1h-10z M165,72h4v1h-4z M173,72h5v1h-5z M181,72h5v1h-5z M192,72h9v1h-9z M216,72h8v1h-8z M228,72h9v1h-9z M2,72h7v2h-7z M11,73h4v1h-4z M16,73h8v1h-8z M41,73h46v1h-46z M107,73h21v1h-21z M142,73h2v1h-2z M149,73h14v1h-14z M172,73h5v1h-5z M180,73h5v1h-5z M190,73h6v1h-6z M198,73h4v1h-4z M209,72h2v2h-2z M213,73h11v1h-11z M229,73h8v1h-8z M241,72h10v2h-10z M256,71h2v3h-2z M2,74h13v1h-13z M27,73h8v2h-8z M40,74h47v1h-47z M89,73h12v2h-12z M102,73h4v2h-4z M107,74h9v1h-9z M117,74h12v1h-12z M130,73h9v2h-9z M148,74h15v1h-15z M166,73h3v2h-3z M179,74h5v1h-5z M189,74h6v1h-6z M199,74h4v1h-4z M212,74h4v1h-4z M230,74h6v1h-6z M241,74h9v1h-9z M256,74h3v1h-3z M2,75h12v1h-12z M26,75h9v1h-9z M39,75h20v1h-20z M62,75h8v1h-8z M72,75h10v1h-10z M83,75h10v1h-10z M117,75h5v1h-5z M124,75h4v1h-4z M147,75h16v1h-16z M165,75h4v1h-4z M179,75h4v1h-4z M187,75h6v1h-6z M200,75h4v1h-4z M220,74h5v2h-5z M231,75h3v1h-3z M241,75h8v1h-8z M255,75h4v1h-4z M2,76h3v1h-3z M7,76h6v1h-6z M16,74h7v3h-7z M25,76h11v1h-11z M38,76h21v1h-21z M63,76h7v1h-7z M72,76h21v1h-21z M94,75h12v2h-12z M108,75h7v2h-7z M131,75h8v2h-8z M146,76h17v1h-17z M171,74h4v3h-4z M178,76h5v1h-5z M185,76h6v1h-6z M201,76h5v1h-5z M211,75h4v2h-4z M219,76h6v1h-6z M241,76h6v1h-6z M255,76h3v1h-3z M2,77h4v1h-4z M8,77h5v1h-5z M15,77h21v1h-21z M38,77h15v1h-15z M55,77h4v1h-4z M61,77h46v1h-46z M108,77h8v1h-8z M118,76h10v2h-10z M132,77h7v1h-7z M145,77h18v1h-18z M170,77h4v1h-4z M178,77h11v1h-11z M202,77h5v1h-5z M211,77h5v1h-5z M219,77h8v1h-8z M233,77h4v1h-4z M242,77h4v1h-4z M250,77h2v1h-2z M2,78h3v1h-3z M7,78h29v1h-29z M131,78h1v1h-1z M135,78h4v1h-4z M144,78h18v1h-18z M166,76h3v3h-3z M171,78h1v1h-1z M203,78h5v1h-5z M212,78h15v1h-15z M232,78h5v1h-5z M26,79h10v1h-10z M37,78h80v2h-80z M119,78h8v2h-8z M129,79h4v1h-4z M136,79h3v1h-3z M143,79h18v1h-18z M165,79h3v1h-3z M179,78h9v2h-9z M196,79h3v1h-3z M204,79h5v1h-5z M212,79h14v1h-14z M232,79h6v1h-6z M249,78h4v2h-4z M2,79h23v2h-23z M27,80h9v1h-9z M37,80h81v1h-81z M120,80h7v1h-7z M129,80h5v1h-5z M142,80h17v1h-17z M179,80h7v1h-7z M195,80h6v1h-6z M205,80h4v1h-4z M212,80h13v1h-13z M231,80h8v1h-8z M250,80h4v1h-4z M260,23h4v58h-4z M2,81h8v1h-8z M11,81h58v1h-58z M70,81h17v1h-17z M90,81h15v1h-15z M107,81h12v1h-12z M120,81h8v1h-8z M142,81h13v1h-13z M165,80h2v2h-2z M174,81h4v1h-4z M181,81h4v1h-4z M194,81h9v1h-9z M212,81h12v1h-12z M251,81h4v1h-4z M1,82h9v1h-9z M11,82h45v1h-45z M91,82h8v1h-8z M142,82h12v1h-12z M172,82h7v1h-7z M193,82h11v1h-11z M205,81h5v2h-5z M212,82h11v1h-11z M250,82h6v1h-6z M261,81h3v2h-3z M1,83h55v1h-55z M58,82h11v2h-11z M71,82h16v2h-16z M90,83h9v1h-9z M101,82h4v2h-4z M142,83h13v1h-13z M157,83h1v1h-1z M164,82h3v2h-3z M170,83h10v1h-10z M183,83h3v1h-3z M192,83h19v1h-19z M214,83h7v1h-7z M247,83h9v1h-9z M1,84h4v1h-4z M7,84h35v1h-35z M45,84h5v1h-5z M52,84h5v1h-5z M59,84h10v1h-10z M71,84h17v1h-17z M90,84h15v1h-15z M130,81h4v4h-4z M143,84h8v1h-8z M153,84h13v1h-13z M169,84h12v1h-12z M192,84h13v1h-13z M218,84h1v1h-1z M230,81h9v4h-9z M245,84h12v1h-12z M8,85h6v1h-6z M17,85h11v1h-11z M59,85h23v1h-23z M84,85h9v1h-9z M95,85h10v1h-10z M107,82h22v4h-22z M132,85h1v1h-1z M144,85h4v1h-4z M154,85h11v1h-11z M183,84h4v2h-4z M191,85h13v1h-13z M244,85h14v1h-14z M8,86h5v1h-5z M17,86h10v1h-10z M31,85h10v2h-10z M45,85h6v2h-6z M54,85h3v2h-3z M58,86h24v1h-24z M83,86h9v1h-9z M95,86h34v1h-34z M152,86h13v1h-13z M169,85h4v2h-4z M175,85h6v2h-6z M184,86h2v1h-2z M190,86h14v1h-14z M206,84h5v3h-5z M213,86h3v1h-3z M223,86h5v1h-5z M231,85h7v2h-7z M242,86h5v1h-5z M250,86h8v1h-8z M2,85h3v3h-3z M7,87h7v1h-7z M32,87h9v1h-9z M42,87h9v1h-9z M53,87h38v1h-38z M94,87h34v1h-34z M151,87h6v1h-6z M161,87h3v1h-3z M169,87h12v1h-12z M222,87h6v1h-6z M233,87h4v1h-4z M242,87h4v1h-4z M256,87h2v1h-2z M2,88h13v1h-13z M17,87h11v2h-11z M31,88h9v1h-9z M41,88h37v1h-37z M93,88h34v1h-34z M150,88h8v1h-8z M190,87h13v2h-13z M207,87h4v2h-4z M212,87h4v2h-4z M220,88h8v1h-8z M241,88h4v1h-4z M250,87h3v2h-3z M260,83h4v6h-4z M2,89h27v1h-27z M31,89h8v1h-8z M41,89h22v1h-22z M80,88h10v2h-10z M92,89h34v1h-34z M135,89h4v1h-4z M150,89h9v1h-9z M162,89h1v1h-1z M169,88h11v2h-11z M207,89h3v1h-3z M212,89h3v1h-3z M218,89h10v1h-10z M261,89h3v1h-3z M12,90h16v1h-16z M30,90h33v1h-33z M65,89h12v2h-12z M79,90h12v1h-12z M92,90h6v1h-6z M109,90h16v1h-16z M132,90h8v1h-8z M141,90h4v1h-4z M169,90h10v1h-10z M189,89h14v2h-14z M208,90h1v1h-1z M216,90h12v1h-12z M250,89h4v2h-4z M257,88h1v3h-1z M2,90h8v2h-8z M13,91h15v1h-15z M29,91h35v1h-35z M66,91h11v1h-11z M78,91h20v1h-20z M100,90h7v2h-7z M108,91h16v1h-16z M131,91h15v1h-15z M149,90h5v2h-5z M155,90h5v2h-5z M161,90h4v2h-4z M169,91h9v1h-9z M183,89h3v3h-3z M215,91h6v1h-6z M222,91h5v1h-5z M233,91h1v1h-1z M241,89h3v3h-3z M245,91h8v1h-8z M256,91h2v1h-2z M1,92h10v1h-10z M13,92h14v1h-14z M29,92h22v1h-22z M66,92h7v1h-7z M78,92h21v1h-21z M100,92h25v1h-25z M129,92h17v1h-17z M171,92h6v1h-6z M188,91h15v2h-15z M213,92h13v1h-13z M232,92h4v1h-4z M240,92h13v1h-13z M256,92h1v1h-1z M260,90h4v3h-4z M19,93h6v1h-6z M66,93h6v1h-6z M74,92h3v2h-3z M78,93h33v1h-33z M113,93h12v1h-12z M128,93h18v1h-18z M149,92h10v2h-10z M162,92h4v2h-4z M189,93h14v1h-14z M213,93h12v1h-12z M241,93h11v1h-11z M261,93h3v1h-3z M2,93h14v2h-14z M20,94h4v1h-4z M29,93h21v2h-21z M54,92h10v3h-10z M79,94h11v1h-11z M92,94h11v1h-11z M105,94h5v1h-5z M113,94h11v1h-11z M128,94h17v1h-17z M150,94h8v1h-8z M163,94h3v1h-3z M189,94h13v1h-13z M213,94h10v1h-10z M231,93h6v2h-6z M242,94h3v1h-3z M7,95h8v1h-8z M30,95h10v1h-10z M42,95h7v1h-7z M67,94h10v2h-10z M80,95h10v1h-10z M93,95h9v1h-9z M106,95h3v1h-3z M114,95h10v1h-10z M128,95h13v1h-13z M151,95h6v1h-6z M189,95h12v1h-12z M213,95h9v1h-9z M233,95h5v1h-5z M254,93h4v3h-4z M8,96h6v1h-6z M31,96h9v1h-9z M43,96h5v1h-5z M55,95h8v2h-8z M68,96h8v1h-8z M80,96h9v1h-9z M93,96h8v1h-8z M115,96h8v1h-8z M128,96h5v1h-5z M138,96h3v1h-3z M153,96h2v1h-2z M191,96h8v1h-8z M214,96h6v1h-6z M234,96h4v1h-4z M255,96h2v1h-2z M10,97h2v1h-2z M32,97h6v1h-6z M45,97h2v1h-2z M57,97h4v1h-4z M70,97h5v1h-5z M81,97h7v1h-7z M95,97h3v1h-3z M116,97h6v1h-6z M193,97h2v1h-2z M236,97h1v1h-1z M34,98h2v1h-2z M260,94h4v5h-4z M261,99h3v3h-3z M190,102h4v1h-4z M190,103h5v3h-5z M66,106h3v1h-3z M191,106h5v1h-5z M64,107h7v1h-7z M190,107h8v1h-8z M190,108h9v1h-9z M190,109h10v1h-10z M2,95h3v16h-3z M189,110h5v1h-5z M195,110h5v1h-5z M63,108h9v4h-9z M62,112h10v1h-10z M1,111h4v3h-4z M189,111h4v3h-4z M197,111h4v3h-4z M61,113h11v2h-11z M188,114h4v1h-4z M197,114h3v1h-3z M188,115h5v1h-5z M196,115h4v1h-4z M60,115h12v2h-12z M260,102h4v15h-4z M61,117h12v1h-12z M61,118h11v1h-11z M188,116h11v3h-11z M62,119h9v1h-9z M189,119h8v1h-8z M193,120h2v1h-2z M261,117h3v9h-3z M2,114h3v13h-3z M260,126h4v1h-4z M261,127h3v1h-3z M1,127h4v2h-4z M260,128h4v2h-4z M2,129h3v2h-3z M261,130h3v1h-3z M2,131h4v1h-4z M14,131h9v1h-9z M26,131h10v1h-10z M39,131h1v1h-1z M41,131h1v1h-1z M43,131h2v1h-2z M47,131h4v1h-4z M54,131h4v1h-4z M61,131h2v1h-2z M74,131h7v1h-7z M91,131h2v1h-2z M97,131h9v1h-9z M109,131h131v1h-131z M243,131h2v1h-2z M259,131h4v1h-4z M2,132h261v2h-261z M3,134h114v1h-114z M123,134h3v1h-3z M127,134h135v1h-135z M4,135h1v1h-1z
  "/>
</svg>