<?xml version="1.0" encoding="UTF-8"?>
<svg xmlns="http://www.w3.org/2000/svg" viewBox="0 0 265 139" width="265" height="139">
  <title>60 Massive igneous rock 60</title>
  <path fill="#111111" fill-rule="nonzero" d="
    M2,1h135v1h-135z M139,1h72v1h-72z M213,1h2v1h-2z M217,1h7v1h-7z M226,1h3v1h-3z M234,1h2v1h-2z M251,1h5v1h-5z M1,2h261v1h-261z M0,3h263v1h-263z M0,4h264v1h-264z M0,5h5v1h-5z M9,5h1v1h-1z M29,5h1v1h-1z M34,5h2v1h-2z M44,5h3v1h-3z M53,5h2v1h-2z M71,5h5v1h-5z M82,5h3v1h-3z M89,5h5v1h-5z M119,5h2v1h-2z M127,5h1v1h-1z M136,5h1v1h-1z M138,5h4v1h-4z M144,5h5v1h-5z M152,5h2v1h-2z M157,5h1v1h-1z M167,5h2v1h-2z M171,5h3v1h-3z M176,5h5v1h-5z M206,5h3v1h-3z M223,5h1v1h-1z M237,5h1v1h-1z M246,5h7v1h-7z M256,5h3v1h-3z M260,5h4v1h-4z M138,6h3v1h-3z M197,5h2v2h-2z M30,7h1v1h-1z M135,7h7v1h-7z M197,7h3v1h-3z M206,7h2v1h-2z M223,7h2v1h-2z M246,6h6v2h-6z M28,8h4v1h-4z M44,8h2v1h-2z M52,8h3v1h-3z M80,8h2v1h-2z M89,6h4v3h-4z M134,8h8v1h-8z M155,8h3v1h-3z M176,6h4v3h-4z M222,8h3v1h-3z M20,9h1v1h-1z M28,9h5v1h-5z M59,9h3v1h-3z M79,9h5v1h-5z M89,9h3v1h-3z M120,9h3v1h-3z M133,9h9v1h-9z M154,9h5v1h-5z M165,9h2v1h-2z M175,9h4v1h-4z M205,8h4v2h-4z M221,9h4v1h-4z M245,8h8v2h-8z M19,10h3v1h-3z M43,9h4v2h-4z M79,10h6v1h-6z M131,10h10v1h-10z M153,10h6v1h-6z M165,10h3v1h-3z M197,8h4v3h-4z M204,10h4v1h-4z M243,10h5v1h-5z M249,10h4v1h-4z M11,11h1v1h-1z M29,10h5v2h-5z M43,11h5v1h-5z M51,9h4v3h-4z M71,11h2v1h-2z M81,11h5v1h-5z M88,10h4v2h-4z M130,11h11v1h-11z M152,11h5v1h-5z M174,10h5v2h-5z M182,11h3v1h-3z M189,9h2v3h-2z M198,11h4v1h-4z M203,11h4v1h-4z M220,10h4v2h-4z M242,11h5v1h-5z M10,12h3v1h-3z M30,12h6v1h-6z M44,12h5v1h-5z M50,12h4v1h-4z M58,10h4v3h-4z M70,12h2v1h-2z M82,12h9v1h-9z M129,12h6v1h-6z M151,12h5v1h-5z M165,11h4v2h-4z M173,12h13v1h-13z M198,12h9v1h-9z M218,12h6v1h-6z M228,12h1v1h-1z M242,12h4v1h-4z M9,13h6v1h-6z M18,11h4v3h-4z M45,13h9v1h-9z M83,13h8v1h-8z M105,13h3v1h-3z M120,10h4v4h-4z M130,13h3v1h-3z M137,12h4v2h-4z M150,13h6v1h-6z M173,13h12v1h-12z M199,13h7v1h-7z M209,13h2v1h-2z M218,13h13v1h-13z M242,13h3v1h-3z M250,11h4v3h-4z M10,14h6v1h-6z M17,14h4v1h-4z M31,13h5v2h-5z M46,14h8v1h-8z M84,14h7v1h-7z M104,14h6v1h-6z M136,14h4v1h-4z M150,14h9v1h-9z M174,14h10v1h-10z M199,14h6v1h-6z M208,14h4v1h-4z M217,14h15v1h-15z M243,14h2v1h-2z M251,14h3v1h-3z M10,15h11v1h-11z M32,15h4v1h-4z M69,15h1v1h-1z M85,15h6v1h-6z M95,15h2v1h-2z M104,15h11v1h-11z M166,13h4v3h-4z M174,15h5v1h-5z M200,15h5v1h-5z M208,15h5v1h-5z M218,15h13v1h-13z M0,6h4v11h-4z M11,16h10v1h-10z M47,15h6v2h-6z M59,13h3v4h-3z M68,16h3v1h-3z M87,16h3v1h-3z M95,16h3v1h-3z M121,14h3v3h-3z M137,15h3v2h-3z M150,15h11v2h-11z M167,16h2v1h-2z M200,16h4v1h-4z M208,16h6v1h-6z M219,16h10v1h-10z M13,17h7v1h-7z M48,17h4v1h-4z M94,17h5v1h-5z M104,16h12v2h-12z M137,17h2v1h-2z M151,17h10v1h-10z M201,17h2v1h-2z M210,17h4v1h-4z M235,13h3v5h-3z M14,18h6v1h-6z M49,18h2v1h-2z M67,17h5v2h-5z M79,17h3v2h-3z M95,18h5v1h-5z M105,18h11v1h-11z M211,18h4v1h-4z M236,18h2v1h-2z M15,19h5v1h-5z M66,19h7v1h-7z M79,19h4v1h-4z M96,19h4v1h-4z M212,19h2v1h-2z M17,20h2v1h-2z M65,20h8v1h-8z M79,20h5v1h-5z M105,19h4v2h-4z M197,20h2v1h-2z M35,21h3v1h-3z M45,21h3v1h-3z M80,21h4v1h-4z M97,20h4v2h-4z M132,21h3v1h-3z M153,21h2v1h-2z M246,21h7v1h-7z M31,22h7v1h-7z M44,22h4v1h-4z M64,21h9v2h-9z M81,22h3v1h-3z M98,22h3v1h-3z M124,22h1v1h-1z M132,22h5v1h-5z M152,22h4v1h-4z M197,21h3v2h-3z M220,22h2v1h-2z M228,22h3v1h-3z M246,22h10v1h-10z M10,23h5v1h-5z M43,23h5v1h-5z M69,23h5v1h-5z M106,21h4v3h-4z M123,23h3v1h-3z M161,23h12v1h-12z M187,23h3v1h-3z M228,23h4v1h-4z M246,23h11v1h-11z M9,24h6v1h-6z M28,23h10v2h-10z M64,23h4v2h-4z M107,24h2v1h-2z M123,24h4v1h-4z M132,23h6v2h-6z M151,23h4v2h-4z M160,24h14v1h-14z M186,24h4v1h-4z M197,23h4v2h-4z M209,24h2v1h-2z M219,23h3v2h-3z M227,24h6v1h-6z M247,24h10v1h-10z M7,25h8v1h-8z M27,25h10v1h-10z M43,24h4v2h-4z M64,25h3v1h-3z M134,25h4v1h-4z M143,25h3v1h-3z M151,25h3v1h-3z M160,25h13v1h-13z M198,25h3v1h-3z M220,25h1v1h-1z M227,25h7v1h-7z M252,25h5v1h-5z M0,17h5v10h-5z M7,26h7v1h-7z M43,26h3v1h-3z M70,24h4v3h-4z M92,26h6v1h-6z M122,25h6v2h-6z M142,26h5v1h-5z M151,26h2v1h-2z M160,26h12v1h-12z M185,25h6v2h-6z M199,26h1v1h-1z M208,25h4v2h-4z M252,26h4v1h-4z M7,27h4v1h-4z M27,26h7v2h-7z M88,27h10v1h-10z M121,27h7v1h-7z M161,27h5v1h-5z M185,27h7v1h-7z M207,27h5v1h-5z M227,26h8v2h-8z M251,27h4v1h-4z M261,6h3v22h-3z M9,28h1v1h-1z M29,28h6v1h-6z M121,28h8v1h-8z M141,27h6v2h-6z M162,28h4v1h-4z M206,28h5v1h-5z M249,28h6v1h-6z M30,29h7v1h-7z M50,29h4v1h-4z M78,29h2v1h-2z M125,29h5v1h-5z M162,29h5v1h-5z M185,28h8v2h-8z M206,29h4v1h-4z M226,28h4v2h-4z M232,28h4v2h-4z M249,29h5v1h-5z M32,30h6v1h-6z M49,30h6v1h-6z M86,28h12v3h-12z M121,29h3v2h-3z M140,29h8v2h-8z M163,30h5v1h-5z M184,30h4v1h-4z M190,30h4v1h-4z M233,30h3v1h-3z M249,30h4v1h-4z M260,28h5v3h-5z M33,31h5v1h-5z M62,31h4v1h-4z M87,31h3v1h-3z M93,31h4v1h-4z M109,31h3v1h-3z M126,30h4v2h-4z M139,31h10v1h-10z M164,31h5v1h-5z M205,30h4v2h-4z M213,31h2v1h-2z M234,31h2v1h-2z M241,31h1v1h-1z M250,31h2v1h-2z M0,27h4v6h-4z M14,32h3v1h-3z M34,32h3v1h-3z M49,31h7v2h-7z M62,32h7v1h-7z M92,32h5v1h-5z M108,32h5v1h-5z M127,32h2v1h-2z M154,32h2v1h-2z M165,32h3v1h-3z M191,31h3v2h-3z M225,30h4v3h-4z M240,32h4v1h-4z M11,33h8v1h-8z M62,33h8v1h-8z M92,33h4v1h-4z M108,33h6v1h-6z M120,31h4v3h-4z M138,32h4v2h-4z M145,32h4v2h-4z M153,33h8v1h-8z M166,33h1v1h-1z M175,33h3v1h-3z M184,31h3v3h-3z M192,33h1v1h-1z M204,32h13v2h-13z M226,33h2v1h-2z M240,33h5v1h-5z M10,34h9v1h-9z M48,33h9v2h-9z M63,34h7v1h-7z M109,34h5v1h-5z M120,34h3v1h-3z M145,34h5v1h-5z M174,34h4v1h-4z M204,34h12v1h-12z M241,34h5v1h-5z M8,35h11v1h-11z M23,34h4v2h-4z M47,35h4v1h-4z M53,35h5v1h-5z M65,35h4v1h-4z M77,30h4v6h-4z M92,34h3v2h-3z M110,35h4v1h-4z M137,34h4v2h-4z M146,35h3v1h-3z M153,34h9v2h-9z M173,35h5v1h-5z M204,35h10v1h-10z M242,35h4v1h-4z M7,36h12v1h-12z M54,36h4v1h-4z M78,36h2v1h-2z M93,36h1v1h-1z M113,36h1v1h-1z M137,36h3v1h-3z M147,36h1v1h-1z M153,36h8v1h-8z M172,36h5v1h-5z M205,36h3v1h-3z M244,36h2v1h-2z M8,37h11v1h-11z M23,36h5v2h-5z M46,36h5v2h-5z M138,37h1v1h-1z M172,37h4v1h-4z M190,37h3v1h-3z M8,38h5v1h-5z M55,37h4v2h-4z M172,38h2v1h-2z M189,38h6v1h-6z M222,38h3v1h-3z M15,38h4v2h-4z M46,38h4v2h-4z M56,39h2v1h-2z M73,39h3v1h-3z M87,39h1v1h-1z M105,39h2v1h-2z M126,39h2v1h-2z M190,39h7v1h-7z M221,39h6v1h-6z M24,38h4v3h-4z M46,40h3v1h-3z M72,40h5v1h-5z M85,40h4v1h-4z M97,39h3v2h-3z M191,40h6v1h-6z M209,40h2v1h-2z M222,40h6v1h-6z M14,40h5v2h-5z M25,41h2v1h-2z M42,41h1v1h-1z M69,41h8v1h-8z M83,41h6v1h-6z M105,40h3v2h-3z M125,40h4v2h-4z M139,41h4v1h-4z M193,41h3v1h-3z M223,41h6v1h-6z M14,42h4v1h-4z M40,42h4v1h-4z M67,42h10v1h-10z M82,42h6v1h-6z M124,42h5v1h-5z M139,42h5v1h-5z M159,42h3v1h-3z M239,42h2v1h-2z M247,42h3v1h-3z M15,43h3v1h-3z M40,43h5v1h-5z M58,43h2v1h-2z M67,43h9v1h-9z M82,43h5v1h-5z M97,41h4v3h-4z M111,43h4v1h-4z M124,43h4v1h-4z M139,43h6v1h-6z M157,43h5v1h-5z M173,43h2v1h-2z M238,43h3v1h-3z M253,41h3v3h-3z M16,44h1v1h-1z M30,44h1v1h-1z M40,44h7v1h-7z M57,44h4v1h-4z M82,44h4v1h-4z M105,42h4v3h-4z M110,44h5v1h-5z M124,44h2v1h-2z M140,44h5v1h-5z M155,44h7v1h-7z M173,44h3v1h-3z M208,41h4v4h-4z M246,43h4v2h-4z M253,44h4v1h-4z M41,45h7v1h-7z M55,45h6v1h-6z M67,44h6v2h-6z M82,45h2v1h-2z M97,44h3v2h-3z M105,45h10v1h-10z M141,45h4v1h-4z M152,45h9v1h-9z M172,45h4v1h-4z M181,45h3v1h-3z M209,45h3v1h-3z M238,44h4v2h-4z M245,45h5v1h-5z M253,45h5v1h-5z M28,45h4v2h-4z M42,46h6v1h-6z M67,46h7v1h-7z M105,46h9v1h-9z M143,46h2v1h-2z M151,46h7v1h-7z M173,46h3v1h-3z M180,46h4v1h-4z M199,46h5v1h-5z M217,46h9v1h-9z M239,46h4v1h-4z M244,46h5v1h-5z M44,47h4v1h-4z M54,46h6v2h-6z M69,47h7v1h-7z M87,47h2v1h-2z M105,47h8v1h-8z M136,47h2v1h-2z M150,47h8v1h-8z M173,47h4v1h-4z M179,47h5v1h-5z M197,47h8v1h-8z M239,47h9v1h-9z M254,46h4v2h-4z M0,33h5v16h-5z M10,48h3v1h-3z M36,48h3v1h-3z M45,48h2v1h-2z M54,48h5v1h-5z M70,48h7v1h-7z M86,48h4v1h-4z M105,48h6v1h-6z M128,48h11v1h-11z M150,48h9v1h-9z M174,48h4v1h-4z M179,48h4v1h-4z M217,47h11v2h-11z M239,48h8v1h-8z M256,48h1v1h-1z M10,49h7v1h-7z M28,47h5v3h-5z M35,49h4v1h-4z M55,49h2v1h-2z M72,49h5v1h-5z M86,49h6v1h-6z M106,49h5v1h-5z M127,49h12v1h-12z M150,49h12v1h-12z M194,48h11v2h-11z M219,49h9v1h-9z M239,49h7v1h-7z M73,50h4v1h-4z M86,50h8v1h-8z M106,50h3v1h-3z M151,50h12v1h-12z M165,50h3v1h-3z M174,49h8v2h-8z M194,50h5v1h-5z M200,50h5v1h-5z M222,50h6v1h-6z M240,50h6v1h-6z M10,50h8v2h-8z M29,50h10v2h-10z M86,51h10v1h-10z M116,51h4v1h-4z M127,50h11v2h-11z M154,51h9v1h-9z M174,51h7v1h-7z M185,51h2v1h-2z M195,51h2v1h-2z M222,51h5v1h-5z M231,51h2v1h-2z M240,51h5v1h-5z M0,49h4v4h-4z M11,52h7v1h-7z M29,52h9v1h-9z M115,52h7v1h-7z M128,52h5v1h-5z M159,52h2v1h-2z M165,51h4v2h-4z M185,52h3v1h-3z M241,52h4v1h-4z M30,53h7v1h-7z M86,52h12v2h-12z M116,53h6v1h-6z M129,53h4v1h-4z M175,52h5v2h-5z M200,51h4v3h-4z M221,52h5v2h-5z M242,53h3v1h-3z M30,54h6v1h-6z M68,54h2v1h-2z M93,54h5v1h-5z M103,54h2v1h-2z M117,54h5v1h-5z M130,54h4v1h-4z M175,54h4v1h-4z M199,54h5v1h-5z M207,54h3v1h-3z M220,54h5v1h-5z M243,54h1v1h-1z M31,55h5v1h-5z M48,55h2v1h-2z M57,54h2v2h-2z M65,55h6v1h-6z M94,55h4v1h-4z M103,55h3v1h-3z M120,55h2v1h-2z M130,55h5v1h-5z M140,55h2v1h-2z M176,55h2v1h-2z M185,53h4v3h-4z M199,55h4v1h-4z M207,55h5v1h-5z M219,55h5v1h-5z M31,56h4v1h-4z M47,56h5v1h-5z M63,56h7v1h-7z M86,54h4v3h-4z M102,56h4v1h-4z M131,56h4v1h-4z M166,53h4v4h-4z M186,56h2v1h-2z M200,56h2v1h-2z M207,56h6v1h-6z M219,56h4v1h-4z M251,56h1v1h-1z M63,57h6v1h-6z M77,57h2v1h-2z M86,57h5v1h-5z M167,57h3v1h-3z M201,57h1v1h-1z M208,57h6v1h-6z M219,57h3v1h-3z M231,52h3v6h-3z M250,57h3v1h-3z M48,57h4v2h-4z M55,56h4v3h-4z M62,58h6v1h-6z M77,58h3v1h-3z M87,58h4v1h-4z M132,57h4v2h-4z M139,56h4v3h-4z M209,58h5v1h-5z M232,58h2v1h-2z M249,58h5v1h-5z M16,59h3v1h-3z M48,59h11v1h-11z M62,59h5v1h-5z M76,59h4v1h-4z M87,59h3v1h-3z M116,59h2v1h-2z M133,59h2v1h-2z M140,59h3v1h-3z M211,59h3v1h-3z M248,59h6v1h-6z M261,31h4v29h-4z M13,60h7v1h-7z M25,60h2v1h-2z M39,60h3v1h-3z M49,60h9v1h-9z M63,60h3v1h-3z M77,60h4v1h-4z M88,60h1v1h-1z M115,60h4v1h-4z M140,60h2v1h-2z M154,60h6v1h-6z M186,60h2v1h-2z M248,60h7v1h-7z M260,60h5v1h-5z M10,61h10v1h-10z M38,61h5v1h-5z M50,61h8v1h-8z M114,61h5v1h-5z M185,61h4v1h-4z M248,61h8v1h-8z M38,62h6v1h-6z M51,62h6v1h-6z M77,61h5v2h-5z M93,62h2v1h-2z M103,57h4v6h-4z M112,62h7v1h-7z M145,62h2v1h-2z M154,61h8v2h-8z M198,62h1v1h-1z M247,62h9v1h-9z M9,62h11v2h-11z M38,63h5v1h-5z M70,63h2v1h-2z M78,63h4v1h-4z M92,63h3v1h-3z M104,63h2v1h-2z M110,63h9v1h-9z M144,63h4v1h-4z M154,63h7v1h-7z M167,63h3v1h-3z M174,63h3v1h-3z M184,62h6v2h-6z M196,63h3v1h-3z M237,63h4v1h-4z M247,63h4v1h-4z M10,64h2v1h-2z M15,64h5v1h-5z M39,64h1v1h-1z M51,63h5v2h-5z M91,64h4v1h-4z M144,64h5v1h-5z M166,64h4v1h-4z M183,64h8v1h-8z M230,64h1v1h-1z M236,64h5v1h-5z M253,63h4v2h-4z M15,65h4v1h-4z M52,65h3v1h-3z M91,65h3v1h-3z M109,64h10v2h-10z M143,65h6v1h-6z M165,65h5v1h-5z M174,64h4v2h-4z M183,65h9v1h-9z M196,64h4v2h-4z M209,65h3v1h-3z M229,65h2v1h-2z M237,65h3v1h-3z M246,64h4v2h-4z M254,65h3v1h-3z M14,66h5v1h-5z M24,61h4v6h-4z M69,64h4v3h-4z M92,66h2v1h-2z M108,66h5v1h-5z M143,66h7v1h-7z M164,66h6v1h-6z M175,66h3v1h-3z M182,66h4v1h-4z M187,66h5v1h-5z M197,66h2v1h-2z M208,66h4v1h-4z M217,66h2v1h-2z M228,66h3v1h-3z M245,66h4v1h-4z M255,66h2v1h-2z M25,67h3v1h-3z M108,67h4v1h-4z M125,67h8v1h-8z M143,67h8v1h-8z M163,67h7v1h-7z M181,67h5v1h-5z M188,67h5v1h-5z M207,67h5v1h-5z M217,67h3v1h-3z M246,67h3v1h-3z M26,68h1v1h-1z M58,68h1v1h-1z M109,68h1v1h-1z M124,68h10v1h-10z M142,68h9v1h-9z M162,68h8v1h-8z M189,68h4v1h-4z M205,68h7v1h-7z M227,67h4v2h-4z M246,68h2v1h-2z M14,67h4v3h-4z M49,69h2v1h-2z M68,67h4v3h-4z M76,69h2v1h-2z M94,69h3v1h-3z M115,66h4v4h-4z M125,69h9v1h-9z M142,69h4v1h-4z M147,69h5v1h-5z M161,69h9v1h-9z M181,68h4v2h-4z M190,69h3v1h-3z M204,69h6v1h-6z M0,53h5v18h-5z M14,70h3v1h-3z M30,70h2v1h-2z M48,70h4v1h-4z M58,69h3v2h-3z M93,70h5v1h-5z M132,70h1v1h-1z M142,70h3v1h-3z M148,70h4v1h-4z M160,70h5v1h-5z M180,70h4v1h-4z M191,70h2v1h-2z M203,70h6v1h-6z M217,68h4v3h-4z M226,69h4v2h-4z M234,70h2v1h-2z M1,71h4v1h-4z M29,71h11v1h-11z M47,71h5v1h-5z M58,71h4v1h-4z M68,70h11v2h-11z M92,71h7v1h-7z M115,70h3v2h-3z M148,71h5v1h-5z M160,71h4v1h-4z M181,71h3v1h-3z M202,71h6v1h-6z M218,71h4v1h-4z M1,72h8v1h-8z M47,72h4v1h-4z M58,72h5v1h-5z M68,72h10v1h-10z M116,72h1v1h-1z M149,72h4v1h-4z M159,72h5v1h-5z M202,72h7v1h-7z M225,71h12v2h-12z M1,73h9v1h-9z M28,72h14v2h-14z M59,73h4v1h-4z M68,73h8v1h-8z M91,72h8v2h-8z M141,71h4v3h-4z M150,73h3v1h-3z M159,73h4v1h-4z M167,70h4v4h-4z M203,73h10v1h-10z M219,72h3v2h-3z M225,73h11v1h-11z M243,73h4v1h-4z M0,74h12v1h-12z M28,74h13v1h-13z M46,73h4v2h-4z M60,74h3v1h-3z M68,74h6v1h-6z M89,74h5v1h-5z M142,74h2v1h-2z M160,74h3v1h-3z M167,74h3v1h-3z M205,74h9v1h-9z M225,74h7v1h-7z M6,75h7v1h-7z M29,75h5v1h-5z M45,75h4v1h-4z M69,75h3v1h-3z M88,75h5v1h-5z M95,74h5v2h-5z M104,75h4v1h-4z M128,75h3v1h-3z M168,75h2v1h-2z M177,75h1v1h-1z M206,75h8v1h-8z M227,75h1v1h-1z M242,74h7v2h-7z M8,76h5v1h-5z M30,76h4v1h-4z M45,76h3v1h-3z M104,76h5v1h-5z M128,76h5v1h-5z M176,76h4v1h-4z M209,76h4v1h-4z M244,76h5v1h-5z M261,61h4v16h-4z M8,77h4v1h-4z M31,77h4v1h-4z M45,77h2v1h-2z M81,77h1v1h-1z M88,76h4v2h-4z M105,77h5v1h-5z M128,77h6v1h-6z M155,77h2v1h-2z M175,77h6v1h-6z M261,77h3v1h-3z M10,78h1v1h-1z M88,78h3v1h-3z M96,76h4v3h-4z M106,78h5v1h-5z M128,78h8v1h-8z M145,78h3v1h-3z M154,78h4v1h-4z M175,78h7v1h-7z M260,78h4v1h-4z M31,78h5v2h-5z M49,79h4v1h-4z M80,78h3v2h-3z M97,79h3v1h-3z M107,79h5v1h-5z M128,79h9v1h-9z M143,79h7v1h-7z M155,79h4v1h-4z M177,79h6v1h-6z M201,79h3v1h-3z M260,79h5v1h-5z M17,80h2v1h-2z M32,80h4v1h-4z M49,80h5v1h-5z M108,80h3v1h-3z M179,80h4v1h-4z M0,75h5v7h-5z M15,81h5v1h-5z M34,81h1v1h-1z M49,81h7v1h-7z M128,80h10v2h-10z M143,80h8v2h-8z M156,80h4v2h-4z M181,81h1v1h-1z M193,81h2v1h-2z M200,80h5v2h-5z M255,81h2v1h-2z M0,82h4v1h-4z M12,82h8v1h-8z M23,82h5v1h-5z M38,82h2v1h-2z M66,82h5v1h-5z M80,80h4v3h-4z M128,82h4v1h-4z M135,82h3v1h-3z M157,82h4v1h-4z M175,82h3v1h-3z M192,82h3v1h-3z M201,82h4v1h-4z M246,82h3v1h-3z M254,82h3v1h-3z M261,80h4v3h-4z M10,83h10v1h-10z M23,83h6v1h-6z M37,83h4v1h-4z M48,82h8v2h-8z M64,83h7v1h-7z M81,83h3v1h-3z M118,83h2v1h-2z M128,83h5v1h-5z M158,83h2v1h-2z M173,83h5v1h-5z M202,83h3v1h-3z M221,83h2v1h-2z M245,83h4v1h-4z M9,84h11v1h-11z M24,84h5v1h-5z M37,84h5v1h-5z M48,84h9v1h-9z M63,84h8v1h-8z M118,84h4v1h-4z M171,84h7v1h-7z M191,83h4v2h-4z M203,84h1v1h-1z M220,84h5v1h-5z M229,84h1v1h-1z M246,84h4v1h-4z M8,85h12v1h-12z M25,85h4v1h-4z M37,85h6v1h-6z M47,85h11v1h-11z M63,85h7v1h-7z M76,85h1v1h-1z M110,85h3v1h-3z M118,85h6v1h-6z M129,84h4v2h-4z M151,85h3v1h-3z M169,85h9v1h-9z M210,85h3v1h-3z M219,85h6v1h-6z M246,85h5v1h-5z M253,83h4v3h-4z M260,83h5v3h-5z M8,86h5v1h-5z M38,86h6v1h-6z M47,86h5v1h-5z M53,86h5v1h-5z M64,86h3v1h-3z M74,86h5v1h-5z M108,86h5v1h-5z M119,86h5v1h-5z M130,86h3v1h-3z M149,86h5v1h-5z M168,86h7v1h-7z M191,85h3v2h-3z M198,86h2v1h-2z M209,86h5v1h-5z M219,86h5v1h-5z M236,86h3v1h-3z M247,86h9v1h-9z M39,87h5v1h-5z M47,87h4v1h-4z M54,87h4v1h-4z M74,87h6v1h-6z M106,87h7v1h-7z M120,87h4v1h-4z M148,87h6v1h-6z M167,87h6v1h-6z M190,87h4v1h-4z M195,87h6v1h-6z M209,87h6v1h-6z M228,85h4v3h-4z M235,87h5v1h-5z M248,87h8v1h-8z M15,86h4v3h-4z M41,88h3v1h-3z M46,88h5v1h-5z M55,88h3v1h-3z M74,88h8v1h-8z M106,88h6v1h-6z M122,88h1v1h-1z M146,88h7v1h-7z M167,88h5v1h-5z M182,88h2v1h-2z M190,88h11v1h-11z M209,88h7v1h-7z M234,88h6v1h-6z M249,88h7v1h-7z M74,89h10v1h-10z M104,89h6v1h-6z M145,89h7v1h-7z M167,89h6v1h-6z M182,89h3v1h-3z M189,89h11v1h-11z M209,89h8v1h-8z M228,88h3v2h-3z M234,89h5v1h-5z M250,89h6v1h-6z M14,89h4v2h-4z M47,89h3v2h-3z M90,90h1v1h-1z M102,90h7v1h-7z M135,90h2v1h-2z M167,90h7v1h-7z M189,90h9v1h-9z M208,90h10v1h-10z M228,90h4v1h-4z M233,90h5v1h-5z M250,90h5v1h-5z M14,91h3v1h-3z M26,91h2v1h-2z M74,90h11v2h-11z M90,91h4v1h-4z M101,91h7v1h-7z M143,90h7v2h-7z M168,91h8v1h-8z M190,91h6v1h-6z M208,91h4v1h-4z M213,91h6v1h-6z M228,91h9v1h-9z M251,91h3v1h-3z M261,86h4v6h-4z M25,92h4v1h-4z M34,92h3v1h-3z M81,92h4v1h-4z M90,92h5v1h-5z M101,92h8v1h-8z M134,91h4v2h-4z M144,92h7v1h-7z M170,92h7v1h-7z M182,90h4v3h-4z M190,92h2v1h-2z M208,92h3v1h-3z M214,92h5v1h-5z M228,92h8v1h-8z M242,92h1v1h-1z M90,93h6v1h-6z M101,93h12v1h-12z M144,93h9v1h-9z M171,93h6v1h-6z M215,93h5v1h-5z M228,93h7v1h-7z M241,93h4v1h-4z M256,93h2v1h-2z M260,92h5v2h-5z M25,93h5v2h-5z M33,93h5v2h-5z M51,94h4v1h-4z M65,94h3v1h-3z M91,94h6v1h-6z M102,94h11v1h-11z M146,94h8v1h-8z M159,94h3v1h-3z M173,94h5v1h-5z M183,93h3v2h-3z M207,93h4v2h-4z M216,94h4v1h-4z M228,94h6v1h-6z M241,94h5v1h-5z M256,94h9v1h-9z M0,83h5v13h-5z M26,95h11v1h-11z M50,95h5v1h-5z M74,92h4v4h-4z M93,95h4v1h-4z M106,95h8v1h-8z M148,95h7v1h-7z M159,95h4v1h-4z M242,95h5v1h-5z M256,95h4v1h-4z M27,96h10v1h-10z M64,95h5v2h-5z M93,96h5v1h-5z M110,96h1v1h-1z M124,96h2v1h-2z M135,93h3v4h-3z M150,96h5v1h-5z M158,96h5v1h-5z M207,95h3v2h-3z M228,95h5v2h-5z M242,96h6v1h-6z M256,96h3v1h-3z M8,97h3v1h-3z M16,97h3v1h-3z M49,96h5v2h-5z M65,97h6v1h-6z M75,96h3v2h-3z M94,97h4v1h-4z M122,97h5v1h-5z M136,97h2v1h-2z M151,97h3v1h-3z M158,97h4v1h-4z M207,97h2v1h-2z M243,97h5v1h-5z M257,97h2v1h-2z M7,98h4v1h-4z M15,98h5v1h-5z M27,97h9v2h-9z M49,98h4v1h-4z M66,98h6v1h-6z M120,98h6v1h-6z M157,98h5v1h-5z M245,98h3v1h-3z M6,99h5v1h-5z M16,99h5v1h-5z M28,99h7v1h-7z M38,99h3v1h-3z M50,99h1v1h-1z M67,99h5v1h-5z M119,99h7v1h-7z M158,99h4v1h-4z M173,99h2v1h-2z M198,99h2v1h-2z M1,96h4v5h-4z M6,100h4v1h-4z M17,100h5v1h-5z M38,100h4v1h-4z M60,100h1v1h-1z M68,100h4v1h-4z M119,100h6v1h-6z M131,100h1v1h-1z M158,100h3v1h-3z M173,100h3v1h-3z M181,100h4v1h-4z M225,100h1v1h-1z M1,101h9v1h-9z M28,100h6v2h-6z M38,101h5v1h-5z M58,101h4v1h-4z M69,101h3v1h-3z M120,101h4v1h-4z M130,101h3v1h-3z M160,101h1v1h-1z M165,101h4v1h-4z M180,101h6v1h-6z M1,102h8v1h-8z M18,101h4v2h-4z M29,102h4v1h-4z M56,102h7v1h-7z M89,102h3v1h-3z M103,102h1v1h-1z M163,102h7v1h-7z M172,101h4v2h-4z M180,102h7v1h-7z M224,101h4v2h-4z M240,102h3v1h-3z M1,103h7v1h-7z M30,103h2v1h-2z M39,102h5v2h-5z M54,103h9v1h-9z M103,103h3v1h-3z M130,102h4v2h-4z M162,103h7v1h-7z M180,103h8v1h-8z M225,103h3v1h-3z M239,103h4v1h-4z M7,104h1v1h-1z M53,104h10v1h-10z M81,104h3v1h-3z M102,104h4v1h-4z M138,104h4v1h-4z M145,104h3v1h-3z M160,104h9v1h-9z M180,104h9v1h-9z M197,100h4v5h-4z M211,103h2v2h-2z M225,104h4v1h-4z M238,104h4v1h-4z M261,95h4v10h-4z M40,104h4v2h-4z M52,105h11v1h-11z M79,105h5v1h-5z M97,105h1v1h-1z M102,105h5v1h-5z M130,104h5v2h-5z M137,105h5v1h-5z M159,105h7v1h-7z M180,105h10v1h-10z M198,105h1v1h-1z M226,105h3v1h-3z M236,105h5v1h-5z M261,105h3v1h-3z M42,106h1v1h-1z M51,106h6v1h-6z M77,106h7v1h-7z M96,106h4v1h-4z M103,106h5v1h-5z M131,106h4v1h-4z M136,106h5v1h-5z M145,105h4v2h-4z M172,103h3v4h-3z M180,106h5v1h-5z M219,106h2v1h-2z M261,106h4v1h-4z M51,107h4v1h-4z M58,106h5v2h-5z M77,107h6v1h-6z M88,103h4v5h-4z M95,107h5v1h-5z M113,107h3v1h-3z M131,107h9v1h-9z M157,106h8v2h-8z M186,106h5v2h-5z M215,107h7v1h-7z M235,106h5v2h-5z M251,107h5v1h-5z M9,107h9v2h-9z M52,108h1v1h-1z M77,108h4v1h-4z M87,108h12v1h-12z M104,107h4v2h-4z M131,108h8v1h-8z M157,108h9v1h-9z M187,108h4v1h-4z M210,108h12v1h-12z M226,106h4v3h-4z M235,108h7v1h-7z M1,104h4v6h-4z M8,109h11v1h-11z M87,109h11v1h-11z M105,109h3v1h-3z M132,109h7v1h-7z M146,107h4v3h-4z M157,109h11v1h-11z M189,109h2v1h-2z M209,109h13v1h-13z M227,109h3v1h-3z M235,109h9v1h-9z M251,108h7v2h-7z M1,110h3v1h-3z M9,110h10v1h-10z M24,110h2v1h-2z M58,108h4v3h-4z M87,110h10v1h-10z M106,110h1v1h-1z M112,108h4v3h-4z M132,110h6v1h-6z M147,110h3v1h-3z M159,110h9v1h-9z M209,110h12v1h-12z M236,110h10v1h-10z M252,110h6v1h-6z M260,107h5v4h-5z M12,111h1v1h-1z M24,111h3v1h-3z M38,111h3v1h-3z M87,111h8v1h-8z M132,111h5v1h-5z M162,111h6v1h-6z M210,111h5v1h-5z M239,111h7v1h-7z M14,111h5v2h-5z M37,112h6v1h-6z M48,112h4v1h-4z M87,112h6v1h-6z M111,111h4v2h-4z M118,112h3v1h-3z M133,112h3v1h-3z M165,112h1v1h-1z M180,107h4v6h-4z M216,111h5v2h-5z M241,112h5v1h-5z M261,111h4v2h-4z M36,113h7v1h-7z M47,113h7v1h-7z M88,113h4v1h-4z M111,113h12v1h-12z M134,113h2v1h-2z M181,113h1v1h-1z M216,113h4v1h-4z M242,113h2v1h-2z M13,113h5v2h-5z M33,114h9v1h-9z M48,114h7v1h-7z M76,114h3v1h-3z M111,114h11v1h-11z M126,114h3v1h-3z M215,114h4v1h-4z M23,112h5v4h-5z M32,115h8v1h-8z M50,115h5v1h-5z M73,115h6v1h-6z M97,115h3v1h-3z M110,115h11v1h-11z M126,115h6v1h-6z M196,115h3v1h-3z M214,115h5v1h-5z M13,115h3v2h-3z M32,116h6v1h-6z M51,116h4v1h-4z M69,116h10v1h-10z M96,116h6v1h-6z M110,116h9v1h-9z M126,116h7v1h-7z M150,116h1v1h-1z M205,116h1v1h-1z M24,116h4v2h-4z M32,117h7v1h-7z M68,117h11v1h-11z M110,117h6v1h-6z M128,117h5v1h-5z M204,117h4v1h-4z M214,116h4v2h-4z M260,113h5v5h-5z M25,118h1v1h-1z M33,118h7v1h-7z M67,118h11v1h-11z M97,117h6v2h-6z M111,118h4v1h-4z M129,118h5v1h-5z M149,117h3v2h-3z M181,118h5v1h-5z M195,116h5v3h-5z M204,118h5v1h-5z M1,111h4v9h-4z M34,119h7v1h-7z M67,119h8v1h-8z M98,119h5v1h-5z M131,119h1v1h-1z M148,119h4v1h-4z M170,119h3v1h-3z M181,119h7v1h-7z M194,119h7v1h-7z M204,119h6v1h-6z M226,119h1v1h-1z M245,119h1v1h-1z M252,119h2v1h-2z M36,120h5v1h-5z M68,120h8v1h-8z M95,120h4v1h-4z M100,120h2v1h-2z M142,120h1v1h-1z M158,120h2v1h-2z M181,120h8v1h-8z M206,120h5v1h-5z M224,120h3v1h-3z M244,120h3v1h-3z M1,120h3v2h-3z M8,121h2v1h-2z M38,121h3v1h-3z M51,121h1v1h-1z M68,121h9v1h-9z M94,121h5v1h-5z M127,121h2v1h-2z M141,121h4v1h-4z M169,120h5v2h-5z M183,121h6v1h-6z M193,120h9v2h-9z M207,121h4v1h-4z M224,121h4v1h-4z M1,122h4v1h-4z M20,122h3v1h-3z M50,122h3v1h-3z M69,122h9v1h-9z M126,122h4v1h-4z M141,122h5v1h-5z M148,120h5v3h-5z M157,121h4v2h-4z M185,122h4v1h-4z M198,122h5v1h-5z M244,121h4v2h-4z M251,120h4v3h-4z M19,123h5v1h-5z M73,123h6v1h-6z M93,122h7v2h-7z M125,123h5v1h-5z M142,123h11v1h-11z M158,123h3v1h-3z M193,122h4v2h-4z M199,123h5v1h-5z M244,123h11v1h-11z M7,122h4v3h-4z M64,124h2v1h-2z M75,124h4v1h-4z M143,124h10v1h-10z M169,122h4v3h-4z M176,124h2v1h-2z M200,124h4v1h-4z M232,124h2v1h-2z M245,124h9v1h-9z M261,118h4v7h-4z M17,124h7v2h-7z M49,123h4v3h-4z M76,125h2v1h-2z M92,124h8v2h-8z M109,125h3v1h-3z M123,124h7v2h-7z M144,125h9v1h-9z M158,124h4v2h-4z M168,125h4v1h-4z M175,125h4v1h-4z M192,124h4v2h-4z M200,125h3v1h-3z M223,122h5v4h-5z M230,125h5v1h-5z M246,125h8v1h-8z M0,123h5v4h-5z M8,125h4v2h-4z M48,126h5v1h-5z M57,126h1v1h-1z M63,125h4v2h-4z M83,126h2v1h-2z M91,126h10v1h-10z M108,126h5v1h-5z M122,126h9v1h-9z M146,126h7v1h-7z M159,126h3v1h-3z M168,126h11v1h-11z M192,126h3v1h-3z M201,126h1v1h-1z M224,126h11v1h-11z M241,126h1v1h-1z M247,126h6v1h-6z M8,127h3v1h-3z M15,126h10v2h-10z M49,127h4v1h-4z M55,127h4v1h-4z M81,127h5v1h-5z M91,127h4v1h-4z M96,127h5v1h-5z M109,127h4v1h-4z M121,127h10v1h-10z M148,127h5v1h-5z M159,127h4v1h-4z M168,127h10v1h-10z M213,127h2v1h-2z M224,127h10v1h-10z M248,127h5v1h-5z M1,127h4v2h-4z M35,128h6v1h-6z M49,128h10v1h-10z M64,127h4v2h-4z M79,128h7v1h-7z M90,128h5v1h-5z M97,128h4v1h-4z M109,128h5v1h-5z M120,128h5v1h-5z M127,128h4v1h-4z M150,128h2v1h-2z M160,128h3v1h-3z M167,128h10v1h-10z M185,128h1v1h-1z M210,128h6v1h-6z M223,128h9v1h-9z M240,127h3v2h-3z M249,128h3v1h-3z M1,129h3v1h-3z M14,128h4v2h-4z M49,129h9v1h-9z M79,129h6v1h-6z M97,129h5v1h-5z M119,129h6v1h-6z M137,128h4v2h-4z M168,129h7v1h-7z M208,129h8v1h-8z M223,129h8v1h-8z M15,130h2v1h-2z M21,128h4v3h-4z M34,129h7v2h-7z M48,130h8v1h-8z M65,129h3v2h-3z M79,130h4v1h-4z M89,129h5v2h-5z M98,130h4v1h-4z M110,129h5v2h-5z M119,130h5v1h-5z M127,129h5v2h-5z M137,130h3v1h-3z M168,130h5v1h-5z M184,129h3v2h-3z M207,130h8v1h-8z M224,130h5v1h-5z M240,129h4v2h-4z M260,125h5v6h-5z M22,131h3v1h-3z M34,131h5v1h-5z M49,131h6v1h-6z M66,131h1v1h-1z M79,131h3v1h-3z M89,131h4v1h-4z M98,131h3v1h-3z M111,131h4v1h-4z M120,131h3v1h-3z M128,131h4v1h-4z M185,131h2v1h-2z M208,131h5v1h-5z M225,131h1v1h-1z M241,131h3v1h-3z M1,130h4v3h-4z M49,132h4v1h-4z M91,132h1v1h-1z M99,132h1v1h-1z M242,132h1v1h-1z M261,131h4v2h-4z M1,133h6v1h-6z M14,133h5v1h-5z M49,133h3v1h-3z M79,133h3v1h-3z M91,133h2v1h-2z M99,133h2v1h-2z M108,133h2v1h-2z M128,132h3v2h-3z M242,133h3v1h-3z M260,133h5v1h-5z M1,134h264v3h-264z M3,137h261v1h-261z M145,138h1v1h-1z M192,138h1v1h-1z M240,138h2v1h-2z M258,138h1v1h-1z
  "/>
</svg>