<?xml version="1.0" encoding="UTF-8"?>
<svg xmlns="http://www.w3.org/2000/svg" viewBox="0 0 268 137" width="268" height="137">
  <title>73 Lean ore</title>
  <path fill="#111111" fill-rule="nonzero" d="
    M3,0h67v1h-67z M71,0h8v1h-8z M83,0h3v1h-3z M1,1h156v1h-156z M158,1h1v1h-1z M160,1h2v1h-2z M173,1h1v1h-1z M175,1h3v1h-3z M189,1h4v1h-4z M1,2h265v1h-265z M1,3h266v1h-266z M1,4h5v1h-5z M14,4h4v1h-4z M29,4h7v1h-7z M39,4h4v1h-4z M46,4h7v1h-7z M54,4h7v1h-7z M63,4h16v1h-16z M80,4h6v1h-6z M89,4h178v1h-178z M14,5h3v1h-3z M21,4h5v2h-5z M29,5h5v1h-5z M46,5h5v1h-5z M55,5h2v1h-2z M64,5h4v1h-4z M92,5h11v1h-11z M116,5h5v1h-5z M125,5h3v1h-3z M136,5h3v1h-3z M156,5h6v1h-6z M166,5h4v1h-4z M176,5h9v1h-9z M186,5h1v1h-1z M189,5h78v1h-78z M13,6h4v1h-4z M22,6h3v1h-3z M29,6h4v1h-4z M45,6h5v1h-5z M54,6h4v1h-4z M62,6h5v1h-5z M80,5h4v2h-4z M93,6h9v1h-9z M115,6h5v1h-5z M135,6h3v1h-3z M158,6h4v1h-4z M167,6h2v1h-2z M180,6h5v1h-5z M190,6h5v1h-5z M202,6h10v1h-10z M215,6h4v1h-4z M223,6h7v1h-7z M234,6h14v1h-14z M252,6h5v1h-5z M262,6h5v1h-5z M12,7h6v1h-6z M23,7h1v1h-1z M28,7h5v1h-5z M45,7h4v1h-4z M54,7h5v1h-5z M61,7h5v1h-5z M79,7h5v1h-5z M114,7h6v1h-6z M134,7h6v1h-6z M146,5h1v3h-1z M158,7h5v1h-5z M181,7h4v1h-4z M189,7h5v1h-5z M11,8h8v1h-8z M27,8h5v1h-5z M46,8h3v1h-3z M54,8h11v1h-11z M78,8h5v1h-5z M94,7h7v2h-7z M114,8h7v1h-7z M146,8h2v1h-2z M181,8h5v1h-5z M188,8h5v1h-5z M197,8h2v1h-2z M203,7h8v2h-8z M223,7h6v2h-6z M234,7h4v2h-4z M241,7h6v2h-6z M10,9h5v1h-5z M16,9h4v1h-4z M26,9h4v1h-4z M56,9h8v1h-8z M87,9h2v1h-2z M95,9h6v1h-6z M106,8h3v2h-3z M113,9h9v1h-9z M132,8h10v2h-10z M159,8h5v2h-5z M170,8h3v2h-3z M182,9h10v1h-10z M196,9h3v1h-3z M215,7h3v3h-3z M224,9h5v1h-5z M234,9h3v1h-3z M241,9h7v1h-7z M252,7h4v3h-4z M9,10h5v1h-5z M17,10h4v1h-4z M25,10h5v1h-5z M37,10h3v1h-3z M56,10h7v1h-7z M79,9h3v2h-3z M96,10h6v1h-6z M106,10h2v1h-2z M112,10h11v1h-11z M131,10h4v1h-4z M138,10h5v1h-5z M150,10h2v1h-2z M160,10h5v1h-5z M168,10h5v1h-5z M183,10h8v1h-8z M197,10h2v1h-2z M240,10h9v1h-9z M263,7h4v4h-4z M8,11h5v1h-5z M17,11h5v1h-5z M24,11h5v1h-5z M37,11h4v1h-4z M57,11h6v1h-6z M68,9h3v3h-3z M79,11h4v1h-4z M97,11h6v1h-6z M113,11h2v1h-2z M119,11h4v1h-4z M130,11h4v1h-4z M139,11h4v1h-4z M149,11h4v1h-4z M184,11h6v1h-6z M204,9h6v3h-6z M225,10h5v2h-5z M240,11h10v1h-10z M261,11h6v1h-6z M8,12h4v1h-4z M18,12h5v1h-5z M24,12h4v1h-4z M31,12h1v1h-1z M37,12h5v1h-5z M58,12h5v1h-5z M80,12h4v1h-4z M99,12h4v1h-4z M120,12h4v1h-4z M129,12h4v1h-4z M140,12h2v1h-2z M148,12h4v1h-4z M162,11h10v2h-10z M174,12h2v1h-2z M184,12h7v1h-7z M204,12h8v1h-8z M226,12h6v1h-6z M240,12h3v1h-3z M246,12h5v1h-5z M256,12h1v1h-1z M259,12h8v1h-8z M6,13h5v1h-5z M19,13h5v1h-5z M38,13h4v1h-4z M59,13h5v1h-5z M80,13h5v1h-5z M100,13h3v1h-3z M121,13h4v1h-4z M128,13h4v1h-4z M147,13h5v1h-5z M163,13h7v1h-7z M183,13h8v1h-8z M208,13h5v1h-5z M228,13h4v1h-4z M247,13h5v1h-5z M255,13h12v1h-12z M1,5h4v10h-4z M6,14h4v1h-4z M20,14h5v1h-5z M39,14h4v1h-4z M60,14h5v1h-5z M81,14h5v1h-5z M122,14h3v1h-3z M127,14h5v1h-5z M146,14h5v1h-5z M154,14h1v1h-1z M164,14h6v1h-6z M173,13h4v2h-4z M182,14h10v1h-10z M209,14h4v1h-4z M218,14h2v1h-2z M229,14h4v1h-4z M248,14h5v1h-5z M254,14h13v1h-13z M1,15h5v1h-5z M8,15h1v1h-1z M21,15h4v1h-4z M30,13h3v3h-3z M40,15h5v1h-5z M61,15h5v1h-5z M82,15h5v1h-5z M95,15h1v1h-1z M123,15h2v1h-2z M126,15h4v1h-4z M145,15h5v1h-5z M174,15h2v1h-2z M181,15h5v1h-5z M188,15h4v1h-4z M210,15h4v1h-4z M216,15h5v1h-5z M243,15h3v1h-3z M249,15h9v1h-9z M262,15h5v1h-5z M1,16h6v1h-6z M12,14h3v3h-3z M22,16h5v1h-5z M31,16h1v1h-1z M41,16h4v1h-4z M62,16h5v1h-5z M83,16h5v1h-5z M116,16h2v1h-2z M127,16h3v1h-3z M134,16h3v1h-3z M144,16h5v1h-5z M153,15h3v2h-3z M163,15h6v2h-6z M180,16h5v1h-5z M189,16h2v1h-2z M211,16h9v1h-9z M230,15h4v2h-4z M250,16h8v1h-8z M1,17h7v1h-7z M23,17h5v1h-5z M42,17h4v1h-4z M52,17h1v1h-1z M63,17h9v1h-9z M76,17h3v1h-3z M84,17h5v1h-5z M94,16h3v2h-3z M116,17h3v1h-3z M133,17h4v1h-4z M143,17h5v1h-5z M153,17h2v1h-2z M162,17h5v1h-5z M180,17h4v1h-4z M213,17h6v1h-6z M231,17h3v1h-3z M242,16h4v2h-4z M24,18h5v1h-5z M42,18h5v1h-5z M50,18h5v1h-5z M64,18h8v1h-8z M84,18h6v1h-6z M95,18h1v1h-1z M116,18h2v1h-2z M134,18h2v1h-2z M142,18h4v1h-4z M161,18h5v1h-5z M179,18h4v1h-4z M213,18h5v1h-5z M223,18h2v1h-2z M232,18h1v1h-1z M243,18h3v1h-3z M250,17h7v2h-7z M1,18h8v2h-8z M21,19h1v1h-1z M25,19h5v1h-5z M33,18h3v2h-3z M44,19h3v1h-3z M49,19h6v1h-6z M65,19h7v1h-7z M76,18h4v2h-4z M84,19h7v1h-7z M102,19h4v1h-4z M160,19h4v1h-4z M179,19h3v1h-3z M212,19h5v1h-5z M223,19h3v1h-3z M231,19h2v1h-2z M249,19h8v1h-8z M1,20h9v1h-9z M20,20h3v1h-3z M26,20h4v1h-4z M31,20h5v1h-5z M45,20h1v1h-1z M49,20h5v1h-5z M66,20h5v1h-5z M77,20h2v1h-2z M83,20h9v1h-9z M101,20h5v1h-5z M142,19h3v2h-3z M159,20h4v1h-4z M194,20h4v1h-4z M203,20h2v1h-2z M211,20h5v1h-5z M223,20h2v1h-2z M230,20h4v1h-4z M248,20h10v1h-10z M7,21h4v1h-4z M19,21h4v1h-4z M27,21h8v1h-8z M48,21h5v1h-5z M56,20h2v2h-2z M65,21h5v1h-5z M82,21h11v1h-11z M100,21h6v1h-6z M142,21h1v1h-1z M159,21h3v1h-3z M184,21h2v1h-2z M193,21h5v1h-5z M202,21h4v1h-4z M210,21h5v1h-5z M229,21h5v1h-5z M247,21h5v1h-5z M254,21h5v1h-5z M8,22h4v1h-4z M13,22h3v1h-3z M20,22h4v1h-4z M28,22h6v1h-6z M38,22h2v1h-2z M47,22h5v1h-5z M57,22h1v1h-1z M64,22h5v1h-5z M81,22h5v1h-5z M89,22h4v1h-4z M99,22h6v1h-6z M166,22h2v1h-2z M184,22h3v1h-3z M192,22h5v1h-5z M203,22h2v1h-2z M209,22h5v1h-5z M228,22h6v1h-6z M246,22h6v1h-6z M255,22h3v1h-3z M8,23h9v1h-9z M20,23h3v1h-3z M28,23h5v1h-5z M46,23h5v1h-5z M63,23h5v1h-5z M80,23h5v1h-5z M90,23h4v1h-4z M99,23h4v1h-4z M111,22h3v2h-3z M165,23h3v1h-3z M184,23h2v1h-2z M191,23h5v1h-5z M208,23h5v1h-5z M227,23h6v1h-6z M245,23h6v1h-6z M11,24h6v1h-6z M28,24h4v1h-4z M38,23h3v2h-3z M45,24h5v1h-5z M62,24h5v1h-5z M79,24h5v1h-5z M90,24h3v1h-3z M97,24h6v1h-6z M111,24h8v1h-8z M166,24h2v1h-2z M190,24h5v1h-5z M207,24h5v1h-5z M226,24h7v1h-7z M234,24h2v1h-2z M244,24h5v1h-5z M11,25h5v1h-5z M26,25h6v1h-6z M44,25h5v1h-5z M61,25h5v1h-5z M78,25h5v1h-5z M97,25h5v1h-5z M112,25h7v1h-7z M189,25h5v1h-5z M206,25h6v1h-6z M225,25h6v1h-6z M233,25h4v1h-4z M243,25h6v1h-6z M252,25h3v1h-3z M10,26h4v1h-4z M26,26h5v1h-5z M43,26h5v1h-5z M60,26h5v1h-5z M77,26h5v1h-5z M95,26h6v1h-6z M145,24h3v3h-3z M188,26h5v1h-5z M205,26h5v1h-5z M224,26h5v1h-5z M243,26h5v1h-5z M24,27h6v1h-6z M42,27h5v1h-5z M58,27h6v1h-6z M76,27h6v1h-6z M94,27h6v1h-6z M125,25h3v3h-3z M138,27h1v1h-1z M170,26h3v2h-3z M187,27h5v1h-5z M204,27h5v1h-5z M214,27h3v1h-3z M224,27h4v1h-4z M232,26h5v2h-5z M243,27h4v1h-4z M251,26h5v2h-5z M8,27h5v2h-5z M24,28h5v1h-5z M41,28h5v1h-5z M58,28h5v1h-5z M76,28h4v1h-4z M87,26h2v3h-2z M94,28h4v1h-4z M104,26h2v3h-2z M113,26h6v3h-6z M126,28h1v1h-1z M132,28h3v1h-3z M137,28h3v1h-3z M159,28h3v1h-3z M168,28h5v1h-5z M186,28h5v1h-5z M195,28h3v1h-3z M213,28h4v1h-4z M223,28h5v1h-5z M234,28h1v1h-1z M252,28h3v1h-3z M1,21h4v9h-4z M7,29h5v1h-5z M23,29h5v1h-5z M40,29h5v1h-5z M58,29h4v1h-4z M67,27h4v3h-4z M75,29h4v1h-4z M92,29h5v1h-5z M111,29h9v1h-9z M131,29h4v1h-4z M137,29h4v1h-4z M150,29h3v1h-3z M158,29h4v1h-4z M167,29h6v1h-6z M185,29h5v1h-5z M203,28h5v2h-5z M214,29h3v1h-3z M222,29h5v1h-5z M1,30h10v1h-10z M23,30h4v1h-4z M39,30h5v1h-5z M50,30h2v1h-2z M58,30h3v1h-3z M68,30h2v1h-2z M75,30h3v1h-3z M92,30h4v1h-4z M111,30h5v1h-5z M117,30h4v1h-4z M130,30h5v1h-5z M138,30h4v1h-4z M149,30h4v1h-4z M158,30h5v1h-5z M166,30h6v1h-6z M184,30h5v1h-5z M194,29h4v2h-4z M204,30h4v1h-4z M221,30h4v1h-4z M1,31h9v1h-9z M24,31h2v1h-2z M38,31h5v1h-5z M76,31h1v1h-1z M110,31h5v1h-5z M118,31h4v1h-4z M129,31h5v1h-5z M139,31h4v1h-4z M147,31h6v1h-6z M159,31h12v1h-12z M175,29h3v3h-3z M183,31h5v1h-5z M195,31h2v1h-2z M204,31h5v1h-5z M220,31h5v1h-5z M247,31h3v1h-3z M1,32h8v1h-8z M11,32h3v1h-3z M38,32h4v1h-4z M49,31h3v2h-3z M82,32h1v1h-1z M92,31h3v2h-3z M109,32h5v1h-5z M118,32h5v1h-5z M128,32h4v1h-4z M139,32h5v1h-5z M147,32h5v1h-5z M160,32h10v1h-10z M183,32h4v1h-4z M206,32h4v1h-4z M219,32h5v1h-5z M228,32h3v1h-3z M247,32h4v1h-4z M1,33h6v1h-6z M11,33h4v1h-4z M31,30h3v4h-3z M38,33h3v1h-3z M49,33h2v1h-2z M60,33h2v1h-2z M81,33h3v1h-3z M108,33h5v1h-5z M120,33h3v1h-3z M127,33h5v1h-5z M140,33h10v1h-10z M161,33h8v1h-8z M184,33h2v1h-2z M206,33h5v1h-5z M218,33h5v1h-5z M228,33h4v1h-4z M247,33h5v1h-5z M1,34h5v1h-5z M59,34h4v1h-4z M81,34h4v1h-4z M107,34h5v1h-5z M114,34h1v1h-1z M121,34h1v1h-1z M126,34h5v1h-5z M141,34h9v1h-9z M187,34h2v1h-2z M197,34h3v1h-3z M207,34h5v1h-5z M218,34h4v1h-4z M229,34h4v1h-4z M241,33h3v2h-3z M248,34h7v1h-7z M1,35h4v1h-4z M11,34h3v2h-3z M24,35h1v1h-1z M42,35h3v1h-3z M60,35h4v1h-4z M81,35h5v1h-5z M106,35h5v1h-5z M125,35h5v1h-5z M133,35h1v1h-1z M142,35h7v1h-7z M154,35h2v1h-2z M162,34h6v2h-6z M186,35h4v1h-4z M196,35h4v1h-4z M208,35h5v1h-5z M218,35h3v1h-3z M229,35h5v1h-5z M240,35h4v1h-4z M249,35h6v1h-6z M258,33h3v3h-3z M42,36h4v1h-4z M60,36h5v1h-5z M82,36h5v1h-5z M106,36h4v1h-4z M124,36h5v1h-5z M153,36h4v1h-4z M161,36h8v1h-8z M186,36h5v1h-5z M230,36h5v1h-5z M241,36h3v1h-3z M259,36h1v1h-1z M1,36h5v2h-5z M23,36h4v2h-4z M43,37h4v1h-4z M62,37h4v1h-4z M83,37h5v1h-5z M96,37h1v1h-1z M105,37h4v1h-4z M113,35h3v3h-3z M123,37h4v1h-4z M132,36h3v2h-3z M142,36h6v2h-6z M153,37h3v1h-3z M161,37h9v1h-9z M187,37h5v1h-5z M195,36h5v2h-5z M210,36h4v2h-4z M222,37h2v1h-2z M231,37h5v1h-5z M249,36h7v2h-7z M1,38h6v1h-6z M24,38h4v1h-4z M43,38h5v1h-5z M62,38h5v1h-5z M74,38h3v1h-3z M83,38h6v1h-6z M106,38h1v1h-1z M122,38h5v1h-5z M133,38h1v1h-1z M141,38h7v1h-7z M161,38h2v1h-2z M167,38h3v1h-3z M188,38h10v1h-10z M211,38h4v1h-4z M231,38h6v1h-6z M248,38h9v1h-9z M1,39h7v1h-7z M25,39h4v1h-4z M45,39h4v1h-4z M63,39h5v1h-5z M74,39h4v1h-4z M83,39h7v1h-7z M121,39h5v1h-5z M140,39h5v1h-5z M167,39h4v1h-4z M182,39h2v1h-2z M189,39h8v1h-8z M202,39h1v1h-1z M212,39h4v1h-4z M221,38h4v2h-4z M230,39h8v1h-8z M247,39h5v1h-5z M253,39h5v1h-5z M1,40h8v1h-8z M25,40h5v1h-5z M45,40h5v1h-5z M63,40h6v1h-6z M74,40h3v1h-3z M82,40h9v1h-9z M120,40h5v1h-5z M140,40h4v1h-4z M168,40h3v1h-3z M213,40h4v1h-4z M222,40h2v1h-2z M229,40h10v1h-10z M246,40h5v1h-5z M254,40h4v1h-4z M1,41h9v1h-9z M12,41h3v1h-3z M26,41h5v1h-5z M46,41h5v1h-5z M56,39h1v3h-1z M62,41h8v1h-8z M74,41h1v1h-1z M81,41h4v1h-4z M87,41h5v1h-5z M120,41h4v1h-4z M140,41h3v1h-3z M181,40h4v2h-4z M190,40h6v2h-6z M214,41h4v1h-4z M228,41h4v1h-4z M235,41h5v1h-5z M245,41h5v1h-5z M255,41h5v1h-5z M6,42h9v1h-9z M20,42h1v1h-1z M27,42h5v1h-5z M45,42h7v1h-7z M62,42h9v1h-9z M88,42h5v1h-5z M111,42h2v1h-2z M121,42h2v1h-2z M125,42h2v1h-2z M181,42h3v1h-3z M190,42h7v1h-7z M201,40h3v3h-3z M215,42h4v1h-4z M226,42h5v1h-5z M237,42h4v1h-4z M244,42h5v1h-5z M256,42h4v1h-4z M7,43h8v1h-8z M28,43h5v1h-5z M44,43h9v1h-9z M61,43h4v1h-4z M67,43h5v1h-5z M79,42h5v2h-5z M89,43h4v1h-4z M110,43h4v1h-4z M172,43h2v1h-2z M189,43h9v1h-9z M208,43h2v1h-2z M217,43h2v1h-2z M225,43h6v1h-6z M237,43h11v1h-11z M8,44h6v1h-6z M26,44h8v1h-8z M43,44h4v1h-4z M50,44h4v1h-4z M59,44h5v1h-5z M68,44h4v1h-4z M78,44h4v1h-4z M90,44h4v1h-4z M111,44h4v1h-4z M124,43h3v2h-3z M145,44h1v1h-1z M161,44h2v1h-2z M170,44h4v1h-4z M188,44h5v1h-5z M194,44h4v1h-4z M207,44h3v1h-3z M224,44h5v1h-5z M238,44h9v1h-9z M8,45h5v1h-5z M18,43h4v3h-4z M25,45h4v1h-4z M30,45h4v1h-4z M42,45h5v1h-5z M51,45h4v1h-4z M59,45h4v1h-4z M69,45h3v1h-3z M77,45h4v1h-4z M91,45h4v1h-4z M112,45h4v1h-4z M125,45h2v1h-2z M187,45h4v1h-4z M195,45h3v1h-3z M206,45h4v1h-4z M223,45h5v1h-5z M239,45h7v1h-7z M248,45h3v1h-3z M8,46h4v1h-4z M19,46h2v1h-2z M24,46h4v1h-4z M32,46h2v1h-2z M41,46h5v1h-5z M51,46h5v1h-5z M58,46h4v1h-4z M76,46h4v1h-4z M92,46h6v1h-6z M113,46h4v1h-4z M143,45h3v2h-3z M160,45h4v2h-4z M169,45h5v2h-5z M186,46h4v1h-4z M196,46h1v1h-1z M205,46h5v1h-5z M222,46h6v1h-6z M240,46h5v1h-5z M248,46h4v1h-4z M1,42h4v6h-4z M7,47h3v1h-3z M23,47h5v1h-5z M40,47h4v1h-4z M52,47h9v1h-9z M75,47h5v1h-5z M93,47h5v1h-5z M104,47h2v1h-2z M114,47h4v1h-4z M144,47h2v1h-2z M150,47h3v1h-3z M161,47h2v1h-2z M167,47h6v1h-6z M185,47h4v1h-4z M204,47h5v1h-5z M212,47h2v1h-2z M221,47h6v1h-6z M229,47h2v1h-2z M241,47h3v1h-3z M248,47h3v1h-3z M1,48h9v1h-9z M22,48h6v1h-6z M39,48h5v1h-5z M46,48h1v1h-1z M55,48h6v1h-6z M74,48h5v1h-5z M92,48h6v1h-6z M103,48h3v1h-3z M115,48h4v1h-4z M130,48h1v1h-1z M137,48h2v1h-2z M149,48h4v1h-4z M166,48h6v1h-6z M184,48h4v1h-4z M203,48h5v1h-5z M221,48h5v1h-5z M229,48h3v1h-3z M249,48h1v1h-1z M1,49h8v1h-8z M21,49h8v1h-8z M38,49h4v1h-4z M55,49h5v1h-5z M64,49h1v1h-1z M73,49h4v1h-4z M83,49h3v1h-3z M91,49h5v1h-5z M103,49h2v1h-2z M115,49h5v1h-5z M130,49h3v1h-3z M136,49h4v1h-4z M148,49h4v1h-4z M166,49h4v1h-4z M173,49h2v1h-2z M183,49h5v1h-5z M202,49h5v1h-5z M211,48h4v2h-4z M221,49h4v1h-4z M228,49h4v1h-4z M1,50h6v1h-6z M20,50h5v1h-5z M37,50h5v1h-5z M45,49h3v2h-3z M54,50h4v1h-4z M63,50h3v1h-3z M72,50h4v1h-4z M83,50h4v1h-4z M91,50h4v1h-4z M116,50h5v1h-5z M137,50h4v1h-4z M147,50h5v1h-5z M164,50h6v1h-6z M172,50h4v1h-4z M201,50h5v1h-5z M212,50h2v1h-2z M222,50h2v1h-2z M229,50h3v1h-3z M19,51h5v1h-5z M27,50h3v2h-3z M36,51h5v1h-5z M45,51h2v1h-2z M53,51h5v1h-5z M63,51h1v1h-1z M71,51h5v1h-5z M83,51h3v1h-3z M90,51h4v1h-4z M109,51h3v1h-3z M118,51h4v1h-4z M128,50h5v2h-5z M137,51h5v1h-5z M146,51h5v1h-5z M164,51h4v1h-4z M173,51h2v1h-2z M182,50h4v2h-4z M191,51h2v1h-2z M200,51h5v1h-5z M259,51h2v1h-2z M18,52h6v1h-6z M28,52h1v1h-1z M35,52h5v1h-5z M53,52h4v1h-4z M70,52h5v1h-5z M89,52h5v1h-5z M108,52h4v1h-4z M118,52h5v1h-5z M127,52h5v1h-5z M139,52h11v1h-11z M162,52h6v1h-6z M182,52h3v1h-3z M199,52h5v1h-5z M252,51h4v2h-4z M11,53h2v1h-2z M17,53h6v1h-6z M35,53h4v1h-4z M53,53h3v1h-3z M70,53h4v1h-4z M88,53h5v1h-5z M107,53h5v1h-5z M119,53h4v1h-4z M126,53h5v1h-5z M139,53h9v1h-9z M162,53h5v1h-5z M182,53h4v1h-4z M190,52h3v2h-3z M198,53h5v1h-5z M258,52h4v2h-4z M16,54h6v1h-6z M34,54h4v1h-4z M53,54h2v1h-2z M70,54h3v1h-3z M87,54h5v1h-5z M106,54h5v1h-5z M120,54h9v1h-9z M140,54h8v1h-8z M160,54h6v1h-6z M183,54h4v1h-4z M197,54h5v1h-5z M250,53h5v2h-5z M259,54h2v1h-2z M10,54h3v2h-3z M16,55h4v1h-4z M34,55h3v1h-3z M86,55h5v1h-5z M105,55h5v1h-5z M122,55h7v1h-7z M132,55h1v1h-1z M159,55h8v1h-8z M183,55h5v1h-5z M197,55h4v1h-4z M249,55h4v1h-4z M11,56h1v1h-1z M16,56h3v1h-3z M35,56h3v1h-3z M85,56h5v1h-5z M104,56h5v1h-5z M140,55h7v2h-7z M159,56h9v1h-9z M184,56h4v1h-4z M197,56h3v1h-3z M230,56h4v1h-4z M239,54h3v3h-3z M248,56h5v1h-5z M1,51h4v7h-4z M17,57h1v1h-1z M23,57h3v1h-3z M36,57h2v1h-2z M76,57h1v1h-1z M84,57h5v1h-5z M94,56h4v2h-4z M103,57h5v1h-5z M122,56h5v2h-5z M131,56h4v2h-4z M139,57h9v1h-9z M160,57h2v1h-2z M164,57h5v1h-5z M185,57h4v1h-4z M197,57h2v1h-2z M203,57h1v1h-1z M230,57h5v1h-5z M247,57h5v1h-5z M253,57h3v1h-3z M23,58h4v1h-4z M84,58h4v1h-4z M94,58h3v1h-3z M102,58h5v1h-5z M121,58h5v1h-5z M131,58h3v1h-3z M139,58h10v1h-10z M165,58h5v1h-5z M186,58h4v1h-4z M210,58h3v1h-3z M220,56h3v3h-3z M229,58h7v1h-7z M246,58h4v1h-4z M253,58h4v1h-4z M263,16h4v43h-4z M1,58h5v2h-5z M23,59h5v1h-5z M36,58h3v2h-3z M47,59h1v1h-1z M66,59h3v1h-3z M76,58h2v2h-2z M84,59h3v1h-3z M95,59h1v1h-1z M101,59h5v1h-5z M120,59h5v1h-5z M138,59h4v1h-4z M145,59h4v1h-4z M166,59h4v1h-4z M187,59h4v1h-4z M201,58h4v2h-4z M209,59h5v1h-5z M221,59h1v1h-1z M228,59h9v1h-9z M245,59h4v1h-4z M253,59h5v1h-5z M262,59h5v1h-5z M16,60h3v1h-3z M24,60h5v1h-5z M36,60h2v1h-2z M46,60h3v1h-3z M56,58h3v3h-3z M66,60h4v1h-4z M100,60h5v1h-5z M119,60h5v1h-5z M139,60h2v1h-2z M146,60h4v1h-4z M167,60h5v1h-5z M188,60h4v1h-4z M202,60h2v1h-2z M209,60h6v1h-6z M226,60h11v1h-11z M244,60h4v1h-4z M254,60h5v1h-5z M261,60h6v1h-6z M1,60h7v2h-7z M15,61h4v1h-4z M25,61h5v1h-5z M47,61h3v1h-3z M66,61h5v1h-5z M99,61h5v1h-5z M118,61h5v1h-5z M147,61h4v1h-4z M168,61h5v1h-5z M180,61h2v1h-2z M189,61h4v1h-4z M208,61h8v1h-8z M225,61h5v1h-5z M234,61h4v1h-4z M243,61h4v1h-4z M255,61h12v1h-12z M1,62h8v1h-8z M16,62h3v1h-3z M26,62h4v1h-4z M47,62h5v1h-5z M61,62h2v1h-2z M68,62h4v1h-4z M88,62h3v1h-3z M98,62h5v1h-5z M110,62h3v1h-3z M118,62h4v1h-4z M125,62h1v1h-1z M148,62h3v1h-3z M161,62h1v1h-1z M189,62h5v1h-5z M206,62h10v1h-10z M225,62h4v1h-4z M234,62h5v1h-5z M242,62h4v1h-4z M256,62h11v1h-11z M1,63h9v1h-9z M17,63h1v1h-1z M27,63h5v1h-5z M48,63h5v1h-5z M59,63h4v1h-4z M69,63h4v1h-4z M87,63h5v1h-5z M98,63h4v1h-4z M109,63h5v1h-5z M119,63h2v1h-2z M124,63h3v1h-3z M149,63h3v1h-3z M160,63h2v1h-2z M168,62h6v2h-6z M179,62h3v2h-3z M190,63h5v1h-5z M206,63h5v1h-5z M213,63h5v1h-5z M224,63h4v1h-4z M236,63h9v1h-9z M248,63h4v1h-4z M6,64h5v1h-5z M28,64h5v1h-5z M41,64h1v1h-1z M49,64h5v1h-5z M58,64h5v1h-5z M69,64h5v1h-5z M88,64h5v1h-5z M110,64h4v1h-4z M150,64h1v1h-1z M161,64h1v1h-1z M191,64h5v1h-5z M205,64h5v1h-5z M214,64h4v1h-4z M223,64h4v1h-4z M237,64h8v1h-8z M249,64h4v1h-4z M257,63h9v2h-9z M1,64h4v2h-4z M6,65h6v1h-6z M23,65h1v1h-1z M29,65h4v1h-4z M39,65h4v1h-4z M50,65h4v1h-4z M57,65h5v1h-5z M70,65h5v1h-5z M88,65h6v1h-6z M111,65h4v1h-4z M167,64h8v2h-8z M192,65h4v1h-4z M204,65h5v1h-5z M215,65h4v1h-4z M222,65h4v1h-4z M238,65h6v1h-6z M249,65h3v1h-3z M258,65h9v1h-9z M1,66h12v1h-12z M22,66h3v1h-3z M30,66h4v1h-4z M38,66h5v1h-5z M51,66h10v1h-10z M65,66h1v1h-1z M71,66h5v1h-5z M90,66h5v1h-5z M102,66h2v1h-2z M111,66h5v1h-5z M138,66h3v1h-3z M148,66h3v1h-3z M166,66h4v1h-4z M186,66h2v1h-2z M193,66h2v1h-2z M203,66h5v1h-5z M215,66h10v1h-10z M229,66h2v1h-2z M239,66h5v1h-5z M250,66h1v1h-1z M260,66h1v1h-1z M262,66h5v1h-5z M1,67h13v1h-13z M21,67h4v1h-4z M31,67h3v1h-3z M38,67h4v1h-4z M52,67h8v1h-8z M72,67h4v1h-4z M84,67h2v1h-2z M91,67h4v1h-4z M112,67h5v1h-5z M138,67h4v1h-4z M147,67h4v1h-4z M165,67h5v1h-5z M184,67h5v1h-5z M202,67h5v1h-5z M216,67h8v1h-8z M240,67h4v1h-4z M1,68h8v1h-8z M11,68h3v1h-3z M20,68h5v1h-5z M37,68h4v1h-4z M53,68h6v1h-6z M64,67h3v2h-3z M83,68h4v1h-4z M92,68h4v1h-4z M101,67h4v2h-4z M114,68h4v1h-4z M139,68h2v1h-2z M146,68h5v1h-5z M164,68h4v1h-4z M183,68h5v1h-5z M201,68h5v1h-5z M217,68h6v1h-6z M228,67h3v2h-3z M241,68h4v1h-4z M1,69h6v1h-6z M12,69h2v1h-2z M19,69h5v1h-5z M36,69h4v1h-4z M45,69h2v1h-2z M53,69h5v1h-5z M72,68h5v2h-5z M84,69h2v1h-2z M93,69h4v1h-4z M102,69h2v1h-2z M115,69h4v1h-4z M146,69h4v1h-4z M163,69h4v1h-4z M182,69h6v1h-6z M200,69h5v1h-5z M218,69h5v1h-5z M228,69h2v1h-2z M242,69h4v1h-4z M1,70h5v1h-5z M18,70h5v1h-5z M26,70h1v1h-1z M35,70h5v1h-5z M44,70h4v1h-4z M52,70h6v1h-6z M71,70h6v1h-6z M94,70h3v1h-3z M116,70h4v1h-4z M127,70h1v1h-1z M145,70h4v1h-4z M162,70h5v1h-5z M181,70h5v1h-5z M189,70h1v1h-1z M199,70h5v1h-5z M208,70h3v1h-3z M218,70h6v1h-6z M243,70h4v1h-4z M17,71h5v1h-5z M34,71h4v1h-4z M44,71h3v1h-3z M51,71h5v1h-5z M71,71h5v1h-5z M95,71h1v1h-1z M108,71h3v1h-3z M144,71h4v1h-4z M151,71h2v1h-2z M161,71h5v1h-5z M170,71h2v1h-2z M180,71h5v1h-5z M199,71h4v1h-4z M207,71h4v1h-4z M219,71h6v1h-6z M244,71h2v1h-2z M16,72h5v1h-5z M25,71h3v2h-3z M33,72h4v1h-4z M50,72h5v1h-5z M70,72h4v1h-4z M117,71h3v2h-3z M125,71h4v2h-4z M142,72h5v1h-5z M160,72h5v1h-5z M169,72h4v1h-4z M179,72h5v1h-5z M198,72h4v1h-4z M208,72h2v1h-2z M221,72h4v1h-4z M249,72h2v1h-2z M15,73h5v1h-5z M26,73h1v1h-1z M32,73h4v1h-4z M50,73h4v1h-4z M69,73h4v1h-4z M88,73h2v1h-2z M107,72h4v2h-4z M124,73h5v1h-5z M141,73h5v1h-5z M150,72h4v2h-4z M160,73h4v1h-4z M169,73h3v1h-3z M178,73h5v1h-5z M188,71h3v3h-3z M198,73h3v1h-3z M231,73h2v1h-2z M248,73h4v1h-4z M255,73h3v1h-3z M8,73h3v2h-3z M14,74h5v1h-5z M48,74h5v1h-5z M68,74h4v1h-4z M87,74h3v1h-3z M105,74h4v1h-4z M123,74h5v1h-5z M140,74h5v1h-5z M151,74h2v1h-2z M160,74h3v1h-3z M178,74h4v1h-4z M230,74h4v1h-4z M239,73h3v2h-3z M247,74h5v1h-5z M254,74h4v1h-4z M13,75h5v1h-5z M20,75h2v1h-2z M30,74h5v2h-5z M66,75h5v1h-5z M86,75h4v1h-4z M104,75h5v1h-5z M111,75h2v1h-2z M122,75h4v1h-4z M130,75h3v1h-3z M139,75h5v1h-5z M176,75h5v1h-5z M229,75h4v1h-4z M246,75h5v1h-5z M263,67h4v9h-4z M12,76h5v1h-5z M20,76h3v1h-3z M29,76h5v1h-5z M48,75h4v2h-4z M56,75h3v2h-3z M65,76h5v1h-5z M84,76h5v1h-5z M94,76h3v1h-3z M103,76h5v1h-5z M121,76h5v1h-5z M130,76h4v1h-4z M139,76h4v1h-4z M164,76h2v1h-2z M228,76h5v1h-5z M245,76h5v1h-5z M255,75h3v2h-3z M262,76h5v1h-5z M11,77h5v1h-5z M20,77h4v1h-4z M28,77h5v1h-5z M48,77h2v1h-2z M57,77h2v1h-2z M65,77h4v1h-4z M75,76h3v2h-3z M83,77h6v1h-6z M94,77h2v1h-2z M102,77h4v1h-4z M111,76h3v2h-3z M120,77h4v1h-4z M131,77h2v1h-2z M139,77h3v1h-3z M146,77h1v1h-1z M176,76h4v2h-4z M227,77h5v1h-5z M236,77h1v1h-1z M244,77h5v1h-5z M1,71h4v8h-4z M11,78h4v1h-4z M20,78h5v1h-5z M28,78h4v1h-4z M63,78h6v1h-6z M75,78h2v1h-2z M83,78h5v1h-5z M95,78h1v1h-1z M101,78h5v1h-5z M112,78h2v1h-2z M119,78h4v1h-4z M140,78h2v1h-2z M146,78h3v1h-3z M164,77h4v2h-4z M175,78h3v1h-3z M227,78h4v1h-4z M243,78h5v1h-5z M261,77h6v2h-6z M1,79h5v1h-5z M19,79h12v1h-12z M35,77h3v3h-3z M62,79h6v1h-6z M82,79h7v1h-7z M100,79h5v1h-5z M118,79h4v1h-4z M165,79h4v1h-4z M225,79h5v1h-5z M235,78h3v2h-3z M242,79h5v1h-5z M260,79h7v1h-7z M1,80h6v1h-6z M10,79h4v2h-4z M17,80h13v1h-13z M62,80h4v1h-4z M80,80h10v1h-10z M99,80h5v1h-5z M117,80h5v1h-5z M146,79h4v2h-4z M166,80h4v1h-4z M181,80h1v1h-1z M201,78h2v3h-2z M217,78h3v3h-3z M224,80h5v1h-5z M236,80h2v1h-2z M241,80h5v1h-5z M259,80h8v1h-8z M1,81h7v1h-7z M11,81h2v1h-2z M17,81h4v1h-4z M23,81h6v1h-6z M48,81h2v1h-2z M61,81h4v1h-4z M80,81h5v1h-5z M86,81h5v1h-5z M99,81h4v1h-4z M117,81h4v1h-4z M147,81h4v1h-4z M167,81h4v1h-4z M180,81h3v1h-3z M206,81h3v1h-3z M223,81h5v1h-5z M240,81h5v1h-5z M1,82h8v1h-8z M18,82h3v1h-3z M24,82h5v1h-5z M47,82h4v1h-4z M60,82h5v1h-5z M78,82h6v1h-6z M87,82h5v1h-5z M117,82h3v1h-3z M148,82h4v1h-4z M160,82h1v1h-1z M168,82h4v1h-4z M180,82h2v1h-2z M205,82h4v1h-4z M211,82h3v1h-3z M223,82h4v1h-4z M235,82h1v1h-1z M239,82h5v1h-5z M247,82h2v1h-2z M258,81h9v2h-9z M1,83h9v1h-9z M18,83h2v1h-2z M26,83h4v1h-4z M48,83h4v1h-4z M60,83h4v1h-4z M78,83h4v1h-4z M88,83h5v1h-5z M97,82h5v2h-5z M103,83h2v1h-2z M123,83h2v1h-2z M149,83h4v1h-4z M159,83h2v1h-2z M168,83h5v1h-5z M191,83h3v1h-3z M204,83h5v1h-5z M211,83h4v1h-4z M222,83h4v1h-4z M234,83h3v1h-3z M238,83h5v1h-5z M257,83h4v1h-4z M1,84h10v1h-10z M26,84h5v1h-5z M48,84h5v1h-5z M60,84h3v1h-3z M70,84h4v1h-4z M78,84h3v1h-3z M89,84h5v1h-5z M97,84h4v1h-4z M102,84h4v1h-4z M122,84h4v1h-4z M140,84h2v1h-2z M150,84h4v1h-4z M169,84h5v1h-5z M185,84h3v1h-3z M191,84h4v1h-4z M203,84h5v1h-5z M212,84h4v1h-4z M221,84h4v1h-4z M234,84h8v1h-8z M246,83h4v2h-4z M6,85h5v1h-5z M28,85h4v1h-4z M70,85h5v1h-5z M90,85h5v1h-5z M110,85h3v1h-3z M123,85h3v1h-3z M140,85h1v1h-1z M151,85h5v1h-5z M170,85h5v1h-5z M185,85h4v1h-4z M192,85h4v1h-4z M202,85h4v1h-4z M212,85h5v1h-5z M220,85h4v1h-4z M235,85h7v1h-7z M247,85h3v1h-3z M8,86h4v1h-4z M28,86h5v1h-5z M50,85h4v2h-4z M71,86h5v1h-5z M91,86h5v1h-5z M102,85h3v2h-3z M110,86h4v1h-4z M124,86h1v1h-1z M152,86h5v1h-5z M172,86h4v1h-4z M183,86h5v1h-5z M193,86h4v1h-4z M201,86h5v1h-5z M213,86h10v1h-10z M236,86h5v1h-5z M257,84h3v3h-3z M263,83h4v4h-4z M9,87h3v1h-3z M29,87h4v1h-4z M37,87h1v1h-1z M51,87h5v1h-5z M65,87h1v1h-1z M72,87h4v1h-4z M92,87h4v1h-4z M110,87h5v1h-5z M153,87h4v1h-4z M165,87h2v1h-2z M173,87h4v1h-4z M183,87h4v1h-4z M194,87h4v1h-4z M200,87h4v1h-4z M214,87h8v1h-8z M225,87h2v1h-2z M236,87h6v1h-6z M257,87h4v1h-4z M262,87h5v1h-5z M30,88h3v1h-3z M36,88h2v1h-2z M52,88h4v1h-4z M73,88h4v1h-4z M84,87h2v2h-2z M93,88h4v1h-4z M111,88h5v1h-5z M144,88h3v1h-3z M154,88h4v1h-4z M173,88h5v1h-5z M182,88h4v1h-4z M194,88h10v1h-10z M215,88h6v1h-6z M237,88h5v1h-5z M257,88h10v1h-10z M34,89h4v1h-4z M44,89h2v1h-2z M53,89h5v1h-5z M63,88h3v2h-3z M74,89h4v1h-4z M94,89h4v1h-4z M112,89h4v1h-4z M143,89h3v1h-3z M155,89h4v1h-4z M163,88h4v2h-4z M174,89h2v1h-2z M177,89h1v1h-1z M180,89h5v1h-5z M195,89h8v1h-8z M216,89h5v1h-5z M238,89h6v1h-6z M258,89h3v1h-3z M33,90h5v1h-5z M54,90h4v1h-4z M75,90h4v1h-4z M95,90h5v1h-5z M113,90h3v1h-3z M125,89h4v2h-4z M142,90h4v1h-4z M156,90h3v1h-3z M162,90h4v1h-4z M179,90h5v1h-5z M196,90h6v1h-6z M205,90h2v1h-2z M218,90h4v1h-4z M224,88h4v3h-4z M240,90h4v1h-4z M249,90h1v1h-1z M262,89h5v2h-5z M22,89h3v3h-3z M32,91h5v1h-5z M43,90h3v2h-3z M55,91h4v1h-4z M76,91h4v1h-4z M96,91h4v1h-4z M123,91h5v1h-5z M141,91h4v1h-4z M160,91h5v1h-5z M178,91h5v1h-5z M196,91h5v1h-5z M204,91h3v1h-3z M219,91h3v1h-3z M240,91h5v1h-5z M248,91h3v1h-3z M1,85h4v8h-4z M14,92h4v1h-4z M31,92h5v1h-5z M50,92h3v1h-3z M56,92h3v1h-3z M69,92h3v1h-3z M77,92h3v1h-3z M97,92h2v1h-2z M122,92h6v1h-6z M131,92h2v1h-2z M139,92h5v1h-5z M148,92h2v1h-2z M159,92h5v1h-5z M167,92h1v1h-1z M177,92h6v1h-6z M184,92h2v1h-2z M196,92h4v1h-4z M205,92h2v1h-2z M220,92h2v1h-2z M241,92h10v1h-10z M1,93h8v1h-8z M13,93h5v1h-5z M31,93h4v1h-4z M49,93h4v1h-4z M68,93h4v1h-4z M104,93h4v1h-4z M122,93h5v1h-5z M138,93h5v1h-5z M148,93h3v1h-3z M158,93h5v1h-5z M166,93h3v1h-3z M176,93h5v1h-5z M198,93h1v1h-1z M242,93h9v1h-9z M255,93h2v1h-2z M1,94h9v1h-9z M12,94h5v1h-5z M30,94h4v1h-4z M48,94h5v1h-5z M67,94h5v1h-5z M103,94h5v1h-5z M120,94h5v1h-5z M137,94h6v1h-6z M149,94h1v1h-1z M157,94h5v1h-5z M165,94h4v1h-4z M175,94h5v1h-5z M183,93h4v2h-4z M228,94h3v1h-3z M237,93h3v2h-3z M243,94h8v1h-8z M263,91h4v4h-4z M6,95h3v1h-3z M11,95h5v1h-5z M28,95h6v1h-6z M47,95h5v1h-5z M66,95h5v1h-5z M85,95h3v1h-3z M102,95h5v1h-5z M110,95h3v1h-3z M119,95h6v1h-6z M130,93h4v3h-4z M136,95h6v1h-6z M156,95h5v1h-5z M166,95h3v1h-3z M174,95h5v1h-5z M183,95h3v1h-3z M227,95h4v1h-4z M238,95h2v1h-2z M254,94h4v2h-4z M262,95h5v1h-5z M10,96h5v1h-5z M27,96h6v1h-6z M46,96h5v1h-5z M65,96h5v1h-5z M84,96h4v1h-4z M91,96h2v1h-2z M101,96h5v1h-5z M110,96h4v1h-4z M135,96h6v1h-6z M155,96h5v1h-5z M173,96h5v1h-5z M226,96h5v1h-5z M243,95h6v2h-6z M255,96h2v1h-2z M261,96h6v1h-6z M1,95h4v3h-4z M9,97h5v1h-5z M26,97h6v1h-6z M36,97h2v1h-2z M45,97h5v1h-5z M55,97h2v1h-2z M64,97h5v1h-5z M83,97h4v1h-4z M90,97h4v1h-4z M100,97h5v1h-5z M110,97h3v1h-3z M118,96h7v2h-7z M134,97h6v1h-6z M154,97h5v1h-5z M173,97h4v1h-4z M208,97h2v1h-2z M225,97h5v1h-5z M242,97h6v1h-6z M260,97h7v1h-7z M1,98h5v1h-5z M9,98h4v1h-4z M21,98h10v1h-10z M44,98h5v1h-5z M54,98h3v1h-3z M63,98h5v1h-5z M74,97h3v2h-3z M81,98h5v1h-5z M91,98h3v1h-3z M99,98h5v1h-5z M116,98h10v1h-10z M134,98h4v1h-4z M153,98h5v1h-5z M173,98h3v1h-3z M207,98h4v1h-4z M215,98h1v1h-1z M224,98h5v1h-5z M241,98h5v1h-5z M259,98h8v1h-8z M1,99h11v1h-11z M22,99h8v1h-8z M35,98h3v2h-3z M43,99h5v1h-5z M54,99h4v1h-4z M62,99h5v1h-5z M81,99h4v1h-4z M98,99h5v1h-5z M116,99h5v1h-5z M122,99h5v1h-5z M133,99h5v1h-5z M152,99h5v1h-5z M206,99h4v1h-4z M223,99h5v1h-5z M240,99h5v1h-5z M258,99h9v1h-9z M22,100h7v1h-7z M36,100h2v1h-2z M42,100h6v1h-6z M55,100h2v1h-2z M61,100h5v1h-5z M80,100h4v1h-4z M97,100h5v1h-5z M115,100h5v1h-5z M123,100h5v1h-5z M133,100h4v1h-4z M147,100h2v1h-2z M152,100h4v1h-4z M161,100h1v1h-1z M194,100h1v1h-1z M205,100h4v1h-4z M214,99h3v2h-3z M222,100h5v1h-5z M231,99h4v2h-4z M239,100h5v1h-5z M257,100h10v1h-10z M1,100h10v2h-10z M23,101h5v1h-5z M41,101h7v1h-7z M60,101h5v1h-5z M79,101h4v1h-4z M96,101h5v1h-5z M116,101h2v1h-2z M124,101h5v1h-5z M135,101h1v1h-1z M147,101h8v1h-8z M176,101h3v1h-3z M204,101h4v1h-4z M221,101h5v1h-5z M233,101h1v1h-1z M238,101h5v1h-5z M256,101h5v1h-5z M1,102h9v1h-9z M24,102h5v1h-5z M40,102h9v1h-9z M59,102h5v1h-5z M78,102h5v1h-5z M95,102h5v1h-5z M103,102h2v1h-2z M116,102h1v1h-1z M125,102h5v1h-5z M147,102h7v1h-7z M160,101h2v2h-2z M175,102h4v1h-4z M186,102h1v1h-1z M193,101h4v2h-4z M203,102h4v1h-4z M220,102h5v1h-5z M237,102h5v1h-5z M255,102h5v1h-5z M1,103h10v1h-10z M15,102h2v2h-2z M24,103h6v1h-6z M40,103h10v1h-10z M58,103h5v1h-5z M69,103h3v1h-3z M77,103h4v1h-4z M89,103h4v1h-4z M94,103h5v1h-5z M102,103h3v1h-3z M121,103h1v1h-1z M126,103h5v1h-5z M148,103h5v1h-5z M176,103h2v1h-2z M184,103h3v1h-3z M193,103h3v1h-3z M202,103h4v1h-4z M219,103h5v1h-5z M237,103h4v1h-4z M246,103h2v1h-2z M255,103h3v1h-3z M7,104h5v1h-5z M25,104h5v1h-5z M40,104h3v1h-3z M46,104h5v1h-5z M57,104h5v1h-5z M69,104h4v1h-4z M76,104h5v1h-5z M90,104h8v1h-8z M103,104h3v1h-3z M112,104h2v1h-2z M127,104h5v1h-5z M149,104h4v1h-4z M183,104h5v1h-5z M194,104h1v1h-1z M201,104h5v1h-5z M218,104h5v1h-5z M238,104h2v1h-2z M256,104h1v1h-1z M263,101h3v4h-3z M8,105h5v1h-5z M27,105h4v1h-4z M47,105h5v1h-5z M57,105h4v1h-4z M70,105h3v1h-3z M75,105h5v1h-5z M90,105h7v1h-7z M104,105h1v1h-1z M111,105h4v1h-4z M128,105h5v1h-5z M138,103h3v3h-3z M150,105h4v1h-4z M182,105h5v1h-5z M200,105h4v1h-4z M217,105h5v1h-5z M245,104h3v2h-3z M1,104h4v3h-4z M9,106h5v1h-5z M23,106h2v1h-2z M27,106h5v1h-5z M48,106h5v1h-5z M57,106h3v1h-3z M70,106h9v1h-9z M91,106h5v1h-5z M111,106h5v1h-5z M120,104h3v3h-3z M129,106h4v1h-4z M139,106h1v1h-1z M151,106h4v1h-4z M181,106h5v1h-5z M199,106h4v1h-4z M215,106h6v1h-6z M263,105h4v2h-4z M10,107h4v1h-4z M49,107h5v1h-5z M71,107h7v1h-7z M92,107h4v1h-4z M112,107h4v1h-4z M121,107h1v1h-1z M130,107h4v1h-4z M152,107h3v1h-3z M180,107h5v1h-5z M198,107h4v1h-4z M206,107h2v1h-2z M1,107h3v2h-3z M11,108h4v1h-4z M22,107h3v2h-3z M29,107h4v2h-4z M50,108h5v1h-5z M63,108h1v1h-1z M72,108h5v1h-5z M82,107h3v2h-3z M93,108h4v1h-4z M113,108h5v1h-5z M153,108h1v1h-1z M161,108h2v1h-2z M179,108h5v1h-5z M197,108h4v1h-4z M205,108h4v1h-4z M225,105h3v4h-3z M1,109h5v1h-5z M12,109h4v1h-4z M23,109h2v1h-2z M30,109h3v1h-3z M42,109h2v1h-2z M51,109h4v1h-4z M73,109h4v1h-4z M82,109h2v1h-2z M93,109h5v1h-5z M114,109h4v1h-4z M160,109h4v1h-4z M178,109h5v1h-5z M196,109h5v1h-5z M206,109h3v1h-3z M215,107h5v3h-5z M238,109h3v1h-3z M257,108h2v2h-2z M1,110h7v1h-7z M13,110h3v1h-3z M32,110h1v1h-1z M52,110h4v1h-4z M74,110h4v1h-4z M94,110h5v1h-5z M114,110h5v1h-5z M159,110h5v1h-5z M177,110h5v1h-5z M188,110h2v1h-2z M196,110h4v1h-4z M216,110h5v1h-5z M238,110h4v1h-4z M1,111h8v1h-8z M42,110h3v2h-3z M53,111h4v1h-4z M62,109h3v3h-3z M75,111h4v1h-4z M95,111h5v1h-5z M116,111h4v1h-4z M158,111h5v1h-5z M166,110h4v2h-4z M176,111h5v1h-5z M189,111h1v1h-1z M196,111h5v1h-5z M217,111h5v1h-5z M238,111h5v1h-5z M13,111h2v2h-2z M54,112h4v1h-4z M76,112h4v1h-4z M96,112h5v1h-5z M103,112h1v1h-1z M117,112h4v1h-4z M140,112h1v1h-1z M157,112h6v1h-6z M167,112h3v1h-3z M175,112h5v1h-5z M197,112h5v1h-5z M218,112h5v1h-5z M239,112h5v1h-5z M263,107h3v6h-3z M1,112h7v2h-7z M12,113h3v1h-3z M30,112h4v2h-4z M55,113h3v1h-3z M76,113h5v1h-5z M98,113h7v1h-7z M117,113h5v1h-5z M139,113h3v1h-3z M147,113h2v1h-2z M156,113h5v1h-5z M174,113h5v1h-5z M198,113h5v1h-5z M219,113h5v1h-5z M240,113h5v1h-5z M262,113h4v1h-4z M11,114h4v1h-4z M29,114h5v1h-5z M48,114h3v1h-3z M77,114h5v1h-5z M99,114h6v1h-6z M118,114h6v1h-6z M138,114h4v1h-4z M146,114h3v1h-3z M155,114h6v1h-6z M174,114h4v1h-4z M181,114h3v1h-3z M200,114h4v1h-4z M220,114h9v1h-9z M259,114h7v1h-7z M10,115h4v1h-4z M28,115h5v1h-5z M47,115h4v1h-4z M78,115h6v1h-6z M99,115h5v1h-5z M109,115h1v1h-1z M117,115h7v1h-7z M136,115h5v1h-5z M154,115h6v1h-6z M175,115h1v1h-1z M181,115h4v1h-4z M200,115h5v1h-5z M221,115h8v1h-8z M241,114h5v2h-5z M251,113h2v3h-2z M258,115h8v1h-8z M8,116h6v1h-6z M27,116h5v1h-5z M36,116h2v1h-2z M46,116h4v1h-4z M64,116h3v1h-3z M90,116h1v1h-1z M98,116h6v1h-6z M108,116h3v1h-3z M116,116h9v1h-9z M135,116h6v1h-6z M153,116h5v1h-5z M181,116h5v1h-5z M201,116h6v1h-6z M222,116h6v1h-6z M233,114h3v3h-3z M241,116h7v1h-7z M257,116h9v1h-9z M7,117h6v1h-6z M26,117h5v1h-5z M45,117h5v1h-5z M63,117h4v1h-4z M98,117h4v1h-4z M109,117h1v1h-1z M115,117h5v1h-5z M121,117h4v1h-4z M127,115h3v3h-3z M134,117h5v1h-5z M152,117h5v1h-5z M182,117h5v1h-5z M203,117h6v1h-6z M214,117h2v1h-2z M222,117h5v1h-5z M256,117h10v1h-10z M1,114h4v5h-4z M7,118h5v1h-5z M16,118h3v1h-3z M25,118h5v1h-5z M35,117h4v2h-4z M44,118h5v1h-5z M62,118h5v1h-5z M80,116h5v3h-5z M89,117h3v2h-3z M96,118h6v1h-6z M114,118h5v1h-5z M122,118h3v1h-3z M134,118h4v1h-4z M151,118h5v1h-5z M183,118h5v1h-5z M204,118h5v1h-5z M213,118h4v1h-4z M222,118h4v1h-4z M240,117h9v2h-9z M256,118h4v1h-4z M24,119h5v1h-5z M35,119h3v1h-3z M43,119h5v1h-5z M61,119h5v1h-5z M71,117h3v3h-3z M78,119h6v1h-6z M95,119h5v1h-5z M113,119h5v1h-5z M133,119h5v1h-5z M144,119h3v1h-3z M150,119h5v1h-5z M184,119h5v1h-5z M195,117h3v3h-3z M203,119h5v1h-5z M213,119h3v1h-3z M221,119h4v1h-4z M238,119h5v1h-5z M246,119h4v1h-4z M255,119h4v1h-4z M262,118h4v2h-4z M1,119h9v2h-9z M42,120h5v1h-5z M60,120h5v1h-5z M78,120h4v1h-4z M94,120h6v1h-6z M112,120h5v1h-5z M132,120h4v1h-4z M144,120h4v1h-4z M150,120h4v1h-4z M165,119h3v2h-3z M175,120h1v1h-1z M202,120h5v1h-5z M220,120h4v1h-4z M237,120h5v1h-5z M247,120h3v1h-3z M253,120h5v1h-5z M261,120h5v1h-5z M15,119h4v3h-4z M23,120h5v2h-5z M42,121h4v1h-4z M51,119h3v3h-3z M59,121h5v1h-5z M77,121h4v1h-4z M94,121h5v1h-5z M111,121h5v1h-5z M130,121h5v1h-5z M144,121h9v1h-9z M166,121h3v1h-3z M184,120h6v2h-6z M202,121h4v1h-4z M219,121h4v1h-4z M237,121h4v1h-4z M252,121h5v1h-5z M1,121h8v2h-8z M22,122h7v1h-7z M40,122h6v1h-6z M52,122h1v1h-1z M58,122h5v1h-5z M76,122h4v1h-4z M92,122h6v1h-6z M110,122h5v1h-5z M130,122h4v1h-4z M144,122h8v1h-8z M166,122h5v1h-5z M174,121h3v2h-3z M183,122h7v1h-7z M201,122h4v1h-4z M218,122h4v1h-4z M236,122h4v1h-4z M251,122h5v1h-5z M259,121h7v2h-7z M1,123h9v1h-9z M21,123h9v1h-9z M40,123h4v1h-4z M47,123h2v1h-2z M57,123h5v1h-5z M75,123h4v1h-4z M91,123h6v1h-6z M108,123h6v1h-6z M128,123h5v1h-5z M146,123h5v1h-5z M156,122h3v2h-3z M167,123h5v1h-5z M174,123h2v1h-2z M182,123h5v1h-5z M200,123h3v1h-3z M216,123h5v1h-5z M234,123h6v1h-6z M241,123h2v1h-2z M250,123h5v1h-5z M260,123h6v1h-6z M6,124h5v1h-5z M19,124h6v1h-6z M27,124h4v1h-4z M38,124h5v1h-5z M47,124h3v1h-3z M57,124h4v1h-4z M68,124h3v1h-3z M74,124h4v1h-4z M90,124h6v1h-6z M120,123h3v2h-3z M137,124h2v1h-2z M147,124h4v1h-4z M157,124h2v1h-2z M164,124h2v1h-2z M168,124h5v1h-5z M181,124h5v1h-5z M199,124h3v1h-3z M216,124h4v1h-4z M224,123h4v2h-4z M233,124h5v1h-5z M240,124h4v1h-4z M249,124h6v1h-6z M1,124h3v2h-3z M7,125h5v1h-5z M18,125h5v1h-5z M28,125h4v1h-4z M37,125h5v1h-5z M47,125h4v1h-4z M56,125h4v1h-4z M68,125h10v1h-10z M99,123h3v3h-3z M108,124h5v2h-5z M121,125h1v1h-1z M127,124h6v2h-6z M136,125h3v1h-3z M148,125h4v1h-4z M170,125h4v1h-4z M180,125h4v1h-4z M198,125h4v1h-4z M207,125h1v1h-1z M214,125h5v1h-5z M225,125h3v1h-3z M233,125h4v1h-4z M248,125h6v1h-6z M8,126h5v1h-5z M17,126h6v1h-6z M29,126h4v1h-4z M47,126h5v1h-5z M56,126h3v1h-3z M63,126h1v1h-1z M68,126h8v1h-8z M108,126h7v1h-7z M127,126h8v1h-8z M138,126h1v1h-1z M149,126h4v1h-4z M162,125h4v2h-4z M170,126h5v1h-5z M179,126h4v1h-4z M196,126h5v1h-5z M206,126h3v1h-3z M226,126h1v1h-1z M233,126h3v1h-3z M240,125h3v2h-3z M262,124h4v3h-4z M1,126h4v2h-4z M9,127h5v1h-5z M16,127h5v1h-5z M30,127h4v1h-4z M37,126h4v2h-4z M48,127h6v1h-6z M57,127h1v1h-1z M69,127h7v1h-7z M80,127h2v1h-2z M90,125h5v3h-5z M112,127h4v1h-4z M128,127h2v1h-2z M132,127h4v1h-4z M143,127h1v1h-1z M150,127h4v1h-4z M162,127h2v1h-2z M171,127h4v1h-4z M196,127h4v1h-4z M206,127h4v1h-4z M247,126h9v2h-9z M261,127h5v1h-5z M1,128h5v1h-5z M10,128h4v1h-4z M30,128h6v1h-6z M38,128h2v1h-2z M50,128h4v1h-4z M70,128h5v1h-5z M79,128h3v1h-3z M91,128h5v1h-5z M112,128h5v1h-5z M133,128h3v1h-3z M142,128h2v1h-2z M151,128h3v1h-3z M173,128h1v1h-1z M178,127h4v2h-4z M195,128h4v1h-4z M206,128h3v1h-3z M213,126h5v3h-5z M247,128h3v1h-3z M252,128h4v1h-4z M260,128h6v1h-6z M1,129h6v1h-6z M11,129h3v1h-3z M16,128h4v2h-4z M31,129h5v1h-5z M50,129h5v1h-5z M62,127h3v3h-3z M71,129h5v1h-5z M79,129h4v1h-4z M92,129h5v1h-5z M113,129h5v1h-5z M141,129h4v1h-4z M178,129h2v1h-2z M186,127h3v3h-3z M196,129h2v1h-2z M214,129h5v1h-5z M238,129h1v1h-1z M253,129h2v1h-2z M259,129h7v1h-7z M1,130h7v1h-7z M11,130h9v1h-9z M31,130h7v1h-7z M39,130h1v1h-1z M42,130h1v1h-1z M49,130h7v1h-7z M61,130h4v1h-4z M70,130h7v1h-7z M78,130h6v1h-6z M92,130h6v1h-6z M112,130h6v1h-6z M135,130h1v1h-1z M137,130h1v1h-1z M140,130h5v1h-5z M152,129h2v2h-2z M215,130h5v1h-5z M258,130h8v1h-8z M1,131h162v1h-162z M164,131h1v1h-1z M178,131h1v1h-1z M187,130h2v2h-2z M216,131h5v1h-5z M237,130h3v2h-3z M258,131h9v1h-9z M1,132h213v1h-213z M215,132h8v1h-8z M227,132h5v1h-5z M235,132h9v1h-9z M247,132h2v1h-2z M253,132h1v1h-1z M256,132h11v1h-11z M1,133h266v1h-266z M1,134h54v1h-54z M56,134h11v1h-11z M72,134h4v1h-4z M77,134h2v1h-2z M87,134h8v1h-8z M97,134h11v1h-11z M110,134h1v1h-1z M113,134h153v1h-153z M176,135h90v1h-90z M223,136h3v1h-3z M228,136h14v1h-14z M245,136h19v1h-19z
  "/>
</svg>