<?xml version="1.0" encoding="UTF-8"?>
<svg xmlns="http://www.w3.org/2000/svg" viewBox="0 0 265 141" width="265" height="141">
  <title>38 Salt</title>
  <path fill="#111111" fill-rule="nonzero" d="
    M2,0h3v1h-3z M1,1h31v1h-31z M34,1h12v1h-12z M1,2h108v1h-108z M1,3h152v1h-152z M155,3h11v1h-11z M169,3h1v1h-1z M1,4h201v1h-201z M208,4h3v1h-3z M66,5h180v1h-180z M129,6h5v1h-5z M136,6h127v1h-127z M175,7h3v1h-3z M181,7h6v1h-6z M188,7h75v1h-75z M217,8h1v1h-1z M219,8h45v1h-45z M254,9h10v1h-10z M259,10h5v1h-5z M260,11h4v17h-4z M1,5h4v33h-4z M1,38h11v1h-11z M2,39h102v1h-102z M2,40h144v1h-144z M148,40h2v1h-2z M152,40h1v1h-1z M161,40h1v1h-1z M165,40h5v1h-5z M261,28h3v13h-3z M1,41h196v1h-196z M199,41h3v1h-3z M1,42h5v1h-5z M9,42h6v1h-6z M17,42h6v1h-6z M27,42h5v1h-5z M35,42h24v1h-24z M60,42h168v1h-168z M229,42h10v1h-10z M246,42h1v1h-1z M248,42h1v1h-1z M251,42h2v1h-2z M260,41h4v2h-4z M45,43h5v1h-5z M53,43h5v1h-5z M62,43h5v1h-5z M80,43h5v1h-5z M89,43h6v1h-6z M99,43h5v1h-5z M108,43h5v1h-5z M117,43h6v1h-6z M126,43h16v1h-16z M143,43h121v1h-121z M1,43h4v2h-4z M80,44h4v1h-4z M117,44h5v1h-5z M154,44h5v1h-5z M162,44h6v1h-6z M169,44h7v1h-7z M178,44h9v1h-9z M188,44h76v1h-76z M2,45h3v1h-3z M19,43h4v3h-4z M54,44h3v2h-3z M136,44h4v2h-4z M172,45h4v1h-4z M180,45h5v1h-5z M189,45h5v1h-5z M199,45h4v1h-4z M218,45h6v1h-6z M225,45h39v1h-39z M1,46h5v1h-5z M10,43h4v4h-4z M18,46h5v1h-5z M28,43h4v4h-4z M36,43h4v4h-4z M45,44h4v3h-4z M54,46h4v1h-4z M62,44h4v3h-4z M71,43h4v4h-4z M81,45h3v2h-3z M109,44h3v3h-3z M118,45h3v2h-3z M137,46h3v1h-3z M181,46h4v1h-4z M219,46h4v1h-4z M246,46h5v1h-5z M253,46h11v1h-11z M1,47h6v1h-6z M8,47h8v1h-8z M17,47h9v1h-9z M27,47h5v1h-5z M35,47h6v1h-6z M45,47h5v1h-5z M53,47h6v1h-6z M62,47h5v1h-5z M70,47h5v1h-5z M80,47h4v1h-4z M90,44h4v4h-4z M99,44h4v4h-4z M108,47h4v1h-4z M118,47h4v1h-4z M127,44h4v4h-4z M155,45h3v3h-3z M254,47h4v1h-4z M1,48h95v1h-95z M97,48h7v1h-7z M108,48h5v1h-5z M117,48h5v1h-5z M126,48h5v1h-5z M136,47h4v2h-4z M145,44h4v5h-4z M154,48h4v1h-4z M172,46h3v3h-3z M181,47h3v2h-3z M190,46h3v3h-3z M220,47h3v2h-3z M260,47h4v2h-4z M2,49h149v1h-149z M152,49h8v1h-8z M163,45h4v5h-4z M171,49h5v1h-5z M180,49h5v1h-5z M189,49h5v1h-5z M200,46h3v4h-3z M209,45h4v5h-4z M219,49h4v1h-4z M254,48h3v2h-3z M261,49h3v1h-3z M1,50h196v1h-196z M198,50h6v1h-6z M207,50h7v1h-7z M219,50h5v1h-5z M229,46h4v5h-4z M238,46h4v5h-4z M246,47h4v4h-4z M253,50h5v1h-5z M260,50h4v1h-4z M1,51h5v1h-5z M8,51h7v1h-7z M18,51h6v1h-6z M26,51h7v1h-7z M34,51h8v1h-8z M44,51h220v1h-220z M53,52h5v1h-5z M71,52h4v1h-4z M80,52h5v1h-5z M108,52h5v1h-5z M118,52h6v1h-6z M125,52h139v1h-139z M19,52h4v2h-4z M28,52h4v2h-4z M36,52h4v2h-4z M80,53h4v1h-4z M108,53h4v1h-4z M118,53h4v1h-4z M127,53h4v1h-4z M135,53h5v1h-5z M144,53h5v1h-5z M154,53h5v1h-5z M162,53h6v1h-6z M170,53h7v1h-7z M178,53h86v1h-86z M37,54h3v1h-3z M90,52h4v3h-4z M128,54h3v1h-3z M136,54h4v1h-4z M172,54h4v1h-4z M180,54h5v1h-5z M189,54h5v1h-5z M199,54h4v1h-4z M208,54h6v1h-6z M217,54h7v1h-7z M227,54h37v1h-37z M1,52h4v4h-4z M10,52h4v4h-4z M19,54h3v2h-3z M28,54h3v2h-3z M71,53h3v3h-3z M81,54h3v2h-3z M99,52h4v4h-4z M154,54h4v2h-4z M190,55h4v1h-4z M219,55h4v1h-4z M229,55h5v1h-5z M246,55h4v1h-4z M253,55h5v1h-5z M259,55h5v1h-5z M1,56h5v1h-5z M10,56h5v1h-5z M18,56h5v1h-5z M28,56h4v1h-4z M36,55h4v2h-4z M45,52h4v5h-4z M54,53h3v4h-3z M90,55h3v2h-3z M100,56h3v1h-3z M109,54h3v3h-3z M137,55h3v2h-3z M200,55h3v2h-3z M229,56h4v1h-4z M260,56h4v1h-4z M1,57h32v1h-32z M35,57h7v1h-7z M44,57h7v1h-7z M52,57h6v1h-6z M62,52h4v6h-4z M71,56h4v2h-4z M80,56h4v2h-4z M90,57h4v1h-4z M99,57h4v1h-4z M108,57h4v1h-4z M118,54h3v4h-3z M127,55h4v3h-4z M145,54h4v4h-4z M155,56h3v2h-3z M190,56h3v2h-3z M247,56h3v2h-3z M1,58h104v1h-104z M106,58h16v1h-16z M126,58h5v1h-5z M136,57h4v2h-4z M145,58h5v1h-5z M154,58h4v1h-4z M163,54h4v5h-4z M172,55h3v4h-3z M181,55h3v4h-3z M190,58h4v1h-4z M209,55h4v4h-4z M220,56h3v3h-3z M230,57h3v2h-3z M246,58h3v1h-3z M1,59h167v1h-167z M169,59h7v1h-7z M179,59h6v1h-6z M189,59h5v1h-5z M199,57h4v3h-4z M209,59h5v1h-5z M219,59h4v1h-4z M229,59h4v1h-4z M238,55h4v5h-4z M254,56h3v4h-3z M2,60h213v1h-213z M218,60h6v1h-6z M229,60h5v1h-5z M237,60h6v1h-6z M246,59h4v2h-4z M254,60h4v1h-4z M261,57h3v4h-3z M2,61h4v1h-4z M9,61h5v1h-5z M18,61h5v1h-5z M36,61h5v1h-5z M45,61h5v1h-5z M52,61h7v1h-7z M61,61h34v1h-34z M96,61h168v1h-168z M36,62h4v1h-4z M53,62h5v1h-5z M80,62h4v1h-4z M99,62h4v1h-4z M108,62h5v1h-5z M117,62h5v1h-5z M126,62h6v1h-6z M134,62h7v1h-7z M144,62h120v1h-120z M71,62h4v2h-4z M109,63h3v1h-3z M127,63h4v1h-4z M154,63h5v1h-5z M162,63h5v1h-5z M172,63h4v1h-4z M178,63h7v1h-7z M188,63h16v1h-16z M205,63h59v1h-59z M1,62h4v3h-4z M45,62h4v3h-4z M108,64h4v1h-4z M154,64h4v1h-4z M189,64h5v1h-5z M199,64h4v1h-4z M209,64h5v1h-5z M219,64h5v1h-5z M229,64h5v1h-5z M237,64h6v1h-6z M245,64h19v1h-19z M1,65h5v1h-5z M10,62h4v4h-4z M19,62h4v4h-4z M28,61h4v5h-4z M37,63h3v3h-3z M46,65h3v1h-3z M54,63h3v3h-3z M71,64h3v2h-3z M81,63h3v3h-3z M109,65h3v1h-3z M127,64h3v2h-3z M163,64h3v2h-3z M246,65h4v1h-4z M253,65h5v1h-5z M260,65h4v1h-4z M1,66h14v1h-14z M17,66h7v1h-7z M26,66h7v1h-7z M35,66h6v1h-6z M45,66h4v1h-4z M53,66h5v1h-5z M62,62h4v5h-4z M71,66h4v1h-4z M80,66h4v1h-4z M90,62h4v5h-4z M100,63h3v4h-3z M108,66h4v1h-4z M118,63h3v4h-3z M127,66h4v1h-4z M155,65h3v2h-3z M1,67h77v1h-77z M79,67h8v1h-8z M89,67h15v1h-15z M106,67h7v1h-7z M117,67h5v1h-5z M126,67h5v1h-5z M136,63h4v5h-4z M145,63h4v5h-4z M154,67h4v1h-4z M163,66h4v2h-4z M172,64h3v4h-3z M181,64h3v4h-3z M190,65h3v3h-3z M229,65h4v3h-4z M247,66h3v2h-3z M1,68h151v1h-151z M154,68h5v1h-5z M162,68h6v1h-6z M171,68h5v1h-5z M180,68h5v1h-5z M189,68h5v1h-5z M200,65h3v4h-3z M209,65h4v4h-4z M220,65h3v4h-3z M230,68h3v1h-3z M1,69h204v1h-204z M207,69h7v1h-7z M219,69h5v1h-5z M229,69h5v1h-5z M238,65h4v5h-4z M246,68h4v2h-4z M254,66h3v4h-3z M261,66h3v4h-3z M1,70h6v1h-6z M10,70h5v1h-5z M18,70h6v1h-6z M27,70h5v1h-5z M36,70h5v1h-5z M42,70h8v1h-8z M51,70h200v1h-200z M253,70h5v1h-5z M260,70h4v1h-4z M10,71h4v1h-4z M19,71h4v1h-4z M28,71h4v1h-4z M53,71h5v1h-5z M80,71h5v1h-5z M89,71h5v1h-5z M99,71h5v1h-5z M108,71h5v1h-5z M117,71h6v1h-6z M126,71h138v1h-138z M28,72h3v1h-3z M99,72h4v1h-4z M108,72h4v1h-4z M118,72h4v1h-4z M127,72h4v1h-4z M145,72h5v1h-5z M154,72h5v1h-5z M163,72h7v1h-7z M171,72h6v1h-6z M179,72h85v1h-85z M1,71h4v3h-4z M11,72h3v2h-3z M19,72h3v2h-3z M54,72h3v2h-3z M128,73h3v1h-3z M154,73h4v1h-4z M181,73h4v1h-4z M189,73h5v1h-5z M199,73h4v1h-4z M207,73h57v1h-57z M1,74h5v1h-5z M10,74h4v1h-4z M19,74h4v1h-4z M28,73h4v2h-4z M36,71h4v4h-4z M45,71h4v4h-4z M54,74h4v1h-4z M62,71h4v4h-4z M71,71h4v4h-4z M81,72h3v3h-3z M100,73h3v2h-3z M109,73h3v2h-3z M219,74h4v1h-4z M237,74h6v1h-6z M245,74h5v1h-5z M253,74h5v1h-5z M1,75h40v1h-40z M43,75h7v1h-7z M53,75h5v1h-5z M61,75h6v1h-6z M70,75h6v1h-6z M80,75h5v1h-5z M90,72h4v4h-4z M99,75h4v1h-4z M108,75h4v1h-4z M118,73h3v3h-3z M127,74h4v2h-4z M136,72h4v4h-4z M145,73h4v3h-4z M155,74h3v2h-3z M229,74h5v2h-5z M238,75h4v1h-4z M246,75h4v1h-4z M1,76h106v1h-106z M108,76h5v1h-5z M117,76h5v1h-5z M126,76h6v1h-6z M135,76h6v1h-6z M144,76h7v1h-7z M154,76h4v1h-4z M163,73h4v4h-4z M172,73h4v4h-4z M181,74h3v3h-3z M190,74h3v3h-3z M200,74h3v3h-3z M220,75h3v2h-3z M229,76h4v1h-4z M246,76h3v1h-3z M260,74h4v3h-4z M1,77h175v1h-175z M179,77h6v1h-6z M189,77h5v1h-5z M199,77h4v1h-4z M209,74h4v4h-4z M219,77h4v1h-4z M238,76h3v2h-3z M254,75h3v3h-3z M261,77h3v1h-3z M1,78h223v1h-223z M229,77h5v2h-5z M238,78h4v1h-4z M246,77h4v2h-4z M254,78h4v1h-4z M260,78h4v1h-4z M1,79h5v1h-5z M10,79h5v1h-5z M18,79h5v1h-5z M27,79h6v1h-6z M35,79h6v1h-6z M44,79h6v1h-6z M52,79h6v1h-6z M62,79h5v1h-5z M69,79h174v1h-174z M245,79h7v1h-7z M253,79h11v1h-11z M10,80h4v1h-4z M36,80h4v1h-4z M62,80h4v1h-4z M71,80h4v1h-4z M99,80h5v1h-5z M108,80h4v1h-4z M117,80h5v1h-5z M126,80h6v1h-6z M135,80h6v1h-6z M144,80h7v1h-7z M152,80h112v1h-112z M11,81h3v1h-3z M54,80h3v2h-3z M63,81h3v1h-3z M72,81h2v1h-2z M136,81h4v1h-4z M145,81h4v1h-4z M154,81h5v1h-5z M171,81h5v1h-5z M180,81h5v1h-5z M187,81h1v1h-1z M189,81h6v1h-6z M196,81h68v1h-68z M1,80h4v3h-4z M19,80h4v3h-4z M37,81h3v2h-3z M54,82h4v1h-4z M72,82h3v1h-3z M100,81h3v2h-3z M172,82h4v1h-4z M209,82h4v1h-4z M219,82h6v1h-6z M228,82h6v1h-6z M237,82h27v1h-27z M1,83h5v1h-5z M10,82h4v2h-4z M18,83h5v1h-5z M28,80h4v4h-4z M36,83h4v1h-4z M45,80h4v4h-4z M53,83h5v1h-5z M62,82h4v2h-4z M71,83h4v1h-4z M81,80h3v4h-3z M99,83h4v1h-4z M109,81h3v3h-3z M118,81h3v3h-3z M137,82h3v2h-3z M155,82h3v2h-3z M163,81h4v3h-4z M190,82h4v2h-4z M200,82h3v2h-3z M219,83h4v1h-4z M238,83h4v1h-4z M253,83h11v1h-11z M1,84h66v1h-66z M69,84h8v1h-8z M80,84h5v1h-5z M90,80h4v5h-4z M99,84h5v1h-5z M108,84h4v1h-4z M118,84h4v1h-4z M127,81h4v4h-4z M136,84h4v1h-4z M146,82h3v3h-3z M154,84h4v1h-4z M163,84h3v1h-3z M172,83h3v2h-3z M190,84h3v1h-3z M200,84h2v1h-2z M220,84h3v1h-3z M246,83h4v2h-4z M2,85h130v1h-130z M135,85h7v1h-7z M145,85h6v1h-6z M154,85h5v1h-5z M162,85h5v1h-5z M172,85h4v1h-4z M181,82h3v4h-3z M190,85h4v1h-4z M200,85h3v1h-3z M210,83h3v3h-3z M239,84h3v2h-3z M247,85h3v1h-3z M2,86h186v1h-186z M189,86h6v1h-6z M199,86h4v1h-4z M209,86h5v1h-5z M219,85h4v2h-4z M229,83h4v4h-4z M238,86h4v1h-4z M246,86h4v1h-4z M254,84h4v3h-4z M260,84h4v3h-4z M2,87h22v1h-22z M26,87h217v1h-217z M245,87h19v1h-19z M37,88h4v1h-4z M53,88h5v1h-5z M79,88h6v1h-6z M90,88h5v1h-5z M98,88h6v1h-6z M107,88h7v1h-7z M116,88h148v1h-148z M2,88h4v2h-4z M99,89h4v1h-4z M118,89h4v1h-4z M126,89h5v1h-5z M136,89h5v1h-5z M145,89h7v1h-7z M154,89h6v1h-6z M161,89h103v1h-103z M2,90h3v1h-3z M10,88h4v3h-4z M37,89h3v2h-3z M180,90h5v1h-5z M199,90h5v1h-5z M205,90h1v1h-1z M207,90h7v1h-7z M215,90h2v1h-2z M218,90h46v1h-46z M2,91h4v1h-4z M10,91h5v1h-5z M19,88h4v4h-4z M28,88h4v4h-4z M36,91h4v1h-4z M45,88h4v4h-4z M54,89h3v3h-3z M100,90h3v2h-3z M109,89h3v3h-3z M118,90h3v2h-3z M163,90h4v2h-4z M209,91h4v1h-4z M219,91h4v1h-4z M229,91h5v1h-5z M238,91h5v1h-5z M246,91h18v1h-18z M2,92h14v1h-14z M17,92h7v1h-7z M27,92h6v1h-6z M36,92h5v1h-5z M44,92h6v1h-6z M53,92h5v1h-5z M62,88h4v5h-4z M71,88h4v5h-4z M81,89h3v4h-3z M90,89h4v4h-4z M99,92h4v1h-4z M108,92h5v1h-5z M118,92h4v1h-4z M127,90h4v3h-4z M146,90h3v3h-3z M164,92h3v1h-3z M254,92h4v1h-4z M260,92h4v1h-4z M2,93h85v1h-85z M88,93h8v1h-8z M98,93h6v1h-6z M107,93h7v1h-7z M117,93h5v1h-5z M126,93h5v1h-5z M136,90h4v4h-4z M145,93h5v1h-5z M154,90h4v4h-4z M163,93h4v1h-4z M172,90h4v4h-4z M181,91h3v3h-3z M200,91h3v3h-3z M210,92h3v2h-3z M220,92h3v2h-3z M2,94h158v1h-158z M161,94h7v1h-7z M171,94h5v1h-5z M180,94h5v1h-5z M190,90h4v5h-4z M199,94h4v1h-4z M209,94h4v1h-4z M219,94h4v1h-4z M229,92h4v3h-4z M238,92h4v3h-4z M254,93h3v2h-3z M261,93h3v2h-3z M2,95h204v1h-204z M207,95h1v1h-1z M209,95h5v1h-5z M219,95h5v1h-5z M229,95h5v1h-5z M238,95h5v1h-5z M246,92h4v4h-4z M254,95h4v1h-4z M260,95h4v1h-4z M2,96h4v1h-4z M15,96h1v1h-1z M24,96h1v1h-1z M35,96h1v1h-1z M38,96h1v1h-1z M45,96h5v1h-5z M55,96h7v1h-7z M63,96h188v1h-188z M253,96h11v1h-11z M126,97h7v1h-7z M136,97h128v1h-128z M168,98h8v1h-8z M182,98h2v1h-2z M185,98h79v1h-79z M1,97h4v3h-4z M221,99h1v1h-1z M232,99h2v1h-2z M237,99h27v1h-27z M2,100h3v1h-3z M255,100h2v1h-2z M258,100h6v1h-6z M260,101h4v1h-4z M2,101h4v3h-4z M1,104h4v2h-4z M2,106h3v11h-3z M1,117h4v4h-4z M2,121h3v1h-3z M261,102h3v22h-3z M1,122h4v3h-4z M2,125h3v5h-3z M1,130h4v2h-4z M2,132h4v1h-4z M2,133h52v1h-52z M2,134h122v1h-122z M125,134h12v1h-12z M146,134h3v1h-3z M2,135h201v1h-201z M3,136h4v1h-4z M8,136h236v1h-236z M246,136h1v1h-1z M260,124h4v13h-4z M89,137h1v1h-1z M94,137h170v1h-170z M140,138h124v1h-124z M213,139h51v1h-51z M249,140h3v1h-3z M258,140h3v1h-3z
  "/>
</svg>