<?xml version="1.0" encoding="UTF-8"?>
<svg xmlns="http://www.w3.org/2000/svg" viewBox="0 0 267 139" width="267" height="139">
  <title>12 Thin-bedded or shaly sandstone</title>
  <path fill="#111111" fill-rule="nonzero" d="
    M1,0h4v1h-4z M8,0h3v1h-3z M0,1h52v1h-52z M53,1h12v1h-12z M0,2h104v1h-104z M106,2h51v1h-51z M165,2h2v1h-2z M171,2h2v1h-2z M193,2h8v1h-8z M209,2h56v1h-56z M0,3h266v2h-266z M0,5h5v1h-5z M14,5h2v1h-2z M38,5h228v1h-228z M0,6h4v1h-4z M13,6h3v1h-3z M54,6h1v1h-1z M97,6h1v1h-1z M103,6h50v1h-50z M154,6h4v1h-4z M160,6h66v1h-66z M242,6h4v1h-4z M258,6h1v1h-1z M261,6h5v1h-5z M31,7h3v1h-3z M84,6h3v2h-3z M142,7h6v1h-6z M169,7h4v1h-4z M262,7h4v1h-4z M30,8h4v1h-4z M106,8h3v1h-3z M143,8h5v1h-5z M13,7h4v3h-4z M53,7h4v3h-4z M84,8h4v2h-4z M144,9h3v1h-3z M168,8h5v2h-5z M243,9h2v1h-2z M14,10h1v1h-1z M31,9h3v2h-3z M54,10h3v1h-3z M85,10h2v1h-2z M106,9h4v2h-4z M144,10h2v1h-2z M169,10h3v1h-3z M0,7h5v5h-5z M69,9h3v3h-3z M107,11h2v1h-2z M125,11h5v1h-5z M135,11h2v1h-2z M140,11h2v1h-2z M170,11h2v1h-2z M198,11h3v1h-3z M242,10h4v2h-4z M124,12h55v1h-55z M210,9h3v4h-3z M242,12h3v1h-3z M0,12h4v2h-4z M8,13h9v1h-9z M19,13h22v1h-22z M51,13h1v1h-1z M197,12h4v2h-4z M123,13h57v2h-57z M198,14h3v1h-3z M223,14h3v1h-3z M7,14h63v2h-63z M125,15h55v1h-55z M9,16h61v1h-61z M177,16h1v1h-1z M64,17h1v1h-1z M66,17h3v1h-3z M94,15h4v3h-4z M223,15h4v3h-4z M95,18h2v1h-2z M212,18h3v1h-3z M238,18h2v1h-2z M252,16h4v3h-4z M107,19h3v1h-3z M253,19h2v1h-2z M82,20h3v1h-3z M106,20h4v1h-4z M155,20h1v1h-1z M212,19h4v2h-4z M15,20h4v2h-4z M62,21h3v1h-3z M106,21h5v1h-5z M121,20h4v2h-4z M170,21h2v1h-2z M185,21h1v1h-1z M213,21h3v1h-3z M237,19h4v3h-4z M15,22h3v1h-3z M81,21h5v2h-5z M106,22h4v1h-4z M121,22h3v1h-3z M153,21h3v2h-3z M220,22h3v1h-3z M237,22h5v1h-5z M250,22h2v1h-2z M262,8h5v15h-5z M61,22h4v2h-4z M82,23h3v1h-3z M139,20h3v4h-3z M153,23h2v1h-2z M169,22h4v2h-4z M199,23h3v1h-3z M217,23h50v1h-50z M62,24h2v1h-2z M170,24h3v1h-3z M184,22h4v3h-4z M47,23h3v3h-3z M73,25h2v1h-2z M95,25h32v1h-32z M130,25h1v1h-1z M132,25h11v1h-11z M199,24h4v2h-4z M215,24h52v2h-52z M0,14h5v13h-5z M48,26h1v1h-1z M72,26h4v1h-4z M200,26h3v1h-3z M217,26h50v1h-50z M0,27h4v1h-4z M30,24h3v4h-3z M73,27h3v1h-3z M95,26h50v2h-50z M220,27h1v1h-1z M73,28h2v1h-2z M96,28h49v1h-49z M133,29h10v1h-10z M213,30h3v1h-3z M250,30h3v1h-3z M41,31h2v1h-2z M153,30h3v2h-3z M166,30h3v2h-3z M232,30h3v2h-3z M0,28h5v5h-5z M9,29h4v4h-4z M152,32h4v1h-4z M166,32h4v1h-4z M212,31h4v2h-4z M232,32h4v1h-4z M0,33h4v1h-4z M23,33h3v1h-3z M41,32h3v2h-3z M91,33h1v1h-1z M111,33h3v1h-3z M153,33h3v1h-3z M166,33h3v1h-3z M193,33h1v1h-1z M212,33h3v1h-3z M233,33h2v1h-2z M250,31h4v3h-4z M41,34h1v1h-1z M59,32h3v3h-3z M76,34h2v1h-2z M111,34h4v1h-4z M153,34h2v1h-2z M213,34h1v1h-1z M23,34h4v2h-4z M90,34h4v2h-4z M110,35h4v1h-4z M192,34h4v2h-4z M24,36h2v1h-2z M89,36h5v1h-5z M111,36h3v1h-3z M130,36h3v1h-3z M177,35h3v2h-3z M193,36h2v1h-2z M0,34h5v4h-5z M75,35h4v3h-4z M91,37h2v1h-2z M146,37h1v1h-1z M176,37h5v1h-5z M0,38h4v1h-4z M130,37h4v2h-4z M177,38h4v1h-4z M245,38h1v1h-1z M259,38h1v1h-1z M0,39h6v1h-6z M7,39h3v1h-3z M130,39h3v1h-3z M207,39h1v1h-1z M257,39h4v1h-4z M262,27h5v13h-5z M0,40h51v1h-51z M131,40h1v1h-1z M145,38h3v3h-3z M161,40h3v1h-3z M206,40h4v1h-4z M257,40h10v1h-10z M102,41h1v1h-1z M146,41h1v1h-1z M161,41h4v1h-4z M205,41h5v1h-5z M257,41h9v1h-9z M0,41h53v2h-53z M205,42h6v1h-6z M225,40h4v3h-4z M243,39h4v4h-4z M257,42h4v1h-4z M0,43h5v1h-5z M7,43h45v1h-45z M66,43h2v1h-2z M161,42h3v2h-3z M188,43h33v1h-33z M222,43h39v1h-39z M262,42h4v2h-4z M48,44h2v1h-2z M65,44h3v1h-3z M82,44h3v1h-3z M101,42h4v3h-4z M142,44h28v1h-28z M65,45h4v1h-4z M102,45h2v1h-2z M119,45h2v1h-2z M141,45h29v1h-29z M186,44h80v2h-80z M65,46h3v1h-3z M81,45h4v2h-4z M141,46h30v1h-30z M177,45h3v2h-3z M187,46h79v1h-79z M0,44h4v4h-4z M82,47h3v1h-3z M118,46h4v2h-4z M143,47h27v1h-27z M176,47h4v1h-4z M199,47h2v1h-2z M248,47h3v1h-3z M256,47h1v1h-1z M260,47h6v1h-6z M0,48h5v1h-5z M14,48h3v1h-3z M83,48h2v1h-2z M120,48h1v1h-1z M177,48h3v1h-3z M262,48h4v1h-4z M0,49h6v1h-6z M23,49h33v1h-33z M59,49h5v1h-5z M66,49h1v1h-1z M73,49h1v1h-1z M158,49h1v1h-1z M262,49h5v1h-5z M23,50h54v1h-54z M94,50h2v1h-2z M140,50h2v1h-2z M157,50h3v1h-3z M172,50h1v1h-1z M176,50h4v1h-4z M182,50h12v1h-12z M197,50h42v1h-42z M240,50h17v1h-17z M0,50h7v2h-7z M13,49h4v3h-4z M24,51h53v1h-53z M139,51h4v1h-4z M170,51h88v1h-88z M0,52h6v1h-6z M25,52h5v1h-5z M31,52h46v1h-46z M140,52h2v1h-2z M156,51h4v2h-4z M169,52h90v1h-90z M71,53h3v1h-3z M92,51h5v3h-5z M170,53h88v1h-88z M262,50h4v4h-4z M92,54h4v1h-4z M109,54h2v1h-2z M172,54h2v1h-2z M176,54h1v1h-1z M182,54h1v1h-1z M194,54h5v1h-5z M203,54h2v1h-2z M215,54h6v1h-6z M232,54h5v1h-5z M263,54h4v1h-4z M93,55h2v1h-2z M127,55h3v1h-3z M194,55h3v1h-3z M217,55h4v1h-4z M233,55h3v1h-3z M252,55h2v1h-2z M263,55h3v1h-3z M42,56h1v1h-1z M108,55h4v2h-4z M126,56h4v1h-4z M173,56h3v1h-3z M194,56h4v1h-4z M217,56h3v1h-3z M252,56h3v1h-3z M0,53h5v5h-5z M25,57h3v1h-3z M41,57h3v1h-3z M75,57h3v1h-3z M109,57h2v1h-2z M127,57h3v1h-3z M173,57h4v1h-4z M193,57h5v1h-5z M218,57h2v1h-2z M233,56h4v2h-4z M251,57h5v1h-5z M74,58h4v1h-4z M194,58h4v1h-4z M233,58h2v1h-2z M252,58h3v1h-3z M0,58h4v2h-4z M6,59h3v1h-3z M41,58h4v2h-4z M74,59h5v1h-5z M173,58h3v2h-3z M253,59h2v1h-2z M262,56h4v4h-4z M0,60h9v1h-9z M25,58h4v3h-4z M41,60h3v1h-3z M74,60h4v1h-4z M139,60h3v1h-3z M153,59h3v2h-3z M208,60h1v1h-1z M0,61h10v1h-10z M58,58h4v4h-4z M76,61h2v1h-2z M153,61h1v1h-1z M220,61h2v1h-2z M0,62h9v1h-9z M120,62h1v1h-1z M166,62h2v1h-2z M185,62h2v1h-2z M207,61h4v2h-4z M6,63h2v1h-2z M119,63h4v1h-4z M138,61h4v3h-4z M207,63h3v1h-3z M219,62h4v2h-4z M240,63h2v1h-2z M185,63h3v2h-3z M220,64h3v1h-3z M98,62h4v4h-4z M118,64h5v2h-5z M165,63h4v3h-4z M185,65h2v1h-2z M239,64h4v2h-4z M262,60h5v6h-5z M0,63h5v4h-5z M72,66h2v1h-2z M87,66h91v1h-91z M199,66h2v1h-2z M239,66h3v1h-3z M0,67h4v1h-4z M262,66h4v2h-4z M17,65h4v4h-4z M36,68h3v1h-3z M70,67h4v2h-4z M87,67h93v2h-93z M198,67h3v2h-3z M229,68h2v1h-2z M0,68h5v2h-5z M17,69h3v1h-3z M51,69h2v1h-2z M71,69h3v1h-3z M98,69h22v1h-22z M121,69h58v1h-58z M199,69h2v1h-2z M263,68h3v2h-3z M0,70h6v1h-6z M35,69h4v2h-4z M71,70h2v1h-2z M212,70h4v1h-4z M228,69h4v2h-4z M253,68h4v3h-4z M0,71h27v1h-27z M36,71h3v1h-3z M50,70h4v2h-4z M70,71h3v1h-3z M229,71h2v1h-2z M253,71h3v1h-3z M262,70h4v2h-4z M51,72h2v1h-2z M59,72h36v1h-36z M99,72h2v1h-2z M107,72h4v1h-4z M211,71h5v2h-5z M253,72h4v1h-4z M261,72h6v1h-6z M0,72h28v2h-28z M58,73h60v1h-60z M132,73h71v1h-71z M212,73h3v1h-3z M240,73h27v1h-27z M6,74h21v1h-21z M58,74h61v1h-61z M239,74h28v1h-28z M60,75h59v1h-59z M132,74h72v2h-72z M240,75h27v1h-27z M0,74h5v3h-5z M11,76h2v1h-2z M111,76h7v1h-7z M133,76h26v1h-26z M160,76h9v1h-9z M170,76h21v1h-21z M193,76h10v1h-10z M241,76h2v1h-2z M245,76h3v1h-3z M249,76h3v1h-3z M258,76h9v1h-9z M0,77h4v1h-4z M10,77h4v1h-4z M28,77h3v1h-3z M44,77h1v1h-1z M64,77h1v1h-1z M197,77h5v1h-5z M222,77h1v1h-1z M9,78h5v1h-5z M27,78h5v1h-5z M43,78h3v1h-3z M104,78h2v1h-2z M168,78h3v1h-3z M258,77h2v2h-2z M10,79h4v1h-4z M28,79h4v1h-4z M42,79h4v1h-4z M125,78h4v2h-4z M184,79h2v1h-2z M197,78h4v2h-4z M221,78h4v2h-4z M0,78h5v3h-5z M10,80h3v1h-3z M28,80h3v1h-3z M42,80h5v1h-5z M62,78h4v3h-4z M79,78h4v3h-4z M104,79h3v2h-3z M125,80h3v1h-3z M167,79h4v2h-4z M198,80h2v1h-2z M221,80h3v1h-3z M241,80h2v1h-2z M31,81h19v1h-19z M61,81h5v1h-5z M104,81h2v1h-2z M151,78h3v4h-3z M168,81h2v1h-2z M222,81h2v1h-2z M257,79h4v3h-4z M0,81h4v2h-4z M31,82h43v1h-43z M183,80h4v3h-4z M209,82h3v1h-3z M18,83h2v1h-2z M92,83h3v1h-3z M184,83h2v1h-2z M240,81h3v3h-3z M0,83h5v2h-5z M6,84h3v1h-3z M31,83h44v2h-44z M115,84h2v1h-2z M209,83h4v2h-4z M35,85h4v1h-4z M50,85h6v1h-6z M58,85h2v1h-2z M62,85h2v1h-2z M67,85h7v1h-7z M91,84h4v2h-4z M137,83h4v3h-4z M191,85h3v1h-3z M210,85h2v1h-2z M262,77h5v9h-5z M0,85h9v2h-9z M17,84h4v3h-4z M34,86h2v1h-2z M163,86h2v1h-2z M230,86h1v1h-1z M0,87h5v1h-5z M6,87h3v1h-3z M81,87h3v1h-3z M114,85h4v3h-4z M162,87h4v1h-4z M250,86h3v2h-3z M0,88h9v1h-9z M33,87h4v2h-4z M80,88h4v1h-4z M116,88h1v1h-1z M148,88h2v1h-2z M159,88h1v1h-1z M162,88h6v1h-6z M177,88h2v1h-2z M185,88h1v1h-1z M190,86h5v3h-5z M210,88h1v1h-1z M212,88h2v1h-2z M249,88h4v1h-4z M0,89h37v1h-37z M43,89h3v1h-3z M48,89h2v1h-2z M51,86h4v4h-4z M57,89h1v1h-1z M79,89h6v1h-6z M156,89h65v1h-65z M229,87h4v3h-4z M250,89h3v1h-3z M34,90h3v1h-3z M81,90h3v1h-3z M230,90h2v1h-2z M243,90h1v1h-1z M0,90h33v2h-33z M129,89h3v3h-3z M147,89h4v3h-4z M156,90h66v2h-66z M242,91h3v1h-3z M0,92h32v1h-32z M41,90h19v3h-19z M130,92h2v1h-2z M148,92h2v1h-2z M157,92h24v1h-24z M183,92h4v1h-4z M190,92h30v1h-30z M43,93h3v1h-3z M49,93h5v1h-5z M57,93h2v1h-2z M241,92h4v2h-4z M262,86h4v8h-4z M0,93h5v2h-5z M101,92h4v3h-4z M139,94h2v1h-2z M193,94h3v1h-3z M214,94h2v1h-2z M241,94h3v1h-3z M7,95h3v1h-3z M36,95h1v1h-1z M101,95h3v1h-3z M116,95h4v1h-4z M69,93h4v4h-4z M91,96h3v1h-3z M138,95h3v2h-3z M193,95h4v2h-4z M214,95h3v2h-3z M257,94h4v3h-4z M6,96h5v2h-5z M53,97h2v1h-2z M70,97h2v1h-2z M115,96h5v2h-5z M135,97h20v1h-20z M159,97h4v1h-4z M165,97h5v1h-5z M184,97h2v1h-2z M192,97h6v1h-6z M200,97h2v1h-2z M213,97h8v1h-8z M222,97h3v1h-3z M232,97h3v1h-3z M249,97h11v1h-11z M0,95h4v4h-4z M7,98h3v1h-3z M23,96h4v3h-4z M35,96h4v3h-4z M90,97h5v2h-5z M116,98h3v1h-3z M134,98h38v1h-38z M247,98h13v1h-13z M24,99h2v1h-2z M36,99h2v1h-2z M52,98h4v2h-4z M91,99h3v1h-3z M134,99h39v1h-39z M182,98h55v2h-55z M246,99h14v1h-14z M53,100h3v1h-3z M134,100h38v1h-38z M182,100h54v1h-54z M247,100h12v1h-12z M14,101h3v1h-3z M80,101h2v1h-2z M129,101h1v1h-1z M137,101h1v1h-1z M192,101h1v1h-1z M194,101h2v1h-2z M206,101h2v1h-2z M219,101h1v1h-1z M248,101h2v1h-2z M256,101h1v1h-1z M64,102h3v1h-3z M108,102h2v1h-2z M128,102h3v1h-3z M148,102h1v1h-1z M14,102h4v2h-4z M39,102h4v2h-4z M64,103h4v1h-4z M79,102h4v2h-4z M108,103h3v1h-3z M127,103h4v1h-4z M147,103h3v1h-3z M201,103h2v1h-2z M240,103h1v1h-1z M14,104h5v1h-5z M39,104h5v1h-5z M63,104h5v1h-5z M80,104h2v1h-2z M128,104h2v1h-2z M178,104h4v1h-4z M219,104h4v1h-4z M14,105h44v1h-44z M60,105h1v1h-1z M62,105h5v1h-5z M81,105h1v1h-1z M108,104h4v2h-4z M129,105h1v1h-1z M147,104h4v2h-4z M161,105h1v1h-1z M219,105h5v1h-5z M257,105h2v1h-2z M262,94h5v12h-5z M77,106h37v1h-37z M127,106h6v1h-6z M135,106h3v1h-3z M147,106h3v1h-3z M178,105h5v2h-5z M200,104h4v3h-4z M220,106h3v1h-3z M238,104h4v3h-4z M256,106h5v1h-5z M0,99h5v9h-5z M13,106h55v2h-55z M76,107h63v1h-63z M161,106h3v2h-3z M179,107h2v1h-2z M201,107h3v1h-3z M239,107h3v1h-3z M255,107h6v1h-6z M15,108h52v1h-52z M77,108h62v1h-62z M161,108h2v1h-2z M256,108h5v1h-5z M0,108h4v2h-4z M32,109h1v1h-1z M46,109h1v1h-1z M55,109h3v1h-3z M64,109h2v1h-2z M78,109h61v1h-61z M257,109h2v1h-2z M31,110h3v1h-3z M95,110h2v1h-2z M118,110h3v1h-3z M94,111h3v1h-3z M144,111h1v1h-1z M30,111h4v2h-4z M66,112h3v1h-3z M126,112h2v1h-2z M168,112h3v1h-3z M189,112h1v1h-1z M208,112h3v1h-3z M229,112h3v1h-3z M7,111h3v3h-3z M31,113h2v1h-2z M94,112h4v2h-4z M167,113h5v1h-5z M188,113h3v1h-3z M208,113h4v1h-4z M8,114h1v1h-1z M66,113h4v2h-4z M81,114h1v1h-1z M94,114h3v1h-3z M111,112h4v3h-4z M125,113h4v2h-4z M142,112h5v3h-5z M167,114h4v1h-4z M228,113h4v2h-4z M247,113h4v2h-4z M67,115h2v1h-2z M80,115h3v1h-3z M112,115h1v1h-1z M126,115h2v1h-2z M143,115h3v1h-3z M168,115h3v1h-3z M187,114h4v2h-4z M229,115h2v1h-2z M20,116h3v1h-3z M46,113h3v4h-3z M80,116h4v1h-4z M96,116h2v1h-2z M101,116h6v1h-6z M110,116h5v1h-5z M125,116h4v1h-4z M142,116h3v1h-3z M167,116h5v1h-5z M188,116h3v1h-3z M207,114h5v3h-5z M247,115h5v2h-5z M262,106h4v11h-4z M0,110h5v8h-5z M79,117h5v1h-5z M95,117h50v1h-50z M160,117h52v1h-52z M0,118h4v1h-4z M19,117h4v2h-4z M56,118h2v1h-2z M79,118h4v1h-4z M9,119h1v1h-1z M20,119h2v1h-2z M95,118h51v2h-51z M159,118h54v2h-54z M0,119h5v2h-5z M8,120h3v1h-3z M35,120h2v1h-2z M72,120h2v1h-2z M105,120h5v1h-5z M116,120h3v1h-3z M121,120h25v1h-25z M161,120h16v1h-16z M179,120h12v1h-12z M192,120h19v1h-19z M227,117h39v4h-39z M8,121h4v1h-4z M55,119h4v3h-4z M87,121h3v1h-3z M106,121h3v1h-3z M229,121h1v1h-1z M237,121h4v1h-4z M0,121h4v2h-4z M7,122h5v1h-5z M56,122h3v1h-3z M106,122h4v1h-4z M0,123h13v1h-13z M18,123h1v1h-1z M34,121h4v3h-4z M71,121h4v3h-4z M87,122h4v2h-4z M107,123h2v1h-2z M124,123h2v1h-2z M166,123h2v1h-2z M214,123h3v1h-3z M0,124h44v1h-44z M52,124h2v1h-2z M55,124h24v1h-24z M80,124h1v1h-1z M82,124h9v1h-9z M105,124h6v1h-6z M123,124h4v1h-4z M166,124h3v1h-3z M254,124h3v1h-3z M51,125h63v1h-63z M122,125h5v1h-5z M165,125h4v1h-4z M187,125h3v1h-3z M213,124h4v2h-4z M236,122h4v4h-4z M0,125h45v2h-45z M50,126h65v1h-65z M123,126h4v1h-4z M145,124h3v3h-3z M166,126h3v1h-3z M188,126h3v1h-3z M253,125h5v2h-5z M0,127h6v1h-6z M7,127h8v1h-8z M18,127h6v1h-6z M26,127h1v1h-1z M29,127h15v1h-15z M51,127h64v1h-64z M125,127h1v1h-1z M146,127h2v1h-2z M167,127h2v1h-2z M188,127h2v1h-2z M254,127h3v1h-3z M46,128h2v1h-2z M88,128h8v1h-8z M99,128h15v1h-15z M19,128h4v2h-4z M223,129h4v1h-4z M243,129h3v1h-3z M20,130h3v1h-3z M45,129h4v2h-4z M76,130h3v1h-3z M103,130h3v1h-3z M132,130h2v1h-2z M154,130h3v1h-3z M178,130h2v1h-2z M203,130h3v1h-3z M0,128h5v4h-5z M20,131h2v1h-2z M103,131h4v1h-4z M202,131h4v1h-4z M223,130h5v2h-5z M242,130h4v2h-4z M0,132h17v1h-17z M19,132h6v1h-6z M27,132h3v1h-3z M45,131h3v2h-3z M75,131h4v2h-4z M203,132h2v1h-2z M224,132h3v1h-3z M241,132h5v1h-5z M262,121h4v12h-4z M0,133h69v1h-69z M73,133h7v1h-7z M102,132h5v2h-5z M120,133h1v1h-1z M131,131h4v3h-4z M153,131h4v3h-4z M177,131h4v3h-4z M242,133h4v1h-4z M261,133h5v1h-5z M1,134h188v1h-188z M193,134h7v1h-7z M202,134h7v1h-7z M211,134h5v1h-5z M217,134h10v1h-10z M229,134h37v1h-37z M1,135h265v1h-265z M3,136h3v1h-3z M8,136h258v1h-258z M63,137h202v1h-202z M141,138h4v1h-4z M161,138h8v1h-8z M181,138h9v1h-9z M192,138h14v1h-14z M210,138h6v1h-6z M217,138h5v1h-5z M225,138h2v1h-2z M238,138h3v1h-3z M247,138h3v1h-3z
  "/>
</svg>