<?xml version="1.0" encoding="UTF-8"?>
<svg xmlns="http://www.w3.org/2000/svg" viewBox="0 0 267 144" width="267" height="144">
  <title>13 Calcareous sandstone</title>
  <path fill="#111111" fill-rule="nonzero" d="
    M261,0h4v1h-4z M241,1h25v1h-25z M223,2h2v1h-2z M233,2h34v1h-34z M198,3h69v1h-69z M169,4h98v1h-98z M124,5h12v1h-12z M141,5h109v1h-109z M256,5h5v1h-5z M52,6h3v1h-3z M64,6h4v1h-4z M70,6h3v1h-3z M76,6h162v1h-162z M257,6h3v1h-3z M3,7h202v1h-202z M206,7h3v1h-3z M217,7h5v1h-5z M247,6h2v2h-2z M258,7h1v1h-1z M2,8h169v1h-169z M174,8h8v1h-8z M218,8h4v1h-4z M233,7h5v2h-5z M246,8h3v1h-3z M1,9h148v1h-148z M219,9h2v1h-2z M234,9h3v1h-3z M247,9h2v1h-2z M1,10h79v1h-79z M82,10h25v1h-25z M108,10h2v1h-2z M1,11h15v1h-15z M17,11h10v1h-10z M29,11h1v1h-1z M41,11h7v1h-7z M199,8h4v4h-4z M190,12h24v1h-24z M251,12h2v1h-2z M61,13h3v1h-3z M102,11h4v3h-4z M137,13h3v1h-3z M157,13h1v1h-1z M164,13h1v1h-1z M188,13h27v1h-27z M239,13h2v1h-2z M1,12h4v3h-4z M26,14h2v1h-2z M43,12h4v3h-4z M102,14h5v1h-5z M118,14h49v1h-49z M174,14h1v1h-1z M189,14h26v1h-26z M251,13h4v2h-4z M0,15h5v1h-5z M25,15h3v1h-3z M44,15h2v1h-2z M78,15h5v1h-5z M84,15h8v1h-8z M94,15h2v1h-2z M190,15h4v1h-4z M199,15h4v1h-4z M208,15h5v1h-5z M226,14h1v2h-1z M0,16h10v1h-10z M12,16h4v1h-4z M24,16h5v1h-5z M53,16h2v1h-2z M60,14h4v3h-4z M76,16h21v1h-21z M102,15h66v2h-66z M172,15h3v2h-3z M232,16h2v1h-2z M250,15h4v2h-4z M25,17h3v1h-3z M53,17h3v1h-3z M61,17h1v1h-1z M102,17h41v1h-41z M144,17h9v1h-9z M176,17h2v1h-2z M196,17h2v1h-2z M1,17h16v2h-16z M75,17h22v2h-22z M104,18h3v1h-3z M108,18h10v1h-10z M231,17h4v2h-4z M246,18h1v1h-1z M1,19h15v1h-15z M76,19h3v1h-3z M82,19h2v1h-2z M175,18h4v2h-4z M195,18h4v2h-4z M232,19h3v1h-3z M244,19h3v1h-3z M38,20h2v1h-2z M142,20h2v1h-2z M176,20h3v1h-3z M197,20h1v1h-1z M243,20h5v1h-5z M36,21h4v1h-4z M142,21h3v1h-3z M224,21h2v1h-2z M244,21h3v1h-3z M0,20h5v3h-5z M19,22h2v1h-2z M37,22h3v1h-3z M52,18h4v5h-4z M91,22h2v1h-2z M142,22h2v1h-2z M161,22h2v1h-2z M186,22h2v1h-2z M53,23h3v1h-3z M76,23h1v1h-1z M119,23h2v1h-2z M142,23h1v1h-1z M223,22h4v2h-4z M238,14h4v10h-4z M255,23h2v1h-2z M90,23h4v2h-4z M160,23h4v2h-4z M185,23h3v2h-3z M207,23h4v2h-4z M224,24h3v1h-3z M238,24h21v1h-21z M19,23h3v3h-3z M63,25h2v1h-2z M91,25h2v1h-2z M118,24h4v2h-4z M161,25h3v1h-3z M186,25h2v1h-2z M208,25h3v1h-3z M224,25h5v1h-5z M232,25h27v1h-27z M119,26h2v1h-2z M209,26h1v1h-1z M222,26h37v1h-37z M8,27h3v1h-3z M46,27h1v1h-1z M75,24h3v4h-3z M134,26h3v2h-3z M148,18h4v10h-4z M175,27h3v1h-3z M187,27h1v1h-1z M190,27h7v1h-7z M222,27h30v1h-30z M253,27h4v1h-4z M30,28h1v1h-1z M53,24h4v5h-4z M62,26h4v3h-4z M134,28h4v1h-4z M148,28h50v1h-50z M222,28h19v1h-19z M243,28h2v1h-2z M7,28h4v2h-4z M30,29h2v1h-2z M121,29h4v1h-4z M130,29h9v1h-9z M141,29h57v1h-57z M202,27h4v3h-4z M52,29h5v2h-5z M120,30h77v1h-77z M230,29h1v2h-1z M51,31h31v1h-31z M120,31h42v1h-42z M173,31h2v1h-2z M177,31h10v1h-10z M229,31h3v1h-3z M246,31h4v1h-4z M28,30h4v3h-4z M35,32h1v1h-1z M39,32h43v1h-43z M120,32h27v1h-27z M148,32h2v1h-2z M151,32h3v1h-3z M182,32h4v1h-4z M247,32h3v1h-3z M258,32h2v1h-2z M8,33h2v1h-2z M15,33h67v1h-67z M176,33h1v1h-1z M228,32h4v2h-4z M248,33h2v1h-2z M257,33h4v1h-4z M262,5h5v29h-5z M1,23h4v12h-4z M7,34h4v1h-4z M15,34h66v1h-66z M89,32h3v3h-3z M183,33h4v2h-4z M229,34h2v1h-2z M7,35h5v1h-5z M15,35h36v1h-36z M53,35h2v1h-2z M90,35h2v1h-2z M175,34h3v2h-3z M182,35h5v1h-5z M193,35h2v1h-2z M209,33h2v3h-2z M257,34h10v2h-10z M1,35h5v2h-5z M8,36h3v1h-3z M16,36h6v1h-6z M23,36h4v1h-4z M32,36h2v1h-2z M175,36h2v1h-2z M258,36h1v1h-1z M87,37h1v1h-1z M142,35h3v3h-3z M155,37h2v1h-2z M182,36h4v2h-4z M192,36h4v2h-4z M43,38h2v1h-2z M86,38h3v1h-3z M184,38h1v1h-1z M193,38h2v1h-2z M239,38h2v1h-2z M71,39h2v1h-2z M85,39h4v1h-4z M112,39h2v1h-2z M155,38h3v2h-3z M168,39h2v1h-2z M57,40h2v1h-2z M70,40h3v1h-3z M85,40h5v1h-5z M111,40h4v1h-4z M129,40h2v1h-2z M155,40h2v1h-2z M184,40h2v1h-2z M219,39h3v2h-3z M238,39h4v2h-4z M42,39h4v3h-4z M71,41h2v1h-2z M111,41h5v1h-5z M201,40h4v2h-4z M220,41h2v1h-2z M238,41h3v1h-3z M249,41h3v1h-3z M43,42h2v1h-2z M56,41h4v2h-4z M96,42h3v1h-3z M112,42h3v1h-3z M128,41h4v2h-4z M167,40h3v3h-3z M202,42h2v1h-2z M249,42h4v1h-4z M57,43h2v1h-2z M95,43h5v1h-5z M129,43h3v1h-3z M183,41h4v3h-4z M250,43h3v1h-3z M25,41h3v4h-3z M95,44h4v1h-4z M14,45h2v1h-2z M229,45h1v1h-1z M174,46h3v1h-3z M182,44h5v3h-5z M227,46h4v1h-4z M262,36h5v11h-5z M14,46h3v2h-3z M143,47h2v1h-2z M174,47h4v1h-4z M227,47h5v1h-5z M261,47h6v1h-6z M14,48h2v1h-2z M77,48h1v1h-1z M173,48h5v1h-5z M228,48h4v1h-4z M37,49h2v1h-2z M58,49h1v1h-1z M122,49h2v1h-2z M142,48h4v2h-4z M174,49h2v1h-2z M192,47h3v3h-3z M212,47h2v3h-2z M259,48h8v2h-8z M58,50h2v1h-2z M75,49h4v2h-4z M103,50h4v1h-4z M142,50h3v1h-3z M242,49h4v2h-4z M260,50h7v1h-7z M1,37h4v15h-4z M76,51h2v1h-2z M102,51h5v1h-5z M121,50h4v2h-4z M225,51h5v1h-5z M242,51h3v1h-3z M57,51h3v2h-3z M103,52h4v1h-4z M122,52h3v1h-3z M183,47h4v6h-4z M197,52h17v1h-17z M223,52h8v1h-8z M243,52h1v1h-1z M85,41h4v13h-4z M144,53h1v1h-1z M157,53h1v1h-1z M162,49h4v5h-4z M170,53h2v1h-2z M176,53h38v1h-38z M222,53h9v1h-9z M21,54h1v1h-1z M74,54h1v1h-1z M79,54h2v1h-2z M84,54h7v1h-7z M102,54h16v1h-16z M138,54h8v1h-8z M157,54h58v1h-58z M222,54h8v1h-8z M262,51h5v4h-5z M1,52h5v4h-5z M38,55h4v1h-4z M45,55h2v1h-2z M49,55h71v1h-71z M156,55h44v1h-44z M201,55h12v1h-12z M27,56h93v1h-93z M136,55h11v2h-11z M156,56h33v1h-33z M252,56h2v1h-2z M19,55h3v3h-3z M26,57h93v1h-93z M138,57h8v1h-8z M174,57h1v1h-1z M26,58h49v1h-49z M79,58h3v1h-3z M88,58h1v1h-1z M91,58h3v1h-3z M96,58h2v1h-2z M116,58h1v1h-1z M189,58h3v1h-3z M205,58h3v1h-3z M251,57h3v2h-3z M27,59h11v1h-11z M40,59h3v1h-3z M45,59h1v1h-1z M115,59h1v1h-1z M128,59h3v1h-3z M150,59h3v1h-3z M205,59h4v1h-4z M253,59h1v1h-1z M8,59h4v2h-4z M88,60h3v1h-3z M128,60h4v1h-4z M173,58h4v3h-4z M188,59h4v2h-4z M205,60h3v1h-3z M219,59h2v2h-2z M232,59h3v2h-3z M1,56h4v6h-4z M7,61h5v1h-5z M128,61h3v1h-3z M174,61h2v1h-2z M188,61h3v1h-3z M220,61h2v1h-2z M8,62h4v1h-4z M57,62h2v1h-2z M87,61h4v2h-4z M150,60h4v3h-4z M70,63h2v1h-2z M88,63h2v1h-2z M114,60h3v4h-3z M152,63h1v1h-1z M263,55h4v9h-4z M41,64h2v1h-2z M56,63h4v2h-4z M242,64h2v1h-2z M1,62h5v4h-5z M17,65h2v1h-2z M57,65h2v1h-2z M69,64h4v2h-4z M101,65h1v1h-1z M135,65h1v1h-1z M160,65h3v1h-3z M242,65h3v1h-3z M257,65h2v1h-2z M262,64h5v2h-5z M16,66h3v1h-3z M40,65h4v2h-4z M70,66h3v1h-3z M242,66h4v1h-4z M257,66h3v1h-3z M41,67h2v1h-2z M71,67h1v1h-1z M99,66h4v2h-4z M134,66h3v2h-3z M180,67h2v1h-2z M242,67h2v1h-2z M257,67h2v1h-2z M100,68h3v1h-3z M135,68h1v1h-1z M159,66h4v3h-4z M161,69h1v1h-1z M179,68h4v2h-4z M197,69h3v1h-3z M227,69h1v1h-1z M26,68h4v3h-4z M180,70h2v1h-2z M196,70h4v1h-4z M212,70h4v1h-4z M27,71h2v1h-2z M197,71h3v1h-3z M211,71h5v1h-5z M263,66h4v6h-4z M150,72h3v1h-3z M168,72h2v1h-2z M211,72h4v1h-4z M226,70h3v3h-3z M262,72h5v1h-5z M79,73h4v1h-4z M93,73h3v1h-3z M128,73h1v1h-1z M167,73h5v1h-5z M211,73h3v1h-3z M227,73h1v1h-1z M242,73h13v1h-13z M16,67h4v8h-4z M60,73h4v2h-4z M79,74h5v1h-5z M92,74h5v1h-5z M149,73h4v2h-4z M168,74h4v1h-4z M209,74h6v1h-6z M220,74h9v1h-9z M233,74h1v1h-1z M235,74h21v1h-21z M259,73h8v2h-8z M60,75h3v1h-3z M93,75h4v1h-4z M111,73h4v3h-4z M149,75h3v1h-3z M168,75h3v1h-3z M188,75h5v1h-5z M200,75h56v1h-56z M260,75h7v1h-7z M1,66h4v11h-4z M42,74h4v3h-4z M79,75h4v2h-4z M94,76h2v1h-2z M112,76h1v1h-1z M126,74h4v3h-4z M141,61h4v16h-4z M150,76h1v1h-1z M188,76h6v1h-6z M200,76h52v1h-52z M261,76h6v1h-6z M0,77h5v1h-5z M16,75h3v3h-3z M41,77h5v1h-5z M62,77h1v1h-1z M68,77h16v1h-16z M127,77h2v1h-2z M141,77h5v1h-5z M150,77h5v1h-5z M177,77h3v1h-3z M187,77h7v1h-7z M200,77h38v1h-38z M0,78h6v1h-6z M15,78h6v1h-6z M32,78h3v1h-3z M36,78h3v1h-3z M41,78h7v1h-7z M49,78h39v1h-39z M111,78h1v1h-1z M115,78h1v1h-1z M120,78h2v1h-2z M126,78h7v1h-7z M134,78h1v1h-1z M137,78h27v1h-27z M188,78h6v1h-6z M203,78h5v1h-5z M223,78h5v1h-5z M31,79h57v1h-57z M98,79h67v1h-67z M176,78h4v2h-4z M226,79h1v1h-1z M263,77h4v3h-4z M1,79h25v2h-25z M31,80h56v1h-56z M97,80h67v1h-67z M177,80h2v1h-2z M226,80h2v1h-2z M245,80h1v1h-1z M250,80h3v1h-3z M1,81h24v1h-24z M32,81h38v1h-38z M83,81h3v1h-3z M97,81h66v1h-66z M189,81h1v1h-1z M208,81h1v1h-1z M225,81h4v1h-4z M1,82h18v1h-18z M37,82h1v1h-1z M65,82h4v1h-4z M100,82h1v1h-1z M104,82h4v1h-4z M111,82h3v1h-3z M116,82h1v1h-1z M118,82h1v1h-1z M124,82h3v1h-3z M131,82h1v1h-1z M135,82h2v1h-2z M140,82h2v1h-2z M226,82h2v1h-2z M1,83h5v1h-5z M163,83h1v1h-1z M187,82h3v2h-3z M207,82h3v2h-3z M250,81h4v3h-4z M134,83h3v2h-3z M188,84h2v1h-2z M208,84h1v1h-1z M262,80h5v5h-5z M58,85h3v1h-3z M115,84h3v2h-3z M28,85h3v2h-3z M81,85h3v2h-3z M98,86h2v1h-2z M116,86h2v1h-2z M133,85h4v2h-4z M162,84h4v3h-4z M180,85h3v2h-3z M198,86h2v1h-2z M28,87h2v1h-2z M58,86h2v2h-2z M82,87h2v1h-2z M98,87h3v1h-3z M117,87h1v1h-1z M163,87h2v1h-2z M198,87h3v1h-3z M236,86h2v2h-2z M251,84h3v4h-3z M40,88h2v1h-2z M98,88h2v1h-2z M148,87h3v2h-3z M237,88h1v1h-1z M250,88h4v1h-4z M149,89h1v1h-1z M179,87h4v3h-4z M197,88h4v2h-4z M217,88h3v2h-3z M39,89h4v2h-4z M66,83h4v8h-4z M198,90h2v1h-2z M218,90h2v1h-2z M40,91h2v1h-2z M66,91h3v1h-3z M229,91h1v1h-1z M258,91h1v1h-1z M14,90h3v3h-3z M180,90h3v3h-3z M257,92h3v1h-3z M15,93h1v1h-1z M50,93h3v1h-3z M157,93h2v1h-2z M170,93h2v1h-2z M189,93h2v1h-2z M208,93h3v1h-3z M228,92h3v2h-3z M251,89h3v5h-3z M263,85h4v9h-4z M25,94h3v1h-3z M65,92h4v3h-4z M89,94h3v1h-3z M122,92h4v3h-4z M140,94h1v1h-1z M156,94h4v1h-4z M169,94h4v1h-4z M180,93h4v2h-4z M229,94h2v1h-2z M251,94h4v1h-4z M258,93h1v2h-1z M262,94h5v1h-5z M49,94h5v2h-5z M88,95h4v1h-4z M106,94h4v2h-4z M123,95h3v1h-3z M139,95h3v1h-3z M155,95h5v1h-5z M170,95h3v1h-3z M180,95h3v1h-3z M188,94h4v2h-4z M207,94h4v2h-4z M236,95h2v1h-2z M243,95h6v1h-6z M250,95h17v1h-17z M50,96h3v1h-3z M66,95h3v2h-3z M73,94h4v3h-4z M107,96h2v1h-2z M140,96h2v1h-2z M171,96h1v1h-1z M179,96h4v1h-4z M189,96h3v1h-3z M207,96h5v1h-5z M221,96h3v1h-3z M25,95h4v3h-4z M67,97h1v1h-1z M74,97h2v1h-2z M89,96h3v2h-3z M156,96h3v2h-3z M170,97h3v1h-3z M179,97h7v1h-7z M189,97h4v1h-4z M196,97h30v1h-30z M235,96h32v2h-32z M8,98h2v1h-2z M26,98h2v1h-2z M67,98h2v1h-2z M89,98h2v1h-2z M103,98h2v1h-2z M154,98h71v1h-71z M236,98h17v1h-17z M254,98h1v1h-1z M256,98h11v1h-11z M7,99h3v1h-3z M54,99h59v1h-59z M130,99h1v1h-1z M150,99h75v1h-75z M7,100h4v1h-4z M33,100h81v1h-81z M141,100h76v1h-76z M262,99h5v2h-5z M26,101h87v1h-87z M141,101h26v1h-26z M169,101h10v1h-10z M180,101h3v1h-3z M185,101h1v1h-1z M190,101h4v1h-4z M196,101h1v1h-1z M209,101h4v1h-4z M262,101h4v1h-4z M18,102h3v1h-3z M26,102h63v1h-63z M93,102h19v1h-19z M129,100h3v3h-3z M141,102h16v1h-16z M174,102h1v1h-1z M210,102h3v1h-3z M217,102h1v1h-1z M27,103h15v1h-15z M43,103h2v1h-2z M48,103h4v1h-4z M130,103h1v1h-1z M142,103h2v1h-2z M148,103h2v1h-2z M174,103h2v1h-2z M210,103h2v1h-2z M224,103h2v1h-2z M241,101h2v3h-2z M17,103h4v2h-4z M28,104h3v1h-3z M38,104h1v1h-1z M101,103h1v2h-1z M173,104h3v1h-3z M18,105h1v1h-1z M100,105h4v1h-4z M109,105h3v1h-3z M133,105h1v1h-1z M172,105h4v1h-4z M194,102h3v4h-3z M223,104h4v2h-4z M263,102h4v4h-4z M43,106h2v1h-2z M108,106h4v1h-4z M131,106h3v1h-3z M172,106h5v1h-5z M224,106h2v1h-2z M252,105h4v2h-4z M42,107h4v1h-4z M70,107h2v1h-2z M99,106h5v2h-5z M109,107h3v1h-3z M173,107h3v1h-3z M254,107h1v1h-1z M43,108h3v1h-3z M70,108h1v1h-1z M85,103h3v6h-3z M110,108h1v1h-1z M131,107h4v2h-4z M154,106h3v3h-3z M186,108h1v1h-1z M262,106h5v3h-5z M85,109h2v1h-2z M120,109h3v1h-3z M133,109h1v1h-1z M184,109h4v1h-4z M261,109h6v1h-6z M143,110h3v1h-3z M185,110h3v1h-3z M216,103h3v8h-3z M233,108h3v3h-3z M246,110h1v1h-1z M10,111h2v1h-2z M49,111h3v1h-3z M119,110h4v2h-4z M164,111h2v1h-2z M185,111h2v1h-2z M204,109h2v3h-2z M234,111h2v1h-2z M245,111h3v1h-3z M260,110h7v2h-7z M9,112h3v1h-3z M93,112h3v1h-3z M120,112h3v1h-3z M143,111h4v2h-4z M245,112h4v1h-4z M262,112h5v1h-5z M9,113h4v1h-4z M32,112h4v2h-4z M49,112h4v2h-4z M144,113h2v1h-2z M163,112h4v2h-4z M216,111h4v3h-4z M224,112h1v2h-1z M245,113h3v1h-3z M1,84h4v31h-4z M9,114h3v1h-3z M21,114h1v1h-1z M32,114h3v1h-3z M51,114h1v1h-1z M60,112h2v3h-2z M92,113h5v2h-5z M111,114h2v1h-2z M132,114h3v1h-3z M164,114h3v1h-3z M20,115h3v1h-3z M61,115h1v1h-1z M93,115h3v1h-3z M110,115h3v1h-3z M216,114h3v2h-3z M244,115h4v1h-4z M254,115h2v1h-2z M1,115h5v2h-5z M19,116h5v1h-5z M77,116h1v1h-1z M94,116h2v1h-2z M99,108h4v9h-4z M132,115h4v2h-4z M155,116h2v1h-2z M196,114h3v3h-3z M216,116h4v1h-4z M229,116h20v1h-20z M253,116h4v1h-4z M20,117h3v1h-3z M76,117h3v1h-3z M98,117h6v1h-6z M110,116h4v2h-4z M134,117h1v1h-1z M177,115h3v3h-3z M194,117h7v1h-7z M214,117h35v1h-35z M252,117h5v1h-5z M263,113h4v5h-4z M94,118h1v1h-1z M96,118h10v1h-10z M107,118h1v1h-1z M110,118h5v1h-5z M116,118h4v1h-4z M121,118h2v1h-2z M133,118h4v1h-4z M139,118h9v1h-9z M154,117h4v2h-4z M186,118h63v1h-63z M253,118h4v1h-4z M262,118h5v1h-5z M1,117h4v3h-4z M41,119h3v1h-3z M85,119h44v1h-44z M132,119h17v1h-17z M154,119h3v1h-3z M174,119h5v1h-5z M185,119h61v1h-61z M1,120h5v1h-5z M42,120h2v1h-2z M68,120h61v1h-61z M132,120h16v1h-16z M185,120h31v1h-31z M217,120h9v1h-9z M66,121h63v1h-63z M132,121h7v1h-7z M145,121h3v1h-3z M171,120h9v2h-9z M65,122h28v1h-28z M110,122h1v1h-1z M126,122h2v1h-2z M146,122h3v1h-3z M172,122h8v1h-8z M260,121h1v2h-1z M1,121h37v3h-37z M50,123h2v1h-2z M66,123h9v1h-9z M77,123h7v1h-7z M245,123h1v1h-1z M1,124h7v1h-7z M9,124h3v1h-3z M15,124h1v1h-1z M17,124h13v1h-13z M32,124h4v1h-4z M50,124h3v1h-3z M236,123h2v2h-2z M244,124h2v1h-2z M138,125h1v1h-1z M182,125h2v1h-2z M1,125h5v2h-5z M50,125h4v2h-4z M106,126h2v1h-2z M122,125h4v2h-4z M137,126h4v1h-4z M145,123h4v4h-4z M181,126h3v1h-3z M199,125h3v2h-3z M219,123h3v4h-3z M50,127h3v1h-3z M88,125h4v3h-4z M123,127h3v1h-3z M146,127h2v1h-2z M182,127h2v1h-2z M200,127h2v1h-2z M243,125h3v3h-3z M249,126h3v2h-3z M35,128h1v1h-1z M89,128h1v1h-1z M136,127h5v2h-5z M147,128h1v1h-1z M248,128h4v1h-4z M34,129h3v1h-3z M106,127h3v3h-3z M162,129h3v1h-3z M249,129h2v1h-2z M146,129h3v2h-3z M162,130h4v1h-4z M243,128h4v3h-4z M263,119h4v12h-4z M7,131h3v1h-3z M34,130h4v2h-4z M162,131h3v1h-3z M212,131h2v1h-2z M262,131h5v1h-5z M7,132h4v1h-4z M61,132h1v1h-1z M74,131h2v2h-2z M190,132h3v1h-3z M212,132h3v1h-3z M243,131h5v2h-5z M260,132h7v1h-7z M6,133h5v1h-5z M43,133h2v1h-2z M97,133h3v1h-3z M173,133h2v1h-2z M211,133h5v1h-5z M227,130h3v4h-3z M241,133h26v1h-26z M8,134h2v1h-2z M18,134h2v1h-2z M34,132h3v3h-3z M60,133h3v2h-3z M96,134h5v1h-5z M115,134h2v1h-2z M131,134h1v1h-1z M145,131h4v4h-4z M153,132h2v3h-2z M172,134h4v1h-4z M190,133h4v2h-4z M211,134h12v1h-12z M226,134h41v1h-41z M42,134h4v2h-4z M61,135h2v1h-2z M83,135h3v1h-3z M96,135h4v1h-4z M115,135h3v1h-3z M130,135h3v1h-3z M145,135h5v1h-5z M154,135h1v1h-1z M171,135h6v1h-6z M187,135h79v1h-79z M17,135h4v2h-4z M33,135h4v2h-4z M83,136h4v1h-4z M114,136h4v1h-4z M129,136h5v1h-5z M144,136h6v1h-6z M151,136h109v1h-109z M1,127h4v11h-4z M18,137h3v1h-3z M34,137h3v1h-3z M82,137h5v1h-5z M97,136h3v2h-3z M108,137h1v1h-1z M114,137h131v1h-131z M246,137h4v1h-4z M1,138h7v1h-7z M10,138h3v1h-3z M14,138h10v1h-10z M26,138h4v1h-4z M31,138h23v1h-23z M55,138h165v1h-165z M221,138h6v1h-6z M1,139h191v1h-191z M1,140h165v1h-165z M167,140h4v1h-4z M2,141h109v1h-109z M112,141h5v1h-5z M118,141h2v1h-2z M121,141h2v1h-2z M124,141h2v1h-2z M134,141h1v1h-1z M136,141h1v1h-1z M3,142h4v1h-4z M9,142h67v1h-67z M19,143h5v1h-5z M25,143h3v1h-3z
  "/>
</svg>