<?xml version="1.0" encoding="UTF-8"?>
<svg xmlns="http://www.w3.org/2000/svg" viewBox="0 0 265 141" width="265" height="141">
  <title>28 Clay</title>
  <path fill="#111111" fill-rule="nonzero" d="
    M131,1h5v1h-5z M144,1h1v1h-1z M158,1h104v1h-104z M2,2h261v1h-261z M1,3h262v1h-262z M1,4h263v1h-263z M1,5h94v1h-94z M97,5h9v1h-9z M108,5h27v1h-27z M138,5h8v1h-8z M156,5h12v1h-12z M183,5h3v1h-3z M207,5h5v1h-5z M232,5h4v1h-4z M246,5h6v1h-6z M254,5h2v1h-2z M139,6h8v1h-8z M159,6h10v1h-10z M170,5h4v2h-4z M181,6h6v1h-6z M188,6h1v1h-1z M190,6h5v1h-5z M202,6h12v1h-12z M222,6h16v1h-16z M245,6h13v1h-13z M260,5h4v2h-4z M1,6h4v2h-4z M130,6h5v2h-5z M1,8h17v1h-17z M29,8h28v1h-28z M69,8h28v1h-28z M106,8h29v1h-29z M180,7h17v2h-17z M201,7h15v2h-15z M221,7h18v2h-18z M244,7h20v2h-20z M1,9h19v1h-19z M67,9h30v1h-30z M138,7h15v3h-15z M158,7h16v3h-16z M180,9h16v1h-16z M202,9h13v1h-13z M222,9h16v1h-16z M255,9h2v1h-2z M260,9h4v1h-4z M1,10h18v1h-18z M28,9h31v2h-31z M68,10h29v1h-29z M105,9h30v2h-30z M139,10h13v1h-13z M163,10h1v1h-1z M183,10h4v1h-4z M189,10h6v1h-6z M203,10h2v1h-2z M207,10h2v1h-2z M228,10h2v1h-2z M231,10h1v1h-1z M245,9h7v2h-7z M259,10h5v1h-5z M1,11h15v1h-15z M29,11h29v1h-29z M70,11h4v1h-4z M75,11h3v1h-3z M79,11h18v1h-18z M106,11h3v1h-3z M112,11h5v1h-5z M121,11h15v1h-15z M147,11h6v1h-6z M159,11h4v1h-4z M169,11h4v1h-4z M175,11h3v1h-3z M180,11h7v1h-7z M191,11h20v1h-20z M217,11h17v1h-17z M239,11h15v1h-15z M258,11h6v1h-6z M131,12h11v1h-11z M168,12h19v1h-19z M256,12h8v1h-8z M1,12h4v2h-4z M130,13h13v1h-13z M168,13h20v1h-20z M190,12h23v2h-23z M216,12h19v2h-19z M238,12h16v2h-16z M257,13h7v1h-7z M1,14h5v1h-5z M27,14h3v1h-3z M32,14h3v1h-3z M36,14h4v1h-4z M43,14h2v1h-2z M52,14h3v1h-3z M65,14h1v1h-1z M70,14h4v1h-4z M76,14h2v1h-2z M87,14h9v1h-9z M97,14h5v1h-5z M105,14h2v1h-2z M110,14h5v1h-5z M122,14h21v1h-21z M147,12h17v3h-17z M170,14h17v1h-17z M191,14h20v1h-20z M217,14h17v1h-17z M239,14h15v1h-15z M1,15h12v1h-12z M20,15h27v1h-27z M52,15h27v1h-27z M121,15h20v1h-20z M151,15h4v1h-4z M161,15h1v1h-1z M184,15h2v1h-2z M259,14h5v2h-5z M1,16h13v1h-13z M19,16h28v1h-28z M51,16h29v1h-29z M85,15h31v2h-31z M121,16h16v1h-16z M138,16h4v1h-4z M151,16h2v1h-2z M162,16h2v1h-2z M169,16h1v1h-1z M179,16h4v1h-4z M184,16h3v1h-3z M194,16h3v1h-3z M199,16h6v1h-6z M213,16h4v1h-4z M218,16h9v1h-9z M233,16h14v1h-14z M1,17h12v1h-12z M21,17h25v1h-25z M52,17h27v1h-27z M86,17h21v1h-21z M110,17h5v1h-5z M122,17h24v1h-24z M150,17h21v1h-21z M176,17h12v1h-12z M193,17h14v1h-14z M1,18h5v1h-5z M130,18h17v1h-17z M175,18h14v1h-14z M192,18h15v1h-15z M212,17h16v2h-16z M131,19h15v1h-15z M149,18h23v2h-23z M176,19h12v1h-12z M193,19h14v1h-14z M213,19h14v1h-14z M232,17h17v3h-17z M255,16h9v4h-9z M1,19h4v2h-4z M131,20h4v1h-4z M137,20h7v1h-7z M151,20h7v1h-7z M161,20h10v1h-10z M177,20h5v1h-5z M203,20h2v1h-2z M215,20h2v1h-2z M233,20h3v1h-3z M1,21h5v1h-5z M7,21h2v1h-2z M18,21h2v1h-2z M30,21h15v1h-15z M47,21h13v1h-13z M68,21h30v1h-30z M105,21h30v1h-30z M168,21h2v1h-2z M193,21h1v1h-1z M240,21h1v1h-1z M259,20h5v2h-5z M104,22h34v1h-34z M143,22h14v1h-14z M164,22h18v1h-18z M188,22h21v1h-21z M214,22h7v1h-7z M227,22h24v1h-24z M256,22h8v1h-8z M1,22h22v2h-22z M29,22h32v2h-32z M67,22h31v2h-31z M104,23h35v1h-35z M226,23h25v1h-25z M1,24h21v1h-21z M30,24h31v1h-31z M73,24h2v1h-2z M77,24h19v1h-19z M106,24h2v1h-2z M110,24h1v1h-1z M112,24h3v1h-3z M118,24h22v1h-22z M163,23h20v2h-20z M187,23h23v2h-23z M213,23h9v2h-9z M227,24h24v1h-24z M255,23h9v2h-9z M143,23h15v3h-15z M164,25h8v1h-8z M173,25h9v1h-9z M188,25h2v1h-2z M193,25h11v1h-11z M205,25h4v1h-4z M215,25h1v1h-1z M217,25h4v1h-4z M238,25h12v1h-12z M258,25h6v1h-6z M131,25h8v2h-8z M146,26h1v1h-1z M150,26h6v1h-6z M259,26h5v1h-5z M1,25h4v3h-4z M127,27h10v1h-10z M152,27h4v1h-4z M173,27h18v1h-18z M197,27h20v1h-20z M223,27h1v1h-1z M226,27h15v1h-15z M246,27h18v1h-18z M1,28h6v1h-6z M8,28h3v1h-3z M19,28h27v1h-27z M56,28h22v1h-22z M87,28h27v1h-27z M121,28h26v1h-26z M150,28h17v1h-17z M171,28h20v1h-20z M18,29h29v1h-29z M54,29h26v1h-26z M119,29h28v1h-28z M150,29h18v1h-18z M171,29h21v1h-21z M221,28h22v2h-22z M245,28h19v2h-19z M1,29h11v2h-11z M18,30h30v1h-30z M54,30h25v1h-25z M86,29h29v2h-29z M120,30h27v1h-27z M151,30h16v1h-16z M171,30h20v1h-20z M196,28h22v3h-22z M222,30h20v1h-20z M246,30h18v1h-18z M1,31h6v1h-6z M9,31h3v1h-3z M19,31h2v1h-2z M24,31h1v1h-1z M26,31h5v1h-5z M35,31h12v1h-12z M57,31h6v1h-6z M66,31h4v1h-4z M71,31h3v1h-3z M75,31h3v1h-3z M87,31h2v1h-2z M94,31h6v1h-6z M103,31h4v1h-4z M110,31h3v1h-3z M126,31h1v1h-1z M128,31h1v1h-1z M130,31h16v1h-16z M154,31h6v1h-6z M236,31h6v1h-6z M254,31h10v1h-10z M131,32h6v1h-6z M145,32h1v1h-1z M188,31h1v2h-1z M210,32h3v1h-3z M215,31h2v2h-2z M225,31h3v2h-3z M235,32h8v1h-8z M250,32h14v1h-14z M1,32h4v2h-4z M131,33h8v1h-8z M144,33h15v1h-15z M165,33h16v1h-16z M186,33h20v1h-20z M1,34h5v1h-5z M55,34h2v1h-2z M69,34h2v1h-2z M94,34h3v1h-3z M107,34h6v1h-6z M120,34h1v1h-1z M128,34h12v1h-12z M185,34h22v1h-22z M210,33h21v2h-21z M234,33h10v2h-10z M29,35h32v1h-32z M143,34h17v2h-17z M165,34h17v2h-17z M185,35h21v1h-21z M211,35h20v1h-20z M235,35h9v1h-9z M247,33h17v3h-17z M28,36h34v1h-34z M68,35h31v2h-31z M105,35h35v2h-35z M144,36h15v1h-15z M166,36h16v1h-16z M187,36h8v1h-8z M197,36h9v1h-9z M213,36h3v1h-3z M220,36h2v1h-2z M226,36h3v1h-3z M236,36h3v1h-3z M240,36h3v1h-3z M248,36h6v1h-6z M1,35h21v3h-21z M29,37h33v1h-33z M69,37h29v1h-29z M106,37h30v1h-30z M137,37h3v1h-3z M157,37h1v1h-1z M159,37h1v1h-1z M165,37h6v1h-6z M174,37h2v1h-2z M180,37h1v1h-1z M199,37h6v1h-6z M247,37h6v1h-6z M259,36h5v2h-5z M1,38h5v1h-5z M18,38h3v1h-3z M45,38h3v1h-3z M58,38h2v1h-2z M76,38h2v1h-2z M131,38h4v1h-4z M138,38h12v1h-12z M155,38h21v1h-21z M180,38h14v1h-14z M197,38h24v1h-24z M131,39h5v1h-5z M155,39h22v1h-22z M180,39h15v1h-15z M1,39h4v2h-4z M131,40h4v1h-4z M137,39h14v2h-14z M156,40h21v1h-21z M180,40h14v1h-14z M197,39h25v2h-25z M227,38h28v3h-28z M258,38h6v3h-6z M1,41h9v1h-9z M16,41h28v1h-28z M53,41h26v1h-26z M87,41h27v1h-27z M122,41h13v1h-13z M138,41h11v1h-11z M157,41h20v1h-20z M182,41h11v1h-11z M198,41h23v1h-23z M229,41h9v1h-9z M239,41h1v1h-1z M241,41h14v1h-14z M1,42h10v1h-10z M87,42h28v1h-28z M121,42h14v1h-14z M140,42h1v1h-1z M168,42h7v1h-7z M190,42h3v1h-3z M199,42h1v1h-1z M209,42h11v1h-11z M227,42h1v1h-1z M230,42h2v1h-2z M236,42h1v1h-1z M244,42h11v1h-11z M259,41h5v2h-5z M1,43h11v1h-11z M15,42h30v2h-30z M52,42h29v2h-29z M88,43h27v1h-27z M122,43h15v1h-15z M138,43h4v1h-4z M148,43h14v1h-14z M167,43h14v1h-14z M186,43h16v1h-16z M208,43h12v1h-12z M1,44h10v1h-10z M16,44h28v1h-28z M53,44h27v1h-27z M89,44h2v1h-2z M92,44h2v1h-2z M96,44h4v1h-4z M102,44h3v1h-3z M107,44h6v1h-6z M124,44h2v1h-2z M129,44h14v1h-14z M131,45h12v1h-12z M146,44h17v2h-17z M167,44h15v2h-15z M186,44h17v2h-17z M207,44h14v2h-14z M225,43h14v3h-14z M244,43h20v3h-20z M1,45h5v2h-5z M131,46h11v1h-11z M147,46h15v1h-15z M168,46h14v1h-14z M187,46h16v1h-16z M209,46h12v1h-12z M226,46h13v1h-13z M246,46h3v1h-3z M250,46h14v1h-14z M1,47h10v1h-10z M13,47h9v1h-9z M29,47h22v1h-22z M53,47h8v1h-8z M70,47h9v1h-9z M80,47h3v1h-3z M88,47h3v1h-3z M92,47h4v1h-4z M105,47h14v1h-14z M125,47h12v1h-12z M138,47h3v1h-3z M175,47h1v1h-1z M194,47h2v1h-2z M217,47h3v1h-3z M234,47h1v1h-1z M236,47h1v1h-1z M252,47h12v1h-12z M105,48h31v1h-31z M140,48h4v1h-4z M155,48h6v1h-6z M164,48h1v1h-1z M172,48h15v1h-15z M192,48h13v1h-13z M211,48h11v1h-11z M227,48h20v1h-20z M28,48h35v2h-35z M69,48h29v2h-29z M105,49h30v1h-30z M138,49h12v1h-12z M210,49h13v1h-13z M1,48h22v3h-22z M29,50h33v1h-33z M70,50h28v1h-28z M106,50h29v1h-29z M171,49h17v2h-17z M192,49h16v2h-16z M211,50h12v1h-12z M226,49h21v2h-21z M251,48h13v3h-13z M19,51h2v1h-2z M57,51h4v1h-4z M137,50h13v2h-13z M154,49h13v3h-13z M172,51h16v1h-16z M193,51h14v1h-14z M212,51h11v1h-11z M227,51h20v1h-20z M252,51h12v1h-12z M131,51h4v2h-4z M139,52h4v1h-4z M145,52h4v1h-4z M162,52h4v1h-4z M184,52h2v1h-2z M206,52h1v1h-1z M214,52h2v1h-2z M227,52h2v1h-2z M241,52h1v1h-1z M245,52h1v1h-1z M252,52h1v1h-1z M1,51h5v3h-5z M130,53h8v1h-8z M146,53h10v1h-10z M163,53h7v1h-7z M174,53h1v1h-1z M184,53h5v1h-5z M192,53h2v1h-2z M202,53h16v1h-16z M223,53h13v1h-13z M241,53h16v1h-16z M1,54h10v1h-10z M18,54h27v1h-27z M53,54h27v1h-27z M87,54h28v1h-28z M122,54h18v1h-18z M144,54h13v1h-13z M201,54h18v1h-18z M221,54h16v1h-16z M240,54h17v1h-17z M17,55h29v1h-29z M52,55h28v1h-28z M121,55h20v1h-20z M144,55h14v1h-14z M162,54h15v2h-15z M182,54h14v2h-14z M200,55h19v1h-19z M222,55h15v1h-15z M240,55h18v1h-18z M1,55h11v2h-11z M18,56h28v1h-28z M53,56h27v1h-27z M87,55h29v2h-29z M121,56h19v1h-19z M163,56h14v1h-14z M183,56h13v1h-13z M201,56h18v1h-18z M223,56h14v1h-14z M241,56h16v1h-16z M1,57h9v1h-9z M19,57h6v1h-6z M36,57h9v1h-9z M54,57h2v1h-2z M67,57h3v1h-3z M72,57h5v1h-5z M89,57h2v1h-2z M99,57h2v1h-2z M112,57h3v1h-3z M122,57h3v1h-3z M130,57h10v1h-10z M144,56h13v2h-13z M163,57h6v1h-6z M172,57h4v1h-4z M188,57h7v1h-7z M201,57h2v1h-2z M207,57h2v1h-2z M226,57h2v1h-2z M235,57h1v1h-1z M249,57h4v1h-4z M259,52h5v6h-5z M131,58h9v1h-9z M145,58h2v1h-2z M154,58h4v1h-4z M162,58h6v1h-6z M173,58h11v1h-11z M189,58h7v1h-7z M198,58h12v1h-12z M218,58h23v1h-23z M245,58h9v1h-9z M258,58h6v1h-6z M1,58h5v2h-5z M131,59h18v1h-18z M217,59h25v1h-25z M244,59h11v1h-11z M257,59h7v1h-7z M2,60h6v1h-6z M54,60h5v1h-5z M72,60h3v1h-3z M106,60h2v1h-2z M115,60h34v1h-34z M152,59h17v2h-17z M217,60h26v1h-26z M244,60h10v1h-10z M258,60h6v1h-6z M2,61h19v1h-19z M28,61h32v1h-32z M67,61h32v1h-32z M105,61h43v1h-43z M153,61h15v1h-15z M173,59h13v3h-13z M189,59h23v3h-23z M218,61h25v1h-25z M245,61h9v1h-9z M259,61h5v1h-5z M27,62h33v1h-33z M105,62h31v1h-31z M138,62h8v1h-8z M153,62h3v1h-3z M164,62h3v1h-3z M190,62h3v1h-3z M195,62h3v1h-3z M233,62h3v1h-3z M239,62h2v1h-2z M260,62h4v1h-4z M1,62h20v2h-20z M28,63h32v1h-32z M67,62h33v2h-33z M105,63h32v1h-32z M177,63h5v1h-5z M191,63h10v1h-10z M210,63h2v1h-2z M215,63h3v1h-3z M231,63h14v1h-14z M1,64h5v1h-5z M13,64h2v1h-2z M39,64h6v1h-6z M54,64h2v1h-2z M68,64h2v1h-2z M97,64h1v1h-1z M130,64h11v1h-11z M147,64h17v1h-17z M167,64h17v1h-17z M188,64h15v1h-15z M1,65h4v1h-4z M167,65h18v1h-18z M188,65h16v1h-16z M208,64h18v2h-18z M131,65h11v2h-11z M146,65h19v2h-19z M167,66h17v1h-17z M189,66h14v1h-14z M209,66h17v1h-17z M231,64h15v3h-15z M252,63h12v4h-12z M1,66h5v2h-5z M41,67h2v1h-2z M54,67h2v1h-2z M70,67h3v1h-3z M77,67h3v1h-3z M89,67h5v1h-5z M95,67h1v1h-1z M98,67h1v1h-1z M101,67h4v1h-4z M107,67h3v1h-3z M113,67h1v1h-1z M122,67h3v1h-3z M126,67h16v1h-16z M148,67h16v1h-16z M170,67h5v1h-5z M177,67h2v1h-2z M182,67h1v1h-1z M190,67h3v1h-3z M195,67h4v1h-4z M201,67h1v1h-1z M216,67h4v1h-4z M233,67h2v1h-2z M253,67h2v1h-2z M258,67h6v1h-6z M20,68h25v1h-25z M88,68h28v1h-28z M122,68h20v1h-20z M151,68h8v1h-8z M171,68h4v1h-4z M189,68h4v1h-4z M194,68h3v1h-3z M206,68h2v1h-2z M211,68h2v1h-2z M219,68h8v1h-8z M231,68h4v1h-4z M242,68h2v1h-2z M245,68h19v1h-19z M20,69h26v1h-26z M51,68h31v2h-31z M87,69h29v1h-29z M121,69h25v1h-25z M150,69h16v1h-16z M169,69h14v1h-14z M185,69h13v1h-13z M2,68h12v3h-12z M20,70h25v1h-25z M52,70h30v1h-30z M88,70h28v1h-28z M122,70h26v1h-26z M150,70h17v1h-17z M169,70h30v1h-30z M201,69h14v2h-14z M218,69h18v2h-18z M240,69h24v2h-24z M1,71h6v1h-6z M113,71h1v1h-1z M150,71h16v1h-16z M169,71h14v1h-14z M184,71h14v1h-14z M202,71h13v1h-13z M219,71h17v1h-17z M241,71h23v1h-23z M1,72h5v1h-5z M131,71h16v2h-16z M151,72h15v1h-15z M171,72h11v1h-11z M186,72h10v1h-10z M204,72h6v1h-6z M211,72h3v1h-3z M231,72h4v1h-4z M254,72h10v1h-10z M2,73h4v1h-4z M131,73h15v1h-15z M161,73h4v1h-4z M173,73h2v1h-2z M179,73h3v1h-3z M186,73h2v1h-2z M190,73h1v1h-1z M212,73h2v1h-2z M233,73h3v1h-3z M255,73h9v1h-9z M2,74h5v1h-5z M8,74h13v1h-13z M23,74h3v1h-3z M33,74h26v1h-26z M69,74h8v1h-8z M80,74h6v1h-6z M87,74h9v1h-9z M104,74h51v1h-51z M160,74h16v1h-16z M178,74h14v1h-14z M196,74h12v1h-12z M212,74h16v1h-16z M233,74h15v1h-15z M254,74h10v1h-10z M2,75h24v1h-24z M159,75h34v1h-34z M196,75h13v1h-13z M211,75h17v1h-17z M232,75h17v1h-17z M1,76h26v1h-26z M32,75h29v2h-29z M67,75h31v2h-31z M103,75h52v2h-52z M160,76h33v1h-33z M197,76h12v1h-12z M211,76h18v1h-18z M233,76h16v1h-16z M253,75h11v2h-11z M1,77h25v1h-25z M33,77h28v1h-28z M67,77h30v1h-30z M104,77h50v1h-50z M160,77h22v1h-22z M183,77h9v1h-9z M197,77h6v1h-6z M204,77h4v1h-4z M212,77h16v1h-16z M236,77h6v1h-6z M243,77h4v1h-4z M255,77h9v1h-9z M130,78h7v1h-7z M140,78h2v1h-2z M146,78h5v1h-5z M170,78h3v1h-3z M174,78h1v1h-1z M198,78h2v1h-2z M206,78h3v1h-3z M212,78h3v1h-3z M218,78h3v1h-3z M226,78h3v1h-3z M233,78h7v1h-7z M249,78h2v1h-2z M253,78h11v1h-11z M131,79h8v1h-8z M140,79h1v1h-1z M146,79h15v1h-15z M169,79h16v1h-16z M190,79h12v1h-12z M226,79h15v1h-15z M248,79h16v1h-16z M1,78h5v3h-5z M132,80h10v1h-10z M146,80h16v1h-16z M189,80h13v1h-13z M247,80h17v1h-17z M2,81h5v1h-5z M41,81h1v1h-1z M52,81h3v1h-3z M58,81h4v1h-4z M64,81h3v1h-3z M69,81h4v1h-4z M75,81h4v1h-4z M99,81h3v1h-3z M104,81h6v1h-6z M111,81h2v1h-2z M122,81h4v1h-4z M128,81h15v1h-15z M146,81h17v1h-17z M205,79h18v3h-18z M226,80h16v2h-16z M23,82h22v1h-22z M121,82h21v1h-21z M146,82h16v1h-16z M168,80h18v3h-18z M190,81h12v2h-12z M206,82h16v1h-16z M227,82h15v1h-15z M248,81h16v2h-16z M22,83h24v1h-24z M50,82h31v2h-31z M86,82h29v2h-29z M121,83h16v1h-16z M140,83h1v1h-1z M159,83h3v1h-3z M183,83h2v1h-2z M199,83h1v1h-1z M249,83h5v1h-5z M259,83h5v1h-5z M2,82h12v3h-12z M23,84h22v1h-22z M51,84h30v1h-30z M87,84h28v1h-28z M122,84h14v1h-14z M139,84h4v1h-4z M145,84h4v1h-4z M156,84h13v1h-13z M178,84h11v1h-11z M197,84h21v1h-21z M225,84h9v1h-9z M239,84h16v1h-16z M258,84h6v1h-6z M2,85h5v1h-5z M11,85h1v1h-1z M127,85h1v1h-1z M155,85h17v1h-17z M224,85h10v1h-10z M238,85h18v1h-18z M257,85h7v1h-7z M131,85h4v2h-4z M154,86h18v1h-18z M239,86h16v1h-16z M258,86h6v1h-6z M2,86h4v2h-4z M131,87h5v1h-5z M138,85h12v3h-12z M155,87h17v1h-17z M177,85h14v3h-14z M196,85h24v3h-24z M225,86h9v2h-9z M239,87h15v1h-15z M2,88h5v1h-5z M9,88h4v1h-4z M20,88h3v1h-3z M34,88h14v1h-14z M51,88h3v1h-3z M55,88h5v1h-5z M71,88h17v1h-17z M96,88h1v1h-1z M106,88h13v1h-13z M122,88h14v1h-14z M139,88h1v1h-1z M142,88h6v1h-6z M156,88h2v1h-2z M167,88h4v1h-4z M189,88h2v1h-2z M196,88h1v1h-1z M199,88h2v1h-2z M213,88h7v1h-7z M232,88h2v1h-2z M239,88h3v1h-3z M244,88h2v1h-2z M259,87h5v2h-5z M145,89h3v1h-3z M149,89h9v1h-9z M164,89h12v1h-12z M177,89h8v1h-8z M190,89h16v1h-16z M212,89h13v1h-13z M231,89h20v1h-20z M256,89h8v1h-8z M2,89h23v2h-23z M33,89h29v2h-29z M67,89h32v2h-32z M105,89h34v2h-34z M230,90h22v1h-22z M255,90h9v1h-9z M2,91h21v1h-21z M34,91h27v1h-27z M68,91h31v1h-31z M106,91h34v1h-34z M143,90h16v2h-16z M163,90h23v2h-23z M190,90h18v2h-18z M212,90h14v2h-14z M231,91h21v1h-21z M256,91h8v1h-8z M131,92h9v1h-9z M144,92h15v1h-15z M163,92h22v1h-22z M191,92h16v1h-16z M213,92h12v1h-12z M233,92h5v1h-5z M239,92h12v1h-12z M257,92h7v1h-7z M132,93h7v1h-7z M145,93h2v1h-2z M172,93h4v1h-4z M177,93h3v1h-3z M181,93h3v1h-3z M246,93h5v1h-5z M258,93h6v1h-6z M2,92h4v3h-4z M79,94h1v1h-1z M131,94h9v1h-9z M143,94h4v1h-4z M154,94h6v1h-6z M163,94h3v1h-3z M172,94h19v1h-19z M197,94h13v1h-13z M219,94h13v1h-13z M237,94h18v1h-18z M257,94h7v1h-7z M19,95h27v1h-27z M89,95h24v1h-24z M122,95h25v1h-25z M153,95h13v1h-13z M197,95h15v1h-15z M218,95h15v1h-15z M237,95h27v1h-27z M54,95h27v2h-27z M153,96h14v1h-14z M197,96h16v1h-16z M218,96h16v1h-16z M237,96h19v1h-19z M2,95h10v3h-10z M19,96h28v2h-28z M55,97h26v1h-26z M89,96h25v2h-25z M121,96h26v2h-26z M154,97h12v1h-12z M172,95h20v3h-20z M198,97h14v1h-14z M219,97h15v1h-15z M238,97h17v1h-17z M257,96h7v2h-7z M2,98h8v1h-8z M24,98h1v1h-1z M26,98h5v1h-5z M37,98h8v1h-8z M57,98h1v1h-1z M60,98h4v1h-4z M66,98h14v1h-14z M89,98h6v1h-6z M96,98h11v1h-11z M108,98h3v1h-3z M123,98h24v1h-24z M158,98h9v1h-9z M173,98h1v1h-1z M183,98h9v1h-9z M199,98h3v1h-3z M209,98h3v1h-3z M217,98h16v1h-16z M238,98h3v1h-3z M242,98h8v1h-8z M131,99h20v1h-20z M159,99h11v1h-11z M171,99h4v1h-4z M183,99h22v1h-22z M235,99h16v1h-16z M132,100h22v1h-22z M159,100h17v1h-17z M235,100h17v1h-17z M2,99h4v3h-4z M131,101h23v1h-23z M181,100h25v2h-25z M210,99h23v3h-23z M235,101h16v1h-16z M256,98h8v4h-8z M2,102h25v1h-25z M35,102h28v1h-28z M72,102h14v1h-14z M87,102h10v1h-10z M107,102h47v1h-47z M159,101h18v2h-18z M182,102h4v1h-4z M187,102h10v1h-10z M198,102h7v1h-7z M212,102h4v1h-4z M219,102h13v1h-13z M236,102h4v1h-4z M242,102h3v1h-3z M246,102h4v1h-4z M34,103h30v1h-30z M71,103h28v1h-28z M106,103h30v1h-30z M147,103h6v1h-6z M161,103h1v1h-1z M171,103h5v1h-5z M228,103h4v1h-4z M242,103h2v1h-2z M251,103h3v1h-3z M257,102h7v2h-7z M2,103h26v2h-26z M34,104h31v1h-31z M72,104h27v1h-27z M106,104h33v1h-33z M147,104h16v1h-16z M168,104h12v1h-12z M182,104h1v1h-1z M191,104h15v1h-15z M207,104h3v1h-3z M215,104h8v1h-8z M227,104h19v1h-19z M2,105h8v1h-8z M13,105h10v1h-10z M24,105h3v1h-3z M36,105h2v1h-2z M45,105h19v1h-19z M73,105h6v1h-6z M81,105h17v1h-17z M107,105h35v1h-35z M146,105h18v1h-18z M168,105h16v1h-16z M214,105h9v1h-9z M250,104h14v2h-14z M131,106h11v1h-11z M146,106h19v1h-19z M168,106h17v1h-17z M190,105h21v2h-21z M214,106h10v1h-10z M226,105h21v2h-21z M251,106h13v1h-13z M132,107h10v1h-10z M147,107h17v1h-17z M169,107h15v1h-15z M191,107h20v1h-20z M215,107h8v1h-8z M227,107h18v1h-18z M252,107h12v1h-12z M2,106h4v3h-4z M131,108h10v1h-10z M150,108h2v1h-2z M155,108h1v1h-1z M158,108h6v1h-6z M171,108h1v1h-1z M180,108h3v1h-3z M217,108h1v1h-1z M235,108h1v1h-1z M258,108h6v1h-6z M2,109h10v1h-10z M18,109h27v1h-27z M53,109h26v1h-26z M87,109h28v1h-28z M121,109h19v1h-19z M157,109h8v1h-8z M181,109h3v1h-3z M190,109h5v1h-5z M196,109h2v1h-2z M206,109h8v1h-8z M215,109h5v1h-5z M226,109h17v1h-17z M249,109h15v1h-15z M18,110h28v1h-28z M87,110h30v1h-30z M155,110h20v1h-20z M205,110h16v1h-16z M226,110h19v1h-19z M2,110h11v2h-11z M19,111h27v1h-27z M52,110h29v2h-29z M87,111h29v1h-29z M121,110h27v2h-27z M205,111h17v1h-17z M225,111h20v1h-20z M248,110h16v2h-16z M2,112h5v1h-5z M9,112h2v1h-2z M29,112h16v1h-16z M54,112h5v1h-5z M63,112h17v1h-17z M88,112h7v1h-7z M96,112h5v1h-5z M105,112h9v1h-9z M129,112h19v1h-19z M154,111h21v2h-21z M180,110h20v3h-20z M206,112h15v1h-15z M226,112h18v1h-18z M249,112h15v1h-15z M132,113h15v1h-15z M158,113h1v1h-1z M166,113h4v1h-4z M171,113h2v1h-2z M187,113h1v1h-1z M198,113h1v1h-1z M242,113h1v1h-1z M252,113h1v1h-1z M260,113h4v1h-4z M2,113h4v2h-4z M132,114h5v1h-5z M167,114h1v1h-1z M170,114h1v1h-1z M179,114h3v1h-3z M237,114h7v1h-7z M246,114h2v1h-2z M251,114h2v1h-2z M259,114h5v1h-5z M2,115h5v1h-5z M33,115h1v1h-1z M38,115h2v1h-2z M41,115h3v1h-3z M131,115h11v1h-11z M146,115h15v1h-15z M166,115h18v1h-18z M190,115h18v1h-18z M214,115h20v1h-20z M257,115h7v1h-7z M31,116h29v1h-29z M65,116h30v1h-30z M145,116h17v1h-17z M166,116h19v1h-19z M213,116h21v1h-21z M236,115h18v2h-18z M256,116h8v1h-8z M31,117h30v1h-30z M104,116h38v2h-38z M146,117h16v1h-16z M167,117h18v1h-18z M190,116h19v2h-19z M214,117h20v1h-20z M237,117h17v1h-17z M257,117h7v1h-7z M2,116h24v3h-24z M31,118h29v1h-29z M65,117h31v2h-31z M104,118h37v1h-37z M148,118h13v1h-13z M175,118h1v1h-1z M179,118h5v1h-5z M195,118h3v1h-3z M218,118h2v1h-2z M228,118h4v1h-4z M250,118h1v1h-1z M2,119h5v1h-5z M20,119h4v1h-4z M46,119h1v1h-1z M55,119h3v1h-3z M67,119h13v1h-13z M85,119h10v1h-10z M109,119h3v1h-3z M115,119h3v1h-3z M119,119h18v1h-18z M156,119h1v1h-1z M180,119h3v1h-3z M200,119h2v1h-2z M229,119h3v1h-3z M259,118h5v2h-5z M131,120h17v1h-17z M154,120h10v1h-10z M165,120h3v1h-3z M175,120h18v1h-18z M199,120h17v1h-17z M245,120h19v1h-19z M2,120h4v2h-4z M132,121h17v1h-17z M175,121h19v1h-19z M198,121h19v1h-19z M244,121h20v1h-20z M2,122h5v1h-5z M131,122h18v1h-18z M153,121h16v2h-16z M174,122h19v1h-19z M199,122h18v1h-18z M221,120h18v3h-18z M245,122h19v1h-19z M20,123h26v1h-26z M53,123h28v1h-28z M88,123h27v1h-27z M122,123h27v1h-27z M154,123h15v1h-15z M177,123h16v1h-16z M201,123h3v1h-3z M228,123h2v1h-2z M231,123h1v1h-1z M233,123h3v1h-3z M246,123h2v1h-2z M257,123h7v1h-7z M19,124h28v1h-28z M121,124h16v1h-16z M138,124h2v1h-2z M146,124h3v1h-3z M155,124h2v1h-2z M166,124h2v1h-2z M186,124h3v1h-3z M191,124h2v1h-2z M234,124h1v1h-1z M238,124h1v1h-1z M245,124h3v1h-3z M254,124h10v1h-10z M2,123h13v3h-13z M20,125h26v1h-26z M53,124h29v2h-29z M88,124h28v2h-28z M122,125h19v1h-19z M145,125h15v1h-15z M166,125h13v1h-13z M186,125h17v1h-17z M209,125h16v1h-16z M232,125h17v1h-17z M10,126h3v1h-3z M27,126h2v1h-2z M36,126h3v1h-3z M43,126h2v1h-2z M54,126h2v1h-2z M57,126h1v1h-1z M65,126h1v1h-1z M68,126h3v1h-3z M73,126h8v1h-8z M89,126h2v1h-2z M102,126h5v1h-5z M113,126h2v1h-2z M125,126h3v1h-3z M131,126h10v1h-10z M145,126h16v1h-16z M166,126h14v1h-14z M185,126h18v1h-18z M208,126h18v1h-18z M253,125h11v2h-11z M2,126h5v2h-5z M132,127h9v1h-9z M145,127h15v1h-15z M167,127h12v1h-12z M186,127h17v1h-17z M209,127h17v1h-17z M233,126h17v2h-17z M253,127h12v1h-12z M2,128h4v1h-4z M129,128h1v1h-1z M132,128h6v1h-6z M139,128h1v1h-1z M153,128h6v1h-6z M196,128h6v1h-6z M210,128h1v1h-1z M219,128h3v1h-3z M239,128h2v1h-2z M246,128h3v1h-3z M259,128h6v1h-6z M2,129h5v1h-5z M22,129h1v1h-1z M77,129h2v1h-2z M84,129h1v1h-1z M93,129h4v1h-4z M108,129h14v1h-14z M123,129h14v1h-14z M199,129h2v1h-2z M255,128h1v2h-1z M259,129h5v1h-5z M2,130h28v1h-28z M37,130h29v1h-29z M107,130h42v1h-42z M156,130h14v1h-14z M178,130h13v1h-13z M198,130h17v1h-17z M243,130h21v1h-21z M37,131h30v1h-30z M73,130h29v2h-29z M107,131h43v1h-43z M155,131h17v1h-17z M2,131h29v2h-29z M37,132h29v1h-29z M74,132h28v1h-28z M108,132h42v1h-42z M155,132h16v1h-16z M177,131h15v2h-15z M197,131h19v2h-19z M221,130h18v3h-18z M242,131h22v2h-22z M2,133h5v1h-5z M24,133h1v1h-1z M61,133h4v1h-4z M78,133h1v1h-1z M87,133h1v1h-1z M131,133h19v1h-19z M155,133h15v1h-15z M178,133h5v1h-5z M184,133h7v1h-7z M198,133h1v1h-1z M204,133h11v1h-11z M226,133h11v1h-11z M243,133h2v1h-2z M249,133h2v1h-2z M253,133h11v1h-11z M2,134h4v1h-4z M131,134h6v1h-6z M156,134h1v1h-1z M168,134h1v1h-1z M186,134h2v1h-2z M205,134h5v1h-5z M226,134h5v1h-5z M232,134h7v1h-7z M243,134h21v1h-21z M2,135h5v1h-5z M62,135h4v1h-4z M73,135h4v1h-4z M86,135h1v1h-1z M93,135h6v1h-6z M111,135h2v1h-2z M115,135h149v1h-149z M2,136h262v1h-262z M2,137h261v1h-261z M3,138h258v1h-258z M3,139h103v1h-103z M111,139h24v1h-24z M142,139h7v1h-7z
  "/>
</svg>