<?xml version="1.0" encoding="UTF-8"?>
<svg xmlns="http://www.w3.org/2000/svg" viewBox="0 0 266 138" width="266" height="138">
  <title>25 Shale</title>
  <path fill="#111111" fill-rule="nonzero" d="
    M158,1h2v1h-2z M176,1h2v1h-2z M186,1h25v1h-25z M212,1h52v1h-52z M3,2h3v1h-3z M9,2h26v1h-26z M36,2h6v1h-6z M43,2h222v1h-222z M1,3h264v1h-264z M0,4h265v1h-265z M0,5h61v1h-61z M62,5h57v1h-57z M120,5h12v1h-12z M133,5h1v1h-1z M136,5h12v1h-12z M149,5h15v1h-15z M173,5h1v1h-1z M178,5h6v1h-6z M199,5h1v1h-1z M260,5h5v1h-5z M0,6h5v1h-5z M261,6h4v1h-4z M1,7h3v1h-3z M244,7h21v1h-21z M0,8h4v1h-4z M144,8h2v1h-2z M148,8h13v1h-13z M162,8h30v1h-30z M194,8h4v1h-4z M205,8h24v1h-24z M240,8h25v1h-25z M0,9h7v1h-7z M13,9h18v1h-18z M35,9h164v1h-164z M238,9h27v1h-27z M0,10h200v1h-200z M204,9h26v2h-26z M239,10h26v1h-26z M0,11h199v1h-199z M206,11h16v1h-16z M223,11h5v1h-5z M241,11h5v1h-5z M248,11h17v1h-17z M0,12h132v1h-132z M133,12h1v1h-1z M136,12h1v1h-1z M260,12h5v1h-5z M0,13h5v1h-5z M261,13h4v1h-4z M0,14h4v1h-4z M260,14h5v1h-5z M1,15h3v1h-3z M168,15h5v1h-5z M175,15h17v1h-17z M194,15h3v1h-3z M206,15h59v1h-59z M1,16h4v1h-4z M54,16h1v1h-1z M57,16h1v1h-1z M65,16h3v1h-3z M69,16h1v1h-1z M72,16h5v1h-5z M84,16h115v1h-115z M1,17h198v1h-198z M1,18h197v1h-197z M205,16h60v3h-60z M1,19h146v1h-146z M149,19h11v1h-11z M163,19h4v1h-4z M183,19h3v1h-3z M261,19h5v1h-5z M1,20h4v1h-4z M0,21h4v1h-4z M261,20h4v2h-4z M1,22h3v1h-3z M176,22h3v1h-3z M182,22h8v1h-8z M191,22h7v1h-7z M206,22h15v1h-15z M233,22h7v1h-7z M241,22h24v1h-24z M0,23h5v1h-5z M17,23h5v1h-5z M24,23h2v1h-2z M33,23h1v1h-1z M46,23h23v1h-23z M72,23h128v1h-128z M0,24h200v1h-200z M204,23h20v2h-20z M232,23h33v2h-33z M0,25h199v1h-199z M205,25h15v1h-15z M234,25h7v1h-7z M242,25h5v1h-5z M248,25h9v1h-9z M258,25h7v1h-7z M1,26h134v1h-134z M150,26h9v1h-9z M163,26h1v1h-1z M169,26h5v1h-5z M1,27h4v1h-4z M19,27h1v1h-1z M261,26h4v2h-4z M260,28h5v1h-5z M1,28h3v2h-3z M175,29h1v1h-1z M205,29h60v1h-60z M1,30h5v1h-5z M17,30h1v1h-1z M46,30h30v1h-30z M77,30h121v1h-121z M1,31h29v1h-29z M31,31h168v1h-168z M204,30h61v2h-61z M1,32h197v1h-197z M205,32h53v1h-53z M259,32h6v1h-6z M1,33h26v1h-26z M34,33h77v1h-77z M115,33h5v1h-5z M125,33h4v1h-4z M144,33h1v1h-1z M149,33h1v1h-1z M181,33h2v1h-2z M261,33h4v2h-4z M247,35h1v1h-1z M252,35h13v1h-13z M1,34h3v3h-3z M129,36h4v1h-4z M142,36h5v1h-5z M149,36h3v1h-3z M156,36h42v1h-42z M205,36h14v1h-14z M1,37h12v1h-12z M16,37h2v1h-2z M37,37h7v1h-7z M48,37h3v1h-3z M52,37h148v1h-148z M1,38h199v1h-199z M205,37h15v2h-15z M232,36h33v3h-33z M1,39h196v1h-196z M206,39h2v1h-2z M210,39h1v1h-1z M214,39h4v1h-4z M235,39h6v1h-6z M247,39h3v1h-3z M251,39h6v1h-6z M259,39h6v1h-6z M1,40h14v1h-14z M16,40h2v1h-2z M20,40h4v1h-4z M35,40h13v1h-13z M50,40h7v1h-7z M69,40h8v1h-8z M80,40h22v1h-22z M112,40h1v1h-1z M119,40h1v1h-1z M1,41h4v1h-4z M261,40h4v2h-4z M0,42h5v1h-5z M177,42h1v1h-1z M207,42h2v1h-2z M256,42h9v1h-9z M1,43h4v1h-4z M90,43h6v1h-6z M120,43h6v1h-6z M128,43h70v1h-70z M205,43h31v2h-31z M1,44h199v2h-199z M206,45h31v1h-31z M246,43h19v3h-19z M1,46h198v1h-198z M208,46h2v1h-2z M211,46h3v1h-3z M217,46h1v1h-1z M249,46h1v1h-1z M1,47h18v1h-18z M41,47h3v1h-3z M48,47h9v1h-9z M70,47h2v1h-2z M74,47h3v1h-3z M88,47h2v1h-2z M261,46h4v3h-4z M184,49h2v1h-2z M210,49h6v1h-6z M218,49h36v1h-36z M255,49h10v1h-10z M1,48h4v3h-4z M117,50h24v1h-24z M142,50h57v1h-57z M1,51h14v1h-14z M16,51h4v1h-4z M21,51h179v1h-179z M205,50h60v2h-60z M204,52h61v1h-61z M1,52h199v2h-199z M207,53h1v1h-1z M209,53h3v1h-3z M214,53h8v1h-8z M232,53h1v1h-1z M236,53h3v1h-3z M244,53h4v1h-4z M255,53h1v1h-1z M260,53h5v1h-5z M1,54h34v1h-34z M37,54h4v1h-4z M42,54h23v1h-23z M70,54h10v1h-10z M95,54h1v1h-1z M261,54h4v1h-4z M1,55h4v1h-4z M260,55h5v1h-5z M1,56h3v1h-3z M166,56h3v1h-3z M175,56h2v1h-2z M178,56h6v1h-6z M186,56h7v1h-7z M196,56h1v1h-1z M206,56h7v1h-7z M214,56h17v1h-17z M232,56h1v1h-1z M245,56h20v1h-20z M1,57h4v1h-4z M30,57h2v1h-2z M39,57h1v1h-1z M41,57h1v1h-1z M56,57h144v1h-144z M204,57h31v1h-31z M205,58h31v1h-31z M243,57h22v2h-22z M1,58h199v2h-199z M205,59h30v1h-30z M244,59h21v1h-21z M1,60h178v1h-178z M183,60h3v1h-3z M191,60h7v1h-7z M260,60h5v1h-5z M1,61h5v1h-5z M8,61h8v1h-8z M24,61h2v1h-2z M56,61h2v1h-2z M78,61h2v1h-2z M1,62h3v1h-3z M261,61h4v2h-4z M0,63h5v1h-5z M209,63h7v1h-7z M238,63h12v1h-12z M253,63h12v1h-12z M1,64h5v1h-5z M49,64h1v1h-1z M51,64h1v1h-1z M53,64h1v1h-1z M56,64h1v1h-1z M62,64h3v1h-3z M66,64h14v1h-14z M85,64h4v1h-4z M92,64h3v1h-3z M101,64h99v1h-99z M205,64h60v2h-60z M1,65h199v2h-199z M206,66h59v1h-59z M1,67h135v1h-135z M137,67h6v1h-6z M144,67h14v1h-14z M160,67h4v1h-4z M168,67h4v1h-4z M179,67h7v1h-7z M194,67h3v1h-3z M219,67h1v1h-1z M1,68h4v1h-4z M49,68h1v1h-1z M56,68h1v1h-1z M261,67h4v3h-4z M1,69h3v2h-3z M206,70h2v1h-2z M245,70h3v1h-3z M250,70h7v1h-7z M258,70h7v1h-7z M1,71h5v1h-5z M86,71h43v1h-43z M135,71h64v1h-64z M206,71h22v1h-22z M205,72h23v1h-23z M1,72h199v2h-199z M206,73h22v1h-22z M239,71h26v3h-26z M1,74h154v1h-154z M158,74h36v1h-36z M196,74h3v1h-3z M207,74h10v1h-10z M223,74h3v1h-3z M6,75h2v1h-2z M14,75h1v1h-1z M1,75h4v2h-4z M261,74h4v3h-4z M1,77h3v1h-3z M258,77h8v1h-8z M1,78h4v1h-4z M163,78h1v1h-1z M171,78h3v1h-3z M178,78h4v1h-4z M186,78h4v1h-4z M192,78h1v1h-1z M195,78h3v1h-3z M207,78h25v1h-25z M233,78h33v1h-33z M1,79h10v1h-10z M13,79h3v1h-3z M17,79h12v1h-12z M33,79h166v1h-166z M204,79h62v1h-62z M204,80h61v1h-61z M1,80h198v2h-198z M205,81h42v1h-42z M249,81h16v1h-16z M1,82h41v1h-41z M48,82h81v1h-81z M130,82h4v1h-4z M161,82h13v1h-13z M178,82h5v1h-5z M261,82h5v2h-5z M261,84h4v1h-4z M255,85h10v1h-10z M1,83h4v4h-4z M46,86h2v1h-2z M54,86h4v1h-4z M74,86h5v1h-5z M83,86h1v1h-1z M90,86h1v1h-1z M92,86h1v1h-1z M95,86h6v1h-6z M102,86h1v1h-1z M104,86h96v1h-96z M206,86h19v1h-19z M237,86h28v1h-28z M205,87h21v2h-21z M236,87h29v2h-29z M1,87h199v3h-199z M205,89h12v1h-12z M218,89h7v1h-7z M238,89h14v1h-14z M256,89h3v1h-3z M1,90h7v1h-7z M12,90h8v1h-8z M27,90h2v1h-2z M64,90h1v1h-1z M85,90h1v1h-1z M88,90h3v1h-3z M104,90h2v1h-2z M261,89h4v4h-4z M1,91h4v3h-4z M155,93h3v1h-3z M161,93h1v1h-1z M163,93h3v1h-3z M168,93h8v1h-8z M177,93h21v1h-21z M206,93h17v1h-17z M224,93h12v1h-12z M247,93h18v1h-18z M1,94h6v1h-6z M9,94h1v1h-1z M16,94h3v1h-3z M26,94h4v1h-4z M32,94h1v1h-1z M39,94h8v1h-8z M53,94h13v1h-13z M68,94h4v1h-4z M73,94h127v1h-127z M246,94h19v1h-19z M1,95h199v1h-199z M205,94h33v2h-33z M246,95h20v1h-20z M1,96h198v1h-198z M205,96h32v1h-32z M248,96h17v1h-17z M1,97h86v1h-86z M89,97h26v1h-26z M118,97h3v1h-3z M124,97h8v1h-8z M133,97h1v1h-1z M136,97h7v1h-7z M146,97h4v1h-4z M153,97h1v1h-1z M155,97h2v1h-2z M165,97h3v1h-3z M175,97h1v1h-1z M1,98h5v1h-5z M261,97h4v3h-4z M245,100h1v1h-1z M247,100h1v1h-1z M250,100h2v1h-2z M254,100h11v1h-11z M1,99h4v3h-4z M128,101h2v1h-2z M135,101h2v1h-2z M144,101h12v1h-12z M157,101h43v1h-43z M206,101h59v1h-59z M1,102h199v2h-199z M205,102h60v2h-60z M1,104h197v1h-197z M206,104h10v1h-10z M225,104h1v1h-1z M250,104h1v1h-1z M258,104h7v1h-7z M1,105h33v1h-33z M38,105h5v1h-5z M55,105h13v1h-13z M74,105h6v1h-6z M83,105h6v1h-6z M93,105h2v1h-2z M104,105h2v1h-2z M110,105h2v1h-2z M118,105h1v1h-1z M261,105h4v1h-4z M262,106h3v1h-3z M261,107h4v1h-4z M181,108h3v1h-3z M190,108h2v1h-2z M207,108h3v1h-3z M222,108h2v1h-2z M246,108h19v1h-19z M1,106h4v4h-4z M78,109h15v1h-15z M96,109h103v1h-103z M205,109h27v1h-27z M244,109h21v1h-21z M1,110h198v1h-198z M204,110h28v1h-28z M244,110h22v1h-22z M1,111h199v1h-199z M205,111h27v1h-27z M245,111h21v1h-21z M1,112h185v1h-185z M187,112h6v1h-6z M249,112h1v1h-1z M260,112h6v1h-6z M1,113h24v1h-24z M28,113h3v1h-3z M53,113h3v1h-3z M65,113h2v1h-2z M78,113h1v1h-1z M148,113h4v1h-4z M261,113h5v3h-5z M1,114h4v3h-4z M195,116h1v1h-1z M207,116h1v1h-1z M213,116h7v1h-7z M224,116h1v1h-1z M229,116h36v1h-36z M1,117h6v1h-6z M11,117h3v1h-3z M24,117h9v1h-9z M56,117h7v1h-7z M65,117h135v1h-135z M1,118h199v1h-199z M1,119h197v1h-197z M205,117h60v3h-60z M1,120h122v1h-122z M124,120h36v1h-36z M162,120h3v1h-3z M168,120h4v1h-4z M173,120h3v1h-3z M1,121h6v1h-6z M43,121h2v1h-2z M261,120h5v2h-5z M261,122h4v1h-4z M248,123h18v1h-18z M1,122h4v3h-4z M119,124h3v1h-3z M134,124h66v1h-66z M206,124h22v1h-22z M241,124h24v1h-24z M206,125h23v1h-23z M1,125h200v2h-200z M206,126h22v1h-22z M240,125h25v2h-25z M1,127h197v1h-197z M224,127h3v1h-3z M261,127h4v1h-4z M1,128h39v1h-39z M43,128h21v1h-21z M72,128h2v1h-2z M79,128h1v1h-1z M261,128h5v3h-5z M1,129h4v3h-4z M208,131h2v1h-2z M232,131h10v1h-10z M244,131h22v1h-22z M1,132h5v1h-5z M54,132h2v1h-2z M72,132h2v1h-2z M105,132h161v1h-161z M1,133h265v1h-265z M1,134h264v1h-264z M1,135h250v1h-250z M254,135h11v1h-11z M2,136h175v1h-175z M262,136h1v1h-1z
  "/>
</svg>