<?xml version="1.0" encoding="UTF-8"?>
<svg xmlns="http://www.w3.org/2000/svg" viewBox="0 0 263 138" width="263" height="138">
  <title>67 Massive igneous rock 67</title>
  <path fill="#111111" fill-rule="nonzero" d="
    M2,0h1v1h-1z M1,1h23v1h-23z M31,1h7v1h-7z M71,1h1v1h-1z M167,1h1v1h-1z M172,1h1v1h-1z M183,1h4v1h-4z M190,1h1v1h-1z M201,1h6v1h-6z M214,1h3v1h-3z M235,1h3v1h-3z M259,1h1v1h-1z M1,2h262v3h-262z M0,5h6v1h-6z M20,5h6v1h-6z M27,5h6v1h-6z M50,5h21v1h-21z M73,5h29v1h-29z M103,5h160v1h-160z M0,6h4v1h-4z M21,6h4v1h-4z M27,6h5v1h-5z M56,6h9v1h-9z M92,6h7v1h-7z M161,6h6v1h-6z M168,6h6v1h-6z M196,6h4v1h-4z M254,6h1v1h-1z M258,6h4v1h-4z M22,7h3v1h-3z M26,7h5v1h-5z M57,7h7v1h-7z M93,7h6v1h-6z M128,6h9v2h-9z M161,7h5v1h-5z M169,7h5v1h-5z M196,7h3v1h-3z M253,7h3v1h-3z M259,7h3v1h-3z M1,7h3v2h-3z M23,8h7v1h-7z M58,8h5v1h-5z M93,8h7v1h-7z M127,8h10v1h-10z M161,8h4v1h-4z M170,8h5v1h-5z M196,8h2v1h-2z M253,8h4v1h-4z M259,8h4v1h-4z M0,9h4v1h-4z M58,9h6v1h-6z M92,9h9v1h-9z M126,9h4v1h-4z M133,9h6v1h-6z M161,9h2v1h-2z M171,9h4v1h-4z M225,9h3v1h-3z M252,9h11v1h-11z M24,9h6v2h-6z M57,10h8v1h-8z M90,10h12v1h-12z M125,10h4v1h-4z M134,10h5v1h-5z M173,10h2v1h-2z M217,10h2v1h-2z M225,10h4v1h-4z M253,10h10v1h-10z M23,11h8v1h-8z M56,11h10v1h-10z M90,11h5v1h-5z M98,11h4v1h-4z M125,11h3v1h-3z M136,11h3v1h-3z M216,11h5v1h-5z M224,11h4v1h-4z M254,11h9v1h-9z M0,10h5v3h-5z M22,12h9v1h-9z M55,12h5v1h-5z M62,12h5v1h-5z M89,12h4v1h-4z M99,12h3v1h-3z M126,12h1v1h-1z M137,12h2v1h-2z M216,12h12v1h-12z M255,12h8v1h-8z M21,13h5v1h-5z M28,13h4v1h-4z M55,13h4v1h-4z M63,13h4v1h-4z M89,13h3v1h-3z M181,13h1v1h-1z M189,13h2v1h-2z M217,13h10v1h-10z M30,14h1v1h-1z M53,14h5v1h-5z M180,14h3v1h-3z M188,14h4v1h-4z M218,14h8v1h-8z M256,13h6v2h-6z M21,14h4v2h-4z M53,15h4v1h-4z M155,15h1v1h-1z M180,15h4v1h-4z M187,15h4v1h-4z M21,16h3v1h-3z M153,16h4v1h-4z M180,16h11v1h-11z M219,15h7v2h-7z M255,15h8v2h-8z M119,17h1v1h-1z M147,17h1v1h-1z M152,17h4v1h-4z M181,17h9v1h-9z M218,17h10v1h-10z M254,17h9v1h-9z M118,18h3v1h-3z M146,18h4v1h-4z M151,18h5v1h-5z M182,18h7v1h-7z M217,18h5v1h-5z M223,18h5v1h-5z M253,18h10v1h-10z M82,19h1v1h-1z M109,19h2v1h-2z M116,19h5v1h-5z M146,19h9v1h-9z M183,19h6v1h-6z M216,19h5v1h-5z M224,19h4v1h-4z M253,19h4v1h-4z M81,20h4v1h-4z M109,20h4v1h-4z M115,20h6v1h-6z M147,20h8v1h-8z M182,20h8v1h-8z M217,20h3v1h-3z M225,20h3v1h-3z M253,20h3v1h-3z M0,13h4v9h-4z M15,21h1v1h-1z M48,21h3v1h-3z M73,21h3v1h-3z M80,21h5v1h-5z M109,21h11v1h-11z M181,21h10v1h-10z M0,22h5v1h-5z M13,22h4v1h-4z M39,22h3v1h-3z M47,22h4v1h-4z M73,22h5v1h-5z M79,22h5v1h-5z M110,22h9v1h-9z M147,21h7v2h-7z M181,22h5v1h-5z M187,22h5v1h-5z M0,23h7v1h-7z M12,23h4v1h-4z M39,23h4v1h-4z M46,23h4v1h-4z M73,23h10v1h-10z M147,23h8v1h-8z M181,23h4v1h-4z M188,23h5v1h-5z M0,24h9v1h-9z M11,24h5v1h-5z M39,24h5v1h-5z M45,24h5v1h-5z M74,24h8v1h-8z M111,23h7v2h-7z M146,24h10v1h-10z M182,24h2v1h-2z M189,24h4v1h-4z M0,25h15v1h-15z M40,25h9v1h-9z M111,25h8v1h-8z M145,25h5v1h-5z M151,25h5v1h-5z M191,25h1v1h-1z M0,26h14v1h-14z M41,26h7v1h-7z M110,26h10v1h-10z M145,26h4v1h-4z M153,26h3v1h-3z M246,26h1v1h-1z M75,25h7v3h-7z M109,27h5v1h-5z M145,27h3v1h-3z M154,27h2v1h-2z M236,27h4v1h-4z M245,27h3v1h-3z M7,27h6v2h-6z M42,27h6v2h-6z M74,28h9v1h-9z M110,28h3v1h-3z M116,27h5v2h-5z M236,28h5v1h-5z M244,28h5v1h-5z M7,29h7v1h-7z M41,29h8v1h-8z M74,29h10v1h-10z M110,29h1v1h-1z M118,29h2v1h-2z M236,29h6v1h-6z M243,29h5v1h-5z M0,27h5v4h-5z M6,30h9v1h-9z M41,30h9v1h-9z M73,30h5v1h-5z M80,30h4v1h-4z M199,30h3v1h-3z M207,29h4v2h-4z M237,30h10v1h-10z M0,31h16v1h-16z M40,31h5v1h-5z M47,31h4v1h-4z M73,31h4v1h-4z M81,31h3v1h-3z M199,31h4v1h-4z M205,31h5v1h-5z M238,31h8v1h-8z M259,19h4v13h-4z M0,32h9v1h-9z M41,32h2v1h-2z M48,32h3v1h-3z M172,32h3v1h-3z M199,32h11v1h-11z M0,33h8v1h-8z M12,32h5v2h-5z M49,33h1v1h-1z M171,33h4v1h-4z M200,33h9v1h-9z M239,32h7v2h-7z M15,34h1v1h-1z M137,34h2v1h-2z M170,34h5v1h-5z M239,34h8v1h-8z M126,35h3v1h-3z M136,35h3v1h-3z M163,34h4v2h-4z M169,35h5v1h-5z M201,34h7v2h-7z M238,35h9v1h-9z M0,34h5v3h-5z M126,36h5v1h-5z M164,36h9v1h-9z M201,36h8v1h-8z M237,36h5v1h-5z M245,36h2v1h-2z M127,37h4v1h-4z M134,36h5v2h-5z M165,37h8v1h-8z M200,37h9v1h-9z M238,37h3v1h-3z M93,38h2v1h-2z M101,37h3v2h-3z M127,38h11v1h-11z M166,38h6v1h-6z M200,38h10v1h-10z M58,39h2v1h-2z M65,38h4v2h-4z M92,39h5v1h-5z M99,39h5v1h-5z M128,39h9v1h-9z M165,39h7v1h-7z M200,39h4v1h-4z M207,39h4v1h-4z M57,40h5v1h-5z M64,40h5v1h-5z M92,40h11v1h-11z M129,40h8v1h-8z M165,40h8v1h-8z M201,40h2v1h-2z M208,40h3v1h-3z M31,40h3v2h-3z M57,41h11v1h-11z M93,41h9v1h-9z M130,41h7v1h-7z M164,41h10v1h-10z M209,41h1v1h-1z M23,41h4v2h-4z M30,42h4v1h-4z M58,42h9v1h-9z M129,42h8v1h-8z M163,42h5v1h-5z M170,42h4v1h-4z M23,43h10v1h-10z M95,42h6v2h-6z M128,43h10v1h-10z M164,43h3v1h-3z M171,43h2v1h-2z M253,43h3v1h-3z M24,44h8v1h-8z M59,43h7v2h-7z M94,44h8v1h-8z M134,44h3v1h-3z M252,44h5v1h-5z M25,45h7v1h-7z M59,45h8v1h-8z M94,45h9v1h-9z M128,44h4v2h-4z M253,45h5v1h-5z M259,32h3v14h-3z M26,46h6v1h-6z M93,46h5v1h-5z M99,46h4v1h-4z M228,46h1v1h-1z M253,46h9v1h-9z M25,47h8v1h-8z M58,46h10v2h-10z M92,47h5v1h-5z M99,47h5v1h-5z M227,47h3v1h-3z M255,47h7v1h-7z M25,48h9v1h-9z M58,48h3v1h-3z M65,48h3v1h-3z M91,48h5v1h-5z M101,48h2v1h-2z M191,48h2v1h-2z M219,48h3v1h-3z M226,48h4v1h-4z M256,48h6v1h-6z M24,49h4v1h-4z M59,49h2v1h-2z M66,49h2v1h-2z M92,49h3v1h-3z M183,49h1v1h-1z M190,49h4v1h-4z M219,49h4v1h-4z M225,49h5v1h-5z M25,50h3v1h-3z M31,49h4v2h-4z M92,50h1v1h-1z M182,50h3v1h-3z M189,50h5v1h-5z M219,50h10v1h-10z M32,51h3v1h-3z M182,51h4v1h-4z M188,51h5v1h-5z M220,51h8v1h-8z M257,49h5v3h-5z M154,52h3v1h-3z M182,52h11v1h-11z M256,52h7v1h-7z M147,53h1v1h-1z M183,53h9v1h-9z M221,52h6v2h-6z M255,53h7v1h-7z M119,54h3v1h-3z M146,54h4v1h-4z M153,53h4v2h-4z M220,54h8v1h-8z M254,54h8v1h-8z M50,55h3v1h-3z M85,55h1v1h-1z M110,55h3v1h-3z M118,55h4v1h-4z M146,55h5v1h-5z M152,55h4v1h-4z M184,54h7v2h-7z M220,55h9v1h-9z M253,55h10v1h-10z M49,56h4v1h-4z M76,56h2v1h-2z M110,56h4v1h-4z M117,56h4v1h-4z M147,56h8v1h-8z M184,56h8v1h-8z M219,56h5v1h-5z M226,56h4v1h-4z M253,56h4v1h-4z M17,57h3v1h-3z M41,57h3v1h-3z M48,57h4v1h-4z M83,56h4v2h-4z M110,57h11v1h-11z M183,57h10v1h-10z M219,57h4v1h-4z M227,57h3v1h-3z M254,57h2v1h-2z M8,58h3v1h-3z M16,58h4v1h-4z M41,58h4v1h-4z M47,58h5v1h-5z M75,57h5v2h-5z M82,58h4v1h-4z M111,58h9v1h-9z M148,57h6v2h-6z M182,58h5v1h-5z M189,58h5v1h-5z M220,58h1v1h-1z M228,58h2v1h-2z M8,59h5v1h-5z M15,59h5v1h-5z M41,59h10v1h-10z M76,59h10v1h-10z M112,59h7v1h-7z M148,59h7v1h-7z M183,59h3v1h-3z M190,59h4v1h-4z M8,60h10v1h-10z M42,60h8v1h-8z M77,60h8v1h-8z M113,60h6v1h-6z M147,60h10v1h-10z M184,60h1v1h-1z M191,60h3v1h-3z M0,37h4v25h-4z M9,61h8v1h-8z M43,61h6v1h-6z M77,61h7v1h-7z M112,61h7v1h-7z M146,61h12v1h-12z M1,62h3v1h-3z M43,62h7v1h-7z M78,62h6v1h-6z M111,62h10v1h-10z M145,62h5v1h-5z M153,62h5v1h-5z M10,62h7v2h-7z M42,63h9v1h-9z M77,63h8v1h-8z M111,63h11v1h-11z M145,63h3v1h-3z M155,63h2v1h-2z M10,64h8v1h-8z M42,64h10v1h-10z M76,64h10v1h-10z M111,64h4v1h-4z M117,64h5v1h-5z M145,64h2v1h-2z M246,64h2v1h-2z M9,65h10v1h-10z M41,65h5v1h-5z M47,65h5v1h-5z M76,65h4v1h-4z M111,65h2v1h-2z M118,65h3v1h-3z M237,65h3v1h-3z M245,65h3v1h-3z M9,66h4v1h-4z M15,66h5v1h-5z M41,66h3v1h-3z M49,66h4v1h-4z M76,66h3v1h-3z M83,65h4v2h-4z M237,66h5v1h-5z M243,66h5v1h-5z M9,67h3v1h-3z M16,67h4v1h-4z M42,67h1v1h-1z M50,67h2v1h-2z M200,67h4v1h-4z M210,67h3v1h-3z M237,67h10v1h-10z M9,68h2v1h-2z M17,68h3v1h-3z M209,68h4v1h-4z M238,68h9v1h-9z M165,69h1v1h-1z M172,69h2v1h-2z M200,68h5v2h-5z M207,69h6v1h-6z M239,69h7v1h-7z M164,70h3v1h-3z M171,70h4v1h-4z M201,70h11v1h-11z M240,70h6v1h-6z M104,71h1v1h-1z M129,71h2v1h-2z M137,71h3v1h-3z M164,71h5v1h-5z M170,71h4v1h-4z M202,71h9v1h-9z M239,71h8v1h-8z M94,72h2v1h-2z M103,72h3v1h-3z M128,72h4v1h-4z M136,72h4v1h-4z M164,72h10v1h-10z M203,72h7v1h-7z M239,72h9v1h-9z M34,73h3v1h-3z M69,73h2v1h-2z M102,73h4v1h-4z M128,73h5v1h-5z M135,73h4v1h-4z M165,73h8v1h-8z M204,73h6v1h-6z M238,73h11v1h-11z M60,74h3v1h-3z M68,74h3v1h-3z M94,73h4v2h-4z M101,74h5v1h-5z M128,74h11v1h-11z M203,74h8v1h-8z M237,74h5v1h-5z M245,74h4v1h-4z M33,74h4v2h-4z M60,75h4v1h-4z M67,75h4v1h-4z M95,75h10v1h-10z M130,75h8v1h-8z M166,74h7v2h-7z M237,75h3v1h-3z M247,75h1v1h-1z M25,76h4v1h-4z M32,76h4v1h-4z M60,76h10v1h-10z M96,76h8v1h-8z M165,76h9v1h-9z M202,75h10v2h-10z M25,77h11v1h-11z M61,77h8v1h-8z M131,76h6v2h-6z M165,77h10v1h-10z M202,77h4v1h-4z M209,77h3v1h-3z M26,78h8v1h-8z M97,77h6v2h-6z M131,78h7v1h-7z M164,78h5v1h-5z M96,79h9v1h-9z M129,79h10v1h-10z M164,79h4v1h-4z M171,78h4v2h-4z M62,78h7v3h-7z M96,80h10v1h-10z M128,80h11v1h-11z M165,80h2v1h-2z M255,80h2v1h-2z M259,56h3v25h-3z M27,79h7v3h-7z M61,81h10v1h-10z M95,81h5v1h-5z M101,81h6v1h-6z M127,81h6v1h-6z M136,81h3v1h-3z M254,81h8v1h-8z M26,82h10v1h-10z M60,82h5v1h-5z M66,82h6v1h-6z M95,82h3v1h-3z M102,82h4v1h-4z M127,82h4v1h-4z M25,83h5v1h-5z M31,83h5v1h-5z M68,83h4v1h-4z M96,83h1v1h-1z M103,83h2v1h-2z M127,83h3v1h-3z M255,82h7v2h-7z M25,84h4v1h-4z M32,84h5v1h-5z M60,83h3v2h-3z M69,84h3v1h-3z M221,84h2v1h-2z M228,84h3v1h-3z M256,84h6v1h-6z M26,85h2v1h-2z M33,85h4v1h-4z M220,85h4v1h-4z M227,85h4v1h-4z M257,85h5v1h-5z M34,86h3v1h-3z M192,86h1v1h-1z M220,86h11v1h-11z M258,86h5v1h-5z M183,87h3v1h-3z M191,87h3v1h-3z M221,87h9v1h-9z M147,88h2v1h-2z M155,88h3v1h-3z M183,88h4v1h-4z M190,88h4v1h-4z M222,88h7v1h-7z M257,87h6v2h-6z M112,89h3v1h-3z M147,89h4v1h-4z M154,89h4v1h-4z M183,89h11v1h-11z M223,89h6v1h-6z M256,89h7v1h-7z M86,90h2v1h-2z M112,90h4v1h-4z M120,89h4v2h-4z M147,90h11v1h-11z M184,90h10v1h-10z M223,90h7v1h-7z M18,91h3v1h-3z M54,91h1v1h-1z M85,91h4v1h-4z M112,91h6v1h-6z M119,91h4v1h-4z M147,91h10v1h-10z M185,91h8v1h-8z M222,91h9v1h-9z M17,92h4v1h-4z M52,92h3v1h-3z M80,92h1v1h-1z M84,92h5v1h-5z M113,92h10v1h-10z M186,92h6v1h-6z M221,92h11v1h-11z M255,90h7v3h-7z M10,93h3v1h-3z M16,93h5v1h-5z M44,93h3v1h-3z M79,93h9v1h-9z M114,93h8v1h-8z M186,93h7v1h-7z M228,93h4v1h-4z M10,94h4v1h-4z M16,94h4v1h-4z M44,94h4v1h-4z M50,93h5v2h-5z M80,94h7v1h-7z M149,92h7v3h-7z M185,94h8v1h-8z M221,93h4v2h-4z M229,94h3v1h-3z M10,95h9v1h-9z M44,95h10v1h-10z M114,94h7v2h-7z M148,95h8v1h-8z M184,95h11v1h-11z M11,96h7v1h-7z M45,96h8v1h-8z M80,95h6v2h-6z M114,96h8v1h-8z M148,96h9v1h-9z M184,96h4v1h-4z M190,96h5v1h-5z M12,97h6v1h-6z M79,97h8v1h-8z M114,97h9v1h-9z M148,97h3v1h-3z M154,97h4v1h-4z M183,97h4v1h-4z M191,97h4v1h-4z M11,98h7v1h-7z M46,97h6v2h-6z M79,98h9v1h-9z M113,98h5v1h-5z M119,98h4v1h-4z M147,98h3v1h-3z M156,98h1v1h-1z M183,98h3v1h-3z M192,98h3v1h-3z M11,99h8v1h-8z M45,99h8v1h-8z M78,99h4v1h-4z M84,99h5v1h-5z M112,99h5v1h-5z M120,99h3v1h-3z M247,99h1v1h-1z M10,100h11v1h-11z M44,100h10v1h-10z M77,100h5v1h-5z M85,100h4v1h-4z M112,100h4v1h-4z M238,100h3v1h-3z M246,100h3v1h-3z M10,101h4v1h-4z M16,101h5v1h-5z M44,101h4v1h-4z M78,101h2v1h-2z M86,101h3v1h-3z M113,101h1v1h-1z M245,101h4v1h-4z M10,102h3v1h-3z M17,102h4v1h-4z M45,102h2v1h-2z M51,101h3v2h-3z M237,101h5v2h-5z M244,102h5v1h-5z M52,103h1v1h-1z M211,103h2v1h-2z M238,103h10v1h-10z M202,104h3v1h-3z M210,104h4v1h-4z M239,104h8v1h-8z M202,105h5v1h-5z M209,105h5v1h-5z M167,106h2v1h-2z M175,105h4v2h-4z M202,106h11v1h-11z M240,105h7v2h-7z M259,93h3v14h-3z M105,107h2v1h-2z M131,107h3v1h-3z M138,106h4v2h-4z M166,107h4v1h-4z M174,107h4v1h-4z M203,107h10v1h-10z M239,107h9v1h-9z M63,108h1v1h-1z M70,108h3v1h-3z M97,108h1v1h-1z M104,108h4v1h-4z M130,108h5v1h-5z M137,108h5v1h-5z M166,108h12v1h-12z M204,108h8v1h-8z M238,108h11v1h-11z M63,109h2v1h-2z M69,109h4v1h-4z M96,109h3v1h-3z M103,109h5v1h-5z M131,109h10v1h-10z M167,109h10v1h-10z M205,109h6v1h-6z M237,109h5v1h-5z M29,110h1v1h-1z M36,110h2v1h-2z M62,110h4v1h-4z M68,110h4v1h-4z M96,110h5v1h-5z M102,110h5v1h-5z M131,110h9v1h-9z M168,110h8v1h-8z M204,110h8v1h-8z M237,110h4v1h-4z M245,109h4v2h-4z M28,111h3v1h-3z M35,111h4v1h-4z M63,111h8v1h-8z M97,111h9v1h-9z M204,111h9v1h-9z M238,111h3v1h-3z M247,111h1v1h-1z M259,107h4v5h-4z M28,112h5v1h-5z M34,112h5v1h-5z M98,112h7v1h-7z M133,111h6v2h-6z M169,111h6v2h-6z M203,112h11v1h-11z M28,113h10v1h-10z M99,113h6v1h-6z M132,113h8v1h-8z M168,113h9v1h-9z M203,113h4v1h-4z M210,113h4v1h-4z M29,114h8v1h-8z M64,112h6v3h-6z M98,114h7v1h-7z M132,114h9v1h-9z M167,114h10v1h-10z M203,114h3v1h-3z M211,114h3v1h-3z M259,112h3v3h-3z M31,115h5v1h-5z M63,115h8v1h-8z M97,115h9v1h-9z M131,115h5v1h-5z M137,115h5v1h-5z M167,115h4v1h-4z M174,115h3v1h-3z M204,115h1v1h-1z M259,115h4v1h-4z M30,116h7v1h-7z M63,116h9v1h-9z M97,116h10v1h-10z M131,116h4v1h-4z M138,116h4v1h-4z M167,116h3v1h-3z M175,116h1v1h-1z M255,116h2v1h-2z M259,116h3v1h-3z M30,117h8v1h-8z M63,117h3v1h-3z M68,117h5v1h-5z M97,117h3v1h-3z M103,117h4v1h-4z M131,117h1v1h-1z M140,117h2v1h-2z M254,117h8v1h-8z M0,63h4v56h-4z M29,118h10v1h-10z M63,118h2v1h-2z M69,118h5v1h-5z M97,118h2v1h-2z M104,118h4v1h-4z M29,119h4v1h-4z M35,119h4v1h-4z M70,119h4v1h-4z M105,119h2v1h-2z M229,119h1v1h-1z M255,118h7v2h-7z M29,120h3v1h-3z M36,120h3v1h-3z M220,120h2v1h-2z M256,120h6v1h-6z M0,119h5v3h-5z M37,121h2v1h-2z M219,121h4v1h-4z M227,120h4v2h-4z M219,122h6v1h-6z M226,122h5v1h-5z M158,123h2v1h-2z M194,123h2v1h-2z M220,123h10v1h-10z M257,121h5v3h-5z M123,124h2v1h-2z M150,124h3v1h-3z M157,124h4v1h-4z M193,124h3v1h-3z M221,124h8v1h-8z M89,125h2v1h-2z M122,125h4v1h-4z M150,125h4v1h-4z M156,125h4v1h-4z M186,125h3v1h-3z M192,125h4v1h-4z M54,126h3v1h-3z M88,126h4v1h-4z M114,126h4v1h-4z M121,126h5v1h-5z M150,126h10v1h-10z M186,126h10v1h-10z M223,125h6v2h-6z M256,124h6v3h-6z M46,127h2v1h-2z M53,127h4v1h-4z M81,127h2v1h-2z M87,127h5v1h-5z M114,127h5v1h-5z M121,127h4v1h-4z M151,127h8v1h-8z M186,127h8v1h-8z M222,127h8v1h-8z M258,127h4v1h-4z M21,128h3v1h-3z M46,128h4v1h-4z M52,128h5v1h-5z M80,128h11v1h-11z M115,128h9v1h-9z M221,128h10v1h-10z M259,128h4v1h-4z M14,129h1v1h-1z M20,129h4v1h-4z M46,129h10v1h-10z M80,129h10v1h-10z M116,129h7v1h-7z M152,128h6v2h-6z M187,128h7v2h-7z M227,129h4v1h-4z M13,130h4v1h-4z M19,130h5v1h-5z M46,130h9v1h-9z M81,130h8v1h-8z M117,130h6v1h-6z M152,130h7v1h-7z M187,130h8v1h-8z M220,129h4v2h-4z M228,130h3v1h-3z M259,129h3v2h-3z M0,122h4v10h-4z M13,131h10v1h-10z M47,131h7v1h-7z M116,131h7v1h-7z M151,131h9v1h-9z M186,131h9v1h-9z M221,131h2v1h-2z M259,131h4v1h-4z M0,132h5v1h-5z M13,132h9v1h-9z M47,132h8v1h-8z M82,131h7v2h-7z M116,132h9v1h-9z M150,132h5v1h-5z M156,132h5v1h-5z M185,132h11v1h-11z M258,132h5v1h-5z M0,133h91v1h-91z M93,133h3v1h-3z M101,133h25v1h-25z M143,133h1v1h-1z M148,133h7v1h-7z M156,133h10v1h-10z M167,133h62v1h-62z M230,133h33v1h-33z M0,134h262v1h-262z M1,135h261v1h-261z M2,136h260v1h-260z M31,137h3v1h-3z M37,137h4v1h-4z M46,137h1v1h-1z M56,137h1v1h-1z M66,137h4v1h-4z M77,137h3v1h-3z M96,137h34v1h-34z M133,137h24v1h-24z M162,137h13v1h-13z M177,137h6v1h-6z M187,137h10v1h-10z M201,137h7v1h-7z M227,137h7v1h-7z M245,137h4v1h-4z M256,137h2v1h-2z
  "/>
</svg>