<?xml version="1.0" encoding="UTF-8"?>
<svg xmlns="http://www.w3.org/2000/svg" viewBox="0 0 266 138" width="266" height="138">
  <title>35 Cannel shale</title>
  <path fill="#111111" fill-rule="nonzero" d="
    M3,2h13v1h-13z M17,2h18v1h-18z M39,2h2v1h-2z M42,2h2v1h-2z M46,2h27v1h-27z M78,2h76v1h-76z M155,2h70v1h-70z M228,2h35v1h-35z M1,3h74v2h-74z M77,3h187v2h-187z M1,5h17v1h-17z M21,5h53v1h-53z M78,5h30v1h-30z M110,5h78v1h-78z M191,5h34v1h-34z M228,5h36v1h-36z M1,6h16v1h-16z M22,6h6v1h-6z M31,6h1v1h-1z M38,6h2v1h-2z M42,6h1v1h-1z M46,6h4v1h-4z M87,6h4v1h-4z M92,6h2v1h-2z M112,6h2v1h-2z M115,6h1v1h-1z M121,6h10v1h-10z M136,6h15v1h-15z M165,6h7v1h-7z M175,6h11v1h-11z M192,6h17v1h-17z M213,6h6v1h-6z M221,6h2v1h-2z M229,6h1v1h-1z M237,6h5v1h-5z M245,6h2v1h-2z M255,6h2v1h-2z M260,6h4v1h-4z M1,7h14v1h-14z M26,7h1v1h-1z M47,7h1v1h-1z M66,7h4v1h-4z M79,6h7v2h-7z M87,7h8v1h-8z M98,7h6v1h-6z M111,7h6v1h-6z M118,7h12v1h-12z M135,7h16v1h-16z M156,6h3v2h-3z M164,7h22v1h-22z M192,7h31v1h-31z M228,7h23v1h-23z M255,7h9v1h-9z M1,8h15v1h-15z M22,8h21v1h-21z M47,8h27v1h-27z M77,8h29v1h-29z M135,8h18v1h-18z M155,8h32v1h-32z M191,8h33v1h-33z M228,8h36v1h-36z M46,9h61v1h-61z M109,8h23v2h-23z M45,10h88v1h-88z M1,9h17v3h-17z M21,9h23v3h-23z M46,11h29v1h-29z M76,11h56v1h-56z M134,9h19v3h-19z M155,9h33v3h-33z M190,9h74v3h-74z M1,12h16v1h-16z M22,12h21v1h-21z M47,12h26v1h-26z M77,12h30v1h-30z M110,12h22v1h-22z M135,12h18v1h-18z M155,12h32v1h-32z M191,12h34v1h-34z M228,12h36v1h-36z M140,13h2v1h-2z M155,13h4v1h-4z M167,13h8v1h-8z M177,13h2v1h-2z M183,13h2v1h-2z M193,13h1v1h-1z M232,13h1v1h-1z M236,13h3v1h-3z M240,13h4v1h-4z M247,13h17v1h-17z M1,13h3v2h-3z M155,14h3v1h-3z M260,14h4v1h-4z M1,15h4v1h-4z M9,15h1v1h-1z M23,15h1v1h-1z M49,15h4v1h-4z M61,15h6v1h-6z M70,15h2v1h-2z M84,15h21v1h-21z M111,15h1v1h-1z M140,15h2v1h-2z M146,15h5v1h-5z M155,15h32v1h-32z M192,15h32v1h-32z M227,15h37v1h-37z M1,16h16v1h-16z M21,16h22v1h-22z M47,16h27v1h-27z M77,16h30v1h-30z M110,16h22v1h-22z M135,16h18v1h-18z M154,16h34v1h-34z M190,16h74v1h-74z M20,17h24v1h-24z M45,17h30v1h-30z M76,17h56v1h-56z M134,17h130v1h-130z M21,18h112v1h-112z M134,18h131v1h-131z M1,17h17v3h-17z M21,19h23v1h-23z M46,19h28v1h-28z M76,19h32v1h-32z M109,19h24v1h-24z M134,19h19v1h-19z M155,19h34v1h-34z M191,19h73v1h-73z M1,20h15v1h-15z M23,20h3v1h-3z M29,20h14v1h-14z M47,20h26v1h-26z M77,20h6v1h-6z M84,20h10v1h-10z M95,20h12v1h-12z M110,20h22v1h-22z M135,20h17v1h-17z M155,20h33v1h-33z M192,20h32v1h-32z M228,20h36v1h-36z M199,21h3v1h-3z M210,21h1v1h-1z M1,21h4v2h-4z M140,22h1v1h-1z M147,22h2v1h-2z M156,21h2v2h-2z M185,22h2v1h-2z M192,22h5v1h-5z M198,22h5v1h-5z M204,22h4v1h-4z M209,22h2v1h-2z M212,22h1v1h-1z M215,22h8v1h-8z M229,22h4v1h-4z M237,22h11v1h-11z M254,22h3v1h-3z M260,21h4v2h-4z M1,23h16v1h-16z M22,23h9v1h-9z M32,23h9v1h-9z M47,23h4v1h-4z M63,23h1v1h-1z M66,23h2v1h-2z M79,23h14v1h-14z M95,23h10v1h-10z M110,23h22v1h-22z M136,23h16v1h-16z M191,23h34v1h-34z M227,23h37v1h-37z M21,24h23v1h-23z M45,24h29v1h-29z M76,24h31v1h-31z M109,24h24v1h-24z M135,24h18v1h-18z M155,23h33v2h-33z M109,25h79v1h-79z M1,24h17v3h-17z M20,25h88v2h-88z M109,26h24v1h-24z M134,26h54v1h-54z M190,24h74v3h-74z M1,27h16v1h-16z M21,27h23v1h-23z M45,27h29v1h-29z M77,27h30v1h-30z M109,27h23v1h-23z M135,27h52v1h-52z M191,27h32v1h-32z M227,27h37v1h-37z M1,28h4v1h-4z M46,28h5v1h-5z M56,28h8v1h-8z M69,28h3v1h-3z M83,28h4v1h-4z M94,28h12v1h-12z M110,28h4v1h-4z M119,28h3v1h-3z M123,28h8v1h-8z M137,28h3v1h-3z M142,28h1v1h-1z M154,28h5v1h-5z M177,28h6v1h-6z M192,28h1v1h-1z M1,29h3v1h-3z M46,29h2v1h-2z M155,29h3v1h-3z M229,28h1v2h-1z M260,28h4v2h-4z M1,30h4v1h-4z M24,30h10v1h-10z M37,30h5v1h-5z M46,30h3v1h-3z M51,30h4v1h-4z M56,30h12v1h-12z M92,30h7v1h-7z M111,30h1v1h-1z M116,30h5v1h-5z M142,30h3v1h-3z M147,30h4v1h-4z M155,30h31v1h-31z M192,30h32v1h-32z M227,30h37v1h-37z M1,31h16v1h-16z M21,31h23v1h-23z M45,31h29v1h-29z M77,31h30v1h-30z M109,31h22v1h-22z M135,31h18v1h-18z M191,31h34v1h-34z M226,31h38v1h-38z M20,32h112v1h-112z M20,33h113v1h-113z M134,32h20v2h-20z M190,32h74v2h-74z M1,32h17v3h-17z M21,34h23v1h-23z M46,34h29v1h-29z M76,34h32v1h-32z M109,34h23v1h-23z M135,34h18v1h-18z M155,31h33v4h-33z M191,34h34v1h-34z M227,34h37v1h-37z M1,35h16v1h-16z M21,35h22v1h-22z M47,35h27v1h-27z M77,35h29v1h-29z M110,35h22v1h-22z M136,35h5v1h-5z M143,35h9v1h-9z M156,35h29v1h-29z M192,35h4v1h-4z M198,35h21v1h-21z M220,35h4v1h-4z M229,35h2v1h-2z M233,35h3v1h-3z M237,35h27v1h-27z M156,36h1v1h-1z M214,36h1v1h-1z M250,36h2v1h-2z M260,36h4v1h-4z M1,36h3v2h-3z M150,37h2v1h-2z M155,37h3v1h-3z M164,37h5v1h-5z M173,37h1v1h-1z M181,37h5v1h-5z M194,37h1v1h-1z M198,37h19v1h-19z M223,37h1v1h-1z M228,37h36v1h-36z M1,38h15v1h-15z M22,38h12v1h-12z M36,38h3v1h-3z M40,38h2v1h-2z M50,38h1v1h-1z M56,38h15v1h-15z M76,38h30v1h-30z M110,38h21v1h-21z M136,38h17v1h-17z M191,38h34v1h-34z M226,38h38v1h-38z M1,39h17v1h-17z M21,39h23v1h-23z M47,39h27v1h-27z M76,39h31v1h-31z M109,39h23v1h-23z M135,39h18v1h-18z M155,38h33v2h-33z M191,39h73v1h-73z M109,40h24v1h-24z M190,40h74v1h-74z M1,40h18v2h-18z M20,40h87v2h-87z M109,41h23v1h-23z M135,40h19v2h-19z M155,40h34v2h-34z M227,41h37v1h-37z M1,42h17v1h-17z M21,42h23v1h-23z M46,42h28v1h-28z M76,42h31v1h-31z M110,42h22v1h-22z M135,42h18v1h-18z M155,42h33v1h-33z M191,41h34v2h-34z M228,42h36v1h-36z M1,43h16v1h-16z M23,43h10v1h-10z M36,43h7v1h-7z M47,43h25v1h-25z M79,43h16v1h-16z M96,43h9v1h-9z M111,43h2v1h-2z M120,43h11v1h-11z M136,43h5v1h-5z M143,43h1v1h-1z M146,43h6v1h-6z M165,43h10v1h-10z M179,43h7v1h-7z M196,43h9v1h-9z M210,43h7v1h-7z M220,43h3v1h-3z M229,43h1v1h-1z M236,43h1v1h-1z M247,43h11v1h-11z M259,43h5v1h-5z M1,44h3v1h-3z M111,44h1v1h-1z M155,43h3v2h-3z M161,43h2v2h-2z M166,44h1v1h-1z M171,44h1v1h-1z M180,44h2v1h-2z M192,43h2v2h-2z M196,44h1v1h-1z M198,44h7v1h-7z M210,44h13v1h-13z M229,44h2v1h-2z M235,44h11v1h-11z M247,44h17v1h-17z M1,45h4v1h-4z M8,45h9v1h-9z M63,45h1v1h-1z M71,45h1v1h-1z M80,45h15v1h-15z M101,45h2v1h-2z M109,45h22v1h-22z M136,45h16v1h-16z M192,45h33v1h-33z M228,45h36v1h-36z M21,46h23v1h-23z M46,46h28v1h-28z M135,46h18v1h-18z M155,45h33v2h-33z M191,46h73v1h-73z M21,47h53v1h-53z M109,46h23v2h-23z M21,48h54v1h-54z M135,47h19v2h-19z M190,47h74v2h-74z M1,46h17v4h-17z M21,49h53v1h-53z M76,46h31v4h-31z M109,48h24v2h-24z M135,49h18v1h-18z M155,47h34v3h-34z M191,49h73v1h-73z M1,50h16v1h-16z M22,50h22v1h-22z M47,50h27v1h-27z M77,50h10v1h-10z M88,50h18v1h-18z M111,50h21v1h-21z M136,50h17v1h-17z M156,50h31v1h-31z M192,50h33v1h-33z M229,50h35v1h-35z M184,51h3v1h-3z M196,51h1v1h-1z M204,51h2v1h-2z M213,51h4v1h-4z M221,51h3v1h-3z M231,51h1v1h-1z M243,51h3v1h-3z M253,51h11v1h-11z M1,51h4v2h-4z M146,52h6v1h-6z M156,52h3v1h-3z M160,52h27v1h-27z M192,52h32v1h-32z M229,52h6v1h-6z M236,52h28v1h-28z M1,53h16v1h-16z M22,53h21v1h-21z M46,53h27v1h-27z M77,53h29v1h-29z M110,53h17v1h-17z M129,53h2v1h-2z M135,53h18v1h-18z M155,53h34v1h-34z M191,53h34v1h-34z M227,53h37v1h-37z M1,54h17v1h-17z M21,54h23v1h-23z M45,54h29v1h-29z M109,54h23v1h-23z M135,54h19v1h-19z M155,54h109v1h-109z M1,55h18v1h-18z M135,55h129v1h-129z M21,55h53v2h-53z M76,54h31v3h-31z M109,55h24v2h-24z M135,56h54v1h-54z M191,56h73v1h-73z M1,56h17v2h-17z M21,57h23v1h-23z M46,57h27v1h-27z M76,57h30v1h-30z M109,57h23v1h-23z M135,57h53v1h-53z M191,57h34v1h-34z M228,57h36v1h-36z M1,58h9v1h-9z M12,58h5v1h-5z M22,58h21v1h-21z M47,58h12v1h-12z M60,58h13v1h-13z M77,58h4v1h-4z M84,58h1v1h-1z M92,58h13v1h-13z M115,58h2v1h-2z M126,58h5v1h-5z M137,58h4v1h-4z M142,58h5v1h-5z M150,58h2v1h-2z M156,58h3v1h-3z M167,58h4v1h-4z M183,58h4v1h-4z M220,58h3v1h-3z M238,58h1v1h-1z M243,58h2v1h-2z M253,58h11v1h-11z M1,59h4v1h-4z M239,59h1v1h-1z M254,59h3v1h-3z M260,59h4v1h-4z M1,60h3v1h-3z M137,60h1v1h-1z M139,60h2v1h-2z M144,60h2v1h-2z M149,60h3v1h-3z M156,60h17v1h-17z M176,60h5v1h-5z M183,60h4v1h-4z M195,60h2v1h-2z M198,60h1v1h-1z M200,60h4v1h-4z M206,60h18v1h-18z M228,60h36v1h-36z M1,61h16v1h-16z M22,61h21v1h-21z M47,61h26v1h-26z M77,61h29v1h-29z M110,61h21v1h-21z M135,61h18v1h-18z M156,61h32v1h-32z M191,61h34v1h-34z M227,61h37v1h-37z M1,62h17v1h-17z M21,62h53v1h-53z M76,62h31v1h-31z M108,62h24v1h-24z M134,62h20v1h-20z M155,62h33v1h-33z M191,62h73v1h-73z M134,63h54v1h-54z M190,63h74v1h-74z M1,63h18v2h-18z M20,63h54v2h-54z M76,63h57v2h-57z M135,64h53v1h-53z M190,64h36v1h-36z M227,64h37v1h-37z M1,65h17v1h-17z M21,65h23v1h-23z M46,65h28v1h-28z M76,65h31v1h-31z M109,65h23v1h-23z M136,65h17v1h-17z M155,65h33v1h-33z M191,65h33v1h-33z M228,65h36v1h-36z M1,66h16v1h-16z M22,66h22v1h-22z M47,66h26v1h-26z M77,66h29v1h-29z M114,66h7v1h-7z M123,66h8v1h-8z M139,66h2v1h-2z M147,66h3v1h-3z M191,66h2v2h-2z M260,66h4v2h-4z M1,67h3v2h-3z M164,68h3v1h-3z M175,68h12v1h-12z M190,68h4v1h-4z M196,68h19v1h-19z M219,68h4v1h-4z M229,68h35v1h-35z M1,69h4v1h-4z M28,69h1v1h-1z M40,69h4v1h-4z M47,69h18v1h-18z M67,69h5v1h-5z M78,69h28v1h-28z M110,69h21v1h-21z M136,69h16v1h-16z M156,69h32v1h-32z M228,69h36v1h-36z M22,70h51v1h-51z M76,70h31v1h-31z M135,70h18v1h-18z M155,70h33v1h-33z M22,71h52v1h-52z M109,70h23v2h-23z M135,71h53v1h-53z M21,72h53v1h-53z M75,71h32v2h-32z M109,72h24v1h-24z M134,72h55v1h-55z M190,69h35v4h-35z M227,70h37v3h-37z M1,70h17v4h-17z M22,73h52v1h-52z M76,73h31v1h-31z M109,73h23v1h-23z M135,73h53v1h-53z M191,73h34v1h-34z M228,73h36v1h-36z M1,74h16v1h-16z M23,74h21v1h-21z M46,74h27v1h-27z M77,74h29v1h-29z M110,74h22v1h-22z M136,74h17v1h-17z M155,74h33v1h-33z M191,74h3v1h-3z M196,74h3v1h-3z M200,74h4v1h-4z M206,74h3v1h-3z M210,74h14v1h-14z M232,74h4v1h-4z M238,74h3v1h-3z M244,74h4v1h-4z M259,74h5v1h-5z M1,75h4v1h-4z M39,75h1v1h-1z M41,75h1v1h-1z M48,75h2v1h-2z M52,75h8v1h-8z M61,75h3v1h-3z M66,75h5v1h-5z M81,75h5v1h-5z M186,75h1v1h-1z M191,75h1v1h-1z M260,75h4v1h-4z M1,76h3v1h-3z M156,75h2v2h-2z M182,76h5v1h-5z M191,76h3v1h-3z M196,76h2v1h-2z M200,76h5v1h-5z M208,76h8v1h-8z M220,76h4v1h-4z M229,76h35v1h-35z M1,77h4v1h-4z M52,77h1v1h-1z M55,77h3v1h-3z M64,77h1v1h-1z M68,77h1v1h-1z M70,77h3v1h-3z M77,77h29v1h-29z M110,77h21v1h-21z M136,77h17v1h-17z M191,77h34v1h-34z M228,77h36v1h-36z M21,78h23v1h-23z M47,78h27v1h-27z M76,78h31v1h-31z M109,78h23v1h-23z M190,78h35v1h-35z M1,78h17v2h-17z M21,79h53v2h-53z M76,79h57v2h-57z M134,78h20v3h-20z M190,79h36v2h-36z M227,78h37v3h-37z M1,80h18v2h-18z M20,81h54v1h-54z M76,81h31v1h-31z M109,81h23v1h-23z M135,81h19v1h-19z M155,77h33v5h-33z M190,81h35v1h-35z M228,81h36v1h-36z M1,82h17v1h-17z M21,82h24v1h-24z M46,82h27v1h-27z M77,82h30v1h-30z M109,82h22v1h-22z M136,82h7v1h-7z M144,82h8v1h-8z M155,82h4v1h-4z M161,82h8v1h-8z M174,82h13v1h-13z M192,82h6v1h-6z M202,82h3v1h-3z M208,82h6v1h-6z M216,82h8v1h-8z M230,82h7v1h-7z M242,82h4v1h-4z M1,83h5v1h-5z M8,83h4v1h-4z M22,83h5v1h-5z M104,83h1v1h-1z M155,83h3v1h-3z M192,83h2v1h-2z M259,82h5v2h-5z M1,84h4v1h-4z M155,84h4v1h-4z M163,84h5v1h-5z M174,84h1v1h-1z M183,84h4v1h-4z M191,84h21v1h-21z M215,84h9v1h-9z M229,84h35v1h-35z M1,85h5v1h-5z M7,85h3v1h-3z M12,85h3v1h-3z M23,85h5v1h-5z M67,85h5v1h-5z M76,85h30v1h-30z M110,85h17v1h-17z M128,85h3v1h-3z M135,85h17v1h-17z M190,85h35v1h-35z M228,85h36v1h-36z M21,86h23v1h-23z M47,86h26v1h-26z M75,86h32v1h-32z M109,86h23v1h-23z M134,86h19v1h-19z M155,85h33v2h-33z M190,86h36v1h-36z M227,86h37v1h-37z M1,86h17v2h-17z M21,87h53v1h-53z M75,87h78v1h-78z M155,87h34v1h-34z M190,87h74v1h-74z M20,88h54v1h-54z M75,88h58v1h-58z M155,88h71v1h-71z M227,88h37v1h-37z M1,88h18v2h-18z M21,89h52v1h-52z M75,89h32v1h-32z M108,89h25v1h-25z M134,88h19v2h-19z M155,89h34v1h-34z M190,89h36v1h-36z M229,89h35v1h-35z M1,90h17v1h-17z M21,90h23v1h-23z M47,90h26v1h-26z M76,90h30v1h-30z M111,90h20v1h-20z M136,90h16v1h-16z M156,90h32v1h-32z M192,90h33v1h-33z M230,90h3v1h-3z M237,90h4v1h-4z M249,90h7v1h-7z M259,90h5v1h-5z M1,91h5v1h-5z M11,91h5v1h-5z M39,91h1v1h-1z M49,91h2v1h-2z M64,91h5v1h-5z M79,91h6v1h-6z M87,91h8v1h-8z M156,91h2v1h-2z M215,91h8v1h-8z M237,91h3v1h-3z M260,91h4v1h-4z M1,92h4v1h-4z M81,92h3v1h-3z M88,92h6v1h-6z M99,91h6v2h-6z M143,92h1v1h-1z M149,92h2v1h-2z M155,92h3v1h-3z M162,92h13v1h-13z M176,92h4v1h-4z M181,92h6v1h-6z M193,92h17v1h-17z M213,92h10v1h-10z M231,92h33v1h-33z M1,93h5v1h-5z M11,93h4v1h-4z M22,93h22v1h-22z M48,93h24v1h-24z M77,93h29v1h-29z M109,93h22v1h-22z M135,93h17v1h-17z M191,93h34v1h-34z M228,93h37v1h-37z M1,94h17v1h-17z M76,94h31v1h-31z M109,94h23v1h-23z M134,94h19v1h-19z M190,94h35v1h-35z M227,94h38v1h-38z M21,94h52v2h-52z M75,95h79v1h-79z M155,93h33v3h-33z M190,95h75v1h-75z M1,95h18v2h-18z M21,96h53v1h-53z M75,96h58v1h-58z M134,96h54v1h-54z M190,96h36v1h-36z M227,96h38v1h-38z M2,97h17v1h-17z M21,97h52v1h-52z M76,97h31v1h-31z M109,97h23v1h-23z M135,97h18v1h-18z M155,97h33v1h-33z M191,97h34v1h-34z M228,97h37v1h-37z M2,98h16v1h-16z M23,98h20v1h-20z M48,98h25v1h-25z M77,98h29v1h-29z M114,98h6v1h-6z M122,98h9v1h-9z M135,98h3v1h-3z M139,98h1v1h-1z M143,98h9v1h-9z M155,98h4v1h-4z M166,98h4v1h-4z M172,98h7v1h-7z M181,98h6v1h-6z M230,98h1v1h-1z M237,98h6v1h-6z M247,98h18v1h-18z M2,99h6v1h-6z M13,99h2v1h-2z M69,99h2v1h-2z M98,99h6v1h-6z M149,99h2v1h-2z M155,99h3v1h-3z M175,99h2v1h-2z M184,99h3v1h-3z M192,98h33v2h-33z M229,99h30v1h-30z M261,99h3v1h-3z M2,100h5v1h-5z M65,100h7v1h-7z M78,100h28v1h-28z M111,100h20v1h-20z M135,100h17v1h-17z M191,100h34v1h-34z M228,100h36v1h-36z M1,101h17v1h-17z M23,101h21v1h-21z M46,101h27v1h-27z M76,101h31v1h-31z M109,101h23v1h-23z M21,102h52v2h-52z M133,101h20v3h-20z M190,101h75v3h-75z M21,104h53v1h-53z M76,102h56v3h-56z M134,104h19v1h-19z M190,104h36v1h-36z M227,104h38v1h-38z M1,102h18v4h-18z M21,105h52v1h-52z M77,105h30v1h-30z M109,105h23v1h-23z M135,105h18v1h-18z M155,100h33v6h-33z M191,105h33v1h-33z M229,105h14v1h-14z M246,105h9v1h-9z M256,105h9v1h-9z M2,106h16v1h-16z M22,106h21v1h-21z M48,106h7v1h-7z M56,106h6v1h-6z M63,106h9v1h-9z M99,106h7v1h-7z M114,106h1v1h-1z M156,106h2v1h-2z M179,106h3v1h-3z M191,106h3v1h-3z M195,106h2v1h-2z M212,106h1v1h-1z M261,106h3v1h-3z M2,107h4v1h-4z M180,107h1v1h-1z M183,106h3v2h-3z M192,107h6v1h-6z M207,107h1v1h-1z M211,107h3v1h-3z M218,107h1v1h-1z M230,107h2v1h-2z M234,107h30v1h-30z M2,108h5v1h-5z M8,108h2v1h-2z M14,108h4v1h-4z M23,108h7v1h-7z M31,108h11v1h-11z M49,108h1v1h-1z M52,108h20v1h-20z M79,108h27v1h-27z M113,108h8v1h-8z M126,108h3v1h-3z M135,108h17v1h-17z M156,108h31v1h-31z M229,108h35v1h-35z M22,109h22v1h-22z M46,109h27v1h-27z M109,109h22v1h-22z M191,108h34v2h-34z M2,109h17v2h-17z M21,110h52v1h-52z M76,109h31v2h-31z M108,110h24v1h-24z M1,111h18v1h-18z M21,111h53v1h-53z M2,112h17v1h-17z M22,112h52v1h-52z M75,111h57v2h-57z M134,109h19v4h-19z M155,109h33v4h-33z M190,110h35v3h-35z M228,109h36v4h-36z M2,113h16v1h-16z M22,113h22v1h-22z M47,113h26v1h-26z M76,113h31v1h-31z M109,113h23v1h-23z M135,113h18v1h-18z M155,113h32v1h-32z M191,113h32v1h-32z M239,113h2v1h-2z M244,113h13v1h-13z M259,113h5v1h-5z M2,114h7v1h-7z M10,114h4v1h-4z M15,114h1v1h-1z M27,114h3v1h-3z M34,114h2v1h-2z M40,114h4v1h-4z M49,114h7v1h-7z M60,114h9v1h-9z M79,114h4v1h-4z M89,114h5v1h-5z M115,114h4v1h-4z M129,114h1v1h-1z M145,114h1v1h-1z M182,114h1v1h-1z M191,114h3v1h-3z M203,114h3v1h-3z M260,114h4v1h-4z M2,115h4v1h-4z M141,114h2v2h-2z M155,114h4v2h-4z M181,115h2v1h-2z M184,114h2v2h-2z M192,115h4v1h-4z M197,115h2v1h-2z M202,115h9v1h-9z M214,115h3v1h-3z M219,115h2v1h-2z M238,115h4v1h-4z M248,115h1v1h-1z M250,115h14v1h-14z M2,116h16v1h-16z M22,116h22v1h-22z M49,116h24v1h-24z M76,116h30v1h-30z M110,116h21v1h-21z M135,116h17v1h-17z M155,116h32v1h-32z M191,116h34v1h-34z M228,116h36v1h-36z M76,117h31v1h-31z M108,117h24v1h-24z M2,117h17v2h-17z M133,117h55v2h-55z M227,117h37v2h-37z M2,119h18v1h-18z M21,117h53v3h-53z M75,118h57v2h-57z M133,119h21v1h-21z M21,120h52v1h-52z M76,120h56v1h-56z M134,120h19v1h-19z M155,119h33v2h-33z M190,117h36v4h-36z M228,119h36v2h-36z M2,120h17v2h-17z M22,121h22v1h-22z M47,121h26v1h-26z M77,121h29v1h-29z M109,121h23v1h-23z M135,121h17v1h-17z M156,121h32v1h-32z M190,121h35v1h-35z M230,121h1v1h-1z M232,121h7v1h-7z M248,121h16v1h-16z M2,122h5v1h-5z M49,122h1v1h-1z M184,122h2v1h-2z M191,122h2v1h-2z M260,122h5v1h-5z M2,123h4v1h-4z M87,123h3v1h-3z M167,123h3v1h-3z M173,123h2v1h-2z M180,123h2v1h-2z M183,123h3v1h-3z M191,123h3v1h-3z M196,123h2v1h-2z M199,123h5v1h-5z M206,123h1v1h-1z M212,123h1v1h-1z M215,123h2v1h-2z M220,123h1v1h-1z M231,123h34v1h-34z M23,124h20v1h-20z M47,124h26v1h-26z M77,124h29v1h-29z M110,124h20v1h-20z M135,124h18v1h-18z M155,124h32v1h-32z M191,124h34v1h-34z M228,124h37v1h-37z M2,124h17v2h-17z M22,125h23v1h-23z M47,125h27v1h-27z M135,125h19v1h-19z M227,125h38v1h-38z M2,126h18v1h-18z M21,126h53v1h-53z M76,125h56v2h-56z M134,126h20v1h-20z M227,126h37v1h-37z M22,127h52v1h-52z M76,127h78v1h-78z M155,125h33v3h-33z M190,125h36v3h-36z M227,127h38v1h-38z M2,127h17v2h-17z M23,128h23v1h-23z M47,128h26v1h-26z M77,128h31v1h-31z M109,128h23v1h-23z M134,128h19v1h-19z M156,128h32v1h-32z M191,128h35v1h-35z M228,128h37v1h-37z M2,129h11v1h-11z M15,129h3v1h-3z M26,129h18v1h-18z M48,129h24v1h-24z M77,129h29v1h-29z M111,129h20v1h-20z M135,129h18v1h-18z M156,129h2v1h-2z M159,129h27v1h-27z M229,129h36v1h-36z M79,130h8v1h-8z M100,130h5v1h-5z M121,130h3v1h-3z M128,130h2v1h-2z M139,130h9v1h-9z M149,130h2v1h-2z M164,130h1v1h-1z M167,130h5v1h-5z M177,130h1v1h-1z M179,130h1v1h-1z M184,130h2v1h-2z M193,129h33v2h-33z M230,130h35v1h-35z M2,130h4v2h-4z M41,131h1v1h-1z M51,131h3v1h-3z M60,131h12v1h-12z M77,131h29v1h-29z M112,131h20v1h-20z M136,131h17v1h-17z M157,131h30v1h-30z M190,131h37v1h-37z M228,131h37v1h-37z M2,132h17v1h-17z M23,132h23v1h-23z M47,132h27v1h-27z M76,132h32v1h-32z M109,132h79v1h-79z M190,132h75v1h-75z M2,133h263v1h-263z M2,134h262v1h-262z M3,135h185v1h-185z M190,135h74v1h-74z M6,136h2v1h-2z M44,136h4v1h-4z M62,136h1v1h-1z M72,136h2v1h-2z M131,136h1v1h-1z M136,136h2v1h-2z M140,136h2v1h-2z M151,136h1v1h-1z M158,136h1v1h-1z M170,136h2v1h-2z M180,136h3v1h-3z M262,136h1v1h-1z
  "/>
</svg>