<?xml version="1.0" encoding="UTF-8"?>
<svg xmlns="http://www.w3.org/2000/svg" viewBox="0 0 268 139" width="268" height="139">
  <title>06 Loess</title>
  <path fill="#111111" fill-rule="nonzero" d="
    M125,0h2v1h-2z M149,0h2v1h-2z M174,0h9v1h-9z M189,0h6v1h-6z M199,0h68v1h-68z M4,1h40v1h-40z M48,1h219v1h-219z M1,2h267v2h-267z M0,4h212v1h-212z M213,4h33v1h-33z M247,4h8v1h-8z M0,5h77v1h-77z M83,5h4v1h-4z M88,5h4v1h-4z M108,5h9v1h-9z M123,5h4v1h-4z M129,5h1v1h-1z M136,5h2v1h-2z M189,5h6v1h-6z M210,5h1v1h-1z M252,5h1v1h-1z M153,5h3v2h-3z M209,6h3v1h-3z M251,6h3v1h-3z M95,7h1v1h-1z M111,6h5v2h-5z M152,7h4v1h-4z M191,6h4v2h-4z M263,4h5v4h-5z M94,8h2v1h-2z M251,7h4v2h-4z M93,9h3v1h-3z M137,9h1v1h-1z M191,8h5v2h-5z M209,7h4v3h-4z M93,10h4v1h-4z M192,10h5v1h-5z M224,5h5v6h-5z M252,9h3v2h-3z M264,8h4v3h-4z M112,8h5v4h-5z M152,8h5v4h-5z M92,11h5v2h-5z M112,12h4v1h-4z M192,11h4v2h-4z M209,10h5v3h-5z M236,11h4v2h-4z M52,13h2v1h-2z M92,13h4v1h-4z M111,13h5v1h-5z M174,13h1v1h-1z M191,13h5v1h-5z M236,13h5v1h-5z M20,14h1v1h-1z M51,14h3v1h-3z M91,14h5v1h-5z M135,10h4v5h-4z M173,14h3v1h-3z M209,13h4v2h-4z M252,11h4v4h-4z M0,6h5v10h-5z M172,15h5v1h-5z M208,15h5v1h-5z M19,15h3v2h-3z M91,15h4v2h-4z M134,15h5v2h-5z M191,14h4v3h-4z M225,11h4v6h-4z M237,14h4v3h-4z M0,16h4v2h-4z M19,17h4v1h-4z M69,6h4v12h-4z M91,17h5v1h-5z M111,14h4v4h-4z M152,12h4v6h-4z M225,17h3v1h-3z M237,17h5v1h-5z M18,18h5v1h-5z M70,18h3v1h-3z M152,18h5v1h-5z M190,17h5v2h-5z M238,18h5v1h-5z M70,19h4v1h-4z M111,18h5v2h-5z M208,16h4v4h-4z M239,19h4v1h-4z M18,19h4v2h-4z M32,10h4v11h-4z M134,17h4v4h-4z M32,21h5v1h-5z M70,20h3v2h-3z M112,20h4v2h-4z M239,20h3v2h-3z M51,15h4v8h-4z M70,22h2v1h-2z M191,19h4v4h-4z M17,21h5v3h-5z M33,22h4v2h-4z M51,23h5v1h-5z M191,23h5v1h-5z M208,20h5v4h-5z M238,22h4v2h-4z M34,24h2v1h-2z M113,22h3v3h-3z M134,21h5v4h-5z M153,19h4v6h-4z M192,24h4v1h-4z M209,24h4v1h-4z M238,24h3v1h-3z M18,24h4v2h-4z M210,25h2v1h-2z M224,18h4v8h-4z M51,24h4v3h-4z M73,26h1v1h-1z M92,18h4v9h-4z M225,26h2v1h-2z M237,25h4v2h-4z M18,26h5v2h-5z M239,27h1v1h-1z M51,27h3v2h-3z M112,25h4v4h-4z M134,25h4v4h-4z M0,18h5v12h-5z M71,27h4v3h-4z M91,27h4v3h-4z M152,25h4v5h-4z M34,30h3v1h-3z M71,30h5v1h-5z M111,29h5v2h-5z M152,30h3v1h-3z M191,25h4v6h-4z M209,30h2v1h-2z M192,31h3v1h-3z M208,31h3v1h-3z M0,30h4v3h-4z M18,28h4v5h-4z M111,31h4v2h-4z M133,29h5v4h-5z M173,16h4v17h-4z M225,32h2v1h-2z M18,33h3v1h-3z M33,31h4v3h-4z M71,31h4v3h-4z M113,33h2v1h-2z M134,33h5v1h-5z M175,33h1v1h-1z M193,32h3v2h-3z M207,32h5v2h-5z M263,11h5v23h-5z M19,34h2v1h-2z M34,34h3v1h-3z M70,34h4v1h-4z M134,34h6v1h-6z M208,34h4v1h-4z M251,15h4v20h-4z M208,35h5v1h-5z M252,35h3v1h-3z M264,34h4v2h-4z M51,35h3v2h-3z M92,36h1v1h-1z M135,35h5v2h-5z M192,34h5v3h-5z M224,33h4v4h-4z M238,35h2v2h-2z M253,36h2v1h-2z M33,35h4v3h-4z M69,35h5v3h-5z M92,37h2v1h-2z M113,37h2v1h-2z M151,31h4v7h-4z M173,37h3v1h-3z M191,37h5v1h-5z M225,37h3v1h-3z M0,33h5v6h-5z M34,38h3v1h-3z M112,38h4v1h-4z M135,37h4v2h-4z M172,38h4v1h-4z M238,37h3v2h-3z M50,37h4v3h-4z M0,39h4v2h-4z M18,40h3v1h-3z M69,38h4v3h-4z M171,39h5v2h-5z M238,39h4v2h-4z M18,41h4v1h-4z M69,41h5v1h-5z M112,39h5v3h-5z M134,39h5v3h-5z M209,36h4v6h-4z M225,38h4v4h-4z M69,42h6v1h-6z M112,42h4v1h-4z M134,42h4v1h-4z M153,42h2v1h-2z M238,41h3v2h-3z M263,36h5v7h-5z M17,42h5v2h-5z M51,40h4v4h-4z M135,43h3v1h-3z M152,43h3v1h-3z M208,42h5v2h-5z M238,43h4v1h-4z M253,43h3v1h-3z M51,44h5v1h-5z M111,43h5v2h-5z M135,44h2v1h-2z M171,41h4v4h-4z M224,42h4v3h-4z M0,41h5v5h-5z M52,45h4v1h-4z M70,43h5v3h-5z M91,38h4v8h-4z M135,45h1v1h-1z M172,45h3v1h-3z M224,45h5v1h-5z M17,44h4v3h-4z M34,39h4v8h-4z M71,46h3v1h-3z M191,38h4v9h-4z M208,44h4v3h-4z M1,46h4v2h-4z M17,47h3v1h-3z M90,46h4v2h-4z M152,44h4v4h-4z M172,46h4v2h-4z M192,47h4v1h-4z M208,47h3v1h-3z M252,44h4v4h-4z M264,43h4v5h-4z M33,47h4v2h-4z M52,46h5v3h-5z M112,45h4v4h-4z M152,48h5v1h-5z M172,48h5v1h-5z M252,48h3v1h-3z M90,48h5v2h-5z M112,49h5v1h-5z M225,46h4v4h-4z M239,44h3v6h-3z M52,49h4v2h-4z M72,50h2v1h-2z M173,49h4v2h-4z M192,48h3v3h-3z M251,49h4v2h-4z M17,48h4v4h-4z M51,51h5v1h-5z M72,51h3v1h-3z M91,50h4v2h-4z M113,50h4v2h-4z M172,51h5v1h-5z M238,50h4v2h-4z M92,52h3v1h-3z M173,52h4v1h-4z M0,48h5v6h-5z M91,53h4v1h-4z M135,52h3v2h-3z M192,53h2v1h-2z M208,48h4v6h-4z M252,51h4v3h-4z M1,54h4v1h-4z M208,54h3v1h-3z M17,52h5v4h-5z M71,52h4v4h-4z M153,49h4v7h-4z M172,53h4v3h-4z M0,55h5v2h-5z M16,56h5v1h-5z M112,52h4v5h-4z M134,54h4v3h-4z M192,54h3v3h-3z M1,57h4v1h-4z M16,57h4v1h-4z M32,49h4v9h-4z M224,50h4v8h-4z M237,52h4v6h-4z M253,54h3v4h-3z M16,58h3v1h-3z M33,58h2v1h-2z M51,52h4v7h-4z M92,54h3v5h-3z M152,56h4v3h-4z M191,57h5v2h-5z M225,58h3v1h-3z M237,58h5v1h-5z M253,58h2v1h-2z M111,57h5v3h-5z M173,56h3v4h-3z M192,59h4v1h-4z M226,59h1v1h-1z M172,60h4v1h-4z M191,60h5v1h-5z M209,59h3v2h-3z M252,59h4v2h-4z M71,56h3v6h-3z M134,57h5v5h-5z M208,61h5v1h-5z M253,61h2v1h-2z M15,59h4v4h-4z M112,60h4v3h-4z M151,59h5v4h-5z M237,59h4v4h-4z M16,63h2v1h-2z M50,59h4v5h-4z M91,59h4v5h-4z M113,63h3v1h-3z M134,62h4v2h-4z M151,63h4v1h-4z M208,62h4v2h-4z M237,63h3v1h-3z M51,64h2v1h-2z M71,62h4v3h-4z M113,64h2v1h-2z M173,61h3v4h-3z M239,64h1v1h-1z M72,65h2v1h-2z M92,64h3v2h-3z M152,64h3v2h-3z M226,65h1v1h-1z M0,58h5v9h-5z M153,66h1v1h-1z M209,64h3v3h-3z M0,67h4v1h-4z M16,67h3v1h-3z M93,66h1v2h-1z M97,67h1v1h-1z M125,67h3v1h-3z M153,67h2v1h-2z M191,61h4v7h-4z M210,67h2v1h-2z M239,67h2v1h-2z M244,67h5v1h-5z M263,48h5v20h-5z M0,68h5v1h-5z M12,68h15v1h-15z M76,68h27v1h-27z M111,68h3v1h-3z M122,68h14v1h-14z M137,68h1v1h-1z M149,68h20v1h-20z M171,68h5v1h-5z M188,68h8v1h-8z M205,68h2v1h-2z M208,68h17v1h-17z M236,68h18v1h-18z M256,68h3v1h-3z M262,68h6v1h-6z M0,69h52v1h-52z M58,69h5v1h-5z M72,69h43v1h-43z M120,69h21v1h-21z M185,69h43v1h-43z M148,69h30v2h-30z M185,70h46v1h-46z M236,69h32v2h-32z M0,70h54v2h-54z M56,70h10v2h-10z M70,70h45v2h-45z M121,70h20v2h-20z M149,71h28v1h-28z M186,71h45v1h-45z M236,71h10v1h-10z M248,71h20v1h-20z M0,72h13v1h-13z M22,72h31v1h-31z M56,72h7v1h-7z M71,72h4v1h-4z M76,72h3v1h-3z M85,72h8v1h-8z M100,72h14v1h-14z M130,72h4v1h-4z M135,72h5v1h-5z M169,72h1v1h-1z M171,72h2v1h-2z M187,72h3v1h-3z M195,72h24v1h-24z M221,72h10v1h-10z M251,72h9v1h-9z M262,72h5v1h-5z M7,73h1v1h-1z M27,73h12v1h-12z M45,73h3v1h-3z M79,73h1v1h-1z M105,73h4v1h-4z M199,73h2v1h-2z M226,73h1v1h-1z M60,74h1v1h-1z M79,74h2v1h-2z M136,74h1v1h-1z M159,74h3v1h-3z M230,73h1v2h-1z M137,75h2v1h-2z M158,75h3v1h-3z M180,75h3v1h-3z M231,75h3v1h-3z M264,73h4v3h-4z M38,76h1v1h-1z M58,75h3v2h-3z M100,76h1v1h-1z M116,75h3v2h-3z M179,76h4v1h-4z M215,73h4v4h-4z M248,76h2v1h-2z M19,77h1v1h-1z M37,77h3v1h-3z M58,77h4v1h-4z M100,77h2v1h-2z M116,77h4v1h-4z M263,76h5v2h-5z M18,78h3v1h-3z M37,78h4v1h-4z M77,75h5v4h-5z M158,76h4v3h-4z M17,79h4v1h-4z M57,78h5v2h-5z M159,79h3v1h-3z M180,77h3v3h-3z M214,77h5v3h-5z M247,77h4v3h-4z M16,80h5v1h-5z M36,79h4v2h-4z M57,80h4v1h-4z M116,78h5v3h-5z M214,80h4v1h-4z M56,81h5v1h-5z M77,79h4v3h-4z M247,80h3v2h-3z M264,78h4v4h-4z M56,82h4v1h-4z M99,78h4v5h-4z M116,81h4v2h-4z M136,76h4v7h-4z M179,80h4v3h-4z M196,81h3v2h-3z M263,82h5v1h-5z M16,81h4v3h-4z M56,83h5v1h-5z M76,82h5v2h-5z M116,83h3v1h-3z M137,83h4v1h-4z M213,81h5v3h-5z M15,84h5v1h-5z M35,81h4v4h-4z M98,83h4v2h-4z M115,84h4v1h-4z M159,80h4v5h-4z M35,85h5v1h-5z M56,84h4v2h-4z M116,85h3v1h-3z M136,84h5v2h-5z M158,85h5v1h-5z M214,84h4v2h-4z M247,82h4v4h-4z M36,86h5v1h-5z M57,86h3v1h-3z M248,86h3v1h-3z M16,85h4v3h-4z M37,87h4v1h-4z M56,87h4v1h-4z M97,85h5v3h-5z M115,86h4v2h-4z M16,88h5v1h-5z M38,88h3v1h-3z M56,88h5v1h-5z M116,88h3v1h-3z M136,86h4v3h-4z M158,86h4v3h-4z M264,83h4v6h-4z M37,89h4v1h-4z M158,89h3v1h-3z M263,89h5v1h-5z M37,90h3v1h-3z M77,84h4v7h-4z M98,88h4v3h-4z M116,89h2v2h-2z M135,89h5v2h-5z M196,83h4v8h-4z M0,73h5v19h-5z M16,89h4v3h-4z M37,91h4v1h-4z M78,91h2v1h-2z M15,92h5v1h-5z M36,92h5v1h-5z M116,92h2v1h-2z M157,90h5v3h-5z M195,91h5v2h-5z M215,86h4v7h-4z M264,90h4v3h-4z M115,93h3v1h-3z M158,93h3v1h-3z M248,87h4v7h-4z M159,94h1v1h-1z M215,93h3v2h-3z M15,93h4v3h-4z M57,89h4v7h-4z M99,91h4v5h-4z M216,95h2v1h-2z M248,94h3v2h-3z M58,96h3v1h-3z M115,94h4v3h-4z M1,92h4v6h-4z M36,93h4v5h-4z M135,91h4v7h-4z M230,76h4v22h-4z M37,98h3v1h-3z M100,96h3v3h-3z M115,97h5v2h-5z M134,98h4v1h-4z M178,83h4v16h-4z M196,93h4v6h-4z M216,98h1v1h-1z M15,96h3v4h-3z M75,99h2v1h-2z M116,99h4v1h-4z M135,99h2v1h-2z M179,99h2v1h-2z M263,93h5v7h-5z M17,100h1v1h-1z M75,100h4v1h-4z M115,100h5v1h-5z M179,100h1v1h-1z M195,99h5v2h-5z M215,99h3v2h-3z M230,98h3v3h-3z M264,100h4v2h-4z M116,101h4v2h-4z M195,101h4v2h-4z M58,102h3v2h-3z M115,103h5v1h-5z M247,103h2v1h-2z M74,101h5v4h-5z M159,99h4v6h-4z M194,103h5v2h-5z M246,104h3v1h-3z M57,104h5v2h-5z M115,104h4v2h-4z M0,98h5v9h-5z M16,106h2v1h-2z M114,106h5v1h-5z M157,105h5v2h-5z M179,106h2v1h-2z M214,101h4v6h-4z M230,101h4v6h-4z M246,105h4v2h-4z M16,107h3v1h-3z M35,103h4v5h-4z M56,106h5v2h-5z M115,107h4v1h-4z M158,107h4v1h-4z M1,107h4v2h-4z M15,108h4v1h-4z M56,108h4v1h-4z M230,107h5v2h-5z M245,107h5v2h-5z M36,108h3v2h-3z M75,105h4v5h-4z M137,109h3v1h-3z M157,108h4v2h-4z M246,109h4v1h-4z M263,102h5v8h-5z M15,109h5v2h-5z M136,110h4v1h-4z M157,110h5v1h-5z M231,109h4v2h-4z M246,110h5v1h-5z M55,109h5v3h-5z M114,108h5v4h-5z M213,107h5v5h-5z M231,111h3v1h-3z M16,111h3v2h-3z M56,112h4v1h-4z M158,111h4v2h-4z M232,112h2v1h-2z M246,111h4v2h-4z M36,110h4v4h-4z M56,113h5v1h-5z M76,110h3v4h-3z M115,112h4v2h-4z M158,113h5v1h-5z M214,112h4v2h-4z M116,114h3v1h-3z M159,114h4v1h-4z M195,105h4v10h-4z M215,114h3v1h-3z M264,110h4v5h-4z M16,113h4v3h-4z M36,114h5v2h-5z M116,115h4v1h-4z M195,115h3v1h-3z M247,113h3v3h-3z M263,115h5v1h-5z M57,114h4v3h-4z M99,112h4v5h-4z M116,116h3v1h-3z M137,111h4v6h-4z M158,115h5v2h-5z M195,116h2v1h-2z M215,115h4v2h-4z M247,116h2v1h-2z M15,116h5v2h-5z M56,117h5v1h-5z M214,117h5v1h-5z M0,109h5v10h-5z M36,116h4v3h-4z M98,117h5v2h-5z M158,117h4v2h-4z M214,118h4v1h-4z M231,118h2v1h-2z M1,119h4v1h-4z M15,118h4v2h-4z M35,119h5v1h-5z M56,118h4v2h-4z M158,119h3v1h-3z M213,119h5v1h-5z M230,119h4v1h-4z M55,120h5v1h-5z M75,114h4v7h-4z M115,117h4v4h-4z M136,117h4v4h-4z M159,120h2v1h-2z M230,120h5v1h-5z M74,121h4v1h-4z M98,119h4v3h-4z M116,121h2v1h-2z M178,107h4v15h-4z M214,120h4v2h-4z M230,121h4v1h-4z M14,120h5v3h-5z M35,120h4v3h-4z M98,122h5v1h-5z M136,121h5v2h-5z M177,122h5v1h-5z M195,122h2v1h-2z M215,122h2v1h-2z M229,122h5v1h-5z M34,123h5v1h-5z M75,122h3v2h-3z M99,123h4v1h-4z M158,123h3v1h-3z M246,123h1v1h-1z M35,124h4v1h-4z M75,124h4v1h-4z M177,123h4v2h-4z M245,124h3v1h-3z M74,125h5v1h-5z M99,124h3v2h-3z M158,124h4v2h-4z M214,125h2v1h-2z M15,123h4v4h-4z M35,125h5v2h-5z M75,126h4v1h-4z M136,123h4v4h-4z M213,126h4v1h-4z M245,125h4v2h-4z M264,116h4v11h-4z M16,127h2v1h-2z M36,127h4v1h-4z M75,127h3v1h-3z M115,127h3v1h-3z M135,127h5v1h-5z M157,126h5v2h-5z M229,123h4v5h-4z M36,128h3v1h-3z M99,126h4v3h-4z M136,128h4v1h-4z M177,125h5v4h-5z M213,127h5v2h-5z M37,129h1v1h-1z M99,129h3v1h-3z M214,129h3v1h-3z M100,130h1v1h-1z M136,129h3v2h-3z M157,128h4v3h-4z M177,129h4v2h-4z M229,128h3v3h-3z M244,127h5v4h-5z M56,121h4v11h-4z M137,131h2v1h-2z M177,131h5v1h-5z M55,132h5v1h-5z M74,132h2v1h-2z M157,131h5v2h-5z M177,132h4v1h-4z M194,123h4v10h-4z M245,131h3v2h-3z M263,127h5v6h-5z M0,120h5v14h-5z M55,133h6v1h-6z M65,133h3v1h-3z M73,133h5v1h-5z M87,133h3v1h-3z M112,133h1v1h-1z M115,128h4v6h-4z M120,133h1v1h-1z M122,133h5v1h-5z M132,133h3v1h-3z M136,133h3v1h-3z M145,133h4v1h-4z M151,133h1v1h-1z M156,133h9v1h-9z M167,133h35v1h-35z M204,133h63v1h-63z M1,134h267v1h-267z M0,135h267v1h-267z M1,136h265v1h-265z M2,137h155v1h-155z M158,137h2v1h-2z M161,137h68v1h-68z M237,137h10v1h-10z M43,138h1v1h-1z M54,138h3v1h-3z M73,138h2v1h-2z M82,138h5v1h-5z M113,138h3v1h-3z M118,138h1v1h-1z
  "/>
</svg>