<?xml version="1.0" encoding="UTF-8"?>
<svg xmlns="http://www.w3.org/2000/svg" viewBox="0 0 267 137" width="267" height="137">
  <title>75 Blank</title>
  <path fill="#111111" fill-rule="nonzero" d="
    M2,0h2v1h-2z M5,0h1v1h-1z M200,0h1v1h-1z M1,1h52v1h-52z M54,1h43v1h-43z M98,1h43v1h-43z M146,1h2v1h-2z M153,1h88v1h-88z M256,1h4v1h-4z M261,1h1v1h-1z M0,2h265v1h-265z M0,3h266v2h-266z M1,5h129v1h-129z M131,5h67v1h-67z M200,5h66v1h-66z M254,6h2v1h-2z M258,6h8v1h-8z M261,7h5v1h-5z M262,8h4v1h-4z M261,9h5v5h-5z M1,6h5v26h-5z M1,32h4v7h-4z M1,39h5v6h-5z M1,45h4v10h-4z M1,55h5v4h-5z M262,14h4v52h-4z M1,59h4v9h-4z M1,68h5v1h-5z M263,66h3v3h-3z M1,69h4v1h-4z M262,69h4v1h-4z M1,70h5v1h-5z M263,70h3v3h-3z M263,73h4v2h-4z M262,75h5v2h-5z M263,77h4v1h-4z M262,78h5v2h-5z M263,80h4v1h-4z M263,81h3v2h-3z M1,71h4v14h-4z M263,83h4v4h-4z M263,87h3v2h-3z M263,89h4v2h-4z M262,91h5v1h-5z M263,92h4v4h-4z M1,85h5v13h-5z M262,96h5v3h-5z M1,98h4v5h-4z M1,103h5v5h-5z M1,108h4v2h-4z M1,110h5v7h-5z M1,117h4v3h-4z M1,120h5v3h-5z M1,123h4v5h-4z M1,128h5v4h-5z M263,99h4v33h-4z M1,132h29v1h-29z M33,132h11v1h-11z M48,132h124v1h-124z M175,132h20v1h-20z M196,132h45v1h-45z M243,132h8v1h-8z M256,132h11v1h-11z M1,133h266v2h-266z M2,135h264v1h-264z M4,136h7v1h-7z M17,136h2v1h-2z M28,136h2v1h-2z M34,136h3v1h-3z M38,136h1v1h-1z M93,136h1v1h-1z M167,136h3v1h-3z M192,136h3v1h-3z M251,136h7v1h-7z M260,136h6v1h-6z
  "/>
</svg>