<?xml version="1.0" encoding="UTF-8"?>
<svg xmlns="http://www.w3.org/2000/svg" viewBox="0 0 254 141" width="254" height="141">
  <title>30 Fire clay or flint clay</title>
  <path fill="#111111" fill-rule="nonzero" d="
    M195,1h3v1h-3z M200,1h3v1h-3z M209,1h42v1h-42z M3,2h4v1h-4z M11,2h1v1h-1z M160,2h92v1h-92z M1,3h23v1h-23z M125,3h128v1h-128z M1,4h40v1h-40z M42,4h8v1h-8z M96,4h157v1h-157z M1,5h63v1h-63z M69,5h120v1h-120z M190,5h11v1h-11z M204,5h3v1h-3z M211,5h1v1h-1z M9,6h139v1h-139z M22,7h1v1h-1z M27,7h2v1h-2z M34,7h6v1h-6z M41,7h79v1h-79z M44,8h44v1h-44z M97,8h3v1h-3z M249,5h4v4h-4z M62,9h2v1h-2z M247,9h6v1h-6z M197,10h25v1h-25z M1,6h4v6h-4z M12,11h5v1h-5z M160,11h25v1h-25z M100,12h4v1h-4z M108,12h2v1h-2z M120,12h28v1h-28z M159,12h27v1h-27z M196,11h26v2h-26z M232,10h21v3h-21z M10,12h24v2h-24z M45,13h9v1h-9z M56,13h3v1h-3z M83,13h28v1h-28z M119,13h30v1h-30z M159,13h26v1h-26z M196,13h25v1h-25z M234,13h12v1h-12z M247,13h6v1h-6z M1,12h3v3h-3z M11,14h23v1h-23z M45,14h25v1h-25z M82,14h29v1h-29z M113,14h2v1h-2z M118,14h30v1h-30z M160,14h10v1h-10z M173,14h11v1h-11z M200,14h1v1h-1z M248,14h5v1h-5z M16,15h18v1h-18z M45,15h26v1h-26z M81,15h29v1h-29z M112,15h3v1h-3z M118,15h21v1h-21z M215,14h3v2h-3z M31,16h1v1h-1z M45,16h27v1h-27z M81,16h28v1h-28z M111,16h4v1h-4z M117,16h11v1h-11z M214,16h4v1h-4z M220,16h2v1h-2z M52,17h20v1h-20z M82,17h2v1h-2z M85,17h6v1h-6z M92,17h10v1h-10z M104,17h4v1h-4z M117,17h4v1h-4z M123,17h4v1h-4z M207,17h1v1h-1z M213,17h5v1h-5z M219,17h4v1h-4z M1,15h4v4h-4z M92,18h4v1h-4z M104,18h3v1h-3z M110,17h4v2h-4z M116,18h4v1h-4z M123,18h3v1h-3z M188,18h3v1h-3z M192,18h4v1h-4z M198,18h10v1h-10z M213,18h31v1h-31z M1,19h5v1h-5z M86,18h4v2h-4z M91,19h4v1h-4z M98,18h3v2h-3z M103,19h4v1h-4z M109,19h5v1h-5z M115,19h5v1h-5z M122,19h5v1h-5z M156,19h11v1h-11z M179,19h30v1h-30z M212,19h33v1h-33z M25,20h6v1h-6z M85,20h10v1h-10z M97,20h4v1h-4z M103,20h27v1h-27z M178,20h31v1h-31z M211,20h5v1h-5z M217,20h27v1h-27z M24,21h23v1h-23z M48,21h5v1h-5z M85,21h9v1h-9z M97,21h3v1h-3z M141,20h27v2h-27z M178,21h30v1h-30z M211,21h32v1h-32z M1,20h14v3h-14z M24,22h30v1h-30z M66,22h28v1h-28z M102,21h30v2h-30z M141,22h26v1h-26z M179,22h2v1h-2z M189,22h5v1h-5z M196,22h12v1h-12z M210,22h5v1h-5z M216,22h5v1h-5z M1,23h5v1h-5z M8,23h6v1h-6z M25,23h29v1h-29z M96,22h3v2h-3z M102,23h28v1h-28z M189,23h4v1h-4z M196,23h4v1h-4z M203,23h4v1h-4z M210,23h4v1h-4z M216,23h4v1h-4z M223,22h1v2h-1z M29,24h3v1h-3z M33,24h21v1h-21z M65,23h28v2h-28z M95,24h4v1h-4z M100,24h18v1h-18z M119,24h3v1h-3z M183,22h4v3h-4z M196,24h3v1h-3z M202,24h5v1h-5z M209,24h4v1h-4z M222,24h3v1h-3z M37,25h3v1h-3z M43,25h4v1h-4z M50,25h3v1h-3z M65,25h27v1h-27z M94,25h4v1h-4z M105,25h5v1h-5z M183,25h3v1h-3z M195,25h3v1h-3z M202,25h4v1h-4z M208,25h5v1h-5z M214,24h5v2h-5z M221,25h5v1h-5z M29,26h3v1h-3z M37,26h2v1h-2z M43,26h3v1h-3z M84,26h1v1h-1z M87,26h5v1h-5z M94,26h3v1h-3z M100,25h4v2h-4z M106,26h4v1h-4z M182,26h4v1h-4z M188,24h4v3h-4z M194,26h5v1h-5z M200,26h18v1h-18z M221,26h22v1h-22z M28,27h4v1h-4z M36,27h4v1h-4z M42,27h4v1h-4z M93,27h4v1h-4z M112,25h4v3h-4z M173,27h3v1h-3z M181,27h4v1h-4z M187,27h31v1h-31z M14,28h4v1h-4z M19,28h5v1h-5z M25,28h7v1h-7z M35,28h5v1h-5z M41,28h4v1h-4z M48,28h1v1h-1z M87,27h4v2h-4z M93,28h3v1h-3z M99,27h4v2h-4z M105,27h4v2h-4z M111,28h4v1h-4z M127,28h1v1h-1z M138,28h2v1h-2z M154,28h24v1h-24z M186,28h25v1h-25z M212,28h4v1h-4z M219,27h25v2h-25z M13,29h20v1h-20z M34,29h5v1h-5z M40,29h5v1h-5z M47,29h5v1h-5z M53,29h1v1h-1z M59,29h2v1h-2z M86,29h17v1h-17z M104,29h4v1h-4z M111,29h3v1h-3z M153,29h25v1h-25z M180,28h4v2h-4z M186,29h30v1h-30z M219,29h24v1h-24z M13,30h24v1h-24z M40,30h4v1h-4z M46,30h18v1h-18z M83,30h25v1h-25z M110,30h4v1h-4z M118,29h23v2h-23z M153,30h23v1h-23z M179,30h5v1h-5z M185,30h30v1h-30z M219,30h4v1h-4z M14,31h23v1h-23z M39,31h5v1h-5z M46,31h23v1h-23z M82,31h25v1h-25z M109,31h5v1h-5z M118,31h22v1h-22z M180,31h3v1h-3z M185,31h4v1h-4z M198,31h5v1h-5z M218,31h4v1h-4z M19,32h17v1h-17z M38,32h5v1h-5z M45,32h25v1h-25z M109,32h4v1h-4z M180,32h2v1h-2z M184,32h4v1h-4z M191,31h5v2h-5z M205,31h9v2h-9z M19,33h4v1h-4z M24,33h5v1h-5z M31,33h5v1h-5z M38,33h4v1h-4z M45,33h24v1h-24z M82,32h24v2h-24z M191,33h4v1h-4z M218,32h3v2h-3z M249,15h4v19h-4z M18,34h5v1h-5z M24,34h4v1h-4z M31,34h4v1h-4z M37,34h5v1h-5z M44,34h4v1h-4z M51,34h9v1h-9z M62,34h2v1h-2z M90,34h3v1h-3z M97,34h2v1h-2z M184,33h3v2h-3z M190,34h3v1h-3z M198,32h4v3h-4z M205,33h3v2h-3z M209,33h4v2h-4z M217,34h4v1h-4z M248,34h5v1h-5z M18,35h10v1h-10z M30,35h5v1h-5z M37,35h4v1h-4z M43,35h5v1h-5z M50,35h9v1h-9z M102,34h3v2h-3z M109,33h3v3h-3z M178,35h8v1h-8z M191,35h1v1h-1z M237,35h16v1h-16z M1,24h4v13h-4z M18,36h3v1h-3z M22,36h5v1h-5z M30,36h4v1h-4z M36,36h4v1h-4z M43,36h4v1h-4z M166,36h20v1h-20z M236,36h17v1h-17z M18,37h2v1h-2z M22,37h18v1h-18z M42,37h4v1h-4z M49,36h9v2h-9z M103,36h1v2h-1z M123,37h1v1h-1z M127,37h21v1h-21z M158,37h28v1h-28z M197,35h27v3h-27z M237,37h16v1h-16z M1,37h13v2h-13z M18,38h1v1h-1z M21,38h25v1h-25z M48,38h11v1h-11z M88,38h21v1h-21z M157,38h28v1h-28z M198,38h26v1h-26z M238,38h15v1h-15z M1,39h14v1h-14z M21,39h55v1h-55z M157,39h10v1h-10z M168,39h16v1h-16z M1,40h6v1h-6z M8,40h6v1h-6z M20,40h57v1h-57z M86,39h23v2h-23z M119,38h32v3h-32z M153,39h3v2h-3z M158,40h4v1h-4z M19,41h32v1h-32z M53,41h24v1h-24z M86,41h22v1h-22z M133,41h5v1h-5z M140,41h4v1h-4z M145,41h5v1h-5z M152,41h4v1h-4z M157,41h4v1h-4z M249,39h4v3h-4z M18,42h5v1h-5z M25,42h5v1h-5z M32,42h11v1h-11z M57,42h19v1h-19z M87,42h7v1h-7z M98,42h4v1h-4z M127,41h3v2h-3z M133,42h4v1h-4z M140,42h3v1h-3z M145,42h4v1h-4z M152,42h8v1h-8z M248,42h5v1h-5z M18,43h4v1h-4z M24,43h5v1h-5z M32,43h5v1h-5z M38,43h5v1h-5z M45,42h5v2h-5z M127,43h2v1h-2z M132,43h4v1h-4z M139,43h3v1h-3z M145,43h3v1h-3z M151,43h4v1h-4z M156,43h4v1h-4z M239,43h2v1h-2z M242,43h11v1h-11z M17,44h4v1h-4z M24,44h4v1h-4z M31,44h5v1h-5z M38,44h4v1h-4z M45,44h4v1h-4z M132,44h3v1h-3z M138,44h4v1h-4z M144,44h4v1h-4z M151,44h8v1h-8z M183,44h1v1h-1z M188,44h2v1h-2z M206,44h20v1h-20z M16,45h5v1h-5z M23,45h4v1h-4z M31,45h4v1h-4z M37,45h4v1h-4z M126,44h3v2h-3z M132,45h4v1h-4z M137,45h22v1h-22z M168,45h25v1h-25z M7,46h20v1h-20z M31,46h3v1h-3z M36,46h5v1h-5z M44,45h4v2h-4z M115,46h3v1h-3z M125,46h3v1h-3z M131,46h28v1h-28z M168,46h26v1h-26z M205,45h22v2h-22z M237,44h16v3h-16z M6,47h20v1h-20z M30,47h3v1h-3z M36,47h14v1h-14z M51,47h1v1h-1z M98,47h22v1h-22z M131,47h27v1h-27z M160,47h3v1h-3z M168,47h24v1h-24z M206,47h20v1h-20z M248,47h5v1h-5z M8,48h18v1h-18z M29,48h3v1h-3z M35,48h21v1h-21z M69,48h17v1h-17z M124,47h4v2h-4z M130,48h27v1h-27z M160,48h4v1h-4z M170,48h9v1h-9z M182,48h8v1h-8z M9,49h16v1h-16z M34,49h22v1h-22z M96,48h24v2h-24z M124,49h3v1h-3z M129,49h28v1h-28z M159,49h4v1h-4z M28,49h3v2h-3z M35,50h21v1h-21z M67,49h20v2h-20z M95,50h16v1h-16z M125,50h1v1h-1z M129,50h3v1h-3z M134,50h5v1h-5z M140,50h5v1h-5z M210,50h2v1h-2z M20,50h4v2h-4z M27,51h3v1h-3z M68,51h18v1h-18z M88,51h3v1h-3z M94,51h10v1h-10z M130,51h1v1h-1z M134,51h4v1h-4z M140,51h4v1h-4z M147,50h4v2h-4z M152,50h4v2h-4z M158,50h4v2h-4z M209,51h3v1h-3z M21,52h2v1h-2z M28,52h1v1h-1z M69,52h5v1h-5z M75,52h5v1h-5z M81,52h5v1h-5z M87,52h4v1h-4z M94,52h4v1h-4z M100,52h3v1h-3z M105,51h5v2h-5z M134,52h3v1h-3z M139,52h4v1h-4z M146,52h5v1h-5z M152,52h3v1h-3z M157,52h5v1h-5z M185,52h2v1h-2z M193,52h4v1h-4z M201,52h5v1h-5z M208,52h4v1h-4z M220,52h23v1h-23z M1,41h4v13h-4z M70,53h3v1h-3z M81,53h4v1h-4z M99,53h4v1h-4z M105,53h4v1h-4z M129,53h2v1h-2z M133,53h10v1h-10z M145,53h28v1h-28z M184,53h28v1h-28z M1,54h14v1h-14z M75,53h4v2h-4z M80,54h4v1h-4z M86,53h5v2h-5z M93,53h4v2h-4z M98,54h5v1h-5z M104,54h4v1h-4z M121,54h21v1h-21z M145,54h4v1h-4z M213,54h2v1h-2z M220,53h24v2h-24z M27,55h18v1h-18z M69,54h3v2h-3z M74,55h4v1h-4z M80,55h27v1h-27z M116,55h26v1h-26z M145,55h3v1h-3z M150,54h24v2h-24z M182,54h29v2h-29z M220,55h22v1h-22z M1,55h15v2h-15z M55,56h8v1h-8z M66,56h11v1h-11z M79,56h28v1h-28z M144,56h3v1h-3z M150,56h23v1h-23z M176,56h2v1h-2z M181,56h11v1h-11z M193,56h17v1h-17z M212,55h4v2h-4z M6,57h9v1h-9z M27,56h19v2h-19z M54,57h23v1h-23z M79,57h27v1h-27z M116,56h25v2h-25z M143,57h3v1h-3z M154,57h5v1h-5z M168,57h1v1h-1z M175,57h4v1h-4z M180,57h11v1h-11z M193,57h4v1h-4z M199,57h4v1h-4z M205,57h4v1h-4z M211,57h4v1h-4z M30,58h16v1h-16z M54,58h22v1h-22z M78,58h28v1h-28z M137,58h2v1h-2z M144,58h1v1h-1z M155,58h3v1h-3z M174,58h15v1h-15z M199,58h3v1h-3z M205,58h3v1h-3z M211,58h3v1h-3z M41,59h3v1h-3z M55,59h20v1h-20z M78,59h4v1h-4z M83,59h17v1h-17z M101,59h5v1h-5z M174,59h4v1h-4z M179,59h5v1h-5z M185,59h4v1h-4z M192,58h4v2h-4z M198,59h4v1h-4z M204,59h5v1h-5z M210,59h4v1h-4z M65,60h10v1h-10z M77,60h4v1h-4z M89,60h4v1h-4z M103,60h2v1h-2z M173,60h9v1h-9z M184,60h5v1h-5z M191,60h5v1h-5z M198,60h15v1h-15z M216,60h3v1h-3z M226,60h19v1h-19z M66,61h3v1h-3z M77,61h3v1h-3z M82,60h5v2h-5z M89,61h2v1h-2z M95,60h4v2h-4z M166,61h2v1h-2z M171,61h11v1h-11z M184,61h28v1h-28z M216,61h30v1h-30z M12,62h7v1h-7z M76,62h4v1h-4z M82,62h4v1h-4z M88,62h3v1h-3z M134,62h3v1h-3z M157,62h25v1h-25z M215,62h31v1h-31z M65,62h3v2h-3z M70,61h4v3h-4z M75,63h10v1h-10z M88,63h2v1h-2z M94,62h5v2h-5z M104,63h1v1h-1z M109,63h3v1h-3z M183,62h29v2h-29z M214,63h4v1h-4z M220,63h25v1h-25z M40,64h16v1h-16z M64,64h21v1h-21z M93,64h21v1h-21z M156,63h25v2h-25z M182,64h4v1h-4z M188,64h23v1h-23z M213,64h5v1h-5z M224,64h2v1h-2z M235,64h2v1h-2z M11,63h19v3h-19z M87,64h3v2h-3z M122,63h22v3h-22z M160,65h10v1h-10z M171,65h15v1h-15z M188,65h5v1h-5z M194,65h16v1h-16z M212,65h5v1h-5z M24,66h5v1h-5z M40,65h17v2h-17z M64,65h20v2h-20z M86,66h4v1h-4z M92,65h22v2h-22z M124,66h4v1h-4z M174,66h11v1h-11z M187,66h5v1h-5z M194,66h4v1h-4z M200,66h10v1h-10z M212,66h4v1h-4z M44,67h12v1h-12z M64,67h19v1h-19z M85,67h5v1h-5z M92,67h5v1h-5z M99,67h3v1h-3z M187,67h4v1h-4z M205,67h4v1h-4z M211,67h4v1h-4z M249,48h4v20h-4z M53,68h1v1h-1z M65,68h3v1h-3z M71,68h12v1h-12z M85,68h4v1h-4z M91,68h4v1h-4z M174,67h4v2h-4z M180,67h4v2h-4z M186,68h5v1h-5z M200,67h3v2h-3z M204,68h5v1h-5z M210,68h5v1h-5z M242,68h1v1h-1z M248,68h5v1h-5z M1,57h4v13h-4z M72,69h4v1h-4z M173,69h19v1h-19z M194,67h3v3h-3z M201,69h21v1h-21z M235,69h18v1h-18z M1,70h11v1h-11z M73,70h3v1h-3z M78,69h4v2h-4z M85,69h3v2h-3z M91,69h3v2h-3z M140,70h2v1h-2z M146,70h13v1h-13z M170,70h23v1h-23z M201,70h22v1h-22z M234,70h19v1h-19z M25,71h4v1h-4z M73,71h2v1h-2z M77,71h4v1h-4z M84,71h3v1h-3z M90,71h4v1h-4z M109,71h1v1h-1z M115,71h4v1h-4z M120,71h8v1h-8z M169,71h24v1h-24z M202,71h21v1h-21z M235,71h18v1h-18z M24,72h20v1h-20z M78,72h3v1h-3z M83,72h18v1h-18z M108,72h21v1h-21z M138,71h22v2h-22z M170,72h23v1h-23z M203,72h15v1h-15z M219,72h3v1h-3z M236,72h5v1h-5z M242,72h3v1h-3z M248,72h5v1h-5z M1,71h13v3h-13z M24,73h21v1h-21z M54,73h16v1h-16z M79,73h23v1h-23z M108,73h22v1h-22z M139,73h20v1h-20z M172,73h10v1h-10z M188,73h2v1h-2z M10,74h3v1h-3z M25,74h20v1h-20z M79,74h22v1h-22z M108,74h20v1h-20z M146,74h5v1h-5z M1,74h4v2h-4z M37,75h8v1h-8z M54,74h17v2h-17z M80,75h21v1h-21z M111,75h1v1h-1z M147,75h3v1h-3z M56,76h14v1h-14z M82,76h4v1h-4z M93,76h1v1h-1z M146,76h4v1h-4z M159,76h2v1h-2z M139,77h3v1h-3z M146,77h3v1h-3z M153,77h2v1h-2z M159,77h3v1h-3z M201,77h6v1h-6z M221,77h19v1h-19z M138,78h5v1h-5z M145,78h4v1h-4z M152,78h4v1h-4z M158,78h19v1h-19z M220,78h20v1h-20z M12,79h14v1h-14z M27,79h5v1h-5z M129,79h7v1h-7z M137,79h12v1h-12z M220,79h21v1h-21z M40,80h17v1h-17z M127,80h21v1h-21z M151,79h4v2h-4z M157,79h21v2h-21z M189,78h19v3h-19z M221,80h20v1h-20z M12,80h20v2h-20z M39,81h18v1h-18z M70,81h14v1h-14z M97,80h18v2h-18z M126,81h21v1h-21z M156,81h22v1h-22z M191,81h1v1h-1z M194,81h5v1h-5z M201,81h2v1h-2z M231,81h11v1h-11z M13,82h18v1h-18z M67,82h18v1h-18z M96,82h19v1h-19z M127,82h20v1h-20z M150,81h4v2h-4z M156,82h5v1h-5z M224,81h4v2h-4z M14,83h2v1h-2z M26,83h5v1h-5z M34,83h2v1h-2z M40,82h18v2h-18z M66,83h18v1h-18z M97,83h12v1h-12z M128,83h5v1h-5z M135,83h5v1h-5z M142,83h4v1h-4z M149,83h4v1h-4z M224,83h5v1h-5z M231,82h5v2h-5z M237,82h5v2h-5z M249,73h4v11h-4z M1,76h3v9h-3z M13,84h2v1h-2z M40,84h17v1h-17z M67,84h16v1h-16z M123,84h2v1h-2z M128,84h4v1h-4z M135,84h4v1h-4z M141,84h5v1h-5z M155,83h4v2h-4z M218,84h2v1h-2z M223,84h5v1h-5z M231,84h3v1h-3z M236,84h6v1h-6z M248,84h5v1h-5z M1,85h4v1h-4z M13,85h3v1h-3z M19,85h3v1h-3z M26,84h4v2h-4z M33,84h3v2h-3z M39,85h4v1h-4z M46,85h4v1h-4z M52,85h4v1h-4z M122,85h4v1h-4z M128,85h3v1h-3z M134,85h4v1h-4z M141,85h4v1h-4z M148,84h4v2h-4z M154,85h5v1h-5z M160,85h3v1h-3z M230,85h4v1h-4z M236,85h16v1h-16z M1,86h16v1h-16z M18,86h4v1h-4z M25,86h4v1h-4z M32,86h4v1h-4z M38,86h5v1h-5z M45,86h4v1h-4z M52,86h3v1h-3z M122,86h9v1h-9z M133,86h5v1h-5z M147,86h16v1h-16z M173,86h21v1h-21z M208,85h20v2h-20z M229,86h4v1h-4z M235,86h17v1h-17z M1,87h20v1h-20z M30,87h19v1h-19z M117,87h2v1h-2z M120,87h17v1h-17z M140,86h4v2h-4z M146,87h17v1h-17z M173,87h22v1h-22z M235,87h18v1h-18z M24,87h4v2h-4z M29,88h20v1h-20z M51,87h4v2h-4z M87,88h16v1h-16z M116,88h21v1h-21z M139,88h4v1h-4z M145,88h18v1h-18z M173,88h21v1h-21z M208,87h24v2h-24z M234,88h4v1h-4z M240,88h13v1h-13z M1,88h19v2h-19z M23,89h4v1h-4z M29,89h25v1h-25z M60,89h15v1h-15z M115,89h21v1h-21z M138,89h4v1h-4z M145,89h17v1h-17z M174,89h13v1h-13z M214,89h11v1h-11z M227,89h4v1h-4z M1,90h4v1h-4z M8,90h11v1h-11z M22,90h5v1h-5z M60,90h16v1h-16z M116,90h20v1h-20z M138,90h3v1h-3z M145,90h10v1h-10z M156,90h5v1h-5z M215,90h9v1h-9z M226,90h5v1h-5z M233,89h4v2h-4z M9,91h4v1h-4z M22,91h4v1h-4z M29,90h24v2h-24z M61,91h14v1h-14z M86,89h18v3h-18z M118,91h4v1h-4z M123,91h4v1h-4z M130,91h5v1h-5z M137,91h4v1h-4z M151,91h3v1h-3z M156,91h4v1h-4z M214,91h4v1h-4z M219,91h5v1h-5z M226,91h4v1h-4z M232,91h4v1h-4z M9,92h3v1h-3z M15,91h4v2h-4z M21,92h5v1h-5z M28,92h4v1h-4z M34,92h5v1h-5z M41,92h5v1h-5z M47,92h5v1h-5z M63,92h1v1h-1z M69,92h5v1h-5z M120,92h1v1h-1z M124,92h3v1h-3z M130,92h4v1h-4z M136,92h5v1h-5z M144,91h4v2h-4z M151,92h2v1h-2z M213,92h4v1h-4z M218,92h5v1h-5z M225,92h5v1h-5z M232,92h3v1h-3z M249,89h4v4h-4z M10,93h1v1h-1z M14,93h4v1h-4z M21,93h4v1h-4z M27,93h5v1h-5z M34,93h4v1h-4z M41,93h4v1h-4z M48,93h4v1h-4z M130,93h3v1h-3z M136,93h4v1h-4z M143,93h4v1h-4z M156,92h3v2h-3z M213,93h22v1h-22z M243,93h10v1h-10z M13,94h5v1h-5z M20,94h5v1h-5z M27,94h4v1h-4z M34,94h3v1h-3z M40,94h4v1h-4z M129,94h4v1h-4z M135,94h5v1h-5z M142,94h5v1h-5z M155,94h4v1h-4z M170,94h2v1h-2z M188,94h16v1h-16z M12,95h19v1h-19z M33,95h4v1h-4z M40,95h3v1h-3z M47,94h4v2h-4z M129,95h21v1h-21z M155,95h22v1h-22z M212,94h23v2h-23z M11,96h25v1h-25z M39,96h4v1h-4z M46,96h4v1h-4z M103,96h16v1h-16z M128,96h22v1h-22z M157,96h20v1h-20z M187,95h17v2h-17z M213,96h21v1h-21z M242,94h11v3h-11z M45,97h15v1h-15z M77,97h13v1h-13z M101,97h19v1h-19z M128,97h21v1h-21z M158,97h18v1h-18z M188,97h15v1h-15z M229,97h4v1h-4z M246,97h7v1h-7z M11,97h24v2h-24z M38,97h4v2h-4z M45,98h17v1h-17z M129,98h19v1h-19z M11,99h3v1h-3z M16,99h5v1h-5z M22,99h6v1h-6z M30,99h4v1h-4z M37,99h5v1h-5z M45,99h18v1h-18z M72,98h19v2h-19z M101,98h18v2h-18z M1,91h3v10h-3z M16,100h4v1h-4z M23,100h4v1h-4z M48,100h5v1h-5z M54,100h8v1h-8z M72,100h12v1h-12z M85,100h5v1h-5z M103,100h1v1h-1z M249,98h4v3h-4z M1,101h4v1h-4z M17,101h3v1h-3z M22,101h4v1h-4z M37,100h3v2h-3z M197,101h3v1h-3z M213,101h1v1h-1z M232,101h4v1h-4z M238,101h15v1h-15z M1,102h5v1h-5z M36,102h3v1h-3z M156,102h1v1h-1z M172,102h3v1h-3z M177,102h12v1h-12z M196,102h24v1h-24z M231,102h22v1h-22z M1,103h13v1h-13z M22,102h3v2h-3z M34,103h5v1h-5z M95,103h2v1h-2z M128,103h2v1h-2z M230,103h22v1h-22z M24,104h17v1h-17z M81,104h3v1h-3z M88,104h4v1h-4z M94,104h5v1h-5z M171,103h19v2h-19z M195,103h25v2h-25z M231,104h22v1h-22z M1,104h14v2h-14z M24,105h18v1h-18z M53,105h10v1h-10z M64,105h3v1h-3z M68,105h1v1h-1z M70,105h1v1h-1z M112,104h20v2h-20z M140,103h20v3h-20z M177,105h13v1h-13z M194,105h11v1h-11z M206,105h9v1h-9z M216,105h1v1h-1z M248,105h5v1h-5z M1,106h13v1h-13z M25,106h17v1h-17z M52,106h20v1h-20z M80,105h23v2h-23z M112,106h19v1h-19z M140,106h8v1h-8z M157,106h1v1h-1z M171,105h5v2h-5z M177,106h6v1h-6z M193,106h3v1h-3z M199,106h5v1h-5z M207,106h4v1h-4z M1,107h4v1h-4z M27,107h14v1h-14z M53,107h20v1h-20z M79,107h24v1h-24z M171,107h4v1h-4z M177,107h5v1h-5z M185,106h4v2h-4z M192,107h4v1h-4z M199,107h4v1h-4z M207,107h3v1h-3z M249,106h3v2h-3z M54,108h7v1h-7z M63,108h11v1h-11z M79,108h18v1h-18z M171,108h3v1h-3z M177,108h4v1h-4z M184,108h4v1h-4z M192,108h3v1h-3z M198,108h5v1h-5z M206,108h4v1h-4z M59,109h1v1h-1z M64,109h4v1h-4z M78,109h5v1h-5z M91,109h5v1h-5z M170,109h4v1h-4z M176,109h4v1h-4z M184,109h5v1h-5z M191,109h5v1h-5z M197,109h6v1h-6z M204,109h5v1h-5z M213,109h3v1h-3z M221,109h19v1h-19z M58,110h2v1h-2z M71,109h2v2h-2z M78,110h4v1h-4z M85,109h4v2h-4z M103,110h2v1h-2z M156,110h24v1h-24z M183,110h26v1h-26z M212,110h4v1h-4z M220,110h21v1h-21z M11,111h8v1h-8z M57,111h4v1h-4z M64,110h3v2h-3z M70,111h3v1h-3z M77,111h4v1h-4z M84,111h5v1h-5z M91,110h4v2h-4z M98,111h1v1h-1z M102,111h4v1h-4z M124,111h12v1h-12z M137,111h7v1h-7z M155,111h24v1h-24z M219,111h22v1h-22z M9,112h19v1h-19z M56,112h5v1h-5z M70,112h4v1h-4z M76,112h6v1h-6z M83,112h5v1h-5z M90,112h4v1h-4z M95,112h17v1h-17z M122,112h23v1h-23z M182,111h26v2h-26z M211,111h4v2h-4z M218,112h22v1h-22z M9,113h20v1h-20z M41,113h19v1h-19z M62,112h4v2h-4z M68,113h19v1h-19z M89,113h24v1h-24z M122,113h22v1h-22z M155,112h23v2h-23z M181,113h5v1h-5z M187,113h20v1h-20z M210,113h4v1h-4z M217,113h4v1h-4z M223,113h1v1h-1z M249,108h4v6h-4z M1,108h3v7h-3z M11,114h18v1h-18z M41,114h18v1h-18z M62,114h3v1h-3z M67,114h20v1h-20z M88,114h25v1h-25z M123,114h19v1h-19z M168,114h9v1h-9z M180,114h4v1h-4z M188,114h4v1h-4z M195,114h4v1h-4z M209,114h5v1h-5z M216,114h5v1h-5z M24,115h3v1h-3z M42,115h17v1h-17z M61,115h4v1h-4z M88,115h24v1h-24z M168,115h2v1h-2z M180,115h3v1h-3z M189,115h2v1h-2z M195,115h3v1h-3z M202,114h4v2h-4z M209,115h4v1h-4z M216,115h4v1h-4z M249,114h3v2h-3z M47,116h2v1h-2z M52,116h6v1h-6z M60,116h4v1h-4z M67,115h19v2h-19z M93,116h11v1h-11z M172,115h4v2h-4z M201,116h4v1h-4z M208,116h5v1h-5z M215,116h5v1h-5z M248,116h4v1h-4z M60,117h3v1h-3z M67,117h4v1h-4z M73,117h5v1h-5z M80,117h5v1h-5z M87,116h5v2h-5z M93,117h3v1h-3z M99,117h4v1h-4z M171,117h5v1h-5z M179,116h4v2h-4z M194,116h3v2h-3z M200,117h20v1h-20z M231,117h21v1h-21z M1,115h4v4h-4z M53,117h4v2h-4z M59,118h4v1h-4z M67,118h3v1h-3z M74,118h3v1h-3z M80,118h4v1h-4z M86,118h10v1h-10z M169,118h18v1h-18z M194,118h2v1h-2z M1,119h14v1h-14z M54,119h2v1h-2z M59,119h3v1h-3z M66,119h3v1h-3z M73,119h4v1h-4z M79,119h5v1h-5z M85,119h11v1h-11z M99,118h3v2h-3z M122,119h1v1h-1z M124,119h3v1h-3z M140,119h19v1h-19z M198,118h22v2h-22z M230,118h22v2h-22z M26,120h17v1h-17z M55,120h1v1h-1z M57,120h5v1h-5z M65,120h4v1h-4z M72,120h4v1h-4z M139,120h21v1h-21z M168,119h20v2h-20z M199,120h21v1h-21z M231,120h21v1h-21z M1,120h15v2h-15z M26,121h20v1h-20z M139,121h20v1h-20z M168,121h19v1h-19z M201,121h2v1h-2z M211,121h1v1h-1z M213,121h3v1h-3z M248,121h4v1h-4z M10,122h6v1h-6z M27,122h19v1h-19z M56,121h19v2h-19z M79,120h22v3h-22z M109,120h19v3h-19z M141,122h7v1h-7z M173,122h2v1h-2z M249,122h3v1h-3z M1,122h4v2h-4z M32,123h1v1h-1z M34,123h11v1h-11z M56,123h18v1h-18z M80,123h20v1h-20z M110,123h5v1h-5z M57,124h16v1h-16z M87,124h6v1h-6z M248,123h5v2h-5z M64,125h3v1h-3z M71,125h1v1h-1z M195,125h3v1h-3z M201,125h3v1h-3z M215,125h18v1h-18z M243,125h10v1h-10z M157,126h1v1h-1z M168,126h5v1h-5z M185,126h21v1h-21z M9,127h10v1h-10z M22,127h2v1h-2z M128,127h6v1h-6z M137,127h6v1h-6z M155,127h19v1h-19z M184,127h22v1h-22z M214,126h20v2h-20z M242,126h10v2h-10z M8,128h20v1h-20z M40,128h4v1h-4z M46,128h3v1h-3z M97,128h4v1h-4z M102,128h11v1h-11z M154,128h20v1h-20z M185,128h21v1h-21z M215,128h17v1h-17z M243,128h10v1h-10z M9,129h20v1h-20z M40,129h17v1h-17z M70,129h16v1h-16z M96,129h18v1h-18z M123,128h21v2h-21z M155,129h19v1h-19z M186,129h11v1h-11z M202,129h3v1h-3z M248,129h5v1h-5z M10,130h18v1h-18z M40,130h18v1h-18z M95,130h18v1h-18z M123,130h19v1h-19z M249,130h4v1h-4z M1,124h3v8h-3z M41,131h17v1h-17z M66,130h20v2h-20z M95,131h17v1h-17z M248,131h4v1h-4z M49,132h1v1h-1z M51,132h6v1h-6z M68,132h17v1h-17z M248,132h5v1h-5z M1,132h4v2h-4z M191,133h4v1h-4z M204,133h48v1h-48z M1,134h5v1h-5z M156,134h5v1h-5z M162,134h90v1h-90z M1,135h27v1h-27z M114,135h5v1h-5z M120,135h2v1h-2z M123,135h128v1h-128z M1,136h51v1h-51z M89,136h158v1h-158z M2,137h194v1h-194z M197,137h1v1h-1z M200,137h2v1h-2z M205,137h5v1h-5z M211,137h1v1h-1z M3,138h2v1h-2z M7,138h144v1h-144z M152,138h3v1h-3z M22,139h1v1h-1z M28,139h1v1h-1z M31,139h89v1h-89z M54,140h39v1h-39z
  "/>
</svg>