<?xml version="1.0" encoding="UTF-8"?>
<svg xmlns="http://www.w3.org/2000/svg" viewBox="0 0 268 141" width="268" height="141">
  <title>29 Sandy clay</title>
  <path fill="#111111" fill-rule="nonzero" d="
    M1,1h65v1h-65z M67,1h9v1h-9z M83,1h11v1h-11z M0,2h175v1h-175z M176,2h4v1h-4z M183,2h2v1h-2z M0,3h251v1h-251z M0,4h266v1h-266z M0,5h6v1h-6z M8,5h1v1h-1z M56,5h19v1h-19z M76,5h26v1h-26z M104,5h163v1h-163z M152,6h3v1h-3z M165,6h9v1h-9z M177,6h91v1h-91z M0,6h5v2h-5z M207,7h6v1h-6z M234,7h34v1h-34z M0,8h6v1h-6z M259,8h2v1h-2z M11,9h20v1h-20z M43,9h22v1h-22z M11,10h22v1h-22z M42,10h23v1h-23z M70,9h4v2h-4z M87,10h3v1h-3z M95,10h3v1h-3z M103,10h3v1h-3z M112,10h2v1h-2z M121,10h3v1h-3z M129,10h2v1h-2z M137,10h4v1h-4z M145,10h3v1h-3z M154,10h2v1h-2z M11,11h23v1h-23z M41,11h25v1h-25z M70,11h5v1h-5z M111,11h4v1h-4z M136,11h5v1h-5z M145,11h4v1h-4z M153,11h4v1h-4z M161,11h25v1h-25z M189,11h4v1h-4z M199,11h17v1h-17z M217,11h1v1h-1z M219,11h3v1h-3z M226,11h3v1h-3z M263,8h5v4h-5z M0,9h7v4h-7z M11,12h22v1h-22z M43,12h22v1h-22z M70,12h4v1h-4z M78,10h4v3h-4z M86,11h5v2h-5z M94,11h5v2h-5z M102,11h5v2h-5z M120,11h5v2h-5z M137,12h5v1h-5z M145,12h5v1h-5z M152,12h6v1h-6z M160,12h27v1h-27z M233,12h20v1h-20z M255,12h3v1h-3z M262,12h6v1h-6z M14,13h1v1h-1z M19,13h3v1h-3z M24,13h9v1h-9z M46,13h2v1h-2z M52,13h7v1h-7z M60,13h3v1h-3z M71,13h2v1h-2z M79,13h3v1h-3z M87,13h4v1h-4z M95,13h3v1h-3z M102,13h4v1h-4z M110,12h5v2h-5z M120,13h4v1h-4z M128,11h5v3h-5z M137,13h4v1h-4z M145,13h4v1h-4z M153,13h4v1h-4z M161,13h25v1h-25z M189,12h5v2h-5z M197,12h26v2h-26z M261,13h7v1h-7z M0,13h5v2h-5z M104,14h2v1h-2z M111,14h3v1h-3z M121,14h1v1h-1z M129,14h3v1h-3z M138,14h2v1h-2z M146,14h2v1h-2z M154,14h2v1h-2z M162,14h9v1h-9z M173,14h12v1h-12z M190,14h3v1h-3z M198,14h25v1h-25z M225,12h5v3h-5z M233,13h26v2h-26z M260,14h8v1h-8z M203,15h5v1h-5z M219,15h3v1h-3z M227,15h1v1h-1z M235,15h18v1h-18z M255,15h4v1h-4z M261,15h7v1h-7z M0,15h4v2h-4z M257,16h1v1h-1z M262,16h6v1h-6z M0,17h5v1h-5z M6,17h10v1h-10z M26,17h1v1h-1z M29,17h4v1h-4z M35,17h10v1h-10z M46,17h3v1h-3z M57,17h3v1h-3z M66,17h3v1h-3z M75,17h3v1h-3z M84,17h2v1h-2z M91,17h2v1h-2z M263,17h5v1h-5z M24,18h27v1h-27z M83,18h3v1h-3z M99,18h22v1h-22z M130,18h20v1h-20z M188,18h1v1h-1z M0,18h18v2h-18z M23,19h28v1h-28z M65,18h5v2h-5z M74,18h5v2h-5z M98,19h24v1h-24z M159,19h21v1h-21z M187,19h3v1h-3z M194,19h3v1h-3z M201,19h2v1h-2z M224,19h1v1h-1z M232,19h1v1h-1z M253,19h2v1h-2z M24,20h27v1h-27z M57,18h4v3h-4z M66,20h4v1h-4z M75,20h4v1h-4z M82,19h5v2h-5z M90,18h4v3h-4z M99,20h23v1h-23z M186,20h5v1h-5z M200,20h4v1h-4z M208,20h3v1h-3z M231,20h3v1h-3z M246,19h2v2h-2z M260,20h3v1h-3z M264,18h4v3h-4z M0,20h17v2h-17z M25,21h26v1h-26z M58,21h1v1h-1z M67,21h2v1h-2z M76,21h2v1h-2z M83,21h3v1h-3z M90,21h3v1h-3z M100,21h22v1h-22z M129,19h22v3h-22z M158,20h23v2h-23z M187,21h4v1h-4z M200,21h5v1h-5z M207,21h4v1h-4z M222,20h4v2h-4z M230,21h4v1h-4z M246,21h3v1h-3z M102,22h1v1h-1z M118,22h3v1h-3z M131,22h19v1h-19z M159,22h21v1h-21z M187,22h3v1h-3z M194,20h4v3h-4z M201,22h3v1h-3z M209,22h2v1h-2z M215,19h3v4h-3z M223,22h3v1h-3z M231,22h3v1h-3z M238,21h3v2h-3z M246,22h2v1h-2z M252,20h4v3h-4z M178,23h1v1h-1z M239,23h2v1h-2z M252,23h3v1h-3z M259,21h9v3h-9z M0,22h5v4h-5z M7,25h3v1h-3z M15,25h3v1h-3z M19,25h5v1h-5z M26,25h7v1h-7z M52,25h1v1h-1z M59,25h3v1h-3z M70,25h2v1h-2z M78,25h2v1h-2z M85,25h1v1h-1z M93,25h1v1h-1z M101,25h2v1h-2z M109,25h2v1h-2z M0,26h4v1h-4z M85,26h3v1h-3z M92,26h3v1h-3z M108,26h4v1h-4z M117,26h17v1h-17z M141,26h3v1h-3z M151,26h1v1h-1z M158,26h2v1h-2z M166,26h2v1h-2z M174,26h3v1h-3z M182,26h2v1h-2z M0,27h5v1h-5z M77,26h5v2h-5z M91,27h5v1h-5z M149,27h4v1h-4z M189,27h13v1h-13z M203,27h7v1h-7z M219,27h3v1h-3z M264,24h4v4h-4z M6,26h5v3h-5z M14,26h21v3h-21z M41,26h23v3h-23z M69,26h4v3h-4z M77,28h4v1h-4z M84,27h5v2h-5z M92,28h4v1h-4z M100,26h4v3h-4z M108,27h5v2h-5z M116,27h19v2h-19z M140,27h5v2h-5z M149,28h5v1h-5z M166,27h4v2h-4z M173,27h5v2h-5z M217,28h20v1h-20z M255,28h2v1h-2z M261,28h7v1h-7z M7,29h3v1h-3z M15,29h20v1h-20z M42,29h21v1h-21z M78,29h2v1h-2z M86,29h1v1h-1z M93,29h2v1h-2z M102,29h1v1h-1z M110,29h1v1h-1z M117,29h18v1h-18z M141,29h4v1h-4z M150,29h3v1h-3z M157,27h4v3h-4z M166,29h3v1h-3z M174,29h4v1h-4z M181,27h4v3h-4z M189,28h23v2h-23z M217,29h21v1h-21z M241,28h4v2h-4z M254,29h3v1h-3z M0,28h4v3h-4z M17,30h1v1h-1z M27,30h2v1h-2z M32,30h1v1h-1z M59,30h3v1h-3z M123,30h4v1h-4z M128,30h5v1h-5z M142,30h2v1h-2z M151,30h1v1h-1z M158,30h2v1h-2z M175,30h1v1h-1z M181,30h3v1h-3z M190,30h22v1h-22z M218,30h20v1h-20z M240,30h5v1h-5z M248,28h3v3h-3z M254,30h4v1h-4z M199,31h2v1h-2z M204,31h2v1h-2z M208,31h2v1h-2z M219,31h18v1h-18z M241,31h3v1h-3z M248,31h2v1h-2z M255,31h1v1h-1z M260,29h8v3h-8z M0,31h5v2h-5z M0,33h6v1h-6z M12,33h2v1h-2z M19,33h2v1h-2z M28,33h1v1h-1z M84,33h3v1h-3z M0,34h8v1h-8z M18,34h4v1h-4z M26,34h4v1h-4z M34,34h3v1h-3z M41,34h3v1h-3z M48,34h3v1h-3z M55,34h4v1h-4z M100,34h3v1h-3z M116,34h3v1h-3z M125,34h2v1h-2z M133,34h3v1h-3z M142,34h1v1h-1z M149,34h2v1h-2z M25,35h6v1h-6z M99,35h4v1h-4z M115,35h5v1h-5z M141,35h4v1h-4z M157,35h22v1h-22z M181,35h3v1h-3z M188,35h2v1h-2z M195,35h2v1h-2z M202,35h14v1h-14z M229,35h3v1h-3z M264,32h4v4h-4z M0,35h9v2h-9z M11,34h4v3h-4z M18,35h5v2h-5z M26,36h5v1h-5z M33,35h5v2h-5z M47,35h5v2h-5z M63,34h26v3h-26z M92,34h4v3h-4z M107,34h4v3h-4z M114,36h6v1h-6z M140,36h5v1h-5z M156,36h28v1h-28z M187,36h4v1h-4z M202,36h20v1h-20z M228,36h16v1h-16z M253,36h3v1h-3z M263,36h5v1h-5z M0,37h8v1h-8z M12,37h2v1h-2z M19,37h3v1h-3z M26,37h4v1h-4z M33,37h4v1h-4z M40,35h5v3h-5z M48,37h3v1h-3z M54,35h5v3h-5z M64,37h25v1h-25z M93,37h1v1h-1z M99,36h5v2h-5z M108,37h3v1h-3z M115,37h4v1h-4z M124,35h4v3h-4z M132,35h5v3h-5z M141,37h3v1h-3z M148,35h4v3h-4z M156,37h29v1h-29z M186,37h5v1h-5z M201,37h21v1h-21z M28,38h1v1h-1z M34,38h2v1h-2z M56,38h1v1h-1z M85,38h3v1h-3z M101,38h1v1h-1z M116,38h2v1h-2z M133,38h3v1h-3z M141,38h2v1h-2z M157,38h21v1h-21z M181,38h3v1h-3z M187,38h4v1h-4z M194,36h4v3h-4z M202,38h20v1h-20z M228,37h17v2h-17z M251,37h17v2h-17z M188,39h2v1h-2z M195,39h2v1h-2z M203,39h7v1h-7z M214,39h7v1h-7z M229,39h16v1h-16z M252,39h16v1h-16z M0,38h5v3h-5z M257,40h4v1h-4z M0,41h7v1h-7z M13,41h3v1h-3z M0,42h8v1h-8z M13,42h4v1h-4z M21,42h4v1h-4z M28,42h3v1h-3z M36,42h3v1h-3z M46,42h18v1h-18z M72,42h15v1h-15z M88,42h4v1h-4z M98,42h3v1h-3z M114,42h3v1h-3z M20,43h5v1h-5z M45,43h20v1h-20z M70,43h24v1h-24z M98,43h4v1h-4z M114,43h4v1h-4z M123,43h20v1h-20z M155,43h11v1h-11z M167,43h4v1h-4z M264,40h4v4h-4z M0,43h9v2h-9z M12,43h6v2h-6z M20,44h6v1h-6z M70,44h25v1h-25z M97,44h5v1h-5z M151,44h22v1h-22z M195,43h3v2h-3z M203,44h3v1h-3z M211,44h1v1h-1z M241,44h2v1h-2z M250,44h1v1h-1z M263,44h5v1h-5z M0,45h8v1h-8z M12,45h5v1h-5z M21,45h4v1h-4z M28,43h4v3h-4z M35,43h5v3h-5z M45,44h21v2h-21z M71,45h24v1h-24z M98,45h4v1h-4z M106,42h4v4h-4z M113,44h6v2h-6z M122,44h22v2h-22z M179,44h5v2h-5z M225,45h3v1h-3z M248,45h3v1h-3z M13,46h3v1h-3z M22,46h2v1h-2z M46,46h17v1h-17z M71,46h23v1h-23z M99,46h2v1h-2z M107,46h2v1h-2z M114,46h4v1h-4z M123,46h20v1h-20z M151,45h23v2h-23z M180,46h4v1h-4z M188,44h3v3h-3z M194,45h5v2h-5z M202,45h5v2h-5z M224,46h5v1h-5z M248,46h4v1h-4z M156,47h17v1h-17z M181,47h2v1h-2z M189,47h2v1h-2z M195,47h3v1h-3z M203,47h3v1h-3z M210,45h4v3h-4z M218,45h2v3h-2z M225,47h3v1h-3z M233,45h3v3h-3z M240,45h4v3h-4z M254,45h4v3h-4z M261,45h7v3h-7z M233,48h2v1h-2z M248,47h3v2h-3z M255,48h2v1h-2z M262,48h6v1h-6z M0,46h5v4h-5z M263,49h5v1h-5z M0,50h8v1h-8z M12,50h3v1h-3z M19,50h4v1h-4z M28,50h3v1h-3z M35,50h15v1h-15z M60,50h6v1h-6z M70,50h2v1h-2z M76,50h1v1h-1z M90,50h1v1h-1z M27,51h5v1h-5z M34,51h19v1h-19z M59,51h24v1h-24z M88,51h21v1h-21z M123,51h2v1h-2z M131,51h3v1h-3z M157,51h1v1h-1z M0,51h9v2h-9z M11,51h5v2h-5z M19,51h5v2h-5z M26,52h6v1h-6z M58,52h26v1h-26z M114,51h3v2h-3z M122,52h3v1h-3z M130,52h4v1h-4z M139,52h2v1h-2z M146,52h4v1h-4z M162,52h20v1h-20z M186,52h1v1h-1z M191,52h17v1h-17z M213,52h2v1h-2z M0,53h8v1h-8z M12,53h3v1h-3z M20,53h3v1h-3z M33,52h20v2h-20z M59,53h25v1h-25z M88,52h22v2h-22z M113,53h4v1h-4z M122,53h4v1h-4z M146,53h5v1h-5z M161,53h22v1h-22z M184,53h4v1h-4z M220,53h21v1h-21z M246,53h3v1h-3z M264,50h4v4h-4z M22,54h1v1h-1z M27,53h5v2h-5z M36,54h15v1h-15z M60,54h22v1h-22z M89,54h20v1h-20z M114,54h3v1h-3z M122,54h3v1h-3z M130,53h5v2h-5z M139,53h3v2h-3z M145,54h5v1h-5z M155,52h4v3h-4z M161,54h27v1h-27z M190,53h21v2h-21z M213,53h3v2h-3z M219,54h23v1h-23z M245,54h5v1h-5z M254,54h2v1h-2z M263,54h5v1h-5z M97,55h2v1h-2z M102,55h6v1h-6z M115,55h1v1h-1z M131,55h3v1h-3z M146,55h4v1h-4z M156,55h3v1h-3z M162,55h21v1h-21z M184,55h4v1h-4z M191,55h20v1h-20z M212,55h4v1h-4z M220,55h22v1h-22z M246,55h4v1h-4z M181,56h1v1h-1z M195,56h4v1h-4z M203,56h6v1h-6z M222,56h19v1h-19z M246,56h3v1h-3z M253,55h4v2h-4z M0,54h5v4h-5z M90,57h2v1h-2z M254,57h2v1h-2z M259,55h9v3h-9z M0,58h18v1h-18z M26,58h4v1h-4z M32,58h2v1h-2z M36,58h4v1h-4z M41,58h3v1h-3z M52,58h3v1h-3z M69,58h3v1h-3z M76,58h1v1h-1z M82,58h3v1h-3z M89,58h4v1h-4z M98,58h2v1h-2z M260,58h2v1h-2z M263,58h5v1h-5z M97,59h4v1h-4z M106,59h22v1h-22z M132,59h3v1h-3z M140,59h2v1h-2z M147,59h3v1h-3z M193,59h1v1h-1z M264,59h4v1h-4z M75,59h4v2h-4z M81,59h5v2h-5z M89,59h5v2h-5z M96,60h6v1h-6z M105,60h23v1h-23z M155,60h3v1h-3z M163,60h1v1h-1z M170,60h3v1h-3z M192,60h3v1h-3z M199,60h16v1h-16z M217,60h4v1h-4z M229,60h1v1h-1z M236,60h1v1h-1z M263,60h5v1h-5z M0,59h20v3h-20z M25,59h20v3h-20z M50,59h24v3h-24z M76,61h2v1h-2z M81,61h4v1h-4z M89,61h4v1h-4z M97,61h5v1h-5z M105,61h24v1h-24z M131,60h5v2h-5z M139,60h4v2h-4z M147,60h4v2h-4z M155,61h4v1h-4z M162,61h3v1h-3z M169,61h4v1h-4z M191,61h4v1h-4z M199,61h23v1h-23z M256,61h12v1h-12z M0,62h18v1h-18z M26,62h19v1h-19z M52,62h21v1h-21z M83,62h2v1h-2z M91,62h1v1h-1z M97,62h4v1h-4z M106,62h22v1h-22z M133,62h2v1h-2z M140,62h2v1h-2z M148,62h2v1h-2z M155,62h3v1h-3z M170,62h3v1h-3z M177,60h4v3h-4z M185,60h3v3h-3z M192,62h3v1h-3z M199,62h24v1h-24z M228,61h21v2h-21z M255,62h13v1h-13z M7,63h1v1h-1z M110,63h1v1h-1z M163,62h3v2h-3z M171,63h1v1h-1z M177,63h3v1h-3z M186,63h1v1h-1z M193,63h1v1h-1z M199,63h23v1h-23z M229,63h20v1h-20z M215,64h6v1h-6z M230,64h19v1h-19z M255,63h12v2h-12z M64,65h1v1h-1z M70,65h2v1h-2z M77,65h1v1h-1z M263,65h5v1h-5z M7,66h3v1h-3z M16,66h1v1h-1z M24,66h4v1h-4z M33,66h3v1h-3z M40,66h3v1h-3z M47,66h2v1h-2z M54,66h3v1h-3z M62,66h18v1h-18z M87,66h22v1h-22z M117,66h3v1h-3z M122,66h1v1h-1z M127,66h1v1h-1z M132,66h2v1h-2z M136,66h1v1h-1z M264,66h4v1h-4z M46,67h4v1h-4z M115,67h25v1h-25z M163,67h1v1h-1z M170,67h3v1h-3z M181,67h1v1h-1z M189,67h10v1h-10z M200,67h5v1h-5z M263,67h5v1h-5z M6,67h5v2h-5z M23,67h6v2h-6z M39,67h6v2h-6z M116,68h25v1h-25z M162,68h4v1h-4z M169,68h5v1h-5z M187,68h19v1h-19z M210,68h20v1h-20z M238,68h18v1h-18z M261,68h7v1h-7z M15,67h4v3h-4z M24,69h5v1h-5z M32,67h5v3h-5z M40,69h4v1h-4z M46,68h5v2h-5z M53,67h5v3h-5z M62,67h19v3h-19z M86,67h24v3h-24z M116,69h24v1h-24z M153,67h4v3h-4z M162,69h5v1h-5z M169,69h6v1h-6z M187,69h20v1h-20z M210,69h21v1h-21z M236,69h21v1h-21z M7,69h4v2h-4z M15,70h3v1h-3z M33,70h2v1h-2z M41,70h1v1h-1z M46,70h4v1h-4z M54,70h3v1h-3z M64,70h4v1h-4z M74,70h6v1h-6z M87,70h15v1h-15z M103,70h6v1h-6z M117,70h23v1h-23z M145,67h3v4h-3z M154,70h3v1h-3z M162,70h4v1h-4z M170,70h4v1h-4z M179,68h4v3h-4z M188,70h19v1h-19z M211,70h20v1h-20z M260,69h8v2h-8z M9,71h1v1h-1z M163,71h3v1h-3z M171,71h2v1h-2z M180,71h2v1h-2z M189,71h1v1h-1z M194,71h12v1h-12z M211,71h1v1h-1z M213,71h17v1h-17z M237,70h20v2h-20z M261,71h7v1h-7z M243,72h5v1h-5z M251,72h5v1h-5z M0,63h5v11h-5z M20,73h1v1h-1z M0,74h6v1h-6z M10,74h3v1h-3z M18,74h4v1h-4z M28,74h19v1h-19z M56,74h34v1h-34z M98,74h4v1h-4z M104,74h2v1h-2z M107,74h4v1h-4z M112,74h1v1h-1z M27,75h21v1h-21z M98,75h27v1h-27z M132,75h18v1h-18z M167,75h2v1h-2z M185,75h1v1h-1z M192,75h2v1h-2z M203,75h2v1h-2z M218,75h2v1h-2z M252,75h2v1h-2z M264,72h4v4h-4z M17,75h5v2h-5z M27,76h22v1h-22z M97,76h29v1h-29z M166,76h4v1h-4z M177,76h2v1h-2z M184,76h3v1h-3z M192,76h3v1h-3z M199,76h16v1h-16z M225,76h14v1h-14z M258,76h3v1h-3z M263,76h5v1h-5z M0,75h7v3h-7z M9,75h5v3h-5z M18,77h4v1h-4z M28,77h20v1h-20z M55,75h36v3h-36z M97,77h28v1h-28z M131,76h21v2h-21z M157,75h4v3h-4z M165,77h5v1h-5z M183,77h5v1h-5z M198,77h17v1h-17z M245,76h3v2h-3z M251,76h4v2h-4z M257,77h11v1h-11z M0,78h6v1h-6z M11,78h2v1h-2z M20,78h1v1h-1z M29,78h9v1h-9z M41,78h7v1h-7z M56,78h34v1h-34z M98,78h27v1h-27z M132,78h19v1h-19z M158,78h2v1h-2z M166,78h3v1h-3z M176,77h4v2h-4z M184,78h3v1h-3z M191,77h4v2h-4z M199,78h16v1h-16z M217,76h4v3h-4z M224,77h17v2h-17z M245,78h4v1h-4z M251,78h3v1h-3z M258,78h10v1h-10z M116,79h1v1h-1z M143,79h3v1h-3z M147,79h2v1h-2z M176,79h3v1h-3z M184,79h2v1h-2z M192,79h3v1h-3z M200,79h15v1h-15z M218,79h2v1h-2z M226,79h14v1h-14z M245,79h3v1h-3z M251,79h2v1h-2z M258,79h3v1h-3z M0,79h5v3h-5z M263,79h5v3h-5z M0,82h8v1h-8z M9,82h2v1h-2z M68,82h1v1h-1z M21,83h18v1h-18z M45,83h17v1h-17z M65,83h6v1h-6z M84,83h2v1h-2z M92,83h3v1h-3z M101,83h4v1h-4z M109,83h4v1h-4z M118,83h10v1h-10z M130,83h5v1h-5z M143,83h2v1h-2z M152,83h2v1h-2z M160,83h1v1h-1z M264,82h4v2h-4z M20,84h20v1h-20z M66,84h5v1h-5z M92,84h4v1h-4z M117,84h19v1h-19z M151,84h3v1h-3z M159,84h3v1h-3z M167,84h3v1h-3z M175,84h14v1h-14z M191,84h3v1h-3z M207,84h7v1h-7z M263,84h5v1h-5z M44,84h18v2h-18z M67,85h4v1h-4z M74,83h4v3h-4z M91,85h5v1h-5z M200,85h21v1h-21z M226,85h17v1h-17z M253,85h2v1h-2z M262,85h6v1h-6z M0,83h13v4h-13z M21,85h19v2h-19z M45,86h17v1h-17z M67,86h3v1h-3z M74,86h3v1h-3z M92,86h4v1h-4z M101,84h5v3h-5z M109,84h5v3h-5z M117,85h20v2h-20z M142,84h5v3h-5z M151,85h4v2h-4z M159,85h4v2h-4z M167,85h4v2h-4z M174,85h21v2h-21z M199,86h23v1h-23z M0,87h6v1h-6z M7,87h2v1h-2z M35,87h3v1h-3z M53,87h2v1h-2z M59,87h1v1h-1z M83,84h4v4h-4z M93,87h1v1h-1z M102,87h3v1h-3z M110,87h2v1h-2z M119,87h16v1h-16z M144,87h1v1h-1z M151,87h3v1h-3z M160,87h2v1h-2z M167,87h3v1h-3z M175,87h20v1h-20z M200,87h22v1h-22z M225,86h20v2h-20z M251,86h17v2h-17z M101,88h3v1h-3z M191,88h2v1h-2z M201,88h6v1h-6z M208,88h13v1h-13z M227,88h18v1h-18z M252,88h16v1h-16z M99,89h4v1h-4z M254,89h14v1h-14z M100,90h3v1h-3z M263,90h5v1h-5z M8,91h14v1h-14z M25,91h3v1h-3z M35,91h15v1h-15z M53,91h3v1h-3z M60,91h3v1h-3z M69,91h1v1h-1z M84,91h2v1h-2z M93,91h2v1h-2z M100,91h11v1h-11z M113,91h3v1h-3z M128,91h4v1h-4z M137,91h2v1h-2z M142,91h3v1h-3z M7,92h15v1h-15z M33,92h17v1h-17z M68,92h3v1h-3z M100,92h18v1h-18z M126,92h20v1h-20z M156,92h18v1h-18z M181,92h23v1h-23z M209,92h1v1h-1z M216,92h2v1h-2z M236,92h2v1h-2z M245,92h2v1h-2z M264,91h4v2h-4z M7,93h16v1h-16z M25,92h4v2h-4z M32,93h18v1h-18z M52,92h5v2h-5z M59,92h5v2h-5z M99,93h20v1h-20z M126,93h21v1h-21z M225,93h3v1h-3z M236,93h3v1h-3z M253,93h2v1h-2z M8,94h14v1h-14z M26,94h1v1h-1z M33,94h17v1h-17z M53,94h3v1h-3z M59,94h4v1h-4z M67,93h5v2h-5z M76,92h4v3h-4z M92,92h4v3h-4z M100,94h19v1h-19z M127,94h20v1h-20z M180,93h25v2h-25z M208,93h4v2h-4z M225,94h4v1h-4z M235,94h5v1h-5z M10,95h4v1h-4z M17,95h2v1h-2z M35,95h14v1h-14z M54,95h1v1h-1z M68,95h3v1h-3z M76,95h3v1h-3z M83,92h4v4h-4z M93,95h3v1h-3z M102,95h3v1h-3z M108,95h10v1h-10z M128,95h17v1h-17z M155,93h19v3h-19z M181,95h24v1h-24z M209,95h3v1h-3z M215,93h4v3h-4z M225,95h3v1h-3z M236,95h4v1h-4z M245,93h3v3h-3z M69,96h1v1h-1z M163,96h1v1h-1z M182,96h1v1h-1z M192,96h1v1h-1z M198,96h5v1h-5z M210,96h1v1h-1z M216,96h1v1h-1z M253,94h3v3h-3z M260,93h8v4h-8z M263,97h5v1h-5z M9,98h3v1h-3z M20,98h17v1h-17z M54,98h2v1h-2z M62,98h2v1h-2z M111,98h2v1h-2z M8,99h5v1h-5z M61,99h4v1h-4z M80,99h2v1h-2z M89,99h3v1h-3z M100,99h4v1h-4z M119,99h3v1h-3z M128,99h3v1h-3z M140,99h13v1h-13z M166,99h1v1h-1z M8,100h4v1h-4z M18,99h20v2h-20z M60,100h5v1h-5z M70,100h3v1h-3z M99,100h5v1h-5z M139,100h20v1h-20z M193,100h24v1h-24z M222,100h3v1h-3z M236,100h2v1h-2z M243,100h3v1h-3z M250,100h2v1h-2z M264,98h3v3h-3z M9,101h3v1h-3z M19,101h19v1h-19z M44,98h4v4h-4z M53,99h4v3h-4z M100,101h4v1h-4z M110,99h4v3h-4z M119,100h4v2h-4z M139,101h21v1h-21z M164,100h23v2h-23z M193,101h26v1h-26z M229,100h3v2h-3z M257,101h4v1h-4z M263,101h4v1h-4z M0,88h5v15h-5z M20,102h2v1h-2z M27,102h9v1h-9z M45,102h1v1h-1z M54,102h3v1h-3z M61,101h4v2h-4z M70,101h4v2h-4z M88,100h5v3h-5z M101,102h3v1h-3z M111,102h3v1h-3z M119,102h3v1h-3z M128,100h4v3h-4z M139,102h20v1h-20z M164,102h24v1h-24z M193,102h27v1h-27z M222,101h4v2h-4z M229,102h2v1h-2z M235,101h4v2h-4z M243,101h4v2h-4z M257,102h11v1h-11z M0,103h4v1h-4z M62,103h2v1h-2z M70,103h3v1h-3z M79,100h4v4h-4z M89,103h2v1h-2z M130,103h2v1h-2z M140,103h18v1h-18z M165,103h22v1h-22z M193,103h26v1h-26z M223,103h1v1h-1z M236,103h3v1h-3z M243,103h3v1h-3z M250,101h3v3h-3z M257,103h3v1h-3z M215,104h1v1h-1z M258,104h1v1h-1z M263,103h5v2h-5z M0,104h5v2h-5z M11,105h1v1h-1z M14,105h1v1h-1z M0,106h17v1h-17z M26,106h23v1h-23z M65,106h2v1h-2z M71,106h2v1h-2z M78,106h3v1h-3z M87,106h2v1h-2z M99,106h4v1h-4z M142,106h2v1h-2z M56,107h3v1h-3z M64,107h3v1h-3z M124,107h22v1h-22z M157,107h8v1h-8z M168,107h8v1h-8z M185,107h2v1h-2z M263,105h4v3h-4z M0,107h18v2h-18z M63,108h5v1h-5z M86,107h4v2h-4z M123,108h24v1h-24z M156,108h21v1h-21z M184,108h21v1h-21z M211,108h2v1h-2z M230,108h2v1h-2z M237,108h2v1h-2z M245,108h3v1h-3z M253,108h2v1h-2z M0,109h17v1h-17z M25,107h25v3h-25z M55,108h4v2h-4z M63,109h4v1h-4z M70,107h4v3h-4z M78,107h4v3h-4z M87,109h3v1h-3z M97,107h20v3h-20z M124,109h22v1h-22z M156,109h22v1h-22z M219,108h4v2h-4z M236,109h4v1h-4z M253,109h3v1h-3z M9,110h1v1h-1z M26,110h4v1h-4z M39,110h10v1h-10z M57,110h2v1h-2z M64,110h2v1h-2z M71,110h3v1h-3z M79,110h2v1h-2z M98,110h19v1h-19z M126,110h20v1h-20z M156,110h21v1h-21z M184,109h22v2h-22z M210,109h4v2h-4z M219,110h5v1h-5z M229,109h4v2h-4z M237,110h4v1h-4z M244,109h4v2h-4z M252,110h4v1h-4z M158,111h2v1h-2z M163,111h3v1h-3z M169,111h7v1h-7z M187,111h18v1h-18z M211,111h3v1h-3z M219,111h4v1h-4z M229,111h3v1h-3z M237,111h3v1h-3z M245,111h3v1h-3z M253,111h3v1h-3z M260,108h7v4h-7z M212,112h2v1h-2z M221,112h1v1h-1z M254,112h1v1h-1z M262,112h5v1h-5z M9,113h4v1h-4z M19,113h3v1h-3z M28,113h3v1h-3z M37,113h2v1h-2z M46,113h1v1h-1z M263,113h4v1h-4z M8,114h5v1h-5z M19,114h4v1h-4z M37,114h3v1h-3z M45,114h3v1h-3z M53,114h4v1h-4z M62,114h3v1h-3z M71,114h1v1h-1z M78,114h3v1h-3z M87,114h8v1h-8z M96,114h7v1h-7z M141,114h1v1h-1z M205,114h2v1h-2z M213,114h2v1h-2z M222,114h3v1h-3z M240,114h2v1h-2z M263,114h5v1h-5z M8,115h6v1h-6z M18,115h6v1h-6z M27,114h5v2h-5z M44,115h5v1h-5z M113,115h18v1h-18z M139,115h22v1h-22z M166,115h2v1h-2z M174,115h2v1h-2z M179,115h8v1h-8z M196,115h3v1h-3z M213,115h3v1h-3z M221,115h4v1h-4z M231,115h4v1h-4z M240,115h3v1h-3z M258,115h3v1h-3z M9,116h5v1h-5z M19,116h4v1h-4z M28,116h4v1h-4z M36,115h4v2h-4z M45,116h4v1h-4z M53,115h5v2h-5z M61,115h5v2h-5z M70,115h4v2h-4z M77,115h5v2h-5z M112,116h19v1h-19z M195,116h4v1h-4z M212,116h4v1h-4z M221,116h5v1h-5z M230,116h5v1h-5z M240,116h4v1h-4z M20,117h2v1h-2z M29,117h1v1h-1z M37,117h2v1h-2z M45,117h3v1h-3z M54,117h3v1h-3z M62,117h3v1h-3z M71,117h2v1h-2z M78,117h3v1h-3z M85,115h19v3h-19z M113,117h18v1h-18z M139,116h24v2h-24z M172,116h17v2h-17z M195,117h5v1h-5z M204,115h4v3h-4z M213,117h3v1h-3z M222,117h3v1h-3z M231,117h3v1h-3z M240,117h3v1h-3z M248,115h4v3h-4z M257,116h4v2h-4z M263,115h4v3h-4z M0,110h5v9h-5z M63,118h2v1h-2z M87,118h16v1h-16z M114,118h17v1h-17z M140,118h23v1h-23z M165,116h4v3h-4z M173,118h15v1h-15z M196,118h3v1h-3z M205,118h2v1h-2z M213,118h2v1h-2z M223,118h2v1h-2z M231,118h2v1h-2z M241,118h1v1h-1z M249,118h2v1h-2z M258,118h3v1h-3z M0,119h4v1h-4z M127,119h2v1h-2z M157,119h3v1h-3z M183,119h1v1h-1z M0,120h5v1h-5z M57,120h1v1h-1z M74,120h1v1h-1z M263,118h5v3h-5z M0,121h11v1h-11z M12,121h4v1h-4z M25,121h19v1h-19z M48,121h2v1h-2z M56,121h3v1h-3z M64,121h3v1h-3z M99,121h2v1h-2z M109,121h3v1h-3z M146,121h3v1h-3z M263,121h4v1h-4z M55,122h5v1h-5z M64,122h4v1h-4z M90,122h4v1h-4z M118,122h4v1h-4z M127,122h4v1h-4z M137,122h3v1h-3z M165,122h3v1h-3z M175,122h2v1h-2z M183,122h2v1h-2z M191,122h2v1h-2z M198,122h2v1h-2z M232,122h1v1h-1z M263,122h5v1h-5z M0,122h17v2h-17z M24,122h21v2h-21z M47,122h4v2h-4z M65,123h3v1h-3z M73,121h4v3h-4z M98,122h5v2h-5z M127,123h5v1h-5z M136,123h4v1h-4z M173,123h5v1h-5z M182,123h3v1h-3z M205,123h21v1h-21z M232,123h3v1h-3z M238,123h16v1h-16z M258,123h2v1h-2z M0,124h16v1h-16z M24,124h20v1h-20z M47,124h3v1h-3z M56,123h3v2h-3z M65,124h2v1h-2z M74,124h3v1h-3z M81,122h4v3h-4z M89,123h5v2h-5z M98,124h4v1h-4z M108,122h5v3h-5z M117,123h5v2h-5z M127,124h4v1h-4z M137,124h3v1h-3z M146,122h4v3h-4z M156,122h4v3h-4z M164,123h5v2h-5z M183,124h2v1h-2z M190,123h4v2h-4z M197,123h4v2h-4z M205,124h22v1h-22z M231,124h4v1h-4z M237,124h18v1h-18z M0,125h6v1h-6z M10,125h1v1h-1z M26,125h6v1h-6z M36,125h3v1h-3z M42,125h1v1h-1z M83,125h1v1h-1z M90,125h3v1h-3z M98,125h3v1h-3z M110,125h1v1h-1z M119,125h2v1h-2z M128,125h2v1h-2z M137,125h2v1h-2z M147,125h2v1h-2z M157,125h2v1h-2z M165,125h2v1h-2z M174,124h3v2h-3z M198,125h2v1h-2z M206,125h21v1h-21z M232,125h3v1h-3z M238,125h17v1h-17z M257,124h4v2h-4z M264,123h3v3h-3z M208,126h18v1h-18z M233,126h1v1h-1z M238,126h16v1h-16z M258,126h2v1h-2z M7,127h2v1h-2z M64,127h2v1h-2z M24,128h2v1h-2z M40,128h3v1h-3z M44,128h3v1h-3z M48,128h3v1h-3z M52,128h4v1h-4z M73,128h19v1h-19z M97,128h4v1h-4z M106,128h2v1h-2z M115,128h2v1h-2z M132,128h14v1h-14z M151,128h2v1h-2z M15,128h4v2h-4z M31,129h5v1h-5z M39,129h19v1h-19z M114,129h4v1h-4z M124,129h3v1h-3z M131,129h23v1h-23z M163,129h24v1h-24z M192,129h3v1h-3z M201,129h2v1h-2z M209,129h2v1h-2z M218,129h2v1h-2z M228,129h2v1h-2z M0,126h5v5h-5z M6,128h4v3h-4z M15,130h5v1h-5z M23,129h4v2h-4z M39,130h20v1h-20z M63,128h4v3h-4z M72,129h21v2h-21z M96,129h5v2h-5z M131,130h24v1h-24z M200,130h3v1h-3z M208,130h5v1h-5z M237,130h2v1h-2z M246,130h2v1h-2z M254,130h1v1h-1z M260,130h1v1h-1z M263,126h4v5h-4z M0,131h4v1h-4z M7,131h3v1h-3z M16,131h2v1h-2z M23,131h3v1h-3z M31,130h4v2h-4z M39,131h19v1h-19z M63,131h3v1h-3z M72,131h20v1h-20z M97,131h4v1h-4z M105,129h4v3h-4z M114,130h5v2h-5z M123,130h5v2h-5z M132,131h23v1h-23z M162,130h25v2h-25z M191,130h4v2h-4z M200,131h4v1h-4z M209,131h4v1h-4z M217,130h4v2h-4z M227,130h4v2h-4z M253,131h3v1h-3z M259,131h8v1h-8z M0,132h5v1h-5z M7,132h2v1h-2z M16,132h1v1h-1z M32,132h3v1h-3z M73,132h2v1h-2z M79,132h11v1h-11z M99,132h1v1h-1z M115,132h3v1h-3z M124,132h3v1h-3z M133,132h3v1h-3z M137,132h8v1h-8z M147,132h2v1h-2z M151,132h2v1h-2z M163,132h7v1h-7z M172,132h14v1h-14z M193,132h1v1h-1z M201,132h2v1h-2z M209,132h3v1h-3z M218,132h2v1h-2z M227,132h3v1h-3z M236,131h4v2h-4z M245,131h4v2h-4z M253,132h4v1h-4z M0,133h19v1h-19z M20,133h3v1h-3z M26,133h2v1h-2z M32,133h4v1h-4z M40,132h17v2h-17z M73,133h14v1h-14z M91,133h3v1h-3z M117,133h1v1h-1z M123,133h4v1h-4z M176,133h2v1h-2z M229,133h1v1h-1z M237,133h2v1h-2z M246,133h2v1h-2z M253,133h3v1h-3z M259,132h9v2h-9z M0,134h150v1h-150z M151,134h3v1h-3z M155,134h4v1h-4z M162,134h4v1h-4z M169,134h1v1h-1z M171,134h4v1h-4z M261,134h7v1h-7z M0,135h203v1h-203z M205,135h4v1h-4z M211,135h2v1h-2z M218,135h4v1h-4z M262,135h5v1h-5z M0,136h268v1h-268z M1,137h266v1h-266z M91,138h1v1h-1z M126,138h4v1h-4z M133,138h134v1h-134z M196,139h1v1h-1z M199,139h68v1h-68z M242,140h4v1h-4z M248,140h11v1h-11z M260,140h6v1h-6z
  "/>
</svg>