<?xml version="1.0" encoding="UTF-8"?>
<svg xmlns="http://www.w3.org/2000/svg" viewBox="0 0 266 139" width="266" height="139">
  <title>57 Massive igneous rock 57</title>
  <path fill="#111111" fill-rule="nonzero" d="
    M2,1h20v1h-20z M25,1h8v1h-8z M54,1h1v1h-1z M2,2h260v1h-260z M1,3h263v1h-263z M1,4h264v1h-264z M16,5h1v1h-1z M24,5h10v1h-10z M40,5h225v1h-225z M27,6h5v1h-5z M55,6h3v1h-3z M61,6h2v1h-2z M83,6h6v1h-6z M91,6h1v1h-1z M94,6h1v1h-1z M98,6h2v1h-2z M119,6h4v1h-4z M128,6h1v1h-1z M131,6h4v1h-4z M141,6h5v1h-5z M149,6h13v1h-13z M164,6h3v1h-3z M170,6h6v1h-6z M190,6h5v1h-5z M201,6h1v1h-1z M232,6h1v1h-1z M236,6h8v1h-8z M245,6h1v1h-1z M254,6h2v1h-2z M259,6h6v1h-6z M25,7h6v1h-6z M47,6h1v2h-1z M61,7h1v1h-1z M85,7h4v1h-4z M119,7h3v1h-3z M170,7h2v1h-2z M260,7h5v1h-5z M25,8h5v1h-5z M55,8h2v1h-2z M60,8h3v1h-3z M82,8h7v1h-7z M102,8h2v1h-2z M139,8h5v1h-5z M155,8h3v1h-3z M170,8h4v1h-4z M222,8h3v1h-3z M236,7h5v2h-5z M256,8h2v1h-2z M14,9h4v1h-4z M24,9h5v1h-5z M81,9h9v1h-9z M137,9h8v1h-8z M169,9h6v1h-6z M190,7h3v3h-3z M206,8h7v2h-7z M222,9h4v1h-4z M235,9h5v1h-5z M254,9h5v1h-5z M14,10h5v1h-5z M23,10h3v1h-3z M36,10h3v1h-3z M46,8h4v3h-4z M59,9h5v2h-5z M81,10h10v1h-10z M101,9h4v2h-4z M119,8h4v3h-4z M135,10h11v1h-11z M167,10h9v1h-9z M222,10h5v1h-5z M235,10h4v1h-4z M253,10h6v1h-6z M11,11h8v1h-8z M54,9h4v3h-4z M82,11h10v1h-10z M110,11h1v1h-1z M113,11h2v1h-2z M119,11h5v1h-5z M133,11h13v1h-13z M154,9h4v3h-4z M167,11h11v1h-11z M189,10h4v2h-4z M234,11h5v1h-5z M252,11h6v1h-6z M35,11h4v2h-4z M47,11h3v2h-3z M83,12h9v1h-9z M109,12h7v1h-7z M120,12h4v1h-4z M132,12h14v1h-14z M153,12h4v1h-4z M167,12h12v1h-12z M188,12h5v1h-5z M223,11h5v2h-5z M234,12h4v1h-4z M251,12h4v1h-4z M11,12h9v2h-9z M35,13h3v1h-3z M55,12h4v2h-4z M60,11h4v3h-4z M71,13h8v1h-8z M84,13h9v1h-9z M100,11h4v3h-4z M130,13h15v1h-15z M152,13h5v1h-5z M167,13h13v1h-13z M224,13h5v1h-5z M235,13h2v1h-2z M246,13h2v1h-2z M250,13h4v1h-4z M11,14h10v1h-10z M55,14h9v1h-9z M84,14h10v1h-10z M99,14h5v1h-5z M121,13h3v2h-3z M129,14h15v1h-15z M152,14h4v1h-4z M168,14h13v1h-13z M188,13h4v2h-4z M245,14h3v1h-3z M249,14h5v1h-5z M12,15h9v1h-9z M70,14h10v2h-10z M85,15h10v1h-10z M128,15h14v1h-14z M153,15h3v1h-3z M169,15h13v1h-13z M189,15h2v1h-2z M225,14h5v2h-5z M245,15h9v1h-9z M12,16h10v1h-10z M55,15h10v2h-10z M71,16h7v1h-7z M99,15h4v2h-4z M108,13h8v4h-8z M127,16h14v1h-14z M170,16h13v1h-13z M227,16h3v1h-3z M245,16h10v1h-10z M1,5h4v13h-4z M13,17h9v1h-9z M86,16h10v2h-10z M100,17h2v1h-2z M108,17h7v1h-7z M128,17h11v1h-11z M171,17h13v1h-13z M245,17h9v1h-9z M13,18h10v1h-10z M34,14h4v5h-4z M87,18h9v1h-9z M128,18h9v1h-9z M173,18h11v1h-11z M194,18h7v1h-7z M230,18h3v1h-3z M246,18h8v1h-8z M14,19h10v1h-10z M34,19h3v1h-3z M88,19h9v1h-9z M129,19h6v1h-6z M141,19h1v1h-1z M154,19h3v1h-3z M174,19h10v1h-10z M229,19h5v1h-5z M15,20h9v1h-9z M56,17h9v4h-9z M129,20h4v1h-4z M140,20h3v1h-3z M153,20h5v1h-5z M160,20h1v1h-1z M175,20h4v1h-4z M181,20h3v1h-3z M194,19h8v2h-8z M227,20h8v1h-8z M1,18h5v4h-5z M15,21h4v1h-4z M20,21h5v1h-5z M56,21h10v1h-10z M89,20h5v2h-5z M140,21h4v1h-4z M153,21h4v1h-4z M158,21h3v1h-3z M197,21h4v1h-4z M226,21h10v1h-10z M15,22h10v1h-10z M83,22h2v1h-2z M90,22h4v1h-4z M140,22h5v1h-5z M153,22h8v1h-8z M225,22h11v1h-11z M246,19h9v4h-9z M15,23h9v1h-9z M57,22h9v2h-9z M140,23h6v1h-6z M206,10h8v14h-8z M224,23h12v1h-12z M247,23h8v1h-8z M16,24h5v1h-5z M42,24h4v1h-4z M57,24h4v1h-4z M63,24h2v1h-2z M82,23h4v2h-4z M123,24h6v1h-6z M141,24h5v1h-5z M152,23h9v2h-9z M206,24h3v1h-3z M210,24h3v1h-3z M223,24h12v1h-12z M17,25h4v1h-4z M41,25h5v1h-5z M70,24h3v2h-3z M107,18h8v8h-8z M122,25h7v1h-7z M142,25h5v1h-5z M151,25h10v1h-10z M168,25h1v1h-1z M212,25h1v1h-1z M222,25h12v1h-12z M247,24h9v2h-9z M18,26h3v1h-3z M38,26h10v1h-10z M81,25h4v2h-4z M123,26h6v1h-6z M143,26h4v1h-4z M168,26h8v1h-8z M191,26h5v1h-5z M221,26h12v1h-12z M238,26h2v1h-2z M25,27h1v1h-1z M37,27h12v1h-12z M82,27h3v1h-3z M106,26h9v2h-9z M144,27h2v1h-2z M151,26h4v2h-4z M156,26h4v2h-4z M168,27h9v1h-9z M190,27h7v1h-7z M221,27h11v1h-11z M248,26h8v2h-8z M9,28h2v1h-2z M25,28h2v1h-2z M36,28h13v1h-13z M70,26h4v3h-4z M91,28h2v1h-2z M150,28h10v1h-10z M168,28h8v1h-8z M188,28h9v1h-9z M220,28h11v1h-11z M237,27h5v2h-5z M248,28h7v1h-7z M8,29h5v1h-5z M25,29h3v1h-3z M34,29h15v1h-15z M56,29h4v1h-4z M90,29h4v1h-4z M107,28h8v2h-8z M127,29h2v1h-2z M150,29h4v1h-4z M155,29h4v1h-4z M169,29h1v1h-1z M172,29h1v1h-1z M187,29h11v1h-11z M207,29h3v1h-3z M220,29h9v1h-9z M237,29h7v1h-7z M248,29h5v1h-5z M9,30h5v1h-5z M24,30h4v1h-4z M32,30h16v1h-16z M52,30h9v1h-9z M87,30h8v1h-8z M112,30h2v1h-2z M118,30h1v1h-1z M127,30h4v1h-4z M149,30h10v1h-10z M186,30h12v1h-12z M204,30h8v1h-8z M221,30h7v1h-7z M238,30h6v1h-6z M250,30h2v1h-2z M9,31h7v1h-7z M31,31h7v1h-7z M39,31h8v1h-8z M51,31h10v1h-10z M71,29h4v3h-4z M85,31h11v1h-11z M117,31h3v1h-3z M124,31h7v1h-7z M149,31h9v1h-9z M184,31h14v1h-14z M203,31h9v1h-9z M222,31h5v1h-5z M239,31h5v1h-5z M10,32h7v1h-7z M23,31h4v2h-4z M30,32h15v1h-15z M52,32h8v1h-8z M73,32h2v1h-2z M84,32h13v1h-13z M124,32h8v1h-8z M148,32h10v1h-10z M160,32h2v1h-2z M183,32h13v1h-13z M204,32h8v1h-8z M223,32h2v1h-2z M240,32h4v1h-4z M12,33h5v1h-5z M23,33h3v1h-3z M31,33h12v1h-12z M53,33h2v1h-2z M82,33h15v1h-15z M123,33h10v1h-10z M181,33h13v1h-13z M206,33h4v1h-4z M14,34h3v1h-3z M24,34h1v1h-1z M31,34h10v1h-10z M80,34h17v1h-17z M116,32h4v3h-4z M124,34h9v1h-9z M148,33h9v2h-9z M159,33h4v2h-4z M180,34h13v1h-13z M1,22h4v14h-4z M33,35h7v1h-7z M61,35h3v1h-3z M80,35h16v1h-16z M124,35h10v1h-10z M180,35h11v1h-11z M254,34h3v2h-3z M1,36h5v1h-5z M32,36h6v1h-6z M60,36h8v1h-8z M79,36h14v1h-14z M100,36h2v1h-2z M116,35h3v2h-3z M125,36h9v1h-9z M148,35h8v2h-8z M160,35h4v2h-4z M180,36h10v1h-10z M211,36h4v1h-4z M32,37h4v1h-4z M59,37h10v1h-10z M79,37h12v1h-12z M149,37h6v1h-6z M181,37h7v1h-7z M210,37h6v1h-6z M252,36h5v2h-5z M33,38h2v1h-2z M80,38h9v1h-9z M100,37h3v2h-3z M126,37h9v2h-9z M152,38h3v1h-3z M161,37h4v2h-4z M181,38h6v1h-6z M196,38h3v1h-3z M237,38h4v1h-4z M251,38h6v1h-6z M59,38h9v2h-9z M80,39h7v1h-7z M115,37h4v3h-4z M127,39h9v1h-9z M162,39h2v1h-2z M182,39h3v1h-3z M207,38h9v2h-9z M237,39h6v1h-6z M251,39h4v1h-4z M43,40h2v1h-2z M58,40h4v1h-4z M63,40h4v1h-4z M80,40h6v1h-6z M115,40h3v1h-3z M128,40h8v1h-8z M142,40h1v1h-1z M171,40h1v1h-1z M195,39h4v2h-4z M207,40h11v1h-11z M236,40h8v1h-8z M252,40h2v1h-2z M16,41h2v1h-2z M81,41h3v1h-3z M100,39h4v3h-4z M141,41h6v1h-6z M170,41h3v1h-3z M208,41h10v1h-10z M236,41h10v1h-10z M15,42h3v1h-3z M42,41h4v2h-4z M57,41h10v2h-10z M101,42h3v1h-3z M128,41h9v2h-9z M166,42h7v1h-7z M209,42h9v1h-9z M235,42h13v1h-13z M14,43h8v1h-8z M27,43h1v1h-1z M42,43h5v1h-5z M56,43h10v1h-10z M102,43h2v1h-2z M129,43h8v1h-8z M141,42h9v2h-9z M209,43h10v1h-10z M235,43h14v1h-14z M43,44h4v1h-4z M56,44h9v1h-9z M115,44h4v1h-4z M130,44h7v1h-7z M143,44h7v1h-7z M165,43h9v2h-9z M194,41h4v4h-4z M210,44h9v1h-9z M235,44h16v1h-16z M55,45h10v1h-10z M69,45h3v1h-3z M111,45h8v1h-8z M131,45h1v1h-1z M211,45h9v1h-9z M228,45h3v1h-3z M236,45h8v1h-8z M245,45h7v1h-7z M43,45h5v2h-5z M55,46h9v1h-9z M69,46h4v1h-4z M109,46h10v1h-10z M166,45h8v2h-8z M211,46h10v1h-10z M237,46h8v1h-8z M246,46h6v1h-6z M13,44h9v4h-9z M54,47h9v1h-9z M69,47h6v1h-6z M88,46h10v2h-10z M106,47h14v1h-14z M156,47h3v1h-3z M212,47h9v1h-9z M227,46h4v2h-4z M239,47h13v1h-13z M12,48h9v1h-9z M25,44h4v5h-4z M54,48h8v1h-8z M69,48h8v1h-8z M88,48h9v1h-9z M104,48h17v1h-17z M180,48h3v1h-3z M212,48h4v1h-4z M217,48h4v1h-4z M226,48h5v1h-5z M241,48h7v1h-7z M249,48h1v1h-1z M12,49h8v1h-8z M44,47h4v3h-4z M70,49h8v1h-8z M88,49h7v1h-7z M126,49h2v1h-2z M155,48h4v2h-4z M180,49h4v1h-4z M212,49h9v1h-9z M226,49h4v1h-4z M242,49h7v1h-7z M24,49h5v2h-5z M45,50h3v1h-3z M53,49h9v2h-9z M73,50h5v1h-5z M103,49h18v2h-18z M125,50h8v1h-8z M154,50h5v1h-5z M166,47h9v4h-9z M180,50h6v1h-6z M194,50h6v1h-6z M213,50h9v1h-9z M244,50h5v1h-5z M11,50h9v2h-9z M36,51h4v1h-4z M54,51h7v1h-7z M75,51h2v1h-2z M103,51h16v1h-16z M125,51h9v1h-9z M139,51h4v1h-4z M153,51h5v1h-5z M166,51h10v1h-10z M181,51h7v1h-7z M194,51h7v1h-7z M212,51h6v1h-6z M225,50h5v2h-5z M245,51h4v1h-4z M24,51h4v2h-4z M56,52h5v1h-5z M81,51h3v2h-3z M103,52h12v1h-12z M126,52h8v1h-8z M138,52h5v1h-5z M165,52h1v1h-1z M182,52h6v1h-6z M193,52h9v1h-9z M207,52h3v1h-3z M213,52h4v1h-4z M225,52h4v1h-4z M247,52h1v1h-1z M11,52h8v2h-8z M25,53h3v1h-3z M36,52h5v2h-5z M57,53h3v1h-3z M81,53h4v1h-4z M103,53h10v1h-10z M128,53h5v1h-5z M137,53h6v1h-6z M153,52h4v2h-4z M183,53h5v1h-5z M206,53h4v1h-4z M215,53h1v1h-1z M226,53h2v1h-2z M255,53h2v1h-2z M10,54h9v1h-9z M26,54h1v1h-1z M33,54h9v1h-9z M57,54h2v1h-2z M77,54h9v1h-9z M103,54h6v1h-6z M153,54h3v1h-3z M167,52h9v3h-9z M184,54h4v1h-4z M206,54h5v1h-5z M253,54h4v1h-4z M10,55h8v1h-8z M77,55h10v1h-10z M104,55h1v1h-1z M135,54h10v2h-10z M154,55h1v1h-1z M192,53h9v3h-9z M252,55h5v1h-5z M1,37h4v20h-4z M9,56h9v1h-9z M33,55h10v2h-10z M117,56h2v1h-2z M133,56h12v1h-12z M168,55h9v2h-9z M192,56h8v1h-8z M251,56h6v1h-6z M1,57h5v1h-5z M9,57h8v1h-8z M33,57h11v1h-11z M77,56h11v2h-11z M117,57h4v1h-4z M132,57h13v1h-13z M169,57h8v1h-8z M235,57h3v1h-3z M250,57h6v1h-6z M10,58h7v1h-7z M34,58h11v1h-11z M78,58h12v1h-12z M98,58h2v1h-2z M117,58h5v1h-5z M131,58h13v1h-13z M173,58h4v1h-4z M191,57h9v2h-9z M205,55h5v4h-5z M214,58h3v1h-3z M233,58h5v1h-5z M249,58h6v1h-6z M11,59h6v1h-6z M35,59h11v1h-11z M79,59h11v1h-11z M118,59h5v1h-5z M130,59h13v1h-13z M190,59h10v1h-10z M214,59h4v1h-4z M230,59h9v1h-9z M249,59h5v1h-5z M36,60h5v1h-5z M42,60h5v1h-5z M80,60h5v1h-5z M86,60h5v1h-5z M119,60h4v1h-4z M128,60h14v1h-14z M190,60h9v1h-9z M205,59h4v2h-4z M213,60h6v1h-6z M228,60h12v1h-12z M249,60h4v1h-4z M1,58h4v4h-4z M13,60h3v2h-3z M55,61h2v1h-2z M87,61h4v1h-4z M97,59h3v3h-3z M121,61h2v1h-2z M127,61h14v1h-14z M189,61h10v1h-10z M206,61h2v1h-2z M213,61h4v1h-4z M225,61h16v1h-16z M249,61h3v1h-3z M31,62h1v1h-1z M37,61h11v2h-11z M81,61h5v2h-5z M87,62h5v1h-5z M127,62h12v1h-12z M189,62h9v1h-9z M215,62h2v1h-2z M223,62h18v1h-18z M250,62h1v1h-1z M38,63h11v1h-11z M54,62h4v2h-4z M82,63h11v1h-11z M96,62h4v2h-4z M126,63h12v1h-12z M143,63h1v1h-1z M156,63h3v1h-3z M171,63h4v1h-4z M188,63h10v1h-10z M222,63h18v1h-18z M1,62h5v3h-5z M39,64h10v1h-10z M83,64h5v1h-5z M89,64h4v1h-4z M96,64h3v1h-3z M108,64h7v1h-7z M127,64h9v1h-9z M142,64h3v1h-3z M156,64h4v1h-4z M167,64h9v1h-9z M222,64h16v1h-16z M253,64h1v1h-1z M40,65h8v1h-8z M53,64h4v2h-4z M62,65h2v1h-2z M67,65h2v1h-2z M83,65h6v1h-6z M107,65h8v1h-8z M127,65h8v1h-8z M156,65h5v1h-5z M222,65h13v1h-13z M252,65h3v1h-3z M29,63h4v4h-4z M41,66h3v1h-3z M62,66h3v1h-3z M66,66h3v1h-3z M84,66h4v1h-4z M128,66h7v1h-7z M142,65h4v2h-4z M154,66h8v1h-8z M167,65h8v2h-8z M188,64h9v3h-9z M223,66h10v1h-10z M43,67h1v1h-1z M52,66h4v2h-4z M85,67h3v1h-3z M107,66h9v2h-9z M128,67h5v1h-5z M142,67h5v1h-5z M152,67h11v1h-11z M168,67h5v1h-5z M191,67h5v1h-5z M224,67h7v1h-7z M249,66h7v2h-7z M9,68h4v1h-4z M52,68h3v1h-3z M130,68h2v1h-2z M152,68h13v1h-13z M168,68h1v1h-1z M192,68h3v1h-3z M224,68h5v1h-5z M239,68h2v1h-2z M9,69h5v1h-5z M28,67h4v3h-4z M108,68h8v2h-8z M143,68h4v2h-4z M153,69h13v1h-13z M180,69h3v1h-3z M193,69h1v1h-1z M208,69h3v1h-3z M238,69h6v1h-6z M248,68h8v2h-8z M9,70h7v1h-7z M76,70h3v1h-3z M144,70h4v1h-4z M154,70h13v1h-13z M207,70h5v1h-5z M238,70h7v1h-7z M1,65h4v7h-4z M10,71h7v1h-7z M76,71h4v1h-4z M144,71h3v1h-3z M155,71h6v1h-6z M162,71h5v1h-5z M179,70h4v2h-4z M205,71h8v1h-8z M239,71h7v1h-7z M249,70h8v2h-8z M1,72h5v1h-5z M12,72h6v1h-6z M37,72h1v1h-1z M76,72h5v1h-5z M145,72h1v1h-1z M156,72h13v1h-13z M178,72h5v1h-5z M205,72h10v1h-10z M239,72h8v1h-8z M250,72h7v1h-7z M1,73h4v1h-4z M14,73h4v1h-4z M36,73h5v1h-5z M76,73h7v1h-7z M98,73h3v1h-3z M157,73h13v1h-13z M178,73h4v1h-4z M196,73h3v1h-3z M205,73h11v1h-11z M242,73h5v1h-5z M1,74h5v1h-5z M16,74h1v1h-1z M36,74h6v1h-6z M78,74h6v1h-6z M98,74h4v1h-4z M125,74h2v1h-2z M158,74h12v1h-12z M177,74h5v1h-5z M195,74h4v1h-4z M205,74h12v1h-12z M243,74h2v1h-2z M250,73h8v2h-8z M36,75h7v1h-7z M61,67h9v9h-9z M79,75h5v1h-5z M91,75h2v1h-2z M99,75h4v1h-4z M125,75h3v1h-3z M138,75h1v1h-1z M159,75h11v1h-11z M177,75h4v1h-4z M205,75h13v1h-13z M1,75h4v2h-4z M25,76h4v1h-4z M39,76h4v1h-4z M81,76h2v1h-2z M90,76h4v1h-4z M99,76h5v1h-5z M137,76h3v1h-3z M160,76h11v1h-11z M176,76h5v1h-5z M195,75h5v2h-5z M206,76h13v1h-13z M251,75h7v2h-7z M261,8h4v69h-4z M1,77h5v1h-5z M22,77h8v1h-8z M41,77h2v1h-2z M89,77h5v1h-5z M100,77h4v1h-4z M124,76h4v2h-4z M153,77h1v1h-1z M161,77h10v1h-10z M177,77h2v1h-2z M207,77h13v1h-13z M234,77h1v1h-1z M251,77h8v1h-8z M1,78h6v1h-6z M18,78h11v1h-11z M46,78h1v1h-1z M88,78h7v1h-7z M101,78h2v1h-2z M150,78h5v1h-5z M162,78h7v1h-7z M194,77h5v2h-5z M209,78h12v1h-12z M233,78h3v1h-3z M237,78h2v1h-2z M262,77h3v2h-3z M14,79h15v1h-15z M45,79h3v1h-3z M123,78h4v2h-4z M147,79h9v1h-9z M163,79h4v1h-4z M251,78h9v2h-9z M1,79h7v2h-7z M13,80h15v1h-15z M44,80h4v1h-4z M87,79h9v2h-9z M122,80h4v1h-4z M145,80h10v1h-10z M165,80h2v1h-2z M193,79h5v2h-5z M210,79h13v2h-13z M252,80h8v1h-8z M1,81h6v1h-6z M12,81h13v1h-13z M26,81h3v1h-3z M43,81h4v1h-4z M62,76h8v6h-8z M86,81h10v1h-10z M107,70h9v12h-9z M145,81h9v1h-9z M184,81h1v1h-1z M193,81h4v1h-4z M212,81h10v1h-10z M253,81h6v1h-6z M13,82h6v1h-6z M20,82h10v1h-10z M42,82h5v1h-5z M49,82h1v1h-1z M62,82h3v1h-3z M66,82h4v1h-4z M86,82h9v1h-9z M108,82h7v1h-7z M122,81h3v2h-3z M145,82h5v1h-5z M180,82h7v1h-7z M192,82h4v1h-4z M213,82h9v1h-9z M253,82h3v1h-3z M13,83h17v1h-17z M42,83h9v1h-9z M63,83h2v1h-2z M67,83h3v1h-3z M85,83h10v1h-10z M122,83h2v1h-2z M145,83h3v1h-3z M179,83h8v1h-8z M193,83h3v1h-3z M214,83h5v1h-5z M254,83h1v1h-1z M13,84h16v1h-16z M41,84h10v1h-10z M67,84h2v1h-2z M85,84h9v1h-9z M214,84h4v1h-4z M232,79h8v6h-8z M13,85h14v1h-14z M41,85h9v1h-9z M55,85h2v1h-2z M84,85h4v1h-4z M89,85h5v1h-5z M14,86h8v1h-8z M40,86h10v1h-10z M55,86h3v1h-3z M83,86h10v1h-10z M132,77h8v10h-8z M208,86h2v1h-2z M232,85h7v2h-7z M249,86h4v1h-4z M16,87h1v1h-1z M39,87h11v1h-11z M82,87h10v1h-10z M107,87h6v1h-6z M179,84h9v4h-9z M201,87h11v1h-11z M245,87h9v1h-9z M38,88h11v1h-11z M54,87h4v2h-4z M72,88h1v1h-1z M107,88h9v1h-9z M148,88h2v1h-2z M167,88h3v1h-3z M180,88h8v1h-8z M223,88h3v1h-3z M244,88h10v1h-10z M38,89h10v1h-10z M54,89h5v1h-5z M70,89h5v1h-5z M82,88h9v2h-9z M108,89h9v1h-9z M147,89h3v1h-3z M167,89h5v1h-5z M200,88h13v2h-13z M231,87h8v3h-8z M243,89h11v1h-11z M37,90h10v1h-10z M82,90h8v1h-8z M110,90h7v1h-7z M146,90h5v1h-5z M167,90h6v1h-6z M200,90h11v1h-11z M243,90h9v1h-9z M23,91h4v1h-4z M36,91h11v1h-11z M69,90h6v2h-6z M85,91h4v1h-4z M95,90h3v2h-3z M113,91h3v1h-3z M159,91h4v1h-4z M167,91h7v1h-7z M180,89h9v3h-9z M222,89h4v3h-4z M230,90h9v2h-9z M243,91h4v1h-4z M23,92h5v1h-5z M36,92h10v1h-10z M55,90h4v3h-4z M84,92h5v1h-5z M95,92h4v1h-4z M146,91h4v2h-4z M158,92h6v1h-6z M169,92h6v1h-6z M221,92h5v1h-5z M24,93h5v1h-5z M35,93h10v1h-10z M56,93h3v1h-3z M85,93h3v1h-3z M117,93h6v1h-6z M131,87h9v7h-9z M147,93h3v1h-3z M157,93h7v1h-7z M170,93h5v1h-5z M181,92h8v2h-8z M210,93h3v1h-3z M221,93h4v1h-4z M25,94h4v1h-4z M35,94h4v1h-4z M57,94h2v1h-2z M115,94h9v1h-9z M131,94h4v1h-4z M137,94h3v1h-3z M155,94h9v1h-9z M171,94h4v1h-4z M209,94h5v1h-5z M220,94h5v1h-5z M230,92h8v3h-8z M1,82h5v14h-5z M9,95h3v1h-3z M25,95h6v1h-6z M36,95h1v1h-1z M40,94h4v2h-4z M94,93h5v3h-5z M112,95h11v1h-11z M132,95h1v1h-1z M153,95h11v1h-11z M173,95h1v1h-1z M206,95h8v1h-8z M219,95h6v1h-6z M231,95h6v1h-6z M1,96h4v1h-4z M26,96h5v1h-5z M40,96h3v1h-3z M94,96h4v1h-4z M109,96h12v1h-12z M123,96h1v1h-1z M152,96h12v1h-12z M181,94h9v3h-9z M204,96h10v1h-10z M235,96h1v1h-1z M246,96h5v1h-5z M261,79h4v18h-4z M27,97h3v1h-3z M41,97h1v1h-1z M66,97h4v1h-4z M95,97h3v1h-3z M150,97h14v1h-14z M182,97h3v1h-3z M186,97h4v1h-4z M203,97h11v1h-11z M220,96h4v2h-4z M246,97h6v1h-6z M8,96h4v3h-4z M61,98h9v1h-9z M95,98h2v1h-2z M105,97h20v2h-20z M137,98h2v1h-2z M148,98h15v1h-15z M187,98h2v1h-2z M201,98h14v1h-14z M221,98h3v1h-3z M246,98h8v1h-8z M7,99h4v1h-4z M59,99h11v1h-11z M105,99h19v1h-19z M136,99h4v1h-4z M147,99h14v1h-14z M198,99h17v1h-17z M246,99h10v1h-10z M261,97h5v3h-5z M8,100h2v1h-2z M56,100h13v1h-13z M105,100h18v1h-18z M135,100h5v1h-5z M147,100h12v1h-12z M198,100h16v1h-16z M245,100h12v1h-12z M54,101h17v1h-17z M77,101h3v1h-3z M106,101h14v1h-14z M134,101h5v1h-5z M146,101h12v1h-12z M166,101h1v1h-1z M198,101h14v1h-14z M245,101h14v1h-14z M262,100h3v2h-3z M53,102h18v1h-18z M77,102h4v1h-4z M106,102h10v1h-10z M147,102h9v1h-9z M198,102h11v1h-11z M245,102h20v1h-20z M16,102h3v2h-3z M52,103h19v1h-19z M77,103h5v1h-5z M107,103h6v1h-6z M134,102h4v2h-4z M148,103h7v1h-7z M164,102h4v2h-4z M198,103h8v1h-8z M235,103h4v1h-4z M246,103h19v1h-19z M16,104h4v1h-4z M21,103h3v2h-3z M34,104h3v1h-3z M53,104h17v1h-17z M77,104h6v1h-6z M107,104h4v1h-4z M134,104h3v1h-3z M148,104h5v1h-5z M163,104h5v1h-5z M198,104h7v1h-7z M232,104h7v1h-7z M247,104h18v1h-18z M1,97h5v9h-5z M33,105h5v1h-5z M53,105h13v1h-13z M78,105h5v1h-5z M89,105h3v1h-3z M120,105h1v1h-1z M163,105h4v1h-4z M199,105h4v1h-4z M250,105h15v1h-15z M31,106h6v1h-6z M53,106h9v1h-9z M80,106h2v1h-2z M89,106h4v1h-4z M119,106h4v1h-4z M162,106h4v1h-4z M188,106h5v1h-5z M208,106h2v1h-2z M230,105h9v2h-9z M251,106h8v1h-8z M261,106h4v1h-4z M15,105h9v3h-9z M30,107h6v1h-6z M54,107h6v1h-6z M87,107h7v1h-7z M119,107h5v1h-5z M161,107h5v1h-5z M185,107h9v1h-9z M207,107h4v1h-4z M230,107h6v1h-6z M253,107h6v1h-6z M15,108h4v1h-4z M20,108h4v1h-4z M28,108h7v1h-7z M54,108h3v1h-3z M86,108h8v1h-8z M115,108h2v1h-2z M119,108h6v1h-6z M134,108h1v1h-1z M161,108h4v1h-4z M185,108h10v1h-10z M207,108h5v1h-5z M232,108h1v1h-1z M254,108h5v1h-5z M2,106h4v4h-4z M28,109h5v1h-5z M115,109h1v1h-1z M121,109h5v1h-5z M134,109h3v1h-3z M150,109h1v1h-1z M162,109h2v1h-2z M174,109h5v1h-5z M184,109h10v1h-10z M207,109h6v1h-6z M223,109h3v1h-3z M256,109h2v1h-2z M262,107h3v3h-3z M15,109h9v2h-9z M28,110h4v1h-4z M86,109h10v2h-10z M122,110h3v1h-3z M133,110h5v1h-5z M174,110h6v1h-6z M185,110h3v1h-3z M208,110h5v1h-5z M220,110h7v1h-7z M15,111h4v1h-4z M20,111h4v1h-4z M29,111h2v1h-2z M40,111h2v1h-2z M87,111h10v1h-10z M123,111h2v1h-2z M132,111h8v1h-8z M149,110h3v2h-3z M171,111h9v1h-9z M209,111h5v1h-5z M218,111h9v1h-9z M243,111h1v1h-1z M15,112h9v1h-9z M39,112h4v1h-4z M87,112h11v1h-11z M148,112h4v1h-4z M171,112h10v1h-10z M242,112h3v1h-3z M35,113h2v1h-2z M39,113h5v1h-5z M88,113h11v1h-11z M106,113h2v1h-2z M131,112h10v2h-10z M171,113h11v1h-11z M210,112h4v2h-4z M241,113h5v1h-5z M58,114h5v1h-5z M95,114h4v1h-4z M105,114h3v1h-3z M116,114h1v1h-1z M132,114h10v1h-10z M149,113h3v2h-3z M172,114h11v1h-11z M212,114h2v1h-2z M219,112h9v3h-9z M15,113h8v3h-8z M35,114h10v2h-10z M56,115h7v1h-7z M70,115h1v1h-1z M89,114h5v2h-5z M95,115h5v1h-5z M105,115h4v1h-4z M115,115h3v1h-3z M120,115h3v1h-3z M132,115h12v1h-12z M150,115h1v1h-1z M156,115h3v1h-3z M173,115h10v1h-10z M201,115h2v1h-2z M213,115h1v1h-1z M240,114h5v2h-5z M1,110h5v7h-5z M35,116h11v1h-11z M55,116h7v1h-7z M68,116h4v1h-4z M73,116h2v1h-2z M90,116h11v1h-11z M115,116h9v1h-9z M133,116h12v1h-12z M155,116h5v1h-5z M173,116h11v1h-11z M200,116h4v1h-4z M220,115h9v2h-9z M56,117h4v1h-4z M91,117h10v1h-10z M106,116h4v2h-4z M135,117h11v1h-11z M174,117h11v1h-11z M200,117h6v1h-6z M221,117h8v1h-8z M239,116h5v2h-5z M14,116h9v3h-9z M36,117h11v2h-11z M97,118h3v1h-3z M135,118h12v1h-12z M155,117h7v2h-7z M175,118h11v1h-11z M199,118h8v1h-8z M15,119h8v1h-8z M37,119h11v1h-11z M83,119h2v1h-2z M92,118h4v2h-4z M107,118h3v2h-3z M114,117h9v3h-9z M136,119h11v1h-11z M154,119h8v1h-8z M177,119h10v1h-10z M221,118h9v2h-9z M239,118h4v2h-4z M252,119h3v1h-3z M261,110h4v10h-4z M16,120h1v1h-1z M19,120h4v1h-4z M38,120h11v1h-11z M68,117h8v4h-8z M93,120h3v1h-3z M113,120h5v1h-5z M119,120h3v1h-3z M138,120h9v1h-9z M154,120h7v1h-7z M178,120h9v1h-9z M199,119h7v2h-7z M239,120h3v1h-3z M250,120h5v1h-5z M21,121h1v1h-1z M29,121h1v1h-1z M38,121h12v1h-12z M82,120h4v2h-4z M113,121h9v1h-9z M139,121h5v1h-5z M179,121h7v1h-7z M198,121h8v1h-8z M222,120h9v2h-9z M240,121h1v1h-1z M248,121h8v1h-8z M140,122h2v1h-2z M168,122h3v1h-3z M180,122h4v1h-4z M223,122h8v1h-8z M247,122h9v1h-9z M9,123h2v1h-2z M28,122h3v2h-3z M40,122h11v2h-11z M67,121h9v3h-9z M81,122h4v2h-4z M113,122h8v2h-8z M153,121h8v3h-8z M181,123h3v1h-3z M197,122h8v2h-8z M215,123h2v1h-2z M223,123h7v1h-7z M245,123h12v1h-12z M261,120h5v4h-5z M8,124h5v1h-5z M28,124h4v1h-4z M41,124h10v1h-10z M129,124h2v1h-2z M167,123h5v2h-5z M196,124h9v1h-9z M214,124h4v1h-4z M224,124h5v1h-5z M244,124h14v1h-14z M261,124h4v1h-4z M42,125h8v1h-8z M80,124h4v2h-4z M152,124h8v2h-8z M196,125h8v1h-8z M213,125h4v1h-4z M225,125h3v1h-3z M243,125h14v1h-14z M261,125h5v1h-5z M9,125h4v2h-4z M27,125h4v2h-4z M43,126h5v1h-5z M80,126h3v1h-3z M91,126h3v1h-3z M112,124h9v3h-9z M128,125h4v2h-4z M195,126h8v1h-8z M212,126h5v1h-5z M241,126h15v1h-15z M10,127h3v1h-3z M26,127h5v1h-5z M44,127h2v1h-2z M57,127h3v1h-3z M91,127h4v1h-4z M151,126h8v2h-8z M185,127h3v1h-3z M212,127h4v1h-4z M241,127h14v1h-14z M27,128h3v1h-3z M67,124h8v5h-8z M91,128h6v1h-6z M127,127h5v2h-5z M139,128h6v1h-6z M168,125h4v4h-4z M194,127h8v2h-8z M211,128h5v1h-5z M241,128h12v1h-12z M92,129h6v1h-6z M111,127h9v3h-9z M127,129h4v1h-4z M139,129h7v1h-7z M183,128h7v2h-7z M211,129h4v1h-4z M225,129h4v1h-4z M241,129h9v1h-9z M66,129h9v2h-9z M93,130h6v1h-6z M111,130h8v1h-8z M128,130h3v1h-3z M139,130h8v1h-8z M151,128h7v3h-7z M169,129h3v2h-3z M183,130h6v1h-6z M193,129h8v2h-8z M225,130h5v1h-5z M241,130h7v1h-7z M2,117h4v15h-4z M67,131h3v1h-3z M71,131h4v1h-4z M95,131h4v1h-4z M112,131h2v1h-2z M115,131h4v1h-4z M141,131h5v1h-5z M151,131h6v1h-6z M170,131h2v1h-2z M210,130h4v2h-4z M225,131h7v1h-7z M242,131h5v1h-5z M2,132h6v1h-6z M57,128h4v5h-4z M67,132h8v1h-8z M116,132h2v1h-2z M152,132h1v1h-1z M171,132h1v1h-1z M210,132h2v1h-2z M227,132h5v1h-5z M243,132h2v1h-2z M261,126h4v7h-4z M2,133h98v1h-98z M101,133h7v1h-7z M114,133h4v1h-4z M141,133h4v1h-4z M146,133h1v1h-1z M153,133h5v1h-5z M170,133h2v1h-2z M175,133h1v1h-1z M193,131h7v3h-7z M227,133h6v1h-6z M248,133h1v1h-1z M260,133h5v1h-5z M2,134h263v2h-263z M4,136h261v1h-261z M63,137h1v1h-1z M86,137h5v1h-5z M94,137h8v1h-8z M103,137h1v1h-1z M107,137h157v1h-157z M97,138h4v1h-4z
  "/>
</svg>