<?xml version="1.0" encoding="UTF-8"?>
<svg xmlns="http://www.w3.org/2000/svg" viewBox="0 0 272 140" width="272" height="140">
  <title>44 Schistose or gneissoid granite</title>
  <path fill="#111111" fill-rule="nonzero" d="
    M4,1h153v1h-153z M160,1h5v1h-5z M167,1h7v1h-7z M177,1h2v1h-2z M191,1h1v1h-1z M2,2h245v1h-245z M249,2h5v1h-5z M255,2h1v1h-1z M2,3h268v1h-268z M2,4h270v1h-270z M11,5h6v1h-6z M26,5h4v1h-4z M39,5h5v1h-5z M90,5h7v1h-7z M108,5h5v1h-5z M116,5h7v1h-7z M140,5h7v1h-7z M168,5h1v1h-1z M172,5h11v1h-11z M185,5h2v1h-2z M192,5h80v1h-80z M12,6h5v1h-5z M26,6h5v1h-5z M57,5h1v2h-1z M68,5h5v2h-5z M93,6h5v1h-5z M117,6h6v1h-6z M141,6h6v1h-6z M195,6h5v1h-5z M207,6h1v1h-1z M213,6h6v1h-6z M228,6h11v1h-11z M250,6h21v1h-21z M13,7h4v1h-4z M26,7h7v1h-7z M40,6h4v2h-4z M57,7h2v1h-2z M69,7h4v1h-4z M109,6h3v2h-3z M119,7h5v1h-5z M133,7h3v1h-3z M143,7h5v1h-5z M173,6h4v2h-4z M196,7h4v1h-4z M206,7h3v1h-3z M214,7h5v1h-5z M228,7h3v1h-3z M233,7h6v1h-6z M250,7h5v1h-5z M256,7h5v1h-5z M266,7h5v1h-5z M13,8h5v1h-5z M26,8h9v1h-9z M41,8h4v1h-4z M70,8h4v1h-4z M94,7h5v2h-5z M120,8h5v1h-5z M133,8h4v1h-4z M144,8h5v1h-5z M174,8h3v1h-3z M186,8h2v1h-2z M197,8h3v1h-3z M206,8h4v1h-4z M216,8h4v1h-4z M234,8h6v1h-6z M258,8h3v1h-3z M2,5h4v5h-4z M14,9h5v1h-5z M28,9h8v1h-8z M71,9h3v1h-3z M82,9h5v1h-5z M95,9h5v1h-5z M121,9h5v1h-5z M134,9h4v1h-4z M145,9h5v1h-5z M162,9h3v1h-3z M174,9h4v1h-4z M185,9h5v1h-5z M217,9h4v1h-4z M228,8h4v2h-4z M235,9h6v1h-6z M247,8h8v2h-8z M258,9h4v1h-4z M15,10h4v1h-4z M30,10h7v1h-7z M42,9h4v2h-4z M71,10h4v1h-4z M82,10h7v1h-7z M96,10h5v1h-5z M122,10h4v1h-4z M134,10h5v1h-5z M146,10h5v1h-5z M175,10h4v1h-4z M186,10h5v1h-5z M197,9h4v2h-4z M207,9h4v2h-4z M218,10h4v1h-4z M238,10h4v1h-4z M246,10h6v1h-6z M259,10h4v1h-4z M266,8h4v3h-4z M1,10h5v2h-5z M7,11h1v1h-1z M16,11h4v1h-4z M33,11h4v1h-4z M43,11h4v1h-4z M57,8h3v4h-3z M83,11h8v1h-8z M97,11h4v1h-4z M109,8h4v4h-4z M123,11h4v1h-4z M135,11h6v1h-6z M147,11h6v1h-6z M162,10h4v2h-4z M175,11h5v1h-5z M186,11h6v1h-6z M198,11h4v1h-4z M208,11h4v1h-4z M219,11h4v1h-4z M229,10h4v2h-4z M246,11h4v1h-4z M260,11h3v1h-3z M16,12h6v1h-6z M34,12h2v1h-2z M44,12h4v1h-4z M57,12h4v1h-4z M72,11h4v2h-4z M84,12h9v1h-9z M98,12h4v1h-4z M110,12h3v1h-3z M124,12h4v1h-4z M136,12h6v1h-6z M148,12h6v1h-6z M176,12h4v1h-4z M187,12h6v1h-6z M199,12h3v1h-3z M209,12h4v1h-4z M219,12h5v1h-5z M230,12h3v1h-3z M239,11h5v2h-5z M260,12h4v1h-4z M17,13h6v1h-6z M45,13h4v1h-4z M73,13h4v1h-4z M87,13h7v1h-7z M99,13h4v1h-4z M125,13h5v1h-5z M137,13h5v1h-5z M150,13h5v1h-5z M163,12h4v2h-4z M177,13h4v1h-4z M189,13h5v1h-5z M209,13h5v1h-5z M220,13h5v1h-5z M241,13h4v1h-4z M261,13h4v1h-4z M267,11h3v3h-3z M2,12h8v3h-8z M18,14h6v1h-6z M45,14h5v1h-5z M74,14h4v1h-4z M89,14h5v1h-5z M100,14h4v1h-4z M110,13h4v2h-4z M126,14h5v1h-5z M138,14h4v1h-4z M152,14h4v1h-4z M164,14h4v1h-4z M177,14h5v1h-5z M190,14h5v1h-5z M199,13h4v2h-4z M210,14h4v1h-4z M221,14h4v1h-4z M230,13h4v2h-4z M242,14h4v1h-4z M262,14h3v1h-3z M266,14h4v1h-4z M2,15h4v1h-4z M7,15h4v1h-4z M19,15h6v1h-6z M46,15h4v1h-4z M74,15h5v1h-5z M100,15h5v1h-5z M127,15h4v1h-4z M139,15h3v1h-3z M153,15h5v1h-5z M165,15h4v1h-4z M178,15h4v1h-4z M191,15h4v1h-4z M200,15h4v1h-4z M222,15h4v1h-4z M231,15h3v1h-3z M242,15h5v1h-5z M20,16h6v1h-6z M46,16h5v1h-5z M58,13h3v4h-3z M75,16h4v1h-4z M101,16h4v1h-4z M128,16h4v1h-4z M154,16h5v1h-5z M165,16h5v1h-5z M179,16h4v1h-4z M193,16h2v1h-2z M201,16h3v1h-3z M211,15h4v2h-4z M223,16h4v1h-4z M243,16h5v1h-5z M262,15h8v2h-8z M8,16h4v2h-4z M21,17h6v1h-6z M47,17h5v1h-5z M59,17h2v1h-2z M76,17h4v1h-4z M101,17h5v1h-5z M129,17h5v1h-5z M154,17h6v1h-6z M166,17h4v1h-4z M180,17h4v1h-4z M201,17h4v1h-4z M212,17h2v1h-2z M224,17h4v1h-4z M232,16h2v2h-2z M244,17h5v1h-5z M256,16h3v2h-3z M263,17h7v1h-7z M2,16h3v3h-3z M9,18h3v1h-3z M42,18h3v1h-3z M48,18h5v1h-5z M76,18h5v1h-5z M102,18h4v1h-4z M111,15h3v4h-3z M130,18h5v1h-5z M156,18h5v1h-5z M167,18h3v1h-3z M181,18h4v1h-4z M202,18h3v1h-3z M225,18h3v1h-3z M245,18h5v1h-5z M9,19h4v1h-4z M23,18h5v2h-5z M40,19h5v1h-5z M49,19h4v1h-4z M77,19h5v1h-5z M103,19h4v1h-4z M112,19h2v1h-2z M131,19h4v1h-4z M157,19h5v1h-5z M168,19h2v1h-2z M181,19h5v1h-5z M202,19h4v1h-4z M225,19h4v1h-4z M246,19h4v1h-4z M256,18h4v2h-4z M264,18h6v2h-6z M10,20h3v1h-3z M24,20h5v1h-5z M39,20h6v1h-6z M49,20h6v1h-6z M78,20h4v1h-4z M103,20h5v1h-5z M131,20h5v1h-5z M158,20h5v1h-5z M182,20h5v1h-5z M201,20h6v1h-6z M247,20h4v1h-4z M265,20h5v1h-5z M11,21h1v1h-1z M22,21h1v1h-1z M25,21h6v1h-6z M37,21h7v1h-7z M50,21h5v1h-5z M79,21h4v1h-4z M104,21h4v1h-4z M133,21h4v1h-4z M154,21h1v1h-1z M160,21h4v1h-4z M183,21h5v1h-5z M226,20h4v2h-4z M248,21h4v1h-4z M257,20h3v2h-3z M266,21h4v1h-4z M2,19h4v4h-4z M21,22h2v1h-2z M26,22h5v1h-5z M37,22h5v1h-5z M52,22h5v1h-5z M80,22h4v1h-4z M105,22h4v1h-4z M133,22h5v1h-5z M152,22h4v1h-4z M161,22h4v1h-4z M184,22h4v1h-4z M200,21h8v2h-8z M225,22h5v1h-5z M249,22h4v1h-4z M257,22h4v1h-4z M266,22h5v1h-5z M27,23h5v1h-5z M36,23h5v1h-5z M53,23h5v1h-5z M81,23h5v1h-5z M106,23h3v1h-3z M135,23h4v1h-4z M151,23h5v1h-5z M162,23h4v1h-4z M185,23h5v1h-5z M200,23h9v1h-9z M223,23h8v1h-8z M249,23h5v1h-5z M258,23h3v1h-3z M266,23h4v1h-4z M1,23h5v2h-5z M20,23h3v2h-3z M28,24h5v1h-5z M37,24h2v1h-2z M54,24h5v1h-5z M82,24h5v1h-5z M106,24h4v1h-4z M136,24h3v1h-3z M147,24h8v1h-8z M163,24h4v1h-4z M186,24h5v1h-5z M205,24h5v1h-5z M221,24h6v1h-6z M228,24h4v1h-4z M245,24h2v1h-2z M251,24h4v1h-4z M259,24h2v1h-2z M19,25h4v1h-4z M29,25h5v1h-5z M55,25h5v1h-5z M83,25h5v1h-5z M106,25h5v1h-5z M124,25h4v1h-4z M136,25h4v1h-4z M145,25h8v1h-8z M163,25h5v1h-5z M187,25h4v1h-4z M207,25h4v1h-4z M220,25h6v1h-6z M243,25h4v1h-4z M251,25h5v1h-5z M267,24h3v2h-3z M18,26h4v1h-4z M30,26h5v1h-5z M56,26h5v1h-5z M75,26h3v1h-3z M83,26h6v1h-6z M103,26h9v1h-9z M124,26h5v1h-5z M137,26h4v1h-4z M145,26h7v1h-7z M164,26h5v1h-5z M187,26h5v1h-5z M207,26h5v1h-5z M219,26h6v1h-6z M229,25h4v2h-4z M241,26h6v1h-6z M252,26h5v1h-5z M2,25h5v3h-5z M31,27h5v1h-5z M57,27h5v1h-5z M69,27h10v1h-10z M85,27h5v1h-5z M100,27h13v1h-13z M124,27h6v1h-6z M137,27h5v1h-5z M146,27h3v1h-3z M165,27h4v1h-4z M189,27h4v1h-4z M200,24h3v4h-3z M208,27h5v1h-5z M218,27h6v1h-6z M230,27h4v1h-4z M240,27h6v1h-6z M253,27h5v1h-5z M266,26h4v2h-4z M2,28h6v1h-6z M17,27h4v2h-4z M32,28h4v1h-4z M58,28h5v1h-5z M68,28h11v1h-11z M86,28h5v1h-5z M98,28h9v1h-9z M109,28h5v1h-5z M125,28h6v1h-6z M138,28h5v1h-5z M167,28h3v1h-3z M182,28h4v1h-4z M190,28h4v1h-4z M209,28h5v1h-5z M218,28h4v1h-4z M231,28h3v1h-3z M239,28h6v1h-6z M255,28h4v1h-4z M266,28h5v1h-5z M1,29h7v1h-7z M16,29h5v1h-5z M33,29h4v1h-4z M51,29h1v1h-1z M59,29h5v1h-5z M67,29h10v1h-10z M87,29h6v1h-6z M97,29h9v1h-9z M110,29h5v1h-5z M127,29h6v1h-6z M139,29h4v1h-4z M167,29h4v1h-4z M178,29h8v1h-8z M191,29h5v1h-5z M210,29h5v1h-5z M218,29h3v1h-3z M239,29h4v1h-4z M256,29h4v1h-4z M1,30h8v1h-8z M16,30h3v1h-3z M34,30h4v1h-4z M60,30h5v1h-5z M67,30h9v1h-9z M88,30h6v1h-6z M97,30h6v1h-6z M111,30h5v1h-5z M128,30h6v1h-6z M140,30h4v1h-4z M168,30h3v1h-3z M175,30h11v1h-11z M192,30h4v1h-4z M199,28h4v3h-4z M212,30h4v1h-4z M232,29h3v2h-3z M240,30h2v1h-2z M257,30h4v1h-4z M1,31h9v1h-9z M15,31h4v1h-4z M34,31h5v1h-5z M61,31h5v1h-5z M70,31h1v1h-1z M90,31h5v1h-5z M96,31h5v1h-5z M112,31h5v1h-5z M129,31h5v1h-5z M141,31h3v1h-3z M159,31h1v1h-1z M168,31h4v1h-4z M175,31h10v1h-10z M193,31h4v1h-4z M201,31h1v1h-1z M213,31h4v1h-4z M232,31h4v1h-4z M258,31h4v1h-4z M1,32h10v1h-10z M16,32h2v1h-2z M35,32h4v1h-4z M50,30h3v3h-3z M62,32h5v1h-5z M91,32h7v1h-7z M113,32h5v1h-5z M131,32h2v1h-2z M141,32h4v1h-4z M158,32h3v1h-3z M175,32h6v1h-6z M194,32h4v1h-4z M213,32h6v1h-6z M233,32h4v1h-4z M259,32h5v1h-5z M266,29h4v4h-4z M7,33h4v1h-4z M35,33h5v1h-5z M63,33h4v1h-4z M92,33h5v1h-5z M114,33h6v1h-6z M142,33h3v1h-3z M169,32h4v2h-4z M195,33h4v1h-4z M215,33h5v1h-5z M234,33h4v1h-4z M251,33h1v1h-1z M261,33h9v1h-9z M1,33h5v2h-5z M8,34h4v1h-4z M36,34h4v1h-4z M64,34h4v1h-4z M93,34h5v1h-5z M115,34h6v1h-6z M142,34h4v1h-4z M170,34h3v1h-3z M196,34h4v1h-4z M216,34h5v1h-5z M235,34h3v1h-3z M250,34h3v1h-3z M262,34h8v1h-8z M8,35h5v1h-5z M37,35h3v1h-3z M50,33h4v3h-4z M94,35h5v1h-5z M117,35h5v1h-5z M157,33h4v3h-4z M170,35h4v1h-4z M196,35h5v1h-5z M217,35h5v1h-5z M235,35h4v1h-4z M250,35h4v1h-4z M264,35h6v1h-6z M9,36h6v1h-6z M37,36h4v1h-4z M65,35h4v2h-4z M95,36h4v1h-4z M118,36h5v1h-5z M143,35h4v2h-4z M197,36h4v1h-4z M218,36h5v1h-5z M236,36h4v1h-4z M265,36h5v1h-5z M10,37h6v1h-6z M38,37h3v1h-3z M51,36h3v2h-3z M66,37h4v1h-4z M83,37h1v1h-1z M96,37h4v1h-4z M119,37h5v1h-5z M171,36h4v2h-4z M219,37h5v1h-5z M229,37h3v1h-3z M237,37h4v1h-4z M251,36h4v2h-4z M266,37h4v1h-4z M1,35h4v4h-4z M11,38h6v1h-6z M26,38h3v1h-3z M38,38h4v1h-4z M83,38h2v1h-2z M97,38h4v1h-4z M111,38h1v1h-1z M120,38h5v1h-5z M144,37h4v2h-4z M172,38h4v1h-4z M198,37h4v2h-4z M221,38h4v1h-4z M229,38h4v1h-4z M238,38h4v1h-4z M12,39h6v1h-6z M25,39h6v1h-6z M39,39h3v1h-3z M51,38h4v2h-4z M67,38h4v2h-4z M111,39h2v1h-2z M121,39h6v1h-6z M145,39h4v1h-4z M173,39h3v1h-3z M199,39h4v1h-4z M221,39h5v1h-5z M229,39h6v1h-6z M239,39h5v1h-5z M252,38h4v2h-4z M266,38h5v2h-5z M2,39h3v2h-3z M13,40h6v1h-6z M26,40h6v1h-6z M39,40h4v1h-4z M98,39h4v2h-4z M122,40h5v1h-5z M145,40h5v1h-5z M158,36h3v5h-3z M173,40h4v1h-4z M199,40h5v1h-5z M223,40h4v1h-4z M230,40h5v1h-5z M240,40h5v1h-5z M253,40h4v1h-4z M15,41h5v1h-5z M27,41h7v1h-7z M40,41h3v1h-3z M52,40h3v2h-3z M68,40h4v2h-4z M82,39h4v3h-4z M99,41h4v1h-4z M124,41h4v1h-4z M147,41h4v1h-4z M174,41h3v1h-3z M200,41h4v1h-4z M209,41h2v1h-2z M224,41h4v1h-4z M231,41h6v1h-6z M241,41h5v1h-5z M253,41h5v1h-5z M16,42h5v1h-5z M28,42h7v1h-7z M40,42h4v1h-4z M52,42h2v1h-2z M69,42h4v1h-4z M100,42h3v1h-3z M124,42h5v1h-5z M141,42h3v1h-3z M147,42h5v1h-5z M158,41h4v2h-4z M174,42h4v1h-4z M201,42h4v1h-4z M208,42h9v1h-9z M225,42h4v1h-4z M232,42h6v1h-6z M242,42h5v1h-5z M254,42h4v1h-4z M17,43h5v1h-5z M30,43h6v1h-6z M69,43h5v1h-5z M83,42h3v2h-3z M100,43h4v1h-4z M111,40h3v4h-3z M125,43h4v1h-4z M140,43h4v1h-4z M147,43h6v1h-6z M159,43h2v1h-2z M175,43h3v1h-3z M188,40h3v4h-3z M208,43h10v1h-10z M226,43h4v1h-4z M233,43h5v1h-5z M243,43h5v1h-5z M255,43h2v1h-2z M18,44h5v1h-5z M32,44h4v1h-4z M41,43h4v2h-4z M70,44h4v1h-4z M101,44h4v1h-4z M126,44h4v1h-4z M139,44h5v1h-5z M148,44h5v1h-5z M176,44h3v1h-3z M202,43h4v2h-4z M208,44h11v1h-11z M227,44h4v1h-4z M234,44h5v1h-5z M244,44h5v1h-5z M266,40h4v5h-4z M19,45h5v1h-5z M34,45h1v1h-1z M42,45h4v1h-4z M71,45h3v1h-3z M111,44h4v2h-4z M126,45h5v1h-5z M138,45h5v1h-5z M149,45h6v1h-6z M176,45h4v1h-4z M189,44h3v2h-3z M203,45h4v1h-4z M212,45h5v1h-5z M228,45h4v1h-4z M235,45h4v1h-4z M245,45h6v1h-6z M20,46h5v1h-5z M43,46h3v1h-3z M71,46h4v1h-4z M83,44h4v3h-4z M102,45h4v2h-4z M112,46h3v1h-3z M127,46h5v1h-5z M137,46h5v1h-5z M151,46h5v1h-5z M177,46h3v1h-3z M189,46h4v1h-4z M204,46h3v1h-3z M229,46h4v1h-4z M236,46h1v1h-1z M247,46h5v1h-5z M12,47h5v1h-5z M21,47h4v1h-4z M43,47h5v1h-5z M72,47h3v1h-3z M103,47h3v1h-3z M128,47h4v1h-4z M136,47h5v1h-5z M152,47h5v1h-5z M177,47h4v1h-4z M190,47h3v1h-3z M204,47h4v1h-4z M230,47h4v1h-4z M248,47h5v1h-5z M267,45h3v3h-3z M22,48h4v1h-4z M44,48h4v1h-4z M65,48h4v1h-4z M72,48h4v1h-4z M84,47h3v2h-3z M103,48h4v1h-4z M112,47h4v2h-4z M129,48h4v1h-4z M135,48h5v1h-5z M153,48h6v1h-6z M178,48h4v1h-4z M205,48h3v1h-3z M249,48h5v1h-5z M266,48h4v1h-4z M9,48h9v2h-9z M23,49h3v1h-3z M45,49h4v1h-4z M63,49h7v1h-7z M73,49h3v1h-3z M104,49h3v1h-3z M130,49h3v1h-3z M135,49h4v1h-4z M154,49h5v1h-5z M174,49h3v1h-3z M179,49h4v1h-4z M190,48h4v2h-4z M205,49h4v1h-4z M231,48h4v2h-4z M250,49h5v1h-5z M1,41h4v10h-4z M9,50h8v1h-8z M23,50h4v1h-4z M46,50h4v1h-4z M62,50h7v1h-7z M73,50h4v1h-4z M104,50h4v1h-4z M113,49h3v2h-3z M155,50h5v1h-5z M173,50h4v1h-4z M180,50h4v1h-4z M191,50h3v1h-3z M232,50h4v1h-4z M251,50h4v1h-4z M267,49h3v2h-3z M10,51h3v1h-3z M47,51h4v1h-4z M60,51h8v1h-8z M105,51h3v1h-3z M130,50h4v2h-4z M171,51h5v1h-5z M181,51h3v1h-3z M191,51h2v1h-2z M206,50h4v2h-4z M233,51h4v1h-4z M252,51h4v1h-4z M262,50h1v2h-1z M1,51h5v2h-5z M24,51h4v2h-4z M48,52h4v1h-4z M60,52h7v1h-7z M74,51h4v2h-4z M105,52h4v1h-4z M157,51h4v2h-4z M170,52h5v1h-5z M181,52h4v1h-4z M233,52h5v1h-5z M253,52h4v1h-4z M266,51h5v2h-5z M1,53h6v1h-6z M25,53h3v1h-3z M48,53h5v1h-5z M60,53h5v1h-5z M75,53h4v1h-4z M106,53h4v1h-4z M131,52h4v2h-4z M159,53h3v1h-3z M169,53h4v1h-4z M182,53h4v1h-4z M207,52h4v2h-4z M228,53h2v1h-2z M234,53h4v1h-4z M248,53h3v1h-3z M254,53h4v1h-4z M266,53h4v1h-4z M1,54h7v1h-7z M25,54h4v1h-4z M49,54h6v1h-6z M60,54h3v1h-3z M76,54h3v1h-3z M107,54h3v1h-3z M131,54h5v1h-5z M159,54h4v1h-4z M168,54h5v1h-5z M183,54h4v1h-4z M206,54h6v1h-6z M227,54h4v1h-4z M235,54h4v1h-4z M247,54h4v1h-4z M255,54h4v1h-4z M26,55h3v1h-3z M76,55h5v1h-5z M99,55h3v1h-3z M107,55h4v1h-4z M128,55h8v1h-8z M160,55h3v1h-3z M167,55h5v1h-5z M204,55h9v1h-9z M226,55h5v1h-5z M236,55h3v1h-3z M256,55h3v1h-3z M267,54h3v2h-3z M1,55h8v2h-8z M46,56h3v1h-3z M51,55h5v2h-5z M77,56h4v1h-4z M98,56h5v1h-5z M108,56h3v1h-3z M127,56h5v1h-5z M133,56h4v1h-4z M161,56h3v1h-3z M167,56h4v1h-4z M184,55h4v2h-4z M203,56h5v1h-5z M209,56h4v1h-4z M225,56h5v1h-5z M236,56h4v1h-4z M246,55h4v2h-4z M256,56h4v1h-4z M1,57h9v1h-9z M26,56h4v2h-4z M39,57h10v1h-10z M53,57h5v1h-5z M79,57h3v1h-3z M97,57h6v1h-6z M108,57h4v1h-4z M127,57h4v1h-4z M161,57h4v1h-4z M186,57h4v1h-4z M202,57h6v1h-6z M210,57h4v1h-4z M223,57h6v1h-6z M237,57h3v1h-3z M245,57h4v1h-4z M257,57h4v1h-4z M1,58h10v1h-10z M53,58h6v1h-6z M79,58h4v1h-4z M95,58h6v1h-6z M109,58h3v1h-3z M125,58h5v1h-5z M134,57h4v2h-4z M162,58h3v1h-3z M187,58h3v1h-3z M202,58h4v1h-4z M210,58h5v1h-5z M223,58h5v1h-5z M237,58h4v1h-4z M258,58h4v1h-4z M1,59h5v1h-5z M7,59h5v1h-5z M27,58h4v2h-4z M37,58h11v2h-11z M55,59h5v1h-5z M80,59h4v1h-4z M93,59h7v1h-7z M109,59h4v1h-4z M124,59h5v1h-5z M135,59h4v1h-4z M162,59h4v1h-4z M187,59h4v1h-4z M200,59h5v1h-5z M211,59h4v1h-4z M223,59h4v1h-4z M238,59h3v1h-3z M244,58h4v2h-4z M8,60h5v1h-5z M28,60h4v1h-4z M37,60h7v1h-7z M56,60h5v1h-5z M80,60h5v1h-5z M92,60h7v1h-7z M110,60h4v1h-4z M123,60h5v1h-5z M136,60h3v1h-3z M145,60h5v1h-5z M188,60h5v1h-5z M200,60h4v1h-4z M212,60h4v1h-4z M222,60h4v1h-4z M259,59h4v2h-4z M9,61h5v1h-5z M23,61h2v1h-2z M28,61h5v1h-5z M58,61h4v1h-4z M81,61h5v1h-5z M92,61h5v1h-5z M111,61h4v1h-4z M122,61h5v1h-5z M136,61h4v1h-4z M145,61h9v1h-9z M163,60h3v2h-3z M189,61h5v1h-5z M199,61h4v1h-4z M213,61h4v1h-4z M223,61h1v1h-1z M244,60h3v2h-3z M260,61h4v1h-4z M10,62h4v1h-4z M29,62h5v1h-5z M58,62h5v1h-5z M82,62h5v1h-5z M92,62h3v1h-3z M112,62h5v1h-5z M122,62h4v1h-4z M137,62h3v1h-3z M146,62h10v1h-10z M191,62h5v1h-5z M200,62h3v1h-3z M214,62h5v1h-5z M239,60h3v3h-3z M261,62h3v1h-3z M11,63h4v1h-4z M29,63h7v1h-7z M59,63h6v1h-6z M74,62h2v2h-2z M83,63h5v1h-5z M93,63h1v1h-1z M138,63h3v1h-3z M148,63h9v1h-9z M164,62h3v2h-3z M192,63h5v1h-5z M214,63h6v1h-6z M261,63h4v1h-4z M11,64h5v1h-5z M30,64h8v1h-8z M84,64h6v1h-6z M113,63h5v2h-5z M122,63h3v2h-3z M138,64h4v1h-4z M151,64h6v1h-6z M165,64h3v1h-3z M193,64h5v1h-5z M215,64h5v1h-5z M262,64h3v1h-3z M266,56h4v9h-4z M12,65h4v1h-4z M32,65h8v1h-8z M61,64h5v2h-5z M74,64h3v2h-3z M85,65h6v1h-6z M115,65h4v1h-4z M122,65h2v1h-2z M139,65h4v1h-4z M194,65h5v1h-5z M217,65h5v1h-5z M240,63h3v3h-3z M12,66h5v1h-5z M34,66h7v1h-7z M62,66h5v1h-5z M74,66h4v1h-4z M86,66h6v1h-6z M115,66h6v1h-6z M140,66h3v1h-3z M165,65h4v2h-4z M179,66h2v1h-2z M196,66h5v1h-5z M217,66h7v1h-7z M241,66h3v1h-3z M262,65h8v2h-8z M13,67h4v1h-4z M22,62h4v6h-4z M35,67h7v1h-7z M63,67h5v1h-5z M75,67h3v1h-3z M88,67h5v1h-5z M117,67h5v1h-5z M140,67h4v1h-4z M166,67h4v1h-4z M178,67h6v1h-6z M197,67h5v1h-5z M218,67h7v1h-7z M242,67h3v1h-3z M23,68h3v1h-3z M38,68h5v1h-5z M59,68h1v1h-1z M64,68h5v1h-5z M89,68h5v1h-5z M118,68h5v1h-5z M141,68h4v1h-4z M167,68h3v1h-3z M178,68h11v1h-11z M198,68h5v1h-5z M220,68h6v1h-6z M242,68h4v1h-4z M252,68h4v1h-4z M263,67h7v2h-7z M14,68h4v2h-4z M39,69h5v1h-5z M65,69h5v1h-5z M90,69h5v1h-5z M103,69h3v1h-3z M119,69h5v1h-5z M141,69h5v1h-5z M167,69h4v1h-4z M179,69h12v1h-12z M199,69h5v1h-5z M221,69h6v1h-6z M235,68h3v2h-3z M243,69h3v1h-3z M252,69h6v1h-6z M23,69h4v2h-4z M41,70h4v1h-4z M57,69h3v2h-3z M66,70h4v1h-4z M75,68h4v3h-4z M91,70h4v1h-4z M102,70h5v1h-5z M120,70h5v1h-5z M142,70h5v1h-5z M168,70h3v1h-3z M181,70h10v1h-10z M201,70h5v1h-5z M222,70h6v1h-6z M235,70h4v1h-4z M243,70h4v1h-4z M252,70h8v1h-8z M15,70h4v2h-4z M41,71h5v1h-5z M56,71h4v1h-4z M67,71h4v1h-4z M76,71h3v1h-3z M92,71h4v1h-4z M103,71h7v1h-7z M121,71h5v1h-5z M135,71h1v1h-1z M143,71h5v1h-5z M163,71h2v1h-2z M168,71h5v1h-5z M186,71h5v1h-5z M202,71h4v1h-4z M224,71h5v1h-5z M236,71h3v1h-3z M244,71h4v1h-4z M254,71h7v1h-7z M264,69h6v3h-6z M16,72h4v1h-4z M42,72h5v1h-5z M55,72h4v1h-4z M67,72h5v1h-5z M93,72h4v1h-4z M104,72h7v1h-7z M122,72h5v1h-5z M135,72h2v1h-2z M144,72h5v1h-5z M170,72h4v1h-4z M203,72h4v1h-4z M225,72h5v1h-5z M245,72h4v1h-4z M255,72h7v1h-7z M17,73h3v1h-3z M24,71h3v3h-3z M43,73h4v1h-4z M68,73h4v1h-4z M93,73h5v1h-5z M106,73h7v1h-7z M123,73h5v1h-5z M145,73h5v1h-5z M204,73h4v1h-4z M214,73h4v1h-4z M226,73h5v1h-5z M236,72h4v2h-4z M246,73h4v1h-4z M258,73h4v1h-4z M265,72h5v2h-5z M17,74h5v1h-5z M25,74h2v1h-2z M43,74h5v1h-5z M53,73h5v2h-5z M69,74h4v1h-4z M95,74h3v1h-3z M107,74h6v1h-6z M124,74h5v1h-5z M134,73h4v2h-4z M146,74h5v1h-5z M171,73h4v2h-4z M205,74h4v1h-4z M214,74h7v1h-7z M227,74h5v1h-5z M237,74h3v1h-3z M247,74h4v1h-4z M259,74h4v1h-4z M1,60h4v16h-4z M7,75h2v1h-2z M18,75h4v1h-4z M44,75h5v1h-5z M52,75h5v1h-5z M70,75h3v1h-3z M95,75h4v1h-4z M109,75h4v1h-4z M125,75h4v1h-4z M135,75h3v1h-3z M147,75h6v1h-6z M172,75h5v1h-5z M206,75h4v1h-4z M214,75h9v1h-9z M228,75h5v1h-5z M261,75h1v1h-1z M1,76h10v1h-10z M18,76h5v1h-5z M34,76h3v1h-3z M45,76h4v1h-4z M52,76h4v1h-4z M70,76h4v1h-4z M87,76h2v1h-2z M111,76h1v1h-1z M125,76h5v1h-5z M148,76h6v1h-6z M173,76h5v1h-5z M216,76h9v1h-9z M229,76h4v1h-4z M237,75h4v2h-4z M248,75h4v2h-4z M1,77h13v1h-13z M19,77h4v1h-4z M34,77h4v1h-4z M46,77h3v1h-3z M52,77h3v1h-3z M71,77h3v1h-3z M85,77h4v1h-4z M96,76h4v2h-4z M126,77h4v1h-4z M135,76h4v2h-4z M149,77h6v1h-6z M163,72h3v6h-3z M174,77h5v1h-5z M207,76h4v2h-4z M218,77h7v1h-7z M230,77h4v1h-4z M238,77h3v1h-3z M249,77h5v1h-5z M6,78h11v1h-11z M20,78h4v1h-4z M34,78h5v1h-5z M46,78h4v1h-4z M71,78h4v1h-4z M84,78h5v1h-5z M136,78h3v1h-3z M151,78h5v1h-5z M175,78h5v1h-5z M208,78h4v1h-4z M220,78h5v1h-5z M231,78h3v1h-3z M239,78h1v1h-1z M251,78h4v1h-4z M9,79h8v1h-8z M21,79h4v1h-4z M35,79h4v1h-4z M47,79h3v1h-3z M72,79h3v1h-3z M83,79h5v1h-5z M97,78h4v2h-4z M127,78h4v2h-4z M152,79h5v1h-5z M163,78h4v2h-4z M176,79h6v1h-6z M201,79h2v1h-2z M209,79h4v1h-4z M222,79h2v1h-2z M231,79h4v1h-4z M251,79h5v1h-5z M266,74h4v6h-4z M12,80h6v1h-6z M21,80h5v1h-5z M36,80h4v1h-4z M82,80h5v1h-5z M98,80h3v1h-3z M128,80h3v1h-3z M136,79h4v2h-4z M153,80h5v1h-5z M178,80h5v1h-5z M200,80h3v1h-3z M210,80h3v1h-3z M253,80h5v1h-5z M267,80h3v1h-3z M1,78h4v4h-4z M13,81h1v1h-1z M15,81h2v1h-2z M22,81h5v1h-5z M36,81h5v1h-5z M47,80h4v2h-4z M72,80h4v2h-4z M81,81h5v1h-5z M98,81h4v1h-4z M154,81h5v1h-5z M164,80h3v2h-3z M179,81h5v1h-5z M210,81h4v1h-4z M233,80h3v2h-3z M254,81h5v1h-5z M1,82h5v1h-5z M23,82h5v1h-5z M37,82h4v1h-4z M48,82h3v1h-3z M80,82h5v1h-5z M99,82h3v1h-3z M128,81h4v2h-4z M137,81h3v2h-3z M155,82h5v1h-5z M181,82h4v1h-4z M199,81h4v2h-4z M211,82h4v1h-4z M233,82h4v1h-4z M255,82h6v1h-6z M266,81h4v2h-4z M1,83h6v1h-6z M24,83h5v1h-5z M38,83h4v1h-4z M62,83h1v1h-1z M79,83h5v1h-5z M99,83h4v1h-4z M129,83h4v1h-4z M157,83h4v1h-4z M182,83h5v1h-5z M212,83h3v1h-3z M234,83h4v1h-4z M256,83h6v1h-6z M1,84h7v1h-7z M25,84h5v1h-5z M48,83h4v2h-4z M62,84h2v1h-2z M79,84h4v1h-4z M130,84h3v1h-3z M157,84h5v1h-5z M183,84h5v1h-5z M198,83h4v2h-4z M235,84h3v1h-3z M258,84h5v1h-5z M1,85h8v1h-8z M26,85h5v1h-5z M39,84h4v2h-4z M49,85h3v1h-3z M73,82h3v4h-3z M79,85h3v1h-3z M100,84h3v2h-3z M123,85h3v1h-3z M130,85h4v1h-4z M158,85h5v1h-5z M184,85h5v1h-5z M197,85h4v1h-4z M213,84h3v2h-3z M235,85h4v1h-4z M259,85h6v1h-6z M267,83h3v3h-3z M1,86h9v1h-9z M27,86h5v1h-5z M40,86h4v1h-4z M49,86h4v1h-4z M61,85h4v2h-4z M100,86h5v1h-5z M121,86h5v1h-5z M131,86h4v1h-4z M159,86h4v1h-4z M185,86h5v1h-5z M197,86h3v1h-3z M236,86h3v1h-3z M261,86h4v1h-4z M266,86h4v1h-4z M1,87h10v1h-10z M28,87h5v1h-5z M41,87h3v1h-3z M50,87h3v1h-3z M74,86h3v2h-3z M101,87h4v1h-4z M120,87h5v1h-5z M131,87h5v1h-5z M160,87h4v1h-4z M186,87h5v1h-5z M196,87h4v1h-4z M214,86h3v2h-3z M236,87h4v1h-4z M262,87h8v1h-8z M6,88h5v1h-5z M29,88h5v1h-5z M42,88h2v1h-2z M50,88h4v1h-4z M92,88h2v1h-2z M102,88h3v1h-3z M119,88h5v1h-5z M132,88h4v1h-4z M161,88h4v1h-4z M187,88h4v1h-4z M196,88h3v1h-3z M215,88h3v1h-3z M237,88h3v1h-3z M246,88h6v1h-6z M7,89h5v1h-5z M30,89h5v1h-5z M51,89h3v1h-3z M62,87h4v3h-4z M74,88h4v2h-4z M92,89h3v1h-3z M103,89h3v1h-3z M117,89h6v1h-6z M133,89h4v1h-4z M152,89h4v1h-4z M188,89h4v1h-4z M216,89h3v1h-3z M238,89h3v1h-3z M244,89h9v1h-9z M263,88h7v2h-7z M8,90h5v1h-5z M25,90h2v1h-2z M31,90h5v1h-5z M51,90h15v1h-15z M75,90h4v1h-4z M92,90h4v1h-4z M103,90h4v1h-4z M115,90h7v1h-7z M133,90h5v1h-5z M151,90h5v1h-5z M162,89h4v2h-4z M179,90h5v1h-5z M189,90h4v1h-4z M216,90h4v1h-4z M238,90h4v1h-4z M244,90h10v1h-10z M264,90h6v1h-6z M9,91h5v1h-5z M25,91h3v1h-3z M32,91h4v1h-4z M51,91h16v1h-16z M76,91h3v1h-3z M92,91h5v1h-5z M103,91h5v1h-5z M115,91h6v1h-6z M134,91h5v1h-5z M178,91h6v1h-6z M189,91h5v1h-5z M217,91h3v1h-3z M239,91h3v1h-3z M244,91h9v1h-9z M10,92h5v1h-5z M33,92h4v1h-4z M52,92h15v1h-15z M76,92h5v1h-5z M93,92h4v1h-4z M104,92h5v1h-5z M115,92h4v1h-4z M135,92h5v1h-5z M150,91h5v2h-5z M163,91h4v2h-4z M177,92h5v1h-5z M209,92h1v1h-1z M218,92h3v1h-3z M228,92h1v1h-1z M240,92h3v1h-3z M265,91h5v2h-5z M11,93h5v1h-5z M24,92h4v2h-4z M33,93h5v1h-5z M52,93h16v1h-16z M77,93h5v1h-5z M94,93h4v1h-4z M106,93h3v1h-3z M136,93h5v1h-5z M149,93h5v1h-5z M164,93h4v1h-4z M176,93h5v1h-5z M191,92h4v2h-4z M208,93h3v1h-3z M218,93h4v1h-4z M227,93h3v1h-3z M240,93h4v1h-4z M12,94h4v1h-4z M34,94h4v1h-4z M53,94h6v1h-6z M64,94h3v1h-3z M78,94h5v1h-5z M94,94h5v1h-5z M106,94h5v1h-5z M137,94h4v1h-4z M148,94h5v1h-5z M165,94h4v1h-4z M175,94h5v1h-5z M208,94h4v1h-4z M219,94h3v1h-3z M227,94h4v1h-4z M241,94h4v1h-4z M12,95h5v1h-5z M23,94h4v2h-4z M51,95h1v1h-1z M55,95h4v1h-4z M65,95h2v1h-2z M78,95h7v1h-7z M95,95h4v1h-4z M107,95h5v1h-5z M138,95h5v1h-5z M174,95h5v1h-5z M192,94h4v2h-4z M209,95h3v1h-3z M220,95h3v1h-3z M242,95h3v1h-3z M13,96h4v1h-4z M35,95h4v2h-4z M55,96h5v1h-5z M80,96h7v1h-7z M108,96h5v1h-5z M139,96h4v1h-4z M147,95h4v2h-4z M166,95h4v2h-4z M174,96h4v1h-4z M193,96h4v1h-4z M209,96h4v1h-4z M220,96h4v1h-4z M228,95h4v2h-4z M242,96h5v1h-5z M266,93h4v4h-4z M36,97h4v1h-4z M56,97h5v1h-5z M81,97h7v1h-7z M96,96h4v2h-4z M109,97h5v1h-5z M139,97h6v1h-6z M148,97h2v1h-2z M167,97h4v1h-4z M174,97h2v1h-2z M194,97h4v1h-4z M210,97h4v1h-4z M221,97h4v1h-4z M228,97h5v1h-5z M265,97h5v1h-5z M14,97h4v2h-4z M22,96h4v3h-4z M50,96h3v3h-3z M57,98h5v1h-5z M83,98h6v1h-6z M97,98h3v1h-3z M110,98h5v1h-5z M127,98h3v1h-3z M140,98h6v1h-6z M168,98h3v1h-3z M194,98h5v1h-5z M211,98h3v1h-3z M221,98h5v1h-5z M229,98h4v1h-4z M243,97h4v2h-4z M263,98h7v1h-7z M15,99h3v1h-3z M21,99h4v1h-4z M37,98h4v2h-4z M58,99h5v1h-5z M84,99h6v1h-6z M111,99h5v1h-5z M141,99h5v1h-5z M168,99h4v1h-4z M195,99h5v1h-5z M211,99h4v1h-4z M222,99h4v1h-4z M230,99h4v1h-4z M245,99h4v1h-4z M16,100h3v1h-3z M22,100h2v1h-2z M37,100h5v1h-5z M59,100h5v1h-5z M86,100h5v1h-5z M112,100h5v1h-5z M127,99h4v2h-4z M143,100h5v1h-5z M169,100h4v1h-4z M196,100h5v1h-5z M212,100h3v1h-3z M223,100h4v1h-4z M246,100h4v1h-4z M261,99h9v2h-9z M16,101h4v1h-4z M38,101h4v1h-4z M49,99h4v3h-4z M60,101h5v1h-5z M87,101h5v1h-5z M113,101h5v1h-5z M128,101h3v1h-3z M143,101h6v1h-6z M170,101h4v1h-4z M187,101h2v1h-2z M197,101h5v1h-5z M212,101h4v1h-4z M224,101h5v1h-5z M231,100h4v2h-4z M246,101h5v1h-5z M260,101h5v1h-5z M8,102h2v1h-2z M17,102h3v1h-3z M39,102h4v1h-4z M61,102h5v1h-5z M88,102h5v1h-5z M114,102h5v1h-5z M144,102h6v1h-6z M171,102h4v1h-4z M187,102h3v1h-3z M198,102h5v1h-5z M213,102h4v1h-4z M225,102h5v1h-5z M232,102h3v1h-3z M248,102h5v1h-5z M260,102h4v1h-4z M7,103h4v1h-4z M17,103h4v1h-4z M39,103h5v1h-5z M62,103h5v1h-5z M89,103h5v1h-5z M115,103h5v1h-5z M128,102h4v2h-4z M146,103h5v1h-5z M160,103h3v1h-3z M172,103h4v1h-4z M187,103h5v1h-5z M199,103h6v1h-6z M214,103h3v1h-3z M226,103h5v1h-5z M233,103h2v1h-2z M249,103h5v1h-5z M260,103h3v1h-3z M1,88h4v17h-4z M7,104h5v1h-5z M18,104h4v1h-4z M32,104h2v1h-2z M40,104h4v1h-4z M63,104h6v1h-6z M73,104h9v1h-9z M91,104h4v1h-4z M116,104h5v1h-5z M129,104h3v1h-3z M147,104h6v1h-6z M159,104h5v1h-5z M172,104h5v1h-5z M187,104h6v1h-6z M201,104h5v1h-5z M214,104h2v1h-2z M227,104h5v1h-5z M250,104h5v1h-5z M8,105h5v1h-5z M41,105h4v1h-4z M49,102h3v4h-3z M65,105h5v1h-5z M74,105h11v1h-11z M91,105h5v1h-5z M117,105h5v1h-5z M148,105h7v1h-7z M160,105h6v1h-6z M173,105h5v1h-5z M189,105h5v1h-5z M202,105h6v1h-6z M228,105h5v1h-5z M252,105h5v1h-5z M9,106h5v1h-5z M19,105h4v2h-4z M31,105h4v2h-4z M41,106h5v1h-5z M66,106h5v1h-5z M74,106h12v1h-12z M92,106h5v1h-5z M118,106h5v1h-5z M129,105h4v2h-4z M150,106h7v1h-7z M161,106h7v1h-7z M174,106h5v1h-5z M190,106h5v1h-5z M203,106h6v1h-6z M229,106h6v1h-6z M253,106h6v1h-6z M1,105h5v3h-5z M10,107h6v1h-6z M20,107h4v1h-4z M32,107h4v1h-4z M42,107h5v1h-5z M48,106h4v2h-4z M67,107h5v1h-5z M75,107h1v1h-1z M78,107h7v1h-7z M93,107h5v1h-5z M119,107h5v1h-5z M152,107h6v1h-6z M162,107h8v1h-8z M175,107h5v1h-5z M191,107h5v1h-5z M205,107h6v1h-6z M231,107h5v1h-5z M254,107h6v1h-6z M1,108h6v1h-6z M12,108h5v1h-5z M20,108h5v1h-5z M32,108h5v1h-5z M43,108h8v1h-8z M68,108h5v1h-5z M94,108h5v1h-5z M120,108h5v1h-5z M130,107h4v2h-4z M153,108h6v1h-6z M164,108h7v1h-7z M177,108h5v1h-5z M192,108h4v1h-4z M206,108h7v1h-7z M232,108h5v1h-5z M245,108h8v1h-8z M256,108h5v1h-5z M13,109h5v1h-5z M21,109h4v1h-4z M33,109h4v1h-4z M44,109h6v1h-6z M69,109h5v1h-5z M95,109h4v1h-4z M105,109h3v1h-3z M121,109h5v1h-5z M155,109h6v1h-6z M166,109h5v1h-5z M178,109h5v1h-5z M193,109h3v1h-3z M208,109h6v1h-6z M234,109h5v1h-5z M258,109h5v1h-5z M266,101h4v9h-4z M1,109h7v2h-7z M14,110h4v1h-4z M21,110h5v1h-5z M34,110h4v1h-4z M45,110h5v1h-5z M69,110h6v1h-6z M96,110h4v1h-4z M104,110h12v1h-12z M122,110h5v1h-5z M131,109h3v2h-3z M156,110h6v1h-6z M167,110h4v1h-4z M179,110h6v1h-6z M195,110h1v1h-1z M209,110h6v1h-6z M227,110h4v1h-4z M235,110h5v1h-5z M243,109h10v2h-10z M259,110h4v1h-4z M267,110h3v1h-3z M1,111h8v1h-8z M15,111h3v1h-3z M22,111h5v1h-5z M46,111h6v1h-6z M71,111h4v1h-4z M96,111h5v1h-5z M104,111h13v1h-13z M123,111h6v1h-6z M132,111h2v1h-2z M158,111h6v1h-6z M169,111h2v1h-2z M180,111h6v1h-6z M211,111h6v1h-6z M227,111h3v1h-3z M236,111h5v1h-5z M243,111h9v1h-9z M259,111h5v1h-5z M266,111h4v1h-4z M1,112h9v1h-9z M23,112h5v1h-5z M35,111h4v2h-4z M47,112h5v1h-5z M72,112h4v1h-4z M97,112h5v1h-5z M105,112h11v1h-11z M125,112h6v1h-6z M160,112h5v1h-5z M181,112h7v1h-7z M213,112h5v1h-5z M226,112h4v1h-4z M237,112h6v1h-6z M260,112h10v1h-10z M1,113h10v1h-10z M24,113h5v1h-5z M48,113h5v1h-5z M61,113h3v1h-3z M72,113h5v1h-5z M98,113h4v1h-4z M113,113h2v1h-2z M126,113h6v1h-6z M149,113h2v1h-2z M161,113h5v1h-5z M183,113h6v1h-6z M206,113h1v1h-1z M214,113h5v1h-5z M226,113h3v1h-3z M239,113h5v1h-5z M261,113h9v1h-9z M1,114h11v1h-11z M25,114h5v1h-5z M36,113h4v2h-4z M49,114h6v1h-6z M60,114h9v1h-9z M73,114h4v1h-4z M127,114h5v1h-5z M148,114h4v1h-4z M162,114h5v1h-5z M185,114h5v1h-5z M206,114h2v1h-2z M215,114h5v1h-5z M225,114h4v1h-4z M240,114h5v1h-5z M262,114h8v1h-8z M7,115h6v1h-6z M26,115h5v1h-5z M37,115h3v1h-3z M51,115h5v1h-5z M59,115h12v1h-12z M92,114h3v2h-3z M99,114h4v2h-4z M128,115h5v1h-5z M147,115h5v1h-5z M163,115h5v1h-5z M186,115h5v1h-5z M216,115h5v1h-5z M225,115h3v1h-3z M241,115h5v1h-5z M263,115h7v1h-7z M9,116h5v1h-5z M27,116h6v1h-6z M52,116h5v1h-5z M61,116h10v1h-10z M74,115h4v2h-4z M91,116h4v1h-4z M100,116h4v1h-4z M129,116h5v1h-5z M145,116h6v1h-6z M164,116h5v1h-5z M187,116h6v1h-6z M217,116h6v1h-6z M242,116h5v1h-5z M264,116h6v1h-6z M10,117h5v1h-5z M28,117h6v1h-6z M53,117h5v1h-5z M66,117h5v1h-5z M75,117h4v1h-4z M90,117h4v1h-4z M101,117h4v1h-4z M130,117h5v1h-5z M143,117h7v1h-7z M165,117h4v1h-4z M189,117h5v1h-5z M219,117h5v1h-5z M243,117h5v1h-5z M11,118h6v1h-6z M29,118h6v1h-6z M54,118h5v1h-5z M75,118h5v1h-5z M89,118h5v1h-5z M101,118h5v1h-5z M131,118h5v1h-5z M142,118h6v1h-6z M183,118h1v1h-1z M190,118h4v1h-4z M220,118h5v1h-5z M245,118h4v1h-4z M265,117h5v2h-5z M11,119h7v1h-7z M31,119h5v1h-5z M76,119h4v1h-4z M88,119h5v1h-5z M102,119h5v1h-5z M133,119h4v1h-4z M142,119h5v1h-5z M166,118h4v2h-4z M182,119h2v1h-2z M191,119h5v1h-5z M221,119h5v1h-5z M246,119h4v1h-4z M12,120h7v1h-7z M32,120h6v1h-6z M55,119h5v2h-5z M76,120h5v1h-5z M87,120h5v1h-5z M103,120h4v1h-4z M124,120h1v1h-1z M133,120h5v1h-5z M143,120h2v1h-2z M167,120h4v1h-4z M181,120h4v1h-4z M192,120h4v1h-4z M222,120h5v1h-5z M247,120h4v1h-4z M14,121h5v1h-5z M27,121h3v1h-3z M33,121h5v1h-5z M57,121h5v1h-5z M77,121h4v1h-4z M87,121h4v1h-4z M103,121h6v1h-6z M124,121h2v1h-2z M193,121h4v1h-4z M223,121h5v1h-5z M240,121h2v1h-2z M248,121h4v1h-4z M260,121h2v1h-2z M15,122h5v1h-5z M34,122h6v1h-6z M58,122h5v1h-5z M78,122h4v1h-4z M87,122h3v1h-3z M104,122h6v1h-6z M135,121h4v2h-4z M168,121h4v2h-4z M182,121h4v2h-4z M194,122h4v1h-4z M224,122h5v1h-5z M239,122h3v1h-3z M249,122h3v1h-3z M9,123h3v1h-3z M17,123h4v1h-4z M26,122h4v2h-4z M35,123h5v1h-5z M58,123h6v1h-6z M79,123h4v1h-4z M87,123h2v1h-2z M105,123h6v1h-6z M136,123h4v1h-4z M169,123h4v1h-4z M195,123h4v1h-4z M206,115h3v9h-3z M226,123h3v1h-3z M250,123h3v1h-3z M9,124h4v1h-4z M17,124h5v1h-5z M37,124h4v1h-4z M59,124h5v1h-5z M79,124h5v1h-5z M100,124h1v1h-1z M106,124h6v1h-6z M137,124h4v1h-4z M156,124h3v1h-3z M183,123h3v2h-3z M196,124h4v1h-4z M207,124h1v1h-1z M226,124h4v1h-4z M239,123h4v2h-4z M250,124h4v1h-4z M260,122h3v3h-3z M8,125h5v1h-5z M18,125h5v1h-5z M37,125h5v1h-5z M47,125h3v1h-3z M60,125h5v1h-5z M80,125h5v1h-5z M99,125h3v1h-3z M108,125h6v1h-6z M137,125h5v1h-5z M156,125h5v1h-5z M170,124h4v2h-4z M183,125h4v1h-4z M197,125h4v1h-4z M227,125h4v1h-4z M251,125h4v1h-4z M260,125h4v1h-4z M20,126h4v1h-4z M38,126h4v1h-4z M46,126h9v1h-9z M61,126h4v1h-4z M81,126h4v1h-4z M99,126h4v1h-4z M109,126h6v1h-6z M124,122h3v5h-3z M138,126h4v1h-4z M156,126h7v1h-7z M171,126h4v1h-4z M184,126h3v1h-3z M198,126h4v1h-4z M228,126h4v1h-4z M240,125h4v2h-4z M252,126h4v1h-4z M7,126h5v2h-5z M20,127h5v1h-5z M27,124h4v4h-4z M38,127h5v1h-5z M46,127h12v1h-12z M62,127h4v1h-4z M76,127h1v1h-1z M82,127h5v1h-5z M99,127h5v1h-5z M110,127h5v1h-5z M139,127h4v1h-4z M157,127h7v1h-7z M171,127h5v1h-5z M199,127h4v1h-4z M229,127h4v1h-4z M241,127h3v1h-3z M261,126h3v2h-3z M21,128h4v1h-4z M47,128h12v1h-12z M63,128h3v1h-3z M75,128h3v1h-3z M83,128h5v1h-5z M100,128h5v1h-5z M112,128h4v1h-4z M124,127h4v2h-4z M140,128h4v1h-4z M159,128h6v1h-6z M172,128h5v1h-5z M185,127h3v2h-3z M199,128h5v1h-5z M223,128h11v1h-11z M241,128h4v1h-4z M253,127h4v2h-4z M7,128h4v2h-4z M22,129h4v1h-4z M40,128h4v2h-4z M50,129h10v1h-10z M64,129h3v1h-3z M84,129h6v1h-6z M100,129h6v1h-6z M112,129h5v1h-5z M140,129h6v1h-6z M161,129h6v1h-6z M173,129h4v1h-4z M185,129h4v1h-4z M200,129h5v1h-5z M221,129h8v1h-8z M231,129h4v1h-4z M254,129h5v1h-5z M261,128h4v2h-4z M7,130h3v1h-3z M22,130h5v1h-5z M28,128h4v3h-4z M41,130h4v1h-4z M54,130h5v1h-5z M64,130h4v1h-4z M85,130h7v1h-7z M102,130h4v1h-4z M113,130h5v1h-5z M125,129h3v2h-3z M141,130h6v1h-6z M162,130h5v1h-5z M173,130h5v1h-5z M201,130h6v1h-6z M219,130h9v1h-9z M232,130h3v1h-3z M255,130h4v1h-4z M262,130h3v1h-3z M7,131h2v1h-2z M23,131h4v1h-4z M29,131h3v1h-3z M41,131h5v1h-5z M65,131h4v1h-4z M87,131h7v1h-7z M103,131h4v1h-4z M114,131h4v1h-4z M143,131h5v1h-5z M163,131h4v1h-4z M174,131h5v1h-5z M186,130h3v2h-3z M203,131h5v1h-5z M218,131h8v1h-8z M232,131h4v1h-4z M242,129h3v3h-3z M256,131h4v1h-4z M263,131h1v1h-1z M1,115h4v18h-4z M23,132h5v1h-5z M30,132h2v1h-2z M42,132h5v1h-5z M65,132h5v1h-5z M88,132h7v1h-7z M144,132h6v1h-6z M165,132h2v1h-2z M175,132h5v1h-5z M187,132h1v1h-1z M203,132h7v1h-7z M218,132h5v1h-5z M233,132h4v1h-4z M257,132h4v1h-4z M1,133h5v1h-5z M23,133h6v1h-6z M31,133h2v1h-2z M42,133h6v1h-6z M66,133h5v1h-5z M75,129h4v5h-4z M90,133h7v1h-7z M104,132h4v2h-4z M115,132h5v2h-5z M145,133h6v1h-6z M176,133h6v1h-6z M204,133h7v1h-7z M234,133h4v1h-4z M258,133h4v1h-4z M1,134h124v1h-124z M126,134h9v1h-9z M137,134h3v1h-3z M144,134h12v1h-12z M164,134h3v1h-3z M170,134h1v1h-1z M175,134h9v1h-9z M205,134h8v1h-8z M235,134h4v1h-4z M258,134h5v1h-5z M266,119h4v16h-4z M1,135h269v1h-269z M1,136h270v1h-270z M1,137h269v1h-269z M2,138h4v1h-4z M17,138h253v1h-253z M3,139h1v1h-1z M99,139h2v1h-2z M224,139h1v1h-1z M231,139h6v1h-6z M239,139h10v1h-10z M250,139h6v1h-6z M257,139h6v1h-6z
  "/>
</svg>