<?xml version="1.0" encoding="UTF-8"?>
<svg xmlns="http://www.w3.org/2000/svg" viewBox="0 0 269 143" width="269" height="143">
  <title>09 Bedded sandstone</title>
  <path fill="#111111" fill-rule="nonzero" d="
    M4,0h26v1h-26z M1,1h73v1h-73z M76,1h1v1h-1z M78,1h7v1h-7z M87,1h1v1h-1z M92,1h4v1h-4z M97,1h2v1h-2z M126,1h1v1h-1z M1,2h135v1h-135z M137,2h4v1h-4z M145,2h1v1h-1z M148,2h2v1h-2z M0,3h188v1h-188z M195,3h3v1h-3z M0,4h220v1h-220z M69,5h6v1h-6z M78,5h4v1h-4z M85,5h177v1h-177z M265,5h2v1h-2z M0,5h5v2h-5z M119,6h2v1h-2z M131,6h3v1h-3z M138,6h130v1h-130z M0,7h6v1h-6z M167,7h1v1h-1z M180,7h88v1h-88z M0,8h8v1h-8z M12,8h3v1h-3z M19,8h3v1h-3z M24,8h3v1h-3z M37,8h2v1h-2z M212,8h1v1h-1z M217,8h2v1h-2z M220,8h5v1h-5z M226,8h43v1h-43z M0,9h9v1h-9z M18,9h4v1h-4z M24,9h4v1h-4z M30,9h4v1h-4z M44,9h2v1h-2z M50,9h3v1h-3z M64,9h2v1h-2z M77,9h2v1h-2z M84,9h2v1h-2z M90,9h2v1h-2z M96,9h3v1h-3z M114,9h1v1h-1z M121,9h1v1h-1z M238,9h1v1h-1z M241,9h2v1h-2z M244,9h1v1h-1z M246,9h3v1h-3z M251,9h1v1h-1z M253,9h16v1h-16z M18,10h10v1h-10z M29,10h5v1h-5z M70,9h3v2h-3z M95,10h5v1h-5z M103,10h3v1h-3z M108,10h3v1h-3z M113,10h4v1h-4z M120,10h4v1h-4z M134,10h3v1h-3z M140,10h3v1h-3z M153,10h2v1h-2z M161,10h1v1h-1z M0,10h10v2h-10z M12,9h4v3h-4z M18,11h4v1h-4z M24,11h4v1h-4z M30,11h4v1h-4z M36,9h5v3h-5z M43,10h4v2h-4z M49,10h5v2h-5z M56,10h4v2h-4z M70,11h4v1h-4z M76,10h4v2h-4z M102,11h4v1h-4z M107,11h5v1h-5z M113,11h5v1h-5z M153,11h4v1h-4z M160,11h3v1h-3z M167,11h4v1h-4z M172,11h3v1h-3z M179,11h1v1h-1z M191,11h2v1h-2z M197,11h3v1h-3z M204,11h1v1h-1z M264,10h5v2h-5z M6,12h3v1h-3z M13,12h2v1h-2z M31,12h2v1h-2z M37,12h3v1h-3z M44,12h2v1h-2z M50,12h3v1h-3z M58,12h2v1h-2z M63,10h4v3h-4z M70,12h3v1h-3z M77,12h3v1h-3z M83,10h4v3h-4z M89,10h4v3h-4z M96,11h4v2h-4z M103,12h3v1h-3z M108,12h10v1h-10z M120,11h5v2h-5z M134,11h4v2h-4z M140,11h4v2h-4z M152,12h5v1h-5z M160,12h4v1h-4z M184,12h4v1h-4z M196,12h4v1h-4z M203,12h4v1h-4z M234,12h1v1h-1z M241,12h2v1h-2z M97,13h1v1h-1z M103,13h2v1h-2z M109,13h2v1h-2z M114,13h3v1h-3z M121,13h4v1h-4z M127,10h3v4h-3z M134,13h3v1h-3z M142,13h1v1h-1z M146,11h4v3h-4z M153,13h4v1h-4z M159,13h5v1h-5z M166,12h5v2h-5z M172,12h5v2h-5z M190,12h4v2h-4z M210,12h4v2h-4z M218,13h4v1h-4z M226,12h3v2h-3z M247,13h3v1h-3z M254,13h2v1h-2z M259,13h3v1h-3z M265,12h4v2h-4z M0,12h4v3h-4z M121,14h2v1h-2z M146,14h3v1h-3z M153,14h3v1h-3z M160,14h3v1h-3z M167,14h4v1h-4z M172,14h4v1h-4z M178,12h4v3h-4z M184,13h5v2h-5z M191,14h3v1h-3z M196,13h5v2h-5z M202,13h5v2h-5z M210,14h5v1h-5z M259,14h4v1h-4z M0,15h5v1h-5z M168,15h2v1h-2z M179,15h1v1h-1z M185,15h4v1h-4z M192,15h1v1h-1z M197,15h3v1h-3z M203,15h3v1h-3z M210,15h4v1h-4z M225,14h5v2h-5z M240,13h4v3h-4z M247,14h4v2h-4z M258,15h5v1h-5z M264,14h5v2h-5z M8,16h4v1h-4z M16,16h3v1h-3z M23,16h2v1h-2z M43,16h2v1h-2z M108,16h1v1h-1z M198,16h1v1h-1z M211,16h2v1h-2z M217,14h5v3h-5z M226,16h4v1h-4z M233,13h3v4h-3z M241,16h3v1h-3z M247,16h3v1h-3z M253,14h4v3h-4z M259,16h10v1h-10z M23,17h3v1h-3z M30,17h5v1h-5z M36,17h4v1h-4z M42,17h4v1h-4z M49,17h4v1h-4z M56,17h3v1h-3z M62,17h3v1h-3z M67,17h3v1h-3z M74,17h2v1h-2z M80,17h2v1h-2z M87,17h1v1h-1z M105,17h6v1h-6z M219,17h1v1h-1z M227,17h2v1h-2z M254,17h2v1h-2z M260,17h2v1h-2z M8,17h5v2h-5z M29,18h12v1h-12z M48,18h5v1h-5z M54,18h5v1h-5z M73,18h4v1h-4z M86,18h3v1h-3z M92,18h3v1h-3z M98,18h3v1h-3z M103,18h9v1h-9z M116,18h2v1h-2z M127,18h2v1h-2z M134,18h2v1h-2z M140,18h1v1h-1z M145,18h2v1h-2z M0,16h6v4h-6z M9,19h4v1h-4z M15,17h4v3h-4z M22,18h4v2h-4z M29,19h6v1h-6z M36,19h5v1h-5z M42,18h5v2h-5z M48,19h11v1h-11z M66,18h4v2h-4z M72,19h6v1h-6z M85,19h4v1h-4z M91,19h5v1h-5z M97,19h5v1h-5z M126,19h5v1h-5z M133,19h4v1h-4z M138,19h4v1h-4z M144,19h4v1h-4z M150,19h3v1h-3z M158,19h2v1h-2z M163,19h2v1h-2z M169,19h1v1h-1z M175,19h2v1h-2z M0,20h5v1h-5z M10,20h2v1h-2z M17,20h1v1h-1z M23,20h3v1h-3z M30,20h5v1h-5z M36,20h4v1h-4z M43,20h3v1h-3z M50,20h2v1h-2z M55,20h4v1h-4z M61,18h4v3h-4z M67,20h3v1h-3z M73,20h4v1h-4z M79,18h4v3h-4z M86,20h2v1h-2z M92,20h4v1h-4z M98,20h3v1h-3z M103,19h10v2h-10z M127,20h4v1h-4z M162,20h3v1h-3z M181,20h2v1h-2z M186,20h2v1h-2z M192,20h2v1h-2z M199,20h1v1h-1z M31,21h2v1h-2z M57,21h1v1h-1z M63,21h1v1h-1z M73,21h1v1h-1z M92,21h3v1h-3z M98,21h2v1h-2z M104,21h3v1h-3z M109,21h3v1h-3z M115,19h4v3h-4z M121,19h4v3h-4z M127,21h3v1h-3z M133,20h15v2h-15z M150,20h4v2h-4z M163,21h3v1h-3z M174,20h4v2h-4z M181,21h8v1h-8z M198,21h3v1h-3z M204,21h3v1h-3z M210,21h2v1h-2z M216,21h3v1h-3z M222,21h3v1h-3z M226,21h4v1h-4z M239,21h2v1h-2z M245,21h2v1h-2z M251,21h1v1h-1z M264,17h5v5h-5z M0,21h4v2h-4z M116,22h2v1h-2z M122,22h2v1h-2z M129,22h1v1h-1z M138,22h3v1h-3z M145,22h2v1h-2z M150,22h3v1h-3z M156,20h5v3h-5z M163,22h2v1h-2z M168,20h4v3h-4z M175,22h3v1h-3z M181,22h3v1h-3z M185,22h4v1h-4z M191,21h4v2h-4z M197,22h5v1h-5z M203,22h5v1h-5z M209,22h4v1h-4z M233,21h3v2h-3z M244,22h4v1h-4z M262,22h7v1h-7z M0,23h5v1h-5z M181,23h2v1h-2z M187,23h1v1h-1z M192,23h3v1h-3z M198,23h3v1h-3z M204,23h4v1h-4z M209,23h5v1h-5z M215,22h5v2h-5z M221,22h9v2h-9z M232,23h5v1h-5z M244,23h5v1h-5z M0,24h7v1h-7z M10,24h3v1h-3z M16,24h3v1h-3z M24,24h1v1h-1z M30,24h2v1h-2z M43,24h1v1h-1z M56,24h3v1h-3z M64,24h1v1h-1z M70,24h2v1h-2z M199,24h1v1h-1z M204,24h3v1h-3z M210,24h3v1h-3z M216,24h3v1h-3z M222,24h2v1h-2z M226,24h4v1h-4z M233,24h3v1h-3z M238,22h4v3h-4z M244,24h4v1h-4z M250,22h4v3h-4z M255,22h4v3h-4z M261,23h8v2h-8z M0,25h8v1h-8z M9,25h5v1h-5z M15,25h4v1h-4z M23,25h3v1h-3z M36,25h3v1h-3z M48,25h3v1h-3z M83,25h2v1h-2z M88,25h2v1h-2z M92,25h4v1h-4z M100,25h1v1h-1z M105,25h3v1h-3z M111,25h2v1h-2z M123,25h1v1h-1z M211,25h2v1h-2z M217,25h1v1h-1z M227,25h2v1h-2z M234,25h1v1h-1z M239,25h2v1h-2z M245,25h3v1h-3z M251,25h2v1h-2z M256,25h3v1h-3z M262,25h7v1h-7z M0,26h13v1h-13z M15,26h5v1h-5z M35,26h4v1h-4z M62,25h4v2h-4z M99,26h3v1h-3z M110,26h4v1h-4z M117,26h2v1h-2z M122,26h3v1h-3z M129,26h2v1h-2z M135,26h2v1h-2z M140,26h3v1h-3z M153,26h1v1h-1z M263,26h5v1h-5z M0,27h7v1h-7z M10,27h3v1h-3z M15,27h4v1h-4z M22,26h5v2h-5z M29,25h4v3h-4z M42,25h4v3h-4z M55,25h4v3h-4z M62,27h5v1h-5z M69,25h4v3h-4z M76,25h4v3h-4z M82,26h4v2h-4z M87,26h10v2h-10z M110,27h5v1h-5z M116,27h4v1h-4z M147,27h3v1h-3z M153,27h3v1h-3z M160,27h2v1h-2z M166,27h3v1h-3z M173,27h2v1h-2z M179,27h1v1h-1z M185,27h1v1h-1z M191,27h1v1h-1z M0,28h5v1h-5z M16,28h3v1h-3z M23,28h3v1h-3z M30,28h2v1h-2z M36,27h3v2h-3z M43,28h2v1h-2z M48,26h4v3h-4z M56,28h3v1h-3z M63,28h2v1h-2z M70,28h3v1h-3z M77,28h2v1h-2z M82,28h3v1h-3z M88,28h4v1h-4z M93,28h4v1h-4z M98,27h5v2h-5z M104,26h4v3h-4z M111,28h3v1h-3z M115,28h5v1h-5z M122,27h4v2h-4z M128,27h4v2h-4z M134,27h4v2h-4z M140,27h4v2h-4z M146,28h4v1h-4z M178,28h3v1h-3z M184,28h3v1h-3z M202,28h4v1h-4z M209,28h3v1h-3z M216,28h1v1h-1z M223,28h1v1h-1z M229,28h1v1h-1z M235,28h2v1h-2z M264,27h4v2h-4z M49,29h2v1h-2z M88,29h3v1h-3z M94,29h2v1h-2z M99,29h3v1h-3z M105,29h2v1h-2z M116,29h3v1h-3z M130,29h2v1h-2z M134,29h3v1h-3z M140,29h3v1h-3z M153,28h4v2h-4z M160,28h3v2h-3z M166,28h4v2h-4z M172,28h4v2h-4z M178,29h4v1h-4z M184,29h4v1h-4z M201,29h5v1h-5z M215,29h3v1h-3z M222,29h3v1h-3z M247,29h2v1h-2z M252,29h2v1h-2z M260,29h1v1h-1z M0,29h4v2h-4z M11,30h1v1h-1z M146,29h5v2h-5z M155,30h1v1h-1z M161,30h1v1h-1z M166,30h3v1h-3z M173,30h2v1h-2z M178,30h3v1h-3z M184,30h3v1h-3z M190,28h3v3h-3z M196,28h4v3h-4z M202,30h4v1h-4z M228,29h3v2h-3z M251,30h5v1h-5z M259,30h3v1h-3z M0,31h5v1h-5z M8,31h4v1h-4z M148,31h1v1h-1z M185,31h1v1h-1z M191,31h1v1h-1z M197,31h3v1h-3z M203,31h2v1h-2z M208,29h4v3h-4z M215,30h4v2h-4z M221,30h4v2h-4z M234,29h4v3h-4z M240,29h4v3h-4z M0,32h6v1h-6z M8,32h5v1h-5z M16,32h3v1h-3z M23,32h3v1h-3z M29,32h2v1h-2z M35,32h2v1h-2z M42,32h2v1h-2z M49,32h1v1h-1z M71,32h1v1h-1z M77,32h1v1h-1z M216,32h3v1h-3z M222,32h2v1h-2z M228,31h4v2h-4z M235,32h2v1h-2z M241,32h2v1h-2z M246,30h4v3h-4z M252,31h4v2h-4z M258,31h4v2h-4z M8,33h6v1h-6z M15,33h5v1h-5z M22,33h5v1h-5z M28,33h4v1h-4z M34,33h4v1h-4z M41,33h4v1h-4z M48,33h4v1h-4z M54,33h4v1h-4z M76,33h3v1h-3z M82,33h4v1h-4z M90,33h3v1h-3z M96,33h3v1h-3z M116,33h1v1h-1z M247,33h2v1h-2z M259,33h2v1h-2z M9,34h5v1h-5z M15,34h17v1h-17z M47,34h5v1h-5z M62,33h4v2h-4z M95,34h4v1h-4z M103,34h3v1h-3z M110,34h2v1h-2z M122,34h4v1h-4z M130,34h2v1h-2z M136,34h3v1h-3z M144,34h2v1h-2z M151,34h1v1h-1z M158,34h1v1h-1z M260,34h1v1h-1z M0,33h7v3h-7z M10,35h3v1h-3z M16,35h4v1h-4z M22,35h4v1h-4z M28,35h4v1h-4z M34,34h5v2h-5z M40,34h6v2h-6z M55,34h4v2h-4z M61,35h5v1h-5z M82,34h5v2h-5z M89,34h4v2h-4z M157,35h3v1h-3z M166,35h2v1h-2z M172,35h2v1h-2z M179,35h1v1h-1z M0,36h5v1h-5z M16,36h2v1h-2z M28,36h3v1h-3z M35,36h3v1h-3z M42,36h2v1h-2z M48,35h4v2h-4z M55,36h3v1h-3z M62,36h4v1h-4z M69,33h4v4h-4z M76,34h4v3h-4z M83,36h3v1h-3z M90,36h3v1h-3z M95,35h5v2h-5z M102,35h5v2h-5z M109,35h4v2h-4z M115,34h4v3h-4z M122,35h5v2h-5z M135,35h5v2h-5z M143,35h4v2h-4z M150,35h4v2h-4z M165,36h4v1h-4z M172,36h3v1h-3z M190,36h4v1h-4z M197,36h4v1h-4z M204,36h4v1h-4z M264,29h5v8h-5z M63,37h1v1h-1z M97,37h2v1h-2z M103,37h3v1h-3z M110,37h2v1h-2z M116,37h3v1h-3z M123,37h3v1h-3z M129,35h4v3h-4z M143,37h5v1h-5z M150,37h5v1h-5z M164,37h5v1h-5z M190,37h5v1h-5z M196,37h6v1h-6z M211,37h3v1h-3z M218,37h3v1h-3z M226,37h1v1h-1z M232,37h3v1h-3z M237,37h2v1h-2z M250,37h3v1h-3z M263,37h6v1h-6z M136,37h3v2h-3z M144,38h3v1h-3z M150,38h4v1h-4z M157,36h4v3h-4z M165,38h3v1h-3z M171,37h4v2h-4z M178,36h3v3h-3z M185,36h3v3h-3z M190,38h4v1h-4z M195,38h1v1h-1z M197,38h5v1h-5z M204,37h5v2h-5z M217,38h4v1h-4z M231,38h5v1h-5z M237,38h4v1h-4z M250,38h4v1h-4z M256,38h3v1h-3z M262,38h7v1h-7z M0,37h4v3h-4z M166,39h2v1h-2z M173,39h2v1h-2z M179,39h1v1h-1z M191,39h3v1h-3z M198,39h3v1h-3z M204,39h4v1h-4z M210,38h5v2h-5z M217,39h5v1h-5z M250,39h19v1h-19z M0,40h5v1h-5z M174,40h1v1h-1z M205,40h2v1h-2z M211,40h3v1h-3z M218,40h3v1h-3z M224,38h4v3h-4z M231,39h4v2h-4z M237,39h5v2h-5z M244,38h4v3h-4z M250,40h4v1h-4z M255,40h5v1h-5z M0,41h7v1h-7z M11,41h1v1h-1z M15,41h4v1h-4z M23,41h2v1h-2z M37,41h3v1h-3z M44,41h2v1h-2z M51,41h1v1h-1z M57,41h3v1h-3z M65,41h2v1h-2z M73,41h1v1h-1z M79,41h2v1h-2z M92,41h1v1h-1z M225,41h2v1h-2z M238,41h4v1h-4z M245,41h3v1h-3z M251,41h2v1h-2z M256,41h3v1h-3z M261,40h8v2h-8z M10,42h4v1h-4z M15,42h5v1h-5z M36,42h4v1h-4z M43,42h4v1h-4z M50,42h3v1h-3z M72,42h3v1h-3z M78,42h4v1h-4z M84,41h4v2h-4z M91,42h3v1h-3z M104,42h2v1h-2z M109,42h3v1h-3z M117,42h2v1h-2z M123,42h1v1h-1z M129,42h2v1h-2z M239,42h1v1h-1z M0,42h8v2h-8z M10,43h10v1h-10z M22,42h4v2h-4z M37,43h3v1h-3z M43,43h5v1h-5z M50,43h4v1h-4z M71,43h5v1h-5z M77,43h5v1h-5z M84,43h5v1h-5z M122,43h3v1h-3z M136,43h3v1h-3z M142,43h3v1h-3z M149,43h2v1h-2z M155,43h3v1h-3z M161,43h2v1h-2z M0,44h7v1h-7z M10,44h3v1h-3z M16,44h3v1h-3z M22,44h3v1h-3z M29,41h4v4h-4z M38,44h1v1h-1z M44,44h3v1h-3z M50,44h3v1h-3z M57,42h4v3h-4z M64,42h4v3h-4z M72,44h4v1h-4z M78,44h4v1h-4z M85,44h4v1h-4z M90,43h4v2h-4z M96,42h4v3h-4z M109,43h4v2h-4z M121,44h5v1h-5z M135,44h5v1h-5z M178,44h3v1h-3z M184,44h3v1h-3z M191,44h2v1h-2z M198,44h2v1h-2z M206,44h1v1h-1z M264,42h5v3h-5z M10,45h1v1h-1z M51,45h1v1h-1z M58,45h1v1h-1z M72,45h3v1h-3z M79,45h2v1h-2z M92,45h1v1h-1z M97,45h3v1h-3z M103,43h4v3h-4z M110,45h3v1h-3z M116,43h3v3h-3z M122,45h4v1h-4z M129,43h4v3h-4z M135,45h4v1h-4z M148,44h4v2h-4z M160,44h4v2h-4z M172,44h4v2h-4z M184,45h4v1h-4z M204,45h4v1h-4z M211,45h3v1h-3z M219,45h1v1h-1z M224,45h2v1h-2z M231,45h1v1h-1z M117,46h1v1h-1z M123,46h2v1h-2z M129,46h3v1h-3z M137,46h1v1h-1z M142,44h4v3h-4z M149,46h3v1h-3z M154,44h4v3h-4z M160,46h3v1h-3z M173,46h3v1h-3z M178,45h4v2h-4z M184,46h5v1h-5z M190,45h4v2h-4z M203,46h5v1h-5z M210,46h5v1h-5z M218,46h4v1h-4z M237,46h3v1h-3z M243,46h3v1h-3z M249,46h3v1h-3z M255,46h2v1h-2z M260,46h2v1h-2z M143,47h2v1h-2z M149,47h2v1h-2z M166,44h4v4h-4z M173,47h2v1h-2z M185,47h3v1h-3z M191,47h3v1h-3z M197,45h4v3h-4z M204,47h4v1h-4z M211,47h4v1h-4z M237,47h4v1h-4z M242,47h15v1h-15z M259,47h4v1h-4z M265,45h4v3h-4z M0,45h5v4h-5z M15,48h1v1h-1z M198,48h2v1h-2z M205,48h2v1h-2z M211,48h3v1h-3z M217,47h5v2h-5z M224,46h3v3h-3z M230,46h4v3h-4z M237,48h3v1h-3z M242,48h10v1h-10z M253,48h4v1h-4z M258,48h5v1h-5z M264,48h5v1h-5z M0,49h9v1h-9z M13,49h4v1h-4z M20,49h2v1h-2z M28,49h1v1h-1z M35,49h3v1h-3z M43,49h1v1h-1z M49,49h3v1h-3z M56,49h2v1h-2z M84,49h2v1h-2z M219,49h2v1h-2z M231,49h2v1h-2z M243,49h3v1h-3z M248,49h4v1h-4z M254,49h3v1h-3z M259,49h4v1h-4z M0,50h10v1h-10z M12,50h6v1h-6z M19,50h4v1h-4z M35,50h4v1h-4z M63,49h3v2h-3z M70,50h4v1h-4z M76,50h4v1h-4z M83,50h4v1h-4z M91,50h3v1h-3z M97,50h3v1h-3z M112,50h1v1h-1z M117,50h3v1h-3z M130,50h1v1h-1z M249,50h2v1h-2z M260,50h2v1h-2z M264,49h4v2h-4z M12,51h12v1h-12z M35,51h5v1h-5z M41,50h5v2h-5z M48,50h5v2h-5z M55,50h4v2h-4z M62,51h5v1h-5z M69,51h5v1h-5z M110,51h4v1h-4z M124,51h3v1h-3z M128,51h4v1h-4z M135,51h3v1h-3z M141,51h3v1h-3z M148,51h3v1h-3z M155,51h1v1h-1z M160,51h3v1h-3z M0,51h11v2h-11z M13,52h5v1h-5z M19,52h5v1h-5z M27,50h4v3h-4z M35,52h4v1h-4z M41,52h4v1h-4z M49,52h3v1h-3z M56,52h3v1h-3z M63,52h4v1h-4z M70,52h4v1h-4z M76,51h5v2h-5z M82,51h6v2h-6z M90,51h5v2h-5z M96,51h5v2h-5z M110,52h5v1h-5z M174,52h4v1h-4z M183,52h3v1h-3z M198,52h2v1h-2z M219,52h2v1h-2z M0,53h10v1h-10z M14,53h3v1h-3z M20,53h4v1h-4z M29,53h1v1h-1z M43,53h1v1h-1z M49,53h1v1h-1z M57,53h2v1h-2z M63,53h3v1h-3z M70,53h3v1h-3z M76,53h4v1h-4z M84,53h3v1h-3z M90,53h4v1h-4z M97,53h4v1h-4z M104,50h3v4h-3z M110,53h4v1h-4z M117,51h4v3h-4z M124,52h14v2h-14z M140,52h5v2h-5z M147,52h5v2h-5z M153,52h5v2h-5z M168,52h3v2h-3z M197,53h4v1h-4z M204,53h2v1h-2z M211,53h4v1h-4z M264,51h5v3h-5z M21,54h1v1h-1z M71,54h1v1h-1z M112,54h2v1h-2z M119,54h1v1h-1z M125,54h2v1h-2z M129,54h3v1h-3z M135,54h2v1h-2z M141,54h4v1h-4z M147,54h4v1h-4z M154,54h4v1h-4z M160,52h4v3h-4z M167,54h4v1h-4z M174,53h5v2h-5z M182,53h5v2h-5z M190,52h4v3h-4z M196,54h6v1h-6z M225,54h3v1h-3z M232,54h2v1h-2z M238,54h3v1h-3z M245,54h2v1h-2z M251,54h2v1h-2z M256,54h3v1h-3z M263,54h6v1h-6z M154,55h3v1h-3z M160,55h3v1h-3z M168,55h1v1h-1z M175,55h4v1h-4z M183,55h3v1h-3z M190,55h3v1h-3z M197,55h4v1h-4z M203,54h4v2h-4z M210,54h5v2h-5z M237,55h5v1h-5z M244,55h4v1h-4z M250,55h3v1h-3z M184,56h1v1h-1z M198,56h2v1h-2z M204,56h3v1h-3z M211,56h4v1h-4z M218,53h4v4h-4z M225,55h4v2h-4z M231,55h4v2h-4z M238,56h4v1h-4z M244,56h3v1h-3z M250,56h4v1h-4z M7,57h2v1h-2z M14,57h2v1h-2z M19,57h2v1h-2z M25,57h2v1h-2z M31,57h2v1h-2z M38,57h2v1h-2z M43,57h3v1h-3z M57,57h1v1h-1z M213,57h1v1h-1z M220,57h1v1h-1z M226,57h1v1h-1z M232,57h3v1h-3z M239,57h2v1h-2z M245,57h2v1h-2z M250,57h3v1h-3z M255,55h5v3h-5z M261,55h8v3h-8z M13,58h9v1h-9z M25,58h3v1h-3z M30,58h4v1h-4z M42,58h5v1h-5z M50,58h3v1h-3z M56,58h3v1h-3z M64,58h2v1h-2z M71,58h2v1h-2z M78,58h3v1h-3z M86,58h2v1h-2z M92,58h3v1h-3z M99,58h1v1h-1z M256,58h3v1h-3z M262,58h7v1h-7z M6,58h4v2h-4z M13,59h10v1h-10z M24,59h4v1h-4z M29,59h5v1h-5z M42,59h6v1h-6z M56,59h4v1h-4z M91,59h5v1h-5z M98,59h4v1h-4z M105,59h4v1h-4z M112,59h2v1h-2z M132,59h1v1h-1z M140,59h1v1h-1z M145,59h3v1h-3z M154,59h1v1h-1z M160,59h1v1h-1z M7,60h3v1h-3z M13,60h9v1h-9z M24,60h10v1h-10z M36,58h5v3h-5z M43,60h4v1h-4z M49,59h4v2h-4z M62,59h5v2h-5z M91,60h11v1h-11z M104,60h5v1h-5z M132,60h4v1h-4z M139,60h3v1h-3z M152,60h4v1h-4z M157,60h5v1h-5z M165,60h4v1h-4z M172,60h3v1h-3z M179,60h3v1h-3z M188,60h1v1h-1z M193,60h3v1h-3z M264,59h5v2h-5z M0,54h5v8h-5z M7,61h2v1h-2z M18,61h3v1h-3z M25,61h2v1h-2z M28,61h1v1h-1z M36,61h4v1h-4z M44,61h2v1h-2z M49,61h3v1h-3z M56,60h3v2h-3z M63,61h4v1h-4z M70,59h4v3h-4z M77,59h4v3h-4z M85,59h4v3h-4z M92,61h4v1h-4z M98,61h4v1h-4z M125,59h4v3h-4z M131,61h5v1h-5z M139,61h4v1h-4z M145,60h4v2h-4z M157,61h6v1h-6z M200,61h2v1h-2z M206,61h3v1h-3z M214,61h1v1h-1z M221,61h1v1h-1z M78,62h2v1h-2z M86,62h1v1h-1z M100,62h1v1h-1z M105,61h4v2h-4z M112,60h3v3h-3z M118,59h4v4h-4z M126,62h3v1h-3z M132,62h4v1h-4z M139,62h3v1h-3z M145,62h3v1h-3z M151,61h5v2h-5z M158,62h4v1h-4z M164,61h6v2h-6z M171,61h4v2h-4z M178,61h5v2h-5z M200,62h3v1h-3z M206,62h4v1h-4z M227,62h3v1h-3z M233,62h4v1h-4z M240,62h2v1h-2z M252,62h3v1h-3z M265,61h4v2h-4z M107,63h1v1h-1z M120,63h1v1h-1z M133,63h2v1h-2z M159,63h3v1h-3z M165,63h3v1h-3z M172,63h3v1h-3z M179,63h4v1h-4z M185,61h4v3h-4z M192,61h4v3h-4z M200,63h4v1h-4z M213,62h4v2h-4z M240,63h3v1h-3z M246,62h4v2h-4z M259,63h3v1h-3z M173,64h2v1h-2z M179,64h3v1h-3z M187,64h2v1h-2z M193,64h3v1h-3z M200,64h3v1h-3z M206,63h3v2h-3z M213,64h3v1h-3z M220,62h4v3h-4z M227,63h4v2h-4z M233,63h5v2h-5z M239,64h5v1h-5z M246,64h5v1h-5z M0,62h4v4h-4z M214,65h1v1h-1z M227,65h3v1h-3z M234,65h3v1h-3z M240,65h3v1h-3z M246,65h4v1h-4z M252,63h4v3h-4z M258,64h5v2h-5z M0,66h8v1h-8z M10,66h4v1h-4z M16,66h3v1h-3z M22,66h3v1h-3z M29,66h3v1h-3z M36,66h3v1h-3z M43,66h3v1h-3z M50,66h1v1h-1z M56,66h1v1h-1z M73,66h3v1h-3z M227,66h1v1h-1z M253,66h2v1h-2z M258,66h4v1h-4z M49,67h4v1h-4z M54,67h5v1h-5z M62,67h3v1h-3z M67,67h3v1h-3z M72,67h5v1h-5z M79,67h3v1h-3z M86,67h2v1h-2z M93,67h1v1h-1z M100,67h2v1h-2z M106,67h2v1h-2z M112,67h3v1h-3z M119,67h2v1h-2z M259,67h1v1h-1z M15,67h11v2h-11z M28,67h5v2h-5z M35,67h5v2h-5z M48,68h11v1h-11z M92,68h3v1h-3z M99,68h4v1h-4z M104,68h5v1h-5z M117,68h4v1h-4z M124,68h4v1h-4z M132,68h3v1h-3z M139,68h3v1h-3z M153,68h3v1h-3z M160,68h2v1h-2z M167,68h2v1h-2z M174,68h1v1h-1z M180,68h1v1h-1z M0,67h14v3h-14z M16,69h4v1h-4z M22,69h4v1h-4z M30,69h2v1h-2z M36,69h3v1h-3z M42,67h5v3h-5z M48,69h5v1h-5z M55,69h4v1h-4z M61,68h10v2h-10z M72,68h4v2h-4z M78,68h4v2h-4z M85,68h4v2h-4z M104,69h6v1h-6z M131,69h5v1h-5z M138,69h4v1h-4z M152,69h5v1h-5z M179,69h3v1h-3z M186,69h2v1h-2z M191,69h3v1h-3z M198,69h2v1h-2z M217,69h2v1h-2z M0,70h8v1h-8z M10,70h4v1h-4z M17,70h1v1h-1z M24,70h1v1h-1z M43,70h2v1h-2z M49,70h3v1h-3z M56,70h2v1h-2z M62,70h3v1h-3z M68,70h3v1h-3z M73,70h3v1h-3z M79,70h3v1h-3z M85,70h3v1h-3z M92,69h4v2h-4z M98,69h5v2h-5z M105,70h4v1h-4z M111,68h5v3h-5z M117,69h5v2h-5z M124,69h5v2h-5z M132,70h4v1h-4z M138,70h5v1h-5z M152,70h6v1h-6z M159,69h5v2h-5z M185,70h3v1h-3z M204,70h3v1h-3z M223,70h3v1h-3z M228,70h2v1h-2z M0,71h6v1h-6z M11,71h1v1h-1z M93,71h1v1h-1z M99,71h3v1h-3z M106,71h2v1h-2z M112,71h2v1h-2z M119,71h2v1h-2z M125,71h3v1h-3z M133,71h2v1h-2z M139,71h3v1h-3z M146,68h4v4h-4z M153,71h4v1h-4z M159,71h4v1h-4z M172,69h4v3h-4z M178,70h4v2h-4z M184,71h4v1h-4z M190,70h5v2h-5z M197,70h4v2h-4z M203,71h4v1h-4z M210,70h4v2h-4z M222,71h4v1h-4z M236,71h3v1h-3z M243,71h1v1h-1z M264,63h5v9h-5z M140,72h1v1h-1z M147,72h2v1h-2z M161,72h2v1h-2z M166,69h4v4h-4z M180,72h1v1h-1z M185,72h3v1h-3z M192,72h3v1h-3z M198,72h3v1h-3z M204,72h3v1h-3z M211,72h3v1h-3z M216,70h4v3h-4z M222,72h5v1h-5z M254,72h4v1h-4z M261,72h8v1h-8z M0,72h5v2h-5z M168,73h1v1h-1z M217,73h2v1h-2z M223,73h2v1h-2z M228,71h5v3h-5z M235,72h5v2h-5z M253,73h5v1h-5z M0,74h6v1h-6z M46,74h1v1h-1z M229,74h3v1h-3z M235,74h4v1h-4z M242,72h4v3h-4z M248,72h4v3h-4z M254,74h4v1h-4z M260,73h9v2h-9z M0,75h7v1h-7z M10,75h3v1h-3z M17,75h2v1h-2z M31,75h3v1h-3z M53,75h2v1h-2z M66,75h2v1h-2z M73,75h2v1h-2z M79,75h3v1h-3z M86,75h3v1h-3z M93,75h1v1h-1z M100,75h2v1h-2z M255,75h2v1h-2z M261,75h8v1h-8z M0,76h8v1h-8z M9,76h5v1h-5z M16,76h4v1h-4z M52,76h4v1h-4z M85,76h4v1h-4z M114,76h3v1h-3z M120,76h3v1h-3z M127,76h2v1h-2z M0,77h14v1h-14z M16,77h5v1h-5z M23,75h5v3h-5z M30,76h5v2h-5z M44,75h5v3h-5z M51,77h5v1h-5z M58,76h4v2h-4z M78,76h5v2h-5z M85,77h5v1h-5z M106,76h4v2h-4z M113,77h4v1h-4z M140,77h3v1h-3z M146,77h2v1h-2z M152,77h2v1h-2z M160,77h1v1h-1z M166,77h3v1h-3z M185,77h1v1h-1z M264,76h5v2h-5z M0,78h7v1h-7z M9,78h5v1h-5z M17,78h4v1h-4z M23,78h4v1h-4z M30,78h4v1h-4z M37,75h4v4h-4z M44,78h4v1h-4z M52,78h4v1h-4z M59,78h3v1h-3z M65,76h4v3h-4z M72,76h4v3h-4z M79,78h4v1h-4z M85,78h4v1h-4z M92,76h4v3h-4z M99,76h4v3h-4z M106,78h5v1h-5z M113,78h5v1h-5z M120,77h4v2h-4z M126,77h5v2h-5z M151,78h5v1h-5z M173,78h3v1h-3z M179,78h4v1h-4z M184,78h4v1h-4z M192,78h2v1h-2z M198,78h3v1h-3z M204,78h3v1h-3z M211,78h2v1h-2z M265,78h4v1h-4z M0,79h6v1h-6z M11,79h2v1h-2z M18,79h2v1h-2z M31,79h3v1h-3z M53,79h1v1h-1z M60,79h1v1h-1z M66,79h3v1h-3z M73,79h2v1h-2z M87,79h1v1h-1z M93,79h1v1h-1z M100,79h3v1h-3z M107,79h3v1h-3z M114,79h3v1h-3z M121,79h2v1h-2z M127,79h3v1h-3z M133,77h3v3h-3z M139,78h4v2h-4z M145,78h3v2h-3z M152,79h4v1h-4z M159,78h4v2h-4z M173,79h4v1h-4z M179,79h9v1h-9z M190,79h5v1h-5z M198,79h4v1h-4z M203,79h5v1h-5z M210,79h4v1h-4z M224,79h1v1h-1z M264,79h5v1h-5z M134,80h2v1h-2z M146,80h2v1h-2z M152,80h3v1h-3z M159,80h3v1h-3z M166,78h4v3h-4z M172,80h5v1h-5z M179,80h4v1h-4z M184,80h4v1h-4z M197,80h11v1h-11z M210,80h5v1h-5z M217,79h3v2h-3z M223,80h4v1h-4z M237,80h3v1h-3z M250,80h2v1h-2z M262,80h7v1h-7z M173,81h3v1h-3z M179,81h2v1h-2z M191,80h4v2h-4z M198,81h3v1h-3z M204,81h3v1h-3z M211,81h3v1h-3z M217,81h10v1h-10z M243,81h4v1h-4z M255,80h3v2h-3z M193,82h1v1h-1z M199,82h1v1h-1z M217,82h4v1h-4z M223,82h4v1h-4z M230,80h4v3h-4z M237,81h4v2h-4z M244,82h3v1h-3z M249,81h4v2h-4z M254,82h5v1h-5z M0,80h5v4h-5z M13,83h3v1h-3z M20,83h3v1h-3z M28,83h3v1h-3z M36,83h3v1h-3z M53,83h1v1h-1z M67,83h2v1h-2z M231,83h3v1h-3z M238,83h2v1h-2z M244,83h2v1h-2z M249,83h3v1h-3z M255,83h3v1h-3z M261,81h8v3h-8z M20,84h4v1h-4z M36,84h4v1h-4z M52,84h3v1h-3z M59,84h3v1h-3z M66,84h3v1h-3z M74,84h2v1h-2z M82,84h2v1h-2z M89,84h3v1h-3z M97,84h2v1h-2z M104,84h3v1h-3z M110,84h3v1h-3z M262,84h7v1h-7z M12,84h5v2h-5z M19,85h5v1h-5z M27,84h5v2h-5z M36,85h5v1h-5z M58,85h4v1h-4z M81,85h4v1h-4z M96,85h4v1h-4z M110,85h4v1h-4z M118,85h4v1h-4z M133,85h2v1h-2z M140,85h2v1h-2z M147,85h3v1h-3z M156,85h1v1h-1z M163,85h2v1h-2z M0,84h10v3h-10z M13,86h4v1h-4z M28,86h4v1h-4z M36,86h4v1h-4z M44,84h4v3h-4z M51,85h4v2h-4z M66,85h4v2h-4z M73,85h5v2h-5z M81,86h5v1h-5z M88,85h5v2h-5z M96,86h5v1h-5z M103,85h4v2h-4z M109,86h5v1h-5z M117,86h6v1h-6z M125,86h3v1h-3z M162,86h3v1h-3z M170,86h2v1h-2z M177,86h1v1h-1z M183,86h2v1h-2z M190,86h2v1h-2z M196,86h2v1h-2z M202,86h3v1h-3z M209,86h2v1h-2z M215,86h2v1h-2z M222,86h2v1h-2z M6,87h3v1h-3z M20,86h5v2h-5z M37,87h2v1h-2z M45,87h2v1h-2z M53,87h1v1h-1z M59,86h3v2h-3z M67,87h2v1h-2z M74,87h3v1h-3z M81,87h4v1h-4z M89,87h4v1h-4z M96,87h4v1h-4z M104,87h2v1h-2z M110,87h3v1h-3z M118,87h4v1h-4z M124,87h4v1h-4z M139,86h4v2h-4z M146,86h5v2h-5z M175,87h4v1h-4z M182,87h4v1h-4z M195,87h4v1h-4z M201,87h4v1h-4z M214,87h4v1h-4z M229,87h3v1h-3z M83,88h1v1h-1z M90,88h2v1h-2z M98,88h2v1h-2z M119,88h2v1h-2z M125,88h3v1h-3z M132,86h4v3h-4z M140,88h3v1h-3z M146,88h4v1h-4z M154,86h5v3h-5z M162,87h4v2h-4z M169,87h4v2h-4z M175,88h5v1h-5z M182,88h5v1h-5z M189,87h4v2h-4z M194,88h5v1h-5z M201,88h5v1h-5z M213,88h5v1h-5z M236,88h2v1h-2z M242,88h3v1h-3z M248,88h2v1h-2z M255,88h2v1h-2z M264,85h5v4h-5z M0,87h5v3h-5z M134,89h1v1h-1z M148,89h1v1h-1z M156,89h2v1h-2z M163,89h2v1h-2z M170,89h2v1h-2z M175,89h4v1h-4z M183,89h3v1h-3z M190,89h2v1h-2z M195,89h5v1h-5z M202,89h4v1h-4z M208,87h4v3h-4z M214,89h4v1h-4z M228,88h5v2h-5z M261,89h8v1h-8z M0,90h6v1h-6z M177,90h1v1h-1z M196,90h3v1h-3z M203,90h1v1h-1z M209,90h2v1h-2z M221,87h4v4h-4z M229,90h4v1h-4z M235,89h4v2h-4z M247,89h5v2h-5z M0,91h7v1h-7z M11,91h2v1h-2z M17,91h2v1h-2z M26,91h2v1h-2z M42,91h2v1h-2z M49,91h2v1h-2z M223,91h1v1h-1z M236,91h2v1h-2z M242,89h4v3h-4z M248,91h3v1h-3z M254,89h4v3h-4z M260,90h9v2h-9z M11,92h4v1h-4z M16,92h5v1h-5z M25,92h3v1h-3z M40,92h4v1h-4z M56,92h3v1h-3z M101,92h2v1h-2z M249,92h2v1h-2z M255,92h3v1h-3z M10,93h12v1h-12z M40,93h5v1h-5z M77,93h4v1h-4z M85,93h3v1h-3z M93,93h4v1h-4z M100,93h4v1h-4z M107,93h3v1h-3z M114,93h3v1h-3z M121,93h3v1h-3z M137,93h3v1h-3z M144,93h2v1h-2z M151,93h2v1h-2z M158,93h2v1h-2z M261,92h8v2h-8z M11,94h10v1h-10z M25,93h4v2h-4z M33,92h4v3h-4z M40,94h4v1h-4z M48,92h4v3h-4z M55,93h4v2h-4z M63,92h4v3h-4z M70,92h4v3h-4z M76,94h6v1h-6z M92,94h6v1h-6z M100,94h5v1h-5z M106,94h5v1h-5z M114,94h4v1h-4z M144,94h3v1h-3z M164,94h2v1h-2z M171,94h2v1h-2z M182,94h2v1h-2z M188,94h3v1h-3z M264,94h5v1h-5z M0,92h9v4h-9z M11,95h4v1h-4z M18,95h3v1h-3z M26,95h2v1h-2z M34,95h1v1h-1z M49,95h2v1h-2z M56,95h3v1h-3z M64,95h2v1h-2z M71,95h2v1h-2z M77,95h5v1h-5z M84,94h5v2h-5z M93,95h4v1h-4z M100,95h3v1h-3z M107,95h3v1h-3z M113,95h4v1h-4z M120,94h4v2h-4z M128,93h4v3h-4z M136,94h5v2h-5z M195,95h3v1h-3z M202,95h3v1h-3z M209,95h3v1h-3z M216,95h2v1h-2z M223,95h2v1h-2z M230,95h1v1h-1z M265,95h4v1h-4z M0,96h6v1h-6z M13,96h1v1h-1z M78,96h3v1h-3z M84,96h4v1h-4z M94,96h2v1h-2z M101,96h1v1h-1z M107,96h1v1h-1z M115,96h2v1h-2z M121,96h2v1h-2z M129,96h2v1h-2z M136,96h4v1h-4z M144,95h4v2h-4z M150,94h4v3h-4z M157,94h4v3h-4z M164,95h3v2h-3z M170,95h4v2h-4z M176,95h3v2h-3z M181,95h4v2h-4z M194,96h5v1h-5z M215,96h4v1h-4z M229,96h3v1h-3z M241,96h4v1h-4z M248,96h2v1h-2z M264,96h5v1h-5z M145,97h2v1h-2z M152,97h1v1h-1z M158,97h2v1h-2z M165,97h2v1h-2z M170,97h3v1h-3z M177,97h2v1h-2z M182,97h3v1h-3z M188,95h4v3h-4z M195,97h4v1h-4z M202,96h4v2h-4z M215,97h5v1h-5z M254,97h3v1h-3z M261,97h8v1h-8z M189,98h1v1h-1z M196,98h2v1h-2z M202,98h3v1h-3z M209,96h4v3h-4z M215,98h4v1h-4z M222,96h4v3h-4z M229,97h4v2h-4z M241,97h5v2h-5z M253,98h5v1h-5z M0,97h5v3h-5z M7,99h1v1h-1z M13,99h1v1h-1z M58,99h2v1h-2z M209,99h3v1h-3z M216,99h2v1h-2z M223,99h2v1h-2z M229,99h3v1h-3z M235,96h4v4h-4z M241,99h4v1h-4z M260,98h9v2h-9z M0,100h10v1h-10z M26,100h3v1h-3z M33,100h4v1h-4z M42,100h3v1h-3z M50,100h3v1h-3z M57,100h4v1h-4z M67,100h2v1h-2z M74,100h2v1h-2z M82,100h1v1h-1z M88,100h2v1h-2z M230,100h1v1h-1z M242,100h3v1h-3z M248,97h3v4h-3z M254,99h4v2h-4z M50,101h4v1h-4z M74,101h3v1h-3z M81,101h3v1h-3z M88,101h4v1h-4z M96,101h2v1h-2z M109,101h3v1h-3z M118,101h1v1h-1z M125,101h2v1h-2z M147,101h1v1h-1z M255,101h2v1h-2z M261,100h8v2h-8z M0,101h11v2h-11z M12,100h5v3h-5z M19,100h4v3h-4z M26,101h4v2h-4z M33,101h5v2h-5z M41,101h5v2h-5z M50,102h5v1h-5z M57,101h5v2h-5z M66,101h3v2h-3z M81,102h4v1h-4z M87,102h5v1h-5z M108,102h5v1h-5z M124,102h3v1h-3z M132,102h3v1h-3z M139,102h2v1h-2z M145,102h3v1h-3z M153,102h2v1h-2z M160,102h2v1h-2z M165,102h3v1h-3z M181,102h1v1h-1z M6,103h3v1h-3z M13,103h4v1h-4z M20,103h2v1h-2z M27,103h3v1h-3z M33,103h4v1h-4z M42,103h3v1h-3z M50,103h4v1h-4z M58,103h3v1h-3z M67,103h2v1h-2z M73,102h4v2h-4z M81,103h3v1h-3z M95,102h4v2h-4z M109,103h4v1h-4z M117,102h3v2h-3z M124,103h4v1h-4z M131,103h5v1h-5z M138,103h4v1h-4z M144,103h6v1h-6z M166,103h3v1h-3z M186,103h3v1h-3z M192,103h3v1h-3z M199,103h4v1h-4z M20,104h1v1h-1z M51,104h2v1h-2z M73,104h2v1h-2z M88,103h4v2h-4z M96,104h3v1h-3z M102,101h3v4h-3z M110,104h2v1h-2z M117,104h2v1h-2z M124,104h3v1h-3z M132,104h3v1h-3z M139,104h2v1h-2z M145,104h4v1h-4z M152,103h4v2h-4z M159,103h4v2h-4z M165,104h4v1h-4z M172,102h4v3h-4z M192,104h4v1h-4z M207,104h3v1h-3z M213,104h3v1h-3z M220,104h1v1h-1z M226,104h3v1h-3z M233,104h3v1h-3z M239,104h2v1h-2z M245,104h2v1h-2z M97,105h1v1h-1z M125,105h2v1h-2z M146,105h2v1h-2z M152,105h3v1h-3z M160,105h2v1h-2z M167,105h1v1h-1z M173,105h3v1h-3z M179,103h4v3h-4z M185,104h4v2h-4z M192,105h3v1h-3z M199,104h5v2h-5z M206,105h4v1h-4z M212,105h4v1h-4z M232,105h5v1h-5z M238,105h4v1h-4z M251,105h3v1h-3z M257,105h3v1h-3z M264,102h5v4h-5z M179,106h3v1h-3z M185,106h2v1h-2z M193,106h2v1h-2z M200,106h4v1h-4z M206,106h5v1h-5z M213,106h3v1h-3z M226,105h4v2h-4z M232,106h10v1h-10z M263,106h6v1h-6z M201,107h2v1h-2z M207,107h3v1h-3z M214,107h2v1h-2z M220,105h4v3h-4z M227,107h3v1h-3z M232,107h5v1h-5z M238,107h4v1h-4z M245,105h3v3h-3z M250,106h5v2h-5z M0,103h5v6h-5z M47,108h2v1h-2z M62,108h1v1h-1z M227,108h2v1h-2z M234,108h2v1h-2z M240,108h1v1h-1z M246,108h2v1h-2z M251,108h3v1h-3z M257,106h4v3h-4z M10,109h3v1h-3z M24,109h3v1h-3z M39,109h2v1h-2z M46,109h3v1h-3z M54,109h2v1h-2z M61,109h3v1h-3z M76,109h1v1h-1z M84,109h3v1h-3z M114,109h1v1h-1z M122,109h2v1h-2z M258,109h2v1h-2z M16,109h4v2h-4z M30,109h4v2h-4z M38,110h4v1h-4z M84,110h4v1h-4z M98,110h3v1h-3z M105,110h3v1h-3z M113,110h3v1h-3z M121,110h3v1h-3z M130,110h2v1h-2z M160,110h1v1h-1z M168,110h2v1h-2z M0,109h7v3h-7z M29,111h5v1h-5z M37,111h5v1h-5z M45,110h5v2h-5z M60,110h4v2h-4z M75,110h4v2h-4z M83,111h5v1h-5z M90,110h4v2h-4z M121,111h4v1h-4z M138,111h3v1h-3z M152,111h3v1h-3z M175,111h3v1h-3z M183,111h2v1h-2z M191,111h2v1h-2z M198,111h2v1h-2z M206,111h1v1h-1z M9,110h5v3h-5z M16,111h5v2h-5z M23,110h4v3h-4z M30,112h4v1h-4z M38,112h3v1h-3z M46,112h4v1h-4z M53,110h4v3h-4z M61,112h3v1h-3z M68,109h3v4h-3z M84,112h4v1h-4z M90,112h5v1h-5z M97,111h5v2h-5z M105,111h4v2h-4z M113,111h4v2h-4z M121,112h3v1h-3z M129,111h4v2h-4z M137,112h4v1h-4z M205,112h3v1h-3z M212,112h3v1h-3z M219,112h3v1h-3z M227,112h2v1h-2z M234,112h1v1h-1z M241,112h2v1h-2z M264,107h5v6h-5z M0,112h6v2h-6z M10,113h2v1h-2z M19,113h1v1h-1z M31,113h2v1h-2z M54,113h2v1h-2z M76,112h3v2h-3z M85,113h2v1h-2z M91,113h3v1h-3z M98,113h4v1h-4z M106,113h2v1h-2z M115,113h1v1h-1z M137,113h3v1h-3z M144,111h4v3h-4z M151,112h4v2h-4z M159,111h4v3h-4z M167,111h4v3h-4z M175,112h4v2h-4z M182,112h5v2h-5z M212,113h4v1h-4z M233,113h4v1h-4z M256,113h1v1h-1z M100,114h1v1h-1z M145,114h3v1h-3z M152,114h2v1h-2z M160,114h2v1h-2z M168,114h2v1h-2z M175,114h3v1h-3z M183,114h4v1h-4z M190,112h4v3h-4z M197,112h4v3h-4z M204,113h5v2h-5z M211,114h5v1h-5z M219,113h4v2h-4z M226,113h5v2h-5z M234,114h3v1h-3z M248,113h3v2h-3z M255,114h3v1h-3z M261,113h8v2h-8z M191,115h2v1h-2z M198,115h2v1h-2z M205,115h4v1h-4z M212,115h3v1h-3z M219,115h3v1h-3z M227,115h4v1h-4z M234,115h4v1h-4z M240,113h4v3h-4z M247,115h4v1h-4z M260,115h9v1h-9z M213,116h2v1h-2z M241,116h3v1h-3z M248,116h3v1h-3z M254,115h4v2h-4z M0,114h5v4h-5z M33,117h1v1h-1z M43,117h1v1h-1z M255,117h3v1h-3z M261,116h8v2h-8z M0,118h4v1h-4z M8,118h3v1h-3z M16,118h3v1h-3z M25,118h2v1h-2z M32,118h4v1h-4z M41,118h5v1h-5z M68,118h3v1h-3z M77,118h2v1h-2z M85,118h2v1h-2z M7,119h4v1h-4z M41,119h4v1h-4z M58,119h4v1h-4z M100,119h3v1h-3z M107,119h3v1h-3z M115,119h2v1h-2z M121,119h3v1h-3z M128,119h3v1h-3z M137,119h2v1h-2z M144,119h1v1h-1z M151,119h3v1h-3z M0,119h5v2h-5z M6,120h6v1h-6z M32,119h5v2h-5z M41,120h3v1h-3z M49,118h4v3h-4z M58,120h5v1h-5z M67,119h4v2h-4z M76,119h3v2h-3z M84,119h4v2h-4z M99,120h4v1h-4z M143,120h3v1h-3z M159,120h3v1h-3z M176,120h3v1h-3z M198,120h2v1h-2z M204,120h2v1h-2z M211,120h3v1h-3z M218,120h3v1h-3z M225,120h1v1h-1z M0,121h4v1h-4z M7,121h4v1h-4z M15,119h4v3h-4z M24,119h4v3h-4z M33,121h4v1h-4z M43,121h1v1h-1z M50,121h3v1h-3z M58,121h4v1h-4z M68,121h3v1h-3z M76,121h2v1h-2z M85,121h2v1h-2z M92,119h4v3h-4z M100,121h3v1h-3z M107,120h4v2h-4z M114,120h4v2h-4z M120,120h4v2h-4z M136,120h4v2h-4z M143,121h4v1h-4z M175,121h5v1h-5z M211,121h4v1h-4z M231,121h3v1h-3z M237,121h3v1h-3z M244,121h3v1h-3z M8,122h2v1h-2z M17,122h2v1h-2z M25,122h2v1h-2z M34,122h1v1h-1z M61,122h1v1h-1z M101,122h2v1h-2z M108,122h2v1h-2z M115,122h2v1h-2z M121,122h3v1h-3z M128,120h4v3h-4z M136,122h3v1h-3z M144,122h2v1h-2z M151,120h4v3h-4z M159,121h4v2h-4z M167,120h4v3h-4z M175,122h4v1h-4z M197,121h4v2h-4z M204,121h4v2h-4z M210,122h5v1h-5z M251,122h3v1h-3z M1,122h3v2h-3z M129,123h2v1h-2z M144,123h1v1h-1z M152,123h2v1h-2z M159,123h3v1h-3z M168,123h2v1h-2z M176,123h2v1h-2z M183,120h3v4h-3z M190,120h4v4h-4z M198,123h3v1h-3z M205,123h2v1h-2z M211,123h4v1h-4z M218,121h4v3h-4z M224,121h4v3h-4z M230,122h5v2h-5z M257,123h4v1h-4z M264,118h5v6h-5z M212,124h2v1h-2z M231,124h3v1h-3z M237,122h4v3h-4z M244,122h4v3h-4z M250,123h5v2h-5z M238,125h1v1h-1z M244,125h3v1h-3z M250,125h4v1h-4z M256,124h6v2h-6z M263,124h6v2h-6z M7,126h2v1h-2z M13,126h4v1h-4z M23,126h2v1h-2z M40,126h3v1h-3z M49,126h1v1h-1z M57,126h2v1h-2z M66,126h1v1h-1z M76,126h2v1h-2z M253,126h1v1h-1z M257,126h4v1h-4z M262,126h7v1h-7z M12,127h5v1h-5z M21,127h5v1h-5z M57,127h3v1h-3z M66,127h2v1h-2z M75,127h3v1h-3z M91,127h1v1h-1z M106,127h2v1h-2z M121,127h2v1h-2z M127,127h3v1h-3z M165,127h2v1h-2z M258,127h2v1h-2z M263,127h6v1h-6z M13,128h5v1h-5z M21,128h6v1h-6z M48,127h4v2h-4z M56,128h5v1h-5z M90,128h3v1h-3z M106,128h3v1h-3z M114,128h1v1h-1z M120,128h3v1h-3z M126,128h5v1h-5z M135,128h3v1h-3z M143,128h2v1h-2z M157,128h3v1h-3z M165,128h3v1h-3z M187,128h2v1h-2z M6,127h4v3h-4z M14,129h3v1h-3z M22,129h4v1h-4z M40,127h4v3h-4z M49,129h3v1h-3z M57,129h3v1h-3z M65,128h4v2h-4z M75,128h4v2h-4z M90,129h4v1h-4z M105,129h4v1h-4z M126,129h6v1h-6z M186,129h4v1h-4z M193,129h3v1h-3z M200,129h3v1h-3z M230,129h2v1h-2z M239,129h2v1h-2z M7,130h2v1h-2z M15,130h1v1h-1z M23,130h1v1h-1z M30,127h4v4h-4z M41,130h1v1h-1z M49,130h2v1h-2z M66,130h2v1h-2z M76,130h2v1h-2z M82,127h4v4h-4z M91,130h2v1h-2z M98,128h3v3h-3z M106,130h2v1h-2z M113,129h3v2h-3z M120,129h4v2h-4z M126,130h5v1h-5z M134,129h5v2h-5z M142,129h4v2h-4z M149,128h4v3h-4z M156,129h5v2h-5z M186,130h5v1h-5z M222,130h3v1h-3z M229,130h4v1h-4z M238,130h3v1h-3z M246,130h2v1h-2z M253,130h2v1h-2z M99,131h1v1h-1z M113,131h2v1h-2z M120,131h3v1h-3z M128,131h2v1h-2z M135,131h3v1h-3z M143,131h2v1h-2z M150,131h2v1h-2z M157,131h3v1h-3z M164,129h5v3h-5z M172,128h3v4h-3z M179,128h4v4h-4z M186,131h4v1h-4z M193,130h4v2h-4z M221,131h4v1h-4z M238,131h4v1h-4z M0,124h5v9h-5z M158,132h1v1h-1z M165,132h3v1h-3z M187,132h2v1h-2z M194,132h2v1h-2z M200,130h4v3h-4z M207,130h4v3h-4z M215,130h3v3h-3z M222,132h3v1h-3z M228,131h6v2h-6z M238,132h3v1h-3z M245,131h4v2h-4z M1,133h4v1h-4z M11,133h2v1h-2z M194,133h1v1h-1z M207,133h2v1h-2z M223,133h2v1h-2z M229,133h4v1h-4z M245,133h3v1h-3z M252,131h4v3h-4z M259,131h3v3h-3z M0,134h7v1h-7z M8,134h6v1h-6z M260,134h2v1h-2z M0,135h86v1h-86z M87,135h2v1h-2z M91,135h1v1h-1z M97,135h1v1h-1z M100,135h1v1h-1z M110,135h1v1h-1z M264,128h5v8h-5z M0,136h130v1h-130z M131,136h8v1h-8z M141,136h7v1h-7z M149,136h5v1h-5z M159,136h3v1h-3z M166,136h4v1h-4z M1,137h201v1h-201z M265,136h4v2h-4z M2,138h243v1h-243z M246,138h6v1h-6z M264,138h5v1h-5z M10,139h5v1h-5z M23,139h21v1h-21z M45,139h224v1h-224z M104,140h3v1h-3z M129,140h9v1h-9z M139,140h130v1h-130z M171,141h5v1h-5z M188,141h2v1h-2z M192,141h76v1h-76z M236,142h31v1h-31z
  "/>
</svg>