<?xml version="1.0" encoding="UTF-8"?>
<svg xmlns="http://www.w3.org/2000/svg" viewBox="0 0 264 146" width="264" height="146">
  <title>02 Sand</title>
  <path fill="#111111" fill-rule="nonzero" d="
    M3,0h15v1h-15z M22,0h5v1h-5z M1,1h76v1h-76z M79,1h1v1h-1z M0,2h111v1h-111z M0,3h139v1h-139z M0,4h6v1h-6z M7,4h159v1h-159z M33,5h4v1h-4z M43,5h1v1h-1z M46,5h3v1h-3z M51,5h4v1h-4z M58,5h139v1h-139z M19,5h5v2h-5z M88,6h9v1h-9z M99,6h115v1h-115z M0,5h5v3h-5z M19,7h4v1h-4z M60,6h4v2h-4z M91,7h4v1h-4z M103,7h3v1h-3z M119,7h6v1h-6z M130,7h102v1h-102z M7,8h4v1h-4z M20,8h2v1h-2z M32,6h5v3h-5z M61,8h2v1h-2z M73,8h2v1h-2z M92,8h2v1h-2z M160,8h85v1h-85z M246,8h2v1h-2z M0,8h4v2h-4z M33,9h2v1h-2z M62,9h1v1h-1z M73,9h3v1h-3z M102,8h4v2h-4z M119,8h5v2h-5z M173,9h5v1h-5z M182,9h1v1h-1z M185,9h76v1h-76z M0,10h5v1h-5z M7,9h5v2h-5z M44,8h4v3h-4z M73,10h4v1h-4z M103,10h4v1h-4z M120,10h3v1h-3z M131,10h2v1h-2z M163,10h1v1h-1z M176,10h1v1h-1z M201,10h7v1h-7z M210,10h53v1h-53z M8,11h3v1h-3z M45,11h2v1h-2z M73,11h3v1h-3z M103,11h3v1h-3z M121,11h1v1h-1z M162,11h3v1h-3z M176,11h2v1h-2z M202,11h5v1h-5z M220,11h2v1h-2z M226,11h5v1h-5z M232,11h31v1h-31z M16,12h1v1h-1z M38,12h1v1h-1z M74,12h1v1h-1z M83,12h3v1h-3z M103,12h2v1h-2z M141,12h3v1h-3z M151,12h3v1h-3z M161,12h5v1h-5z M203,12h4v1h-4z M215,12h1v1h-1z M245,12h18v1h-18z M14,13h4v1h-4z M53,13h4v1h-4z M83,13h4v1h-4z M113,13h2v1h-2z M130,11h4v3h-4z M140,13h4v1h-4z M161,13h4v1h-4z M175,12h4v2h-4z M203,13h3v1h-3z M214,13h3v1h-3z M258,13h6v1h-6z M1,11h4v4h-4z M14,14h5v1h-5z M25,12h3v3h-3z M36,13h5v2h-5z M54,14h4v1h-4z M65,14h3v1h-3z M83,14h3v1h-3z M94,14h2v1h-2z M131,14h2v1h-2z M141,14h3v1h-3z M162,14h3v1h-3z M187,14h3v1h-3z M214,14h4v1h-4z M227,12h4v3h-4z M255,14h3v1h-3z M259,14h5v1h-5z M0,15h5v1h-5z M26,15h1v1h-1z M36,15h4v1h-4z M54,15h3v1h-3z M65,15h4v1h-4z M83,15h2v1h-2z M94,15h3v1h-3z M112,14h4v2h-4z M142,15h2v1h-2z M151,13h4v3h-4z M176,14h2v2h-2z M186,15h5v1h-5z M213,15h5v1h-5z M228,15h3v1h-3z M246,13h4v3h-4z M254,15h10v1h-10z M15,15h3v2h-3z M37,16h3v1h-3z M66,16h4v1h-4z M93,16h4v1h-4z M112,16h3v1h-3z M152,16h1v1h-1z M187,16h4v1h-4z M214,16h4v1h-4z M238,16h2v1h-2z M246,16h3v1h-3z M47,17h2v1h-2z M66,17h3v1h-3z M94,17h3v1h-3z M187,17h3v1h-3z M237,17h4v1h-4z M254,16h9v2h-9z M0,16h4v3h-4z M8,18h3v1h-3z M30,18h4v1h-4z M67,18h2v1h-2z M77,18h2v1h-2z M168,18h2v1h-2z M198,18h1v1h-1z M237,18h5v1h-5z M255,18h8v1h-8z M1,19h4v1h-4z M29,19h5v1h-5z M46,18h4v2h-4z M105,19h2v1h-2z M121,18h4v2h-4z M134,19h3v1h-3z M168,19h3v1h-3z M197,19h3v1h-3z M237,19h4v1h-4z M256,19h1v1h-1z M259,19h4v1h-4z M1,20h3v1h-3z M8,19h4v2h-4z M20,20h1v1h-1z M30,20h4v1h-4z M76,19h4v2h-4z M122,20h3v1h-3z M133,20h4v1h-4z M167,20h4v1h-4z M179,20h2v1h-2z M8,21h3v1h-3z M31,21h3v1h-3z M46,20h3v2h-3z M76,21h3v1h-3z M87,21h1v1h-1z M133,21h5v1h-5z M178,21h3v1h-3z M197,20h4v2h-4z M210,21h2v1h-2z M222,21h3v1h-3z M39,22h1v1h-1z M58,22h3v1h-3z M86,22h3v1h-3z M104,20h4v3h-4z M134,22h4v1h-4z M145,20h4v3h-4z M155,22h2v1h-2z M168,21h3v2h-3z M198,22h3v1h-3z M209,22h4v1h-4z M221,22h5v1h-5z M245,22h3v1h-3z M19,21h4v3h-4z M38,23h3v1h-3z M57,23h4v1h-4z M86,23h4v1h-4z M105,23h2v1h-2z M146,23h2v1h-2z M178,22h4v2h-4z M209,23h5v1h-5z M222,23h4v1h-4z M58,24h2v1h-2z M67,24h3v1h-3z M85,24h5v1h-5z M114,24h3v1h-3z M179,24h1v1h-1z M191,24h1v1h-1z M209,24h4v1h-4z M223,24h1v1h-1z M233,24h3v1h-3z M0,21h4v5h-4z M37,24h5v2h-5z M86,25h1v1h-1z M96,25h2v1h-2z M155,23h4v3h-4z M245,23h4v3h-4z M255,25h2v1h-2z M12,26h3v1h-3z M28,26h1v1h-1z M38,26h3v1h-3z M67,25h4v2h-4z M113,25h4v2h-4z M156,26h2v1h-2z M233,25h4v2h-4z M254,26h4v1h-4z M259,20h5v7h-5z M27,27h3v1h-3z M49,27h1v1h-1z M68,27h2v1h-2z M114,27h2v1h-2z M127,27h2v1h-2z M169,27h3v1h-3z M189,25h4v3h-4z M233,27h3v1h-3z M95,26h4v3h-4z M137,28h2v1h-2z M190,28h1v1h-1z M234,28h1v1h-1z M254,27h10v2h-10z M12,27h4v3h-4z M26,28h5v2h-5z M47,28h4v2h-4z M96,29h2v1h-2z M127,28h3v2h-3z M168,28h4v2h-4z M201,29h2v1h-2z M12,30h2v1h-2z M27,30h4v1h-4z M48,30h3v1h-3z M77,29h3v2h-3z M127,30h2v1h-2z M137,29h3v2h-3z M148,30h2v1h-2z M169,30h3v1h-3z M200,30h4v1h-4z M49,31h1v1h-1z M77,31h4v1h-4z M106,31h2v1h-2z M137,31h4v1h-4z M147,31h4v1h-4z M199,31h5v1h-5z M214,31h1v1h-1z M78,32h1v1h-1z M106,32h3v1h-3z M137,32h3v1h-3z M149,32h2v1h-2z M180,32h3v1h-3z M240,32h3v1h-3z M7,33h3v1h-3z M19,33h4v1h-4z M40,32h2v2h-2z M58,33h2v1h-2z M106,33h2v1h-2z M118,33h2v1h-2z M157,32h4v2h-4z M200,32h3v2h-3z M212,32h4v2h-4z M224,33h4v1h-4z M259,29h5v5h-5z M39,34h4v1h-4z M69,34h2v1h-2z M117,34h4v1h-4z M158,34h3v1h-3z M179,33h4v2h-4z M191,34h2v1h-2z M212,34h3v1h-3z M223,34h5v1h-5z M240,33h4v2h-4z M259,34h4v1h-4z M7,34h4v2h-4z M18,34h5v2h-5z M40,35h2v1h-2z M57,34h4v2h-4z M87,33h4v3h-4z M116,35h5v1h-5z M159,35h2v1h-2z M180,35h3v1h-3z M224,35h4v1h-4z M240,35h3v1h-3z M251,35h3v1h-3z M7,36h3v1h-3z M19,36h3v1h-3z M29,36h4v1h-4z M57,36h3v1h-3z M87,36h3v1h-3z M117,36h4v1h-4z M190,35h4v2h-4z M225,36h2v1h-2z M259,35h5v2h-5z M8,37h2v1h-2z M29,37h5v1h-5z M68,35h3v3h-3z M98,37h2v1h-2z M118,37h2v1h-2z M169,37h3v1h-3z M191,37h3v1h-3z M250,36h5v2h-5z M30,38h3v1h-3z M49,38h3v1h-3z M139,38h1v1h-1z M168,38h4v1h-4z M191,38h2v1h-2z M251,38h3v1h-3z M15,39h1v1h-1z M31,39h2v1h-2z M127,39h3v1h-3z M137,39h3v1h-3z M168,39h5v1h-5z M206,39h1v1h-1z M232,39h3v1h-3z M251,39h2v1h-2z M259,37h4v3h-4z M14,40h4v1h-4z M23,40h3v1h-3z M38,40h2v1h-2z M48,39h4v2h-4z M97,38h4v3h-4z M109,40h3v1h-3z M127,40h4v1h-4z M170,40h2v1h-2z M260,40h3v1h-3z M49,41h3v1h-3z M76,40h4v2h-4z M98,41h2v1h-2z M126,41h5v1h-5z M137,40h4v2h-4z M148,41h2v1h-2z M158,41h2v1h-2z M14,41h3v2h-3z M38,41h3v2h-3z M88,42h2v1h-2z M126,42h4v1h-4z M138,42h2v1h-2z M158,42h3v1h-3z M182,42h3v1h-3z M205,40h3v3h-3z M217,42h3v1h-3z M231,40h5v3h-5z M245,42h3v1h-3z M23,41h4v3h-4z M39,43h2v1h-2z M76,42h3v2h-3z M108,41h5v3h-5z M159,43h2v1h-2z M217,43h4v1h-4z M233,43h2v1h-2z M244,43h4v1h-4z M259,41h4v3h-4z M23,44h3v1h-3z M55,44h3v1h-3z M110,44h2v1h-2z M118,44h4v1h-4z M147,42h4v3h-4z M181,43h5v2h-5z M217,44h3v1h-3z M257,44h6v1h-6z M31,45h3v1h-3z M67,45h2v1h-2z M87,43h4v3h-4z M148,45h2v1h-2z M182,45h3v1h-3z M244,44h5v2h-5z M118,45h5v2h-5z M183,46h1v1h-1z M195,46h3v1h-3z M244,46h4v1h-4z M255,45h9v2h-9z M0,26h5v22h-5z M30,46h5v2h-5z M45,47h3v1h-3z M55,45h4v3h-4z M66,46h4v2h-4z M99,47h2v1h-2z M118,47h4v1h-4z M174,47h2v1h-2z M195,47h4v1h-4z M255,47h8v1h-8z M7,45h3v4h-3z M18,48h2v1h-2z M30,48h4v1h-4z M45,48h4v1h-4z M67,48h2v1h-2z M78,48h2v1h-2z M196,48h2v1h-2z M255,48h9v1h-9z M31,49h2v1h-2z M45,49h3v1h-3z M77,49h4v1h-4z M98,48h4v2h-4z M137,49h2v1h-2z M173,48h4v2h-4z M1,48h4v3h-4z M17,49h4v2h-4z M76,50h6v1h-6z M99,50h2v1h-2z M127,50h1v1h-1z M174,50h3v1h-3z M234,50h2v1h-2z M18,51h2v1h-2z M76,51h5v1h-5z M126,51h4v1h-4z M148,51h3v1h-3z M161,51h3v1h-3z M210,51h2v1h-2z M233,51h4v1h-4z M0,51h5v2h-5z M38,52h2v1h-2z M79,52h1v1h-1z M125,52h5v1h-5z M137,50h3v3h-3z M232,52h5v1h-5z M1,53h4v1h-4z M27,53h2v1h-2z M54,53h1v1h-1z M65,53h1v1h-1z M87,52h4v2h-4z M126,53h4v1h-4z M147,52h4v2h-4z M160,52h4v2h-4z M209,52h4v2h-4z M244,53h1v1h-1z M37,53h4v2h-4z M53,54h2v1h-2z M87,54h5v1h-5z M108,51h3v4h-3z M126,54h3v1h-3z M161,54h2v1h-2z M210,54h2v1h-2z M233,53h4v2h-4z M243,54h3v1h-3z M253,54h3v1h-3z M0,54h5v2h-5z M12,55h3v1h-3z M38,55h3v1h-3z M87,55h4v1h-4z M148,54h3v2h-3z M186,53h4v3h-4z M221,52h4v4h-4z M1,56h4v1h-4z M11,56h5v1h-5z M26,54h4v3h-4z M39,56h1v1h-1z M52,55h4v2h-4z M115,56h5v1h-5z M187,56h2v1h-2z M243,55h4v2h-4z M12,57h3v1h-3z M27,57h2v1h-2z M54,57h1v1h-1z M63,54h4v4h-4z M97,57h1v1h-1z M115,57h4v1h-4z M175,57h4v1h-4z M198,56h4v2h-4z M243,57h3v1h-3z M253,55h4v3h-4z M13,58h2v1h-2z M73,58h3v1h-3z M96,58h3v1h-3z M116,58h3v1h-3z M199,58h3v1h-3z M254,58h2v1h-2z M96,59h4v1h-4z M133,59h2v1h-2z M175,58h5v2h-5z M200,59h2v1h-2z M19,60h3v1h-3z M44,60h4v1h-4z M72,59h4v2h-4z M83,60h2v1h-2z M142,60h3v1h-3z M153,60h3v1h-3z M175,60h4v1h-4z M0,57h5v5h-5z M19,61h4v1h-4z M32,61h4v1h-4z M73,61h3v1h-3z M82,61h3v1h-3z M96,60h3v2h-3z M132,60h4v2h-4z M142,61h4v1h-4z M166,61h1v1h-1z M1,62h4v1h-4z M8,62h1v1h-1z M32,62h5v1h-5z M44,61h5v2h-5z M57,62h3v1h-3z M106,61h4v2h-4z M133,62h2v1h-2z M142,62h3v1h-3z M152,61h5v2h-5z M164,62h3v1h-3z M235,62h3v1h-3z M259,49h5v14h-5z M0,63h5v1h-5z M7,63h3v1h-3z M19,62h3v2h-3z M33,63h3v1h-3z M45,63h3v1h-3z M82,62h4v2h-4z M107,63h3v1h-3z M143,63h1v1h-1z M153,63h3v1h-3z M164,63h4v1h-4z M210,63h2v1h-2z M247,63h2v1h-2z M259,63h4v1h-4z M6,64h4v1h-4z M83,64h2v1h-2z M164,64h3v1h-3z M235,63h4v2h-4z M246,64h4v1h-4z M259,64h5v1h-5z M6,65h3v1h-3z M57,63h4v3h-4z M68,65h2v1h-2z M165,65h2v1h-2z M235,65h3v1h-3z M259,65h4v1h-4z M92,66h2v1h-2z M122,64h4v3h-4z M209,64h4v3h-4z M236,66h1v1h-1z M247,65h4v2h-4z M259,66h5v1h-5z M67,66h4v2h-4z M124,67h1v1h-1z M210,67h2v1h-2z M223,64h3v4h-3z M248,67h2v1h-2z M26,68h3v1h-3z M68,68h2v1h-2z M92,67h3v2h-3z M185,65h4v4h-4z M197,68h3v1h-3z M256,68h1v1h-1z M260,67h4v2h-4z M26,69h4v1h-4z M79,69h2v1h-2z M92,69h2v1h-2z M113,69h2v1h-2z M145,69h2v1h-2z M172,69h2v1h-2z M186,69h2v1h-2z M196,69h4v1h-4z M26,70h3v1h-3z M102,70h2v1h-2z M14,68h4v4h-4z M27,71h2v1h-2z M78,70h4v2h-4z M113,70h3v2h-3z M144,70h4v2h-4z M157,71h2v1h-2z M197,70h3v2h-3z M254,69h10v3h-10z M15,72h1v1h-1z M37,70h3v3h-3z M78,72h3v1h-3z M101,71h4v2h-4z M144,72h3v1h-3z M171,70h4v3h-4z M244,72h2v1h-2z M255,72h2v1h-2z M47,71h4v3h-4z M59,73h3v1h-3z M79,73h1v1h-1z M102,73h1v1h-1z M122,73h2v1h-2z M132,72h3v2h-3z M156,72h3v2h-3z M172,73h2v1h-2z M232,73h3v1h-3z M244,73h3v1h-3z M47,74h3v1h-3z M133,74h2v1h-2z M157,74h2v1h-2z M208,74h4v1h-4z M220,74h3v1h-3z M259,72h5v3h-5z M8,75h2v1h-2z M59,74h4v2h-4z M87,75h2v1h-2z M121,74h4v2h-4z M219,75h5v1h-5z M231,74h4v2h-4z M243,74h4v2h-4z M31,76h2v1h-2z M59,76h3v1h-3z M69,76h3v1h-3z M86,76h4v1h-4z M122,76h2v1h-2z M182,76h3v1h-3z M207,75h5v2h-5z M219,76h4v1h-4z M232,76h3v1h-3z M245,76h1v1h-1z M31,77h3v1h-3z M68,77h5v1h-5z M85,77h5v1h-5z M166,77h2v1h-2z M208,77h4v1h-4z M220,77h3v1h-3z M7,76h4v3h-4z M19,78h3v1h-3z M30,78h4v1h-4z M69,78h4v1h-4z M86,78h3v1h-3z M181,77h4v2h-4z M209,78h2v1h-2z M19,79h4v1h-4z M30,79h3v1h-3z M69,79h3v1h-3z M109,79h2v1h-2z M182,79h3v1h-3z M194,79h3v1h-3z M18,80h4v1h-4z M108,80h3v1h-3z M165,78h4v3h-4z M183,80h1v1h-1z M253,80h3v1h-3z M19,81h3v1h-3z M42,80h3v2h-3z M54,81h1v1h-1z M95,79h4v3h-4z M140,80h4v2h-4z M154,81h2v1h-2z M239,81h3v1h-3z M259,75h4v7h-4z M43,82h2v1h-2z M96,82h2v1h-2z M109,81h2v2h-2z M128,82h2v1h-2z M141,82h3v1h-3z M175,82h3v1h-3z M194,80h4v3h-4z M253,81h4v2h-4z M195,83h2v1h-2z M205,83h3v1h-3z M239,82h4v2h-4z M253,83h3v1h-3z M260,82h3v2h-3z M53,82h3v3h-3z M65,84h1v1h-1z M127,83h4v2h-4z M153,82h4v3h-4z M174,83h5v2h-5z M230,84h3v1h-3z M239,84h3v1h-3z M259,84h5v1h-5z M12,85h3v1h-3z M53,85h2v1h-2z M64,85h3v1h-3z M86,85h2v1h-2z M116,85h3v1h-3z M128,85h2v1h-2z M155,85h1v1h-1z M175,85h3v1h-3z M204,84h5v2h-5z M25,85h3v2h-3z M36,86h1v1h-1z M75,84h4v3h-4z M176,86h2v1h-2z M205,86h4v1h-4z M259,85h4v2h-4z M11,86h4v2h-4z M24,87h5v1h-5z M63,86h4v2h-4z M85,86h4v2h-4z M115,86h4v2h-4z M218,85h5v3h-5z M229,85h5v3h-5z M259,87h5v1h-5z M12,88h1v1h-1z M25,88h3v1h-3z M87,88h2v1h-2z M116,88h3v1h-3z M147,88h2v1h-2z M164,86h4v3h-4z M220,88h1v1h-1z M231,88h2v1h-2z M35,87h4v3h-4z M102,88h3v2h-3z M165,89h3v1h-3z M36,90h2v1h-2z M102,90h4v1h-4z M135,88h4v3h-4z M187,88h4v3h-4z M259,88h4v3h-4z M102,91h3v1h-3z M123,91h2v1h-2z M137,91h1v1h-1z M188,91h2v1h-2z M246,88h4v4h-4z M259,91h5v1h-5z M9,92h1v1h-1z M47,90h4v3h-4z M122,92h4v1h-4z M146,89h3v4h-3z M157,92h4v1h-4z M176,92h4v1h-4z M246,92h1v1h-1z M257,92h6v1h-6z M7,93h3v1h-3z M19,92h4v2h-4z M48,93h2v1h-2z M70,93h2v1h-2z M122,93h5v1h-5z M156,93h5v1h-5z M175,93h5v1h-5z M211,93h2v1h-2z M236,93h2v1h-2z M256,93h8v1h-8z M19,94h3v1h-3z M59,94h2v1h-2z M91,94h2v1h-2z M112,94h2v1h-2z M176,94h4v1h-4z M198,92h3v3h-3z M210,94h3v1h-3z M235,94h4v1h-4z M20,95h2v1h-2z M69,94h4v2h-4z M81,95h3v1h-3z M122,94h4v2h-4z M156,94h4v2h-4z M177,95h3v1h-3z M197,95h4v1h-4z M235,95h5v1h-5z M256,94h7v2h-7z M7,94h4v3h-4z M58,95h3v2h-3z M69,96h3v1h-3z M91,95h4v2h-4z M158,96h1v1h-1z M209,95h4v2h-4z M224,94h4v3h-4z M235,96h4v1h-4z M29,96h4v2h-4z M58,97h2v1h-2z M80,96h4v2h-4z M91,97h3v1h-3z M111,95h4v3h-4z M167,97h1v1h-1z M187,97h2v1h-2z M211,97h2v1h-2z M225,97h2v1h-2z M237,97h2v1h-2z M30,98h4v1h-4z M81,98h2v1h-2z M92,98h2v1h-2z M113,98h1v1h-1z M142,98h3v1h-3z M187,98h4v1h-4z M246,98h3v1h-3z M30,99h3v1h-3z M186,99h5v1h-5z M31,100h1v1h-1z M42,100h2v1h-2z M141,99h5v2h-5z M166,98h4v3h-4z M187,100h3v1h-3z M245,99h5v2h-5z M131,98h3v4h-3z M142,101h3v1h-3z M153,101h3v1h-3z M166,101h3v1h-3z M202,101h2v1h-2z M246,101h3v1h-3z M15,102h3v1h-3z M66,102h3v1h-3z M100,99h3v4h-3z M152,102h4v1h-4z M201,102h3v1h-3z M217,100h4v3h-4z M230,102h1v1h-1z M15,103h4v1h-4z M41,101h4v3h-4z M55,103h2v1h-2z M122,103h2v1h-2z M152,103h5v1h-5z M178,103h1v1h-1z M219,103h1v1h-1z M229,103h4v1h-4z M257,103h1v1h-1z M259,96h4v8h-4z M15,104h3v1h-3z M42,104h3v1h-3z M77,104h3v1h-3z M89,104h3v1h-3z M111,104h3v1h-3z M121,104h4v1h-4z M152,104h4v1h-4z M43,105h1v1h-1z M54,104h4v2h-4z M65,103h4v3h-4z M77,105h4v1h-4z M111,105h4v1h-4z M121,105h5v1h-5z M154,105h1v1h-1z M201,103h4v3h-4z M210,105h3v1h-3z M228,104h5v2h-5z M25,106h2v1h-2z M55,106h2v1h-2z M66,106h2v1h-2z M76,106h5v1h-5z M88,105h4v2h-4z M112,106h2v1h-2z M121,106h4v1h-4z M177,104h3v3h-3z M229,106h3v1h-3z M239,106h3v1h-3z M77,107h4v1h-4z M89,107h2v1h-2z M122,107h2v1h-2z M144,107h2v1h-2z M160,107h2v1h-2z M178,107h1v1h-1z M189,107h3v1h-3z M209,106h5v2h-5z M255,104h8v4h-8z M78,108h1v1h-1z M132,108h3v1h-3z M210,108h4v1h-4z M239,107h4v2h-4z M256,108h7v1h-7z M24,107h3v3h-3z M36,109h1v1h-1z M159,108h4v2h-4z M188,108h5v2h-5z M211,109h2v1h-2z M220,109h2v1h-2z M239,109h3v1h-3z M249,109h2v1h-2z M8,108h3v3h-3z M143,108h4v3h-4z M189,110h4v1h-4z M8,111h2v1h-2z M35,110h3v2h-3z M47,110h1v2h-1z M131,109h4v3h-4z M144,111h2v1h-2z M160,110h3v2h-3z M171,111h3v1h-3z M248,110h4v2h-4z M259,109h5v3h-5z M17,112h1v1h-1z M84,112h1v1h-1z M107,112h3v1h-3z M170,112h5v1h-5z M219,110h4v3h-4z M247,112h5v1h-5z M17,113h3v1h-3z M46,112h4v2h-4z M69,113h3v1h-3z M83,113h3v1h-3z M95,112h4v2h-4z M171,113h4v1h-4z M199,112h4v2h-4z M220,113h2v1h-2z M230,113h2v1h-2z M248,113h4v1h-4z M17,114h4v1h-4z M47,114h3v1h-3z M58,114h3v1h-3z M96,114h3v1h-3z M106,113h4v2h-4z M153,114h2v1h-2z M171,114h3v1h-3z M200,114h3v1h-3z M16,115h4v1h-4z M57,115h5v1h-5z M69,114h4v2h-4z M83,114h4v2h-4z M97,115h1v1h-1z M107,115h2v1h-2z M152,115h3v1h-3z M181,115h3v1h-3z M200,115h2v1h-2z M210,115h2v1h-2z M17,116h3v1h-3z M58,116h4v1h-4z M70,116h3v1h-3z M117,114h4v3h-4z M139,116h3v1h-3z M152,116h4v1h-4z M229,114h4v3h-4z M259,112h4v5h-4z M28,117h2v1h-2z M59,117h1v1h-1z M118,117h2v1h-2z M127,117h2v1h-2z M152,117h3v1h-3z M180,116h5v2h-5z M229,117h3v1h-3z M241,117h2v1h-2z M28,118h3v1h-3z M139,117h4v2h-4z M163,118h3v1h-3z M181,118h3v1h-3z M209,116h4v3h-4z M10,119h1v1h-1z M27,119h5v1h-5z M39,119h3v1h-3z M139,119h3v1h-3z M182,119h1v1h-1z M193,119h2v1h-2z M252,119h1v1h-1z M38,120h5v1h-5z M127,118h3v3h-3z M140,120h1v1h-1z M163,119h4v2h-4z M218,120h2v1h-2z M240,118h4v3h-4z M28,120h3v2h-3z M38,121h4v1h-4z M63,121h3v1h-3z M75,121h3v1h-3z M89,121h2v1h-2z M101,121h2v1h-2z M112,121h2v1h-2z M128,121h2v1h-2z M163,121h3v1h-3z M29,122h1v1h-1z M39,122h2v1h-2z M50,122h2v1h-2z M74,122h5v1h-5z M164,122h1v1h-1z M192,120h4v3h-4z M217,121h4v2h-4z M8,120h4v4h-4z M49,123h4v1h-4z M75,123h4v1h-4z M88,122h4v2h-4z M100,122h3v2h-3z M111,122h4v2h-4z M146,123h3v1h-3z M202,123h3v1h-3z M217,123h3v1h-3z M251,120h4v4h-4z M19,124h2v1h-2z M50,124h3v1h-3z M63,122h4v3h-4z M76,124h3v1h-3z M88,124h3v1h-3z M101,124h2v1h-2z M112,124h3v1h-3z M134,124h3v1h-3z M218,124h1v1h-1z M228,124h3v1h-3z M51,125h1v1h-1z M63,125h3v1h-3z M121,125h2v1h-2z M184,125h2v1h-2z M201,124h5v2h-5z M227,125h4v1h-4z M133,125h5v2h-5z M146,124h4v3h-4z M157,125h4v2h-4z M172,124h3v3h-3z M202,126h3v1h-3z M228,126h3v1h-3z M18,125h4v3h-4z M134,127h3v1h-3z M156,127h5v1h-5z M173,127h1v1h-1z M229,127h1v1h-1z M242,127h3v1h-3z M1,64h4v65h-4z M19,128h2v1h-2z M120,126h4v3h-4z M135,128h1v1h-1z M157,128h3v1h-3z M183,126h4v3h-4z M211,128h1v1h-1z M241,128h5v1h-5z M1,129h6v1h-6z M29,129h2v1h-2z M43,129h2v1h-2z M57,129h1v1h-1z M70,129h1v1h-1z M83,129h2v1h-2z M184,129h2v1h-2z M195,129h1v1h-1z M210,129h3v1h-3z M242,129h4v1h-4z M28,130h4v1h-4z M56,130h3v1h-3z M82,130h3v1h-3z M111,130h2v1h-2z M194,130h4v1h-4z M242,130h3v1h-3z M252,130h4v1h-4z M1,130h8v2h-8z M28,131h5v1h-5z M43,130h3v2h-3z M56,131h4v1h-4z M69,130h4v2h-4z M82,131h4v1h-4z M111,131h3v1h-3z M209,130h4v2h-4z M252,131h5v1h-5z M1,132h9v1h-9z M29,132h4v1h-4z M56,132h3v1h-3z M69,132h3v1h-3z M83,132h3v1h-3z M96,130h4v3h-4z M110,132h4v1h-4z M132,132h1v1h-1z M142,132h3v1h-3z M169,132h3v1h-3z M193,131h5v2h-5z M210,132h2v1h-2z M232,132h4v1h-4z M251,132h6v1h-6z M1,133h25v1h-25z M27,133h6v1h-6z M43,132h2v2h-2z M56,133h2v1h-2z M69,133h2v1h-2z M97,133h1v1h-1z M111,133h3v1h-3z M130,133h4v1h-4z M156,133h2v1h-2z M185,133h1v1h-1z M194,133h4v1h-4z M221,133h2v1h-2z M231,133h6v1h-6z M252,133h5v1h-5z M1,134h77v1h-77z M79,134h7v1h-7z M97,134h4v1h-4z M110,134h3v1h-3z M130,134h5v1h-5z M142,133h4v2h-4z M168,133h5v2h-5z M184,134h3v1h-3z M204,134h1v1h-1z M220,134h4v1h-4z M231,134h5v1h-5z M254,134h1v1h-1z M1,135h116v1h-116z M129,135h6v1h-6z M141,135h5v1h-5z M155,134h4v2h-4z M169,135h2v1h-2z M183,135h4v1h-4z M220,135h5v1h-5z M232,135h3v1h-3z M245,135h1v1h-1z M259,117h5v19h-5z M3,136h158v1h-158z M168,136h3v1h-3z M183,136h5v1h-5z M220,136h3v1h-3z M233,136h1v1h-1z M244,136h3v1h-3z M259,136h4v1h-4z M14,137h175v1h-175z M203,135h4v3h-4z M260,137h3v1h-3z M51,138h158v1h-158z M243,137h5v2h-5z M95,139h136v1h-136z M232,139h3v1h-3z M244,139h3v1h-3z M103,140h2v1h-2z M132,140h1v1h-1z M141,140h108v1h-108z M252,140h2v1h-2z M259,138h4v3h-4z M157,141h1v1h-1z M164,141h3v1h-3z M170,141h93v1h-93z M178,142h8v1h-8z M195,142h68v1h-68z M179,143h6v1h-6z M219,143h4v1h-4z M224,143h39v1h-39z M109,144h4v1h-4z M181,144h2v1h-2z M239,144h24v1h-24z M106,145h9v1h-9z M257,145h3v1h-3z
  "/>
</svg>