<?xml version="1.0" encoding="UTF-8"?>
<svg xmlns="http://www.w3.org/2000/svg" viewBox="0 0 267 139" width="267" height="139">
  <title>01 Soil, silt, or alluvium</title>
  <path fill="#111111" fill-rule="nonzero" d="
    M59,0h1v1h-1z M64,0h5v1h-5z M121,0h10v1h-10z M142,0h9v1h-9z M162,0h103v1h-103z M2,1h8v1h-8z M11,1h255v1h-255z M1,2h265v1h-265z M0,3h267v1h-267z M0,4h152v1h-152z M153,4h3v1h-3z M159,4h12v1h-12z M174,4h6v1h-6z M181,4h1v1h-1z M185,4h15v1h-15z M209,4h3v1h-3z M216,4h3v1h-3z M227,4h8v1h-8z M237,4h5v1h-5z M245,4h7v1h-7z M254,4h6v1h-6z M261,4h6v1h-6z M262,5h5v2h-5z M263,7h4v17h-4z M262,24h5v1h-5z M263,25h4v4h-4z M262,29h5v4h-5z M263,33h4v3h-4z M262,36h5v1h-5z M0,5h5v33h-5z M190,37h3v1h-3z M194,37h1v1h-1z M213,37h2v1h-2z M233,37h8v1h-8z M243,37h4v1h-4z M259,37h8v1h-8z M0,38h9v1h-9z M13,38h4v1h-4z M25,38h6v1h-6z M33,38h6v1h-6z M68,38h4v1h-4z M74,38h1v1h-1z M128,38h3v1h-3z M134,38h3v1h-3z M138,38h6v1h-6z M157,38h2v1h-2z M180,38h20v1h-20z M212,38h8v1h-8z M222,38h28v1h-28z M255,38h12v1h-12z M0,39h18v1h-18z M19,39h2v1h-2z M24,39h21v1h-21z M53,39h4v1h-4z M59,39h3v1h-3z M64,39h14v1h-14z M86,39h4v1h-4z M92,39h3v1h-3z M96,39h2v1h-2z M101,39h16v1h-16z M124,39h7v1h-7z M134,39h11v1h-11z M151,39h22v1h-22z M178,39h24v1h-24z M205,39h62v1h-62z M0,40h46v1h-46z M51,40h32v1h-32z M85,40h14v1h-14z M101,40h45v1h-45z M149,40h24v1h-24z M177,40h90v1h-90z M0,41h50v1h-50z M51,41h48v1h-48z M101,41h166v1h-166z M0,42h203v1h-203z M204,42h63v1h-63z M0,43h20v1h-20z M22,43h28v1h-28z M52,43h150v1h-150z M207,43h27v1h-27z M235,43h11v1h-11z M247,43h6v1h-6z M258,43h9v1h-9z M0,44h19v1h-19z M23,44h27v1h-27z M56,44h3v1h-3z M60,44h36v1h-36z M97,44h22v1h-22z M122,44h28v1h-28z M163,44h7v1h-7z M171,44h6v1h-6z M178,44h6v1h-6z M190,44h5v1h-5z M217,44h4v1h-4z M224,44h4v1h-4z M250,44h2v1h-2z M261,44h6v1h-6z M9,45h2v1h-2z M15,45h1v1h-1z M24,45h2v1h-2z M32,45h8v1h-8z M41,45h2v1h-2z M45,45h1v1h-1z M58,45h1v1h-1z M61,45h3v1h-3z M72,45h7v1h-7z M80,45h16v1h-16z M98,45h6v1h-6z M106,45h6v1h-6z M116,45h1v1h-1z M122,45h8v1h-8z M134,45h2v1h-2z M147,45h2v1h-2z M0,45h5v2h-5z M73,46h2v1h-2z M76,46h2v1h-2z M81,46h5v1h-5z M89,46h1v1h-1z M173,45h2v2h-2z M262,45h5v2h-5z M0,47h6v1h-6z M58,47h2v1h-2z M125,47h1v1h-1z M137,47h1v1h-1z M140,47h4v1h-4z M145,47h2v1h-2z M172,47h16v1h-16z M194,47h7v1h-7z M207,47h18v1h-18z M236,47h1v1h-1z M240,47h2v1h-2z M248,47h5v1h-5z M254,47h13v1h-13z M0,48h10v1h-10z M13,48h14v1h-14z M47,48h14v1h-14z M72,48h1v1h-1z M99,48h2v1h-2z M109,48h1v1h-1z M124,48h3v1h-3z M131,48h1v1h-1z M136,48h13v1h-13z M154,48h1v1h-1z M165,48h4v1h-4z M0,49h29v1h-29z M33,49h7v1h-7z M66,49h3v1h-3z M71,49h3v1h-3z M77,49h1v1h-1z M84,49h9v1h-9z M119,49h9v1h-9z M130,49h3v1h-3z M134,49h16v1h-16z M153,49h3v1h-3z M164,49h5v1h-5z M171,48h18v2h-18z M192,48h11v2h-11z M207,48h19v2h-19z M229,48h3v2h-3z M235,48h8v2h-8z M0,50h30v1h-30z M31,50h10v1h-10z M43,49h19v2h-19z M65,50h13v1h-13z M119,50h3v1h-3z M123,50h5v1h-5z M130,50h2v1h-2z M135,50h16v1h-16z M153,50h4v1h-4z M159,49h3v2h-3z M172,50h17v1h-17z M192,50h10v1h-10z M207,50h11v1h-11z M219,50h7v1h-7z M229,50h2v1h-2z M235,50h1v1h-1z M240,50h3v1h-3z M246,48h21v3h-21z M0,51h10v1h-10z M12,51h28v1h-28z M44,51h17v1h-17z M65,51h3v1h-3z M70,51h4v1h-4z M83,50h11v2h-11z M97,49h18v3h-18z M119,51h2v1h-2z M125,51h2v1h-2z M136,51h4v1h-4z M143,51h7v1h-7z M154,51h2v1h-2z M159,51h2v1h-2z M165,50h3v2h-3z M182,51h5v1h-5z M258,51h1v1h-1z M260,51h7v1h-7z M14,52h2v1h-2z M24,52h4v1h-4z M33,52h6v1h-6z M85,52h8v1h-8z M98,52h12v1h-12z M89,53h1v1h-1z M262,52h5v2h-5z M180,54h1v1h-1z M261,54h6v1h-6z M0,52h5v4h-5z M23,55h1v1h-1z M43,55h2v1h-2z M83,55h2v1h-2z M103,55h2v1h-2z M129,55h5v1h-5z M137,55h7v1h-7z M149,55h11v1h-11z M165,55h20v1h-20z M196,55h3v1h-3z M209,55h1v1h-1z M219,55h2v1h-2z M226,55h2v1h-2z M229,55h16v1h-16z M249,55h3v1h-3z M253,55h4v1h-4z M0,56h9v1h-9z M11,56h3v1h-3z M17,56h3v1h-3z M21,56h12v1h-12z M39,56h3v1h-3z M43,56h4v1h-4z M48,56h2v1h-2z M61,56h7v1h-7z M73,56h18v1h-18z M97,56h2v1h-2z M102,56h5v1h-5z M110,55h2v2h-2z M115,56h1v1h-1z M164,56h21v1h-21z M202,56h4v1h-4z M207,56h15v1h-15z M249,56h9v1h-9z M0,57h15v1h-15z M17,57h17v1h-17z M43,57h8v1h-8z M55,57h14v1h-14z M72,57h20v1h-20z M97,57h3v1h-3z M103,57h4v1h-4z M109,57h4v1h-4z M115,57h3v1h-3z M121,56h24v2h-24z M148,56h12v2h-12z M163,57h22v1h-22z M190,56h4v2h-4z M196,56h4v2h-4z M207,57h4v1h-4z M212,57h11v1h-11z M225,56h21v2h-21z M249,57h3v1h-3z M253,57h5v1h-5z M259,55h8v3h-8z M0,58h9v1h-9z M11,58h3v1h-3z M18,58h15v1h-15z M38,57h4v2h-4z M43,58h3v1h-3z M48,58h3v1h-3z M55,58h15v1h-15z M72,58h19v1h-19z M97,58h2v1h-2z M103,58h3v1h-3z M109,58h3v1h-3z M114,58h4v1h-4z M121,58h23v1h-23z M149,58h10v1h-10z M164,58h18v1h-18z M190,58h3v1h-3z M197,58h2v1h-2z M202,57h3v2h-3z M208,58h2v1h-2z M212,58h10v1h-10z M226,58h12v1h-12z M240,58h5v1h-5z M0,59h8v1h-8z M18,59h2v1h-2z M22,59h9v1h-9z M40,59h1v1h-1z M43,59h1v1h-1z M56,59h13v1h-13z M75,59h7v1h-7z M85,59h6v1h-6z M104,59h1v1h-1z M116,59h2v1h-2z M123,59h5v1h-5z M130,59h1v1h-1z M135,59h2v1h-2z M166,59h3v1h-3z M175,59h1v1h-1z M213,59h7v1h-7z M227,59h1v1h-1z M230,59h2v1h-2z M6,60h2v1h-2z M57,60h7v1h-7z M0,60h5v2h-5z M192,61h3v1h-3z M216,61h2v1h-2z M0,62h10v1h-10z M13,62h7v1h-7z M86,62h2v1h-2z M107,62h3v1h-3z M114,62h1v1h-1z M127,62h1v1h-1z M143,62h5v1h-5z M154,62h3v1h-3z M158,62h6v1h-6z M168,62h2v1h-2z M191,62h7v1h-7z M203,62h20v1h-20z M230,62h2v1h-2z M248,62h3v1h-3z M262,58h5v5h-5z M0,63h21v1h-21z M26,63h3v1h-3z M37,63h1v1h-1z M45,63h2v1h-2z M48,63h2v1h-2z M54,63h1v1h-1z M69,63h2v1h-2z M72,63h9v1h-9z M85,63h4v1h-4z M99,63h2v1h-2z M105,63h18v1h-18z M126,63h3v1h-3z M131,63h4v1h-4z M136,63h4v1h-4z M143,63h21v1h-21z M168,63h3v1h-3z M174,62h3v2h-3z M180,63h3v1h-3z M186,63h2v1h-2z M190,63h11v1h-11z M203,63h23v1h-23z M230,63h3v1h-3z M235,63h2v1h-2z M238,63h4v1h-4z M25,64h4v1h-4z M31,63h3v2h-3z M43,64h14v1h-14z M85,64h5v1h-5z M98,64h4v1h-4z M105,64h19v1h-19z M126,64h14v1h-14z M142,64h23v1h-23z M167,64h4v1h-4z M174,64h4v1h-4z M179,64h9v1h-9z M190,64h12v1h-12z M203,64h24v1h-24z M229,64h5v1h-5z M235,64h7v1h-7z M244,63h22v2h-22z M0,64h22v2h-22z M25,65h3v1h-3z M30,65h4v1h-4z M37,64h3v2h-3z M42,65h16v1h-16z M61,64h21v2h-21z M86,65h4v1h-4z M92,63h3v3h-3z M99,65h3v1h-3z M105,65h18v1h-18z M126,65h4v1h-4z M131,65h3v1h-3z M138,65h1v1h-1z M144,65h20v1h-20z M168,65h3v1h-3z M175,65h3v1h-3z M179,65h5v1h-5z M185,65h3v1h-3z M191,65h11v1h-11z M206,65h11v1h-11z M219,65h8v1h-8z M229,65h7v1h-7z M245,65h21v1h-21z M0,66h7v1h-7z M8,66h5v1h-5z M17,66h4v1h-4z M31,66h3v1h-3z M37,66h2v1h-2z M43,66h15v1h-15z M62,66h19v1h-19z M87,66h2v1h-2z M107,66h3v1h-3z M111,66h11v1h-11z M149,66h2v1h-2z M193,66h2v1h-2z M196,66h4v1h-4z M238,65h4v2h-4z M255,66h12v1h-12z M0,67h6v1h-6z M46,67h1v1h-1z M50,67h6v1h-6z M65,67h5v1h-5z M239,67h2v1h-2z M261,67h6v1h-6z M0,68h5v1h-5z M258,68h1v1h-1z M262,68h5v1h-5z M0,69h7v1h-7z M96,69h2v1h-2z M109,69h1v1h-1z M146,69h5v1h-5z M167,69h2v1h-2z M185,69h1v1h-1z M194,69h11v1h-11z M218,69h5v1h-5z M235,69h8v1h-8z M245,69h4v1h-4z M251,69h2v1h-2z M257,69h2v1h-2z M261,69h6v1h-6z M0,70h11v1h-11z M12,70h3v1h-3z M19,70h2v1h-2z M30,70h13v1h-13z M59,70h3v1h-3z M73,70h17v1h-17z M102,70h4v1h-4z M108,70h3v1h-3z M113,70h16v1h-16z M134,70h20v1h-20z M183,70h25v1h-25z M211,70h13v1h-13z M227,70h22v1h-22z M256,70h10v1h-10z M16,71h11v1h-11z M29,71h18v1h-18z M52,71h2v1h-2z M59,71h4v1h-4z M72,71h19v1h-19z M95,70h4v2h-4z M101,71h5v1h-5z M107,71h4v1h-4z M112,71h17v1h-17z M172,70h4v2h-4z M178,71h3v1h-3z M184,71h25v1h-25z M211,71h14v1h-14z M226,71h23v1h-23z M251,70h4v2h-4z M257,71h3v1h-3z M261,71h6v1h-6z M0,71h15v2h-15z M17,72h31v1h-31z M52,72h3v1h-3z M59,72h3v1h-3z M66,71h3v2h-3z M72,72h20v1h-20z M96,72h1v1h-1z M101,72h10v1h-10z M113,72h16v1h-16z M132,71h22v2h-22z M158,70h4v3h-4z M165,70h5v3h-5z M172,72h3v1h-3z M179,72h2v1h-2z M185,72h23v1h-23z M211,72h13v1h-13z M228,72h9v1h-9z M239,72h9v1h-9z M251,72h3v1h-3z M262,72h5v1h-5z M0,73h11v1h-11z M19,73h28v1h-28z M68,73h1v1h-1z M73,73h11v1h-11z M87,73h1v1h-1z M103,73h1v1h-1z M107,73h2v1h-2z M114,73h1v1h-1z M116,73h11v1h-11z M133,73h6v1h-6z M141,73h1v1h-1z M146,73h3v1h-3z M173,73h2v1h-2z M187,73h4v1h-4z M194,73h8v1h-8z M231,73h3v1h-3z M262,73h4v1h-4z M31,74h4v1h-4z M43,74h3v1h-3z M0,74h5v2h-5z M262,74h5v2h-5z M0,76h6v1h-6z M167,76h5v1h-5z M189,76h1v1h-1z M195,76h1v1h-1z M210,76h1v1h-1z M217,76h7v1h-7z M228,76h2v1h-2z M235,76h1v1h-1z M249,76h8v1h-8z M261,76h6v1h-6z M0,77h8v1h-8z M98,77h2v1h-2z M106,77h4v1h-4z M116,77h2v1h-2z M125,77h2v1h-2z M131,77h3v1h-3z M137,77h2v1h-2z M145,77h10v1h-10z M160,77h18v1h-18z M182,77h3v1h-3z M187,77h4v1h-4z M204,77h21v1h-21z M0,78h26v1h-26z M31,78h3v1h-3z M37,78h2v1h-2z M43,78h2v1h-2z M49,78h24v1h-24z M78,78h2v1h-2z M90,78h1v1h-1z M97,78h23v1h-23z M124,78h3v1h-3z M130,78h4v1h-4z M136,78h4v1h-4z M158,78h21v1h-21z M181,78h5v1h-5z M187,78h5v1h-5z M194,77h5v2h-5z M227,77h4v2h-4z M235,77h2v2h-2z M242,77h1v2h-1z M247,77h19v2h-19z M90,79h2v1h-2z M96,79h25v1h-25z M125,79h3v1h-3z M131,79h3v1h-3z M144,78h13v2h-13z M159,79h20v1h-20z M182,79h3v1h-3z M187,79h4v1h-4z M195,79h4v1h-4z M203,78h22v2h-22z M228,79h3v1h-3z M248,79h19v1h-19z M0,79h27v2h-27z M31,79h4v2h-4z M36,79h4v2h-4z M43,79h4v2h-4z M49,79h25v2h-25z M77,79h4v2h-4z M83,78h4v3h-4z M90,80h4v1h-4z M97,80h23v1h-23z M137,79h2v2h-2z M148,80h7v1h-7z M160,80h10v1h-10z M175,80h2v1h-2z M188,80h2v1h-2z M205,80h3v1h-3z M213,80h1v1h-1z M218,80h3v1h-3z M262,80h5v1h-5z M0,81h26v1h-26z M32,81h2v1h-2z M38,81h2v1h-2z M43,81h3v1h-3z M50,81h22v1h-22z M78,81h1v1h-1z M84,81h2v1h-2z M91,81h2v1h-2z M99,81h2v1h-2z M109,81h1v1h-1z M263,81h4v1h-4z M0,82h9v1h-9z M11,82h1v1h-1z M14,82h4v1h-4z M58,82h1v1h-1z M225,83h5v1h-5z M233,83h1v1h-1z M240,83h1v1h-1z M254,83h1v1h-1z M262,82h4v2h-4z M0,83h5v2h-5z M174,84h14v1h-14z M216,84h19v1h-19z M247,84h2v1h-2z M253,84h3v1h-3z M261,84h5v1h-5z M0,85h9v1h-9z M14,85h2v1h-2z M29,85h1v1h-1z M49,85h5v1h-5z M106,85h1v1h-1z M111,85h2v1h-2z M119,85h8v1h-8z M134,85h14v1h-14z M155,85h2v1h-2z M161,85h2v1h-2z M196,85h2v1h-2z M203,85h3v1h-3z M210,85h3v1h-3z M215,85h20v1h-20z M252,85h5v1h-5z M13,86h4v1h-4z M20,86h4v1h-4z M28,86h3v1h-3z M37,86h1v1h-1z M42,86h25v1h-25z M71,86h2v1h-2z M110,86h4v1h-4z M118,86h10v1h-10z M153,86h4v1h-4z M167,86h2v1h-2z M173,85h18v2h-18z M209,86h5v1h-5z M215,86h19v1h-19z M239,84h4v3h-4z M246,85h4v2h-4z M253,86h4v1h-4z M260,85h6v2h-6z M12,87h5v1h-5z M19,87h6v1h-6z M81,86h13v2h-13z M99,86h2v2h-2z M105,86h2v2h-2z M111,87h2v1h-2z M119,87h9v1h-9z M132,86h17v2h-17z M154,87h2v1h-2z M160,86h4v2h-4z M167,87h3v1h-3z M174,87h17v1h-17z M202,86h5v2h-5z M210,87h3v1h-3z M216,87h9v1h-9z M229,87h4v1h-4z M240,87h3v1h-3z M246,87h3v1h-3z M253,87h3v1h-3z M261,87h6v1h-6z M0,86h10v3h-10z M13,88h4v1h-4z M20,88h4v1h-4z M27,87h5v2h-5z M42,87h33v2h-33z M80,88h14v1h-14z M122,88h5v1h-5z M133,88h14v1h-14z M161,88h2v1h-2z M167,88h2v1h-2z M180,88h2v1h-2z M187,88h3v1h-3z M196,86h3v3h-3z M203,88h3v1h-3z M219,88h1v1h-1z M7,89h2v1h-2z M21,89h3v1h-3z M29,89h1v1h-1z M43,89h5v1h-5z M50,89h25v1h-25z M83,89h10v1h-10z M262,88h5v2h-5z M0,89h6v2h-6z M68,90h2v1h-2z M262,90h4v1h-4z M251,91h2v1h-2z M261,91h5v1h-5z M0,91h5v2h-5z M18,92h1v1h-1z M128,92h3v1h-3z M141,92h2v1h-2z M149,92h1v1h-1z M155,92h1v1h-1z M172,92h4v1h-4z M194,92h5v1h-5z M207,92h8v1h-8z M221,92h2v1h-2z M228,92h2v1h-2z M233,92h2v1h-2z M0,93h7v1h-7z M17,93h5v1h-5z M31,93h4v1h-4z M54,93h6v1h-6z M64,93h3v1h-3z M76,93h5v1h-5z M86,93h7v1h-7z M114,93h1v1h-1z M121,93h15v1h-15z M180,93h4v1h-4z M186,93h3v1h-3z M192,93h26v1h-26z M220,93h4v1h-4z M233,93h3v1h-3z M246,92h21v2h-21z M0,94h12v1h-12z M40,94h4v1h-4z M48,94h1v1h-1z M102,94h1v1h-1z M141,93h4v2h-4z M148,93h3v2h-3z M154,93h4v2h-4z M163,93h15v2h-15z M180,94h9v1h-9z M192,94h32v1h-32z M227,93h4v2h-4z M234,94h2v1h-2z M241,94h1v1h-1z M247,94h20v1h-20z M17,94h20v2h-20z M40,95h5v1h-5z M46,95h5v1h-5z M53,94h16v2h-16z M73,94h24v2h-24z M101,95h2v1h-2z M107,94h3v2h-3z M113,94h3v2h-3z M120,94h17v2h-17z M142,95h3v1h-3z M149,95h1v1h-1z M155,95h3v1h-3z M163,95h14v1h-14z M180,95h4v1h-4z M187,95h2v1h-2z M194,95h25v1h-25z M221,95h2v1h-2z M228,95h2v1h-2z M248,95h3v1h-3z M256,95h11v1h-11z M17,96h19v1h-19z M40,96h4v1h-4z M47,96h3v1h-3z M54,96h15v1h-15z M74,96h22v1h-22z M101,96h1v1h-1z M114,96h1v1h-1z M121,96h5v1h-5z M130,96h5v1h-5z M165,96h8v1h-8z M181,96h1v1h-1z M200,96h6v1h-6z M262,96h5v1h-5z M0,95h13v3h-13z M25,97h2v1h-2z M29,97h6v1h-6z M42,97h1v1h-1z M48,97h1v1h-1z M61,97h1v1h-1z M80,97h4v1h-4z M0,98h6v1h-6z M0,99h5v1h-5z M125,99h2v1h-2z M136,99h3v1h-3z M222,99h3v1h-3z M233,99h9v1h-9z M262,97h4v3h-4z M0,100h6v1h-6z M20,100h1v1h-1z M43,100h2v1h-2z M96,100h6v1h-6z M109,100h20v1h-20z M132,100h16v1h-16z M154,100h2v1h-2z M161,100h1v1h-1z M181,100h6v1h-6z M190,100h17v1h-17z M211,100h16v1h-16z M229,100h15v1h-15z M254,100h12v1h-12z M0,101h10v1h-10z M14,101h8v1h-8z M34,101h18v1h-18z M60,101h3v1h-3z M67,101h3v1h-3z M81,101h2v1h-2z M93,101h11v1h-11z M210,101h34v1h-34z M247,100h3v2h-3z M0,102h23v1h-23z M59,102h4v1h-4z M65,102h5v1h-5z M74,101h3v2h-3z M80,102h4v1h-4z M93,102h12v1h-12z M108,101h21v2h-21z M132,101h17v2h-17z M153,101h4v2h-4z M160,101h3v2h-3z M166,101h5v2h-5z M179,101h29v2h-29z M210,102h17v1h-17z M228,102h16v1h-16z M253,101h14v2h-14z M0,103h24v1h-24z M26,102h3v2h-3z M33,102h21v2h-21z M60,103h3v1h-3z M66,103h4v1h-4z M74,103h2v1h-2z M81,103h2v1h-2z M87,101h3v3h-3z M94,103h10v1h-10z M109,103h19v1h-19z M133,103h16v1h-16z M162,103h1v1h-1z M166,103h4v1h-4z M172,101h4v3h-4z M180,103h27v1h-27z M212,103h4v1h-4z M217,103h9v1h-9z M230,103h4v1h-4z M255,103h12v1h-12z M0,104h23v1h-23z M34,104h19v1h-19z M61,104h1v1h-1z M68,104h2v1h-2z M101,104h1v1h-1z M0,105h6v1h-6z M7,105h2v1h-2z M14,105h2v1h-2z M20,105h1v1h-1z M34,105h3v1h-3z M39,105h2v1h-2z M34,106h1v1h-1z M176,106h2v1h-2z M262,104h4v3h-4z M0,106h5v2h-5z M90,107h2v1h-2z M103,107h3v1h-3z M127,107h2v1h-2z M133,107h2v1h-2z M139,107h8v1h-8z M152,107h10v1h-10z M173,107h23v1h-23z M214,107h2v1h-2z M225,107h14v1h-14z M245,107h2v1h-2z M250,107h2v1h-2z M256,107h2v1h-2z M262,107h5v1h-5z M0,108h9v1h-9z M15,108h4v1h-4z M51,108h5v1h-5z M62,108h18v1h-18z M87,108h7v1h-7z M121,108h3v1h-3z M126,108h4v1h-4z M132,108h4v1h-4z M152,108h11v1h-11z M260,108h7v1h-7z M14,109h11v1h-11z M37,109h4v1h-4z M45,109h2v1h-2z M98,108h18v2h-18z M121,109h10v1h-10z M132,109h5v1h-5z M138,108h10v2h-10z M153,109h10v1h-10z M167,108h2v2h-2z M172,108h25v2h-25z M202,108h3v2h-3z M207,108h4v2h-4z M220,108h20v2h-20z M244,108h3v2h-3z M255,108h4v2h-4z M260,109h6v1h-6z M0,109h10v2h-10z M13,110h13v1h-13z M44,110h4v1h-4z M50,109h7v2h-7z M86,109h8v2h-8z M99,110h17v1h-17z M121,110h3v1h-3z M126,110h4v1h-4z M133,110h2v1h-2z M139,110h9v1h-9z M154,110h8v1h-8z M174,110h13v1h-13z M190,110h5v1h-5z M203,110h1v1h-1z M207,110h3v1h-3z M213,108h4v3h-4z M221,110h17v1h-17z M245,110h2v1h-2z M250,108h3v3h-3z M256,110h2v1h-2z M261,110h5v1h-5z M1,111h9v1h-9z M14,111h11v1h-11z M29,109h4v3h-4z M36,110h5v2h-5z M44,111h3v1h-3z M51,111h5v1h-5z M61,109h22v3h-22z M88,111h5v1h-5z M101,111h9v1h-9z M111,111h4v1h-4z M122,111h1v1h-1z M222,111h2v1h-2z M231,111h1v1h-1z M1,112h8v1h-8z M16,112h8v1h-8z M29,112h3v1h-3z M37,112h4v1h-4z M53,112h2v1h-2z M262,111h4v2h-4z M262,113h5v1h-5z M0,113h5v2h-5z M263,114h3v1h-3z M1,115h4v1h-4z M8,115h1v1h-1z M10,115h1v1h-1z M87,115h1v1h-1z M127,115h1v1h-1z M141,115h2v1h-2z M149,115h1v1h-1z M155,115h3v1h-3z M161,115h20v1h-20z M187,115h7v1h-7z M262,115h4v1h-4z M1,116h12v1h-12z M16,116h3v1h-3z M23,116h2v1h-2z M29,116h4v1h-4z M39,116h8v1h-8z M56,116h11v1h-11z M79,116h2v1h-2z M99,116h4v1h-4z M106,116h6v1h-6z M116,116h19v1h-19z M155,116h4v1h-4z M201,116h9v1h-9z M211,116h11v1h-11z M226,116h3v1h-3z M233,116h2v1h-2z M246,116h20v1h-20z M1,117h13v1h-13z M15,117h5v1h-5z M51,117h21v1h-21z M78,117h4v1h-4z M86,116h3v2h-3z M93,116h2v2h-2z M140,116h4v2h-4z M154,117h5v1h-5z M161,116h21v2h-21z M187,116h8v2h-8z M245,117h21v1h-21z M1,118h19v1h-19z M29,117h5v2h-5z M37,117h12v2h-12z M51,118h22v1h-22z M77,118h5v1h-5z M86,118h2v1h-2z M94,118h1v1h-1z M99,117h14v2h-14z M116,117h21v2h-21z M141,118h3v1h-3z M148,116h3v3h-3z M155,118h4v1h-4z M163,118h19v1h-19z M188,118h7v1h-7z M200,117h22v2h-22z M225,117h4v2h-4z M232,117h3v2h-3z M244,118h23v1h-23z M0,119h14v1h-14z M15,119h4v1h-4z M22,117h4v3h-4z M29,119h4v1h-4z M38,119h10v1h-10z M51,119h21v1h-21z M78,119h4v1h-4z M100,119h13v1h-13z M117,119h7v1h-7z M128,119h8v1h-8z M155,119h3v1h-3z M170,119h1v1h-1z M201,119h20v1h-20z M226,119h3v1h-3z M233,119h2v1h-2z M245,119h3v1h-3z M253,119h14v1h-14z M0,120h10v1h-10z M23,120h2v1h-2z M53,120h2v1h-2z M56,120h2v1h-2z M65,120h6v1h-6z M80,120h1v1h-1z M105,120h7v1h-7z M208,120h3v1h-3z M214,120h3v1h-3z M0,121h6v1h-6z M262,120h4v2h-4z M0,122h5v1h-5z M1,123h4v1h-4z M152,123h1v1h-1z M162,123h1v1h-1z M170,123h2v1h-2z M176,123h2v1h-2z M183,123h2v1h-2z M216,123h1v1h-1z M247,123h2v1h-2z M262,122h5v2h-5z M0,124h6v1h-6z M7,124h1v1h-1z M31,124h2v1h-2z M48,124h2v1h-2z M117,124h6v1h-6z M130,124h1v1h-1z M139,124h19v1h-19z M169,124h4v1h-4z M175,124h5v1h-5z M183,124h3v1h-3z M191,124h17v1h-17z M215,124h11v1h-11z M231,124h2v1h-2z M235,124h15v1h-15z M254,124h12v1h-12z M0,125h18v1h-18z M19,125h4v1h-4z M25,125h19v1h-19z M57,125h3v1h-3z M63,125h3v1h-3z M74,125h21v1h-21z M98,125h4v1h-4z M104,125h2v1h-2z M110,125h2v1h-2z M116,125h19v1h-19z M168,125h12v1h-12z M182,125h4v1h-4z M190,125h19v1h-19z M230,125h20v1h-20z M253,125h13v1h-13z M0,126h44v1h-44z M56,126h5v1h-5z M63,126h4v1h-4z M97,126h5v1h-5z M139,125h20v2h-20z M162,124h4v3h-4z M169,126h11v1h-11z M183,126h3v1h-3z M190,126h20v1h-20z M214,125h12v2h-12z M229,126h21v1h-21z M253,126h14v1h-14z M0,127h23v1h-23z M25,127h19v1h-19z M47,125h4v3h-4z M56,127h4v1h-4z M72,126h24v2h-24z M98,127h4v1h-4z M104,126h3v2h-3z M109,126h4v2h-4z M117,126h18v2h-18z M139,127h14v1h-14z M156,127h1v1h-1z M170,127h2v1h-2z M176,127h3v1h-3z M190,127h19v1h-19z M215,127h11v1h-11z M230,127h19v1h-19z M253,127h13v1h-13z M0,128h17v1h-17z M20,128h2v1h-2z M25,128h20v1h-20z M57,128h2v1h-2z M63,127h3v2h-3z M73,128h22v1h-22z M98,128h3v1h-3z M104,128h2v1h-2z M110,128h3v1h-3z M121,128h3v1h-3z M127,128h7v1h-7z M233,128h3v1h-3z M255,128h11v1h-11z M0,129h6v1h-6z M7,129h2v1h-2z M10,129h1v1h-1z M26,129h4v1h-4z M42,129h1v1h-1z M262,129h4v1h-4z M262,130h5v2h-5z M0,130h5v3h-5z M261,132h6v1h-6z M0,133h6v1h-6z M51,133h1v1h-1z M53,133h1v1h-1z M58,133h4v1h-4z M69,133h8v1h-8z M80,133h52v1h-52z M133,133h20v1h-20z M155,133h7v1h-7z M163,133h104v1h-104z M0,134h266v2h-266z M1,136h265v1h-265z M2,137h205v1h-205z M210,137h2v1h-2z M217,137h10v1h-10z M231,137h3v1h-3z M242,137h1v1h-1z M3,138h18v1h-18z M23,138h10v1h-10z M37,138h4v1h-4z M47,138h2v1h-2z M51,138h2v1h-2z M56,138h4v1h-4z
  "/>
</svg>