<?xml version="1.0" encoding="UTF-8"?>
<svg xmlns="http://www.w3.org/2000/svg" viewBox="0 0 266 139" width="266" height="139">
  <title>34 Cannel coal</title>
  <path fill="#111111" fill-rule="nonzero" d="
    M2,1h27v1h-27z M2,2h93v1h-93z M1,3h260v1h-260z M1,4h261v1h-261z M1,5h262v2h-262z M81,7h182v1h-182z M1,7h79v4h-79z M81,8h29v3h-29z M1,11h109v1h-109z M111,8h152v4h-152z M1,12h262v2h-262z M1,14h79v2h-79z M2,16h78v1h-78z M81,14h182v3h-182z M1,17h262v4h-262z M1,21h110v1h-110z M1,22h79v1h-79z M2,23h78v2h-78z M1,25h79v1h-79z M81,22h30v4h-30z M1,26h110v2h-110z M1,28h46v1h-46z M2,29h45v1h-45z M48,28h62v2h-62z M2,30h108v2h-108z M2,32h109v2h-109z M112,21h151v13h-151z M112,34h21v1h-21z M134,34h129v1h-129z M2,34h78v3h-78z M81,34h30v4h-30z M112,35h151v3h-151z M1,37h79v3h-79z M81,38h182v2h-182z M2,40h261v2h-261z M2,42h109v6h-109z M112,42h151v6h-151z M2,48h78v2h-78z M82,48h181v2h-181z M2,50h109v1h-109z M112,50h151v4h-151z M48,51h63v4h-63z M2,51h45v5h-45z M48,55h33v1h-33z M82,55h29v1h-29z M112,54h21v2h-21z M82,56h51v1h-51z M2,56h79v4h-79z M82,57h29v3h-29z M112,57h21v6h-21z M134,54h129v9h-129z M2,60h109v4h-109z M112,63h151v1h-151z M82,64h181v3h-181z M112,67h151v1h-151z M2,64h79v5h-79z M82,67h29v2h-29z M113,68h20v2h-20z M2,69h109v2h-109z M112,70h21v1h-21z M134,68h129v3h-129z M2,71h131v1h-131z M134,71h130v1h-130z M135,72h129v2h-129z M134,74h129v2h-129z M82,72h51v5h-51z M113,77h20v2h-20z M135,76h128v3h-128z M82,77h30v3h-30z M113,79h151v1h-151z M135,80h129v2h-129z M113,80h21v3h-21z M82,80h29v4h-29z M135,82h58v2h-58z M194,82h70v2h-70z M2,72h79v13h-79z M82,84h30v1h-30z M113,83h20v2h-20z M2,85h131v4h-131z M82,89h52v1h-52z M113,90h21v2h-21z M2,89h79v4h-79z M82,90h30v3h-30z M113,92h20v1h-20z M2,93h132v1h-132z M49,94h85v1h-85z M49,95h84v1h-84z M2,94h46v3h-46z M49,96h85v1h-85z M135,84h129v13h-129z M2,97h262v2h-262z M3,99h153v3h-153z M82,102h74v1h-74z M3,102h78v3h-78z M82,103h52v2h-52z M3,105h131v1h-131z M135,103h21v4h-21z M157,99h107v8h-107z M3,106h78v3h-78z M82,106h52v3h-52z M135,107h129v4h-129z M3,109h131v3h-131z M135,111h21v2h-21z M157,111h107v2h-107z M3,112h78v4h-78z M82,112h52v4h-52z M135,113h129v4h-129z M2,116h132v2h-132z M2,118h79v1h-79z M82,118h52v1h-52z M3,119h78v2h-78z M83,119h51v2h-51z M3,121h131v1h-131z M135,117h21v5h-21z M3,122h153v2h-153z M3,124h131v5h-131z M135,124h21v5h-21z M157,117h107v12h-107z M3,129h261v3h-261z M3,132h262v3h-262z M4,135h1v1h-1z M7,135h2v1h-2z M10,135h5v1h-5z M17,135h26v1h-26z M44,135h220v1h-220z M68,136h7v1h-7z M90,136h7v1h-7z M103,136h4v1h-4z M108,136h3v1h-3z M113,136h5v1h-5z M123,136h6v1h-6z M131,136h3v1h-3z M138,136h126v1h-126z M260,137h3v1h-3z
  "/>
</svg>