<?xml version="1.0" encoding="UTF-8"?>
<svg xmlns="http://www.w3.org/2000/svg" viewBox="0 0 267 138" width="267" height="138">
  <title>55 Granite</title>
  <path fill="#111111" fill-rule="nonzero" d="
    M5,0h14v1h-14z M24,0h1v1h-1z M26,0h10v1h-10z M40,0h6v1h-6z M64,0h1v1h-1z M90,0h4v1h-4z M2,1h174v1h-174z M178,1h16v1h-16z M195,1h1v1h-1z M197,1h17v1h-17z M215,1h4v1h-4z M220,1h1v1h-1z M222,1h11v1h-11z M2,2h264v1h-264z M1,3h266v1h-266z M1,4h6v1h-6z M18,4h4v1h-4z M24,4h243v1h-243z M118,5h4v1h-4z M128,5h4v1h-4z M136,5h6v1h-6z M143,5h21v1h-21z M168,5h3v1h-3z M175,5h3v1h-3z M179,5h88v1h-88z M33,6h3v1h-3z M91,6h2v1h-2z M144,6h6v1h-6z M228,6h5v1h-5z M33,7h4v1h-4z M60,7h3v1h-3z M118,7h4v1h-4z M141,7h9v1h-9z M213,6h4v2h-4z M228,7h4v1h-4z M262,6h5v2h-5z M33,8h5v1h-5z M59,8h5v1h-5z M90,7h3v2h-3z M138,8h11v1h-11z M210,8h7v1h-7z M250,6h4v3h-4z M34,9h5v1h-5z M58,9h5v1h-5z M118,8h5v2h-5z M138,9h8v1h-8z M207,9h10v1h-10z M228,8h5v2h-5z M249,9h5v1h-5z M263,8h4v2h-4z M10,10h3v1h-3z M35,10h5v1h-5z M57,10h5v1h-5z M118,10h6v1h-6z M138,10h5v1h-5z M205,10h11v1h-11z M229,10h4v1h-4z M248,10h5v1h-5z M10,11h4v1h-4z M36,11h6v1h-6z M56,11h5v1h-5z M120,11h5v1h-5z M139,11h2v1h-2z M204,11h9v1h-9z M247,11h5v1h-5z M262,10h5v2h-5z M10,12h6v1h-6z M37,12h6v1h-6z M55,12h5v1h-5z M120,12h6v1h-6z M156,12h3v1h-3z M178,12h1v1h-1z M205,12h6v1h-6z M229,11h5v2h-5z M246,12h6v1h-6z M10,13h7v1h-7z M38,13h6v1h-6z M55,13h4v1h-4z M107,13h4v1h-4z M121,13h5v1h-5z M155,13h6v1h-6z M177,13h3v1h-3z M206,13h2v1h-2z M245,13h6v1h-6z M12,14h6v1h-6z M40,14h2v1h-2z M57,14h1v1h-1z M105,14h6v1h-6z M122,14h5v1h-5z M156,14h7v1h-7z M230,13h4v2h-4z M245,14h5v1h-5z M13,15h7v1h-7z M73,15h1v1h-1z M104,15h7v1h-7z M123,15h4v1h-4z M157,15h8v1h-8z M230,15h5v1h-5z M15,16h6v1h-6z M73,16h4v1h-4z M89,9h4v8h-4z M101,16h8v1h-8z M124,16h2v1h-2z M143,16h2v1h-2z M158,16h8v1h-8z M192,16h3v1h-3z M231,16h3v1h-3z M244,15h5v2h-5z M16,17h5v1h-5z M28,17h2v1h-2z M73,17h5v1h-5z M101,17h6v1h-6z M142,17h3v1h-3z M159,17h8v1h-8z M245,17h3v1h-3z M17,18h3v1h-3z M28,18h3v1h-3z M73,18h6v1h-6z M90,17h3v2h-3z M101,18h5v1h-5z M162,18h5v1h-5z M191,17h5v2h-5z M27,19h4v1h-4z M74,19h6v1h-6z M90,19h2v1h-2z M102,19h2v1h-2z M163,19h3v1h-3z M191,19h6v1h-6z M27,20h3v1h-3z M76,20h5v1h-5z M192,20h6v1h-6z M77,21h5v1h-5z M193,21h6v1h-6z M26,21h4v2h-4z M48,22h4v1h-4z M79,22h3v1h-3z M130,22h3v1h-3z M195,22h5v1h-5z M215,21h3v2h-3z M25,23h4v1h-4z M42,23h10v1h-10z M127,23h8v1h-8z M177,14h4v10h-4z M196,23h4v1h-4z M214,23h3v1h-3z M24,24h5v1h-5z M65,23h2v2h-2z M110,24h3v1h-3z M124,24h11v1h-11z M178,24h2v1h-2z M197,24h4v1h-4z M226,24h2v1h-2z M24,25h4v1h-4z M40,24h12v2h-12z M122,25h11v1h-11z M178,25h1v1h-1z M197,25h3v1h-3z M213,24h4v2h-4z M226,25h6v1h-6z M249,25h1v1h-1z M12,26h2v1h-2z M41,26h4v1h-4z M122,26h9v1h-9z M225,26h13v1h-13z M248,26h3v1h-3z M12,27h3v1h-3z M24,26h3v2h-3z M123,27h3v1h-3z M142,18h4v10h-4z M226,27h13v1h-13z M247,27h5v1h-5z M24,28h2v1h-2z M143,28h2v1h-2z M166,28h2v1h-2z M212,26h4v3h-4z M228,28h10v1h-10z M247,28h6v1h-6z M90,29h5v1h-5z M164,29h6v1h-6z M234,29h3v1h-3z M248,29h6v1h-6z M64,25h4v6h-4z M90,30h10v1h-10z M162,30h8v1h-8z M250,30h6v1h-6z M90,31h11v1h-11z M157,31h12v1h-12z M211,29h4v3h-4z M250,31h7v1h-7z M92,32h9v1h-9z M157,32h9v1h-9z M211,32h3v1h-3z M251,32h7v1h-7z M52,33h3v1h-3z M65,31h4v3h-4z M95,33h6v1h-6z M158,33h6v1h-6z M212,33h1v1h-1z M253,33h4v1h-4z M263,12h4v22h-4z M33,34h3v1h-3z M51,34h6v1h-6z M66,34h3v1h-3z M11,28h4v8h-4z M33,35h4v1h-4z M52,35h6v1h-6z M109,25h4v11h-4z M177,35h2v1h-2z M33,36h5v1h-5z M53,36h6v1h-6z M79,36h4v1h-4z M126,36h2v1h-2z M10,36h5v2h-5z M34,37h4v1h-4z M54,37h7v1h-7z M78,37h6v1h-6z M110,36h3v2h-3z M125,37h4v1h-4z M177,36h3v2h-3z M190,37h11v1h-11z M262,34h5v4h-5z M10,38h4v1h-4z M34,38h5v1h-5z M55,38h7v1h-7z M76,38h6v1h-6z M125,38h5v1h-5z M145,38h1v1h-1z M189,38h13v1h-13z M11,39h3v1h-3z M35,39h5v1h-5z M56,39h6v1h-6z M74,39h7v1h-7z M125,39h6v1h-6z M145,39h2v1h-2z M176,38h4v2h-4z M190,39h12v1h-12z M36,40h4v1h-4z M58,40h4v1h-4z M73,40h7v1h-7z M92,40h2v1h-2z M126,40h7v1h-7z M144,40h3v1h-3z M175,40h5v1h-5z M191,40h11v1h-11z M231,39h3v2h-3z M37,41h4v1h-4z M72,41h6v1h-6z M127,41h7v1h-7z M199,41h2v1h-2z M37,42h3v1h-3z M72,42h5v1h-5z M92,41h3v2h-3z M128,42h6v1h-6z M143,41h4v2h-4z M175,41h4v2h-4z M73,43h2v1h-2z M130,43h4v1h-4z M158,43h1v1h-1z M174,43h5v1h-5z M142,43h4v2h-4z M157,44h4v1h-4z M217,44h3v1h-3z M249,44h5v1h-5z M22,45h2v1h-2z M157,45h5v1h-5z M174,44h4v2h-4z M215,45h6v1h-6z M244,45h11v1h-11z M19,46h6v1h-6z M114,46h1v1h-1z M142,45h3v2h-3z M158,46h4v1h-4z M176,46h1v1h-1z M212,46h9v1h-9z M243,46h11v1h-11z M18,47h6v1h-6z M49,47h2v1h-2z M110,47h6v1h-6z M141,47h4v1h-4z M158,47h6v1h-6z M210,47h10v1h-10z M243,47h10v1h-10z M15,48h8v1h-8z M48,48h3v1h-3z M108,48h8v1h-8z M141,48h3v1h-3z M159,48h6v1h-6z M210,48h7v1h-7z M243,48h5v1h-5z M14,49h7v1h-7z M47,49h4v1h-4z M91,43h4v7h-4z M105,49h11v1h-11z M140,49h4v1h-4z M160,49h5v1h-5z M210,49h5v1h-5z M14,50h5v1h-5z M46,50h5v1h-5z M103,50h10v1h-10z M141,50h1v1h-1z M161,50h5v1h-5z M197,50h2v1h-2z M210,50h2v1h-2z M230,41h4v10h-4z M14,51h4v1h-4z M46,51h4v1h-4z M63,50h3v2h-3z M91,50h3v2h-3z M103,51h8v1h-8z M163,51h2v1h-2z M196,51h3v1h-3z M231,51h2v1h-2z M15,52h2v1h-2z M45,52h4v1h-4z M77,52h3v1h-3z M92,52h1v1h-1z M103,52h6v1h-6z M30,53h1v1h-1z M44,53h5v1h-5z M76,53h5v1h-5z M44,54h4v1h-4z M62,52h4v3h-4z M76,54h7v1h-7z M123,54h3v1h-3z M43,55h5v1h-5z M62,55h3v1h-3z M77,55h8v1h-8z M122,55h4v1h-4z M182,55h6v1h-6z M79,56h7v1h-7z M121,56h5v1h-5z M179,56h9v1h-9z M29,54h3v4h-3z M43,56h4v2h-4z M61,56h4v2h-4z M81,57h6v1h-6z M120,57h5v1h-5z M176,57h10v1h-10z M43,58h3v1h-3z M61,58h3v1h-3z M82,58h5v1h-5z M120,58h4v1h-4z M145,58h5v1h-5z M174,58h10v1h-10z M216,58h2v1h-2z M241,58h3v1h-3z M119,59h4v1h-4z M141,59h10v1h-10z M174,59h7v1h-7z M215,59h3v1h-3z M60,59h4v2h-4z M118,60h4v1h-4z M139,60h11v1h-11z M159,60h1v1h-1z M161,60h1v1h-1z M174,60h5v1h-5z M215,60h6v1h-6z M28,58h4v4h-4z M60,61h3v1h-3z M118,61h3v1h-3z M139,61h9v1h-9z M158,61h4v1h-4z M174,61h3v1h-3z M196,52h4v10h-4z M216,61h6v1h-6z M240,59h4v3h-4z M28,62h3v1h-3z M119,62h1v1h-1z M139,62h6v1h-6z M157,62h6v1h-6z M197,62h2v1h-2z M217,62h7v1h-7z M239,62h4v1h-4z M10,63h3v1h-3z M29,63h1v1h-1z M50,63h1v1h-1z M93,63h2v1h-2z M101,63h5v1h-5z M141,63h2v1h-2z M159,63h4v1h-4z M218,63h7v1h-7z M10,64h4v1h-4z M92,64h3v1h-3z M101,64h6v1h-6z M159,64h5v1h-5z M220,64h5v1h-5z M238,63h4v2h-4z M251,62h4v3h-4z M10,65h5v1h-5z M49,64h3v2h-3z M102,65h6v1h-6z M160,65h5v1h-5z M221,65h4v1h-4z M237,65h5v1h-5z M251,65h5v1h-5z M11,66h5v1h-5z M48,66h5v1h-5z M91,65h4v2h-4z M103,66h6v1h-6z M161,66h5v1h-5z M223,66h2v1h-2z M252,66h5v1h-5z M12,67h5v1h-5z M90,67h5v1h-5z M104,67h5v1h-5z M161,67h6v1h-6z M237,66h4v2h-4z M253,67h4v1h-4z M13,68h5v1h-5z M49,67h4v2h-4z M74,68h4v1h-4z M90,68h4v1h-4z M106,68h4v1h-4z M129,68h4v1h-4z M237,68h3v1h-3z M253,68h5v1h-5z M36,69h4v1h-4z M71,69h7v1h-7z M89,69h4v1h-4z M106,69h5v1h-5z M129,69h5v1h-5z M163,68h4v2h-4z M14,69h4v2h-4z M31,70h9v1h-9z M50,69h4v2h-4z M68,70h9v1h-9z M88,70h5v1h-5z M130,70h5v1h-5z M151,70h1v1h-1z M164,70h2v1h-2z M179,70h1v1h-1z M202,70h5v1h-5z M16,71h2v1h-2z M29,71h11v1h-11z M67,71h9v1h-9z M107,70h5v2h-5z M130,71h6v1h-6z M150,71h3v1h-3z M178,71h3v1h-3z M198,71h9v1h-9z M254,69h4v3h-4z M29,72h9v1h-9z M67,72h4v1h-4z M88,71h4v2h-4z M108,72h4v1h-4z M131,72h6v1h-6z M195,72h12v1h-12z M255,72h4v1h-4z M29,73h6v1h-6z M51,71h4v3h-4z M89,73h2v1h-2z M109,73h3v1h-3z M133,73h5v1h-5z M149,72h4v2h-4z M193,73h12v1h-12z M257,73h2v1h-2z M134,74h4v1h-4z M148,74h5v1h-5z M192,74h10v1h-10z M52,74h3v2h-3z M135,75h3v1h-3z M192,75h6v1h-6z M215,75h1v1h-1z M118,76h2v1h-2z M148,75h4v2h-4z M118,77h3v1h-3z M147,77h5v1h-5z M213,76h4v2h-4z M212,78h5v1h-5z M232,78h11v1h-11z M40,78h3v2h-3z M78,79h3v1h-3z M147,78h4v2h-4z M167,79h2v1h-2z M20,80h3v1h-3z M40,80h4v1h-4z M117,78h4v3h-4z M147,80h3v1h-3z M166,80h4v1h-4z M212,79h4v2h-4z M231,79h13v2h-13z M96,81h10v1h-10z M147,81h2v1h-2z M165,81h5v1h-5z M178,72h4v10h-4z M211,81h4v1h-4z M232,81h12v1h-12z M19,81h4v2h-4z M39,81h5v2h-5z M78,80h4v3h-4z M93,82h13v1h-13z M116,81h4v2h-4z M164,82h5v1h-5z M179,82h2v1h-2z M19,83h5v1h-5z M39,83h4v1h-4z M56,83h7v1h-7z M92,83h14v1h-14z M115,83h5v1h-5z M163,83h6v1h-6z M193,83h3v1h-3z M52,84h12v1h-12z M79,83h3v2h-3z M92,84h11v1h-11z M115,84h4v1h-4z M161,84h6v1h-6z M193,84h4v1h-4z M210,82h4v3h-4z M20,84h4v2h-4z M50,85h13v1h-13z M93,85h2v1h-2z M160,85h6v1h-6z M192,85h6v1h-6z M210,85h3v1h-3z M263,38h4v48h-4z M20,86h5v1h-5z M38,84h4v3h-4z M50,86h10v1h-10z M79,85h4v2h-4z M159,86h6v1h-6z M194,86h5v1h-5z M250,86h5v1h-5z M21,87h4v1h-4z M37,87h5v1h-5z M50,87h7v1h-7z M114,85h4v3h-4z M159,87h5v1h-5z M195,87h5v1h-5z M249,87h5v1h-5z M262,86h5v2h-5z M52,88h1v1h-1z M115,88h2v1h-2z M160,88h2v1h-2z M196,88h5v1h-5z M224,88h2v1h-2z M247,88h6v1h-6z M21,88h5v2h-5z M37,88h4v2h-4z M130,89h12v1h-12z M197,89h5v1h-5z M224,89h3v1h-3z M245,89h7v1h-7z M80,87h4v4h-4z M129,90h14v1h-14z M244,90h7v1h-7z M22,90h4v2h-4z M68,91h2v1h-2z M81,91h2v1h-2z M129,91h13v1h-13z M198,90h4v2h-4z M223,90h5v2h-5z M243,91h7v1h-7z M12,92h3v1h-3z M23,92h3v1h-3z M130,92h5v1h-5z M139,92h2v1h-2z M172,92h5v1h-5z M243,92h5v1h-5z M66,92h4v2h-4z M172,93h8v1h-8z M224,92h4v2h-4z M244,93h2v1h-2z M11,93h4v2h-4z M65,94h4v1h-4z M172,94h11v1h-11z M224,94h5v1h-5z M10,95h5v1h-5z M64,95h5v1h-5z M98,95h4v1h-4z M174,95h10v1h-10z M64,96h4v1h-4z M98,96h5v1h-5z M151,94h3v3h-3z M177,96h7v1h-7z M10,96h4v2h-4z M63,97h4v1h-4z M99,97h5v1h-5z M180,97h3v1h-3z M225,95h4v3h-4z M256,96h4v2h-4z M45,97h3v2h-3z M62,98h4v1h-4z M100,98h5v1h-5z M209,98h3v1h-3z M226,98h3v1h-3z M255,98h5v1h-5z M9,98h4v2h-4z M61,99h5v1h-5z M101,99h6v1h-6z M121,99h1v1h-1z M207,99h5v1h-5z M227,99h1v1h-1z M8,100h5v1h-5z M45,99h4v2h-4z M62,100h2v1h-2z M102,100h6v1h-6z M119,100h3v1h-3z M206,100h6v1h-6z M255,99h4v2h-4z M8,101h4v1h-4z M27,101h7v1h-7z M103,101h5v1h-5z M205,101h5v1h-5z M7,102h5v1h-5z M24,102h10v1h-10z M46,101h4v2h-4z M104,102h4v1h-4z M119,101h4v2h-4z M203,102h7v1h-7z M241,102h5v1h-5z M8,103h4v1h-4z M21,103h12v1h-12z M46,103h5v1h-5z M105,103h2v1h-2z M151,97h4v7h-4z M188,103h3v1h-3z M202,103h6v1h-6z M239,103h7v1h-7z M254,101h4v3h-4z M8,104h3v1h-3z M20,104h11v1h-11z M47,104h4v1h-4z M73,104h1v1h-1z M152,104h2v1h-2z M164,104h3v1h-3z M185,104h7v1h-7z M202,104h5v1h-5z M254,104h3v1h-3z M9,105h2v1h-2z M20,105h7v1h-7z M47,105h5v1h-5z M72,105h5v1h-5z M164,105h4v1h-4z M182,105h10v1h-10z M202,105h4v1h-4z M234,104h12v2h-12z M21,106h4v1h-4z M72,106h6v1h-6z M94,106h3v1h-3z M120,103h4v4h-4z M135,106h2v1h-2z M164,106h5v1h-5z M181,106h8v1h-8z M234,106h8v1h-8z M48,106h4v2h-4z M73,107h7v1h-7z M134,107h3v1h-3z M165,107h5v1h-5z M180,107h7v1h-7z M234,107h4v1h-4z M49,108h2v1h-2z M74,108h8v1h-8z M121,107h3v2h-3z M182,108h1v1h-1z M217,108h4v1h-4z M253,105h4v4h-4z M263,88h4v21h-4z M76,109h8v1h-8z M93,107h4v3h-4z M122,109h1v1h-1z M134,108h4v2h-4z M166,108h4v2h-4z M217,109h5v1h-5z M60,110h2v1h-2z M78,110h6v1h-6z M167,110h5v1h-5z M218,110h4v1h-4z M36,111h3v1h-3z M60,111h3v1h-3z M79,111h5v1h-5z M219,111h4v1h-4z M59,112h4v1h-4z M81,112h3v1h-3z M168,111h4v2h-4z M219,112h5v1h-5z M92,110h4v4h-4z M133,110h4v4h-4z M155,113h2v1h-2z M169,113h3v1h-3z M220,113h5v1h-5z M35,112h4v3h-4z M60,113h4v2h-4z M132,114h5v1h-5z M149,114h9v1h-9z M170,114h2v1h-2z M198,114h2v1h-2z M221,114h5v1h-5z M35,115h3v1h-3z M61,115h3v1h-3z M132,115h4v1h-4z M197,115h4v1h-4z M222,115h4v1h-4z M13,116h4v1h-4z M133,116h3v1h-3z M147,115h11v2h-11z M185,116h1v1h-1z M197,116h5v1h-5z M223,116h4v1h-4z M249,116h4v1h-4z M61,116h4v2h-4z M91,114h4v4h-4z M106,117h6v1h-6z M148,117h7v1h-7z M184,117h2v1h-2z M198,117h5v1h-5z M223,117h3v1h-3z M237,117h3v1h-3z M248,117h6v1h-6z M13,117h5v2h-5z M34,116h4v3h-4z M62,118h4v1h-4z M199,118h6v1h-6z M249,118h6v1h-6z M14,119h5v1h-5z M34,119h3v1h-3z M105,118h12v2h-12z M199,119h7v1h-7z M250,119h7v1h-7z M15,120h5v1h-5z M62,119h5v2h-5z M78,120h3v1h-3z M106,120h11v1h-11z M183,118h4v3h-4z M201,120h6v1h-6z M237,118h4v3h-4z M250,120h9v1h-9z M16,121h5v1h-5z M33,120h4v2h-4z M51,121h4v1h-4z M63,121h3v1h-3z M78,121h4v1h-4z M202,121h5v1h-5z M237,121h3v1h-3z M253,121h7v1h-7z M16,122h6v1h-6z M50,122h5v1h-5z M64,122h1v1h-1z M77,122h5v1h-5z M204,122h3v1h-3z M255,122h5v1h-5z M17,123h6v1h-6z M33,122h3v2h-3z M48,123h7v1h-7z M76,123h5v1h-5z M123,123h3v1h-3z M171,123h4v1h-4z M205,123h2v1h-2z M217,123h2v1h-2z M256,123h3v1h-3z M18,124h5v1h-5z M34,124h1v1h-1z M45,124h9v1h-9z M74,124h6v1h-6z M122,124h4v1h-4z M136,124h3v1h-3z M169,124h6v1h-6z M216,124h4v1h-4z M19,125h4v1h-4z M44,125h8v1h-8z M72,125h7v1h-7z M121,125h5v1h-5z M136,125h4v1h-4z M167,125h8v1h-8z M215,125h5v1h-5z M44,126h6v1h-6z M71,126h6v1h-6z M95,126h2v1h-2z M120,126h5v1h-5z M136,126h6v1h-6z M164,126h10v1h-10z M214,126h5v1h-5z M45,127h4v1h-4z M70,127h6v1h-6z M120,127h4v1h-4z M137,127h7v1h-7z M162,127h9v1h-9z M182,121h4v7h-4z M213,127h5v1h-5z M236,122h4v6h-4z M46,128h1v1h-1z M69,128h6v1h-6z M94,127h4v2h-4z M138,128h6v1h-6z M162,128h7v1h-7z M183,128h2v1h-2z M213,128h4v1h-4z M237,128h3v1h-3z M69,129h5v1h-5z M94,129h5v1h-5z M119,128h5v2h-5z M139,129h7v1h-7z M162,129h5v1h-5z M212,129h3v1h-3z M70,130h2v1h-2z M95,130h4v1h-4z M141,130h5v1h-5z M211,130h3v1h-3z M1,5h4v127h-4z M96,131h4v1h-4z M118,130h5v2h-5z M211,131h2v1h-2z M1,132h21v1h-21z M23,132h4v1h-4z M31,132h4v1h-4z M41,132h4v1h-4z M67,132h3v1h-3z M71,132h1v1h-1z M95,132h7v1h-7z M104,132h1v1h-1z M117,132h6v1h-6z M138,132h2v1h-2z M142,131h4v2h-4z M262,109h5v24h-5z M1,133h193v1h-193z M205,133h4v1h-4z M211,133h2v1h-2z M237,133h1v1h-1z M261,133h6v1h-6z M2,134h264v2h-264z M23,136h6v1h-6z M30,136h236v1h-236z M163,137h2v1h-2z M167,137h17v1h-17z M194,137h12v1h-12z M212,137h3v1h-3z M218,137h27v1h-27z M249,137h16v1h-16z
  "/>
</svg>