<?xml version="1.0" encoding="UTF-8"?>
<svg xmlns="http://www.w3.org/2000/svg" viewBox="0 0 266 137" width="266" height="137">
  <title>70 Quartz</title>
  <path fill="#111111" fill-rule="nonzero" d="
    M3,0h3v1h-3z M8,0h2v1h-2z M60,0h4v1h-4z M94,0h4v1h-4z M143,0h3v1h-3z M148,0h3v1h-3z M238,0h2v1h-2z M243,0h4v1h-4z M1,1h264v1h-264z M0,2h266v3h-266z M39,5h2v1h-2z M62,5h1v1h-1z M261,5h5v3h-5z M220,8h5v1h-5z M182,9h2v1h-2z M218,9h7v1h-7z M33,10h2v1h-2z M178,10h7v1h-7z M216,10h8v1h-8z M32,11h3v1h-3z M216,11h6v1h-6z M246,11h2v1h-2z M32,12h4v1h-4z M115,12h4v1h-4z M126,12h3v1h-3z M176,11h9v2h-9z M215,12h6v1h-6z M245,12h3v1h-3z M113,13h8v1h-8z M125,13h5v1h-5z M175,13h6v1h-6z M215,13h5v1h-5z M245,13h4v1h-4z M32,13h5v2h-5z M112,14h10v1h-10z M124,14h5v1h-5z M174,14h5v1h-5z M244,14h5v1h-5z M33,15h4v1h-4z M64,15h2v1h-2z M73,15h4v1h-4z M112,15h17v1h-17z M163,15h15v1h-15z M244,15h4v1h-4z M17,16h1v1h-1z M62,16h5v1h-5z M71,16h7v1h-7z M112,16h5v1h-5z M119,16h9v1h-9z M243,16h5v1h-5z M15,17h3v1h-3z M50,17h6v1h-6z M62,17h17v1h-17z M112,17h4v1h-4z M120,17h7v1h-7z M162,16h15v2h-15z M215,14h4v4h-4z M243,17h4v1h-4z M14,18h4v1h-4z M50,18h10v1h-10z M61,18h19v1h-19z M111,18h5v1h-5z M121,18h5v1h-5z M162,18h4v1h-4z M167,18h9v1h-9z M213,18h6v1h-6z M13,19h5v1h-5z M33,16h5v4h-5z M51,19h23v1h-23z M75,19h6v1h-6z M109,19h7v1h-7z M170,19h5v1h-5z M211,19h8v1h-8z M242,18h5v2h-5z M12,20h5v1h-5z M33,20h4v1h-4z M53,20h12v1h-12z M66,20h6v1h-6z M76,20h6v1h-6z M106,20h9v1h-9z M193,20h1v1h-1z M210,20h8v1h-8z M243,20h4v1h-4z M12,21h4v1h-4z M56,21h8v1h-8z M68,21h3v1h-3z M77,21h7v1h-7z M105,21h9v1h-9z M145,21h3v1h-3z M192,21h3v1h-3z M210,21h5v1h-5z M242,21h4v1h-4z M32,21h5v2h-5z M59,22h5v1h-5z M79,22h7v1h-7z M103,22h9v1h-9z M141,22h9v1h-9z M208,22h6v1h-6z M81,23h7v1h-7z M102,23h7v1h-7z M141,23h11v1h-11z M207,23h6v1h-6z M243,22h4v2h-4z M11,22h5v3h-5z M32,23h4v2h-4z M83,24h5v1h-5z M101,24h6v1h-6z M142,24h12v1h-12z M191,22h4v3h-4z M205,24h7v1h-7z M243,24h5v1h-5z M12,25h4v1h-4z M32,25h5v1h-5z M149,25h6v1h-6z M190,25h5v1h-5z M204,25h5v1h-5z M244,25h6v1h-6z M32,26h11v1h-11z M101,25h4v2h-4z M150,26h7v1h-7z M204,26h4v1h-4z M245,26h6v1h-6z M33,27h11v1h-11z M101,27h3v1h-3z M151,27h7v1h-7z M190,26h4v2h-4z M203,27h4v1h-4z M246,27h5v1h-5z M34,28h10v1h-10z M102,28h1v1h-1z M152,28h7v1h-7z M204,28h1v1h-1z M247,28h4v1h-4z M35,29h10v1h-10z M154,29h6v1h-6z M189,28h4v2h-4z M247,29h5v1h-5z M13,26h5v5h-5z M39,30h6v1h-6z M155,30h5v1h-5z M168,30h5v1h-5z M189,30h5v1h-5z M248,30h4v1h-4z M12,31h5v1h-5z M155,31h6v1h-6z M166,31h9v1h-9z M190,31h5v1h-5z M211,31h7v1h-7z M248,31h5v1h-5z M41,31h4v2h-4z M155,32h21v1h-21z M191,32h4v1h-4z M210,32h8v1h-8z M249,32h4v1h-4z M12,32h4v2h-4z M41,33h5v1h-5z M155,33h22v1h-22z M191,33h5v1h-5z M207,33h13v1h-13z M223,33h14v1h-14z M249,33h5v1h-5z M11,34h5v1h-5z M42,34h5v1h-5z M156,34h13v1h-13z M172,34h5v1h-5z M206,34h15v1h-15z M222,34h15v1h-15z M250,34h4v1h-4z M43,35h5v1h-5z M159,35h8v1h-8z M174,35h2v1h-2z M192,34h4v2h-4z M205,35h6v1h-6z M216,35h21v1h-21z M10,35h5v2h-5z M44,36h5v1h-5z M161,36h4v1h-4z M205,36h3v1h-3z M217,36h10v1h-10z M231,36h5v1h-5z M249,35h4v2h-4z M10,37h4v1h-4z M75,37h6v1h-6z M218,37h6v1h-6z M248,37h5v1h-5z M9,38h5v1h-5z M15,38h4v1h-4z M45,37h4v2h-4z M73,38h8v1h-8z M193,36h3v3h-3z M248,38h4v1h-4z M72,39h9v1h-9z M118,39h4v1h-4z M192,39h4v1h-4z M247,39h4v1h-4z M9,39h11v2h-11z M71,40h6v1h-6z M115,40h8v1h-8z M128,40h4v1h-4z M191,40h5v1h-5z M247,40h3v1h-3z M10,41h10v1h-10z M70,41h6v1h-6z M113,41h11v1h-11z M127,41h6v1h-6z M11,42h9v1h-9z M71,42h4v1h-4z M110,42h28v1h-28z M16,43h4v1h-4z M46,39h4v5h-4z M71,43h3v1h-3z M109,43h8v1h-8z M120,43h18v1h-18z M191,41h4v3h-4z M16,44h5v1h-5z M47,44h2v1h-2z M71,44h4v1h-4z M109,44h5v1h-5z M121,44h7v1h-7z M130,44h8v1h-8z M191,44h7v1h-7z M246,41h4v4h-4z M16,45h7v1h-7z M66,45h1v1h-1z M70,45h5v1h-5z M111,45h3v1h-3z M122,45h6v1h-6z M131,45h7v1h-7z M192,45h7v1h-7z M17,46h7v1h-7z M63,46h13v1h-13z M192,46h9v1h-9z M17,47h8v1h-8z M63,47h12v1h-12z M195,47h7v1h-7z M19,48h6v1h-6z M63,48h11v1h-11z M198,48h5v1h-5z M246,45h3v4h-3z M21,49h3v1h-3z M63,49h4v1h-4z M69,49h4v1h-4z M200,49h3v1h-3z M247,49h2v1h-2z M62,50h5v1h-5z M201,50h2v1h-2z M226,50h8v1h-8z M61,51h6v1h-6z M201,51h1v1h-1z M225,51h9v1h-9z M59,52h8v1h-8z M224,52h10v1h-10z M58,53h8v1h-8z M154,53h3v1h-3z M223,53h11v1h-11z M58,54h5v1h-5z M149,54h13v1h-13z M173,54h3v1h-3z M223,54h5v1h-5z M57,55h5v1h-5z M148,55h15v1h-15z M169,55h9v1h-9z M180,55h6v1h-6z M223,55h4v1h-4z M57,56h4v1h-4z M148,56h16v1h-16z M168,56h19v1h-19z M57,57h3v1h-3z M148,57h4v1h-4z M159,57h27v1h-27z M57,58h2v1h-2z M160,58h11v1h-11z M176,58h6v1h-6z M243,58h8v1h-8z M163,59h7v1h-7z M222,56h4v4h-4z M242,59h10v1h-10z M164,60h5v1h-5z M221,60h5v1h-5z M243,60h10v1h-10z M28,61h7v1h-7z M38,61h5v1h-5z M218,61h7v1h-7z M248,61h4v1h-4z M0,5h5v58h-5z M26,62h18v1h-18z M194,62h1v1h-1z M217,62h7v1h-7z M17,63h5v1h-5z M25,63h19v1h-19z M114,63h7v1h-7z M189,63h8v1h-8z M215,63h8v1h-8z M1,63h3v2h-3z M14,64h9v1h-9z M24,64h19v1h-19z M65,64h5v1h-5z M112,64h10v1h-10z M188,64h10v1h-10z M214,64h8v1h-8z M13,65h16v1h-16z M34,65h2v1h-2z M110,65h12v1h-12z M188,65h11v1h-11z M1,65h4v2h-4z M11,66h17v1h-17z M65,65h7v2h-7z M109,66h13v1h-13z M189,66h4v1h-4z M195,66h5v1h-5z M214,65h4v2h-4z M11,67h7v1h-7z M19,67h8v1h-8z M66,67h7v1h-7z M101,67h2v1h-2z M107,67h7v1h-7z M119,67h1v1h-1z M139,67h3v1h-3z M196,67h6v1h-6z M10,68h7v1h-7z M21,68h4v1h-4z M68,68h6v1h-6z M99,68h13v1h-13z M138,68h4v1h-4z M197,68h7v1h-7z M213,67h4v2h-4z M234,68h2v1h-2z M10,69h5v1h-5z M70,69h5v1h-5z M98,69h13v1h-13z M138,69h5v1h-5z M198,69h5v1h-5z M212,69h4v1h-4z M10,70h4v1h-4z M71,70h4v1h-4z M93,70h17v1h-17z M199,70h3v1h-3z M211,70h5v1h-5z M233,69h4v2h-4z M11,71h2v1h-2z M71,71h5v1h-5z M91,71h18v1h-18z M139,70h5v2h-5z M175,71h4v1h-4z M210,71h5v1h-5z M250,71h2v1h-2z M70,72h6v1h-6z M90,72h10v1h-10z M103,72h5v1h-5z M137,72h7v1h-7z M171,72h10v1h-10z M209,72h5v1h-5z M69,73h6v1h-6z M91,73h7v1h-7z M104,73h3v1h-3z M135,73h8v1h-8z M169,73h13v1h-13z M232,71h5v3h-5z M249,72h4v2h-4z M51,74h4v1h-4z M69,74h5v1h-5z M92,74h4v1h-4z M133,74h9v1h-9z M167,74h16v1h-16z M208,73h4v2h-4z M248,74h5v1h-5z M68,75h5v1h-5z M132,75h9v1h-9z M167,75h6v1h-6z M178,75h6v1h-6z M208,75h2v1h-2z M248,75h4v1h-4z M50,75h6v2h-6z M68,76h6v1h-6z M167,76h4v1h-4z M247,76h5v1h-5z M262,8h4v69h-4z M50,77h5v1h-5z M68,77h9v1h-9z M180,76h5v2h-5z M226,77h4v1h-4z M232,74h4v4h-4z M68,78h10v1h-10z M225,78h11v1h-11z M247,77h4v2h-4z M50,78h4v2h-4z M69,79h9v1h-9z M181,78h4v2h-4z M223,79h13v1h-13z M261,77h5v3h-5z M50,80h3v1h-3z M73,80h5v1h-5z M132,76h5v5h-5z M182,80h4v1h-4z M222,80h13v1h-13z M44,81h3v1h-3z M49,81h4v1h-4z M182,81h6v1h-6z M221,81h7v1h-7z M231,81h1v1h-1z M246,79h4v3h-4z M43,82h10v1h-10z M75,81h4v2h-4z M131,81h6v2h-6z M182,82h11v1h-11z M220,82h7v1h-7z M246,82h5v1h-5z M8,83h1v1h-1z M10,83h3v1h-3z M42,83h11v1h-11z M75,83h8v1h-8z M131,83h5v1h-5z M184,83h11v1h-11z M220,83h5v1h-5z M247,83h4v1h-4z M8,84h8v1h-8z M42,84h10v1h-10z M76,84h8v1h-8z M130,84h6v1h-6z M185,84h11v1h-11z M221,84h4v1h-4z M247,84h5v1h-5z M8,85h10v1h-10z M42,85h9v1h-9z M77,85h8v1h-8z M130,85h5v1h-5z M188,85h2v1h-2z M191,85h6v1h-6z M221,85h5v1h-5z M247,85h6v1h-6z M8,86h11v1h-11z M35,86h4v1h-4z M41,86h6v1h-6z M78,86h8v1h-8z M96,86h2v1h-2z M128,86h7v1h-7z M193,86h6v1h-6z M221,86h6v1h-6z M248,86h6v1h-6z M0,67h5v21h-5z M8,87h1v1h-1z M10,87h10v1h-10z M82,87h4v1h-4z M127,87h6v1h-6z M194,87h6v1h-6z M223,87h5v1h-5z M249,87h7v1h-7z M14,88h7v1h-7z M34,87h13v2h-13z M95,87h4v2h-4z M126,88h6v1h-6z M195,88h6v1h-6z M224,88h5v1h-5z M252,88h5v1h-5z M15,89h7v1h-7z M35,89h11v1h-11z M197,89h5v1h-5z M226,89h4v1h-4z M253,89h5v1h-5z M17,90h5v1h-5z M36,90h8v1h-8z M95,89h5v2h-5z M126,89h5v2h-5z M164,90h4v1h-4z M227,90h4v1h-4z M262,80h4v11h-4z M1,88h4v4h-4z M96,91h4v1h-4z M127,91h3v1h-3z M163,91h5v1h-5z M198,90h4v2h-4z M126,92h4v1h-4z M162,92h7v1h-7z M228,91h4v2h-4z M18,91h4v3h-4z M127,93h2v1h-2z M154,93h3v1h-3z M160,93h8v1h-8z M228,93h5v1h-5z M18,94h5v1h-5z M96,92h5v3h-5z M153,94h12v1h-12z M0,92h5v4h-5z M18,95h6v1h-6z M25,95h2v1h-2z M93,95h8v1h-8z M151,95h13v1h-13z M229,94h4v2h-4z M254,90h4v6h-4z M261,91h5v5h-5z M18,96h10v1h-10z M144,96h4v1h-4z M150,96h13v1h-13z M1,96h4v2h-4z M91,96h9v2h-9z M143,97h12v1h-12z M158,97h2v1h-2z M176,97h6v1h-6z M230,96h3v2h-3z M254,96h3v2h-3z M19,97h10v2h-10z M91,98h7v1h-7z M143,98h10v1h-10z M174,98h8v1h-8z M231,98h1v1h-1z M261,96h4v3h-4z M22,99h1v1h-1z M24,99h6v1h-6z M145,99h7v1h-7z M173,99h8v1h-8z M26,100h6v1h-6z M91,99h5v2h-5z M147,100h3v1h-3z M172,100h7v1h-7z M26,101h13v1h-13z M172,101h5v1h-5z M27,102h13v1h-13z M92,101h5v2h-5z M171,102h5v1h-5z M216,102h2v1h-2z M261,99h5v4h-5z M28,103h12v1h-12z M91,103h6v1h-6z M214,103h4v1h-4z M0,98h5v7h-5z M29,104h5v1h-5z M36,104h4v1h-4z M90,104h6v1h-6z M171,103h4v2h-4z M209,104h8v1h-8z M71,105h2v1h-2z M90,105h5v1h-5z M172,105h3v1h-3z M206,105h11v1h-11z M1,105h4v2h-4z M69,106h4v1h-4z M90,106h4v1h-4z M196,106h4v1h-4z M205,106h11v1h-11z M245,106h4v1h-4z M11,105h3v3h-3z M89,107h5v1h-5z M195,107h7v1h-7z M203,107h12v1h-12z M244,107h6v1h-6z M10,108h4v1h-4z M68,107h5v2h-5z M172,106h4v3h-4z M194,108h18v1h-18z M242,108h7v1h-7z M262,103h4v6h-4z M0,107h5v3h-5z M10,109h5v1h-5z M67,109h4v1h-4z M89,108h4v2h-4z M126,109h2v1h-2z M194,109h14v1h-14z M239,109h9v1h-9z M262,109h3v1h-3z M0,110h4v1h-4z M10,110h6v1h-6z M65,110h6v1h-6z M88,110h5v1h-5z M117,110h3v1h-3z M125,110h4v1h-4z M171,109h5v2h-5z M194,110h5v1h-5z M200,110h6v1h-6z M237,110h9v1h-9z M11,111h6v1h-6z M61,111h9v1h-9z M87,111h6v1h-6z M115,111h7v1h-7z M123,111h6v1h-6z M169,111h6v1h-6z M201,111h4v1h-4z M236,111h8v1h-8z M12,112h8v1h-8z M50,112h4v1h-4z M59,112h11v1h-11z M86,112h6v1h-6z M114,112h14v1h-14z M167,112h7v1h-7z M194,111h4v2h-4z M235,112h6v1h-6z M0,111h5v3h-5z M13,113h8v1h-8z M49,113h19v1h-19z M85,113h5v1h-5z M114,113h13v1h-13z M165,113h8v1h-8z M0,114h4v1h-4z M14,114h8v1h-8z M48,114h18v1h-18z M84,114h5v1h-5z M109,114h10v1h-10z M120,114h6v1h-6z M164,114h7v1h-7z M194,113h3v2h-3z M235,113h4v2h-4z M1,115h3v1h-3z M16,115h6v1h-6z M48,115h14v1h-14z M84,115h4v1h-4z M107,115h11v1h-11z M122,115h3v1h-3z M163,115h6v1h-6z M193,115h4v1h-4z M227,115h4v1h-4z M234,115h5v1h-5z M18,116h5v1h-5z M48,116h5v1h-5z M54,116h7v1h-7z M85,116h2v1h-2z M106,116h11v1h-11z M143,116h3v1h-3z M192,116h5v1h-5z M224,116h9v1h-9z M234,116h4v1h-4z M19,117h4v1h-4z M47,117h5v1h-5z M55,117h4v1h-4z M105,117h11v1h-11z M142,117h4v1h-4z M162,116h4v2h-4z M222,117h16v1h-16z M18,118h5v1h-5z M46,118h6v1h-6z M104,118h5v1h-5z M192,117h4v2h-4z M220,118h18v1h-18z M45,119h6v1h-6z M102,119h5v1h-5z M139,118h7v2h-7z M193,119h3v1h-3z M219,119h5v1h-5z M231,119h6v1h-6z M42,120h8v1h-8z M102,120h4v1h-4z M138,120h8v1h-8z M161,118h4v3h-4z M219,120h4v1h-4z M232,120h4v1h-4z M36,121h13v1h-13z M101,121h4v1h-4z M138,121h5v1h-5z M179,121h1v1h-1z M219,121h3v1h-3z M34,122h14v1h-14z M102,122h2v1h-2z M161,121h3v2h-3z M178,122h6v1h-6z M261,110h5v13h-5z M1,116h4v8h-4z M34,123h12v1h-12z M138,122h4v2h-4z M178,123h8v1h-8z M18,119h4v6h-4z M35,124h9v1h-9z M71,124h7v1h-7z M137,124h4v1h-4z M178,124h9v1h-9z M17,125h5v1h-5z M70,125h9v1h-9z M136,125h5v1h-5z M182,125h7v1h-7z M0,124h5v3h-5z M17,126h7v1h-7z M69,126h10v1h-10z M184,126h5v1h-5z M261,123h4v4h-4z M75,127h4v1h-4z M135,126h5v2h-5z M184,127h6v1h-6z M0,127h4v2h-4z M18,127h7v2h-7z M76,128h4v1h-4z M136,128h3v1h-3z M186,128h2v1h-2z M20,129h4v1h-4z M1,129h4v2h-4z M77,129h3v2h-3z M1,131h6v1h-6z M8,131h1v1h-1z M23,131h2v1h-2z M77,131h1v1h-1z M261,127h5v5h-5z M1,132h223v1h-223z M226,132h8v1h-8z M236,132h17v1h-17z M254,132h3v1h-3z M260,132h6v1h-6z M1,133h265v1h-265z M1,134h264v1h-264z M2,135h263v1h-263z M171,136h1v1h-1z M180,136h13v1h-13z M201,136h9v1h-9z M217,136h8v1h-8z M226,136h2v1h-2z M239,136h3v1h-3z M249,136h13v1h-13z
  "/>
</svg>