<?xml version="1.0" encoding="UTF-8"?>
<svg xmlns="http://www.w3.org/2000/svg" viewBox="0 0 269 137" width="269" height="137">
  <title>56 Soapstone talc and serpentine</title>
  <path fill="#111111" fill-rule="nonzero" d="
    M3,1h10v1h-10z M14,1h12v1h-12z M31,1h14v1h-14z M46,1h22v1h-22z M70,1h11v1h-11z M84,1h26v1h-26z M116,1h9v1h-9z M126,1h9v1h-9z M136,1h36v1h-36z M174,1h1v1h-1z M177,1h89v1h-89z M1,2h266v1h-266z M0,3h268v2h-268z M1,5h5v1h-5z M14,5h2v1h-2z M20,5h11v1h-11z M32,5h2v1h-2z M36,5h29v1h-29z M67,5h1v1h-1z M70,5h8v1h-8z M79,5h23v1h-23z M105,5h1v1h-1z M117,5h47v1h-47z M165,5h22v1h-22z M208,5h1v1h-1z M217,5h12v1h-12z M253,5h9v1h-9z M81,6h14v1h-14z M170,6h12v1h-12z M263,5h5v2h-5z M86,7h9v1h-9z M36,6h13v3h-13z M81,7h4v2h-4z M86,8h8v1h-8z M170,7h11v2h-11z M217,6h11v3h-11z M254,6h8v3h-8z M1,6h4v5h-4z M217,9h10v2h-10z M67,11h2v1h-2z M81,9h13v3h-13z M124,6h12v6h-12z M217,11h11v1h-11z M255,9h8v3h-8z M36,9h12v4h-12z M66,12h3v1h-3z M82,12h12v1h-12z M124,12h13v1h-13z M169,9h12v4h-12z M256,12h7v1h-7z M37,13h3v1h-3z M65,13h4v1h-4z M86,13h8v1h-8z M37,14h2v1h-2z M64,14h5v1h-5z M86,14h9v1h-9z M124,13h12v2h-12z M217,12h10v3h-10z M255,13h7v2h-7z M0,11h5v5h-5z M17,15h2v1h-2z M41,13h7v3h-7z M64,15h4v1h-4z M87,15h8v1h-8z M170,13h12v3h-12z M204,15h3v1h-3z M218,15h8v1h-8z M41,16h6v1h-6z M63,16h5v1h-5z M88,16h7v1h-7z M112,16h3v1h-3z M125,15h11v2h-11z M155,16h2v1h-2z M171,16h11v1h-11z M203,16h4v1h-4z M219,16h7v1h-7z M256,15h6v2h-6z M16,16h4v2h-4z M60,17h8v1h-8z M112,17h4v1h-4z M126,17h9v1h-9z M154,17h3v1h-3z M173,17h9v1h-9z M221,17h5v1h-5z M258,17h3v1h-3z M15,18h7v1h-7z M59,18h12v1h-12z M127,18h3v1h-3z M153,18h5v1h-5z M202,17h5v2h-5z M259,18h1v1h-1z M15,19h10v1h-10z M111,18h4v2h-4z M127,19h2v1h-2z M131,18h4v2h-4z M153,19h4v1h-4z M199,19h8v1h-8z M15,20h11v1h-11z M58,19h14v2h-14z M91,17h4v4h-4z M108,20h8v1h-8z M132,20h4v1h-4z M152,20h5v1h-5z M198,20h10v1h-10z M15,21h12v1h-12z M42,17h3v5h-3z M90,21h4v1h-4z M107,21h11v1h-11z M148,21h3v1h-3z M152,21h4v1h-4z M222,18h4v4h-4z M42,22h2v1h-2z M58,21h8v2h-8z M67,21h5v2h-5z M91,22h3v1h-3z M131,21h4v2h-4z M248,22h3v1h-3z M1,16h4v8h-4z M91,23h2v1h-2z M132,23h3v1h-3z M147,22h9v2h-9z M175,18h7v6h-7z M197,21h12v3h-12z M248,23h7v1h-7z M58,23h14v2h-14z M106,22h12v3h-12z M133,24h1v1h-1z M147,24h12v1h-12z M247,24h8v1h-8z M0,24h5v2h-5z M57,25h15v1h-15z M147,25h13v1h-13z M177,24h5v2h-5z M245,25h10v1h-10z M14,22h12v5h-12z M177,26h4v1h-4z M244,26h11v1h-11z M15,27h11v1h-11z M58,26h14v2h-14z M106,25h13v3h-13z M147,26h14v2h-14z M177,27h3v1h-3z M1,26h4v3h-4z M16,28h11v1h-11z M58,28h5v1h-5z M64,28h9v1h-9z M178,28h2v1h-2z M196,24h13v5h-13z M58,29h15v1h-15z M107,28h12v2h-12z M147,28h4v2h-4z M152,28h9v2h-9z M196,29h14v1h-14z M244,27h10v3h-10z M59,30h4v1h-4z M64,30h9v1h-9z M243,30h12v1h-12z M1,29h3v3h-3z M60,31h3v1h-3z M65,31h8v1h-8z M147,30h15v2h-15z M197,30h13v2h-13z M244,31h11v1h-11z M18,29h9v4h-9z M68,32h5v1h-5z M148,32h14v1h-14z M201,32h9v1h-9z M244,32h10v1h-10z M1,32h4v2h-4z M18,33h4v1h-4z M68,33h4v1h-4z M111,30h8v4h-8z M148,33h4v1h-4z M153,33h9v1h-9z M243,33h11v1h-11z M1,34h3v1h-3z M19,34h3v1h-3z M67,34h5v1h-5z M149,34h2v1h-2z M111,34h7v2h-7z M244,34h10v2h-10z M0,35h4v2h-4z M23,33h4v4h-4z M66,35h5v2h-5z M245,36h10v1h-10z M66,37h4v1h-4z M113,36h5v2h-5z M202,33h8v5h-8z M66,38h3v1h-3z M137,38h3v1h-3z M154,34h8v5h-8z M182,38h3v1h-3z M204,38h6v1h-6z M22,37h4v3h-4z M67,39h1v1h-1z M112,38h5v2h-5z M133,39h1v1h-1z M135,39h5v1h-5z M154,39h7v1h-7z M182,39h4v1h-4z M22,40h3v1h-3z M38,40h3v1h-3z M48,40h3v1h-3z M94,40h3v1h-3z M112,40h4v1h-4z M178,40h2v1h-2z M181,40h5v1h-5z M205,39h4v2h-4z M225,37h4v4h-4z M37,41h4v1h-4z M92,41h5v1h-5z M131,40h8v2h-8z M156,40h5v2h-5z M177,41h9v1h-9z M204,41h5v1h-5z M222,41h7v1h-7z M247,37h8v5h-8z M1,37h3v6h-3z M37,42h8v1h-8z M47,41h4v2h-4z M90,42h7v1h-7z M130,42h9v1h-9z M204,42h4v1h-4z M248,42h7v1h-7z M37,43h14v1h-14z M89,43h8v1h-8z M156,42h4v2h-4z M177,42h8v2h-8z M204,43h3v1h-3z M221,42h8v2h-8z M230,43h2v1h-2z M0,43h4v2h-4z M37,44h13v1h-13z M130,43h8v2h-8z M157,44h2v1h-2z M176,44h9v1h-9z M187,44h1v1h-1z M205,44h1v1h-1z M250,43h5v2h-5z M89,44h7v2h-7z M98,45h2v1h-2z M130,45h11v1h-11z M176,45h12v1h-12z M129,46h12v1h-12z M250,45h4v2h-4z M129,47h13v1h-13z M250,47h3v1h-3z M36,45h14v4h-14z M129,48h12v1h-12z M37,49h14v1h-14z M88,46h12v4h-12z M176,46h13v4h-13z M1,45h3v6h-3z M37,50h4v1h-4z M42,50h9v1h-9z M221,44h13v7h-13z M177,50h13v2h-13z M221,51h14v1h-14z M0,51h4v2h-4z M37,51h14v2h-14z M89,50h11v3h-11z M222,52h13v1h-13z M1,53h3v1h-3z M37,53h15v1h-15z M130,49h11v5h-11z M178,52h12v2h-12z M37,54h5v1h-5z M43,54h8v1h-8z M90,53h10v2h-10z M131,54h11v1h-11z M223,53h11v2h-11z M38,55h4v1h-4z M43,55h9v1h-9z M264,7h4v49h-4z M38,56h14v1h-14z M93,55h8v2h-8z M182,54h8v3h-8z M227,55h7v2h-7z M38,57h3v1h-3z M43,57h4v1h-4z M94,57h7v1h-7z M134,55h8v3h-8z M186,57h4v1h-4z M226,57h8v1h-8z M38,58h2v1h-2z M42,58h5v1h-5z M186,58h3v1h-3z M265,56h3v3h-3z M48,57h4v3h-4z M97,58h4v2h-4z M135,58h6v2h-6z M227,58h7v2h-7z M41,59h5v2h-5z M47,60h5v1h-5z M185,59h4v2h-4z M264,59h4v2h-4z M75,61h1v1h-1z M97,60h3v2h-3z M184,61h5v1h-5z M228,60h5v2h-5z M254,61h3v1h-3z M41,61h4v2h-4z M47,61h4v2h-4z M75,62h2v1h-2z M98,62h2v1h-2z M137,60h4v3h-4z M184,62h4v1h-4z M228,62h4v1h-4z M0,54h4v10h-4z M19,63h2v1h-2z M42,63h1v1h-1z M47,63h3v1h-3z M74,63h3v1h-3z M160,61h3v3h-3z M185,63h2v1h-2z M230,63h1v1h-1z M253,62h4v2h-4z M264,61h5v3h-5z M1,64h3v1h-3z M19,64h3v1h-3z M66,64h1v1h-1z M69,64h8v1h-8z M117,64h2v1h-2z M137,63h3v2h-3z M159,64h4v1h-4z M252,64h4v1h-4z M0,65h4v1h-4z M9,65h4v1h-4z M65,65h12v1h-12z M116,65h3v1h-3z M159,65h6v1h-6z M208,65h3v1h-3z M249,65h7v1h-7z M114,66h5v1h-5z M155,66h10v1h-10z M207,66h4v1h-4z M265,64h3v3h-3z M9,66h5v2h-5z M15,67h1v1h-1z M18,65h4v3h-4z M64,66h12v2h-12z M204,67h7v1h-7z M248,66h8v2h-8z M264,67h4v1h-4z M1,66h3v3h-3z M9,68h7v1h-7z M112,67h7v2h-7z M203,68h8v1h-8z M248,68h11v1h-11z M17,68h5v2h-5z M111,69h7v1h-7z M247,69h12v1h-12z M63,68h13v3h-13z M0,69h5v3h-5z M8,69h8v3h-8z M68,71h8v1h-8z M110,70h8v2h-8z M119,71h2v1h-2z M202,69h8v3h-8z M63,71h4v2h-4z M68,72h4v1h-4z M73,72h3v1h-3z M247,70h13v3h-13z M8,72h9v2h-9z M202,72h11v2h-11z M248,73h12v1h-12z M9,74h8v1h-8z M18,70h4v5h-4z M202,74h12v1h-12z M264,68h5v7h-5z M63,73h9v3h-9z M73,73h4v3h-4z M154,67h12v9h-12z M9,75h9v2h-9z M19,75h4v2h-4z M63,76h10v1h-10z M154,76h8v1h-8z M163,76h3v1h-3z M201,75h13v2h-13z M248,74h13v3h-13z M10,77h13v1h-13z M74,76h3v2h-3z M154,77h13v1h-13z M249,77h12v1h-12z M64,77h9v2h-9z M75,78h1v1h-1z M110,72h12v7h-12z M250,78h2v1h-2z M253,78h8v1h-8z M10,78h12v2h-12z M65,79h2v1h-2z M111,79h11v1h-11z M154,78h8v2h-8z M163,78h4v2h-4z M10,80h3v1h-3z M15,80h6v1h-6z M69,79h4v2h-4z M111,80h2v1h-2z M114,80h8v1h-8z M155,80h7v1h-7z M202,77h13v4h-13z M11,81h2v1h-2z M70,81h4v1h-4z M158,81h4v1h-4z M15,81h4v2h-4z M115,81h7v2h-7z M158,82h5v1h-5z M164,80h3v3h-3z M203,81h12v2h-12z M254,79h7v4h-7z M264,75h4v8h-4z M15,83h3v1h-3z M117,83h5v1h-5z M159,83h3v1h-3z M254,83h6v1h-6z M14,84h3v1h-3z M69,82h4v3h-4z M118,84h3v1h-3z M140,85h2v1h-2z M207,83h8v3h-8z M255,84h5v2h-5z M43,85h3v2h-3z M69,85h3v2h-3z M96,86h2v1h-2z M117,85h4v2h-4z M139,86h3v1h-3z M163,83h4v4h-4z M255,86h4v1h-4z M264,83h5v4h-5z M39,87h7v1h-7z M117,87h3v1h-3z M138,87h4v1h-4z M164,87h2v1h-2z M185,87h3v1h-3z M208,86h7v2h-7z M256,87h3v1h-3z M264,87h4v1h-4z M38,88h8v1h-8z M90,88h2v1h-2z M94,87h4v2h-4z M137,88h5v1h-5z M37,89h8v1h-8z M90,89h8v1h-8z M137,89h4v1h-4z M184,88h4v2h-4z M265,88h4v2h-4z M37,90h9v1h-9z M136,90h5v1h-5z M181,90h1v1h-1z M183,90h5v1h-5z M208,88h6v3h-6z M227,90h1v1h-1z M231,88h3v3h-3z M37,91h11v1h-11z M89,90h8v2h-8z M133,91h7v1h-7z M180,91h7v1h-7z M210,91h3v1h-3z M227,91h7v1h-7z M88,92h9v1h-9z M98,92h1v1h-1z M132,92h8v1h-8z M211,92h2v1h-2z M226,92h9v1h-9z M132,93h9v1h-9z M179,92h8v2h-8z M264,90h5v4h-5z M36,92h12v3h-12z M88,93h12v2h-12z M179,94h9v1h-9z M226,93h11v2h-11z M131,94h11v2h-11z M36,95h13v2h-13z M178,95h12v2h-12z M36,97h4v1h-4z M41,97h8v1h-8z M36,98h13v1h-13z M88,95h13v4h-13z M89,99h12v2h-12z M225,95h12v6h-12z M264,94h4v7h-4z M37,99h13v3h-13z M90,101h11v1h-11z M178,97h13v5h-13z M226,101h11v1h-11z M38,102h12v1h-12z M38,103h3v1h-3z M226,102h12v2h-12z M265,101h3v3h-3z M94,102h8v3h-8z M131,96h12v9h-12z M227,104h11v1h-11z M42,103h8v3h-8z M94,105h2v1h-2z M179,102h12v4h-12z M229,105h9v1h-9z M43,106h7v1h-7z M97,105h4v2h-4z M132,105h11v2h-11z M181,106h1v1h-1z M264,104h4v3h-4z M19,107h2v1h-2z M134,107h9v1h-9z M165,107h1v1h-1z M210,106h3v2h-3z M231,106h7v2h-7z M265,107h3v1h-3z M18,108h4v1h-4z M68,107h3v2h-3z M97,107h3v2h-3z M136,108h7v1h-7z M163,108h3v1h-3z M258,107h3v2h-3z M46,107h4v3h-4z M67,109h4v1h-4z M121,109h2v1h-2z M137,109h5v1h-5z M230,108h8v2h-8z M257,109h4v1h-4z M264,108h4v2h-4z M18,109h3v2h-3z M45,110h4v1h-4z M64,110h7v1h-7z M118,110h1v1h-1z M120,110h3v1h-3z M159,110h1v1h-1z M162,109h4v2h-4z M183,106h8v5h-8z M209,108h4v3h-4z M231,110h7v1h-7z M254,110h7v1h-7z M264,110h5v1h-5z M46,111h2v1h-2z M63,111h7v1h-7z M138,110h4v2h-4z M158,111h7v1h-7z M184,111h7v1h-7z M208,111h5v1h-5z M232,111h6v1h-6z M253,111h8v1h-8z M264,111h4v1h-4z M13,112h2v1h-2z M17,111h3v2h-3z M21,112h1v1h-1z M116,111h7v2h-7z M138,112h3v1h-3z M157,112h8v1h-8z M186,112h4v1h-4z M235,112h3v1h-3z M252,112h9v1h-9z M264,112h5v1h-5z M12,113h11v1h-11z M138,113h2v1h-2z M157,113h9v1h-9z M207,112h7v2h-7z M252,113h10v1h-10z M72,114h1v1h-1z M115,113h8v2h-8z M157,114h11v1h-11z M205,114h9v1h-9z M264,113h4v2h-4z M12,114h12v2h-12z M62,112h8v4h-8z M71,115h3v1h-3z M114,115h9v1h-9z M186,113h3v3h-3z M204,115h10v1h-10z M265,115h3v1h-3z M11,116h13v1h-13z M62,116h12v1h-12z M114,116h10v1h-10z M264,116h5v1h-5z M204,116h11v2h-11z M11,117h8v2h-8z M20,117h4v2h-4z M61,117h13v2h-13z M203,118h12v1h-12z M11,119h13v1h-13z M114,117h11v3h-11z M156,115h12v5h-12z M11,120h8v1h-8z M20,120h5v1h-5z M61,119h14v2h-14z M251,114h11v7h-11z M11,121h14v1h-14z M114,120h12v2h-12z M251,121h12v1h-12z M264,117h4v5h-4z M156,120h13v3h-13z M251,122h17v1h-17z M12,122h13v2h-13z M62,121h13v3h-13z M157,123h12v1h-12z M264,123h4v1h-4z M13,124h12v1h-12z M115,122h12v3h-12z M204,119h11v6h-11z M252,123h11v2h-11z M265,124h3v1h-3z M14,125h12v1h-12z M63,124h12v2h-12z M205,125h4v1h-4z M211,125h5v1h-5z M253,125h10v1h-10z M17,126h9v1h-9z M66,126h9v1h-9z M116,125h12v2h-12z M161,124h8v3h-8z M212,126h3v1h-3z M254,126h9v1h-9z M18,127h8v1h-8z M67,127h8v1h-8z M117,127h2v1h-2z M120,127h8v1h-8z M160,127h8v1h-8z M212,127h4v1h-4z M264,125h4v3h-4z M68,128h7v1h-7z M161,128h7v1h-7z M211,128h5v1h-5z M256,127h6v2h-6z M263,128h5v1h-5z M70,129h5v1h-5z M121,128h7v2h-7z M162,129h6v1h-6z M257,129h5v1h-5z M0,72h4v59h-4z M21,128h4v3h-4z M70,130h4v1h-4z M164,130h4v1h-4z M211,129h4v2h-4z M258,130h4v1h-4z M0,131h5v1h-5z M20,131h5v1h-5z M70,131h5v1h-5z M123,130h4v2h-4z M164,131h3v1h-3z M259,131h3v1h-3z M264,129h4v3h-4z M0,132h142v1h-142z M147,132h3v1h-3z M158,132h10v1h-10z M210,131h5v2h-5z M248,132h3v1h-3z M256,132h6v1h-6z M263,132h5v1h-5z M0,133h268v1h-268z M1,134h267v1h-267z M2,135h265v1h-265z M62,136h12v1h-12z M75,136h28v1h-28z M105,136h161v1h-161z
  "/>
</svg>