<?xml version="1.0" encoding="UTF-8"?>
<svg xmlns="http://www.w3.org/2000/svg" viewBox="0 0 267 141" width="267" height="141">
  <title>08 Massive sandstone</title>
  <path fill="#111111" fill-rule="nonzero" d="
    M239,0h1v1h-1z M94,1h2v1h-2z M115,1h3v1h-3z M119,1h2v1h-2z M123,1h2v1h-2z M127,1h17v1h-17z M146,1h6v1h-6z M154,1h111v1h-111z M3,2h264v1h-264z M1,3h266v2h-266z M0,5h218v1h-218z M219,5h7v1h-7z M228,5h11v1h-11z M241,5h1v1h-1z M249,5h2v1h-2z M257,5h3v1h-3z M261,5h6v1h-6z M0,6h29v1h-29z M38,6h5v1h-5z M46,6h11v1h-11z M59,6h4v1h-4z M85,6h5v1h-5z M151,6h5v1h-5z M228,6h3v1h-3z M19,7h7v1h-7z M49,7h5v1h-5z M86,7h4v1h-4z M262,6h5v2h-5z M49,8h6v1h-6z M151,7h6v2h-6z M191,8h4v1h-4z M20,8h5v2h-5z M49,9h5v1h-5z M123,6h5v4h-5z M151,9h5v1h-5z M227,7h5v3h-5z M20,10h4v1h-4z M50,10h4v1h-4z M85,8h6v3h-6z M124,10h4v1h-4z M152,10h3v1h-3z M173,10h3v1h-3z M210,10h4v1h-4z M228,10h4v1h-4z M263,8h4v3h-4z M51,11h1v1h-1z M86,11h4v1h-4z M125,11h2v1h-2z M190,9h5v3h-5z M249,11h3v1h-3z M262,11h5v1h-5z M0,7h5v6h-5z M192,12h3v1h-3z M210,11h5v2h-5z M249,12h4v1h-4z M172,11h5v3h-5z M193,13h1v1h-1z M210,13h4v1h-4z M263,12h4v2h-4z M11,14h4v1h-4z M69,14h3v1h-3z M173,14h4v1h-4z M211,14h2v1h-2z M248,13h5v2h-5z M0,13h4v3h-4z M28,15h4v1h-4z M104,15h2v1h-2z M137,15h3v1h-3z M174,15h2v1h-2z M249,15h3v1h-3z M262,14h5v2h-5z M69,15h4v2h-4z M263,16h4v1h-4z M0,16h5v2h-5z M10,15h6v3h-6z M69,17h5v1h-5z M262,17h5v1h-5z M10,18h5v1h-5z M27,16h5v3h-5z M69,18h4v1h-4z M102,16h5v3h-5z M232,18h4v1h-4z M11,19h2v1h-2z M28,19h3v1h-3z M70,19h2v1h-2z M103,19h3v1h-3z M120,19h4v1h-4z M136,16h5v4h-5z M0,18h4v3h-4z M52,20h3v1h-3z M138,20h1v1h-1z M156,19h4v2h-4z M189,20h3v1h-3z M231,19h6v2h-6z M263,18h4v3h-4z M86,21h1v1h-1z M119,20h6v2h-6z M155,21h6v1h-6z M206,21h2v1h-2z M231,21h5v1h-5z M120,22h4v1h-4z M155,22h5v1h-5z M205,22h4v1h-4z M51,21h5v3h-5z M156,23h4v1h-4z M173,23h2v1h-2z M188,21h5v3h-5z M205,23h5v1h-5z M52,24h3v1h-3z M173,24h3v1h-3z M188,24h4v1h-4z M85,22h4v4h-4z M205,24h4v2h-4z M86,26h3v1h-3z M206,26h1v1h-1z M172,25h5v3h-5z M101,28h2v1h-2z M173,28h3v1h-3z M247,28h2v1h-2z M74,29h2v1h-2z M100,29h4v1h-4z M137,29h4v1h-4z M174,29h1v1h-1z M246,29h4v1h-4z M16,30h5v1h-5z M34,29h4v2h-4z M73,30h4v1h-4z M136,30h5v1h-5z M33,31h6v1h-6z M246,30h5v2h-5z M34,32h5v1h-5z M73,31h5v2h-5z M100,30h5v3h-5z M137,31h4v2h-4z M246,32h4v1h-4z M15,31h6v3h-6z M35,33h3v1h-3z M73,33h4v1h-4z M100,33h4v1h-4z M138,33h1v1h-1z M155,33h3v1h-3z M192,33h3v1h-3z M16,34h4v1h-4z M74,34h3v1h-3z M100,34h3v1h-3z M230,34h3v1h-3z M54,35h2v1h-2z M122,35h3v1h-3z M210,35h3v1h-3z M53,36h4v1h-4z M154,34h5v3h-5z M191,34h5v3h-5z M52,37h5v1h-5z M155,37h3v1h-3z M172,37h4v1h-4z M192,37h3v1h-3z M229,35h5v3h-5z M0,21h5v18h-5z M53,38h5v1h-5z M121,36h5v3h-5z M209,36h5v3h-5z M230,38h4v1h-4z M54,39h3v1h-3z M122,39h4v1h-4z M209,39h4v1h-4z M262,21h5v19h-5z M171,38h5v3h-5z M263,40h4v1h-4z M172,41h3v1h-3z M0,39h4v5h-4z M24,44h4v1h-4z M77,44h5v1h-5z M142,44h3v1h-3z M76,45h7v1h-7z M96,45h3v1h-3z M141,45h4v1h-4z M252,46h4v1h-4z M24,45h5v3h-5z M77,46h6v2h-6z M141,46h5v2h-5z M25,48h3v1h-3z M78,48h4v1h-4z M112,48h4v1h-4z M130,48h2v1h-2z M143,48h1v1h-1z M160,48h2v1h-2z M195,48h4v1h-4z M251,47h6v2h-6z M44,49h1v1h-1z M79,49h2v1h-2z M95,46h5v4h-5z M216,49h3v1h-3z M236,49h3v1h-3z M252,49h5v1h-5z M97,50h1v1h-1z M111,49h6v2h-6z M195,49h5v2h-5z M252,50h4v1h-4z M0,44h5v8h-5z M112,51h4v1h-4z M129,49h4v3h-4z M195,51h4v1h-4z M235,50h5v2h-5z M113,52h3v1h-3z M129,52h3v1h-3z M159,49h5v4h-5z M177,52h4v1h-4z M215,50h5v3h-5z M41,50h5v4h-5z M62,53h3v1h-3z M160,53h3v1h-3z M216,53h3v1h-3z M236,52h4v2h-4z M42,54h3v1h-3z M61,54h5v1h-5z M12,52h5v4h-5z M61,55h6v1h-6z M177,53h5v3h-5z M13,56h3v1h-3z M61,56h5v1h-5z M140,56h1v1h-1z M178,56h3v1h-3z M61,57h4v1h-4z M62,58h2v1h-2z M106,59h1v1h-1z M88,60h4v1h-4z M139,57h4v4h-4z M0,52h4v10h-4z M124,61h3v1h-3z M140,61h3v1h-3z M152,61h2v1h-2z M203,61h6v1h-6z M32,62h1v1h-1z M75,62h3v1h-3z M88,61h5v2h-5z M104,60h5v3h-5z M123,62h5v1h-5z M0,62h5v2h-5z M88,63h4v1h-4z M104,63h4v1h-4z M30,63h5v2h-5z M89,64h2v1h-2z M123,63h6v2h-6z M151,62h5v3h-5z M205,62h4v3h-4z M226,64h4v1h-4z M249,64h3v1h-3z M30,65h6v1h-6z M74,63h5v3h-5z M124,65h4v1h-4z M152,65h4v1h-4z M184,65h4v1h-4z M30,66h5v1h-5z M75,66h4v1h-4z M125,66h2v1h-2z M31,67h4v1h-4z M184,66h5v2h-5z M225,65h5v3h-5z M248,65h5v3h-5z M12,68h4v1h-4z M53,68h1v1h-1z M184,68h4v1h-4z M226,68h4v1h-4z M52,69h4v1h-4z M185,69h2v1h-2z M51,70h6v1h-6z M140,70h2v1h-2z M262,41h5v30h-5z M12,69h5v3h-5z M52,71h5v1h-5z M165,70h4v2h-4z M263,71h4v1h-4z M0,64h4v9h-4z M13,72h3v1h-3z M52,72h4v1h-4z M96,72h4v1h-4z M53,73h3v1h-3z M139,71h5v3h-5z M165,72h5v2h-5z M140,74h4v1h-4z M165,74h4v1h-4z M95,73h6v3h-6z M116,75h5v1h-5z M141,75h1v1h-1z M167,75h1v1h-1z M197,75h3v1h-3z M96,76h4v1h-4z M214,76h1v1h-1z M24,77h2v1h-2z M36,77h4v1h-4z M213,77h4v1h-4z M0,73h5v6h-5z M75,78h4v1h-4z M115,76h6v3h-6z M196,76h5v3h-5z M234,78h4v1h-4z M22,78h5v2h-5z M116,79h4v1h-4z M182,79h4v1h-4z M197,79h4v1h-4z M212,78h5v2h-5z M234,79h5v1h-5z M22,80h6v1h-6z M36,78h5v3h-5z M117,80h2v1h-2z M181,80h6v1h-6z M213,80h4v1h-4z M22,81h5v1h-5z M37,81h3v1h-3z M75,79h5v3h-5z M148,80h3v2h-3z M213,81h3v1h-3z M233,80h6v2h-6z M24,82h1v1h-1z M55,82h4v1h-4z M182,81h5v2h-5z M234,82h4v1h-4z M0,79h4v5h-4z M54,83h5v1h-5z M183,83h3v1h-3z M12,84h2v1h-2z M54,84h6v1h-6z M147,82h5v3h-5z M255,84h3v1h-3z M11,85h4v1h-4z M55,85h4v1h-4z M149,85h1v1h-1z M56,86h3v1h-3z M112,86h1v1h-1z M165,86h1v1h-1z M254,85h5v2h-5z M89,87h4v1h-4z M110,87h4v1h-4z M163,87h4v1h-4z M255,87h4v1h-4z M262,72h5v16h-5z M10,86h6v3h-6z M89,88h5v1h-5z M255,88h3v1h-3z M11,89h4v1h-4z M30,89h3v1h-3z M67,89h4v1h-4z M67,90h5v1h-5z M88,89h6v2h-6z M109,88h6v3h-6z M130,90h3v1h-3z M163,88h5v3h-5z M66,91h6v1h-6z M89,91h5v1h-5z M110,91h4v1h-4z M164,91h3v1h-3z M29,90h5v3h-5z M49,92h1v1h-1z M67,92h5v1h-5z M200,92h2v1h-2z M29,93h4v1h-4z M68,93h3v1h-3z M129,91h5v3h-5z M199,93h4v1h-4z M220,93h4v1h-4z M130,94h3v1h-3z M182,94h4v1h-4z M47,93h5v3h-5z M198,94h6v2h-6z M47,96h6v1h-6z M199,96h4v1h-4z M219,94h5v3h-5z M243,96h2v1h-2z M48,97h4v1h-4z M181,95h6v3h-6z M200,97h2v1h-2z M220,97h4v1h-4z M242,97h4v1h-4z M48,98h2v1h-2z M101,98h1v1h-1z M182,98h4v1h-4z M242,98h5v1h-5z M19,98h4v2h-4z M242,99h4v1h-4z M243,100h2v1h-2z M19,100h5v2h-5z M149,97h4v5h-4z M19,102h4v1h-4z M99,99h5v4h-5z M137,102h2v1h-2z M65,103h3v1h-3z M84,103h2v1h-2z M100,103h3v1h-3z M118,103h3v1h-3z M136,103h4v1h-4z M64,104h5v1h-5z M82,104h5v1h-5z M166,104h4v1h-4z M135,104h5v2h-5z M166,105h5v1h-5z M36,106h4v1h-4z M64,105h6v2h-6z M82,105h6v2h-6z M116,104h5v3h-5z M136,106h4v1h-4z M165,106h6v1h-6z M263,88h4v19h-4z M10,107h3v1h-3z M35,107h5v1h-5z M65,107h4v1h-4z M82,107h5v1h-5z M118,107h2v1h-2z M136,107h3v1h-3z M166,107h5v1h-5z M208,107h2v1h-2z M35,108h6v1h-6z M84,108h1v1h-1z M207,108h4v1h-4z M9,108h6v2h-6z M36,109h4v1h-4z M206,109h6v1h-6z M253,109h1v1h-1z M262,107h5v3h-5z M10,110h5v1h-5z M37,110h2v1h-2z M206,110h5v1h-5z M10,111h4v1h-4z M207,111h4v1h-4z M229,111h4v1h-4z M185,112h4v1h-4z M208,112h1v1h-1z M251,110h4v3h-4z M252,113h2v1h-2z M54,114h2v1h-2z M229,112h5v3h-5z M93,115h4v1h-4z M230,115h3v1h-3z M71,115h4v2h-4z M185,113h5v4h-5z M27,117h4v1h-4z M52,115h5v3h-5z M70,117h5v1h-5z M186,117h1v1h-1z M53,118h4v1h-4z M71,118h4v1h-4z M93,116h5v3h-5z M115,118h4v1h-4z M157,118h4v1h-4z M54,119h2v1h-2z M72,119h2v1h-2z M94,119h3v1h-3z M135,116h5v4h-5z M26,118h6v3h-6z M137,120h1v1h-1z M156,119h5v2h-5z M27,121h4v1h-4z M114,119h6v3h-6z M157,121h4v1h-4z M115,122h3v1h-3z M157,122h3v1h-3z M210,124h4v1h-4z M263,110h4v15h-4z M254,125h3v1h-3z M0,84h5v43h-5z M11,126h3v1h-3z M62,126h3v1h-3z M83,126h3v1h-3z M210,125h5v2h-5z M253,126h4v1h-4z M10,127h5v1h-5z M40,127h4v1h-4z M83,127h4v1h-4z M175,127h2v1h-2z M210,127h4v1h-4z M235,127h3v1h-3z M82,128h5v1h-5z M174,128h5v1h-5z M212,128h1v1h-1z M234,128h4v1h-4z M253,127h5v2h-5z M262,125h5v4h-5z M10,128h6v2h-6z M39,128h6v2h-6z M61,127h4v3h-4z M103,129h4v1h-4z M147,129h2v1h-2z M174,129h6v1h-6z M196,129h1v1h-1z M255,129h3v1h-3z M10,130h5v1h-5z M40,130h5v1h-5z M62,130h3v1h-3z M83,129h4v2h-4z M125,129h4v2h-4z M146,130h5v1h-5z M194,130h4v1h-4z M234,129h5v2h-5z M40,131h4v1h-4z M84,131h2v1h-2z M102,130h6v2h-6z M174,130h5v2h-5z M235,131h3v1h-3z M263,129h4v3h-4z M103,132h4v1h-4z M125,131h5v2h-5z M145,131h6v2h-6z M194,131h5v2h-5z M126,133h2v1h-2z M146,133h4v1h-4z M194,133h4v1h-4z M1,127h4v8h-4z M194,134h3v1h-3z M262,132h5v3h-5z M1,135h5v1h-5z M8,135h9v1h-9z M35,135h5v1h-5z M47,135h1v1h-1z M49,135h4v1h-4z M81,135h43v1h-43z M125,135h19v1h-19z M145,135h122v1h-122z M1,136h266v2h-266z M1,138h265v1h-265z M2,139h112v1h-112z M115,139h1v1h-1z M118,139h2v1h-2z M121,139h66v1h-66z M191,139h8v1h-8z M202,139h1v1h-1z M204,139h5v1h-5z M214,139h4v1h-4z M219,139h15v1h-15z M235,139h4v1h-4z M241,139h8v1h-8z M252,139h8v1h-8z M262,139h2v1h-2z M4,140h4v1h-4z M38,140h1v1h-1z M48,140h1v1h-1z
  "/>
</svg>