<?xml version="1.0" encoding="UTF-8"?>
<svg xmlns="http://www.w3.org/2000/svg" viewBox="0 0 269 138" width="269" height="138">
  <title>49 Contorted schist</title>
  <path fill="#111111" fill-rule="nonzero" d="
    M2,0h5v1h-5z M12,0h4v1h-4z M17,0h8v1h-8z M30,0h2v1h-2z M37,0h3v1h-3z M43,0h1v1h-1z M45,0h2v1h-2z M56,0h1v1h-1z M68,0h4v1h-4z M87,0h1v1h-1z M90,0h2v1h-2z M1,1h266v3h-266z M12,4h7v1h-7z M20,4h2v1h-2z M30,4h2v1h-2z M36,4h21v1h-21z M58,4h2v1h-2z M62,4h2v1h-2z M66,4h4v1h-4z M71,4h20v1h-20z M95,4h49v1h-49z M145,4h22v1h-22z M171,4h27v1h-27z M199,4h69v1h-69z M1,4h10v2h-10z M13,5h6v1h-6z M38,5h6v1h-6z M46,5h11v1h-11z M66,5h3v1h-3z M74,5h6v1h-6z M81,5h9v1h-9z M96,5h11v1h-11z M108,5h7v1h-7z M119,5h10v1h-10z M133,5h10v1h-10z M155,5h5v1h-5z M180,5h4v1h-4z M188,5h9v1h-9z M202,5h7v1h-7z M210,5h21v1h-21z M235,5h4v1h-4z M241,5h14v1h-14z M257,5h11v1h-11z M1,6h11v1h-11z M14,6h6v1h-6z M39,6h6v1h-6z M46,6h12v1h-12z M66,6h4v1h-4z M75,6h5v1h-5z M82,6h9v1h-9z M100,6h7v1h-7z M110,6h5v1h-5z M120,6h9v1h-9z M134,6h4v1h-4z M139,6h4v1h-4z M171,5h4v2h-4z M190,6h8v1h-8z M204,6h6v1h-6z M211,6h21v1h-21z M242,6h13v1h-13z M258,6h9v1h-9z M1,7h21v1h-21z M40,7h20v1h-20z M66,7h6v1h-6z M76,7h18v1h-18z M103,7h5v1h-5z M111,7h4v1h-4z M126,7h4v1h-4z M134,7h9v1h-9z M162,5h4v3h-4z M171,7h3v1h-3z M181,6h3v2h-3z M193,7h6v1h-6z M205,7h5v1h-5z M212,7h20v1h-20z M236,6h4v2h-4z M1,8h23v1h-23z M42,8h22v1h-22z M66,8h9v1h-9z M76,8h19v1h-19z M104,8h5v1h-5z M112,8h3v1h-3z M127,8h3v1h-3z M139,8h4v1h-4z M156,6h4v3h-4z M161,8h4v1h-4z M170,8h4v1h-4z M182,8h3v1h-3z M195,8h5v1h-5z M206,8h5v1h-5z M213,8h10v1h-10z M224,8h9v1h-9z M1,9h25v1h-25z M43,9h45v1h-45z M90,9h6v1h-6z M105,9h4v1h-4z M113,9h3v1h-3z M140,9h3v1h-3z M155,9h10v1h-10z M196,9h4v1h-4z M219,9h4v1h-4z M226,9h8v1h-8z M237,8h4v2h-4z M244,7h7v3h-7z M1,10h27v1h-27z M44,10h46v1h-46z M121,7h4v4h-4z M154,10h11v1h-11z M169,9h4v2h-4z M181,9h4v2h-4z M197,10h3v1h-3z M227,10h7v1h-7z M245,10h6v1h-6z M252,7h4v4h-4z M259,7h8v4h-8z M1,11h11v1h-11z M14,11h6v1h-6z M22,11h8v1h-8z M52,11h8v1h-8z M62,11h19v1h-19z M85,11h5v1h-5z M93,10h4v2h-4z M106,10h4v2h-4z M112,10h4v2h-4z M134,8h4v4h-4z M154,11h10v1h-10z M168,11h4v1h-4z M180,11h5v1h-5z M196,11h4v1h-4z M207,9h4v3h-4z M214,9h4v3h-4z M220,10h3v2h-3z M228,11h7v1h-7z M238,10h4v2h-4z M245,11h11v1h-11z M258,11h9v1h-9z M1,12h4v1h-4z M7,12h6v1h-6z M15,12h7v1h-7z M25,12h6v1h-6z M45,11h5v2h-5z M53,12h8v1h-8z M67,12h6v1h-6z M76,12h6v1h-6z M86,12h5v1h-5z M94,12h4v1h-4z M105,12h5v1h-5z M112,12h3v1h-3z M120,11h5v2h-5z M134,12h3v1h-3z M153,12h11v1h-11z M167,12h5v1h-5z M178,12h6v1h-6z M194,12h6v1h-6z M213,12h5v1h-5z M220,12h4v1h-4z M239,12h3v1h-3z M9,13h5v1h-5z M16,13h6v1h-6z M26,13h6v1h-6z M56,13h5v1h-5z M95,13h3v1h-3z M104,13h5v1h-5z M111,13h4v1h-4z M119,13h5v1h-5z M139,10h4v4h-4z M152,13h11v1h-11z M166,13h5v1h-5z M177,13h6v1h-6z M190,13h9v1h-9z M206,12h4v2h-4z M213,13h4v1h-4z M219,13h4v1h-4z M229,12h6v2h-6z M1,13h5v2h-5z M10,14h5v1h-5z M18,14h5v1h-5z M28,14h4v1h-4z M57,14h5v1h-5z M95,14h4v1h-4z M103,14h11v1h-11z M118,14h6v1h-6z M133,13h4v2h-4z M138,14h5v1h-5z M151,14h11v1h-11z M166,14h4v1h-4z M176,14h6v1h-6z M186,14h1v1h-1z M188,14h9v1h-9z M205,14h4v1h-4z M212,14h11v1h-11z M245,12h23v3h-23z M1,15h7v1h-7z M11,15h6v1h-6z M18,15h6v1h-6z M46,13h4v3h-4z M58,15h4v1h-4z M78,13h5v3h-5z M87,13h4v3h-4z M94,15h5v1h-5z M102,15h12v1h-12z M117,15h6v1h-6z M127,9h4v7h-4z M133,15h3v1h-3z M150,15h11v1h-11z M164,15h4v1h-4z M174,15h7v1h-7z M185,15h10v1h-10z M204,15h5v1h-5z M229,14h7v2h-7z M239,13h4v3h-4z M245,15h22v1h-22z M1,16h8v1h-8z M12,16h7v1h-7z M20,16h5v1h-5z M29,15h4v2h-4z M45,16h5v1h-5z M57,16h6v1h-6z M69,13h4v4h-4z M76,16h7v1h-7z M86,16h5v1h-5z M93,16h5v1h-5z M102,16h11v1h-11z M116,16h6v1h-6z M126,16h4v1h-4z M138,15h4v2h-4z M148,16h13v1h-13z M163,16h5v1h-5z M172,16h7v1h-7z M184,16h6v1h-6z M204,16h4v1h-4z M212,15h10v2h-10z M228,16h8v1h-8z M244,16h23v1h-23z M1,17h10v1h-10z M14,17h11v1h-11z M44,17h5v1h-5z M57,17h5v1h-5z M68,17h5v1h-5z M74,17h9v1h-9z M85,17h13v1h-13z M102,17h10v1h-10z M115,17h6v1h-6z M125,17h4v1h-4z M131,16h5v2h-5z M137,17h4v1h-4z M147,17h20v1h-20z M170,17h6v1h-6z M183,17h4v1h-4z M202,17h5v1h-5z M211,17h9v1h-9z M227,17h9v1h-9z M239,16h3v2h-3z M244,17h15v1h-15z M260,17h7v1h-7z M1,18h4v1h-4z M6,18h7v1h-7z M15,18h11v1h-11z M42,18h7v1h-7z M56,18h6v1h-6z M66,18h14v1h-14z M83,18h17v1h-17z M102,18h9v1h-9z M113,18h7v1h-7z M124,18h11v1h-11z M136,18h4v1h-4z M145,18h21v1h-21z M169,18h6v1h-6z M181,18h5v1h-5z M200,18h6v1h-6z M210,18h10v1h-10z M224,18h11v1h-11z M238,18h4v1h-4z M244,18h6v1h-6z M7,19h6v1h-6z M16,19h10v1h-10z M30,17h3v3h-3z M41,19h6v1h-6z M51,19h2v1h-2z M56,19h5v1h-5z M64,19h14v1h-14z M81,19h28v1h-28z M111,19h8v1h-8z M123,19h5v1h-5z M129,19h5v1h-5z M135,19h4v1h-4z M144,19h21v1h-21z M167,19h5v1h-5z M181,19h4v1h-4z M199,19h6v1h-6z M210,19h9v1h-9z M223,19h11v1h-11z M238,19h3v1h-3z M251,18h8v2h-8z M261,18h7v2h-7z M9,20h5v1h-5z M41,20h5v1h-5z M49,20h5v1h-5z M63,20h13v1h-13z M80,20h28v1h-28z M110,20h8v1h-8z M121,20h18v1h-18z M143,20h20v1h-20z M166,20h5v1h-5z M195,20h8v1h-8z M208,20h11v1h-11z M222,20h12v1h-12z M237,20h4v1h-4z M243,19h7v2h-7z M251,20h17v1h-17z M10,21h4v1h-4z M41,21h4v1h-4z M48,21h6v1h-6z M59,21h1v1h-1z M61,21h7v1h-7z M70,21h5v1h-5z M79,21h27v1h-27z M108,21h10v1h-10z M120,21h18v1h-18z M142,21h19v1h-19z M165,21h5v1h-5z M181,20h3v2h-3z M193,21h8v1h-8z M206,21h8v1h-8z M222,21h10v1h-10z M236,21h4v1h-4z M252,21h3v1h-3z M256,21h12v1h-12z M10,22h5v1h-5z M31,20h3v3h-3z M47,22h6v1h-6z M58,22h9v1h-9z M70,22h4v1h-4z M78,22h27v1h-27z M107,22h24v1h-24z M132,22h5v1h-5z M140,22h20v1h-20z M164,22h4v1h-4z M191,22h9v1h-9z M203,22h9v1h-9z M215,21h4v2h-4z M221,22h9v1h-9z M235,22h4v1h-4z M243,21h6v2h-6z M257,22h11v1h-11z M10,23h4v1h-4z M18,20h8v4h-8z M46,23h6v1h-6z M55,23h10v1h-10z M69,23h5v1h-5z M77,23h25v1h-25z M105,23h25v1h-25z M133,23h4v1h-4z M139,23h19v1h-19z M163,23h4v1h-4z M180,22h4v2h-4z M189,23h22v1h-22z M214,23h5v1h-5z M234,23h4v1h-4z M1,19h3v6h-3z M9,24h5v1h-5z M17,24h9v1h-9z M30,23h4v2h-4z M40,22h4v3h-4z M45,24h5v1h-5z M54,24h9v1h-9z M67,24h6v1h-6z M77,24h24v1h-24z M103,24h26v1h-26z M138,24h12v1h-12z M179,24h5v1h-5z M187,24h24v1h-24z M212,24h7v1h-7z M220,23h8v2h-8z M233,24h5v1h-5z M242,23h7v2h-7z M255,24h1v1h-1z M263,23h5v2h-5z M1,25h4v1h-4z M7,25h6v1h-6z M16,25h10v1h-10z M52,25h8v1h-8z M65,25h7v1h-7z M78,25h19v1h-19z M102,25h9v1h-9z M112,25h18v1h-18z M137,25h6v1h-6z M144,25h5v1h-5z M152,24h5v2h-5z M162,24h4v2h-4z M178,25h5v1h-5z M186,25h32v1h-32z M233,25h4v1h-4z M254,25h4v1h-4z M1,26h11v1h-11z M14,26h12v1h-12z M30,25h3v2h-3z M52,26h6v1h-6z M64,26h7v1h-7z M74,26h2v1h-2z M77,26h18v1h-18z M100,26h10v1h-10z M111,26h15v1h-15z M127,26h4v1h-4z M137,26h11v1h-11z M151,26h5v1h-5z M162,26h3v1h-3z M178,26h4v1h-4z M185,26h32v1h-32z M233,26h3v1h-3z M242,25h8v2h-8z M255,26h4v1h-4z M1,27h10v1h-10z M13,27h12v1h-12z M30,27h2v1h-2z M40,25h9v3h-9z M51,27h5v1h-5z M62,27h8v1h-8z M72,27h23v1h-23z M100,27h31v1h-31z M136,27h11v1h-11z M161,27h4v1h-4z M176,27h5v1h-5z M184,27h15v1h-15z M201,27h15v1h-15z M220,25h7v3h-7z M232,27h4v1h-4z M242,27h9v1h-9z M256,27h6v1h-6z M264,25h4v3h-4z M1,28h7v1h-7z M11,28h14v1h-14z M39,28h10v1h-10z M51,28h4v1h-4z M61,28h7v1h-7z M71,28h22v1h-22z M98,28h32v1h-32z M161,28h5v1h-5z M176,28h4v1h-4z M183,28h5v1h-5z M189,28h7v1h-7z M202,28h8v1h-8z M212,28h1v1h-1z M220,28h8v1h-8z M233,28h3v1h-3z M243,28h8v1h-8z M257,28h11v1h-11z M1,29h6v1h-6z M11,29h11v1h-11z M38,29h11v1h-11z M50,29h4v1h-4z M60,29h6v1h-6z M70,29h22v1h-22z M97,29h32v1h-32z M151,27h4v3h-4z M162,29h4v1h-4z M183,29h4v1h-4z M189,29h6v1h-6z M201,29h7v1h-7z M221,29h7v1h-7z M233,29h4v1h-4z M243,29h10v1h-10z M258,29h10v1h-10z M1,30h5v1h-5z M10,30h11v1h-11z M37,30h6v1h-6z M44,30h10v1h-10z M59,30h6v1h-6z M69,30h22v1h-22z M95,30h32v1h-32z M151,30h5v1h-5z M162,30h5v1h-5z M175,29h4v2h-4z M189,30h5v1h-5z M200,30h6v1h-6z M221,30h8v1h-8z M234,30h4v1h-4z M243,30h13v1h-13z M260,30h7v1h-7z M10,31h5v1h-5z M16,31h4v1h-4z M25,31h3v1h-3z M37,31h5v1h-5z M44,31h4v1h-4z M49,31h4v1h-4z M58,31h5v1h-5z M68,31h5v1h-5z M74,31h16v1h-16z M94,31h16v1h-16z M136,28h10v4h-10z M152,31h5v1h-5z M163,31h6v1h-6z M189,31h4v1h-4z M199,31h14v1h-14z M222,31h7v1h-7z M234,31h5v1h-5z M244,31h14v1h-14z M261,31h7v1h-7z M9,32h5v1h-5z M24,32h4v1h-4z M37,32h4v1h-4z M42,32h6v1h-6z M57,32h5v1h-5z M67,32h6v1h-6z M74,32h15v1h-15z M94,32h14v1h-14z M119,31h7v2h-7z M137,32h11v1h-11z M153,32h6v1h-6z M166,32h5v1h-5z M182,30h4v3h-4z M189,32h5v1h-5z M199,32h18v1h-18z M222,32h8v1h-8z M235,32h6v1h-6z M245,32h15v1h-15z M262,32h6v1h-6z M9,33h4v1h-4z M15,32h4v2h-4z M23,33h4v1h-4z M38,33h1v1h-1z M42,33h5v1h-5z M56,33h5v1h-5z M74,33h14v1h-14z M93,33h13v1h-13z M111,31h5v3h-5z M120,33h9v1h-9z M137,33h12v1h-12z M153,33h8v1h-8z M167,33h4v1h-4z M175,31h3v3h-3z M182,33h5v1h-5z M190,33h5v1h-5z M201,33h17v1h-17z M222,33h10v1h-10z M237,33h5v1h-5z M246,33h22v1h-22z M8,34h4v1h-4z M49,32h3v3h-3z M56,34h4v1h-4z M66,33h5v2h-5z M74,34h3v1h-3z M79,34h9v1h-9z M92,34h6v1h-6z M99,34h5v1h-5z M112,34h6v1h-6z M119,34h12v1h-12z M138,34h12v1h-12z M155,34h10v1h-10z M168,34h3v1h-3z M175,34h4v1h-4z M183,34h4v1h-4z M190,34h8v1h-8z M201,34h19v1h-19z M223,34h10v1h-10z M238,34h5v1h-5z M247,34h21v1h-21z M7,35h5v1h-5z M14,34h4v2h-4z M22,34h4v2h-4z M32,35h4v1h-4z M41,34h5v2h-5z M55,35h5v1h-5z M65,35h5v1h-5z M75,35h1v1h-1z M80,35h7v1h-7z M112,35h21v1h-21z M140,35h4v1h-4z M146,35h4v1h-4z M157,35h13v1h-13z M176,35h3v1h-3z M183,35h5v1h-5z M191,35h29v1h-29z M223,35h12v1h-12z M239,35h5v1h-5z M248,35h20v1h-20z M21,36h4v1h-4z M30,36h6v1h-6z M41,36h4v1h-4z M64,36h5v1h-5z M81,36h5v1h-5z M92,35h5v2h-5z M98,35h5v2h-5z M114,36h21v1h-21z M147,36h3v1h-3z M154,36h17v1h-17z M176,36h5v1h-5z M184,36h6v1h-6z M191,36h24v1h-24z M216,36h5v1h-5z M224,36h13v1h-13z M241,36h3v1h-3z M250,36h17v1h-17z M1,31h4v7h-4z M21,37h3v1h-3z M29,37h6v1h-6z M36,37h1v1h-1z M48,35h4v3h-4z M55,36h4v2h-4z M63,37h6v1h-6z M92,37h4v1h-4z M99,37h9v1h-9z M118,37h17v1h-17z M146,37h4v1h-4z M153,37h19v1h-19z M178,37h4v1h-4z M184,37h32v1h-32z M217,37h5v1h-5z M225,37h14v1h-14z M243,37h1v1h-1z M253,37h14v1h-14z M29,38h9v1h-9z M46,38h6v1h-6z M54,38h4v1h-4z M63,38h5v1h-5z M70,38h2v1h-2z M92,38h5v1h-5z M100,38h10v1h-10z M121,38h9v1h-9z M132,38h3v1h-3z M146,38h5v1h-5z M154,38h21v1h-21z M178,38h6v1h-6z M185,38h32v1h-32z M218,38h5v1h-5z M226,38h14v1h-14z M255,38h13v1h-13z M1,38h5v2h-5z M7,36h4v4h-4z M13,39h3v1h-3z M20,38h4v2h-4z M28,39h10v1h-10z M45,39h6v1h-6z M53,39h5v1h-5z M62,39h5v1h-5z M69,39h3v1h-3z M77,39h2v1h-2z M81,37h4v3h-4z M92,39h6v1h-6z M100,39h11v1h-11z M124,39h7v1h-7z M133,39h2v1h-2z M146,39h20v1h-20z M168,39h8v1h-8z M180,39h29v1h-29z M211,39h6v1h-6z M219,39h6v1h-6z M227,39h14v1h-14z M257,39h11v1h-11z M20,40h3v1h-3z M27,40h11v1h-11z M43,40h7v1h-7z M76,40h3v1h-3z M108,40h1v1h-1z M116,40h1v1h-1z M126,40h6v1h-6z M147,40h20v1h-20z M171,40h7v1h-7z M181,40h28v1h-28z M213,40h5v1h-5z M230,40h12v1h-12z M251,40h2v1h-2z M259,40h9v1h-9z M1,40h10v2h-10z M26,41h11v1h-11z M41,41h7v1h-7z M62,40h4v2h-4z M68,40h4v2h-4z M93,40h10v2h-10z M115,41h5v1h-5z M127,41h6v1h-6z M148,41h22v1h-22z M173,41h6v1h-6z M183,41h6v1h-6z M192,41h18v1h-18z M214,41h5v1h-5z M220,40h6v2h-6z M231,41h12v1h-12z M250,41h3v1h-3z M259,41h8v1h-8z M1,42h11v1h-11z M13,40h4v3h-4z M25,42h11v1h-11z M40,42h6v1h-6z M53,40h4v3h-4z M61,42h5v1h-5z M67,42h4v1h-4z M81,40h3v3h-3z M95,42h9v1h-9z M108,42h2v1h-2z M116,42h5v1h-5z M128,42h6v1h-6z M139,42h3v1h-3z M149,42h23v1h-23z M174,42h7v1h-7z M187,42h1v1h-1z M193,42h19v1h-19z M214,42h11v1h-11z M231,42h13v1h-13z M250,42h4v1h-4z M260,42h8v1h-8z M25,43h5v1h-5z M31,43h5v1h-5z M39,43h6v1h-6z M54,43h2v1h-2z M97,43h7v1h-7z M107,43h5v1h-5z M116,43h7v1h-7z M130,43h5v1h-5z M139,43h4v1h-4z M151,43h22v1h-22z M176,43h5v1h-5z M193,43h5v1h-5z M207,43h18v1h-18z M230,43h15v1h-15z M251,43h4v1h-4z M1,43h16v2h-16z M31,44h4v1h-4z M39,44h4v1h-4z M76,41h4v4h-4z M100,44h2v1h-2z M107,44h7v1h-7z M117,44h7v1h-7z M131,44h5v1h-5z M139,44h5v1h-5z M148,44h3v1h-3z M153,44h21v1h-21z M178,44h4v1h-4z M194,44h5v1h-5z M208,44h18v1h-18z M241,44h5v1h-5z M1,45h17v1h-17z M19,41h4v5h-4z M31,45h3v1h-3z M66,43h4v3h-4z M76,45h3v1h-3z M81,43h4v3h-4z M107,45h19v1h-19z M132,45h5v1h-5z M140,45h4v1h-4z M148,45h4v1h-4z M155,45h20v1h-20z M178,45h5v1h-5z M195,45h6v1h-6z M210,45h17v1h-17z M231,44h9v2h-9z M242,45h5v1h-5z M252,44h4v2h-4z M6,46h17v1h-17z M25,44h4v3h-4z M55,46h1v1h-1z M61,43h4v4h-4z M76,46h4v1h-4z M82,46h4v1h-4z M110,46h10v1h-10z M121,46h6v1h-6z M133,46h4v1h-4z M140,46h5v1h-5z M148,46h6v1h-6z M160,46h16v1h-16z M180,46h4v1h-4z M189,46h3v1h-3z M196,46h7v1h-7z M212,46h16v1h-16z M232,46h9v1h-9z M243,46h5v1h-5z M7,47h12v1h-12z M20,47h3v1h-3z M24,47h4v1h-4z M38,45h4v3h-4z M62,47h3v1h-3z M67,46h2v2h-2z M77,47h3v1h-3z M83,47h5v1h-5z M112,47h16v1h-16z M134,47h4v1h-4z M141,47h4v1h-4z M149,47h7v1h-7z M162,47h15v1h-15z M181,47h3v1h-3z M189,47h4v1h-4z M197,47h10v1h-10z M216,47h13v1h-13z M238,47h3v1h-3z M244,47h5v1h-5z M253,46h4v2h-4z M261,43h7v5h-7z M13,48h6v1h-6z M20,48h9v1h-9z M31,46h4v3h-4z M39,48h3v1h-3z M62,48h2v1h-2z M67,48h3v1h-3z M77,48h4v1h-4z M84,48h6v1h-6z M114,48h15v1h-15z M151,48h7v1h-7z M165,48h7v1h-7z M173,48h4v1h-4z M181,48h4v1h-4z M189,48h6v1h-6z M199,48h11v1h-11z M220,48h10v1h-10z M239,48h3v1h-3z M245,48h5v1h-5z M254,48h4v1h-4z M1,46h4v4h-4z M13,49h16v1h-16z M32,49h4v1h-4z M39,49h4v1h-4z M67,49h4v1h-4z M77,49h5v1h-5z M84,49h8v1h-8z M93,49h1v1h-1z M116,49h14v1h-14z M135,48h4v2h-4z M142,48h4v2h-4z M152,49h7v1h-7z M166,49h6v1h-6z M174,49h3v1h-3z M182,49h3v1h-3z M191,49h6v1h-6z M202,49h9v1h-9z M233,47h4v3h-4z M246,49h4v1h-4z M255,49h3v1h-3z M260,48h8v2h-8z M1,50h3v1h-3z M8,48h4v3h-4z M32,50h5v1h-5z M39,50h5v1h-5z M54,47h3v4h-3z M63,50h2v1h-2z M68,50h3v1h-3z M78,50h5v1h-5z M86,50h16v1h-16z M118,50h14v1h-14z M136,50h5v1h-5z M143,50h3v1h-3z M154,50h6v1h-6z M167,50h7v1h-7z M177,50h1v1h-1z M183,50h2v1h-2z M193,50h5v1h-5z M205,50h7v1h-7z M221,49h9v2h-9z M1,51h4v1h-4z M7,51h5v1h-5z M14,50h16v2h-16z M33,51h5v1h-5z M40,51h6v1h-6z M63,51h3v1h-3z M68,51h4v1h-4z M80,51h6v1h-6z M88,51h22v1h-22z M119,51h13v1h-13z M137,51h4v1h-4z M156,51h5v1h-5z M168,51h6v1h-6z M177,51h2v1h-2z M194,51h5v1h-5z M233,50h5v2h-5z M247,50h4v2h-4z M1,52h10v1h-10z M15,52h16v1h-16z M34,52h6v1h-6z M41,52h7v1h-7z M54,51h4v2h-4z M63,52h4v1h-4z M68,52h5v1h-5z M81,52h6v1h-6z M89,52h25v1h-25z M120,52h13v1h-13z M176,52h3v1h-3z M184,52h1v1h-1z M248,52h3v1h-3z M1,53h9v1h-9z M15,53h18v1h-18z M35,53h15v1h-15z M63,53h14v1h-14z M82,53h8v1h-8z M103,53h13v1h-13z M123,53h10v1h-10z M138,52h4v2h-4z M143,51h4v3h-4z M158,52h4v2h-4z M169,52h5v2h-5z M183,53h3v1h-3z M209,51h4v3h-4z M221,51h4v3h-4z M234,52h4v2h-4z M247,53h4v1h-4z M255,50h13v4h-13z M1,54h7v1h-7z M15,54h19v1h-19z M36,54h8v1h-8z M45,54h7v1h-7z M55,53h4v2h-4z M64,54h15v1h-15z M83,54h8v1h-8z M93,54h1v1h-1z M110,54h8v1h-8z M124,54h9v1h-9z M208,54h5v1h-5z M220,54h5v1h-5z M227,51h4v4h-4z M233,54h5v1h-5z M239,49h4v6h-4z M246,54h5v1h-5z M254,54h14v1h-14z M14,55h14v1h-14z M29,55h5v1h-5z M37,55h7v1h-7z M47,55h6v1h-6z M56,55h5v1h-5z M65,55h16v1h-16z M85,55h12v1h-12z M114,55h5v1h-5z M125,55h7v1h-7z M159,54h3v2h-3z M176,53h4v3h-4z M183,54h4v2h-4z M196,52h4v4h-4z M208,55h4v1h-4z M220,55h4v1h-4z M233,55h4v1h-4z M238,55h5v1h-5z M245,55h6v1h-6z M263,55h5v1h-5z M1,55h6v2h-6z M8,56h15v1h-15z M24,56h4v1h-4z M30,56h5v1h-5z M39,56h7v1h-7z M49,56h5v1h-5z M57,56h5v1h-5z M66,56h32v1h-32z M103,56h7v1h-7z M116,56h4v1h-4z M126,56h6v1h-6z M139,54h3v3h-3z M144,54h3v3h-3z M158,56h4v1h-4z M170,54h4v3h-4z M176,56h3v1h-3z M183,56h3v1h-3z M195,56h4v1h-4z M206,56h6v1h-6z M218,56h6v1h-6z M226,55h4v2h-4z M232,56h5v1h-5z M238,56h12v1h-12z M253,55h8v2h-8z M264,56h4v1h-4z M31,57h5v1h-5z M40,57h6v1h-6z M51,57h4v1h-4z M58,57h6v1h-6z M68,57h29v1h-29z M104,57h8v1h-8z M157,57h4v1h-4z M169,57h5v1h-5z M175,57h4v1h-4z M182,57h4v1h-4z M193,57h5v1h-5z M204,57h6v1h-6z M217,57h6v1h-6z M225,57h5v1h-5z M232,57h17v1h-17z M253,57h15v1h-15z M25,57h4v2h-4z M32,58h4v1h-4z M42,58h5v1h-5z M59,58h6v1h-6z M69,58h10v1h-10z M82,58h13v1h-13z M105,58h7v1h-7z M117,57h4v2h-4z M127,57h8v2h-8z M139,57h8v2h-8z M156,58h5v1h-5z M168,58h5v1h-5z M174,58h5v1h-5z M182,58h3v1h-3z M191,58h6v1h-6z M202,58h6v1h-6z M216,58h6v1h-6z M224,58h22v1h-22z M257,58h11v1h-11z M1,57h22v3h-22z M25,59h3v1h-3z M32,59h5v1h-5z M43,59h4v1h-4z M52,58h4v2h-4z M61,59h6v1h-6z M71,59h8v1h-8z M85,59h10v1h-10z M153,59h6v1h-6z M168,59h10v1h-10z M181,59h4v1h-4z M189,59h5v1h-5z M200,59h7v1h-7z M215,59h30v1h-30z M253,58h3v2h-3z M258,59h10v1h-10z M1,60h20v1h-20z M43,60h5v1h-5z M62,60h7v1h-7z M73,60h7v1h-7z M89,60h8v1h-8z M118,59h3v2h-3z M138,59h9v2h-9z M152,60h7v1h-7z M166,60h6v1h-6z M173,60h4v1h-4z M180,60h5v1h-5z M188,60h6v1h-6z M198,60h7v1h-7z M213,60h32v1h-32z M253,60h4v1h-4z M1,61h19v1h-19z M24,60h4v2h-4z M33,60h4v2h-4z M44,61h4v1h-4z M53,60h3v2h-3z M64,61h5v1h-5z M74,61h7v1h-7z M92,61h6v1h-6z M108,59h5v3h-5z M117,61h4v1h-4z M128,59h8v3h-8z M138,61h8v1h-8z M151,61h7v1h-7z M165,61h12v1h-12z M180,61h4v1h-4z M188,61h5v1h-5z M196,61h8v1h-8z M211,61h16v1h-16z M228,61h16v1h-16z M253,61h5v1h-5z M259,60h9v2h-9z M2,62h9v1h-9z M25,62h2v1h-2z M32,62h5v1h-5z M44,62h3v1h-3z M65,62h5v1h-5z M77,62h5v1h-5z M94,62h4v1h-4z M103,62h10v1h-10z M116,62h5v1h-5z M137,62h9v1h-9z M150,62h6v1h-6z M163,62h13v1h-13z M178,62h5v1h-5z M187,62h4v1h-4z M195,62h7v1h-7z M209,62h35v1h-35z M254,62h8v1h-8z M264,62h4v1h-4z M19,63h3v1h-3z M31,63h6v1h-6z M45,63h2v1h-2z M52,62h4v2h-4z M78,63h4v1h-4z M95,63h4v1h-4z M100,63h11v1h-11z M115,63h5v1h-5z M127,62h9v2h-9z M137,63h8v1h-8z M150,63h4v1h-4z M161,63h14v1h-14z M177,63h5v1h-5z M186,63h4v1h-4z M194,63h7v1h-7z M206,63h37v1h-37z M255,63h13v1h-13z M1,63h9v2h-9z M12,64h10v1h-10z M29,64h7v1h-7z M43,64h1v1h-1z M52,64h3v1h-3z M66,63h4v2h-4z M79,64h4v1h-4z M95,64h15v1h-15z M113,64h7v1h-7z M127,64h18v1h-18z M149,64h5v1h-5z M159,64h22v1h-22z M185,64h5v1h-5z M192,64h7v1h-7z M204,64h27v1h-27z M232,64h18v1h-18z M256,64h12v1h-12z M1,65h20v1h-20z M28,65h7v1h-7z M39,65h6v1h-6z M51,65h4v1h-4z M64,65h6v1h-6z M78,65h5v1h-5z M94,65h25v1h-25z M126,65h9v1h-9z M136,65h8v1h-8z M149,65h4v1h-4z M158,65h22v1h-22z M184,65h5v1h-5z M192,65h5v1h-5z M201,65h21v1h-21z M224,65h6v1h-6z M232,65h3v1h-3z M238,65h14v1h-14z M258,65h10v1h-10z M1,66h21v1h-21z M27,66h7v1h-7z M37,66h8v1h-8z M50,66h5v1h-5z M62,66h7v1h-7z M76,66h7v1h-7z M94,66h9v1h-9z M106,66h11v1h-11z M125,66h19v1h-19z M157,66h21v1h-21z M183,66h5v1h-5z M191,66h5v1h-5z M200,66h19v1h-19z M224,66h11v1h-11z M237,66h17v1h-17z M261,66h1v1h-1z M263,66h5v1h-5z M1,67h10v1h-10z M16,67h9v1h-9z M27,67h18v1h-18z M48,67h6v1h-6z M60,67h9v1h-9z M70,67h12v1h-12z M92,67h11v1h-11z M105,67h10v1h-10z M123,67h20v1h-20z M148,66h4v2h-4z M157,67h20v1h-20z M182,67h5v1h-5z M190,67h5v1h-5z M199,67h18v1h-18z M225,67h21v1h-21z M248,67h6v1h-6z M1,68h9v1h-9z M16,68h10v1h-10z M28,68h15v1h-15z M47,68h6v1h-6z M58,68h23v1h-23z M89,68h8v1h-8z M99,68h3v1h-3z M105,68h7v1h-7z M119,68h23v1h-23z M148,68h3v1h-3z M156,68h19v1h-19z M182,68h4v1h-4z M190,68h4v1h-4z M197,68h18v1h-18z M228,68h18v1h-18z M249,68h7v1h-7z M264,67h4v2h-4z M1,69h6v1h-6z M12,69h40v1h-40z M55,69h10v1h-10z M66,69h14v1h-14z M87,69h8v1h-8z M98,69h5v1h-5z M104,69h6v1h-6z M116,69h23v1h-23z M147,69h4v1h-4z M155,69h20v1h-20z M181,69h5v1h-5z M189,69h4v1h-4z M196,69h17v1h-17z M221,69h2v1h-2z M228,69h19v1h-19z M250,69h8v1h-8z M2,70h4v1h-4z M9,70h42v1h-42z M52,70h9v1h-9z M62,70h2v1h-2z M67,70h13v1h-13z M83,70h1v1h-1z M87,70h7v1h-7z M98,70h10v1h-10z M114,70h24v1h-24z M146,70h5v1h-5z M180,70h4v1h-4z M196,70h15v1h-15z M220,70h4v1h-4z M229,70h19v1h-19z M252,70h8v1h-8z M2,71h58v1h-58z M62,71h3v1h-3z M88,71h5v1h-5z M96,71h11v1h-11z M112,71h25v1h-25z M146,71h4v1h-4z M155,70h21v2h-21z M179,71h5v1h-5z M188,70h4v2h-4z M195,71h14v1h-14z M220,71h5v1h-5z M230,71h20v1h-20z M253,71h9v1h-9z M265,69h3v3h-3z M1,72h57v1h-57z M60,72h5v1h-5z M68,71h17v2h-17z M87,72h20v1h-20z M111,72h27v1h-27z M144,72h5v1h-5z M155,72h20v1h-20z M177,72h6v1h-6z M194,72h5v1h-5z M200,72h7v1h-7z M221,72h30v1h-30z M253,72h15v1h-15z M20,73h35v1h-35z M57,73h8v1h-8z M68,73h38v1h-38z M110,73h29v1h-29z M143,73h5v1h-5z M154,73h13v1h-13z M169,73h5v1h-5z M177,73h5v1h-5z M193,73h5v1h-5z M222,73h46v1h-46z M1,73h18v2h-18z M20,74h20v1h-20z M44,74h8v1h-8z M55,74h9v1h-9z M66,74h15v1h-15z M85,74h20v1h-20z M109,74h29v1h-29z M143,74h4v1h-4z M154,74h6v1h-6z M162,74h5v1h-5z M168,74h5v1h-5z M176,74h5v1h-5z M187,72h4v3h-4z M200,73h4v2h-4z M223,74h12v1h-12z M238,74h1v1h-1z M241,74h27v1h-27z M2,75h37v1h-37z M44,75h6v1h-6z M54,75h27v1h-27z M85,75h19v1h-19z M108,75h29v1h-29z M144,75h3v1h-3z M153,75h7v1h-7z M161,75h5v1h-5z M167,75h5v1h-5z M176,75h4v1h-4z M187,75h3v1h-3z M193,74h4v2h-4z M199,75h6v1h-6z M224,75h9v1h-9z M242,75h26v1h-26z M2,76h30v1h-30z M33,76h6v1h-6z M44,76h17v1h-17z M63,76h18v1h-18z M86,76h17v1h-17z M107,76h30v1h-30z M152,76h13v1h-13z M167,76h4v1h-4z M176,76h3v1h-3z M199,76h7v1h-7z M228,76h11v1h-11z M244,76h24v1h-24z M2,77h38v1h-38z M43,77h38v1h-38z M85,77h17v1h-17z M105,77h30v1h-30z M150,77h15v1h-15z M192,76h4v2h-4z M200,77h8v1h-8z M225,77h18v1h-18z M245,77h8v1h-8z M255,77h13v1h-13z M2,78h96v1h-96z M100,78h33v1h-33z M149,78h15v1h-15z M176,77h4v2h-4z M193,78h5v1h-5z M201,78h14v1h-14z M216,78h30v1h-30z M247,78h6v1h-6z M255,78h3v1h-3z M259,78h9v1h-9z M1,79h64v1h-64z M66,79h7v1h-7z M76,79h18v1h-18z M99,79h31v1h-31z M146,79h18v1h-18z M177,79h5v1h-5z M186,76h4v4h-4z M193,79h6v1h-6z M202,79h48v1h-48z M255,79h5v1h-5z M261,79h7v1h-7z M1,80h63v1h-63z M65,80h6v1h-6z M75,80h13v1h-13z M96,80h33v1h-33z M143,80h21v1h-21z M178,80h5v1h-5z M194,80h6v1h-6z M203,80h47v1h-47z M255,80h13v1h-13z M1,81h61v1h-61z M63,81h7v1h-7z M73,81h9v1h-9z M92,81h21v1h-21z M114,81h13v1h-13z M141,81h22v1h-22z M166,77h4v5h-4z M187,80h3v2h-3z M195,81h59v1h-59z M255,81h7v1h-7z M31,82h8v1h-8z M42,82h17v1h-17z M60,82h1v1h-1z M62,82h8v1h-8z M71,82h8v1h-8z M89,82h22v1h-22z M114,82h5v1h-5z M120,82h5v1h-5z M139,82h17v1h-17z M157,82h6v1h-6z M167,82h3v1h-3z M180,81h4v2h-4z M196,82h67v1h-67z M264,81h4v2h-4z M42,83h34v1h-34z M84,83h26v1h-26z M113,83h11v1h-11z M137,83h18v1h-18z M157,83h5v1h-5z M166,83h4v1h-4z M192,83h1v1h-1z M198,83h70v1h-70z M2,82h26v3h-26z M32,83h4v2h-4z M42,84h32v1h-32z M80,84h20v1h-20z M101,84h7v1h-7z M111,84h12v1h-12z M136,84h25v1h-25z M164,84h5v1h-5z M181,83h4v2h-4z M192,84h4v1h-4z M199,84h29v1h-29z M240,84h28v1h-28z M2,85h28v1h-28z M31,85h5v1h-5z M48,85h25v1h-25z M74,85h26v1h-26z M102,85h5v1h-5z M108,85h14v1h-14z M135,85h16v1h-16z M154,85h14v1h-14z M180,85h4v1h-4z M192,85h10v1h-10z M204,85h22v1h-22z M242,85h25v1h-25z M2,86h34v1h-34z M48,86h51v1h-51z M101,86h1v1h-1z M103,86h18v1h-18z M133,86h15v1h-15z M153,86h14v1h-14z M177,86h6v1h-6z M193,86h10v1h-10z M204,86h4v1h-4z M212,86h13v1h-13z M228,86h7v1h-7z M244,86h24v1h-24z M2,87h14v1h-14z M18,87h2v1h-2z M22,87h13v1h-13z M42,87h1v1h-1z M49,87h71v1h-71z M131,87h14v1h-14z M150,87h15v1h-15z M173,87h9v1h-9z M195,87h41v1h-41z M248,87h20v1h-20z M2,88h10v1h-10z M22,88h11v1h-11z M40,88h6v1h-6z M49,88h45v1h-45z M95,88h25v1h-25z M128,88h16v1h-16z M148,88h14v1h-14z M168,88h13v1h-13z M196,88h41v1h-41z M252,88h16v1h-16z M2,89h9v1h-9z M21,89h7v1h-7z M38,89h8v1h-8z M49,89h15v1h-15z M66,89h52v1h-52z M125,89h19v1h-19z M146,89h6v1h-6z M155,89h6v1h-6z M167,89h7v1h-7z M196,89h28v1h-28z M252,89h5v1h-5z M1,90h8v1h-8z M19,90h7v1h-7z M37,90h20v1h-20z M63,90h37v1h-37z M101,90h17v1h-17z M122,90h29v1h-29z M155,90h5v1h-5z M166,90h4v1h-4z M189,90h29v1h-29z M231,89h7v2h-7z M251,90h5v1h-5z M258,89h10v2h-10z M1,91h7v1h-7z M17,91h7v1h-7z M36,91h17v1h-17z M61,91h20v1h-20z M82,91h66v1h-66z M154,91h5v1h-5z M165,91h4v1h-4z M186,91h24v1h-24z M224,91h13v1h-13z M250,91h12v1h-12z M1,92h6v1h-6z M16,92h7v1h-7z M35,92h5v1h-5z M43,92h7v1h-7z M59,92h19v1h-19z M84,92h26v1h-26z M114,92h33v1h-33z M153,92h5v1h-5z M164,92h4v1h-4z M184,92h10v1h-10z M196,92h1v1h-1z M202,92h8v1h-8z M222,92h14v1h-14z M245,92h17v1h-17z M263,91h5v2h-5z M15,93h6v1h-6z M34,93h5v1h-5z M42,93h6v1h-6z M58,93h19v1h-19z M83,93h25v1h-25z M112,93h34v1h-34z M150,93h7v1h-7z M164,93h3v1h-3z M182,93h7v1h-7z M205,93h7v1h-7z M221,93h13v1h-13z M239,93h29v1h-29z M15,94h4v1h-4z M34,94h4v1h-4z M41,94h5v1h-5z M56,94h18v1h-18z M81,94h8v1h-8z M93,94h11v1h-11z M111,94h31v1h-31z M147,94h9v1h-9z M163,94h4v1h-4z M180,94h7v1h-7z M207,94h23v1h-23z M231,94h1v1h-1z M233,94h35v1h-35z M2,93h5v3h-5z M14,95h5v1h-5z M34,95h3v1h-3z M40,95h5v1h-5z M55,95h8v1h-8z M65,95h9v1h-9z M81,95h5v1h-5z M91,95h9v1h-9z M109,95h10v1h-10z M120,95h22v1h-22z M145,95h9v1h-9z M162,95h5v1h-5z M177,95h8v1h-8z M193,95h9v1h-9z M209,95h16v1h-16z M231,95h37v1h-37z M2,96h7v1h-7z M91,96h7v1h-7z M108,96h7v1h-7z M119,96h32v1h-32z M160,96h6v1h-6z M175,96h8v1h-8z M188,96h16v1h-16z M210,96h14v1h-14z M229,96h39v1h-39z M1,97h9v1h-9z M34,96h4v2h-4z M40,96h4v2h-4z M55,96h6v2h-6z M65,96h7v2h-7z M106,97h7v1h-7z M117,97h30v1h-30z M158,97h7v1h-7z M174,97h6v1h-6z M183,97h25v1h-25z M211,97h13v1h-13z M227,97h11v1h-11z M240,97h24v1h-24z M1,98h10v1h-10z M14,96h4v3h-4z M34,98h5v1h-5z M56,98h6v1h-6z M63,98h14v1h-14z M80,96h5v3h-5z M90,97h5v2h-5z M105,98h7v1h-7z M116,98h8v1h-8z M126,98h20v1h-20z M157,98h7v1h-7z M172,98h6v1h-6z M181,98h16v1h-16z M200,98h62v1h-62z M265,97h3v2h-3z M7,99h4v1h-4z M15,99h4v1h-4z M35,99h5v1h-5z M41,98h4v2h-4z M56,99h23v1h-23z M81,99h5v1h-5z M91,99h3v1h-3z M105,99h5v1h-5z M115,99h6v1h-6z M125,99h17v1h-17z M153,99h10v1h-10z M168,99h1v1h-1z M170,99h6v1h-6z M179,99h12v1h-12z M194,99h4v1h-4z M201,99h60v1h-60z M265,99h2v1h-2z M8,100h4v1h-4z M15,100h6v1h-6z M36,100h5v1h-5z M42,100h7v1h-7z M57,100h23v1h-23z M82,100h7v1h-7z M91,100h5v1h-5z M114,100h6v1h-6z M124,100h16v1h-16z M151,100h11v1h-11z M167,100h7v1h-7z M177,100h83v1h-83z M265,100h3v1h-3z M9,101h4v1h-4z M16,101h12v1h-12z M37,101h19v1h-19z M57,101h24v1h-24z M84,101h5v1h-5z M92,101h6v1h-6z M105,100h4v2h-4z M114,101h5v1h-5z M124,101h5v1h-5z M131,101h6v1h-6z M150,101h6v1h-6z M161,101h11v1h-11z M177,101h80v1h-80z M264,101h4v1h-4z M18,102h12v1h-12z M38,102h37v1h-37z M76,102h6v1h-6z M85,102h6v1h-6z M92,102h7v1h-7z M104,102h5v1h-5z M123,102h4v1h-4z M131,102h5v1h-5z M148,102h6v1h-6z M160,102h8v1h-8z M175,102h80v1h-80z M263,102h5v1h-5z M10,102h3v2h-3z M20,103h12v1h-12z M40,103h21v1h-21z M68,103h7v1h-7z M78,103h4v1h-4z M87,103h5v1h-5z M94,103h6v1h-6z M104,103h6v1h-6z M113,102h5v2h-5z M147,103h6v1h-6z M158,103h8v1h-8z M174,103h76v1h-76z M262,103h6v1h-6z M26,104h7v1h-7z M41,104h11v1h-11z M54,104h7v1h-7z M69,104h6v1h-6z M96,104h5v1h-5z M105,104h5v1h-5z M114,104h4v1h-4z M130,103h4v2h-4z M146,104h5v1h-5z M156,104h7v1h-7z M172,104h20v1h-20z M201,104h42v1h-42z M261,104h7v1h-7z M10,104h4v2h-4z M57,105h4v1h-4z M70,105h5v1h-5z M79,104h3v2h-3z M97,105h5v1h-5z M105,105h6v1h-6z M114,105h5v1h-5z M122,103h5v3h-5z M130,105h5v1h-5z M146,105h3v1h-3z M155,105h6v1h-6z M171,105h17v1h-17z M201,105h1v1h-1z M203,105h2v1h-2z M206,105h35v1h-35z M247,105h21v1h-21z M28,105h5v2h-5z M42,105h10v2h-10z M56,106h6v1h-6z M69,106h6v1h-6z M78,106h4v1h-4z M98,106h5v1h-5z M106,106h7v1h-7z M115,106h5v1h-5z M123,106h5v1h-5z M130,106h8v1h-8z M154,106h5v1h-5z M170,106h15v1h-15z M190,106h48v1h-48z M246,106h22v1h-22z M1,99h4v9h-4z M9,106h4v2h-4z M40,107h12v1h-12z M54,107h7v1h-7z M67,107h8v1h-8z M77,107h5v1h-5z M99,107h4v1h-4z M108,107h5v1h-5z M116,107h5v1h-5z M124,107h15v1h-15z M145,106h4v2h-4z M169,107h15v1h-15z M186,107h50v1h-50z M245,107h23v1h-23z M1,108h5v1h-5z M7,108h5v1h-5z M20,108h4v1h-4z M27,107h5v2h-5z M40,108h21v1h-21z M64,108h17v1h-17z M88,104h4v5h-4z M98,108h5v1h-5z M109,108h5v1h-5z M117,108h5v1h-5z M125,108h15v1h-15z M145,108h3v1h-3z M153,107h4v2h-4z M168,108h11v1h-11z M184,108h48v1h-48z M245,108h5v1h-5z M254,108h7v1h-7z M1,109h10v1h-10z M16,109h8v1h-8z M28,109h9v1h-9z M40,109h40v1h-40z M87,109h5v1h-5z M98,109h4v1h-4z M110,109h4v1h-4z M118,109h4v1h-4z M126,109h8v1h-8z M136,109h5v1h-5z M154,109h4v1h-4z M168,109h10v1h-10z M183,109h47v1h-47z M244,109h5v1h-5z M264,108h4v2h-4z M1,110h9v1h-9z M14,110h9v1h-9z M29,110h9v1h-9z M39,110h41v1h-41z M85,110h6v1h-6z M96,110h6v1h-6z M119,110h2v1h-2z M128,110h6v1h-6z M137,110h5v1h-5z M154,110h5v1h-5z M182,110h8v1h-8z M193,110h36v1h-36z M242,110h6v1h-6z M263,110h5v1h-5z M1,111h8v1h-8z M13,111h9v1h-9z M28,111h51v1h-51z M82,111h8v1h-8z M96,111h5v1h-5z M110,110h5v2h-5z M129,111h5v1h-5z M138,111h4v1h-4z M145,109h4v3h-4z M154,111h7v1h-7z M167,110h5v2h-5z M173,110h4v2h-4z M182,111h6v1h-6z M190,111h40v1h-40z M240,111h7v1h-7z M1,112h6v1h-6z M12,112h6v1h-6z M26,112h48v1h-48z M79,112h9v1h-9z M96,112h4v1h-4z M109,112h6v1h-6z M119,112h2v1h-2z M156,112h6v1h-6z M168,112h4v1h-4z M174,112h3v1h-3z M181,112h5v1h-5z M189,112h57v1h-57z M1,113h5v1h-5z M11,113h5v1h-5z M25,113h16v1h-16z M46,113h28v1h-28z M75,113h12v1h-12z M109,113h5v1h-5z M130,112h4v2h-4z M139,112h4v2h-4z M146,112h4v2h-4z M158,113h4v1h-4z M168,113h10v1h-10z M188,113h56v1h-56z M252,111h16v3h-16z M1,114h4v1h-4z M10,114h5v1h-5z M25,114h5v1h-5z M32,114h7v1h-7z M45,114h25v1h-25z M71,114h12v1h-12z M90,114h2v1h-2z M108,114h6v1h-6z M118,113h4v2h-4z M128,114h6v1h-6z M138,114h4v1h-4z M146,114h3v1h-3z M169,114h10v1h-10z M188,114h7v1h-7z M201,114h10v1h-10z M213,114h29v1h-29z M252,114h1v1h-1z M257,114h5v1h-5z M24,115h5v1h-5z M31,115h6v1h-6z M44,115h35v1h-35z M88,115h4v1h-4z M106,115h7v1h-7z M117,115h5v1h-5z M126,115h7v1h-7z M137,115h5v1h-5z M145,115h4v1h-4z M158,114h5v2h-5z M181,113h4v3h-4z M188,115h4v1h-4z M200,115h10v1h-10z M264,114h4v2h-4z M2,115h3v2h-3z M10,115h4v2h-4z M24,116h4v1h-4z M43,116h34v1h-34z M86,116h6v1h-6z M105,116h7v1h-7z M117,116h4v1h-4z M124,116h8v1h-8z M135,116h6v1h-6z M144,116h5v1h-5z M153,116h9v1h-9z M182,116h3v1h-3z M188,116h3v1h-3z M198,116h12v1h-12z M214,115h25v2h-25z M246,116h3v1h-3z M258,116h10v1h-10z M11,117h4v1h-4z M25,117h4v1h-4z M42,117h32v1h-32z M83,117h8v1h-8z M102,117h9v1h-9z M115,117h6v1h-6z M122,117h9v1h-9z M132,117h8v1h-8z M142,117h19v1h-19z M182,117h4v1h-4z M188,117h4v1h-4z M198,117h11v1h-11z M216,117h1v1h-1z M227,117h22v1h-22z M255,117h13v1h-13z M11,118h5v1h-5z M25,118h5v1h-5z M31,116h4v3h-4z M41,118h30v1h-30z M80,118h10v1h-10z M100,118h10v1h-10z M113,118h15v1h-15z M131,118h8v1h-8z M141,118h17v1h-17z M170,115h9v4h-9z M183,118h9v1h-9z M198,118h5v1h-5z M207,118h1v1h-1z M217,118h1v1h-1z M220,118h2v1h-2z M232,118h17v1h-17z M254,118h14v1h-14z M12,119h5v1h-5z M26,119h4v1h-4z M32,119h5v1h-5z M58,119h9v1h-9z M78,119h9v1h-9z M96,119h12v1h-12z M111,119h16v1h-16z M130,119h8v1h-8z M139,119h16v1h-16z M167,119h12v1h-12z M189,119h4v1h-4z M198,119h4v1h-4z M215,119h8v1h-8z M227,119h7v1h-7z M239,119h9v1h-9z M252,119h16v1h-16z M13,120h4v1h-4z M33,120h5v1h-5z M40,119h12v2h-12z M56,120h9v1h-9z M73,120h12v1h-12z M95,120h11v1h-11z M108,120h16v1h-16z M129,120h6v1h-6z M136,120h15v1h-15z M160,120h18v1h-18z M184,119h4v2h-4z M190,120h5v1h-5z M198,120h5v1h-5z M213,120h10v1h-10z M226,120h11v1h-11z M250,120h18v1h-18z M13,121h5v1h-5z M34,121h5v1h-5z M41,121h12v1h-12z M56,121h6v1h-6z M71,121h11v1h-11z M93,121h11v1h-11z M105,121h19v1h-19z M128,121h5v1h-5z M136,121h13v1h-13z M156,121h22v1h-22z M191,121h4v1h-4z M199,121h5v1h-5z M212,121h12v1h-12z M225,121h15v1h-15z M247,121h21v1h-21z M12,122h6v1h-6z M27,120h4v3h-4z M42,122h12v1h-12z M55,122h6v1h-6z M70,122h9v1h-9z M92,122h8v1h-8z M101,122h1v1h-1z M103,122h19v1h-19z M129,122h2v1h-2z M133,122h7v1h-7z M141,122h6v1h-6z M154,122h23v1h-23z M185,121h3v2h-3z M200,122h4v1h-4z M10,123h7v1h-7z M26,123h5v1h-5z M35,122h5v2h-5z M42,123h19v1h-19z M68,123h7v1h-7z M90,123h8v1h-8z M102,123h19v1h-19z M132,123h7v1h-7z M141,123h5v1h-5z M152,123h24v1h-24z M212,122h56v2h-56z M1,117h4v8h-4z M8,124h8v1h-8z M23,124h7v1h-7z M35,124h4v1h-4z M44,124h11v1h-11z M56,124h6v1h-6z M68,124h5v1h-5z M89,124h7v1h-7z M100,124h7v1h-7z M112,124h7v1h-7z M131,124h6v1h-6z M151,124h24v1h-24z M184,123h4v2h-4z M201,123h4v2h-4z M211,124h48v1h-48z M2,125h13v1h-13z M21,125h9v1h-9z M33,125h6v1h-6z M57,125h6v1h-6z M67,125h5v1h-5z M89,125h5v1h-5z M100,125h6v1h-6z M111,125h6v1h-6z M130,125h6v1h-6z M140,124h5v2h-5z M150,125h25v1h-25z M183,125h5v1h-5z M192,122h4v4h-4z M202,125h4v1h-4z M211,125h46v1h-46z M1,126h11v1h-11z M20,126h9v1h-9z M32,126h7v1h-7z M45,125h5v2h-5z M52,125h3v2h-3z M98,126h6v1h-6z M110,126h6v1h-6z M121,126h3v1h-3z M129,126h6v1h-6z M140,126h4v1h-4z M148,126h40v1h-40z M202,126h3v1h-3z M211,126h11v1h-11z M230,126h25v1h-25z M260,126h1v1h-1z M264,124h4v3h-4z M1,127h8v1h-8z M18,127h9v1h-9z M28,127h9v1h-9z M44,127h6v1h-6z M51,127h4v1h-4z M59,126h5v2h-5z M67,126h4v2h-4z M88,126h5v2h-5z M98,127h5v1h-5z M109,127h5v1h-5z M120,127h4v1h-4z M128,127h5v1h-5z M140,127h3v1h-3z M147,127h40v1h-40z M188,127h3v1h-3z M200,127h5v1h-5z M233,127h20v1h-20z M260,127h8v1h-8z M1,128h6v1h-6z M17,128h7v1h-7z M27,128h8v1h-8z M42,128h13v1h-13z M58,128h5v1h-5z M68,128h4v1h-4z M86,128h6v1h-6z M97,128h5v1h-5z M109,128h4v1h-4z M118,128h6v1h-6z M127,128h5v1h-5z M146,128h13v1h-13z M198,128h6v1h-6z M228,128h23v1h-23z M258,128h10v1h-10z M1,129h5v1h-5z M16,129h6v1h-6z M26,129h7v1h-7z M41,129h22v1h-22z M68,129h3v1h-3z M85,129h7v1h-7z M96,129h5v1h-5z M108,129h4v1h-4z M118,129h5v1h-5z M125,129h6v1h-6z M136,129h2v1h-2z M145,129h13v1h-13z M162,128h29v2h-29z M197,129h7v1h-7z M210,127h9v3h-9z M226,129h16v1h-16z M257,129h11v1h-11z M16,130h4v1h-4z M25,130h6v1h-6z M40,130h22v1h-22z M84,130h6v1h-6z M95,130h5v1h-5z M107,130h5v1h-5z M118,130h3v1h-3z M124,130h7v1h-7z M134,130h5v1h-5z M160,130h30v1h-30z M196,130h7v1h-7z M208,130h11v1h-11z M224,130h18v1h-18z M253,130h8v1h-8z M2,130h4v2h-4z M15,131h5v1h-5z M25,131h5v1h-5z M40,131h21v1h-21z M67,130h4v2h-4z M82,131h8v1h-8z M94,131h6v1h-6z M106,131h5v1h-5z M119,131h1v1h-1z M124,131h6v1h-6z M133,131h6v1h-6z M143,130h13v2h-13z M158,131h31v1h-31z M196,131h5v1h-5z M202,131h17v1h-17z M222,131h38v1h-38z M264,130h4v2h-4z M1,132h72v1h-72z M74,132h27v1h-27z M103,132h9v1h-9z M118,132h22v1h-22z M141,132h48v1h-48z M194,132h66v1h-66z M261,132h1v1h-1z M263,132h5v1h-5z M1,133h267v1h-267z M2,134h266v1h-266z M3,135h264v1h-264z M53,136h2v1h-2z M65,136h1v1h-1z M140,136h1v1h-1z M150,136h3v1h-3z M161,136h1v1h-1z M164,136h3v1h-3z M180,136h2v1h-2z M186,136h15v1h-15z M204,136h2v1h-2z M209,136h5v1h-5z M215,136h4v1h-4z M221,136h39v1h-39z M261,136h2v1h-2z M264,136h1v1h-1z
  "/>
</svg>