<?xml version="1.0" encoding="UTF-8"?>
<svg xmlns="http://www.w3.org/2000/svg" viewBox="0 0 260 137" width="260" height="137">
  <title>74 Bedrock kind not indicated</title>
  <path fill="#111111" fill-rule="nonzero" d="
    M39,0h1v1h-1z M2,1h96v1h-96z M102,1h10v1h-10z M113,1h9v1h-9z M123,1h1v1h-1z M1,2h255v1h-255z M1,3h257v2h-257z M78,5h2v1h-2z M81,5h1v1h-1z M98,5h3v1h-3z M105,5h1v1h-1z M108,5h4v1h-4z M113,5h5v1h-5z M121,5h1v1h-1z M123,5h136v1h-136z M254,6h5v2h-5z M255,8h4v1h-4z M255,9h3v2h-3z M255,11h4v8h-4z M254,19h5v1h-5z M252,20h7v1h-7z M249,21h10v1h-10z M246,22h13v1h-13z M244,23h15v1h-15z M241,24h18v1h-18z M237,25h13v1h-13z M235,26h13v1h-13z M232,27h15v1h-15z M229,28h17v1h-17z M227,29h18v1h-18z M224,30h12v1h-12z M238,30h6v1h-6z M221,31h12v1h-12z M237,31h6v1h-6z M219,32h12v1h-12z M237,32h5v1h-5z M216,33h11v1h-11z M236,33h5v1h-5z M214,34h12v1h-12z M235,34h5v1h-5z M255,25h4v10h-4z M211,35h12v1h-12z M234,35h5v1h-5z M254,35h5v1h-5z M209,36h11v1h-11z M232,36h6v1h-6z M253,36h6v1h-6z M205,37h13v1h-13z M232,37h5v1h-5z M202,38h14v1h-14z M230,38h6v1h-6z M252,37h7v2h-7z M199,39h15v1h-15z M230,39h5v1h-5z M250,39h9v1h-9z M197,40h17v1h-17z M229,40h5v1h-5z M249,40h10v1h-10z M1,5h4v37h-4z M192,41h20v1h-20z M227,41h6v1h-6z M248,41h11v1h-11z M1,42h5v1h-5z M10,42h3v1h-3z M189,42h13v1h-13z M205,42h7v1h-7z M226,42h6v1h-6z M248,42h5v1h-5z M1,43h27v1h-27z M186,43h15v1h-15z M205,43h6v1h-6z M225,43h6v1h-6z M246,43h6v1h-6z M1,44h38v1h-38z M182,44h15v1h-15z M204,44h6v1h-6z M225,44h5v1h-5z M245,44h6v1h-6z M1,45h43v1h-43z M180,45h12v1h-12z M193,45h2v1h-2z M203,45h6v1h-6z M224,45h5v1h-5z M244,45h6v1h-6z M1,46h8v1h-8z M10,46h39v1h-39z M177,46h14v1h-14z M202,46h6v1h-6z M222,46h6v1h-6z M243,46h6v1h-6z M11,47h5v1h-5z M28,47h27v1h-27z M173,47h15v1h-15z M201,47h6v1h-6z M222,47h5v1h-5z M242,47h6v1h-6z M10,48h5v1h-5z M28,48h5v1h-5z M38,48h23v1h-23z M170,48h16v1h-16z M200,48h6v1h-6z M220,48h6v1h-6z M242,48h5v1h-5z M9,49h5v1h-5z M26,49h6v1h-6z M43,49h21v1h-21z M162,49h22v1h-22z M199,49h6v1h-6z M220,49h5v1h-5z M240,49h6v1h-6z M8,50h5v1h-5z M25,50h6v1h-6z M44,50h6v1h-6z M51,50h18v1h-18z M160,50h23v1h-23z M198,50h6v1h-6z M219,50h5v1h-5z M240,50h5v1h-5z M7,51h5v1h-5z M25,51h5v1h-5z M43,51h6v1h-6z M55,51h17v1h-17z M153,51h21v1h-21z M176,51h7v1h-7z M197,51h6v1h-6z M218,51h5v1h-5z M238,51h6v1h-6z M1,47h4v6h-4z M6,52h5v1h-5z M24,52h5v1h-5z M42,52h5v1h-5z M59,52h17v1h-17z M146,52h25v1h-25z M175,52h7v1h-7z M196,52h6v1h-6z M217,52h6v1h-6z M237,52h6v1h-6z M1,53h9v1h-9z M23,53h5v1h-5z M41,53h5v1h-5z M59,53h22v1h-22z M140,53h26v1h-26z M175,53h6v1h-6z M195,53h6v1h-6z M216,53h5v1h-5z M237,53h5v1h-5z M255,42h4v12h-4z M1,54h8v1h-8z M22,54h5v1h-5z M40,54h6v1h-6z M59,54h5v1h-5z M67,54h16v1h-16z M134,54h27v1h-27z M174,54h5v1h-5z M195,54h5v1h-5z M215,54h5v1h-5z M236,54h5v1h-5z M254,54h5v1h-5z M1,55h7v1h-7z M21,55h5v1h-5z M38,55h7v1h-7z M58,55h5v1h-5z M71,55h17v1h-17z M89,55h2v1h-2z M125,55h2v1h-2z M128,55h32v1h-32z M173,55h5v1h-5z M194,55h5v1h-5z M214,55h6v1h-6z M234,55h6v1h-6z M255,55h4v1h-4z M1,56h6v1h-6z M20,56h4v1h-4z M38,56h6v1h-6z M58,56h4v1h-4z M73,56h29v1h-29z M110,56h1v1h-1z M112,56h46v1h-46z M172,56h5v1h-5z M192,56h6v1h-6z M213,56h5v1h-5z M233,56h6v1h-6z M254,56h5v1h-5z M19,57h5v1h-5z M37,57h6v1h-6z M56,57h5v1h-5z M73,57h69v1h-69z M151,57h6v1h-6z M171,57h5v1h-5z M192,57h5v1h-5z M212,57h5v1h-5z M232,57h6v1h-6z M1,57h5v2h-5z M18,58h5v1h-5z M36,58h6v1h-6z M55,58h5v1h-5z M72,58h6v1h-6z M84,58h52v1h-52z M151,58h5v1h-5z M170,58h6v1h-6z M190,58h6v1h-6z M211,58h5v1h-5z M232,58h4v1h-4z M253,57h6v2h-6z M16,59h6v1h-6z M35,59h6v1h-6z M54,59h5v1h-5z M71,59h6v1h-6z M89,59h36v1h-36z M129,59h6v1h-6z M150,59h5v1h-5z M168,59h7v1h-7z M189,59h6v1h-6z M210,59h5v1h-5z M230,59h6v1h-6z M251,59h8v1h-8z M1,59h4v2h-4z M16,60h5v1h-5z M34,60h6v1h-6z M53,60h5v1h-5z M70,60h6v1h-6z M89,60h6v1h-6z M98,60h17v1h-17z M128,60h6v1h-6z M149,60h5v1h-5z M168,60h6v1h-6z M188,60h6v1h-6z M209,60h5v1h-5z M230,60h5v1h-5z M1,61h3v1h-3z M15,61h5v1h-5z M33,61h6v1h-6z M52,61h5v1h-5z M69,61h5v1h-5z M88,61h6v1h-6z M107,61h7v1h-7z M128,61h5v1h-5z M148,61h5v1h-5z M167,61h5v1h-5z M187,61h6v1h-6z M208,61h5v1h-5z M228,61h6v1h-6z M250,60h9v2h-9z M14,62h5v1h-5z M32,62h5v1h-5z M51,62h5v1h-5z M68,62h6v1h-6z M87,62h6v1h-6z M107,62h6v1h-6z M127,62h5v1h-5z M147,62h5v1h-5z M166,62h5v1h-5z M186,62h5v1h-5z M207,62h5v1h-5z M227,62h5v1h-5z M248,62h11v1h-11z M13,63h5v1h-5z M31,63h6v1h-6z M50,63h5v1h-5z M67,63h6v1h-6z M86,63h6v1h-6z M106,63h6v1h-6z M126,63h5v1h-5z M146,63h6v1h-6z M165,63h6v1h-6z M185,63h6v1h-6z M206,63h5v1h-5z M226,63h6v1h-6z M248,63h5v1h-5z M12,64h5v1h-5z M30,64h6v1h-6z M49,64h5v1h-5z M66,64h6v1h-6z M80,64h1v1h-1z M86,64h5v1h-5z M105,64h6v1h-6z M125,64h5v1h-5z M145,64h5v1h-5z M164,64h6v1h-6z M184,64h5v1h-5z M205,64h5v1h-5z M225,64h6v1h-6z M246,64h6v1h-6z M11,65h5v1h-5z M29,65h6v1h-6z M48,65h5v1h-5z M65,65h6v1h-6z M79,65h3v1h-3z M84,65h6v1h-6z M104,65h6v1h-6z M124,65h6v1h-6z M144,65h5v1h-5z M163,65h6v1h-6z M183,65h6v1h-6z M204,65h5v1h-5z M224,65h6v1h-6z M245,65h6v1h-6z M1,62h4v5h-4z M9,66h6v1h-6z M29,66h5v1h-5z M47,66h5v1h-5z M65,66h5v1h-5z M79,66h10v1h-10z M103,66h6v1h-6z M122,66h6v1h-6z M143,66h5v1h-5z M162,66h6v1h-6z M182,66h6v1h-6z M203,66h5v1h-5z M223,66h6v1h-6z M244,66h6v1h-6z M0,67h5v1h-5z M8,67h6v1h-6z M28,67h5v1h-5z M46,67h5v1h-5z M63,67h6v1h-6z M80,67h8v1h-8z M102,67h6v1h-6z M122,67h5v1h-5z M142,67h5v1h-5z M161,67h6v1h-6z M181,67h6v1h-6z M202,67h5v1h-5z M222,67h5v1h-5z M243,67h6v1h-6z M8,68h5v1h-5z M26,68h6v1h-6z M45,68h5v1h-5z M62,68h6v1h-6z M81,68h6v1h-6z M101,68h6v1h-6z M120,68h6v1h-6z M141,68h5v1h-5z M160,68h6v1h-6z M180,68h6v1h-6z M200,68h6v1h-6z M221,68h6v1h-6z M243,68h5v1h-5z M1,68h4v2h-4z M6,69h6v1h-6z M26,69h5v1h-5z M44,69h5v1h-5z M62,69h5v1h-5z M80,69h6v1h-6z M100,69h6v1h-6z M120,69h5v1h-5z M140,69h5v1h-5z M159,69h6v1h-6z M179,69h5v1h-5z M200,69h5v1h-5z M220,69h6v1h-6z M242,69h5v1h-5z M1,70h10v1h-10z M25,70h5v1h-5z M43,70h5v1h-5z M61,70h5v1h-5z M80,70h5v1h-5z M99,70h6v1h-6z M119,70h5v1h-5z M139,70h6v1h-6z M158,70h6v1h-6z M178,70h6v1h-6z M198,70h6v1h-6z M220,70h5v1h-5z M241,70h5v1h-5z M255,63h4v8h-4z M1,71h9v1h-9z M24,71h5v1h-5z M42,71h5v1h-5z M60,71h5v1h-5z M79,71h5v1h-5z M98,71h6v1h-6z M118,71h5v1h-5z M138,71h6v1h-6z M157,71h5v1h-5z M177,71h5v1h-5z M197,71h6v1h-6z M218,71h6v1h-6z M239,71h6v1h-6z M254,71h5v1h-5z M1,72h8v1h-8z M23,72h5v1h-5z M41,72h5v1h-5z M60,72h4v1h-4z M78,72h5v1h-5z M97,72h5v1h-5z M117,72h5v1h-5z M136,72h6v1h-6z M156,72h5v1h-5z M177,72h4v1h-4z M197,72h5v1h-5z M217,72h6v1h-6z M238,72h6v1h-6z M1,73h7v1h-7z M22,73h5v1h-5z M40,73h5v1h-5z M77,73h5v1h-5z M96,73h5v1h-5z M116,73h5v1h-5z M136,73h5v1h-5z M155,73h5v1h-5z M175,73h6v1h-6z M196,73h5v1h-5z M216,73h6v1h-6z M237,73h6v1h-6z M255,72h4v2h-4z M1,74h6v1h-6z M21,74h5v1h-5z M39,74h5v1h-5z M59,73h4v2h-4z M76,74h5v1h-5z M96,74h4v1h-4z M115,74h5v1h-5z M135,74h5v1h-5z M154,74h5v1h-5z M174,74h6v1h-6z M195,74h5v1h-5z M215,74h6v1h-6z M237,74h5v1h-5z M1,75h5v1h-5z M20,75h5v1h-5z M38,75h5v1h-5z M58,75h4v1h-4z M75,75h5v1h-5z M94,75h6v1h-6z M114,75h5v1h-5z M134,75h5v1h-5z M153,75h5v1h-5z M173,75h6v1h-6z M194,75h5v1h-5z M214,75h6v1h-6z M235,75h6v1h-6z M19,76h5v1h-5z M37,76h5v1h-5z M57,76h4v1h-4z M74,76h5v1h-5z M93,76h6v1h-6z M113,76h5v1h-5z M133,76h5v1h-5z M152,76h6v1h-6z M172,76h6v1h-6z M193,76h5v1h-5z M213,76h6v1h-6z M234,76h6v1h-6z M18,77h5v1h-5z M36,77h5v1h-5z M56,77h4v1h-4z M73,77h6v1h-6z M93,77h5v1h-5z M112,77h5v1h-5z M132,77h5v1h-5z M151,77h5v1h-5z M171,77h5v1h-5z M192,77h5v1h-5z M212,77h6v1h-6z M233,77h6v1h-6z M254,74h5v4h-5z M16,78h6v1h-6z M36,78h4v1h-4z M54,78h5v1h-5z M73,78h5v1h-5z M92,78h5v1h-5z M111,78h5v1h-5z M131,78h5v1h-5z M150,78h6v1h-6z M170,78h5v1h-5z M191,78h5v1h-5z M211,78h5v1h-5z M232,78h6v1h-6z M253,78h6v1h-6z M16,79h4v1h-4z M34,79h5v1h-5z M53,79h5v1h-5z M72,79h5v1h-5z M91,79h5v1h-5z M110,79h5v1h-5z M130,79h6v1h-6z M149,79h6v1h-6z M169,79h6v1h-6z M190,79h5v1h-5z M210,79h6v1h-6z M232,79h5v1h-5z M252,79h7v1h-7z M15,80h5v1h-5z M34,80h4v1h-4z M52,80h6v1h-6z M71,80h5v1h-5z M90,80h5v1h-5z M109,80h5v1h-5z M129,80h6v1h-6z M148,80h6v1h-6z M168,80h6v1h-6z M189,80h5v1h-5z M209,80h6v1h-6z M230,80h6v1h-6z M251,80h8v1h-8z M33,81h4v1h-4z M51,81h6v1h-6z M70,81h5v1h-5z M89,81h5v1h-5z M108,81h5v1h-5z M128,81h6v1h-6z M147,81h6v1h-6z M168,81h5v1h-5z M188,81h5v1h-5z M208,81h6v1h-6z M229,81h6v1h-6z M13,81h5v2h-5z M32,82h4v1h-4z M51,82h4v1h-4z M69,82h5v1h-5z M88,82h5v1h-5z M107,82h5v1h-5z M127,82h6v1h-6z M147,82h5v1h-5z M166,82h6v1h-6z M187,82h5v1h-5z M208,82h5v1h-5z M229,82h4v1h-4z M249,81h10v2h-10z M12,83h5v1h-5z M30,83h5v1h-5z M50,83h4v1h-4z M87,83h5v1h-5z M106,83h5v1h-5z M126,83h6v1h-6z M145,83h6v1h-6z M165,83h5v1h-5z M185,83h6v1h-6z M206,83h6v1h-6z M227,83h5v1h-5z M248,83h11v1h-11z M11,84h5v1h-5z M29,84h5v1h-5z M49,84h4v1h-4z M68,83h5v2h-5z M86,84h5v1h-5z M105,84h5v1h-5z M125,84h5v1h-5z M144,84h6v1h-6z M164,84h6v1h-6z M184,84h6v1h-6z M205,84h5v1h-5z M227,84h4v1h-4z M247,84h6v1h-6z M255,84h4v1h-4z M9,85h6v1h-6z M28,85h5v1h-5z M48,85h4v1h-4z M67,85h5v1h-5z M85,85h6v1h-6z M104,85h5v1h-5z M124,85h6v1h-6z M143,85h6v1h-6z M163,85h5v1h-5z M184,85h5v1h-5z M204,85h5v1h-5z M226,85h5v1h-5z M246,85h5v1h-5z M9,86h5v1h-5z M27,86h5v1h-5z M47,86h5v1h-5z M66,86h5v1h-5z M84,86h6v1h-6z M103,86h5v1h-5z M123,86h6v1h-6z M142,86h6v1h-6z M162,86h5v1h-5z M183,86h5v1h-5z M203,86h5v1h-5z M225,86h5v1h-5z M245,86h5v1h-5z M8,87h5v1h-5z M26,87h6v1h-6z M46,87h5v1h-5z M65,87h5v1h-5z M83,87h6v1h-6z M102,87h6v1h-6z M122,87h6v1h-6z M141,87h5v1h-5z M161,87h6v1h-6z M182,87h5v1h-5z M202,87h6v1h-6z M224,87h5v1h-5z M244,87h6v1h-6z M1,76h4v13h-4z M7,88h5v1h-5z M26,88h4v1h-4z M45,88h5v1h-5z M64,88h5v1h-5z M83,88h5v1h-5z M102,88h5v1h-5z M122,88h4v1h-4z M140,88h6v1h-6z M160,88h6v1h-6z M180,88h6v1h-6z M202,88h4v1h-4z M222,88h6v1h-6z M243,88h5v1h-5z M1,89h10v1h-10z M24,89h5v1h-5z M44,89h5v1h-5z M62,89h6v1h-6z M82,89h5v1h-5z M101,89h5v1h-5z M120,89h6v1h-6z M159,89h6v1h-6z M179,89h6v1h-6z M200,89h6v1h-6z M222,89h5v1h-5z M242,89h5v1h-5z M1,90h9v1h-9z M24,90h4v1h-4z M43,90h5v1h-5z M62,90h5v1h-5z M81,90h5v1h-5z M99,90h6v1h-6z M119,90h5v1h-5z M139,89h5v2h-5z M158,90h6v1h-6z M179,90h5v1h-5z M199,90h6v1h-6z M221,90h5v1h-5z M241,90h5v1h-5z M1,91h8v1h-8z M23,91h5v1h-5z M42,91h5v1h-5z M61,91h5v1h-5z M80,91h5v1h-5z M98,91h6v1h-6z M118,91h6v1h-6z M137,91h6v1h-6z M157,91h6v1h-6z M177,91h6v1h-6z M198,91h6v1h-6z M220,91h4v1h-4z M240,91h5v1h-5z M254,85h5v7h-5z M1,92h7v1h-7z M22,92h5v1h-5z M41,92h5v1h-5z M60,92h5v1h-5z M79,92h5v1h-5z M98,92h5v1h-5z M118,92h5v1h-5z M136,92h5v1h-5z M156,92h6v1h-6z M177,92h5v1h-5z M197,92h6v1h-6z M218,92h5v1h-5z M239,92h5v1h-5z M1,93h6v1h-6z M21,93h5v1h-5z M40,93h5v1h-5z M60,93h4v1h-4z M78,93h5v1h-5z M97,93h5v1h-5z M117,93h5v1h-5z M135,93h6v1h-6z M155,93h6v1h-6z M176,93h5v1h-5z M196,93h6v1h-6z M218,93h4v1h-4z M238,93h5v1h-5z M255,92h4v2h-4z M1,94h5v1h-5z M20,94h5v1h-5z M39,94h5v1h-5z M59,94h4v1h-4z M78,94h4v1h-4z M96,94h5v1h-5z M115,94h6v1h-6z M134,94h6v1h-6z M155,94h5v1h-5z M174,94h6v1h-6z M195,94h6v1h-6z M216,94h6v1h-6z M237,94h5v1h-5z M254,94h4v1h-4z M19,95h5v1h-5z M38,95h5v1h-5z M58,95h4v1h-4z M76,95h5v1h-5z M95,95h6v1h-6z M114,95h6v1h-6z M133,95h6v1h-6z M154,95h5v1h-5z M173,95h6v1h-6z M194,95h6v1h-6z M215,95h6v1h-6z M236,95h6v1h-6z M18,96h5v1h-5z M37,96h5v1h-5z M57,96h4v1h-4z M76,96h4v1h-4z M94,96h6v1h-6z M114,96h5v1h-5z M132,96h6v1h-6z M153,96h5v1h-5z M173,96h5v1h-5z M193,96h5v1h-5z M214,96h5v1h-5z M235,96h5v1h-5z M17,97h5v1h-5z M36,97h5v1h-5z M56,97h5v1h-5z M74,97h5v1h-5z M93,97h5v1h-5z M112,97h6v1h-6z M131,97h6v1h-6z M152,97h5v1h-5z M171,97h6v1h-6z M192,97h5v1h-5z M214,97h4v1h-4z M234,97h5v1h-5z M254,95h5v3h-5z M16,98h5v1h-5z M35,98h5v1h-5z M55,98h5v1h-5z M73,98h5v1h-5z M92,98h5v1h-5z M112,98h5v1h-5z M131,98h5v1h-5z M150,98h6v1h-6z M170,98h6v1h-6z M191,98h5v1h-5z M213,98h4v1h-4z M233,98h6v1h-6z M253,98h6v1h-6z M15,99h5v1h-5z M34,99h5v1h-5z M54,99h5v1h-5z M91,99h5v1h-5z M111,99h5v1h-5z M130,99h5v1h-5z M149,99h6v1h-6z M169,99h6v1h-6z M190,99h6v1h-6z M211,99h5v1h-5z M232,99h6v1h-6z M252,99h7v1h-7z M14,100h5v1h-5z M33,100h5v1h-5z M53,100h5v1h-5z M72,99h5v2h-5z M90,100h6v1h-6z M110,100h5v1h-5z M129,100h5v1h-5z M148,100h6v1h-6z M189,100h6v1h-6z M210,100h5v1h-5z M231,100h5v1h-5z M251,100h8v1h-8z M13,101h5v1h-5z M33,101h4v1h-4z M52,101h4v1h-4z M71,101h5v1h-5z M89,101h5v1h-5z M109,101h5v1h-5z M128,101h5v1h-5z M147,101h6v1h-6z M168,100h5v2h-5z M188,101h6v1h-6z M209,101h5v1h-5z M230,101h5v1h-5z M250,101h9v1h-9z M12,102h4v1h-4z M31,102h5v1h-5z M51,102h5v1h-5z M70,102h5v1h-5z M108,102h5v1h-5z M127,102h5v1h-5z M146,102h6v1h-6z M166,102h6v1h-6z M187,102h5v1h-5z M208,102h5v1h-5z M229,102h5v1h-5z M249,102h10v1h-10z M11,103h5v1h-5z M30,103h5v1h-5z M51,103h4v1h-4z M69,103h5v1h-5z M88,102h5v2h-5z M107,103h5v1h-5z M126,103h5v1h-5z M146,103h5v1h-5z M165,103h6v1h-6z M186,103h5v1h-5z M207,103h6v1h-6z M228,103h6v1h-6z M248,103h11v1h-11z M10,104h5v1h-5z M29,104h5v1h-5z M50,104h4v1h-4z M68,104h5v1h-5z M87,104h5v1h-5z M106,104h5v1h-5z M125,104h5v1h-5z M144,104h6v1h-6z M164,104h6v1h-6z M185,104h5v1h-5z M206,104h6v1h-6z M227,104h5v1h-5z M248,104h5v1h-5z M254,104h5v1h-5z M9,105h5v1h-5z M28,105h5v1h-5z M49,105h4v1h-4z M86,105h5v1h-5z M105,105h5v1h-5z M123,105h6v1h-6z M143,105h6v1h-6z M163,105h6v1h-6z M184,105h5v1h-5z M205,105h6v1h-6z M226,105h5v1h-5z M247,105h5v1h-5z M8,106h5v1h-5z M27,106h5v1h-5z M48,106h4v1h-4z M67,105h5v2h-5z M85,106h5v1h-5z M104,106h5v1h-5z M123,106h5v1h-5z M142,106h6v1h-6z M163,106h4v1h-4z M183,106h5v1h-5z M204,106h5v1h-5z M225,106h5v1h-5z M255,105h4v2h-4z M7,107h5v1h-5z M27,107h4v1h-4z M46,107h5v1h-5z M66,107h4v1h-4z M84,107h5v1h-5z M103,107h5v1h-5z M122,107h6v1h-6z M141,107h6v1h-6z M161,107h6v1h-6z M182,107h5v1h-5z M203,107h5v1h-5z M224,107h5v1h-5z M245,106h5v2h-5z M1,95h4v14h-4z M6,108h5v1h-5z M26,108h4v1h-4z M45,108h5v1h-5z M65,108h5v1h-5z M83,108h5v1h-5z M102,108h6v1h-6z M121,108h5v1h-5z M140,108h6v1h-6z M160,108h5v1h-5z M181,108h5v1h-5z M202,108h6v1h-6z M223,108h5v1h-5z M244,108h5v1h-5z M1,109h9v1h-9z M25,109h4v1h-4z M44,109h5v1h-5z M64,109h5v1h-5z M82,109h5v1h-5z M101,109h6v1h-6z M120,109h5v1h-5z M139,109h6v1h-6z M159,109h5v1h-5z M180,109h5v1h-5z M201,109h6v1h-6z M222,109h5v1h-5z M242,109h6v1h-6z M1,110h8v1h-8z M24,110h4v1h-4z M43,110h5v1h-5z M63,110h5v1h-5z M81,110h5v1h-5z M118,110h6v1h-6z M139,110h5v1h-5z M158,110h5v1h-5z M179,110h5v1h-5z M200,110h5v1h-5z M221,110h5v1h-5z M242,110h5v1h-5z M1,111h7v1h-7z M23,111h4v1h-4z M43,111h4v1h-4z M62,111h5v1h-5z M100,110h5v2h-5z M118,111h5v1h-5z M137,111h6v1h-6z M157,111h5v1h-5z M178,111h6v1h-6z M199,111h6v1h-6z M220,111h5v1h-5z M241,111h5v1h-5z M1,112h6v1h-6z M22,112h4v1h-4z M42,112h4v1h-4z M61,112h5v1h-5z M80,111h5v2h-5z M98,112h5v1h-5z M117,112h5v1h-5z M137,112h5v1h-5z M156,112h6v1h-6z M177,112h5v1h-5z M198,112h6v1h-6z M219,112h5v1h-5z M240,112h5v1h-5z M1,113h5v1h-5z M20,113h5v1h-5z M40,113h5v1h-5z M60,113h5v1h-5z M116,113h5v1h-5z M135,113h6v1h-6z M155,113h6v1h-6z M176,113h5v1h-5z M197,113h6v1h-6z M218,113h5v1h-5z M238,113h6v1h-6z M19,114h5v1h-5z M40,114h4v1h-4z M59,114h5v1h-5z M78,113h5v2h-5z M97,113h5v2h-5z M115,114h5v1h-5z M135,114h5v1h-5z M155,114h5v1h-5z M175,114h5v1h-5z M196,114h6v1h-6z M217,114h5v1h-5z M238,114h5v1h-5z M18,115h5v1h-5z M38,115h5v1h-5z M58,115h5v1h-5z M76,115h6v1h-6z M95,115h5v1h-5z M114,115h5v1h-5z M134,115h5v1h-5z M154,115h5v1h-5z M174,115h5v1h-5z M195,115h5v1h-5z M216,115h5v1h-5z M236,115h6v1h-6z M17,116h5v1h-5z M37,116h5v1h-5z M57,116h5v1h-5z M76,116h4v1h-4z M94,116h6v1h-6z M113,116h5v1h-5z M133,116h5v1h-5z M153,116h5v1h-5z M173,116h6v1h-6z M194,116h5v1h-5z M215,116h5v1h-5z M235,116h5v1h-5z M16,117h5v1h-5z M37,117h4v1h-4z M57,117h4v1h-4z M75,117h5v1h-5z M93,117h6v1h-6z M112,117h5v1h-5z M132,117h4v1h-4z M152,117h5v1h-5z M172,117h6v1h-6z M193,117h5v1h-5z M214,117h5v1h-5z M254,107h5v11h-5z M15,118h5v1h-5z M35,118h5v1h-5z M56,118h4v1h-4z M74,118h5v1h-5z M92,118h6v1h-6z M112,118h4v1h-4z M131,118h5v1h-5z M151,118h5v1h-5z M171,118h5v1h-5z M192,118h5v1h-5z M213,118h5v1h-5z M234,117h5v2h-5z M253,118h5v1h-5z M14,119h5v1h-5z M35,119h4v1h-4z M54,119h5v1h-5z M73,119h5v1h-5z M91,119h6v1h-6z M110,119h5v1h-5z M130,119h5v1h-5z M149,119h6v1h-6z M170,119h6v1h-6z M191,119h6v1h-6z M212,119h5v1h-5z M232,119h6v1h-6z M252,119h6v1h-6z M13,120h5v1h-5z M34,120h4v1h-4z M53,120h5v1h-5z M72,120h5v1h-5z M90,120h6v1h-6z M109,120h5v1h-5z M129,120h5v1h-5z M148,120h6v1h-6z M169,120h5v1h-5z M190,120h5v1h-5z M211,120h5v1h-5z M231,120h5v1h-5z M251,120h7v1h-7z M12,121h5v1h-5z M33,121h4v1h-4z M52,121h6v1h-6z M71,121h5v1h-5z M89,121h6v1h-6z M107,121h6v1h-6z M128,121h5v1h-5z M147,121h6v1h-6z M168,121h5v1h-5z M189,121h5v1h-5z M210,121h5v1h-5z M230,121h6v1h-6z M250,121h8v1h-8z M11,122h5v1h-5z M32,122h4v1h-4z M51,122h6v1h-6z M70,122h5v1h-5z M89,122h5v1h-5z M127,122h5v1h-5z M147,122h4v1h-4z M166,122h6v1h-6z M188,122h5v1h-5z M209,122h5v1h-5z M229,122h6v1h-6z M249,122h9v1h-9z M10,123h6v1h-6z M30,123h6v1h-6z M50,123h6v1h-6z M69,123h5v1h-5z M88,123h5v1h-5z M106,122h6v2h-6z M126,123h5v1h-5z M145,123h6v1h-6z M166,123h5v1h-5z M187,123h5v1h-5z M208,123h5v1h-5z M228,123h6v1h-6z M248,123h10v1h-10z M9,124h5v1h-5z M29,124h5v1h-5z M49,124h6v1h-6z M68,124h5v1h-5z M86,124h6v1h-6z M105,124h6v1h-6z M125,124h6v1h-6z M144,124h6v1h-6z M164,124h6v1h-6z M186,124h5v1h-5z M206,124h6v1h-6z M227,124h6v1h-6z M247,124h5v1h-5z M8,125h5v1h-5z M28,125h5v1h-5z M49,125h4v1h-4z M68,125h4v1h-4z M86,125h5v1h-5z M105,125h5v1h-5z M124,125h5v1h-5z M143,125h6v1h-6z M163,125h6v1h-6z M185,125h5v1h-5z M205,125h6v1h-6z M226,125h6v1h-6z M246,125h5v1h-5z M1,114h4v13h-4z M7,126h5v1h-5z M28,126h4v1h-4z M48,126h4v1h-4z M66,126h5v1h-5z M84,126h6v1h-6z M103,126h6v1h-6z M123,126h5v1h-5z M143,126h5v1h-5z M163,126h5v1h-5z M184,126h5v1h-5z M204,126h6v1h-6z M225,126h6v1h-6z M245,126h5v1h-5z M26,127h5v1h-5z M47,127h5v1h-5z M65,127h5v1h-5z M84,127h5v1h-5z M103,127h5v1h-5z M122,127h5v1h-5z M142,127h5v1h-5z M162,127h5v1h-5z M182,127h6v1h-6z M203,127h6v1h-6z M224,127h6v1h-6z M244,127h5v1h-5z M1,127h10v2h-10z M25,128h5v1h-5z M46,128h5v1h-5z M64,128h5v1h-5z M83,128h5v1h-5z M102,128h5v1h-5z M121,128h5v1h-5z M141,128h5v1h-5z M161,128h5v1h-5z M181,128h5v1h-5z M202,128h6v1h-6z M223,128h5v1h-5z M243,128h5v1h-5z M1,129h9v1h-9z M24,129h5v1h-5z M45,129h4v1h-4z M63,129h6v1h-6z M82,129h5v1h-5z M100,129h6v1h-6z M120,129h5v1h-5z M140,129h4v1h-4z M159,129h5v1h-5z M180,129h6v1h-6z M201,129h6v1h-6z M222,129h5v1h-5z M242,129h5v1h-5z M24,130h4v1h-4z M44,130h5v1h-5z M62,130h6v1h-6z M100,130h5v1h-5z M119,130h5v1h-5z M138,130h6v1h-6z M158,130h6v1h-6z M179,130h6v1h-6z M201,130h5v1h-5z M221,130h5v1h-5z M241,130h5v1h-5z M1,130h8v2h-8z M22,131h6v1h-6z M43,131h6v1h-6z M61,131h7v1h-7z M81,130h5v2h-5z M99,131h6v1h-6z M118,131h6v1h-6z M137,131h6v1h-6z M158,131h5v1h-5z M178,131h6v1h-6z M200,131h5v1h-5z M220,131h6v1h-6z M240,131h5v1h-5z M254,124h4v8h-4z M2,132h185v1h-185z M188,132h4v1h-4z M196,132h20v1h-20z M218,132h8v1h-8z M227,132h7v1h-7z M237,132h8v1h-8z M247,132h5v1h-5z M253,132h5v1h-5z M2,133h256v2h-256z M4,135h253v1h-253z M64,136h5v1h-5z M74,136h5v1h-5z M80,136h20v1h-20z M103,136h7v1h-7z M112,136h6v1h-6z M119,136h3v1h-3z M124,136h10v1h-10z M143,136h3v1h-3z M148,136h2v1h-2z M165,136h4v1h-4z M170,136h1v1h-1z M176,136h2v1h-2z M208,136h4v1h-4z M219,136h2v1h-2z M229,136h5v1h-5z M247,136h6v1h-6z
  "/>
</svg>