<?xml version="1.0" encoding="UTF-8"?>
<svg xmlns="http://www.w3.org/2000/svg" viewBox="0 0 269 136" width="269" height="136">
  <title>42 Oil shale</title>
  <path fill="#111111" fill-rule="nonzero" d="
    M2,1h25v1h-25z M29,1h1v1h-1z M31,1h5v1h-5z M38,1h12v1h-12z M200,1h2v1h-2z M254,1h2v1h-2z M1,2h265v1h-265z M1,3h266v13h-266z M1,16h9v1h-9z M12,16h70v1h-70z M85,16h32v1h-32z M118,16h26v1h-26z M146,16h2v1h-2z M158,16h2v1h-2z M162,16h12v1h-12z M176,16h12v1h-12z M194,16h4v1h-4z M201,16h3v1h-3z M206,16h5v1h-5z M213,16h2v1h-2z M219,16h16v1h-16z M236,16h1v1h-1z M241,16h9v1h-9z M251,16h8v1h-8z M262,16h5v1h-5z M1,17h4v1h-4z M1,18h5v1h-5z M7,18h9v1h-9z M20,18h2v1h-2z M24,18h4v1h-4z M35,18h1v1h-1z M38,18h1v1h-1z M40,18h11v1h-11z M56,18h6v1h-6z M77,18h4v1h-4z M100,18h4v1h-4z M110,18h1v1h-1z M114,18h3v1h-3z M120,18h10v1h-10z M132,18h4v1h-4z M138,18h3v1h-3z M175,18h3v1h-3z M202,18h1v1h-1z M221,18h3v1h-3z M263,17h4v2h-4z M1,19h266v3h-266z M1,22h4v1h-4z M22,22h2v1h-2z M35,22h7v1h-7z M46,22h2v1h-2z M60,22h2v1h-2z M68,22h1v1h-1z M79,22h5v1h-5z M87,22h16v1h-16z M105,22h12v1h-12z M118,22h70v1h-70z M190,22h77v1h-77z M1,23h3v2h-3z M263,23h4v2h-4z M1,25h51v1h-51z M58,25h5v1h-5z M64,25h2v1h-2z M69,25h12v1h-12z M82,25h7v1h-7z M97,25h6v1h-6z M105,25h6v1h-6z M113,25h16v1h-16z M131,25h6v1h-6z M140,25h8v1h-8z M156,25h11v1h-11z M170,25h4v1h-4z M177,25h3v1h-3z M184,25h8v1h-8z M203,25h13v1h-13z M220,25h10v1h-10z M236,25h4v1h-4z M245,25h4v1h-4z M253,25h5v1h-5z M262,25h5v1h-5z M1,26h266v5h-266z M1,31h103v1h-103z M108,31h106v1h-106z M222,31h16v1h-16z M239,31h28v1h-28z M1,32h266v3h-266z M1,35h4v1h-4z M9,35h3v1h-3z M28,35h2v1h-2z M44,35h2v1h-2z M54,35h1v1h-1z M65,35h2v1h-2z M90,35h2v1h-2z M98,35h4v1h-4z M108,35h5v1h-5z M114,35h11v1h-11z M128,35h5v1h-5z M139,35h11v1h-11z M158,35h2v1h-2z M162,35h3v1h-3z M166,35h12v1h-12z M180,35h58v1h-58z M242,35h8v1h-8z M253,35h5v1h-5z M260,35h7v1h-7z M1,36h3v2h-3z M263,36h4v2h-4z M1,38h4v1h-4z M6,38h11v1h-11z M22,38h3v1h-3z M36,38h2v1h-2z M46,38h2v1h-2z M53,38h3v1h-3z M72,38h6v1h-6z M82,38h7v1h-7z M91,38h5v1h-5z M98,38h1v1h-1z M102,38h6v1h-6z M110,38h3v1h-3z M114,38h8v1h-8z M128,38h6v1h-6z M136,38h3v1h-3z M142,38h8v1h-8z M151,38h5v1h-5z M158,38h3v1h-3z M180,38h1v1h-1z M200,38h5v1h-5z M210,38h4v1h-4z M215,38h7v1h-7z M227,38h1v1h-1z M230,38h5v1h-5z M243,38h1v1h-1z M246,38h4v1h-4z M251,38h16v1h-16z M1,39h266v4h-266z M1,43h5v1h-5z M28,43h2v1h-2z M38,43h2v1h-2z M44,43h2v1h-2z M65,43h1v1h-1z M70,43h2v1h-2z M75,43h3v1h-3z M83,43h19v1h-19z M104,43h4v1h-4z M110,43h3v1h-3z M115,43h22v1h-22z M140,43h4v1h-4z M149,43h1v1h-1z M152,43h6v1h-6z M160,43h14v1h-14z M176,43h13v1h-13z M190,43h9v1h-9z M201,43h3v1h-3z M206,43h4v1h-4z M213,43h1v1h-1z M230,43h1v1h-1z M238,43h2v1h-2z M254,43h4v1h-4z M262,43h5v1h-5z M1,44h23v1h-23z M27,44h3v1h-3z M40,44h7v1h-7z M51,44h21v1h-21z M75,44h11v1h-11z M87,44h15v1h-15z M104,44h3v1h-3z M110,44h40v1h-40z M151,44h63v1h-63z M221,44h10v1h-10z M237,44h3v1h-3z M252,44h6v1h-6z M263,44h4v1h-4z M1,45h266v2h-266z M1,47h7v1h-7z M11,47h16v1h-16z M28,47h7v1h-7z M39,47h8v1h-8z M51,47h123v1h-123z M175,47h2v1h-2z M178,47h51v1h-51z M247,47h1v1h-1z M251,47h16v1h-16z M1,48h5v1h-5z M12,48h14v1h-14z M28,48h94v1h-94z M123,48h1v1h-1z M125,48h5v1h-5z M132,48h12v1h-12z M148,48h4v1h-4z M154,48h4v1h-4z M168,48h5v1h-5z M181,48h22v1h-22z M205,48h4v1h-4z M212,48h5v1h-5z M219,48h9v1h-9z M230,47h1v2h-1z M252,48h8v1h-8z M263,48h4v1h-4z M1,49h266v5h-266z M48,54h3v1h-3z M60,54h2v1h-2z M78,54h7v1h-7z M86,54h3v1h-3z M90,54h18v1h-18z M116,54h1v1h-1z M145,54h7v1h-7z M167,54h10v1h-10z M179,54h14v1h-14z M196,54h2v1h-2z M206,54h2v1h-2z M214,54h5v1h-5z M220,54h1v1h-1z M227,54h4v1h-4z M1,54h4v2h-4z M35,55h1v1h-1z M49,55h1v1h-1z M60,55h1v1h-1z M66,55h1v1h-1z M68,54h2v2h-2z M78,55h2v1h-2z M82,55h2v1h-2z M91,55h4v1h-4z M97,55h11v1h-11z M110,54h1v2h-1z M115,55h2v1h-2z M122,55h5v1h-5z M133,55h1v1h-1z M163,54h1v2h-1z M179,55h5v1h-5z M189,55h3v1h-3z M206,55h1v1h-1z M215,55h1v1h-1z M230,55h1v1h-1z M236,55h1v1h-1z M246,55h6v1h-6z M262,54h5v2h-5z M1,56h266v3h-266z M1,59h141v1h-141z M143,59h41v1h-41z M186,59h23v1h-23z M214,59h6v1h-6z M221,59h9v1h-9z M254,59h2v1h-2z M262,59h5v1h-5z M1,60h59v1h-59z M62,60h80v1h-80z M151,60h3v1h-3z M158,60h6v1h-6z M166,60h9v1h-9z M179,60h1v1h-1z M188,60h12v1h-12z M207,60h1v1h-1z M263,60h4v1h-4z M1,61h266v6h-266z M1,67h4v1h-4z M90,67h1v1h-1z M263,67h4v1h-4z M2,68h2v1h-2z M264,68h3v1h-3z M1,69h3v1h-3z M263,69h4v1h-4z M1,70h142v1h-142z M145,70h1v1h-1z M150,70h80v1h-80z M231,70h3v1h-3z M237,70h30v1h-30z M1,71h266v6h-266z M155,77h112v1h-112z M1,77h153v2h-153z M155,78h7v1h-7z M163,78h14v1h-14z M180,78h87v1h-87z M1,79h266v3h-266z M1,82h5v1h-5z M30,82h5v1h-5z M45,82h1v1h-1z M53,82h2v1h-2z M58,82h3v1h-3z M93,82h11v1h-11z M106,82h4v1h-4z M111,82h9v1h-9z M130,82h4v1h-4z M142,82h3v1h-3z M149,82h2v1h-2z M190,82h1v1h-1z M201,82h3v1h-3z M217,82h4v1h-4z M249,82h2v1h-2z M255,82h1v1h-1z M260,82h7v1h-7z M1,83h7v1h-7z M13,83h24v1h-24z M38,83h1v1h-1z M73,83h2v1h-2z M91,82h1v2h-1z M94,83h3v1h-3z M99,83h5v1h-5z M106,83h3v1h-3z M112,83h3v1h-3z M116,83h1v1h-1z M262,83h5v1h-5z M1,84h266v5h-266z M1,89h7v1h-7z M21,89h21v1h-21z M46,89h2v1h-2z M49,89h4v1h-4z M54,89h5v1h-5z M60,89h8v1h-8z M70,89h9v1h-9z M80,89h6v1h-6z M87,89h7v1h-7z M96,89h6v1h-6z M103,89h29v1h-29z M135,89h8v1h-8z M145,89h4v1h-4z M150,89h2v1h-2z M162,89h4v1h-4z M177,89h1v1h-1z M179,89h3v1h-3z M184,89h2v1h-2z M189,89h7v1h-7z M198,89h2v1h-2z M203,89h7v1h-7z M220,89h9v1h-9z M230,89h6v1h-6z M238,89h1v1h-1z M252,89h2v1h-2z M257,89h10v1h-10z M1,90h169v1h-169z M171,90h1v1h-1z M173,90h42v1h-42z M218,90h49v1h-49z M1,91h266v3h-266z M2,94h265v2h-265z M1,96h266v2h-266z M1,98h125v1h-125z M127,98h140v1h-140z M1,99h266v11h-266z M222,110h1v1h-1z M224,110h43v1h-43z M1,110h219v2h-219z M222,111h45v1h-45z M1,112h266v1h-266z M1,113h267v1h-267z M26,114h4v1h-4z M61,114h9v1h-9z M74,114h1v1h-1z M76,114h2v1h-2z M81,114h5v1h-5z M128,114h2v1h-2z M152,114h8v1h-8z M161,114h13v1h-13z M175,114h15v1h-15z M196,114h2v1h-2z M206,114h19v1h-19z M226,114h19v1h-19z M247,114h20v1h-20z M1,114h4v2h-4z M8,114h6v2h-6z M16,115h3v1h-3z M24,115h6v1h-6z M37,115h7v1h-7z M61,115h6v1h-6z M72,115h4v1h-4z M79,114h1v2h-1z M82,115h3v1h-3z M179,115h1v1h-1z M210,115h14v1h-14z M228,115h2v1h-2z M246,115h4v1h-4z M254,115h13v1h-13z M1,116h266v4h-266z M1,120h44v1h-44z M48,120h219v1h-219z M1,121h266v4h-266z M2,125h265v8h-265z M5,133h6v1h-6z M23,133h1v1h-1z M27,133h240v1h-240z M264,134h1v1h-1z
  "/>
</svg>