<?xml version="1.0" encoding="UTF-8"?>
<svg xmlns="http://www.w3.org/2000/svg" viewBox="0 0 267 136" width="267" height="136">
  <title>71 Ore solid black in thin areas</title>
  <path fill="#111111" fill-rule="nonzero" d="
    M3,0h7v1h-7z M20,0h3v1h-3z M93,0h5v1h-5z M174,0h6v1h-6z M2,1h263v1h-263z M1,2h265v1h-265z M1,3h127v1h-127z M130,3h136v1h-136z M1,4h21v1h-21z M262,4h4v1h-4z M1,5h22v1h-22z M1,6h23v1h-23z M1,7h11v1h-11z M16,7h10v1h-10z M1,8h4v1h-4z M6,8h6v1h-6z M16,8h11v1h-11z M1,9h11v1h-11z M16,9h12v1h-12z M1,10h12v1h-12z M15,10h15v1h-15z M94,10h17v1h-17z M226,10h5v1h-5z M1,11h7v1h-7z M10,11h9v1h-9z M21,11h9v1h-9z M78,11h39v1h-39z M223,11h9v1h-9z M22,12h10v1h-10z M74,12h46v1h-46z M221,12h13v1h-13z M23,13h11v1h-11z M73,13h48v1h-48z M220,13h17v1h-17z M1,12h6v3h-6z M11,12h7v3h-7z M22,14h14v1h-14z M219,14h19v1h-19z M1,15h7v1h-7z M11,15h8v1h-8z M21,15h16v1h-16z M72,14h50v2h-50z M219,15h26v1h-26z M1,16h24v1h-24z M27,16h12v1h-12z M73,16h49v1h-49z M1,17h12v1h-12z M17,17h7v1h-7z M28,17h14v1h-14z M75,17h46v1h-46z M218,16h29v2h-29z M6,18h6v1h-6z M17,18h6v1h-6z M28,18h15v1h-15z M78,18h42v1h-42z M217,18h31v1h-31z M1,18h4v2h-4z M6,19h7v1h-7z M16,19h7v1h-7z M27,19h18v1h-18z M82,19h35v1h-35z M215,19h32v1h-32z M1,20h12v1h-12z M16,20h9v1h-9z M26,20h21v1h-21z M85,20h25v1h-25z M213,20h34v1h-34z M1,21h29v1h-29z M32,21h8v1h-8z M42,21h7v1h-7z M90,21h14v1h-14z M212,21h35v1h-35z M1,22h7v1h-7z M11,22h8v1h-8z M42,22h9v1h-9z M93,22h6v1h-6z M210,22h36v1h-36z M32,22h7v2h-7z M42,23h12v1h-12z M202,23h43v1h-43z M1,23h6v2h-6z M12,23h6v2h-6z M22,22h6v3h-6z M31,24h25v1h-25z M196,24h49v1h-49z M11,25h7v1h-7z M21,25h23v1h-23z M47,25h11v1h-11z M193,25h51v1h-51z M1,25h7v2h-7z M10,26h14v1h-14z M26,26h9v1h-9z M37,26h7v1h-7z M48,26h14v1h-14z M191,26h52v1h-52z M1,27h22v1h-22z M38,27h6v1h-6z M48,27h18v1h-18z M140,27h18v1h-18z M190,27h52v1h-52z M6,28h7v1h-7z M27,27h6v2h-6z M37,28h7v1h-7z M47,28h23v1h-23z M131,28h30v1h-30z M188,28h52v1h-52z M7,29h6v1h-6z M17,28h6v2h-6z M27,29h7v1h-7z M36,29h41v1h-41z M125,29h37v1h-37z M187,29h50v1h-50z M1,28h4v3h-4z M6,30h7v1h-7z M16,30h8v1h-8z M25,30h25v1h-25z M52,30h8v1h-8z M62,30h22v1h-22z M112,30h51v1h-51z M185,30h44v1h-44z M1,31h28v1h-28z M31,31h8v1h-8z M42,31h7v1h-7z M53,31h6v1h-6z M63,31h77v1h-77z M142,31h14v1h-14z M159,31h4v1h-4z M184,31h41v1h-41z M1,32h8v1h-8z M10,32h9v1h-9z M43,32h6v1h-6z M53,32h7v1h-7z M63,32h66v1h-66z M131,32h24v1h-24z M158,32h5v1h-5z M183,32h40v1h-40z M11,33h7v1h-7z M32,32h6v2h-6z M42,33h7v1h-7z M52,33h9v1h-9z M62,33h56v1h-56z M120,33h15v1h-15z M137,33h8v1h-8z M148,33h7v1h-7z M157,33h5v1h-5z M182,33h36v1h-36z M12,34h6v1h-6z M22,32h6v3h-6z M31,34h8v1h-8z M42,34h23v1h-23z M67,34h8v1h-8z M89,34h8v1h-8z M98,34h10v1h-10z M109,34h10v1h-10z M120,34h5v1h-5z M127,34h7v1h-7z M148,34h13v1h-13z M181,34h33v1h-33z M11,35h7v1h-7z M21,35h24v1h-24z M46,35h9v1h-9z M89,35h7v1h-7z M99,35h9v1h-9z M109,35h15v1h-15z M138,34h6v2h-6z M148,35h12v1h-12z M179,35h34v1h-34z M1,33h7v4h-7z M10,36h14v1h-14z M25,36h9v1h-9z M37,36h7v1h-7z M68,35h6v2h-6z M79,34h7v3h-7z M89,36h23v1h-23z M116,36h7v1h-7z M127,35h6v2h-6z M138,36h7v1h-7z M147,36h11v1h-11z M178,36h33v1h-33z M1,37h13v1h-13z M15,37h8v1h-8z M27,37h7v1h-7z M48,36h6v2h-6z M58,35h6v3h-6z M67,37h8v1h-8z M78,37h24v1h-24z M105,37h7v1h-7z M126,37h8v1h-8z M136,37h21v1h-21z M176,37h32v1h-32z M1,38h12v1h-12z M16,38h7v1h-7z M27,38h6v1h-6z M37,37h6v2h-6z M47,38h8v1h-8z M57,38h24v1h-24z M83,38h8v1h-8z M94,38h7v1h-7z M116,37h6v2h-6z M125,38h15v1h-15z M142,38h13v1h-13z M175,38h31v1h-31z M6,39h6v1h-6z M17,39h6v1h-6z M26,39h7v1h-7z M37,39h7v1h-7z M46,39h24v1h-24z M84,39h7v1h-7z M95,39h6v1h-6z M106,38h6v2h-6z M116,39h13v1h-13z M132,39h7v1h-7z M142,39h10v1h-10z M175,39h25v1h-25z M201,39h2v1h-2z M1,39h4v2h-4z M6,40h7v1h-7z M16,40h8v1h-8z M26,40h24v1h-24z M52,40h7v1h-7z M73,39h7v2h-7z M84,40h6v1h-6z M94,40h8v1h-8z M105,40h8v1h-8z M115,40h13v1h-13z M133,40h16v1h-16z M175,40h13v1h-13z M1,41h28v1h-28z M30,41h9v1h-9z M41,41h8v1h-8z M63,40h6v2h-6z M74,41h6v1h-6z M84,41h7v1h-7z M93,41h15v1h-15z M109,41h9v1h-9z M133,41h13v1h-13z M175,41h11v1h-11z M1,42h18v1h-18z M53,41h6v2h-6z M62,42h8v1h-8z M73,42h8v1h-8z M83,42h14v1h-14z M98,42h9v1h-9z M121,41h6v2h-6z M132,42h12v1h-12z M176,42h8v1h-8z M1,43h7v1h-7z M11,43h7v1h-7z M32,42h6v2h-6z M42,42h6v2h-6z M52,43h8v1h-8z M61,43h26v1h-26z M89,43h7v1h-7z M121,43h7v1h-7z M130,43h10v1h-10z M2,44h5v1h-5z M11,44h6v1h-6z M21,42h7v3h-7z M32,44h7v1h-7z M42,44h7v1h-7z M51,44h14v1h-14z M67,44h8v1h-8z M78,44h7v1h-7z M100,43h6v2h-6z M111,42h6v3h-6z M120,44h17v1h-17z M11,45h7v1h-7z M21,45h8v1h-8z M31,45h24v1h-24z M68,45h7v1h-7z M89,44h6v2h-6z M100,45h7v1h-7z M110,45h24v1h-24z M228,45h1v1h-1z M1,45h6v2h-6z M10,46h24v1h-24z M37,46h7v1h-7z M46,46h8v1h-8z M69,46h6v1h-6z M79,45h6v2h-6z M88,46h8v1h-8z M99,46h31v1h-31z M226,46h4v1h-4z M1,47h13v1h-13z M15,47h8v1h-8z M26,47h7v1h-7z M47,47h6v1h-6z M58,45h6v3h-6z M68,47h7v1h-7z M78,47h8v1h-8z M88,47h14v1h-14z M104,47h8v1h-8z M115,47h13v1h-13z M225,47h6v1h-6z M1,48h12v1h-12z M16,48h7v1h-7z M27,48h6v1h-6z M37,47h6v2h-6z M47,48h7v1h-7z M57,48h8v1h-8z M67,48h24v1h-24z M94,48h8v1h-8z M105,48h6v1h-6z M115,48h10v1h-10z M224,48h7v1h-7z M16,49h6v1h-6z M26,49h7v1h-7z M37,49h7v1h-7z M46,49h25v1h-25z M73,49h8v1h-8z M83,49h7v1h-7z M106,49h16v1h-16z M223,49h8v1h-8z M1,49h4v2h-4z M6,49h6v2h-6z M16,50h7v1h-7z M26,50h8v1h-8z M36,50h13v1h-13z M51,50h8v1h-8z M63,50h7v1h-7z M84,50h6v1h-6z M95,49h6v2h-6z M105,50h15v1h-15z M222,50h9v1h-9z M1,51h12v1h-12z M14,51h25v1h-25z M41,51h8v1h-8z M52,51h7v1h-7z M64,51h6v1h-6z M74,50h6v2h-6z M83,51h7v1h-7z M94,51h8v1h-8z M104,51h14v1h-14z M221,51h10v1h-10z M1,52h18v1h-18z M21,52h7v1h-7z M31,52h7v1h-7z M52,52h6v1h-6z M63,52h7v1h-7z M73,52h7v1h-7z M83,52h9v1h-9z M93,52h22v1h-22z M219,52h12v1h-12z M2,53h6v1h-6z M10,53h8v1h-8z M42,52h6v2h-6z M52,53h7v1h-7z M62,53h9v1h-9z M72,53h24v1h-24z M99,53h14v1h-14z M218,53h12v1h-12z M11,54h6v1h-6z M22,53h6v2h-6z M32,53h6v2h-6z M42,54h7v1h-7z M51,54h9v1h-9z M61,54h5v1h-5z M67,54h9v1h-9z M78,54h8v1h-8z M88,54h7v1h-7z M99,54h10v1h-10z M216,54h14v1h-14z M11,55h7v1h-7z M21,55h7v1h-7z M31,55h23v1h-23z M56,55h9v1h-9z M68,55h7v1h-7z M89,55h6v1h-6z M98,55h9v1h-9z M215,55h13v1h-13z M2,54h5v3h-5z M10,56h9v1h-9z M20,56h24v1h-24z M69,56h6v1h-6z M79,55h6v2h-6z M89,56h16v1h-16z M213,56h15v1h-15z M2,57h12v1h-12z M15,57h8v1h-8z M26,57h7v1h-7z M68,57h7v1h-7z M78,57h8v1h-8z M89,57h13v1h-13z M211,57h16v1h-16z M2,58h11v1h-11z M37,57h6v2h-6z M47,56h6v3h-6z M58,56h6v3h-6z M68,58h32v1h-32z M209,58h17v1h-17z M16,58h6v2h-6z M27,58h6v2h-6z M37,59h7v1h-7z M46,59h8v1h-8z M57,59h8v1h-8z M66,59h15v1h-15z M83,59h15v1h-15z M206,59h19v1h-19z M2,59h10v2h-10z M16,60h7v1h-7z M26,60h8v1h-8z M36,60h24v1h-24z M61,60h9v1h-9z M73,60h7v1h-7z M84,60h12v1h-12z M204,60h21v1h-21z M1,61h12v1h-12z M15,61h25v1h-25z M41,61h8v1h-8z M52,61h7v1h-7z M74,61h6v1h-6z M84,61h10v1h-10z M200,61h24v1h-24z M1,62h28v1h-28z M30,62h8v1h-8z M42,62h6v1h-6z M53,62h6v1h-6z M63,61h6v2h-6z M73,62h8v1h-8z M83,62h9v1h-9z M197,62h26v1h-26z M1,63h7v1h-7z M10,63h8v1h-8z M32,63h6v1h-6z M41,63h7v1h-7z M52,63h7v1h-7z M63,63h7v1h-7z M72,63h18v1h-18z M194,63h28v1h-28z M1,64h6v1h-6z M10,64h7v1h-7z M31,64h7v1h-7z M41,64h8v1h-8z M52,64h8v1h-8z M61,64h27v1h-27z M192,64h30v1h-30z M1,65h5v1h-5z M11,65h6v1h-6z M21,63h7v3h-7z M31,65h8v1h-8z M40,65h45v1h-45z M178,65h42v1h-42z M1,66h6v1h-6z M10,66h8v1h-8z M20,66h24v1h-24z M46,66h8v1h-8z M57,66h8v1h-8z M68,66h15v1h-15z M164,66h2v1h-2z M168,66h51v1h-51z M1,67h23v1h-23z M25,67h8v1h-8z M68,67h13v1h-13z M160,67h58v1h-58z M15,68h8v1h-8z M26,68h6v1h-6z M47,67h6v2h-6z M57,67h7v2h-7z M68,68h11v1h-11z M154,68h62v1h-62z M263,5h3v64h-3z M1,68h12v2h-12z M27,69h5v1h-5z M36,67h7v3h-7z M47,69h7v1h-7z M57,69h8v1h-8z M66,69h10v1h-10z M151,69h64v1h-64z M262,69h4v1h-4z M1,70h11v1h-11z M16,69h6v2h-6z M26,70h8v1h-8z M35,70h9v1h-9z M46,70h28v1h-28z M146,70h68v1h-68z M260,70h6v1h-6z M2,71h10v1h-10z M16,71h7v1h-7z M25,71h14v1h-14z M41,71h9v1h-9z M51,71h8v1h-8z M62,71h10v1h-10z M142,71h70v1h-70z M257,71h9v1h-9z M2,72h27v1h-27z M31,72h7v1h-7z M41,72h8v1h-8z M52,72h6v1h-6z M62,72h8v1h-8z M137,72h74v1h-74z M254,72h12v1h-12z M2,73h16v1h-16z M53,73h5v1h-5z M62,73h7v1h-7z M134,73h75v1h-75z M250,73h16v1h-16z M2,74h5v1h-5z M10,74h7v1h-7z M31,73h6v2h-6z M42,73h6v2h-6z M52,74h8v1h-8z M61,74h7v1h-7z M131,74h75v1h-75z M246,74h20v1h-20z M2,75h4v1h-4z M11,75h6v1h-6z M21,73h6v3h-6z M31,75h8v1h-8z M41,75h9v1h-9z M51,75h15v1h-15z M126,75h78v1h-78z M244,75h22v1h-22z M2,76h3v1h-3z M10,76h7v1h-7z M20,76h34v1h-34z M56,76h8v1h-8z M121,76h77v1h-77z M240,76h26v1h-26z M1,77h5v1h-5z M10,77h8v1h-8z M19,77h14v1h-14z M36,77h8v1h-8z M46,77h7v1h-7z M56,77h7v1h-7z M117,77h76v1h-76z M238,77h28v1h-28z M1,78h6v1h-6z M8,78h14v1h-14z M47,78h6v1h-6z M56,78h6v1h-6z M114,78h67v1h-67z M235,78h31v1h-31z M1,79h11v1h-11z M37,78h6v2h-6z M47,79h7v1h-7z M55,79h6v1h-6z M110,79h57v1h-57z M233,79h33v1h-33z M16,79h6v2h-6z M26,78h6v3h-6z M36,80h8v1h-8z M46,80h14v1h-14z M107,80h57v1h-57z M230,80h36v1h-36z M1,80h10v2h-10z M15,81h7v1h-7z M24,81h9v1h-9z M35,81h24v1h-24z M103,81h56v1h-56z M228,81h30v1h-30z M2,82h9v1h-9z M14,82h14v1h-14z M30,82h9v1h-9z M41,82h8v1h-8z M52,82h6v1h-6z M100,82h27v1h-27z M130,82h25v1h-25z M225,82h30v1h-30z M1,83h11v1h-11z M13,83h5v1h-5z M19,83h8v1h-8z M31,83h7v1h-7z M42,83h6v1h-6z M52,83h5v1h-5z M96,83h20v1h-20z M119,83h7v1h-7z M130,83h22v1h-22z M223,83h30v1h-30z M1,84h6v1h-6z M8,84h9v1h-9z M21,84h5v1h-5z M32,84h5v1h-5z M52,84h4v1h-4z M92,84h24v1h-24z M130,84h19v1h-19z M220,84h30v1h-30z M21,85h6v1h-6z M31,85h7v1h-7z M42,84h7v2h-7z M51,85h5v1h-5z M88,85h18v1h-18z M110,85h6v1h-6z M120,84h6v2h-6z M129,85h16v1h-16z M218,85h29v1h-29z M1,85h5v2h-5z M10,85h6v2h-6z M20,86h8v1h-8z M30,86h25v1h-25z M85,86h21v1h-21z M109,86h8v1h-8z M119,86h24v1h-24z M216,86h29v1h-29z M9,87h7v1h-7z M19,87h25v1h-25z M79,87h27v1h-27z M109,87h31v1h-31z M214,87h29v1h-29z M263,81h3v7h-3z M1,87h4v2h-4z M8,88h14v1h-14z M25,88h8v1h-8z M76,88h36v1h-36z M114,88h7v1h-7z M124,88h14v1h-14z M212,88h29v1h-29z M263,88h2v1h-2z M1,89h5v1h-5z M7,89h6v1h-6z M14,89h8v1h-8z M47,87h8v3h-8z M72,89h28v1h-28z M124,89h12v1h-12z M210,89h29v1h-29z M1,90h10v1h-10z M26,89h6v2h-6z M37,88h6v3h-6z M47,90h10v1h-10z M62,90h29v1h-29z M93,90h7v1h-7z M115,89h6v2h-6z M122,90h12v1h-12z M208,90h28v1h-28z M15,90h6v2h-6z M26,91h7v1h-7z M36,91h8v1h-8z M45,91h35v1h-35z M104,89h7v3h-7z M114,91h18v1h-18z M205,91h30v1h-30z M14,92h7v1h-7z M25,92h24v1h-24z M52,92h27v1h-27z M94,91h6v2h-6z M104,92h8v1h-8z M113,92h18v1h-18z M202,92h31v1h-31z M1,91h9v3h-9z M13,93h9v1h-9z M23,93h5v1h-5z M30,93h8v1h-8z M52,93h19v1h-19z M72,93h7v1h-7z M83,91h7v3h-7z M93,93h8v1h-8z M102,93h15v1h-15z M118,93h10v1h-10z M198,93h33v1h-33z M1,94h16v1h-16z M19,94h8v1h-8z M61,94h9v1h-9z M72,94h8v1h-8z M82,94h24v1h-24z M109,94h7v1h-7z M118,94h9v1h-9z M195,94h34v1h-34z M1,95h5v1h-5z M9,95h7v1h-7z M42,93h6v3h-6z M52,94h8v2h-8z M61,95h25v1h-25z M87,95h8v1h-8z M98,95h7v1h-7z M110,95h6v1h-6z M117,95h9v1h-9z M191,95h37v1h-37z M31,94h7v3h-7z M40,96h25v1h-25z M67,96h8v1h-8z M77,96h8v1h-8z M99,96h6v1h-6z M109,96h16v1h-16z M188,96h38v1h-38z M9,96h6v2h-6z M20,95h6v3h-6z M30,97h14v1h-14z M46,97h8v1h-8z M57,97h7v1h-7z M78,97h6v1h-6z M88,96h6v2h-6z M98,97h7v1h-7z M108,97h15v1h-15z M185,97h39v1h-39z M8,98h7v1h-7z M19,98h9v1h-9z M29,98h4v1h-4z M35,98h8v1h-8z M68,97h6v2h-6z M78,98h7v1h-7z M88,98h8v1h-8z M98,98h23v1h-23z M180,98h42v1h-42z M1,96h4v4h-4z M7,99h15v1h-15z M24,99h8v1h-8z M36,99h7v1h-7z M58,98h6v2h-6z M68,99h8v1h-8z M77,99h34v1h-34z M113,99h8v1h-8z M175,99h44v1h-44z M1,100h20v1h-20z M25,100h6v1h-6z M37,100h6v1h-6z M47,98h6v3h-6z M57,100h9v1h-9z M67,100h23v1h-23z M93,100h7v1h-7z M103,100h7v1h-7z M114,100h6v1h-6z M165,100h52v1h-52z M26,101h5v1h-5z M36,101h7v1h-7z M46,101h24v1h-24z M72,101h8v1h-8z M82,101h7v1h-7z M104,101h6v1h-6z M113,101h6v1h-6z M161,101h52v1h-52z M263,89h3v13h-3z M14,101h6v2h-6z M25,102h7v1h-7z M35,102h24v1h-24z M62,102h7v1h-7z M83,102h6v1h-6z M94,101h6v2h-6z M104,102h13v1h-13z M152,102h59v1h-59z M262,102h4v1h-4z M1,101h9v3h-9z M14,103h7v1h-7z M24,103h14v1h-14z M52,103h7v1h-7z M73,102h7v2h-7z M82,103h8v1h-8z M93,103h8v1h-8z M102,103h14v1h-14z M143,103h66v1h-66z M1,104h10v1h-10z M13,104h9v1h-9z M24,104h4v1h-4z M30,104h7v1h-7z M53,104h5v1h-5z M63,103h6v2h-6z M73,104h33v1h-33z M107,104h8v1h-8z M135,104h71v1h-71z M1,105h16v1h-16z M18,105h9v1h-9z M42,103h6v3h-6z M52,105h7v1h-7z M62,105h33v1h-33z M98,105h7v1h-7z M108,105h7v1h-7z M128,105h74v1h-74z M8,106h8v1h-8z M19,106h7v1h-7z M30,105h6v2h-6z M41,106h7v1h-7z M51,106h14v1h-14z M67,106h8v1h-8z M99,106h6v1h-6z M108,106h6v1h-6z M124,106h75v1h-75z M263,103h2v4h-2z M30,107h7v1h-7z M40,107h24v1h-24z M98,107h15v1h-15z M120,107h76v1h-76z M9,107h6v2h-6z M20,107h6v2h-6z M29,108h9v1h-9z M40,108h3v1h-3z M46,108h8v1h-8z M57,108h6v1h-6z M68,107h6v2h-6z M78,106h7v3h-7z M88,106h7v3h-7z M97,108h15v1h-15z M117,108h74v1h-74z M1,106h4v4h-4z M9,109h7v1h-7z M19,109h13v1h-13z M34,109h9v1h-9z M58,109h5v1h-5z M67,109h8v1h-8z M77,109h34v1h-34z M114,109h71v1h-71z M1,110h21v1h-21z M24,110h8v1h-8z M47,109h6v2h-6z M57,110h7v1h-7z M67,110h14v1h-14z M83,110h17v1h-17z M103,110h8v1h-8z M112,110h20v1h-20z M133,110h48v1h-48z M1,111h10v1h-10z M14,111h7v1h-7z M46,111h9v1h-9z M56,111h15v1h-15z M72,111h8v1h-8z M83,111h7v1h-7z M103,111h71v1h-71z M14,112h6v1h-6z M36,110h6v3h-6z M45,112h15v1h-15z M61,112h8v1h-8z M84,112h6v1h-6z M93,111h7v2h-7z M102,112h34v1h-34z M139,112h31v1h-31z M1,112h9v2h-9z M24,111h7v3h-7z M35,113h14v1h-14z M73,112h6v2h-6z M83,113h7v1h-7z M93,113h33v1h-33z M128,113h7v1h-7z M139,113h27v1h-27z M263,107h3v7h-3z M1,114h10v1h-10z M14,113h7v2h-7z M23,114h15v1h-15z M40,114h8v1h-8z M52,113h6v2h-6z M63,113h6v2h-6z M72,114h8v1h-8z M82,114h34v1h-34z M118,114h7v1h-7z M139,114h23v1h-23z M1,115h25v1h-25z M29,115h8v1h-8z M52,115h7v1h-7z M62,115h8v1h-8z M71,115h15v1h-15z M98,115h17v1h-17z M119,115h6v1h-6z M129,114h6v2h-6z M138,115h21v1h-21z M1,116h6v1h-6z M8,116h8v1h-8z M19,116h7v1h-7z M41,115h6v2h-6z M51,116h9v1h-9z M61,116h14v1h-14z M78,116h7v1h-7z M88,115h7v2h-7z M99,116h7v1h-7z M109,116h7v1h-7z M119,116h7v1h-7z M128,116h28v1h-28z M262,114h4v3h-4z M30,116h6v2h-6z M40,117h8v1h-8z M50,117h15v1h-15z M67,117h7v1h-7z M78,117h6v1h-6z M89,117h6v1h-6z M98,117h8v1h-8z M109,117h22v1h-22z M133,117h20v1h-20z M9,117h6v2h-6z M19,117h6v2h-6z M29,118h8v1h-8z M40,118h14v1h-14z M68,118h6v1h-6z M78,118h7v1h-7z M88,118h8v1h-8z M98,118h22v1h-22z M134,118h16v1h-16z M1,117h4v3h-4z M9,119h7v1h-7z M19,119h7v1h-7z M29,119h14v1h-14z M46,119h7v1h-7z M57,118h6v2h-6z M67,119h7v1h-7z M78,119h8v1h-8z M87,119h14v1h-14z M103,119h8v1h-8z M134,119h14v1h-14z M262,117h3v3h-3z M1,120h5v1h-5z M7,120h25v1h-25z M34,120h8v1h-8z M46,120h6v1h-6z M57,120h7v1h-7z M67,120h8v1h-8z M77,120h4v1h-4z M82,120h8v1h-8z M93,120h7v1h-7z M103,120h7v1h-7z M114,119h6v2h-6z M124,118h6v3h-6z M133,120h13v1h-13z M1,121h10v1h-10z M13,121h8v1h-8z M24,121h7v1h-7z M56,121h24v1h-24z M83,121h7v1h-7z M114,121h7v1h-7z M123,121h21v1h-21z M24,122h6v1h-6z M35,121h6v2h-6z M46,121h7v2h-7z M56,122h4v1h-4z M61,122h8v1h-8z M72,122h7v1h-7z M83,122h6v1h-6z M94,121h6v2h-6z M104,121h6v2h-6z M113,122h14v1h-14z M128,122h14v1h-14z M14,122h6v2h-6z M24,123h7v1h-7z M35,123h7v1h-7z M45,123h14v1h-14z M62,123h6v1h-6z M83,123h7v1h-7z M93,123h33v1h-33z M129,123h12v1h-12z M1,122h9v3h-9z M14,124h7v1h-7z M23,124h9v1h-9z M34,124h14v1h-14z M51,124h7v1h-7z M63,124h5v1h-5z M73,123h6v2h-6z M83,124h23v1h-23z M107,124h9v1h-9z M118,124h7v1h-7z M129,124h11v1h-11z M1,125h36v1h-36z M40,125h7v1h-7z M52,125h6v1h-6z M62,125h7v1h-7z M72,125h8v1h-8z M81,125h5v1h-5z M98,125h7v1h-7z M108,125h7v1h-7z M119,125h7v1h-7z M128,125h11v1h-11z M263,120h2v6h-2z M1,126h15v1h-15z M18,126h8v1h-8z M29,126h7v1h-7z M51,126h7v1h-7z M61,126h15v1h-15z M77,126h8v1h-8z M99,126h6v1h-6z M108,126h8v1h-8z M118,126h20v1h-20z M1,127h5v1h-5z M8,127h8v1h-8z M41,126h6v2h-6z M51,127h13v1h-13z M67,127h7v1h-7z M98,127h8v1h-8z M107,127h30v1h-30z M1,128h4v1h-4z M9,128h7v1h-7z M19,127h7v2h-7z M30,127h6v2h-6z M40,128h8v1h-8z M50,128h4v1h-4z M55,128h8v1h-8z M67,128h6v1h-6z M78,127h6v2h-6z M88,125h7v4h-7z M97,128h24v1h-24z M123,128h13v1h-13z M262,126h3v3h-3z M1,129h5v1h-5z M8,129h18v1h-18z M29,129h8v1h-8z M39,129h14v1h-14z M68,129h6v1h-6z M78,129h7v1h-7z M87,129h24v1h-24z M112,129h8v1h-8z M263,129h3v1h-3z M1,130h52v1h-52z M56,129h7v2h-7z M67,130h7v1h-7z M77,130h14v1h-14z M92,130h9v1h-9z M103,130h8v1h-8z M113,130h8v1h-8z M123,129h11v2h-11z M262,130h3v1h-3z M1,131h149v1h-149z M154,131h38v1h-38z M194,131h34v1h-34z M229,131h1v1h-1z M234,131h2v1h-2z M244,131h3v1h-3z M261,131h4v1h-4z M2,132h263v2h-263z M64,134h4v1h-4z M72,134h2v1h-2z M84,134h5v1h-5z M105,134h3v1h-3z M118,134h12v1h-12z M135,134h3v1h-3z M142,134h7v1h-7z M156,134h6v1h-6z M165,134h59v1h-59z M226,134h39v1h-39z
  "/>
</svg>