<?xml version="1.0" encoding="UTF-8"?>
<svg xmlns="http://www.w3.org/2000/svg" viewBox="0 0 267 140" width="267" height="140">
  <title>69 Brecciated rock</title>
  <path fill="#111111" fill-rule="nonzero" d="
    M18,0h2v1h-2z M17,1h4v1h-4z M17,2h5v1h-5z M49,2h2v1h-2z M179,2h4v1h-4z M185,2h4v1h-4z M195,2h5v1h-5z M201,2h4v1h-4z M207,2h2v1h-2z M215,2h10v1h-10z M2,3h263v1h-263z M1,4h265v2h-265z M1,6h15v1h-15z M17,6h16v1h-16z M34,6h3v1h-3z M39,6h29v1h-29z M75,6h18v1h-18z M95,6h5v1h-5z M102,6h9v1h-9z M127,6h7v1h-7z M138,6h5v1h-5z M154,6h12v1h-12z M172,6h8v1h-8z M198,6h6v1h-6z M205,6h11v1h-11z M230,6h5v1h-5z M239,6h4v1h-4z M251,6h7v1h-7z M261,6h5v1h-5z M1,7h4v1h-4z M18,7h3v1h-3z M41,7h8v1h-8z M75,7h15v1h-15z M104,7h5v1h-5z M129,7h5v1h-5z M153,7h12v1h-12z M174,7h5v1h-5z M190,6h2v2h-2z M205,7h10v1h-10z M231,7h3v1h-3z M239,7h3v1h-3z M262,7h4v1h-4z M40,8h9v1h-9z M73,8h16v1h-16z M105,8h5v1h-5z M129,8h4v1h-4z M151,8h15v1h-15z M174,8h6v1h-6z M189,8h4v1h-4z M199,7h4v2h-4z M204,8h5v1h-5z M210,8h5v1h-5z M220,8h4v1h-4z M239,8h4v1h-4z M39,9h11v1h-11z M71,9h17v1h-17z M106,9h4v1h-4z M128,9h5v1h-5z M138,7h4v3h-4z M150,9h17v1h-17z M175,9h5v1h-5z M201,9h7v1h-7z M211,9h4v1h-4z M220,9h5v1h-5z M1,8h3v3h-3z M18,8h4v3h-4z M38,10h6v1h-6z M46,10h5v1h-5z M68,10h11v1h-11z M106,10h5v1h-5z M127,10h6v1h-6z M146,10h14v1h-14z M162,10h8v1h-8z M177,10h2v1h-2z M188,9h4v2h-4z M202,10h5v1h-5z M212,10h3v1h-3z M220,10h7v1h-7z M239,9h5v2h-5z M1,11h4v1h-4z M37,11h5v1h-5z M47,11h5v1h-5z M65,11h10v1h-10z M82,10h5v2h-5z M108,11h4v1h-4z M126,11h7v1h-7z M138,10h3v2h-3z M145,11h14v1h-14z M163,11h9v1h-9z M187,11h5v1h-5z M202,11h4v1h-4z M221,11h6v1h-6z M231,8h4v4h-4z M240,11h5v1h-5z M255,11h2v1h-2z M1,12h5v1h-5z M36,12h5v1h-5z M47,12h7v1h-7z M60,12h14v1h-14z M82,12h4v1h-4z M108,12h5v1h-5z M126,12h8v1h-8z M139,12h12v1h-12z M163,12h12v1h-12z M187,12h4v1h-4z M201,12h5v1h-5z M212,11h4v2h-4z M223,12h4v1h-4z M231,12h3v1h-3z M241,12h4v1h-4z M254,12h3v1h-3z M1,13h8v1h-8z M35,13h5v1h-5z M46,13h9v1h-9z M58,13h12v1h-12z M81,13h4v1h-4z M109,13h5v1h-5z M125,13h9v1h-9z M139,13h9v1h-9z M154,12h4v2h-4z M164,13h13v1h-13z M188,13h2v1h-2z M200,13h5v1h-5z M212,13h7v1h-7z M242,13h2v1h-2z M252,13h5v1h-5z M263,8h3v6h-3z M1,14h11v1h-11z M19,11h3v4h-3z M33,14h6v1h-6z M45,14h20v1h-20z M71,14h2v1h-2z M80,14h5v1h-5z M107,14h8v1h-8z M125,14h3v1h-3z M137,14h8v1h-8z M165,14h15v1h-15z M200,14h4v1h-4z M213,14h9v1h-9z M250,14h6v1h-6z M262,14h4v1h-4z M1,15h14v1h-14z M18,15h4v1h-4z M32,15h6v1h-6z M52,15h10v1h-10z M70,15h4v1h-4z M80,15h4v1h-4z M104,15h11v1h-11z M124,15h4v1h-4z M130,14h4v2h-4z M136,15h8v1h-8z M153,14h4v2h-4z M172,15h10v1h-10z M199,15h5v1h-5z M213,15h11v1h-11z M250,15h5v1h-5z M260,15h6v1h-6z M7,16h15v1h-15z M30,16h6v1h-6z M45,15h4v2h-4z M53,16h6v1h-6z M69,16h5v1h-5z M102,16h14v1h-14z M123,16h4v1h-4z M130,16h13v1h-13z M165,15h5v2h-5z M175,16h10v1h-10z M213,16h14v1h-14z M231,13h4v4h-4z M249,16h5v1h-5z M259,16h7v1h-7z M8,17h14v1h-14z M29,17h6v1h-6z M44,17h4v1h-4z M54,17h5v1h-5z M68,17h6v1h-6z M79,16h4v2h-4z M99,17h10v1h-10z M112,17h5v1h-5z M130,17h14v1h-14z M152,16h4v2h-4z M163,17h7v1h-7z M176,17h12v1h-12z M198,16h5v2h-5z M213,17h4v1h-4z M219,17h10v1h-10z M230,17h5v1h-5z M251,17h1v1h-1z M258,17h8v1h-8z M28,18h6v1h-6z M55,18h5v1h-5z M67,18h8v1h-8z M78,18h5v1h-5z M96,18h11v1h-11z M113,18h5v1h-5z M122,17h4v2h-4z M130,18h6v1h-6z M140,18h6v1h-6z M161,18h10v1h-10z M175,18h4v1h-4z M181,18h8v1h-8z M197,18h4v1h-4z M205,18h2v1h-2z M221,18h14v1h-14z M257,18h9v1h-9z M11,18h11v2h-11z M26,19h7v1h-7z M44,18h3v2h-3z M56,19h5v1h-5z M66,19h9v1h-9z M77,19h5v1h-5z M95,19h10v1h-10z M114,19h4v1h-4z M121,19h4v1h-4z M129,19h6v1h-6z M141,19h6v1h-6z M151,18h4v2h-4z M158,19h13v1h-13z M173,19h7v1h-7z M183,19h8v1h-8z M196,19h4v1h-4z M204,19h5v1h-5z M225,19h10v1h-10z M256,19h10v1h-10z M11,20h5v1h-5z M17,20h5v1h-5z M25,20h6v1h-6z M43,20h3v1h-3z M57,20h5v1h-5z M65,20h10v1h-10z M76,20h6v1h-6z M93,20h8v1h-8z M115,20h10v1h-10z M129,20h5v1h-5z M142,20h6v1h-6z M150,20h15v1h-15z M167,20h13v1h-13z M184,20h8v1h-8z M195,20h5v1h-5z M204,20h6v1h-6z M214,18h3v3h-3z M227,20h9v1h-9z M254,20h6v1h-6z M0,16h4v6h-4z M18,21h4v1h-4z M25,21h5v1h-5z M59,21h10v1h-10z M71,21h12v1h-12z M89,21h10v1h-10z M116,21h8v1h-8z M143,21h5v1h-5z M149,21h14v1h-14z M168,21h11v1h-11z M184,21h15v1h-15z M205,21h6v1h-6z M229,21h9v1h-9z M253,21h6v1h-6z M10,21h4v2h-4z M18,22h11v1h-11z M42,21h4v2h-4z M60,22h8v1h-8z M71,22h13v1h-13z M86,22h10v1h-10z M116,22h7v1h-7z M145,22h16v1h-16z M176,22h3v1h-3z M184,22h4v1h-4z M191,22h8v1h-8z M206,22h5v1h-5z M224,22h1v1h-1z M232,22h8v1h-8z M251,22h7v1h-7z M10,23h3v1h-3z M19,23h9v1h-9z M42,23h3v1h-3z M60,23h7v1h-7z M71,23h24v1h-24z M147,23h11v1h-11z M168,22h6v2h-6z M183,23h4v1h-4z M192,23h8v1h-8z M208,23h3v1h-3z M233,23h9v1h-9z M250,23h7v1h-7z M9,24h4v1h-4z M19,24h8v1h-8z M41,24h4v1h-4z M60,24h6v1h-6z M72,24h7v1h-7z M80,24h12v1h-12z M117,23h5v2h-5z M148,24h6v1h-6z M167,24h7v1h-7z M182,24h5v1h-5z M195,24h7v1h-7z M209,24h1v1h-1z M214,21h4v4h-4z M233,24h10v1h-10z M248,24h7v1h-7z M1,22h3v4h-3z M8,25h4v1h-4z M19,25h6v1h-6z M41,25h3v1h-3z M58,25h6v1h-6z M81,25h9v1h-9z M116,25h5v1h-5z M147,25h5v1h-5z M167,25h8v1h-8z M181,25h5v1h-5z M197,25h8v1h-8z M213,25h6v1h-6z M223,23h4v3h-4z M233,25h11v1h-11z M247,25h6v1h-6z M258,25h1v1h-1z M8,26h3v1h-3z M19,26h5v1h-5z M58,26h5v1h-5z M72,25h5v2h-5z M82,26h6v1h-6z M147,26h4v1h-4z M156,26h3v1h-3z M166,26h5v1h-5z M172,26h4v1h-4z M181,26h4v1h-4z M199,26h8v1h-8z M212,26h7v1h-7z M232,26h5v1h-5z M239,26h12v1h-12z M19,27h4v1h-4z M40,26h4v2h-4z M57,27h5v1h-5z M83,27h6v1h-6z M115,26h6v2h-6z M129,21h4v7h-4z M146,27h4v1h-4z M155,27h5v1h-5z M165,27h5v1h-5z M172,27h5v1h-5z M180,27h4v1h-4z M189,27h3v1h-3z M201,27h18v1h-18z M223,26h3v2h-3z M231,27h5v1h-5z M241,27h9v1h-9z M257,26h3v2h-3z M7,27h4v2h-4z M40,28h5v1h-5z M55,28h6v1h-6z M72,27h4v2h-4z M85,28h4v1h-4z M114,28h20v1h-20z M145,28h5v1h-5z M155,28h6v1h-6z M173,28h4v1h-4z M179,28h5v1h-5z M203,28h17v1h-17z M230,28h5v1h-5z M243,28h7v1h-7z M7,29h3v1h-3z M39,29h6v1h-6z M54,29h6v1h-6z M86,29h5v1h-5z M113,29h26v1h-26z M145,29h4v1h-4z M156,29h6v1h-6z M165,28h4v2h-4z M174,29h9v1h-9z M188,28h4v2h-4z M203,29h10v1h-10z M215,29h5v1h-5z M229,29h5v1h-5z M244,29h7v1h-7z M256,28h4v2h-4z M6,30h4v1h-4z M19,28h3v3h-3z M39,30h7v1h-7z M53,30h5v1h-5z M72,29h3v2h-3z M86,30h6v1h-6z M113,30h36v1h-36z M157,30h5v1h-5z M174,30h8v1h-8z M187,30h4v1h-4z M203,30h8v1h-8z M216,30h4v1h-4z M228,30h6v1h-6z M246,30h6v1h-6z M257,30h2v1h-2z M0,26h4v6h-4z M6,31h3v1h-3z M19,31h4v1h-4z M38,31h8v1h-8z M52,31h5v1h-5z M87,31h6v1h-6z M122,31h26v1h-26z M159,31h3v1h-3z M164,30h4v2h-4z M175,31h7v1h-7z M201,31h8v1h-8z M247,31h7v1h-7z M1,32h8v1h-8z M18,32h28v1h-28z M51,32h5v1h-5z M89,32h5v1h-5z M111,31h6v2h-6z M132,32h15v1h-15z M160,32h1v1h-1z M163,32h5v1h-5z M175,32h6v1h-6z M186,31h4v2h-4z M198,32h8v1h-8z M217,31h3v2h-3z M227,31h7v2h-7z M249,32h6v1h-6z M1,33h40v1h-40z M43,33h3v1h-3z M50,33h5v1h-5z M90,33h5v1h-5z M110,33h7v1h-7z M133,33h14v1h-14z M163,33h4v1h-4z M187,33h2v1h-2z M197,33h8v1h-8z M226,33h9v1h-9z M250,33h7v1h-7z M0,34h41v1h-41z M43,34h4v1h-4z M49,34h5v1h-5z M91,34h5v1h-5z M142,34h4v1h-4z M153,34h2v1h-2z M162,34h4v1h-4z M195,34h7v1h-7z M225,34h5v1h-5z M231,34h4v1h-4z M252,34h8v1h-8z M263,20h3v15h-3z M1,35h21v1h-21z M23,35h2v1h-2z M30,35h10v1h-10z M43,35h10v1h-10z M92,35h5v1h-5z M109,34h10v2h-10z M134,34h5v2h-5z M142,35h3v1h-3z M151,35h5v1h-5z M161,35h5v1h-5z M193,35h8v1h-8z M217,33h4v3h-4z M224,35h5v1h-5z M232,35h4v1h-4z M253,35h8v1h-8z M262,35h4v1h-4z M1,36h12v1h-12z M32,36h7v1h-7z M44,36h8v1h-8z M92,36h7v1h-7z M108,36h11v1h-11z M134,36h4v1h-4z M150,36h6v1h-6z M161,36h4v1h-4z M192,36h9v1h-9z M208,36h3v1h-3z M217,36h11v1h-11z M232,36h5v1h-5z M243,36h5v1h-5z M255,36h11v1h-11z M1,37h6v1h-6z M31,37h7v1h-7z M44,37h6v1h-6z M89,37h11v1h-11z M115,37h4v1h-4z M141,36h5v2h-5z M150,37h5v1h-5z M161,37h3v1h-3z M168,37h5v1h-5z M176,33h4v5h-4z M190,37h12v1h-12z M207,37h6v1h-6z M218,37h9v1h-9z M233,37h4v1h-4z M243,37h6v1h-6z M257,37h9v1h-9z M31,38h5v1h-5z M85,38h17v1h-17z M107,37h5v2h-5z M115,38h5v1h-5z M133,37h5v2h-5z M140,38h6v1h-6z M149,38h5v1h-5z M160,38h4v1h-4z M188,38h15v1h-15z M208,38h6v1h-6z M218,38h8v1h-8z M233,38h5v1h-5z M243,38h7v1h-7z M258,38h8v1h-8z M29,39h6v1h-6z M82,39h21v1h-21z M106,39h5v1h-5z M116,39h5v1h-5z M132,39h6v1h-6z M139,39h7v1h-7z M149,39h4v1h-4z M159,39h5v1h-5z M167,38h7v2h-7z M186,39h17v1h-17z M209,39h6v1h-6z M218,39h7v1h-7z M234,39h5v1h-5z M245,39h4v1h-4z M259,39h7v1h-7z M1,38h5v3h-5z M28,40h5v1h-5z M72,31h4v10h-4z M79,40h16v1h-16z M97,40h13v1h-13z M133,40h4v1h-4z M150,40h1v1h-1z M159,40h4v1h-4z M168,40h5v1h-5z M184,40h13v1h-13z M211,40h3v1h-3z M218,40h6v1h-6z M235,40h5v1h-5z M258,40h8v1h-8z M1,41h6v1h-6z M26,41h6v1h-6z M45,38h4v4h-4z M72,41h21v1h-21z M99,41h10v1h-10z M117,40h4v2h-4z M133,41h3v1h-3z M138,40h9v2h-9z M158,41h5v1h-5z M175,38h4v4h-4z M181,41h8v1h-8z M192,41h5v1h-5z M200,40h4v2h-4z M218,41h5v1h-5z M228,41h2v1h-2z M236,41h5v1h-5z M255,41h11v1h-11z M1,42h7v1h-7z M26,42h5v1h-5z M71,42h21v1h-21z M100,42h8v1h-8z M118,42h4v1h-4z M137,42h5v1h-5z M143,42h4v1h-4z M158,42h6v1h-6z M175,42h13v1h-13z M192,42h4v1h-4z M218,42h4v1h-4z M237,42h4v1h-4z M254,42h12v1h-12z M0,43h9v1h-9z M25,43h6v1h-6z M46,42h3v2h-3z M69,43h12v1h-12z M83,43h8v1h-8z M119,43h4v1h-4z M136,43h5v1h-5z M143,43h5v1h-5z M158,43h7v1h-7z M175,43h11v1h-11z M191,43h4v1h-4z M201,42h4v2h-4z M217,43h4v1h-4z M238,43h4v1h-4z M253,43h7v1h-7z M0,44h10v1h-10z M23,44h8v1h-8z M46,44h4v1h-4z M64,44h15v1h-15z M83,44h9v1h-9z M101,43h6v2h-6z M120,44h3v1h-3z M157,44h8v1h-8z M174,44h10v1h-10z M190,44h5v1h-5z M202,44h4v1h-4z M216,44h4v1h-4z M238,44h5v1h-5z M250,44h8v1h-8z M0,45h5v1h-5z M6,45h5v1h-5z M22,45h10v1h-10z M47,45h3v1h-3z M59,45h16v1h-16z M101,45h5v1h-5z M120,45h4v1h-4z M135,44h5v2h-5z M144,44h4v2h-4z M157,45h9v1h-9z M174,45h8v1h-8z M190,45h4v1h-4z M202,45h5v1h-5z M215,45h5v1h-5z M228,42h3v4h-3z M239,45h4v1h-4z M248,45h9v1h-9z M1,46h4v1h-4z M7,46h5v1h-5z M21,46h5v1h-5z M28,46h5v1h-5z M47,46h4v1h-4z M55,46h15v1h-15z M81,45h12v2h-12z M100,46h5v1h-5z M121,46h4v1h-4z M134,46h5v1h-5z M145,46h3v1h-3z M162,46h4v1h-4z M174,46h5v1h-5z M190,46h3v1h-3z M203,46h4v1h-4z M214,46h5v1h-5z M227,46h4v1h-4z M8,47h6v1h-6z M19,47h6v1h-6z M29,47h4v1h-4z M47,47h21v1h-21z M79,47h6v1h-6z M89,47h6v1h-6z M99,47h5v1h-5z M134,47h4v1h-4z M156,46h4v2h-4z M163,47h4v1h-4z M189,47h4v1h-4z M203,47h5v1h-5z M213,47h5v1h-5z M228,47h3v1h-3z M9,48h6v1h-6z M18,48h7v1h-7z M30,48h5v1h-5z M46,48h16v1h-16z M64,48h1v1h-1z M78,48h7v1h-7z M89,48h7v1h-7z M98,48h5v1h-5z M122,47h4v2h-4z M133,48h5v1h-5z M145,47h4v2h-4z M155,48h4v1h-4z M164,48h3v1h-3z M189,48h3v1h-3z M204,48h4v1h-4z M220,48h2v1h-2z M228,48h2v1h-2z M240,46h17v3h-17z M10,49h14v1h-14z M31,49h5v1h-5z M43,49h16v1h-16z M91,49h11v1h-11z M123,49h4v1h-4z M139,49h2v1h-2z M145,49h5v1h-5z M164,49h4v1h-4z M188,49h4v1h-4z M197,48h3v2h-3z M205,49h3v1h-3z M212,48h5v2h-5z M239,49h9v1h-9z M252,49h5v1h-5z M258,49h1v1h-1z M11,50h14v1h-14z M32,50h19v1h-19z M53,50h6v1h-6z M75,49h10v2h-10z M92,50h9v1h-9z M124,50h4v1h-4z M132,49h5v2h-5z M154,49h4v2h-4z M164,50h5v1h-5z M174,47h4v4h-4z M180,50h2v1h-2z M205,50h5v1h-5z M211,50h5v1h-5z M237,50h10v1h-10z M257,50h4v1h-4z M263,43h3v8h-3z M13,51h7v1h-7z M33,51h16v1h-16z M73,51h7v1h-7z M94,51h7v1h-7z M123,51h6v1h-6z M131,51h5v1h-5z M138,50h12v2h-12z M165,51h5v1h-5z M173,51h10v1h-10z M187,50h4v2h-4z M196,50h4v2h-4z M205,51h10v1h-10z M219,49h4v3h-4z M233,51h12v1h-12z M13,52h5v1h-5z M35,52h10v1h-10z M72,52h6v1h-6z M82,51h3v2h-3z M95,52h6v1h-6z M122,52h13v1h-13z M139,52h12v1h-12z M153,51h4v2h-4z M159,52h2v1h-2z M173,52h11v1h-11z M196,52h3v1h-3z M220,52h1v1h-1z M230,52h11v1h-11z M242,52h1v1h-1z M251,50h4v3h-4z M257,51h9v2h-9z M12,53h5v1h-5z M36,53h6v1h-6z M70,53h6v1h-6z M96,53h6v1h-6z M121,53h14v1h-14z M142,53h3v1h-3z M159,53h3v1h-3z M166,52h4v2h-4z M174,53h4v1h-4z M180,53h4v1h-4z M197,53h1v1h-1z M206,52h8v2h-8z M218,53h22v1h-22z M242,53h2v1h-2z M251,53h3v1h-3z M258,53h3v1h-3z M10,54h6v1h-6z M37,54h5v1h-5z M55,51h3v4h-3z M68,54h7v1h-7z M98,54h5v1h-5z M119,54h16v1h-16z M147,53h9v2h-9z M159,54h4v1h-4z M167,54h4v1h-4z M181,54h3v1h-3z M186,52h4v3h-4z M206,54h29v1h-29z M241,54h5v1h-5z M250,54h4v1h-4z M263,53h3v2h-3z M10,55h5v1h-5z M38,55h5v1h-5z M54,55h4v1h-4z M67,55h6v1h-6z M82,53h4v3h-4z M99,55h6v1h-6z M118,55h7v1h-7z M127,55h13v1h-13z M159,55h5v1h-5z M167,55h5v1h-5z M173,54h4v2h-4z M185,55h4v1h-4z M203,55h32v1h-32z M241,55h6v1h-6z M262,55h4v1h-4z M9,56h5v1h-5z M38,56h6v1h-6z M65,56h6v1h-6z M82,56h5v1h-5z M100,56h6v1h-6z M117,56h6v1h-6z M128,56h15v1h-15z M148,55h7v2h-7z M168,56h9v1h-9z M185,56h5v1h-5z M199,56h37v1h-37z M242,56h5v1h-5z M250,55h3v2h-3z M260,56h6v1h-6z M8,57h5v1h-5z M21,51h4v7h-4z M38,57h7v1h-7z M64,57h6v1h-6z M83,57h4v1h-4z M101,57h6v1h-6z M116,57h6v1h-6z M129,57h16v1h-16z M148,57h6v1h-6z M160,56h4v2h-4z M169,57h7v1h-7z M184,57h35v1h-35z M226,57h11v1h-11z M244,57h3v1h-3z M1,47h3v12h-3z M6,58h6v1h-6z M37,58h10v1h-10z M54,56h3v3h-3z M62,58h6v1h-6z M83,58h5v1h-5z M102,58h6v1h-6z M115,58h6v1h-6z M130,58h5v1h-5z M137,58h16v1h-16z M161,58h3v1h-3z M184,58h27v1h-27z M227,58h12v1h-12z M249,57h18v2h-18z M1,59h10v1h-10z M35,59h6v1h-6z M42,59h6v1h-6z M60,59h7v1h-7z M103,59h6v1h-6z M113,59h6v1h-6z M140,59h13v1h-13z M170,58h6v2h-6z M183,59h21v1h-21z M208,59h2v1h-2z M227,59h4v1h-4z M233,59h7v1h-7z M249,59h17v1h-17z M1,60h9v1h-9z M35,60h5v1h-5z M44,60h5v1h-5z M53,59h4v2h-4z M59,60h8v1h-8z M104,60h14v1h-14z M131,59h4v2h-4z M142,60h12v1h-12z M182,60h15v1h-15z M199,60h5v1h-5z M234,60h8v1h-8z M248,60h13v1h-13z M262,60h4v1h-4z M0,61h8v1h-8z M33,61h6v1h-6z M45,61h5v1h-5z M53,61h14v1h-14z M106,61h11v1h-11z M132,61h4v1h-4z M142,61h14v1h-14z M171,60h5v2h-5z M182,61h4v1h-4z M190,61h5v1h-5z M200,61h4v1h-4z M207,60h5v2h-5z M233,61h10v1h-10z M248,61h5v1h-5z M32,62h6v1h-6z M46,62h21v1h-21z M84,59h4v4h-4z M107,62h8v1h-8z M133,62h3v1h-3z M142,62h3v1h-3z M149,62h11v1h-11z M191,62h4v1h-4z M226,60h4v3h-4z M238,62h6v1h-6z M248,62h4v1h-4z M0,62h7v2h-7z M30,63h6v1h-6z M46,63h15v1h-15z M62,63h6v1h-6z M85,63h3v1h-3z M107,63h6v1h-6z M133,63h4v1h-4z M150,63h14v1h-14z M172,62h4v2h-4z M181,62h4v2h-4z M201,62h4v2h-4z M208,62h5v2h-5z M232,62h4v2h-4z M239,63h7v1h-7z M247,63h5v1h-5z M263,61h3v3h-3z M0,64h10v1h-10z M29,64h7v1h-7z M63,64h6v1h-6z M108,64h4v1h-4z M141,63h4v2h-4z M152,64h14v1h-14z M172,64h3v1h-3z M201,64h5v1h-5z M210,64h2v1h-2z M217,64h2v1h-2z M225,63h4v2h-4z M232,64h3v1h-3z M241,64h10v1h-10z M258,64h8v1h-8z M0,65h12v1h-12z M28,65h6v1h-6z M46,64h13v2h-13z M63,65h8v1h-8z M134,64h4v2h-4z M141,65h3v1h-3z M151,65h18v1h-18z M171,65h4v1h-4z M180,64h4v2h-4z M191,63h3v3h-3z M202,65h4v1h-4z M216,65h4v1h-4z M224,65h4v1h-4z M233,65h1v1h-1z M242,65h9v1h-9z M0,66h14v1h-14z M22,58h3v9h-3z M26,66h7v1h-7z M45,66h12v1h-12z M62,66h12v1h-12z M85,64h4v3h-4z M108,65h3v2h-3z M135,66h4v1h-4z M148,66h27v1h-27z M179,66h4v1h-4z M215,66h4v1h-4z M223,66h7v1h-7z M232,66h3v1h-3z M240,66h11v1h-11z M257,65h4v2h-4z M262,65h4v2h-4z M0,67h16v1h-16z M22,67h9v1h-9z M45,67h4v1h-4z M53,67h2v1h-2z M62,67h13v1h-13z M136,67h4v1h-4z M144,67h12v1h-12z M162,67h13v1h-13z M178,67h4v1h-4z M203,66h4v2h-4z M214,67h5v1h-5z M223,67h28v1h-28z M256,67h4v1h-4z M0,68h5v1h-5z M9,68h10v1h-10z M21,68h9v1h-9z M45,68h3v1h-3z M62,68h4v1h-4z M68,68h9v1h-9z M86,67h3v2h-3z M137,68h4v1h-4z M143,68h11v1h-11z M164,68h10v1h-10z M178,68h3v1h-3z M190,66h4v3h-4z M214,68h4v1h-4z M223,68h29v1h-29z M12,69h16v1h-16z M71,69h8v1h-8z M169,69h5v1h-5z M177,69h4v1h-4z M204,68h4v2h-4z M213,69h4v1h-4z M222,69h31v1h-31z M257,68h2v2h-2z M14,70h13v1h-13z M44,69h4v2h-4z M62,69h3v2h-3z M74,70h7v1h-7z M107,67h4v4h-4z M137,69h15v2h-15z M161,69h3v2h-3z M183,70h2v1h-2z M190,69h3v2h-3z M205,70h3v1h-3z M213,70h3v1h-3z M222,70h13v1h-13z M245,70h10v1h-10z M17,71h10v1h-10z M44,71h3v1h-3z M75,71h8v1h-8z M86,69h4v3h-4z M106,71h4v1h-4z M135,71h16v1h-16z M170,70h4v2h-4z M176,70h4v2h-4z M189,71h4v1h-4z M198,71h4v1h-4z M205,71h4v1h-4z M245,71h12v1h-12z M19,72h10v1h-10z M43,72h4v1h-4z M62,71h4v2h-4z M77,72h14v1h-14z M102,72h8v1h-8z M134,72h17v1h-17z M169,72h5v1h-5z M175,72h4v1h-4z M182,71h3v2h-3z M206,72h3v1h-3z M221,71h4v2h-4z M244,72h5v1h-5z M251,72h7v1h-7z M21,73h12v1h-12z M43,73h3v1h-3z M79,73h12v1h-12z M96,73h14v1h-14z M129,73h11v1h-11z M145,73h6v1h-6z M160,71h4v3h-4z M166,73h13v1h-13z M189,72h3v2h-3z M197,72h5v2h-5z M244,73h4v1h-4z M252,73h7v1h-7z M263,67h3v7h-3z M25,74h11v1h-11z M62,73h3v2h-3z M80,74h30v1h-30z M129,74h9v1h-9z M144,74h9v1h-9z M161,74h3v1h-3z M165,74h13v1h-13z M196,74h5v1h-5z M206,73h4v2h-4z M220,73h4v2h-4z M234,74h2v1h-2z M245,74h2v1h-2z M254,74h7v1h-7z M262,74h4v1h-4z M26,75h12v1h-12z M42,74h4v2h-4z M81,75h28v1h-28z M126,75h11v1h-11z M143,75h5v1h-5z M161,75h17v1h-17z M181,73h4v3h-4z M196,75h4v1h-4z M255,75h11v1h-11z M27,76h18v1h-18z M81,76h20v1h-20z M124,76h10v1h-10z M143,76h4v1h-4z M161,76h16v1h-16z M181,76h3v1h-3z M197,76h2v1h-2z M207,75h4v2h-4z M219,75h6v2h-6z M234,75h3v2h-3z M257,76h9v1h-9z M27,77h5v1h-5z M34,77h11v1h-11z M76,77h19v1h-19z M102,76h7v2h-7z M120,77h10v1h-10z M142,77h4v1h-4z M150,75h3v3h-3z M159,77h9v1h-9z M169,77h8v1h-8z M188,74h4v4h-4z M206,77h5v1h-5z M218,77h8v1h-8z M258,77h8v1h-8z M36,78h9v1h-9z M61,75h4v4h-4z M71,78h21v1h-21z M101,78h8v1h-8z M117,78h11v1h-11z M134,78h5v1h-5z M141,78h5v1h-5z M150,78h2v1h-2z M157,78h9v1h-9z M170,78h6v1h-6z M188,78h3v1h-3z M199,78h13v1h-13z M244,78h4v1h-4z M28,78h4v2h-4z M39,79h7v1h-7z M61,79h22v1h-22z M85,79h1v1h-1z M115,79h11v1h-11z M155,79h10v1h-10z M169,79h7v1h-7z M187,79h5v1h-5z M193,79h19v1h-19z M218,78h9v2h-9z M244,79h5v1h-5z M27,80h6v1h-6z M40,80h7v1h-7z M61,80h21v1h-21z M100,79h9v2h-9z M113,80h10v1h-10z M134,79h11v2h-11z M152,80h13v1h-13z M186,80h26v1h-26z M223,80h5v1h-5z M233,77h4v4h-4z M244,80h7v1h-7z M259,78h7v3h-7z M26,81h7v1h-7z M43,81h5v1h-5z M60,81h20v1h-20z M99,81h5v1h-5z M105,81h15v1h-15z M136,81h8v1h-8z M151,81h15v1h-15z M169,80h6v2h-6z M184,81h29v1h-29z M217,80h4v2h-4z M245,81h6v1h-6z M257,81h9v1h-9z M23,82h10v1h-10z M44,82h5v1h-5z M60,82h9v1h-9z M76,82h5v1h-5z M98,82h5v1h-5z M105,82h13v1h-13z M138,82h6v1h-6z M149,82h12v1h-12z M162,82h4v1h-4z M168,82h34v1h-34z M203,82h4v1h-4z M209,82h4v1h-4z M216,82h4v1h-4z M224,81h4v2h-4z M232,81h4v2h-4z M246,82h5v1h-5z M255,82h11v1h-11z M22,83h12v1h-12z M45,83h5v1h-5z M77,83h5v1h-5z M97,83h5v1h-5z M105,83h12v1h-12z M139,83h4v1h-4z M146,83h15v1h-15z M163,83h3v1h-3z M167,83h33v1h-33z M210,83h4v1h-4z M215,83h8v1h-8z M233,83h2v1h-2z M249,83h1v1h-1z M253,83h13v1h-13z M19,84h9v1h-9z M30,84h5v1h-5z M46,84h5v1h-5z M60,83h5v2h-5z M78,84h5v1h-5z M96,84h5v1h-5z M105,84h13v1h-13z M138,84h15v1h-15z M157,84h32v1h-32z M193,84h6v1h-6z M204,83h3v2h-3z M210,84h14v1h-14z M225,83h4v2h-4z M251,84h9v1h-9z M18,85h8v1h-8z M47,85h5v1h-5z M78,85h6v1h-6z M95,85h4v1h-4z M105,85h4v1h-4z M112,85h7v1h-7z M138,85h14v1h-14z M158,85h30v1h-30z M193,85h5v1h-5z M203,85h4v1h-4z M211,85h8v1h-8z M222,85h2v1h-2z M249,85h9v1h-9z M1,69h3v18h-3z M17,86h7v1h-7z M31,85h4v2h-4z M47,86h6v1h-6z M77,86h8v1h-8z M93,86h6v1h-6z M105,86h3v1h-3z M114,86h6v1h-6z M137,86h15v1h-15z M159,86h18v1h-18z M184,86h4v1h-4z M192,86h5v1h-5z M204,86h2v1h-2z M211,86h7v1h-7z M226,85h4v2h-4z M249,86h7v1h-7z M0,87h4v1h-4z M14,87h8v1h-8z M49,87h5v1h-5z M75,87h10v1h-10z M92,87h5v1h-5z M137,87h8v1h-8z M147,87h4v1h-4z M159,87h10v1h-10z M183,87h5v1h-5z M190,87h5v1h-5z M211,87h6v1h-6z M227,87h4v1h-4z M236,87h4v1h-4z M247,87h7v1h-7z M1,88h3v1h-3z M12,88h8v1h-8z M32,87h4v2h-4z M50,88h5v1h-5z M73,88h13v1h-13z M91,88h5v1h-5z M115,87h6v2h-6z M135,88h8v1h-8z M147,88h5v1h-5z M160,88h7v1h-7z M183,88h4v1h-4z M190,88h4v1h-4z M212,88h5v1h-5z M235,88h6v1h-6z M245,88h8v1h-8z M262,84h4v5h-4z M11,89h8v1h-8z M33,89h4v1h-4z M51,89h4v1h-4z M71,89h8v1h-8z M82,89h5v1h-5z M90,89h5v1h-5z M114,89h9v1h-9z M135,89h6v1h-6z M147,89h4v1h-4z M156,89h2v1h-2z M161,89h5v1h-5z M174,89h1v1h-1z M184,89h3v1h-3z M189,89h5v1h-5z M202,89h2v1h-2z M227,88h5v2h-5z M236,89h5v1h-5z M242,89h11v1h-11z M263,89h3v1h-3z M0,89h5v2h-5z M9,90h11v1h-11z M33,90h5v1h-5z M52,90h4v1h-4z M60,85h4v6h-4z M69,90h8v1h-8z M83,90h11v1h-11z M113,90h11v1h-11z M134,90h5v1h-5z M144,90h7v1h-7z M162,90h5v1h-5z M173,90h6v1h-6z M186,90h8v1h-8z M201,90h4v1h-4z M212,89h4v2h-4z M228,90h4v1h-4z M237,90h15v1h-15z M1,91h4v1h-4z M6,91h15v1h-15z M34,91h4v1h-4z M53,91h4v1h-4z M59,91h4v1h-4z M67,91h9v1h-9z M84,91h9v1h-9z M113,91h4v1h-4z M119,91h6v1h-6z M143,91h8v1h-8z M163,91h4v1h-4z M173,91h7v1h-7z M185,91h9v1h-9z M201,91h5v1h-5z M229,91h4v1h-4z M239,91h13v1h-13z M1,92h11v1h-11z M15,92h8v1h-8z M34,92h5v1h-5z M54,92h10v1h-10z M65,92h8v1h-8z M85,92h7v1h-7z M111,92h5v1h-5z M121,92h6v1h-6z M133,91h5v2h-5z M141,92h10v1h-10z M155,90h4v3h-4z M164,92h4v1h-4z M174,92h6v1h-6z M185,92h10v1h-10z M202,92h5v1h-5z M230,92h3v1h-3z M238,92h7v1h-7z M248,92h4v1h-4z M1,93h10v1h-10z M17,93h9v1h-9z M55,93h18v1h-18z M104,87h4v7h-4z M110,93h5v1h-5z M122,93h6v1h-6z M132,93h19v1h-19z M155,93h3v1h-3z M164,93h5v1h-5z M175,93h6v1h-6z M184,93h5v1h-5z M203,93h4v1h-4z M220,93h4v1h-4z M230,93h13v1h-13z M248,93h3v1h-3z M0,94h9v1h-9z M18,94h10v1h-10z M35,93h4v2h-4z M55,94h17v1h-17z M85,93h6v2h-6z M104,94h3v1h-3z M109,94h5v1h-5z M123,94h6v1h-6z M131,94h12v1h-12z M146,94h5v1h-5z M154,94h4v1h-4z M165,94h4v1h-4z M177,94h4v1h-4z M182,94h6v1h-6z M191,93h5v2h-5z M204,94h3v1h-3z M212,91h3v4h-3z M230,94h11v1h-11z M257,93h3v2h-3z M262,90h4v5h-4z M0,95h7v1h-7z M19,95h11v1h-11z M57,95h15v1h-15z M104,95h9v1h-9z M125,95h17v1h-17z M155,95h2v1h-2z M166,95h5v1h-5z M179,95h8v1h-8z M192,95h5v1h-5z M219,94h8v2h-8z M230,95h10v1h-10z M256,95h4v1h-4z M263,95h3v1h-3z M0,96h5v1h-5z M19,96h12v1h-12z M57,96h9v1h-9z M86,95h5v2h-5z M104,96h8v1h-8z M126,96h15v1h-15z M167,96h5v1h-5z M179,96h7v1h-7z M193,96h5v1h-5z M212,95h4v2h-4z M221,96h6v1h-6z M230,96h9v1h-9z M247,94h4v3h-4z M255,96h5v1h-5z M25,97h8v1h-8z M36,95h4v3h-4z M55,97h9v1h-9z M87,97h5v1h-5z M103,97h8v1h-8z M127,97h12v1h-12z M168,97h4v1h-4z M179,97h5v1h-5z M193,97h6v1h-6z M211,97h5v1h-5z M224,97h2v1h-2z M230,97h6v1h-6z M19,97h4v2h-4z M27,98h13v1h-13z M54,98h8v1h-8z M68,96h4v3h-4z M88,98h4v1h-4z M103,98h7v1h-7z M128,98h9v1h-9z M168,98h5v1h-5z M178,98h6v1h-6z M186,98h3v1h-3z M194,98h5v1h-5z M210,98h6v1h-6z M229,98h6v1h-6z M255,97h4v2h-4z M18,99h4v1h-4z M29,99h12v1h-12z M52,99h8v1h-8z M69,99h3v1h-3z M89,99h3v1h-3z M103,99h6v1h-6z M127,99h11v1h-11z M169,99h5v1h-5z M177,99h5v1h-5z M195,99h5v1h-5z M206,99h10v1h-10z M228,99h5v1h-5z M246,97h4v3h-4z M255,99h3v1h-3z M31,100h11v1h-11z M50,100h8v1h-8z M89,100h4v1h-4z M103,100h5v1h-5z M125,100h9v1h-9z M136,100h7v1h-7z M147,95h4v6h-4z M170,100h11v1h-11z M196,100h5v1h-5z M205,100h11v1h-11z M227,100h5v1h-5z M245,100h5v1h-5z M256,100h1v1h-1z M1,97h3v5h-3z M17,100h5v2h-5z M31,101h12v1h-12z M49,101h8v1h-8z M69,100h4v2h-4z M87,101h20v1h-20z M123,101h11v1h-11z M136,101h9v1h-9z M146,101h5v1h-5z M156,101h7v1h-7z M170,101h10v1h-10z M196,101h20v1h-20z M225,101h6v1h-6z M236,101h1v1h-1z M17,102h4v1h-4z M32,102h23v1h-23z M122,102h11v1h-11z M137,102h13v1h-13z M155,102h9v1h-9z M171,102h8v1h-8z M196,102h14v1h-14z M212,102h5v1h-5z M224,102h6v1h-6z M234,102h5v1h-5z M16,103h5v1h-5z M37,103h15v1h-15z M120,103h13v1h-13z M140,103h9v1h-9z M156,103h8v1h-8z M171,103h6v1h-6z M185,99h4v5h-4z M196,103h11v1h-11z M223,103h6v1h-6z M235,103h5v1h-5z M245,101h4v3h-4z M262,96h4v8h-4z M0,102h4v3h-4z M16,104h4v1h-4z M31,103h4v2h-4z M40,104h11v1h-11z M69,102h38v3h-38z M118,104h7v1h-7z M139,104h10v1h-10z M157,104h6v1h-6z M170,104h7v1h-7z M193,104h12v1h-12z M218,103h2v2h-2z M222,104h6v1h-6z M257,104h9v1h-9z M1,105h3v1h-3z M31,105h3v1h-3z M41,105h8v1h-8z M69,105h19v1h-19z M90,105h4v1h-4z M102,105h6v1h-6z M116,105h8v1h-8z M130,104h4v2h-4z M137,105h11v1h-11z M161,105h1v1h-1z M169,105h8v1h-8z M191,105h11v1h-11z M218,105h11v1h-11z M235,104h6v2h-6z M244,104h4v2h-4z M252,105h14v1h-14z M1,106h4v1h-4z M15,105h4v2h-4z M43,106h6v1h-6z M113,106h9v1h-9z M130,106h19v1h-19z M168,106h9v1h-9z M187,106h12v1h-12z M213,103h4v4h-4z M219,106h11v1h-11z M236,106h5v1h-5z M244,106h22v1h-22z M14,107h5v1h-5z M69,106h5v2h-5z M101,106h7v2h-7z M112,107h8v1h-8z M130,107h11v1h-11z M144,107h7v1h-7z M166,107h12v1h-12z M185,107h12v1h-12z M204,107h2v1h-2z M213,107h5v1h-5z M219,107h12v1h-12z M238,107h3v1h-3z M243,107h23v1h-23z M14,108h4v1h-4z M30,106h4v3h-4z M69,108h4v1h-4z M99,108h19v1h-19z M130,108h10v1h-10z M145,108h8v1h-8z M165,108h6v1h-6z M174,108h4v1h-4z M183,108h11v1h-11z M203,108h4v1h-4z M214,108h10v1h-10z M226,108h7v1h-7z M243,108h16v1h-16z M1,107h3v3h-3z M67,109h6v1h-6z M98,109h6v1h-6z M105,109h12v1h-12z M130,109h9v1h-9z M147,109h7v1h-7z M158,108h3v2h-3z M163,109h6v1h-6z M175,109h15v1h-15z M203,109h5v1h-5z M214,109h8v1h-8z M228,109h6v1h-6z M243,109h13v1h-13z M262,108h4v2h-4z M0,110h4v1h-4z M13,109h4v2h-4z M30,109h3v2h-3z M63,110h10v1h-10z M97,110h5v1h-5z M106,110h10v1h-10z M130,110h6v1h-6z M138,110h2v1h-2z M149,110h6v1h-6z M158,110h10v1h-10z M175,110h12v1h-12z M204,110h4v1h-4z M229,110h6v1h-6z M243,110h5v1h-5z M253,110h3v1h-3z M0,111h5v1h-5z M12,111h4v1h-4z M45,107h4v5h-4z M60,111h14v1h-14z M96,111h6v1h-6z M106,111h6v1h-6z M130,111h5v1h-5z M151,111h5v1h-5z M158,111h9v1h-9z M175,111h10v1h-10z M192,111h7v1h-7z M204,111h5v1h-5z M214,110h7v2h-7z M230,111h6v1h-6z M242,111h5v1h-5z M253,111h4v1h-4z M1,112h6v1h-6z M10,112h7v1h-7z M29,111h4v2h-4z M45,112h3v1h-3z M55,112h19v1h-19z M95,112h6v1h-6z M151,112h6v1h-6z M159,112h7v1h-7z M175,112h7v1h-7z M214,112h6v1h-6z M231,112h7v1h-7z M253,112h5v1h-5z M263,110h3v3h-3z M1,113h32v1h-32z M45,113h4v1h-4z M53,113h14v1h-14z M70,113h4v1h-4z M94,113h6v1h-6z M106,112h5v2h-5z M137,111h4v3h-4z M152,113h12v1h-12z M168,113h3v1h-3z M176,113h6v1h-6z M205,112h4v2h-4z M214,113h5v1h-5z M233,113h6v1h-6z M242,112h4v2h-4z M253,113h6v1h-6z M262,113h4v1h-4z M45,114h18v1h-18z M70,114h7v1h-7z M93,114h6v1h-6z M129,112h6v3h-6z M136,114h4v1h-4z M153,114h10v1h-10z M168,114h4v1h-4z M176,114h10v1h-10z M191,112h9v3h-9z M213,114h5v1h-5z M235,114h5v1h-5z M241,114h4v1h-4z M254,114h6v1h-6z M1,114h31v2h-31z M70,115h11v1h-11z M92,115h5v1h-5z M107,114h4v2h-4z M128,115h12v1h-12z M144,115h4v1h-4z M154,115h7v1h-7z M176,115h23v1h-23z M213,115h4v1h-4z M236,115h9v1h-9z M255,115h4v1h-4z M263,114h3v2h-3z M1,116h4v1h-4z M11,116h4v1h-4z M18,116h14v1h-14z M45,115h16v2h-16z M70,116h14v1h-14z M90,116h7v1h-7z M108,116h3v1h-3z M128,116h11v1h-11z M143,116h6v1h-6z M154,116h6v1h-6z M167,115h5v2h-5z M177,116h23v1h-23z M213,116h3v1h-3z M226,115h3v2h-3z M237,116h8v1h-8z M257,116h2v1h-2z M262,116h4v1h-4z M27,117h5v1h-5z M45,117h6v1h-6z M57,117h4v1h-4z M70,117h25v1h-25z M127,117h9v1h-9z M144,117h5v1h-5z M153,117h5v1h-5z M167,117h4v1h-4z M177,117h26v1h-26z M212,117h4v1h-4z M259,117h7v1h-7z M79,118h15v1h-15z M108,117h4v2h-4z M125,118h11v1h-11z M145,118h4v1h-4z M151,118h6v1h-6z M168,118h3v1h-3z M184,118h25v1h-25z M212,118h3v1h-3z M225,117h4v2h-4z M238,117h6v2h-6z M257,118h9v1h-9z M58,118h4v2h-4z M82,119h11v1h-11z M109,119h3v1h-3z M121,119h10v1h-10z M146,119h10v1h-10z M185,119h30v1h-30z M225,119h3v1h-3z M239,119h5v1h-5z M255,119h11v1h-11z M27,118h4v3h-4z M58,120h5v1h-5z M84,120h8v1h-8z M109,120h4v1h-4z M116,120h15v1h-15z M147,120h9v1h-9z M178,118h4v3h-4z M184,120h7v1h-7z M198,120h16v1h-16z M224,120h4v1h-4z M252,120h14v1h-14z M1,117h3v5h-3z M59,121h4v1h-4z M84,121h6v1h-6z M109,121h21v1h-21z M132,119h4v3h-4z M146,121h11v1h-11z M178,121h11v1h-11z M206,121h8v1h-8z M224,121h3v1h-3z M250,121h10v1h-10z M1,122h4v1h-4z M45,118h4v5h-4z M59,122h5v1h-5z M83,122h6v1h-6z M108,122h22v1h-22z M145,122h13v1h-13z M179,122h9v1h-9z M192,122h3v1h-3z M209,122h5v1h-5z M233,122h2v1h-2z M247,122h11v1h-11z M262,121h4v2h-4z M1,123h5v1h-5z M26,121h4v3h-4z M43,123h6v1h-6z M60,123h4v1h-4z M82,123h6v1h-6z M105,123h16v1h-16z M143,123h7v1h-7z M154,123h5v1h-5z M164,123h6v1h-6z M179,123h8v1h-8z M191,123h4v1h-4z M209,123h4v1h-4z M232,123h4v1h-4z M239,120h4v4h-4z M245,123h9v1h-9z M263,123h3v1h-3z M1,124h8v1h-8z M26,124h3v1h-3z M41,124h7v1h-7z M60,124h5v1h-5z M81,124h6v1h-6z M102,124h14v1h-14z M133,122h3v3h-3z M142,124h6v1h-6z M163,124h8v1h-8z M179,124h7v1h-7z M231,124h5v1h-5z M262,124h4v1h-4z M1,125h10v1h-10z M39,125h9v1h-9z M80,125h7v1h-7z M98,125h13v1h-13z M125,123h4v3h-4z M140,125h7v1h-7z M155,124h5v2h-5z M163,125h9v1h-9z M179,125h6v1h-6z M191,124h5v2h-5z M209,124h3v2h-3z M238,124h15v2h-15z M1,126h12v1h-12z M25,125h4v2h-4z M37,126h11v1h-11z M61,125h4v2h-4z M78,126h9v1h-9z M94,126h15v1h-15z M125,126h3v1h-3z M133,125h4v2h-4z M139,126h6v1h-6z M156,126h5v1h-5z M166,126h6v1h-6z M178,126h6v1h-6z M208,126h4v1h-4z M215,126h4v1h-4z M230,125h5v2h-5z M237,126h16v1h-16z M258,126h1v1h-1z M263,125h3v2h-3z M1,127h4v1h-4z M7,127h8v1h-8z M35,127h12v1h-12z M62,127h3v1h-3z M71,118h4v10h-4z M77,127h12v1h-12z M90,127h18v1h-18z M133,127h10v1h-10z M149,127h2v1h-2z M157,127h5v1h-5z M168,127h3v1h-3z M178,127h5v1h-5z M208,127h3v1h-3z M215,127h7v1h-7z M230,127h4v1h-4z M236,127h10v1h-10z M249,127h4v1h-4z M257,127h3v1h-3z M262,127h4v1h-4z M9,128h8v1h-8z M25,127h3v2h-3z M33,128h14v1h-14z M62,128h4v1h-4z M71,128h30v1h-30z M104,128h4v1h-4z M124,127h4v2h-4z M134,128h8v1h-8z M158,128h5v1h-5z M177,128h5v1h-5z M192,126h4v3h-4z M216,128h6v1h-6z M236,128h8v1h-8z M250,128h4v1h-4z M11,129h8v1h-8z M24,129h4v1h-4z M30,129h10v1h-10z M72,129h8v1h-8z M84,129h13v1h-13z M124,129h3v1h-3z M134,129h6v1h-6z M148,128h4v2h-4z M159,129h5v1h-5z M175,129h6v1h-6z M193,129h1v1h-1z M207,128h4v2h-4z M216,129h7v1h-7z M233,129h9v1h-9z M251,129h3v1h-3z M256,128h10v2h-10z M12,130h9v1h-9z M23,130h14v1h-14z M42,129h5v2h-5z M63,129h4v2h-4z M72,130h7v1h-7z M85,130h9v1h-9z M105,129h4v2h-4z M134,130h5v1h-5z M161,130h3v1h-3z M175,130h4v1h-4z M219,130h4v1h-4z M231,130h9v1h-9z M244,130h2v1h-2z M257,130h9v1h-9z M14,131h21v1h-21z M42,131h4v1h-4z M71,131h7v1h-7z M87,131h7v1h-7z M123,130h4v2h-4z M134,131h4v1h-4z M147,130h4v2h-4z M161,131h4v1h-4z M174,131h5v1h-5z M184,131h3v1h-3z M206,130h4v2h-4z M221,131h1v1h-1z M229,131h9v1h-9z M243,131h3v1h-3z M259,131h7v1h-7z M1,128h3v5h-3z M17,132h16v1h-16z M64,131h4v2h-4z M71,132h6v1h-6z M88,132h7v1h-7z M106,131h3v2h-3z M123,132h3v1h-3z M162,132h4v1h-4z M173,132h5v1h-5z M183,132h5v1h-5z M205,132h4v1h-4z M213,132h2v1h-2z M228,132h8v1h-8z M242,132h4v1h-4z M251,130h4v3h-4z M18,133h13v1h-13z M41,132h4v2h-4z M90,133h6v1h-6z M146,132h4v2h-4z M163,133h4v1h-4z M172,133h5v1h-5z M183,133h7v1h-7z M212,133h4v1h-4z M226,133h8v1h-8z M241,133h5v1h-5z M1,133h4v2h-4z M20,134h11v1h-11z M40,134h5v1h-5z M65,133h10v2h-10z M90,134h7v1h-7z M106,133h4v2h-4z M122,133h4v2h-4z M134,132h3v3h-3z M146,134h3v1h-3z M163,134h5v1h-5z M171,134h6v1h-6z M184,134h6v1h-6z M204,133h5v2h-5z M211,134h5v1h-5z M224,134h8v1h-8z M252,133h4v2h-4z M262,132h4v3h-4z M1,135h127v1h-127z M131,135h9v1h-9z M145,135h5v1h-5z M152,135h1v1h-1z M156,135h3v1h-3z M161,135h16v1h-16z M182,135h9v1h-9z M194,135h1v1h-1z M202,135h14v1h-14z M222,135h10v1h-10z M241,134h4v2h-4z M252,135h7v1h-7z M261,135h5v1h-5z M1,136h265v2h-265z M3,138h262v1h-262z M91,139h1v1h-1z M110,139h3v1h-3z M120,139h1v1h-1z M163,139h2v1h-2z M190,139h3v1h-3z M201,139h13v1h-13z M219,139h4v1h-4z M224,139h37v1h-37z M262,139h1v1h-1z
  "/>
</svg>