<?xml version="1.0" encoding="UTF-8"?>
<svg xmlns="http://www.w3.org/2000/svg" viewBox="0 0 267 138" width="267" height="138">
  <title>15 Massively bedded limestone</title>
  <path fill="#111111" fill-rule="nonzero" d="
    M259,0h3v1h-3z M263,0h2v1h-2z M134,1h5v1h-5z M141,1h1v1h-1z M143,1h2v1h-2z M148,1h30v1h-30z M179,1h86v1h-86z M4,2h262v1h-262z M2,3h265v1h-265z M1,4h266v1h-266z M1,5h230v1h-230z M232,5h12v1h-12z M249,5h4v1h-4z M259,5h1v1h-1z M261,5h6v1h-6z M1,6h6v1h-6z M42,6h1v1h-1z M49,6h5v1h-5z M62,6h7v1h-7z M72,6h1v1h-1z M103,6h2v1h-2z M128,6h3v1h-3z M134,6h14v1h-14z M224,6h5v1h-5z M262,6h5v1h-5z M1,7h5v1h-5z M63,7h5v1h-5z M140,7h7v1h-7z M263,7h4v1h-4z M141,8h6v2h-6z M142,10h5v1h-5z M262,8h5v7h-5z M263,15h4v2h-4z M224,7h4v14h-4z M1,8h4v14h-4z M64,8h4v14h-4z M143,11h4v11h-4z M223,21h6v1h-6z M257,21h2v1h-2z M262,17h5v5h-5z M1,22h6v1h-6z M11,22h4v1h-4z M22,22h3v1h-3z M47,22h10v1h-10z M63,22h6v1h-6z M87,22h4v1h-4z M95,22h2v1h-2z M99,22h3v1h-3z M104,22h13v1h-13z M121,22h8v1h-8z M131,22h18v1h-18z M151,22h116v1h-116z M1,23h266v3h-266z M1,26h5v1h-5z M10,26h3v1h-3z M25,26h30v1h-30z M60,26h2v1h-2z M64,26h1v1h-1z M66,26h1v1h-1z M69,26h2v1h-2z M73,26h16v1h-16z M96,26h10v1h-10z M107,26h6v1h-6z M133,26h1v1h-1z M135,26h2v1h-2z M149,26h1v1h-1z M151,26h2v1h-2z M182,26h6v1h-6z M193,26h2v1h-2z M200,26h1v1h-1z M218,26h1v1h-1z M97,27h5v1h-5z M98,28h3v4h-3z M97,32h4v1h-4z M98,33h3v1h-3z M97,34h4v9h-4z M98,43h3v2h-3z M1,27h4v24h-4z M97,45h4v6h-4z M183,27h4v24h-4z M262,26h5v25h-5z M1,51h5v1h-5z M97,51h5v1h-5z M182,51h6v1h-6z M225,51h1v1h-1z M233,51h1v1h-1z M235,51h7v1h-7z M250,51h1v1h-1z M252,51h1v1h-1z M254,51h2v1h-2z M257,51h10v1h-10z M1,52h9v1h-9z M11,52h7v1h-7z M19,52h10v1h-10z M30,52h1v1h-1z M32,52h10v1h-10z M44,52h223v1h-223z M1,53h266v3h-266z M1,56h5v1h-5z M43,56h6v1h-6z M50,56h6v1h-6z M57,56h19v1h-19z M80,56h2v1h-2z M83,56h3v1h-3z M90,56h1v1h-1z M102,56h2v1h-2z M115,56h2v1h-2z M138,56h8v1h-8z M151,56h2v1h-2z M221,56h6v1h-6z M139,57h5v9h-5z M140,66h4v5h-4z M1,57h4v17h-4z M44,57h4v17h-4z M222,57h4v17h-4z M262,56h5v18h-5z M1,74h5v1h-5z M44,74h5v1h-5z M139,71h5v4h-5z M178,74h1v1h-1z M197,74h4v1h-4z M206,74h12v1h-12z M221,74h7v1h-7z M233,74h4v1h-4z M241,74h2v1h-2z M244,74h15v1h-15z M260,74h7v1h-7z M1,75h14v1h-14z M16,75h251v1h-251z M1,76h266v2h-266z M1,78h235v1h-235z M238,78h13v1h-13z M257,78h1v1h-1z M261,78h6v1h-6z M1,79h5v1h-5z M15,79h2v1h-2z M181,79h6v1h-6z M89,79h4v2h-4z M182,80h5v3h-5z M90,81h3v4h-3z M182,83h4v5h-4z M262,79h5v9h-5z M262,88h4v1h-4z M1,80h4v11h-4z M262,89h5v2h-5z M1,91h5v1h-5z M263,91h4v7h-4z M262,98h4v2h-4z M1,92h4v10h-4z M89,85h4v17h-4z M182,88h5v14h-5z M262,100h5v2h-5z M1,102h5v1h-5z M24,102h1v1h-1z M31,102h6v1h-6z M38,102h1v1h-1z M67,102h6v1h-6z M80,102h6v1h-6z M88,102h18v1h-18z M112,102h10v1h-10z M126,102h2v1h-2z M129,102h19v1h-19z M154,102h113v1h-113z M1,103h266v3h-266z M1,106h5v1h-5z M8,106h1v1h-1z M47,106h6v1h-6z M69,106h1v1h-1z M105,106h2v1h-2z M120,106h1v1h-1z M122,106h8v1h-8z M133,106h6v1h-6z M158,106h7v1h-7z M171,106h1v1h-1z M173,106h9v1h-9z M183,106h2v1h-2z M187,106h5v1h-5z M202,106h1v1h-1z M206,106h2v1h-2z M218,106h5v1h-5z M253,106h1v1h-1z M134,107h4v3h-4z M133,110h5v3h-5z M218,107h4v10h-4z M218,117h5v1h-5z M1,107h4v13h-4z M1,120h5v2h-5z M1,122h4v1h-4z M1,123h5v1h-5z M1,124h4v3h-4z M134,113h4v15h-4z M1,127h5v2h-5z M133,128h5v3h-5z M218,118h4v13h-4z M48,107h4v25h-4z M134,131h4v1h-4z M218,131h5v1h-5z M262,106h5v26h-5z M1,129h4v4h-4z M48,132h5v1h-5z M133,132h6v1h-6z M179,132h88v1h-88z M1,133h266v3h-266z M2,136h264v1h-264z M4,137h22v1h-22z M27,137h24v1h-24z M52,137h2v1h-2z M55,137h4v1h-4z M64,137h12v1h-12z M77,137h5v1h-5z M88,137h7v1h-7z M98,137h12v1h-12z M112,137h1v1h-1z M114,137h10v1h-10z M129,137h1v1h-1z M133,137h11v1h-11z M153,137h1v1h-1z M205,137h3v1h-3z
  "/>
</svg>