<?xml version="1.0" encoding="UTF-8"?>
<svg xmlns="http://www.w3.org/2000/svg" viewBox="0 0 266 139" width="266" height="139">
  <title>50 Volcanic breccia and tuff</title>
  <path fill="#111111" fill-rule="nonzero" d="
    M1,1h152v1h-152z M156,1h107v1h-107z M1,2h263v1h-263z M0,3h265v1h-265z M0,4h115v1h-115z M117,4h6v1h-6z M125,4h1v1h-1z M129,4h3v1h-3z M134,4h4v1h-4z M140,4h1v1h-1z M146,4h1v1h-1z M156,4h24v1h-24z M181,4h5v1h-5z M192,4h4v1h-4z M198,4h17v1h-17z M218,4h47v1h-47z M37,5h5v1h-5z M53,5h4v1h-4z M60,5h5v1h-5z M71,5h3v1h-3z M83,5h4v1h-4z M98,5h5v1h-5z M135,5h2v1h-2z M166,5h3v1h-3z M174,5h2v1h-2z M184,5h1v1h-1z M221,5h3v1h-3z M228,5h4v1h-4z M247,5h3v1h-3z M255,5h4v1h-4z M261,5h4v1h-4z M14,5h4v2h-4z M24,5h3v2h-3z M37,6h4v1h-4z M54,6h2v1h-2z M72,6h2v1h-2z M125,6h1v1h-1z M167,6h2v1h-2z M203,6h1v1h-1z M228,6h3v1h-3z M237,5h4v2h-4z M256,6h3v1h-3z M0,5h5v3h-5z M6,7h1v1h-1z M14,7h3v1h-3z M38,7h3v1h-3z M61,6h4v2h-4z M72,7h3v1h-3z M84,6h3v2h-3z M99,6h3v2h-3z M110,7h1v1h-1z M135,6h3v2h-3z M145,6h2v2h-2z M156,5h3v3h-3z M168,7h1v1h-1z M184,6h2v2h-2z M194,7h1v1h-1z M202,7h3v1h-3z M211,7h2v1h-2z M221,6h2v2h-2z M229,7h1v1h-1z M238,7h2v1h-2z M247,6h2v2h-2z M256,7h2v1h-2z M24,7h4v2h-4z M39,8h1v1h-1z M46,5h3v4h-3z M53,7h4v2h-4z M62,8h3v1h-3z M77,8h2v1h-2z M109,8h3v1h-3z M116,7h3v2h-3z M161,8h2v1h-2z M168,8h2v1h-2z M184,8h1v1h-1z M202,8h2v1h-2z M252,8h2v1h-2z M262,6h3v3h-3z M0,8h8v2h-8z M25,9h2v1h-2z M32,9h2v1h-2z M47,9h2v1h-2z M54,9h2v1h-2z M91,7h3v3h-3z M117,9h1v1h-1z M162,9h1v1h-1z M179,9h2v1h-2z M198,8h3v2h-3z M232,9h3v1h-3z M243,9h1v1h-1z M253,9h1v1h-1z M261,9h4v1h-4z M0,10h7v1h-7z M16,10h3v1h-3z M31,10h4v1h-4z M40,10h3v1h-3z M76,9h4v2h-4z M91,10h4v1h-4z M102,10h2v1h-2z M132,10h1v1h-1z M141,9h2v2h-2z M179,10h3v1h-3z M188,9h3v2h-3z M198,10h2v1h-2z M221,8h3v3h-3z M233,10h1v1h-1z M257,10h8v1h-8z M0,11h5v1h-5z M31,11h3v1h-3z M40,11h4v1h-4z M77,11h3v1h-3z M89,11h7v1h-7z M112,11h2v1h-2z M132,11h3v1h-3z M168,9h3v3h-3z M189,11h2v1h-2z M207,10h2v2h-2z M222,11h2v1h-2z M258,11h7v1h-7z M15,11h4v2h-4z M41,12h2v1h-2z M53,12h3v1h-3z M64,10h3v3h-3z M87,12h9v1h-9z M101,11h3v2h-3z M111,12h4v1h-4z M154,12h6v1h-6z M169,12h1v1h-1z M189,12h3v1h-3z M235,12h3v1h-3z M249,12h5v1h-5z M0,12h4v2h-4z M16,13h3v1h-3z M27,13h2v1h-2z M48,13h3v1h-3z M52,13h5v1h-5z M70,13h5v1h-5z M79,13h2v1h-2z M86,13h10v1h-10z M99,13h4v1h-4z M110,13h6v1h-6z M176,13h2v1h-2z M185,13h8v1h-8z M200,13h4v1h-4z M218,13h2v1h-2z M224,13h4v1h-4z M234,13h5v1h-5z M248,13h7v1h-7z M0,14h5v1h-5z M8,14h4v1h-4z M18,14h1v1h-1z M26,14h4v1h-4z M36,14h3v1h-3z M46,14h10v1h-10z M63,13h4v2h-4z M69,14h7v1h-7z M79,14h3v1h-3z M85,14h6v1h-6z M92,14h4v1h-4z M110,14h9v1h-9z M132,12h5v3h-5z M140,14h4v1h-4z M147,14h3v1h-3z M153,13h7v2h-7z M175,14h4v1h-4z M184,14h10v1h-10z M199,14h5v1h-5z M213,14h1v1h-1z M216,14h4v1h-4z M223,14h6v1h-6z M232,14h9v1h-9z M248,14h8v1h-8z M258,14h2v1h-2z M261,12h4v3h-4z M7,15h8v1h-8z M18,15h3v1h-3z M25,15h6v1h-6z M35,15h6v1h-6z M46,15h12v1h-12z M85,15h12v1h-12z M98,14h4v2h-4z M111,15h17v1h-17z M131,15h5v1h-5z M154,15h5v1h-5z M162,15h5v1h-5z M174,15h6v1h-6z M184,15h11v1h-11z M198,15h6v1h-6z M207,15h13v1h-13z M222,15h7v1h-7z M232,15h12v1h-12z M248,15h7v1h-7z M258,15h7v1h-7z M19,16h3v1h-3z M24,16h7v1h-7z M34,16h7v1h-7z M46,16h15v1h-15z M63,15h3v2h-3z M68,15h8v2h-8z M78,15h4v2h-4z M85,16h17v1h-17z M105,15h3v2h-3z M112,16h23v1h-23z M140,15h12v2h-12z M154,16h4v1h-4z M161,16h10v1h-10z M174,16h7v1h-7z M183,16h5v1h-5z M198,16h5v1h-5z M206,16h14v1h-14z M221,16h8v1h-8z M232,16h3v1h-3z M237,16h18v1h-18z M257,16h8v1h-8z M7,16h9v2h-9z M33,17h10v1h-10z M47,17h20v1h-20z M69,17h6v1h-6z M79,17h4v1h-4z M85,17h24v1h-24z M115,17h20v1h-20z M139,17h12v1h-12z M153,17h4v1h-4z M161,17h11v1h-11z M175,17h7v1h-7z M199,17h4v1h-4z M205,17h15v1h-15z M221,17h6v1h-6z M240,17h14v1h-14z M256,17h9v1h-9z M0,15h4v4h-4z M18,17h13v2h-13z M33,18h11v1h-11z M48,18h21v1h-21z M70,18h4v1h-4z M87,18h11v1h-11z M99,18h11v1h-11z M116,18h2v1h-2z M120,18h15v1h-15z M139,18h4v1h-4z M145,18h5v1h-5z M152,18h6v1h-6z M161,18h21v1h-21z M183,17h4v2h-4z M191,16h5v3h-5z M205,18h5v1h-5z M216,18h10v1h-10z M241,18h9v1h-9z M254,18h11v1h-11z M18,19h12v1h-12z M32,19h5v1h-5z M39,19h6v1h-6z M50,19h6v1h-6z M59,19h10v1h-10z M78,18h5v2h-5z M90,19h21v1h-21z M120,19h4v1h-4z M139,19h3v1h-3z M145,19h4v1h-4z M161,19h4v1h-4z M168,19h13v1h-13z M184,19h2v1h-2z M190,19h7v1h-7z M200,18h3v2h-3z M217,19h8v1h-8z M226,19h3v1h-3z M231,17h4v3h-4z M240,19h11v1h-11z M252,19h13v1h-13z M6,18h10v3h-10z M17,20h11v1h-11z M40,20h5v1h-5z M50,20h5v1h-5z M62,20h7v1h-7z M71,20h2v1h-2z M77,20h7v1h-7z M86,19h2v2h-2z M90,20h4v1h-4z M96,20h10v1h-10z M107,20h4v1h-4z M115,19h3v2h-3z M121,20h3v1h-3z M127,19h8v2h-8z M138,20h4v1h-4z M169,20h8v1h-8z M183,20h3v1h-3z M189,20h10v1h-10z M204,19h4v2h-4z M218,20h6v1h-6z M225,20h10v1h-10z M239,20h26v1h-26z M7,21h21v1h-21z M31,20h5v2h-5z M40,21h7v1h-7z M49,21h5v1h-5z M64,21h5v1h-5z M70,21h4v1h-4z M76,21h8v1h-8z M87,21h8v1h-8z M97,21h7v1h-7z M139,21h4v1h-4z M146,20h3v2h-3z M152,19h7v3h-7z M162,20h3v2h-3z M169,21h7v1h-7z M183,21h4v1h-4z M188,21h11v1h-11z M225,21h11v1h-11z M237,21h18v1h-18z M257,21h8v1h-8z M0,19h5v4h-5z M8,22h6v1h-6z M15,22h5v1h-5z M23,22h6v1h-6z M30,22h7v1h-7z M39,22h14v1h-14z M64,22h4v1h-4z M70,22h15v1h-15z M88,22h7v1h-7z M97,22h9v1h-9z M108,21h4v2h-4z M116,21h1v2h-1z M121,21h15v2h-15z M161,22h4v1h-4z M168,22h8v1h-8z M183,22h16v1h-16z M204,21h3v2h-3z M218,21h4v2h-4z M224,22h30v1h-30z M258,22h7v1h-7z M0,23h6v1h-6z M9,23h4v1h-4z M14,23h6v1h-6z M25,23h5v1h-5z M32,23h16v1h-16z M49,23h4v1h-4z M57,23h1v1h-1z M59,23h1v1h-1z M63,23h5v1h-5z M71,23h8v1h-8z M81,23h4v1h-4z M87,23h8v1h-8z M98,23h14v1h-14z M115,23h3v1h-3z M121,23h16v1h-16z M151,22h9v2h-9z M161,23h20v1h-20z M193,23h6v1h-6z M203,23h5v1h-5z M209,23h13v1h-13z M224,23h29v1h-29z M257,23h8v1h-8z M0,24h18v1h-18z M33,24h9v1h-9z M45,24h2v1h-2z M87,24h9v1h-9z M98,24h21v1h-21z M121,24h6v1h-6z M128,24h9v1h-9z M139,22h10v3h-10z M150,24h10v1h-10z M161,24h11v1h-11z M183,23h9v2h-9z M194,24h5v1h-5z M203,24h19v1h-19z M224,24h14v1h-14z M244,24h8v1h-8z M256,24h9v1h-9z M0,25h17v1h-17z M34,25h8v1h-8z M49,24h19v2h-19z M73,24h5v2h-5z M82,24h4v2h-4z M98,25h4v1h-4z M104,25h16v1h-16z M122,25h4v1h-4z M129,25h9v1h-9z M139,25h9v1h-9z M149,25h22v1h-22z M173,24h8v2h-8z M184,25h8v1h-8z M195,25h26v1h-26z M223,25h8v1h-8z M233,25h4v1h-4z M240,24h3v2h-3z M244,25h9v1h-9z M254,25h11v1h-11z M11,26h7v1h-7z M33,26h9v1h-9z M43,26h3v1h-3z M49,26h22v1h-22z M73,26h14v1h-14z M88,25h8v2h-8z M98,26h5v1h-5z M107,26h3v1h-3z M112,26h9v1h-9z M123,26h1v1h-1z M129,26h10v1h-10z M141,26h1v1h-1z M144,26h3v1h-3z M149,26h7v1h-7z M162,26h9v1h-9z M173,26h7v1h-7z M185,26h2v1h-2z M190,26h3v1h-3z M199,26h11v1h-11z M219,26h2v1h-2z M224,26h7v1h-7z M234,26h2v1h-2z M239,26h4v1h-4z M246,26h13v1h-13z M12,27h11v1h-11z M26,24h4v4h-4z M32,27h15v1h-15z M50,27h6v1h-6z M74,27h13v1h-13z M90,27h5v1h-5z M97,27h7v1h-7z M113,27h8v1h-8z M129,27h9v1h-9z M150,27h5v1h-5z M163,27h1v1h-1z M167,27h3v1h-3z M173,27h6v1h-6z M190,27h2v1h-2z M199,27h6v1h-6z M207,27h1v1h-1z M229,27h1v1h-1z M239,27h3v1h-3z M248,27h10v1h-10z M0,26h10v3h-10z M12,28h18v1h-18z M41,28h7v1h-7z M52,28h4v1h-4z M64,27h7v2h-7z M75,28h12v1h-12z M92,28h2v1h-2z M114,28h6v1h-6z M132,28h6v1h-6z M151,28h2v1h-2z M175,28h4v1h-4z M199,28h5v1h-5z M235,28h8v1h-8z M250,28h2v1h-2z M254,28h4v1h-4z M261,26h4v3h-4z M13,29h17v1h-17z M32,28h5v2h-5z M41,29h8v1h-8z M53,29h2v1h-2z M65,29h6v1h-6z M79,29h7v1h-7z M97,28h8v2h-8z M135,29h1v1h-1z M200,29h2v1h-2z M218,27h3v3h-3z M237,29h9v1h-9z M255,29h1v1h-1z M0,29h11v2h-11z M19,30h11v1h-11z M33,30h3v1h-3z M42,30h7v1h-7z M65,30h5v1h-5z M98,30h7v1h-7z M189,30h3v1h-3z M198,30h3v1h-3z M219,30h2v1h-2z M238,30h1v1h-1z M245,30h2v1h-2z M0,31h6v1h-6z M7,31h3v1h-3z M24,31h5v1h-5z M34,31h2v1h-2z M43,31h5v1h-5z M58,30h2v2h-2z M163,31h2v1h-2z M189,31h4v1h-4z M197,31h4v1h-4z M262,29h3v3h-3z M46,32h1v1h-1z M132,32h3v1h-3z M152,32h1v1h-1z M163,32h3v1h-3z M181,31h2v2h-2z M189,32h3v1h-3z M198,32h2v1h-2z M209,29h4v4h-4z M245,31h3v2h-3z M54,33h2v1h-2z M77,33h3v1h-3z M86,33h1v1h-1z M121,33h2v1h-2z M132,33h4v1h-4z M141,33h2v1h-2z M164,33h1v1h-1z M172,33h2v1h-2z M203,33h1v1h-1z M227,32h2v2h-2z M254,32h3v2h-3z M27,34h3v1h-3z M36,34h3v1h-3z M45,34h3v1h-3z M63,34h2v1h-2z M76,34h4v1h-4z M94,33h2v2h-2z M132,34h3v1h-3z M151,33h2v2h-2z M172,34h3v1h-3z M181,33h3v2h-3z M221,34h1v1h-1z M227,34h1v1h-1z M255,34h1v1h-1z M17,35h2v1h-2z M35,35h4v1h-4z M44,35h4v1h-4z M53,34h4v2h-4z M62,35h4v1h-4z M70,34h3v2h-3z M77,35h3v1h-3z M84,34h4v2h-4z M107,35h3v1h-3z M121,34h3v2h-3z M133,35h1v1h-1z M159,35h1v1h-1z M173,35h2v1h-2z M203,34h3v2h-3z M221,35h2v1h-2z M236,34h2v2h-2z M0,32h5v5h-5z M17,36h4v1h-4z M26,35h4v2h-4z M36,36h3v1h-3z M45,36h3v1h-3z M53,36h3v1h-3z M63,36h2v1h-2z M85,36h3v1h-3z M107,36h2v1h-2z M125,36h1v1h-1z M158,36h2v1h-2z M221,36h3v1h-3z M6,35h4v3h-4z M17,37h3v1h-3z M27,37h1v1h-1z M37,37h1v1h-1z M100,36h2v2h-2z M125,37h2v1h-2z M222,37h1v1h-1z M251,37h1v1h-1z M49,38h1v1h-1z M114,37h2v2h-2z M125,38h3v1h-3z M143,38h2v1h-2z M204,38h1v1h-1z M251,38h2v1h-2z M261,32h4v7h-4z M1,37h4v3h-4z M14,39h2v1h-2z M24,39h1v1h-1z M49,39h2v1h-2z M106,39h1v1h-1z M144,39h1v1h-1z M152,39h1v1h-1z M176,37h1v3h-1z M203,39h3v1h-3z M242,39h3v1h-3z M251,39h3v1h-3z M37,40h1v1h-1z M48,40h4v1h-4z M63,40h3v1h-3z M70,40h3v1h-3z M105,40h3v1h-3z M151,40h3v1h-3z M167,39h2v2h-2z M203,40h4v1h-4z M231,39h3v2h-3z M243,40h1v1h-1z M251,40h2v1h-2z M262,39h3v2h-3z M1,40h3v2h-3z M13,40h4v2h-4z M23,40h3v2h-3z M36,41h2v1h-2z M49,41h3v1h-3z M57,39h2v3h-2z M82,41h3v1h-3z M91,39h3v3h-3z M106,41h3v1h-3z M134,39h3v3h-3z M151,41h2v1h-2z M168,41h1v1h-1z M182,40h2v2h-2z M204,41h2v1h-2z M232,41h2v1h-2z M14,42h2v1h-2z M24,42h2v1h-2z M29,42h2v1h-2z M62,41h4v2h-4z M69,41h5v2h-5z M82,42h4v1h-4z M97,42h2v1h-2z M106,42h2v1h-2z M118,42h1v1h-1z M160,41h1v2h-1z M189,41h1v2h-1z M197,42h2v1h-2z M257,40h2v3h-2z M1,42h4v2h-4z M8,43h3v1h-3z M19,43h4v1h-4z M29,43h3v1h-3z M42,40h2v4h-2z M63,43h3v1h-3z M70,43h3v1h-3z M75,42h3v2h-3z M82,43h3v1h-3z M117,43h2v1h-2z M197,43h1v1h-1z M248,43h2v1h-2z M7,44h5v1h-5z M18,44h5v1h-5z M30,44h1v1h-1z M37,44h1v1h-1z M43,44h4v1h-4z M52,44h2v1h-2z M64,44h2v1h-2z M123,44h2v1h-2z M140,44h2v1h-2z M172,44h1v1h-1z M247,44h4v1h-4z M1,44h3v2h-3z M8,45h3v1h-3z M19,45h3v1h-3z M44,45h4v1h-4z M52,45h3v1h-3z M123,45h3v1h-3z M155,45h3v1h-3z M209,44h1v2h-1z M232,45h2v1h-2z M8,46h2v1h-2z M23,46h2v1h-2z M36,45h3v2h-3z M45,46h3v1h-3z M52,46h2v1h-2z M66,46h2v1h-2z M74,46h1v1h-1z M88,45h4v2h-4z M110,46h2v1h-2z M123,46h2v1h-2z M139,45h4v2h-4z M147,45h3v2h-3z M179,46h2v1h-2z M200,46h2v1h-2z M218,46h1v1h-1z M239,46h3v1h-3z M22,47h4v1h-4z M30,47h2v1h-2z M37,47h2v1h-2z M45,47h2v1h-2z M65,47h4v1h-4z M73,47h3v1h-3z M88,47h3v1h-3z M111,47h1v1h-1z M131,46h2v2h-2z M148,47h1v1h-1z M155,46h4v2h-4z M165,47h2v1h-2z M185,47h2v1h-2z M200,47h3v1h-3z M216,47h4v1h-4z M231,46h3v2h-3z M13,48h2v1h-2z M23,48h2v1h-2z M29,48h3v1h-3z M58,47h2v2h-2z M66,48h3v1h-3z M74,48h2v1h-2z M96,47h3v2h-3z M172,48h2v1h-2z M179,47h3v2h-3z M184,48h4v1h-4z M201,48h1v1h-1z M217,48h3v1h-3z M232,48h1v1h-1z M254,48h1v1h-1z M1,46h4v4h-4z M14,49h1v1h-1z M30,49h2v1h-2z M58,49h1v1h-1z M81,47h2v3h-2z M97,49h1v1h-1z M171,49h3v1h-3z M185,49h1v1h-1z M26,50h2v1h-2z M40,50h5v1h-5z M46,50h2v1h-2z M102,50h4v1h-4z M144,50h1v1h-1z M245,50h2v1h-2z M8,49h3v3h-3z M39,51h14v1h-14z M144,51h3v1h-3z M157,51h2v1h-2z M206,51h4v1h-4z M244,51h4v1h-4z M9,52h1v1h-1z M11,52h4v1h-4z M20,52h2v1h-2z M25,51h5v2h-5z M39,52h15v1h-15z M72,52h1v1h-1z M85,52h6v1h-6z M101,51h6v2h-6z M116,52h2v1h-2z M124,52h2v1h-2z M128,52h1v1h-1z M143,52h5v1h-5z M156,52h4v1h-4z M176,52h9v1h-9z M200,52h3v1h-3z M205,52h7v1h-7z M234,52h2v1h-2z M0,50h5v4h-5z M19,53h4v1h-4z M26,53h4v1h-4z M33,53h1v1h-1z M39,53h16v1h-16z M60,53h3v1h-3z M71,53h3v1h-3z M84,53h9v1h-9z M100,53h8v1h-8z M115,53h4v1h-4z M122,53h14v1h-14z M142,53h6v1h-6z M155,53h5v1h-5z M165,53h3v1h-3z M175,53h11v1h-11z M199,53h4v1h-4z M204,53h14v1h-14z M229,53h1v1h-1z M233,53h5v1h-5z M243,52h5v2h-5z M0,54h7v1h-7z M11,53h5v2h-5z M18,54h6v1h-6z M27,54h8v1h-8z M60,54h5v1h-5z M80,54h14v1h-14z M99,54h10v1h-10z M114,54h6v1h-6z M141,54h8v1h-8z M154,54h7v1h-7z M164,54h5v1h-5z M182,54h5v1h-5z M193,53h4v2h-4z M199,54h20v1h-20z M224,54h7v1h-7z M232,54h7v1h-7z M244,54h4v1h-4z M261,41h4v14h-4z M0,55h9v1h-9z M12,55h4v1h-4z M17,55h7v1h-7z M30,55h5v1h-5z M39,54h8v2h-8z M51,54h4v2h-4z M59,55h7v1h-7z M70,54h5v2h-5z M79,55h15v1h-15z M99,55h4v1h-4z M122,54h15v2h-15z M153,55h8v1h-8z M164,55h6v1h-6z M175,54h6v2h-6z M183,55h5v1h-5z M193,55h10v1h-10z M204,55h4v1h-4z M210,55h10v1h-10z M224,55h16v1h-16z M245,55h2v1h-2z M250,55h8v1h-8z M262,55h3v1h-3z M1,56h9v1h-9z M16,56h9v1h-9z M29,56h7v1h-7z M39,56h9v1h-9z M51,56h5v1h-5z M58,56h9v1h-9z M69,56h7v1h-7z M80,56h14v1h-14z M98,56h4v1h-4z M113,55h7v2h-7z M133,56h5v1h-5z M142,55h7v2h-7z M152,56h9v1h-9z M163,56h7v1h-7z M176,56h5v1h-5z M184,56h6v1h-6z M199,56h3v1h-3z M203,56h5v1h-5z M214,56h7v1h-7z M224,56h3v1h-3z M230,56h11v1h-11z M246,56h1v1h-1z M249,56h11v1h-11z M261,56h4v1h-4z M15,57h11v1h-11z M29,57h8v1h-8z M39,57h16v1h-16z M58,57h10v1h-10z M69,57h9v1h-9z M83,57h10v1h-10z M114,57h6v1h-6z M122,56h8v2h-8z M134,57h6v1h-6z M143,57h5v1h-5z M151,57h4v1h-4z M163,57h9v1h-9z M177,57h5v1h-5z M185,57h6v1h-6z M193,56h5v2h-5z M203,57h6v1h-6z M215,57h7v1h-7z M230,57h3v1h-3z M237,57h6v1h-6z M1,57h11v2h-11z M15,58h4v1h-4z M39,58h3v1h-3z M43,58h12v1h-12z M58,58h21v1h-21z M97,57h4v2h-4z M105,55h5v4h-5z M115,58h4v1h-4z M123,58h9v1h-9z M134,58h7v1h-7z M144,58h4v1h-4z M150,58h4v1h-4z M157,57h4v2h-4z M162,58h12v1h-12z M177,58h6v1h-6z M186,58h5v1h-5z M194,58h5v1h-5z M204,58h9v1h-9z M214,58h10v1h-10z M229,58h5v1h-5z M238,58h6v1h-6z M249,57h16v2h-16z M0,59h19v1h-19z M22,58h5v2h-5z M29,58h9v2h-9z M60,59h20v1h-20z M84,58h7v2h-7z M97,59h5v1h-5z M105,59h6v1h-6z M119,59h14v1h-14z M134,59h8v1h-8z M143,59h4v1h-4z M148,59h6v1h-6z M163,59h11v1h-11z M179,59h5v1h-5z M198,59h1v1h-1z M205,59h20v1h-20z M229,59h17v1h-17z M249,59h4v1h-4z M0,60h11v1h-11z M12,60h15v1h-15z M32,60h6v1h-6z M43,59h15v2h-15z M61,60h12v1h-12z M74,60h8v1h-8z M85,60h5v1h-5z M97,60h19v1h-19z M118,60h8v1h-8z M129,60h18v1h-18z M148,60h5v1h-5z M158,59h3v2h-3z M164,60h9v1h-9z M180,60h5v1h-5z M187,59h4v2h-4z M207,60h19v1h-19z M229,60h25v1h-25z M256,59h9v2h-9z M0,61h9v1h-9z M12,61h14v1h-14z M34,61h12v1h-12z M49,61h4v1h-4z M54,61h4v1h-4z M66,61h17v1h-17z M84,61h6v1h-6z M96,61h20v1h-20z M130,61h9v1h-9z M142,61h11v1h-11z M157,61h5v1h-5z M166,61h4v1h-4z M180,61h11v1h-11z M201,61h2v1h-2z M209,61h2v1h-2z M214,61h3v1h-3z M220,61h6v1h-6z M230,61h24v1h-24z M256,61h4v1h-4z M12,62h13v1h-13z M34,62h1v1h-1z M36,62h9v1h-9z M50,62h4v1h-4z M55,62h3v1h-3z M60,62h1v1h-1z M84,62h5v1h-5z M95,62h14v1h-14z M112,62h3v1h-3z M118,61h5v2h-5z M126,62h2v1h-2z M131,62h8v1h-8z M142,62h20v1h-20z M166,62h3v1h-3z M172,62h2v1h-2z M179,62h12v1h-12z M193,62h3v1h-3z M200,62h6v1h-6z M220,62h7v1h-7z M232,62h11v1h-11z M245,62h3v1h-3z M249,62h5v1h-5z M256,62h3v1h-3z M12,63h8v1h-8z M32,63h14v1h-14z M58,63h5v1h-5z M67,62h16v2h-16z M85,63h3v1h-3z M95,63h4v1h-4z M102,63h6v1h-6z M117,63h5v1h-5z M125,63h3v1h-3z M133,63h7v1h-7z M144,63h2v1h-2z M147,63h15v1h-15z M167,63h2v1h-2z M171,63h3v1h-3z M200,63h8v1h-8z M210,63h1v1h-1z M215,63h12v1h-12z M233,63h6v1h-6z M0,62h10v3h-10z M27,64h20v1h-20z M49,63h6v2h-6z M57,64h7v1h-7z M67,64h9v1h-9z M77,64h6v1h-6z M94,64h6v1h-6z M109,64h2v1h-2z M116,64h6v1h-6z M125,64h4v1h-4z M133,64h9v1h-9z M169,64h6v1h-6z M179,63h18v2h-18z M199,64h12v1h-12z M222,64h5v1h-5z M232,64h6v1h-6z M250,63h4v2h-4z M255,63h4v2h-4z M0,65h6v1h-6z M26,65h15v1h-15z M42,65h5v1h-5z M56,65h8v1h-8z M66,65h8v1h-8z M86,65h3v1h-3z M93,65h7v1h-7z M104,64h2v2h-2z M109,65h1v1h-1z M114,65h8v1h-8z M124,65h5v1h-5z M134,65h9v1h-9z M146,64h19v2h-19z M169,65h7v1h-7z M179,65h17v1h-17z M199,65h14v1h-14z M215,64h6v2h-6z M224,65h2v1h-2z M231,65h7v1h-7z M242,65h4v1h-4z M250,65h9v1h-9z M0,66h7v1h-7z M23,66h11v1h-11z M35,66h5v1h-5z M44,66h4v1h-4z M49,65h5v2h-5z M56,66h9v1h-9z M66,66h3v1h-3z M71,66h4v1h-4z M78,65h4v2h-4z M85,66h6v1h-6z M93,66h8v1h-8z M102,66h5v1h-5z M113,66h9v1h-9z M123,66h7v1h-7z M136,66h18v1h-18z M157,66h8v1h-8z M168,66h9v1h-9z M188,66h1v1h-1z M192,66h3v1h-3z M198,66h5v1h-5z M206,66h15v1h-15z M227,66h11v1h-11z M250,66h8v1h-8z M0,67h9v1h-9z M13,64h5v4h-5z M22,67h11v1h-11z M36,67h4v1h-4z M44,67h10v1h-10z M55,67h10v1h-10z M67,67h1v1h-1z M71,67h11v1h-11z M84,67h8v1h-8z M93,67h15v1h-15z M111,67h20v1h-20z M136,67h14v1h-14z M153,67h3v1h-3z M160,67h5v1h-5z M167,67h11v1h-11z M180,66h4v2h-4z M186,67h4v1h-4z M198,67h4v1h-4z M207,67h15v1h-15z M227,67h10v1h-10z M251,67h7v1h-7z M21,68h12v1h-12z M36,68h5v1h-5z M44,68h9v1h-9z M54,68h11v1h-11z M69,68h13v1h-13z M83,68h25v1h-25z M110,68h21v1h-21z M135,68h13v1h-13z M152,68h5v1h-5z M160,68h4v1h-4z M166,68h5v1h-5z M174,68h5v1h-5z M181,68h2v1h-2z M185,68h5v1h-5z M208,68h14v1h-14z M227,68h6v1h-6z M251,68h8v1h-8z M0,68h16v2h-16z M37,69h4v1h-4z M44,69h6v1h-6z M54,69h5v1h-5z M69,69h12v1h-12z M83,69h20v1h-20z M104,69h10v1h-10z M115,69h5v1h-5z M122,69h9v1h-9z M134,69h6v1h-6z M142,69h5v1h-5z M151,69h7v1h-7z M160,69h3v1h-3z M166,69h4v1h-4z M175,69h4v1h-4z M184,69h7v1h-7z M197,68h4v2h-4z M208,69h5v1h-5z M226,69h8v1h-8z M237,69h2v1h-2z M241,66h6v4h-6z M251,69h9v1h-9z M261,61h4v9h-4z M7,70h12v1h-12z M20,69h6v2h-6z M53,70h6v1h-6z M61,69h5v2h-5z M68,70h4v1h-4z M74,70h6v1h-6z M82,70h5v1h-5z M88,70h14v1h-14z M107,70h6v1h-6z M116,70h3v1h-3z M123,70h8v1h-8z M134,70h5v1h-5z M143,70h4v1h-4z M164,70h6v1h-6z M175,70h5v1h-5z M197,70h5v1h-5z M207,70h5v1h-5z M215,69h8v2h-8z M226,70h9v1h-9z M236,70h3v1h-3z M252,70h2v1h-2z M9,71h17v1h-17z M29,69h4v3h-4z M37,70h13v2h-13z M53,71h12v1h-12z M67,71h5v1h-5z M74,71h5v1h-5z M99,71h3v1h-3z M107,71h12v1h-12z M125,71h6v1h-6z M133,71h5v1h-5z M151,70h12v2h-12z M164,71h17v1h-17z M184,70h10v2h-10z M197,71h7v1h-7z M206,71h7v1h-7z M215,71h7v1h-7z M226,71h13v1h-13z M257,70h8v2h-8z M9,72h12v1h-12z M22,72h5v1h-5z M28,72h7v1h-7z M38,72h11v1h-11z M81,71h5v2h-5z M99,72h4v1h-4z M108,72h11v1h-11z M126,72h11v1h-11z M144,71h4v2h-4z M151,72h11v1h-11z M163,72h18v1h-18z M192,72h1v1h-1z M198,72h16v1h-16z M216,72h5v1h-5z M226,72h11v1h-11z M242,70h5v3h-5z M258,72h1v1h-1z M0,70h5v4h-5z M8,73h12v1h-12z M23,73h12v1h-12z M38,73h7v1h-7z M52,72h12v2h-12z M67,72h12v2h-12z M80,73h6v1h-6z M89,71h4v3h-4z M98,73h6v1h-6z M109,73h10v1h-10z M121,73h2v1h-2z M128,73h2v1h-2z M131,73h6v1h-6z M143,73h5v1h-5z M151,73h8v1h-8z M164,73h17v1h-17z M184,72h7v2h-7z M200,73h13v1h-13z M216,73h3v1h-3z M227,73h10v1h-10z M243,73h4v1h-4z M0,74h13v1h-13z M14,74h6v1h-6z M24,74h12v1h-12z M40,74h4v1h-4z M53,74h12v1h-12z M68,74h11v1h-11z M97,74h8v1h-8z M111,74h8v1h-8z M121,74h1v1h-1z M131,74h17v1h-17z M151,74h7v1h-7z M164,74h11v1h-11z M178,74h3v1h-3z M185,74h6v1h-6z M202,74h6v1h-6z M210,74h2v1h-2z M228,74h8v1h-8z M243,74h3v1h-3z M250,74h2v1h-2z M0,75h12v1h-12z M25,75h6v1h-6z M32,75h4v1h-4z M54,75h1v1h-1z M71,75h7v1h-7z M80,74h12v2h-12z M115,75h4v1h-4z M131,75h16v1h-16z M152,75h6v1h-6z M165,75h1v1h-1z M187,75h4v1h-4z M231,75h5v1h-5z M250,75h3v1h-3z M256,75h1v1h-1z M0,76h11v1h-11z M15,75h3v2h-3z M26,76h5v1h-5z M59,75h6v2h-6z M72,76h1v1h-1z M74,76h3v1h-3z M81,76h11v1h-11z M98,75h7v2h-7z M132,76h14v1h-14z M188,76h2v1h-2z M249,76h4v1h-4z M256,76h2v1h-2z M0,77h10v1h-10z M15,77h5v1h-5z M27,77h1v1h-1z M31,77h2v1h-2z M60,77h4v1h-4z M86,77h6v1h-6z M100,77h2v1h-2z M109,77h2v1h-2z M132,77h3v1h-3z M136,77h3v1h-3z M140,77h1v1h-1z M143,77h1v1h-1z M146,77h2v1h-2z M170,77h3v1h-3z M180,77h2v1h-2z M195,77h3v1h-3z M250,77h2v1h-2z M256,77h1v1h-1z M0,78h6v1h-6z M7,78h1v1h-1z M31,78h3v1h-3z M42,78h1v1h-1z M58,78h1v1h-1z M66,77h3v2h-3z M88,78h2v1h-2z M108,78h3v1h-3z M131,78h3v1h-3z M162,78h2v1h-2z M195,78h2v1h-2z M217,78h2v1h-2z M223,77h3v2h-3z M245,78h1v1h-1z M7,79h3v1h-3z M14,78h6v2h-6z M23,79h3v1h-3z M30,79h4v1h-4z M41,79h3v1h-3z M49,78h4v2h-4z M80,79h3v1h-3z M108,79h4v1h-4z M153,79h4v1h-4z M162,79h3v1h-3z M170,78h4v2h-4z M179,78h3v2h-3z M195,79h1v1h-1z M204,78h2v2h-2z M224,79h2v1h-2z M231,79h2v1h-2z M244,79h3v1h-3z M6,80h4v1h-4z M15,80h5v1h-5z M22,80h5v1h-5z M31,80h4v1h-4z M41,80h4v1h-4z M50,80h2v1h-2z M66,79h4v2h-4z M73,80h2v1h-2z M80,80h4v1h-4z M98,80h3v1h-3z M108,80h3v1h-3z M124,78h3v3h-3z M131,79h4v2h-4z M138,80h2v1h-2z M145,78h4v3h-4z M162,80h2v1h-2z M171,80h2v1h-2z M216,79h3v2h-3z M245,80h1v1h-1z M251,80h2v1h-2z M16,81h3v1h-3z M23,81h4v1h-4z M40,81h5v1h-5z M56,79h4v3h-4z M72,81h3v1h-3z M81,81h3v1h-3z M88,81h3v1h-3z M97,81h5v1h-5z M117,80h3v2h-3z M131,81h3v1h-3z M138,81h3v1h-3z M146,81h2v1h-2z M154,80h3v2h-3z M197,81h2v1h-2z M211,81h2v1h-2z M231,80h3v2h-3z M0,79h5v4h-5z M6,81h5v2h-5z M23,82h3v1h-3z M41,82h3v1h-3z M58,82h1v1h-1z M72,82h1v1h-1z M81,82h2v1h-2z M97,82h4v1h-4z M118,82h2v1h-2z M128,82h3v1h-3z M137,82h4v1h-4z M154,82h1v1h-1z M182,82h2v1h-2z M188,82h2v1h-2z M232,82h1v1h-1z M250,81h4v2h-4z M0,83h15v1h-15z M32,81h4v3h-4z M47,82h3v2h-3z M62,83h3v1h-3z M87,82h4v2h-4z M98,83h3v1h-3z M103,83h2v1h-2z M138,83h3v1h-3z M159,83h2v1h-2z M165,83h3v1h-3z M197,82h3v2h-3z M210,82h4v2h-4z M251,83h2v1h-2z M8,84h1v1h-1z M33,84h3v1h-3z M46,84h4v1h-4z M62,84h4v1h-4z M88,84h2v1h-2z M127,83h4v2h-4z M158,84h3v1h-3z M165,84h4v1h-4z M175,84h2v1h-2z M182,83h3v2h-3z M211,84h2v1h-2z M20,85h2v1h-2z M37,85h3v1h-3z M47,85h3v1h-3z M55,85h2v1h-2z M61,85h5v1h-5z M70,85h2v1h-2z M78,83h4v3h-4z M94,85h1v1h-1z M102,84h3v2h-3z M111,83h3v3h-3z M128,85h2v1h-2z M151,85h1v1h-1z M159,85h2v1h-2z M166,85h2v1h-2z M183,85h1v1h-1z M203,84h3v2h-3z M224,83h2v3h-2z M256,85h3v1h-3z M0,84h5v3h-5z M9,86h1v1h-1z M11,84h4v3h-4z M62,86h2v1h-2z M79,86h3v1h-3z M102,86h2v1h-2z M118,86h2v1h-2z M135,86h2v1h-2z M192,86h1v1h-1z M203,86h4v1h-4z M216,86h1v1h-1z M245,86h2v1h-2z M8,87h3v1h-3z M19,86h4v2h-4z M28,87h2v1h-2z M36,86h5v2h-5z M70,86h3v2h-3z M79,87h2v1h-2z M87,87h1v1h-1z M117,87h4v1h-4z M129,87h1v1h-1z M134,87h3v1h-3z M143,85h3v3h-3z M151,86h2v2h-2z M203,87h3v1h-3z M230,87h1v1h-1z M244,87h3v1h-3z M251,87h1v1h-1z M255,86h4v2h-4z M9,88h2v1h-2z M19,88h3v1h-3z M28,88h3v1h-3z M37,88h4v1h-4z M54,86h4v3h-4z M71,88h1v1h-1z M85,88h3v1h-3z M93,86h4v3h-4z M99,88h1v1h-1z M101,88h1v1h-1z M108,88h2v1h-2z M118,88h3v1h-3z M128,88h2v1h-2z M135,88h2v1h-2z M156,87h4v2h-4z M164,88h3v1h-3z M191,87h2v2h-2z M215,87h3v2h-3z M245,88h2v1h-2z M256,88h2v1h-2z M10,89h1v1h-1z M18,89h3v1h-3z M28,89h2v1h-2z M38,89h2v1h-2z M44,89h3v1h-3z M75,89h2v1h-2z M85,89h4v1h-4z M94,89h1v1h-1z M119,89h1v1h-1z M155,89h5v1h-5z M163,89h4v1h-4z M192,89h1v1h-1z M207,88h3v2h-3z M216,89h1v1h-1z M222,89h1v1h-1z M229,88h3v2h-3z M236,88h3v2h-3z M251,88h2v2h-2z M85,90h3v1h-3z M98,89h4v2h-4z M106,89h5v2h-5z M128,89h3v2h-3z M156,90h3v1h-3z M164,90h3v1h-3z M175,90h1v1h-1z M208,90h2v1h-2z M237,90h1v1h-1z M16,90h5v2h-5z M66,91h1v1h-1z M74,90h4v2h-4z M99,91h3v1h-3z M107,91h3v1h-3z M120,91h3v1h-3z M129,91h1v1h-1z M141,91h2v1h-2z M165,91h1v1h-1z M221,90h2v2h-2z M11,92h3v1h-3z M16,92h4v1h-4z M39,92h2v1h-2z M44,90h4v3h-4z M52,92h2v1h-2z M63,92h6v1h-6z M76,92h1v1h-1z M117,92h7v1h-7z M135,92h9v1h-9z M182,90h2v3h-2z M190,92h2v1h-2z M9,93h5v1h-5z M35,93h8v1h-8z M51,93h4v1h-4z M63,93h7v1h-7z M131,93h14v1h-14z M148,93h1v1h-1z M167,93h1v1h-1z M203,93h1v1h-1z M229,93h1v1h-1z M237,93h1v1h-1z M251,93h1v1h-1z M256,93h2v1h-2z M8,94h7v1h-7z M24,94h19v1h-19z M50,94h6v1h-6z M62,94h10v1h-10z M79,94h2v1h-2z M85,94h3v1h-3z M116,93h9v2h-9z M130,94h15v1h-15z M147,94h4v1h-4z M166,94h3v1h-3z M201,94h5v1h-5z M215,94h3v1h-3z M227,94h4v1h-4z M236,94h4v1h-4z M245,94h8v1h-8z M256,94h3v1h-3z M1,87h4v9h-4z M7,95h8v1h-8z M23,95h20v1h-20z M45,95h2v1h-2z M50,95h10v1h-10z M62,95h11v1h-11z M78,95h4v1h-4z M84,95h7v1h-7z M97,95h9v1h-9z M116,95h11v1h-11z M155,95h4v1h-4z M165,95h5v1h-5z M179,95h1v1h-1z M185,95h3v1h-3z M196,95h10v1h-10z M214,95h5v1h-5z M223,95h11v1h-11z M236,95h5v1h-5z M244,95h10v1h-10z M257,95h2v1h-2z M1,96h14v1h-14z M17,96h4v1h-4z M22,96h16v1h-16z M39,96h4v1h-4z M45,96h3v1h-3z M50,96h17v1h-17z M68,96h7v1h-7z M77,96h15v1h-15z M96,96h16v1h-16z M116,96h8v1h-8z M126,96h1v1h-1z M131,95h20v2h-20z M155,96h5v1h-5z M164,96h6v1h-6z M177,96h5v1h-5z M184,96h5v1h-5z M194,96h13v1h-13z M213,96h6v1h-6z M222,96h19v1h-19z M243,96h11v1h-11z M12,97h23v1h-23z M39,97h5v1h-5z M45,97h4v1h-4z M51,97h14v1h-14z M69,97h24v1h-24z M96,97h17v1h-17z M115,97h8v1h-8z M133,97h18v1h-18z M154,97h7v1h-7z M175,97h14v1h-14z M190,96h3v2h-3z M194,97h7v1h-7z M202,97h9v1h-9z M230,97h10v1h-10z M250,97h4v1h-4z M256,96h4v2h-4z M1,97h8v2h-8z M12,98h10v1h-10z M24,98h26v1h-26z M51,98h1v1h-1z M57,98h7v1h-7z M70,98h16v1h-16z M96,98h27v1h-27z M128,98h2v1h-2z M136,98h11v1h-11z M148,98h2v1h-2z M152,98h9v1h-9z M164,97h7v2h-7z M174,98h14v1h-14z M195,98h17v1h-17z M214,97h5v2h-5z M222,97h5v2h-5z M236,98h4v1h-4z M242,97h6v2h-6z M250,98h10v1h-10z M1,99h21v1h-21z M25,99h19v1h-19z M46,99h7v1h-7z M58,99h6v1h-6z M67,99h19v1h-19z M88,98h5v2h-5z M95,99h2v1h-2z M98,99h9v1h-9z M109,99h8v1h-8z M118,99h4v1h-4z M126,99h5v1h-5z M151,99h10v1h-10z M166,99h5v1h-5z M173,99h5v1h-5z M179,99h9v1h-9z M195,99h16v1h-16z M222,99h6v1h-6z M231,98h4v2h-4z M237,99h3v1h-3z M242,99h7v1h-7z M251,99h8v1h-8z M1,100h20v1h-20z M26,100h18v1h-18z M46,100h8v1h-8z M59,100h5v1h-5z M65,100h21v1h-21z M100,100h7v1h-7z M109,100h6v1h-6z M119,100h1v1h-1z M124,100h7v1h-7z M137,99h9v2h-9z M157,100h5v1h-5z M163,100h2v1h-2z M180,100h5v1h-5z M190,100h17v1h-17z M209,100h1v1h-1z M213,99h5v2h-5z M222,100h7v1h-7z M231,100h3v1h-3z M243,100h15v1h-15z M1,101h16v1h-16z M27,101h4v1h-4z M36,101h7v1h-7z M44,101h10v1h-10z M59,101h21v1h-21z M81,101h5v1h-5z M102,101h12v1h-12z M123,101h8v1h-8z M142,101h3v1h-3z M158,101h4v1h-4z M163,101h1v1h-1z M172,100h5v2h-5z M200,101h7v1h-7z M212,101h6v1h-6z M221,101h13v1h-13z M245,101h10v1h-10z M1,102h5v1h-5z M8,102h8v1h-8z M19,102h2v1h-2z M44,102h11v1h-11z M59,102h10v1h-10z M70,102h2v1h-2z M81,102h6v1h-6z M89,100h4v3h-4z M97,102h3v1h-3z M103,102h10v1h-10z M122,102h9v1h-9z M136,101h4v2h-4z M150,100h5v3h-5z M158,102h5v1h-5z M171,102h6v1h-6z M181,101h4v2h-4z M190,101h7v2h-7z M201,102h7v1h-7z M211,102h7v1h-7z M221,102h3v1h-3z M225,102h10v1h-10z M240,102h3v1h-3z M248,102h7v1h-7z M1,103h4v1h-4z M8,103h1v1h-1z M17,103h6v1h-6z M31,103h3v1h-3z M36,102h5v2h-5z M43,103h5v1h-5z M49,103h6v1h-6z M58,103h10v1h-10z M75,102h4v2h-4z M95,103h6v1h-6z M105,103h7v1h-7z M135,103h6v1h-6z M150,103h12v1h-12z M171,103h8v1h-8z M180,103h6v1h-6z M189,103h9v1h-9z M211,103h8v1h-8z M221,103h2v1h-2z M227,103h10v1h-10z M239,103h5v1h-5z M1,104h9v1h-9z M14,103h1v2h-1z M16,104h7v1h-7z M30,104h5v1h-5z M36,104h19v1h-19z M57,104h4v1h-4z M62,104h4v1h-4z M73,104h5v1h-5z M81,103h12v2h-12z M94,104h7v1h-7z M106,104h6v1h-6z M115,104h2v1h-2z M135,104h7v1h-7z M147,104h2v1h-2z M151,104h11v1h-11z M167,104h3v1h-3z M171,104h15v1h-15z M194,104h5v1h-5z M203,103h5v2h-5z M215,104h5v1h-5z M228,104h9v1h-9z M238,104h7v1h-7z M249,103h6v2h-6z M29,105h7v1h-7z M37,105h17v1h-17z M57,105h5v1h-5z M63,105h2v1h-2z M71,105h7v1h-7z M80,105h13v1h-13z M94,105h8v1h-8z M107,105h10v1h-10z M120,103h11v3h-11z M134,105h8v1h-8z M146,105h4v1h-4z M152,105h10v1h-10z M173,105h12v1h-12z M189,104h4v2h-4z M194,105h6v1h-6z M204,105h4v1h-4z M225,105h2v1h-2z M229,105h5v1h-5z M235,105h11v1h-11z M249,105h5v1h-5z M1,105h10v2h-10z M29,106h6v1h-6z M37,106h15v1h-15z M57,106h9v1h-9z M70,106h23v1h-23z M95,106h7v1h-7z M109,106h1v1h-1z M112,106h5v1h-5z M121,106h10v1h-10z M146,106h6v1h-6z M154,106h7v1h-7z M175,106h2v1h-2z M181,106h3v1h-3z M189,106h11v1h-11z M210,104h4v3h-4z M216,105h5v2h-5z M224,106h5v1h-5z M237,106h10v1h-10z M249,106h2v1h-2z M255,106h3v1h-3z M1,107h9v1h-9z M15,105h10v3h-10z M30,107h5v1h-5z M37,107h4v1h-4z M42,107h8v1h-8z M56,107h10v1h-10z M69,107h17v1h-17z M88,107h4v1h-4z M96,107h7v1h-7z M113,107h4v1h-4z M122,107h9v1h-9z M134,106h9v2h-9z M165,105h6v3h-6z M175,107h1v1h-1z M182,107h2v1h-2z M189,107h10v1h-10z M204,106h3v2h-3z M254,107h4v1h-4z M1,108h8v1h-8z M16,108h9v1h-9z M31,108h4v1h-4z M37,108h3v1h-3z M44,108h5v1h-5z M56,108h9v1h-9z M70,108h9v1h-9z M82,108h2v1h-2z M85,108h2v1h-2z M89,108h2v1h-2z M98,108h5v1h-5z M114,108h3v1h-3z M123,108h6v1h-6z M135,108h9v1h-9z M166,108h4v1h-4z M174,108h2v1h-2z M183,108h1v1h-1z M189,108h9v1h-9z M211,107h11v2h-11z M224,107h6v2h-6z M238,107h9v2h-9z M253,108h6v1h-6z M1,109h5v1h-5z M22,109h2v1h-2z M32,109h2v1h-2z M45,109h5v1h-5z M72,109h7v1h-7z M84,109h4v1h-4z M100,109h2v1h-2z M114,109h1v1h-1z M137,109h6v1h-6z M146,107h7v3h-7z M156,107h4v3h-4z M173,109h3v1h-3z M182,109h2v1h-2z M189,109h10v1h-10z M209,109h1v1h-1z M215,109h7v1h-7z M225,109h5v1h-5z M241,109h5v1h-5z M253,109h5v1h-5z M56,109h7v2h-7z M75,110h4v1h-4z M85,110h2v1h-2z M108,110h3v1h-3z M138,110h4v1h-4z M150,110h3v1h-3z M156,110h3v1h-3z M197,110h3v1h-3z M226,110h4v1h-4z M243,110h1v1h-1z M254,110h4v1h-4z M8,111h2v1h-2z M37,111h2v1h-2z M71,111h1v1h-1z M83,111h3v1h-3z M129,111h3v1h-3z M197,111h2v1h-2z M207,110h4v2h-4z M218,110h2v2h-2z M228,111h1v1h-1z M255,111h2v1h-2z M38,112h1v1h-1z M48,110h3v3h-3z M58,111h4v2h-4z M70,112h3v1h-3z M93,112h1v1h-1z M107,111h4v2h-4z M140,112h2v1h-2z M172,110h4v3h-4z M182,110h3v3h-3z M208,112h2v1h-2z M227,112h1v1h-1z M7,112h4v2h-4z M15,113h2v1h-2z M49,113h1v1h-1z M58,113h3v1h-3z M69,113h4v1h-4z M82,112h4v2h-4z M128,112h3v2h-3z M140,113h3v1h-3z M173,113h2v1h-2z M188,113h1v1h-1z M212,113h2v1h-2z M233,112h3v2h-3z M250,113h1v1h-1z M255,113h2v1h-2z M8,114h2v1h-2z M15,114h3v1h-3z M26,113h1v2h-1z M70,114h3v1h-3z M83,114h2v1h-2z M98,114h1v1h-1z M106,114h2v1h-2z M116,111h2v4h-2z M129,114h2v1h-2z M140,114h4v1h-4z M218,112h3v3h-3z M234,114h2v1h-2z M249,114h2v1h-2z M254,114h3v1h-3z M16,115h1v1h-1z M42,115h2v1h-2z M51,115h1v1h-1z M57,114h4v2h-4z M63,114h3v2h-3z M75,115h2v1h-2z M97,115h3v1h-3z M122,115h3v1h-3z M153,114h4v2h-4z M160,114h4v2h-4z M170,115h2v1h-2z M179,115h1v1h-1z M194,114h2v2h-2z M211,114h4v2h-4z M226,113h3v3h-3z M255,115h2v1h-2z M50,116h3v1h-3z M63,116h2v1h-2z M98,116h1v1h-1z M105,115h3v2h-3z M132,116h1v1h-1z M140,115h3v2h-3z M147,116h2v1h-2z M154,116h2v1h-2z M161,116h3v1h-3z M169,116h4v1h-4z M179,116h2v1h-2z M187,114h3v3h-3z M212,116h3v1h-3z M10,117h3v1h-3z M20,117h2v1h-2z M42,116h3v2h-3z M86,116h3v2h-3z M106,117h1v1h-1z M112,116h2v2h-2z M122,116h4v2h-4z M140,117h2v1h-2z M170,117h2v1h-2z M179,117h1v1h-1z M205,115h3v3h-3z M214,117h2v1h-2z M239,115h1v3h-1z M251,117h5v1h-5z M10,118h4v1h-4z M33,117h2v2h-2z M50,117h4v2h-4z M75,116h3v3h-3z M86,118h4v1h-4z M94,118h3v1h-3z M122,118h3v1h-3z M139,118h3v1h-3z M146,117h3v2h-3z M214,118h5v1h-5z M244,118h2v1h-2z M250,118h7v1h-7z M1,110h4v10h-4z M11,119h2v1h-2z M19,118h3v2h-3z M51,119h3v1h-3z M62,119h1v1h-1z M65,119h7v1h-7z M74,119h5v1h-5z M87,119h3v1h-3z M93,119h5v1h-5z M108,119h4v1h-4z M129,118h2v2h-2z M140,119h2v1h-2z M158,119h3v1h-3z M189,119h6v1h-6z M209,119h3v1h-3z M213,119h9v1h-9z M230,118h3v2h-3z M249,119h9v1h-9z M15,120h2v1h-2z M20,120h2v1h-2z M59,120h20v1h-20z M87,120h4v1h-4z M92,120h10v1h-10z M115,120h6v1h-6z M130,120h1v1h-1z M135,120h2v1h-2z M148,120h15v1h-15z M174,120h4v1h-4z M182,120h14v1h-14z M208,120h16v1h-16z M241,119h5v2h-5z M248,120h10v1h-10z M1,120h5v2h-5z M14,121h4v1h-4z M25,121h3v1h-3z M37,121h7v1h-7z M58,121h21v1h-21z M82,121h2v1h-2z M89,121h15v1h-15z M115,121h7v1h-7z M126,121h3v1h-3z M134,121h5v1h-5z M143,121h3v1h-3z M173,121h5v1h-5z M181,121h16v1h-16z M198,121h2v1h-2z M202,121h4v1h-4z M208,121h18v1h-18z M230,120h5v2h-5z M238,121h6v1h-6z M1,122h6v1h-6z M13,122h7v1h-7z M23,122h5v1h-5z M35,122h16v1h-16z M55,122h30v1h-30z M91,122h14v1h-14z M107,120h5v3h-5z M115,122h14v1h-14z M133,122h7v1h-7z M142,122h5v1h-5z M148,121h16v2h-16z M181,122h15v1h-15z M198,122h19v1h-19z M219,122h8v1h-8z M229,122h6v1h-6z M236,122h6v1h-6z M246,121h12v2h-12z M1,123h8v1h-8z M12,123h8v1h-8z M22,123h7v1h-7z M54,123h11v1h-11z M71,123h14v1h-14z M90,123h5v1h-5z M108,123h3v1h-3z M114,123h15v1h-15z M131,123h16v1h-16z M157,123h7v1h-7z M168,122h10v2h-10z M189,123h6v1h-6z M199,123h18v1h-18z M221,123h7v1h-7z M229,123h13v1h-13z M247,123h11v1h-11z M1,124h9v1h-9z M11,124h19v1h-19z M33,123h19v2h-19z M54,124h12v1h-12z M71,124h4v1h-4z M90,124h6v1h-6z M100,123h6v2h-6z M113,124h4v1h-4z M119,124h27v1h-27z M148,123h5v2h-5z M156,124h8v1h-8z M167,124h7v1h-7z M182,123h5v2h-5z M189,124h5v1h-5z M199,124h11v1h-11z M213,124h5v1h-5z M222,124h5v1h-5z M229,124h14v1h-14z M248,124h10v1h-10z M1,125h14v1h-14z M16,125h14v1h-14z M33,125h6v1h-6z M46,125h6v1h-6z M53,125h6v1h-6z M60,125h8v1h-8z M70,125h4v1h-4z M106,125h1v1h-1z M112,125h5v1h-5z M119,125h3v1h-3z M124,125h4v1h-4z M129,125h6v1h-6z M137,125h9v1h-9z M147,125h6v1h-6z M155,125h10v1h-10z M166,125h8v1h-8z M183,125h11v1h-11z M199,125h10v1h-10z M213,125h14v1h-14z M230,125h14v1h-14z M251,125h7v1h-7z M1,126h13v1h-13z M17,126h13v1h-13z M62,126h11v1h-11z M77,124h8v3h-8z M90,125h15v2h-15z M106,126h3v1h-3z M112,126h10v1h-10z M124,126h18v1h-18z M149,126h11v1h-11z M162,126h13v1h-13z M178,125h3v2h-3z M184,126h9v1h-9z M195,126h15v1h-15z M214,126h12v1h-12z M228,126h9v1h-9z M240,126h6v1h-6z M251,126h6v1h-6z M7,127h8v1h-8z M17,127h8v1h-8z M26,127h4v1h-4z M33,126h18v2h-18z M53,126h5v2h-5z M60,127h13v1h-13z M78,127h6v1h-6z M86,127h1v1h-1z M92,127h12v1h-12z M105,127h4v1h-4z M113,127h9v1h-9z M124,127h4v1h-4z M129,127h12v1h-12z M144,126h3v2h-3z M150,127h9v1h-9z M163,127h12v1h-12z M179,127h2v1h-2z M184,127h7v1h-7z M195,127h16v1h-16z M216,127h10v1h-10z M227,127h10v1h-10z M240,127h7v1h-7z M250,127h6v1h-6z M7,128h16v1h-16z M34,128h16v1h-16z M53,128h4v1h-4z M65,128h8v1h-8z M79,128h5v1h-5z M95,128h7v1h-7z M106,128h1v1h-1z M114,128h8v1h-8z M124,128h3v1h-3z M130,128h11v1h-11z M145,128h1v1h-1z M150,128h8v1h-8z M164,128h12v1h-12z M184,128h6v1h-6z M202,128h10v1h-10z M220,128h6v1h-6z M228,128h19v1h-19z M8,129h14v1h-14z M26,128h3v2h-3z M33,129h4v1h-4z M42,129h6v1h-6z M52,129h4v1h-4z M59,128h4v2h-4z M67,129h7v1h-7z M95,129h4v1h-4z M117,129h5v1h-5z M123,129h4v1h-4z M131,129h11v1h-11z M149,129h8v1h-8z M164,129h13v1h-13z M184,129h3v1h-3z M203,129h11v1h-11z M221,129h5v1h-5z M229,129h1v1h-1z M232,129h15v1h-15z M250,128h3v2h-3z M9,130h13v1h-13z M34,130h2v1h-2z M52,130h3v1h-3z M60,130h5v1h-5z M68,130h7v1h-7z M95,130h3v1h-3z M118,130h4v1h-4z M124,130h3v1h-3z M137,130h6v1h-6z M148,130h9v1h-9z M164,130h14v1h-14z M191,130h2v1h-2z M198,130h2v1h-2z M204,130h7v1h-7z M213,130h2v1h-2z M221,130h4v1h-4z M232,130h17v1h-17z M251,130h1v1h-1z M1,127h4v5h-4z M12,131h3v1h-3z M18,131h4v1h-4z M43,130h3v2h-3z M69,131h7v1h-7z M80,129h3v3h-3z M117,131h5v1h-5z M125,131h1v1h-1z M141,131h2v1h-2z M149,131h3v1h-3z M156,131h4v1h-4z M164,131h4v1h-4z M174,131h4v1h-4z M183,130h4v2h-4z M198,131h3v1h-3z M205,131h3v1h-3z M213,131h3v1h-3z M222,131h2v1h-2z M233,131h3v1h-3z M241,131h9v1h-9z M1,132h8v1h-8z M12,132h4v1h-4z M42,132h4v1h-4z M63,131h4v2h-4z M70,132h6v1h-6z M79,132h4v1h-4z M87,129h3v4h-3z M117,132h4v1h-4z M157,132h3v1h-3z M164,132h3v1h-3z M175,132h3v1h-3z M184,132h3v1h-3z M198,132h2v1h-2z M232,132h4v1h-4z M246,132h4v1h-4z M1,133h9v1h-9z M12,133h5v1h-5z M21,133h1v1h-1z M41,133h5v1h-5z M49,133h1v1h-1z M62,133h6v1h-6z M71,133h5v1h-5z M78,133h6v1h-6z M86,133h4v1h-4z M110,130h3v4h-3z M116,133h6v1h-6z M131,130h3v4h-3z M142,133h1v1h-1z M156,133h5v1h-5z M163,133h5v1h-5z M169,133h2v1h-2z M175,133h4v1h-4z M184,133h2v1h-2z M192,133h2v1h-2z M199,133h2v1h-2z M206,133h1v1h-1z M213,132h2v2h-2z M218,133h2v1h-2z M231,133h6v1h-6z M245,133h5v1h-5z M261,72h4v62h-4z M1,134h264v2h-264z M2,136h262v1h-262z M5,137h53v1h-53z M59,137h31v1h-31z M93,137h5v1h-5z M103,137h2v1h-2z M110,137h4v1h-4z M115,137h90v1h-90z M210,137h14v1h-14z M227,137h35v1h-35z M66,138h1v1h-1z
  "/>
</svg>