<?xml version="1.0" encoding="UTF-8"?>
<svg xmlns="http://www.w3.org/2000/svg" viewBox="0 0 266 140" width="266" height="140">
  <title>27 Slate</title>
  <path fill="#111111" fill-rule="nonzero" d="
    M241,0h2v1h-2z M251,0h1v1h-1z M254,0h2v1h-2z M126,1h1v1h-1z M132,1h3v1h-3z M136,1h2v1h-2z M140,1h6v1h-6z M147,1h6v1h-6z M157,1h2v1h-2z M161,1h7v1h-7z M170,1h94v1h-94z M19,2h1v1h-1z M26,2h2v1h-2z M30,2h4v1h-4z M35,2h229v1h-229z M2,3h263v1h-263z M1,4h264v1h-264z M1,5h136v1h-136z M139,5h11v1h-11z M152,5h1v1h-1z M154,5h20v1h-20z M181,5h6v1h-6z M192,5h10v1h-10z M207,5h6v1h-6z M220,5h7v1h-7z M228,5h5v1h-5z M234,5h21v1h-21z M1,6h8v1h-8z M13,6h21v1h-21z M38,6h7v1h-7z M52,6h6v1h-6z M59,6h13v1h-13z M78,6h11v1h-11z M92,6h6v1h-6z M103,6h9v1h-9z M118,6h5v1h-5z M130,6h5v1h-5z M140,6h9v1h-9z M157,6h9v1h-9z M168,6h6v1h-6z M182,6h5v1h-5z M192,6h9v1h-9z M208,6h6v1h-6z M222,6h10v1h-10z M236,6h12v1h-12z M250,6h6v1h-6z M1,7h7v1h-7z M28,7h5v1h-5z M40,7h5v1h-5z M53,7h11v1h-11z M66,7h5v1h-5z M79,7h9v1h-9z M93,7h5v1h-5z M104,7h7v1h-7z M119,7h4v1h-4z M131,7h5v1h-5z M140,7h10v1h-10z M157,7h8v1h-8z M169,7h5v1h-5z M182,7h6v1h-6z M192,7h10v1h-10z M209,7h5v1h-5z M223,7h9v1h-9z M237,7h10v1h-10z M251,7h5v1h-5z M16,7h9v2h-9z M29,8h5v1h-5z M41,8h5v1h-5z M54,8h9v1h-9z M67,8h5v1h-5z M94,8h5v1h-5z M103,8h9v1h-9z M119,8h6v1h-6z M132,8h6v1h-6z M139,8h4v1h-4z M144,8h7v1h-7z M170,8h8v1h-8z M184,8h5v1h-5z M191,8h12v1h-12z M211,8h5v1h-5z M224,8h8v1h-8z M238,8h9v1h-9z M252,8h5v1h-5z M1,8h8v2h-8z M30,9h5v1h-5z M42,9h5v1h-5z M55,9h7v1h-7z M68,9h5v1h-5z M79,8h8v2h-8z M95,9h5v1h-5z M102,9h11v1h-11z M133,9h10v1h-10z M146,9h6v1h-6z M158,8h7v2h-7z M171,9h7v1h-7z M185,9h19v1h-19z M212,9h5v1h-5z M253,9h5v1h-5z M1,10h9v1h-9z M17,9h8v2h-8z M31,10h4v1h-4z M43,10h5v1h-5z M56,10h6v1h-6z M69,10h6v1h-6z M78,10h9v1h-9z M96,10h11v1h-11z M109,10h5v1h-5z M119,9h7v2h-7z M134,10h8v1h-8z M147,10h6v1h-6z M157,10h9v1h-9z M172,10h7v1h-7z M186,10h18v1h-18z M213,10h5v1h-5z M225,9h6v2h-6z M254,10h6v1h-6z M261,5h4v6h-4z M1,11h10v1h-10z M32,11h5v1h-5z M44,11h6v1h-6z M70,11h6v1h-6z M78,11h11v1h-11z M97,11h10v1h-10z M110,11h5v1h-5z M118,11h10v1h-10z M135,11h7v1h-7z M148,11h6v1h-6z M157,11h10v1h-10z M173,11h6v1h-6z M187,11h11v1h-11z M200,11h6v1h-6z M214,11h4v1h-4z M227,11h5v1h-5z M239,9h7v3h-7z M255,11h10v1h-10z M0,12h6v1h-6z M8,12h5v1h-5z M17,11h9v2h-9z M33,12h5v1h-5z M45,12h6v1h-6z M56,11h7v2h-7z M71,12h19v1h-19z M111,12h6v1h-6z M118,12h3v1h-3z M123,12h6v1h-6z M136,12h6v1h-6z M149,12h19v1h-19z M188,12h10v1h-10z M202,12h5v1h-5z M214,12h5v1h-5z M227,12h6v1h-6z M239,12h8v1h-8z M256,12h9v1h-9z M9,13h5v1h-5z M16,13h10v1h-10z M34,13h5v1h-5z M46,13h5v1h-5z M55,13h10v1h-10z M72,13h12v1h-12z M86,13h5v1h-5z M98,12h9v2h-9z M112,13h9v1h-9z M124,13h6v1h-6z M136,13h7v1h-7z M150,13h19v1h-19z M173,12h7v2h-7z M188,13h9v1h-9z M203,13h5v1h-5z M215,13h6v1h-6z M228,13h6v1h-6z M239,13h9v1h-9z M0,13h5v2h-5z M10,14h9v1h-9z M20,14h7v1h-7z M34,14h6v1h-6z M47,14h5v1h-5z M55,14h11v1h-11z M86,14h6v1h-6z M99,14h8v1h-8z M113,14h6v1h-6z M125,14h6v1h-6z M135,14h8v1h-8z M151,14h11v1h-11z M164,14h6v1h-6z M172,14h9v1h-9z M188,14h8v1h-8z M204,14h6v1h-6z M216,14h6v1h-6z M229,14h6v1h-6z M239,14h10v1h-10z M257,13h8v2h-8z M11,15h7v1h-7z M23,15h5v1h-5z M33,15h8v1h-8z M48,15h11v1h-11z M60,15h6v1h-6z M73,14h7v2h-7z M87,15h6v1h-6z M98,15h9v1h-9z M114,15h6v1h-6z M126,15h6v1h-6z M135,15h9v1h-9z M152,15h9v1h-9z M165,15h6v1h-6z M172,15h4v1h-4z M177,15h5v1h-5z M217,15h6v1h-6z M231,15h5v1h-5z M238,15h4v1h-4z M245,15h5v1h-5z M259,15h6v1h-6z M0,15h4v2h-4z M24,16h6v1h-6z M33,16h9v1h-9z M49,16h10v1h-10z M62,16h5v1h-5z M73,16h8v1h-8z M88,16h6v1h-6z M97,16h10v1h-10z M115,16h6v1h-6z M127,16h6v1h-6z M134,16h11v1h-11z M166,16h9v1h-9z M178,16h5v1h-5z M187,15h10v2h-10z M205,15h6v2h-6z M218,16h6v1h-6z M232,16h11v1h-11z M246,16h5v1h-5z M260,16h5v1h-5z M11,16h8v2h-8z M25,17h11v1h-11z M38,17h6v1h-6z M50,17h9v1h-9z M63,17h6v1h-6z M72,17h10v1h-10z M89,17h6v1h-6z M96,17h12v1h-12z M116,17h6v1h-6z M128,17h10v1h-10z M141,17h8v1h-8z M153,16h7v2h-7z M167,17h7v1h-7z M179,17h5v1h-5z M186,17h12v1h-12z M206,17h6v1h-6z M219,17h6v1h-6z M233,17h11v1h-11z M246,17h6v1h-6z M261,17h5v1h-5z M1,17h4v2h-4z M10,18h9v1h-9z M26,18h9v1h-9z M39,18h5v1h-5z M51,18h8v1h-8z M64,18h6v1h-6z M71,18h12v1h-12z M90,18h10v1h-10z M104,18h5v1h-5z M117,18h6v1h-6z M129,18h9v1h-9z M142,18h6v1h-6z M152,18h9v1h-9z M168,18h6v1h-6z M179,18h20v1h-20z M206,18h7v1h-7z M220,18h6v1h-6z M234,18h10v1h-10z M247,18h6v1h-6z M1,19h5v1h-5z M8,19h12v1h-12z M40,19h5v1h-5z M50,19h9v1h-9z M65,19h11v1h-11z M78,19h6v1h-6z M91,19h8v1h-8z M105,19h5v1h-5z M118,19h6v1h-6z M130,19h9v1h-9z M143,19h5v1h-5z M169,19h6v1h-6z M180,19h20v1h-20z M206,19h8v1h-8z M221,19h6v1h-6z M235,19h8v1h-8z M249,19h5v1h-5z M1,20h20v1h-20z M27,19h7v2h-7z M41,20h5v1h-5z M49,20h10v1h-10z M66,20h9v1h-9z M79,20h6v1h-6z M92,20h7v1h-7z M106,20h5v1h-5z M119,20h6v1h-6z M131,20h8v1h-8z M144,20h5v1h-5z M151,19h11v2h-11z M169,20h7v1h-7z M195,20h6v1h-6z M205,20h10v1h-10z M222,20h6v1h-6z M250,20h4v1h-4z M1,21h21v1h-21z M27,21h8v1h-8z M41,21h6v1h-6z M48,21h11v1h-11z M67,21h7v1h-7z M80,21h6v1h-6z M107,21h6v1h-6z M120,21h6v1h-6z M132,21h8v1h-8z M145,21h19v1h-19z M168,21h9v1h-9z M182,20h11v2h-11z M196,21h6v1h-6z M204,21h4v1h-4z M210,21h6v1h-6z M223,21h6v1h-6z M236,20h6v2h-6z M250,21h6v1h-6z M1,22h14v1h-14z M18,22h5v1h-5z M25,22h10v1h-10z M43,22h17v1h-17z M68,22h6v1h-6z M81,22h6v1h-6z M93,21h7v2h-7z M108,22h5v1h-5z M121,22h6v1h-6z M146,22h11v1h-11z M159,22h6v1h-6z M167,22h11v1h-11z M198,22h10v1h-10z M211,22h6v1h-6z M224,22h6v1h-6z M236,22h7v1h-7z M251,22h5v1h-5z M1,23h13v1h-13z M19,23h18v1h-18z M43,23h10v1h-10z M55,23h7v1h-7z M67,23h8v1h-8z M82,23h5v1h-5z M93,23h8v1h-8z M108,23h6v1h-6z M122,23h5v1h-5z M131,22h9v2h-9z M147,23h7v1h-7z M160,23h6v1h-6z M167,23h3v1h-3z M173,23h6v1h-6z M198,23h9v1h-9z M213,23h5v1h-5z M225,23h6v1h-6z M236,23h8v1h-8z M252,23h6v1h-6z M20,24h8v1h-8z M32,24h5v1h-5z M44,24h8v1h-8z M57,24h5v1h-5z M66,24h9v1h-9z M83,24h6v1h-6z M92,24h10v1h-10z M109,24h7v1h-7z M123,24h5v1h-5z M129,24h12v1h-12z M161,24h9v1h-9z M174,24h6v1h-6z M183,22h9v3h-9z M199,24h7v1h-7z M213,24h6v1h-6z M226,24h6v1h-6z M235,24h10v1h-10z M253,24h6v1h-6z M261,18h4v7h-4z M1,24h12v2h-12z M21,25h6v1h-6z M33,25h6v1h-6z M45,25h7v1h-7z M59,25h5v1h-5z M65,25h11v1h-11z M84,25h6v1h-6z M91,25h12v1h-12z M110,25h6v1h-6z M124,25h18v1h-18z M148,24h6v2h-6z M162,25h7v1h-7z M175,25h17v1h-17z M201,25h5v1h-5z M214,25h6v1h-6z M227,25h6v1h-6z M234,25h5v1h-5z M240,25h6v1h-6z M255,25h10v1h-10z M7,26h6v1h-6z M22,26h5v1h-5z M34,26h5v1h-5z M44,26h9v1h-9z M59,26h10v1h-10z M71,26h6v1h-6z M85,26h19v1h-19z M112,26h5v1h-5z M125,26h18v1h-18z M148,26h7v1h-7z M163,26h6v1h-6z M176,26h17v1h-17z M202,26h5v1h-5z M215,26h6v1h-6z M228,26h11v1h-11z M242,26h5v1h-5z M256,26h9v1h-9z M9,27h5v1h-5z M23,27h5v1h-5z M35,27h5v1h-5z M43,27h11v1h-11z M60,27h9v1h-9z M73,27h5v1h-5z M86,27h18v1h-18z M113,27h5v1h-5z M126,27h11v1h-11z M139,27h4v1h-4z M147,27h9v1h-9z M164,27h6v1h-6z M177,27h17v1h-17z M203,27h5v1h-5z M216,27h6v1h-6z M229,27h11v1h-11z M243,27h5v1h-5z M10,28h5v1h-5z M24,28h5v1h-5z M36,28h18v1h-18z M61,28h7v1h-7z M74,28h6v1h-6z M87,28h10v1h-10z M100,28h6v1h-6z M114,28h5v1h-5z M127,28h9v1h-9z M139,28h6v1h-6z M146,28h11v1h-11z M165,28h5v1h-5z M178,28h17v1h-17z M203,28h6v1h-6z M217,28h6v1h-6z M230,28h10v1h-10z M243,28h6v1h-6z M257,27h8v2h-8z M11,29h6v1h-6z M24,29h6v1h-6z M37,29h18v1h-18z M62,29h6v1h-6z M75,29h6v1h-6z M88,29h9v1h-9z M101,29h6v1h-6z M115,29h5v1h-5z M140,29h11v1h-11z M152,29h6v1h-6z M166,29h6v1h-6z M179,29h10v1h-10z M191,29h5v1h-5z M205,29h5v1h-5z M218,29h6v1h-6z M231,29h9v1h-9z M245,29h5v1h-5z M1,26h4v5h-4z M26,30h5v1h-5z M38,30h18v1h-18z M61,30h8v1h-8z M76,30h6v1h-6z M102,30h6v1h-6z M116,30h5v1h-5z M126,29h9v2h-9z M141,30h9v1h-9z M153,30h6v1h-6z M167,30h5v1h-5z M192,30h5v1h-5z M205,30h6v1h-6z M219,30h6v1h-6z M246,30h5v1h-5z M1,31h6v1h-6z M12,30h6v2h-6z M27,31h5v1h-5z M39,31h11v1h-11z M52,31h5v1h-5z M60,31h10v1h-10z M77,31h5v1h-5z M88,30h8v2h-8z M103,31h6v1h-6z M117,31h5v1h-5z M125,31h11v1h-11z M142,31h7v1h-7z M154,31h5v1h-5z M168,31h6v1h-6z M179,30h9v2h-9z M193,31h5v1h-5z M206,31h6v1h-6z M220,31h6v1h-6z M246,31h6v1h-6z M1,32h7v1h-7z M14,32h5v1h-5z M28,32h5v1h-5z M38,32h11v1h-11z M53,32h18v1h-18z M78,32h6v1h-6z M87,32h10v1h-10z M104,32h6v1h-6z M118,32h5v1h-5z M124,32h13v1h-13z M143,32h6v1h-6z M155,32h6v1h-6z M169,32h6v1h-6z M178,32h10v1h-10z M194,32h5v1h-5z M207,32h6v1h-6z M221,32h6v1h-6z M232,30h8v3h-8z M247,32h6v1h-6z M258,29h7v4h-7z M15,33h5v1h-5z M29,33h5v1h-5z M37,33h11v1h-11z M54,33h9v1h-9z M66,33h6v1h-6z M79,33h6v1h-6z M86,33h12v1h-12z M105,33h6v1h-6z M119,33h18v1h-18z M144,33h6v1h-6z M156,33h6v1h-6z M170,33h6v1h-6z M177,33h12v1h-12z M195,33h5v1h-5z M209,33h5v1h-5z M215,33h2v1h-2z M222,33h6v1h-6z M249,33h5v1h-5z M257,33h8v1h-8z M1,33h8v2h-8z M16,34h5v1h-5z M29,34h6v1h-6z M36,34h12v1h-12z M55,34h8v1h-8z M67,34h6v1h-6z M80,34h8v1h-8z M90,34h9v1h-9z M106,34h6v1h-6z M120,34h19v1h-19z M144,34h7v1h-7z M157,34h6v1h-6z M171,34h11v1h-11z M184,34h5v1h-5z M195,34h6v1h-6z M209,34h9v1h-9z M223,34h6v1h-6z M231,33h10v2h-10z M249,34h6v1h-6z M256,34h9v1h-9z M1,35h9v1h-9z M17,35h5v1h-5z M30,35h19v1h-19z M68,35h6v1h-6z M80,35h20v1h-20z M107,35h6v1h-6z M121,35h11v1h-11z M133,35h7v1h-7z M158,35h6v1h-6z M172,35h9v1h-9z M185,35h6v1h-6z M195,35h7v1h-7z M210,35h8v1h-8z M224,35h18v1h-18z M251,35h14v1h-14z M1,36h11v1h-11z M18,36h5v1h-5z M31,36h19v1h-19z M55,35h7v2h-7z M81,36h11v1h-11z M95,36h6v1h-6z M108,36h6v1h-6z M121,36h10v1h-10z M135,36h6v1h-6z M143,35h9v2h-9z M159,36h6v1h-6z M173,36h7v1h-7z M186,36h5v1h-5z M195,36h8v1h-8z M225,36h19v1h-19z M252,36h13v1h-13z M7,37h5v1h-5z M19,37h5v1h-5z M32,37h12v1h-12z M45,37h5v1h-5z M55,37h8v1h-8z M70,36h5v2h-5z M96,37h6v1h-6z M109,37h6v1h-6z M136,37h18v1h-18z M160,37h5v1h-5z M174,37h7v1h-7z M187,37h5v1h-5z M195,37h9v1h-9z M212,36h6v2h-6z M226,37h11v1h-11z M239,37h6v1h-6z M8,38h5v1h-5z M20,38h5v1h-5z M32,38h10v1h-10z M46,38h6v1h-6z M54,38h10v1h-10z M71,38h6v1h-6z M82,37h9v2h-9z M97,38h6v1h-6z M110,38h6v1h-6z M121,37h9v2h-9z M137,38h9v1h-9z M149,38h6v1h-6z M158,38h1v1h-1z M161,38h5v1h-5z M188,38h6v1h-6z M200,38h5v1h-5z M212,38h7v1h-7z M227,38h7v1h-7z M240,38h6v1h-6z M253,37h12v2h-12z M9,39h5v1h-5z M21,39h5v1h-5z M31,39h11v1h-11z M47,39h12v1h-12z M60,39h5v1h-5z M73,39h5v1h-5z M81,39h10v1h-10z M98,39h6v1h-6z M111,39h6v1h-6z M120,39h10v1h-10z M138,39h7v1h-7z M151,39h9v1h-9z M162,39h5v1h-5z M189,39h5v1h-5z M201,39h5v1h-5z M212,39h8v1h-8z M228,39h6v1h-6z M241,39h6v1h-6z M254,39h11v1h-11z M10,40h5v1h-5z M22,40h5v1h-5z M30,40h11v1h-11z M48,40h10v1h-10z M60,40h6v1h-6z M73,40h18v1h-18z M99,40h6v1h-6z M112,40h6v1h-6z M120,40h11v1h-11z M139,40h6v1h-6z M151,40h8v1h-8z M163,40h6v1h-6z M174,38h8v3h-8z M190,40h6v1h-6z M201,40h6v1h-6z M212,40h9v1h-9z M228,40h7v1h-7z M242,40h5v1h-5z M1,37h4v5h-4z M11,41h6v1h-6z M23,41h19v1h-19z M49,41h7v1h-7z M61,41h6v1h-6z M75,41h18v1h-18z M100,41h6v1h-6z M113,41h19v1h-19z M139,41h7v1h-7z M152,41h7v1h-7z M164,41h6v1h-6z M173,41h10v1h-10z M191,41h5v1h-5z M202,41h6v1h-6z M211,41h11v1h-11z M228,41h8v1h-8z M243,41h5v1h-5z M255,40h10v2h-10z M12,42h5v1h-5z M24,42h19v1h-19z M50,42h6v1h-6z M62,42h6v1h-6z M75,42h19v1h-19z M101,42h6v1h-6z M114,42h19v1h-19z M139,42h8v1h-8z M153,42h6v1h-6z M165,42h5v1h-5z M172,42h12v1h-12z M192,42h5v1h-5z M203,42h6v1h-6z M211,42h4v1h-4z M218,42h5v1h-5z M227,42h10v1h-10z M244,42h5v1h-5z M254,42h12v1h-12z M1,42h5v2h-5z M13,43h6v1h-6z M25,43h19v1h-19z M51,43h6v1h-6z M64,43h5v1h-5z M76,43h10v1h-10z M89,43h6v1h-6z M102,43h5v1h-5z M115,43h11v1h-11z M129,43h5v1h-5z M138,43h10v1h-10z M166,43h19v1h-19z M193,43h6v1h-6z M205,43h9v1h-9z M219,43h5v1h-5z M227,43h11v1h-11z M245,43h6v1h-6z M253,43h13v1h-13z M1,44h6v1h-6z M14,44h6v1h-6z M25,44h11v1h-11z M39,44h6v1h-6z M50,44h7v1h-7z M65,44h5v1h-5z M90,44h6v1h-6z M103,44h6v1h-6z M116,44h10v1h-10z M129,44h6v1h-6z M137,44h12v1h-12z M153,43h7v2h-7z M167,44h19v1h-19z M194,44h6v1h-6z M220,44h5v1h-5z M227,44h4v1h-4z M233,44h6v1h-6z M246,44h19v1h-19z M1,45h8v1h-8z M15,45h6v1h-6z M24,45h11v1h-11z M41,45h5v1h-5z M48,45h4v1h-4z M53,45h5v1h-5z M66,45h5v1h-5z M76,44h9v2h-9z M91,45h6v1h-6z M104,45h6v1h-6z M117,45h9v1h-9z M131,45h11v1h-11z M144,45h5v1h-5z M152,45h9v1h-9z M168,45h11v1h-11z M182,45h5v1h-5z M195,45h6v1h-6z M206,44h7v2h-7z M221,45h9v1h-9z M234,45h6v1h-6z M247,45h10v1h-10z M260,45h5v1h-5z M1,46h9v1h-9z M16,46h6v1h-6z M23,46h12v1h-12z M41,46h10v1h-10z M54,46h5v1h-5z M66,46h6v1h-6z M75,46h10v1h-10z M92,46h5v1h-5z M105,46h6v1h-6z M117,46h8v1h-8z M131,46h10v1h-10z M145,46h18v1h-18z M169,46h9v1h-9z M183,46h6v1h-6z M196,46h5v1h-5z M207,46h6v1h-6z M222,46h7v1h-7z M235,46h5v1h-5z M248,46h8v1h-8z M1,47h10v1h-10z M17,47h18v1h-18z M43,47h8v1h-8z M54,47h6v1h-6z M67,47h6v1h-6z M75,47h11v1h-11z M93,47h6v1h-6z M106,47h6v1h-6z M118,47h7v1h-7z M132,47h8v1h-8z M146,47h9v1h-9z M158,47h5v1h-5z M169,47h8v1h-8z M184,47h5v1h-5z M197,47h5v1h-5z M207,47h7v1h-7z M223,47h6v1h-6z M236,47h5v1h-5z M1,48h11v1h-11z M18,48h17v1h-17z M53,48h8v1h-8z M69,48h10v1h-10z M81,48h6v1h-6z M94,48h6v1h-6z M107,48h6v1h-6z M119,48h7v1h-7z M133,48h7v1h-7z M147,48h8v1h-8z M159,48h5v1h-5z M168,48h8v1h-8z M185,48h6v1h-6z M198,48h5v1h-5z M207,48h8v1h-8z M223,48h7v1h-7z M237,48h5v1h-5z M249,47h7v2h-7z M7,49h6v1h-6z M17,49h19v1h-19z M44,48h6v2h-6z M53,49h9v1h-9z M69,49h9v1h-9z M82,49h6v1h-6z M95,49h6v1h-6z M108,49h6v1h-6z M119,49h8v1h-8z M134,49h6v1h-6z M148,49h6v1h-6z M160,49h6v1h-6z M168,49h9v1h-9z M186,49h5v1h-5z M199,49h6v1h-6z M206,49h10v1h-10z M224,49h6v1h-6z M238,49h6v1h-6z M250,49h6v1h-6z M1,49h4v2h-4z M8,50h6v1h-6z M16,50h14v1h-14z M32,50h5v1h-5z M43,50h12v1h-12z M59,50h4v1h-4z M83,50h5v1h-5z M96,50h6v1h-6z M110,50h6v1h-6z M118,50h10v1h-10z M134,50h7v1h-7z M148,50h7v1h-7z M161,50h17v1h-17z M187,50h5v1h-5z M200,50h10v1h-10z M212,50h5v1h-5z M225,50h6v1h-6z M239,50h6v1h-6z M250,50h7v1h-7z M261,46h4v5h-4z M9,51h20v1h-20z M33,51h6v1h-6z M41,51h13v1h-13z M59,51h5v1h-5z M70,50h7v2h-7z M85,51h5v1h-5z M97,51h6v1h-6z M111,51h10v1h-10z M123,51h6v1h-6z M133,51h9v1h-9z M148,51h8v1h-8z M162,51h9v1h-9z M174,51h5v1h-5z M188,51h5v1h-5z M201,51h8v1h-8z M212,51h6v1h-6z M226,51h6v1h-6z M240,51h6v1h-6z M249,51h9v1h-9z M10,52h18v1h-18z M34,52h20v1h-20z M60,52h5v1h-5z M70,52h8v1h-8z M85,52h6v1h-6z M99,52h5v1h-5z M124,52h6v1h-6z M132,52h11v1h-11z M147,52h9v1h-9z M163,52h8v1h-8z M175,52h5v1h-5z M189,52h5v1h-5z M202,52h7v1h-7z M213,52h6v1h-6z M226,52h7v1h-7z M241,52h6v1h-6z M248,52h11v1h-11z M261,51h5v2h-5z M9,53h20v1h-20z M35,53h10v1h-10z M47,53h7v1h-7z M61,53h6v1h-6z M69,53h10v1h-10z M86,53h6v1h-6z M99,53h6v1h-6z M125,53h12v1h-12z M139,53h5v1h-5z M147,53h4v1h-4z M152,53h5v1h-5z M176,53h5v1h-5z M190,53h5v1h-5z M215,53h5v1h-5z M226,53h8v1h-8z M242,53h11v1h-11z M255,53h11v1h-11z M1,51h5v4h-5z M8,54h22v1h-22z M36,54h8v1h-8z M47,54h8v1h-8z M63,54h11v1h-11z M75,54h5v1h-5z M87,54h6v1h-6z M101,54h5v1h-5z M111,52h9v3h-9z M126,54h10v1h-10z M139,54h6v1h-6z M147,54h3v1h-3z M153,54h5v1h-5z M164,53h8v2h-8z M177,54h5v1h-5z M190,54h6v1h-6z M203,53h6v2h-6z M215,54h6v1h-6z M225,54h10v1h-10z M243,54h9v1h-9z M256,54h10v1h-10z M1,55h23v1h-23z M25,55h5v1h-5z M47,55h9v1h-9z M63,55h10v1h-10z M76,55h5v1h-5z M89,55h5v1h-5z M101,55h6v1h-6z M110,55h10v1h-10z M127,55h8v1h-8z M140,55h6v1h-6z M154,55h5v1h-5z M177,55h6v1h-6z M192,55h5v1h-5z M203,55h7v1h-7z M216,55h6v1h-6z M224,55h4v1h-4z M230,55h5v1h-5z M244,55h8v1h-8z M257,55h9v1h-9z M1,56h21v1h-21z M26,56h6v1h-6z M36,55h7v2h-7z M47,56h2v1h-2z M51,56h6v1h-6z M64,56h8v1h-8z M77,56h5v1h-5z M89,56h6v1h-6z M103,56h5v1h-5z M110,56h11v1h-11z M128,56h7v1h-7z M141,56h6v1h-6z M155,56h5v1h-5z M164,55h9v2h-9z M178,56h6v1h-6z M193,56h5v1h-5z M204,56h7v1h-7z M217,56h11v1h-11z M231,56h6v1h-6z M245,56h6v1h-6z M258,56h8v1h-8z M1,57h11v1h-11z M14,57h7v1h-7z M27,57h5v1h-5z M35,57h10v1h-10z M53,57h5v1h-5z M65,57h6v1h-6z M78,57h5v1h-5z M91,57h4v1h-4z M104,57h17v1h-17z M129,57h6v1h-6z M142,57h6v1h-6z M156,57h5v1h-5z M163,57h10v1h-10z M180,57h5v1h-5z M194,57h5v1h-5z M207,57h5v1h-5z M218,57h9v1h-9z M233,57h5v1h-5z M259,57h7v1h-7z M16,58h6v1h-6z M28,58h11v1h-11z M41,58h5v1h-5z M54,58h5v1h-5z M64,58h7v1h-7z M79,58h5v1h-5z M92,58h4v1h-4z M104,58h13v1h-13z M118,58h5v1h-5z M128,58h8v1h-8z M143,58h6v1h-6z M157,58h17v1h-17z M181,58h5v1h-5z M195,58h5v1h-5z M208,58h5v1h-5z M234,58h5v1h-5z M246,57h6v2h-6z M260,58h6v1h-6z M2,58h9v2h-9z M17,59h6v1h-6z M29,59h9v1h-9z M41,59h6v1h-6z M54,59h6v1h-6z M63,59h10v1h-10z M80,59h5v1h-5z M93,59h5v1h-5z M105,59h10v1h-10z M118,59h6v1h-6z M128,59h9v1h-9z M143,59h7v1h-7z M158,59h17v1h-17z M182,59h5v1h-5z M196,59h5v1h-5z M209,59h6v1h-6z M235,59h5v1h-5z M245,59h8v1h-8z M18,60h6v1h-6z M30,60h7v1h-7z M42,60h6v1h-6z M55,60h6v1h-6z M62,60h12v1h-12z M81,60h6v1h-6z M93,60h6v1h-6z M106,60h8v1h-8z M120,60h5v1h-5z M127,60h11v1h-11z M142,60h8v1h-8z M159,60h17v1h-17z M183,60h5v1h-5z M197,60h6v1h-6z M210,60h5v1h-5z M219,58h8v3h-8z M236,60h5v1h-5z M244,60h10v1h-10z M261,59h5v2h-5z M1,60h10v2h-10z M19,61h6v1h-6z M29,61h8v1h-8z M43,61h6v1h-6z M69,61h5v1h-5z M81,61h7v1h-7z M94,61h5v1h-5z M121,61h10v1h-10z M133,61h6v1h-6z M142,61h2v1h-2z M145,61h7v1h-7z M159,61h10v1h-10z M172,61h5v1h-5z M198,61h5v1h-5z M211,61h5v1h-5z M218,61h10v1h-10z M236,61h6v1h-6z M244,61h12v1h-12z M1,62h11v1h-11z M20,62h6v1h-6z M28,62h9v1h-9z M44,62h5v1h-5z M57,61h10v2h-10z M70,62h6v1h-6z M82,62h6v1h-6z M95,62h5v1h-5z M105,61h9v2h-9z M121,62h9v1h-9z M134,62h6v1h-6z M147,62h6v1h-6z M173,62h5v1h-5z M184,61h5v2h-5z M199,62h5v1h-5z M212,62h17v1h-17z M238,62h19v1h-19z M1,63h12v1h-12z M21,63h17v1h-17z M45,63h5v1h-5z M58,63h9v1h-9z M71,63h6v1h-6z M82,63h7v1h-7z M96,63h6v1h-6z M104,63h11v1h-11z M122,63h8v1h-8z M135,63h6v1h-6z M148,63h6v1h-6z M160,62h8v2h-8z M174,63h5v1h-5z M185,63h6v1h-6z M200,63h5v1h-5z M213,63h17v1h-17z M239,63h12v1h-12z M252,63h5v1h-5z M9,64h5v1h-5z M22,64h10v1h-10z M34,64h6v1h-6z M46,64h5v1h-5z M58,64h10v1h-10z M73,64h5v1h-5z M81,64h9v1h-9z M110,64h6v1h-6z M123,64h6v1h-6z M136,64h6v1h-6z M149,64h6v1h-6z M159,64h9v1h-9z M175,64h5v1h-5z M186,64h6v1h-6z M200,64h6v1h-6z M214,64h10v1h-10z M225,64h6v1h-6z M239,64h11v1h-11z M253,64h6v1h-6z M10,65h5v1h-5z M22,65h9v1h-9z M35,65h6v1h-6z M47,65h6v1h-6z M56,65h11v1h-11z M74,65h4v1h-4z M80,65h11v1h-11z M98,64h10v2h-10z M112,65h5v1h-5z M123,65h7v1h-7z M137,65h6v1h-6z M150,65h6v1h-6z M158,65h11v1h-11z M176,65h5v1h-5z M187,65h6v1h-6z M201,65h6v1h-6z M214,65h9v1h-9z M227,65h5v1h-5z M240,65h9v1h-9z M254,65h6v1h-6z M262,61h4v5h-4z M1,64h5v3h-5z M11,66h5v1h-5z M20,66h10v1h-10z M36,66h5v1h-5z M48,66h6v1h-6z M55,66h12v1h-12z M75,66h8v1h-8z M87,66h5v1h-5z M100,66h9v1h-9z M113,66h5v1h-5z M123,66h8v1h-8z M138,66h6v1h-6z M145,66h2v1h-2z M151,66h19v1h-19z M177,66h5v1h-5z M189,66h5v1h-5z M197,65h3v2h-3z M203,66h5v1h-5z M215,66h7v1h-7z M228,66h5v1h-5z M255,66h11v1h-11z M12,67h19v1h-19z M37,67h5v1h-5z M50,67h11v1h-11z M63,67h5v1h-5z M76,67h7v1h-7z M88,67h5v1h-5z M114,67h5v1h-5z M122,67h10v1h-10z M152,67h19v1h-19z M178,67h5v1h-5z M190,67h5v1h-5z M196,67h3v1h-3z M204,67h5v1h-5z M215,67h8v1h-8z M229,67h5v1h-5z M257,67h9v1h-9z M13,68h19v1h-19z M38,68h5v1h-5z M64,68h5v1h-5z M76,68h6v1h-6z M89,68h5v1h-5z M100,67h8v2h-8z M114,68h12v1h-12z M127,68h6v1h-6z M140,67h7v2h-7z M153,68h12v1h-12z M167,68h5v1h-5z M179,68h5v1h-5z M205,68h5v1h-5z M214,68h9v1h-9z M230,68h5v1h-5z M241,66h7v3h-7z M257,68h8v1h-8z M2,67h4v3h-4z M13,69h10v1h-10z M27,69h6v1h-6z M39,69h5v1h-5z M65,69h5v1h-5z M76,69h7v1h-7z M90,69h5v1h-5z M99,69h9v1h-9z M115,69h10v1h-10z M128,69h6v1h-6z M142,69h5v1h-5z M154,69h10v1h-10z M168,69h5v1h-5z M180,69h5v1h-5z M191,68h7v2h-7z M206,69h5v1h-5z M213,69h12v1h-12z M231,69h5v1h-5z M240,69h10v1h-10z M258,69h8v1h-8z M2,70h5v1h-5z M13,70h9v1h-9z M29,70h4v1h-4z M40,70h5v1h-5z M51,68h10v3h-10z M66,70h5v1h-5z M75,70h8v1h-8z M91,70h4v1h-4z M98,70h11v1h-11z M116,70h8v1h-8z M129,70h6v1h-6z M142,70h6v1h-6z M154,70h9v1h-9z M169,70h5v1h-5z M181,70h5v1h-5z M192,70h6v1h-6z M207,70h19v1h-19z M231,70h6v1h-6z M239,70h12v1h-12z M259,70h7v1h-7z M2,71h6v1h-6z M11,71h11v1h-11z M29,71h5v1h-5z M41,71h5v1h-5z M50,71h10v1h-10z M67,71h5v1h-5z M74,71h11v1h-11z M105,71h5v1h-5z M130,71h6v1h-6z M144,71h5v1h-5z M154,71h8v1h-8z M170,71h5v1h-5z M182,71h5v1h-5z M193,71h6v1h-6z M208,71h11v1h-11z M221,71h6v1h-6z M233,71h19v1h-19z M260,71h6v1h-6z M2,72h20v1h-20z M30,72h5v1h-5z M42,72h18v1h-18z M67,72h11v1h-11z M80,72h5v1h-5z M92,71h10v2h-10z M105,72h6v1h-6z M117,71h7v2h-7z M131,72h5v1h-5z M145,72h5v1h-5z M153,72h10v1h-10z M170,72h6v1h-6z M183,72h5v1h-5z M193,72h7v1h-7z M222,72h5v1h-5z M233,72h13v1h-13z M247,72h6v1h-6z M2,73h13v1h-13z M17,73h6v1h-6z M31,73h6v1h-6z M43,73h18v1h-18z M68,73h9v1h-9z M81,73h5v1h-5z M93,73h9v1h-9z M106,73h6v1h-6z M116,73h9v1h-9z M132,73h6v1h-6z M146,73h5v1h-5z M152,73h11v1h-11z M171,73h5v1h-5z M184,73h5v1h-5z M195,73h6v1h-6z M209,72h9v2h-9z M223,73h5v1h-5z M249,73h4v1h-4z M261,72h4v2h-4z M2,74h11v1h-11z M19,74h5v1h-5z M32,74h5v1h-5z M44,74h17v1h-17z M70,74h6v1h-6z M82,74h5v1h-5z M94,74h8v1h-8z M107,74h5v1h-5z M116,74h10v1h-10z M133,74h6v1h-6z M147,74h17v1h-17z M172,74h5v1h-5z M185,74h5v1h-5z M197,74h5v1h-5z M210,74h7v1h-7z M224,74h5v1h-5z M235,73h11v2h-11z M250,74h5v1h-5z M2,75h10v1h-10z M20,75h5v1h-5z M33,75h5v1h-5z M44,75h11v1h-11z M56,75h7v1h-7z M69,75h7v1h-7z M83,75h5v1h-5z M108,75h11v1h-11z M121,75h6v1h-6z M134,75h5v1h-5z M148,75h17v1h-17z M174,75h4v1h-4z M186,75h5v1h-5z M197,75h6v1h-6z M210,75h8v1h-8z M225,75h6v1h-6z M236,75h10v1h-10z M251,75h4v1h-4z M2,76h11v1h-11z M21,76h5v1h-5z M35,76h4v1h-4z M43,76h11v1h-11z M58,76h6v1h-6z M68,76h9v1h-9z M84,76h5v1h-5z M93,75h9v2h-9z M109,76h10v1h-10z M123,76h5v1h-5z M135,76h6v1h-6z M149,76h10v1h-10z M161,76h5v1h-5z M175,76h4v1h-4z M187,76h5v1h-5z M199,76h4v1h-4z M209,76h10v1h-10z M226,76h5v1h-5z M236,76h9v1h-9z M252,76h4v1h-4z M2,77h4v1h-4z M8,77h6v1h-6z M22,77h5v1h-5z M35,77h5v1h-5z M59,77h6v1h-6z M67,77h11v1h-11z M85,77h17v1h-17z M110,77h8v1h-8z M123,77h6v1h-6z M137,77h5v1h-5z M149,77h9v1h-9z M162,77h5v1h-5z M176,77h5v1h-5z M188,77h5v1h-5z M200,77h5v1h-5z M208,77h11v1h-11z M227,77h5v1h-5z M235,77h10v1h-10z M253,77h4v1h-4z M262,74h4v4h-4z M2,78h3v1h-3z M9,78h6v1h-6z M23,78h5v1h-5z M36,78h5v1h-5z M43,77h10v2h-10z M61,78h18v1h-18z M86,78h10v1h-10z M99,78h5v1h-5z M111,78h7v1h-7z M125,78h5v1h-5z M138,78h5v1h-5z M149,78h8v1h-8z M163,78h5v1h-5z M177,78h5v1h-5z M189,78h5v1h-5z M201,78h5v1h-5z M207,78h13v1h-13z M228,78h5v1h-5z M234,78h11v1h-11z M254,78h4v1h-4z M10,79h5v1h-5z M24,79h5v1h-5z M37,79h17v1h-17z M61,79h10v1h-10z M75,79h5v1h-5z M87,79h9v1h-9z M100,79h4v1h-4z M112,79h6v1h-6z M125,79h6v1h-6z M139,79h5v1h-5z M148,79h9v1h-9z M164,79h6v1h-6z M178,79h5v1h-5z M190,79h5v1h-5z M202,79h12v1h-12z M216,79h5v1h-5z M229,79h17v1h-17z M255,79h4v1h-4z M261,78h5v2h-5z M11,80h5v1h-5z M25,80h5v1h-5z M36,80h19v1h-19z M62,80h7v1h-7z M76,80h5v1h-5z M88,80h9v1h-9z M101,80h4v1h-4z M113,80h6v1h-6z M126,80h5v1h-5z M140,80h5v1h-5z M147,80h11v1h-11z M165,80h5v1h-5z M179,80h4v1h-4z M191,80h5v1h-5z M203,80h10v1h-10z M217,80h5v1h-5z M230,80h17v1h-17z M256,80h10v1h-10z M12,81h5v1h-5z M26,81h5v1h-5z M35,81h12v1h-12z M51,81h5v1h-5z M64,81h5v1h-5z M77,81h5v1h-5z M102,81h5v1h-5z M114,81h6v1h-6z M127,81h6v1h-6z M140,81h19v1h-19z M166,81h5v1h-5z M179,81h5v1h-5z M192,81h5v1h-5z M204,81h9v1h-9z M218,81h5v1h-5z M231,81h17v1h-17z M256,81h9v1h-9z M2,79h4v4h-4z M13,82h5v1h-5z M27,82h5v1h-5z M34,82h12v1h-12z M52,82h5v1h-5z M65,82h4v1h-4z M78,82h5v1h-5z M87,81h9v2h-9z M103,82h5v1h-5z M116,82h5v1h-5z M128,82h6v1h-6z M141,82h13v1h-13z M155,82h4v1h-4z M167,82h5v1h-5z M181,82h4v1h-4z M193,82h5v1h-5z M219,82h5v1h-5z M244,82h5v1h-5z M2,83h5v1h-5z M14,83h6v1h-6z M28,83h18v1h-18z M53,83h5v1h-5z M66,83h4v1h-4z M79,83h5v1h-5z M86,83h10v1h-10z M104,83h5v1h-5z M110,82h2v2h-2z M117,83h5v1h-5z M129,83h6v1h-6z M143,83h9v1h-9z M156,83h4v1h-4z M168,83h5v1h-5z M182,83h4v1h-4z M194,83h5v1h-5z M220,83h5v1h-5z M232,82h8v2h-8z M245,83h5v1h-5z M258,82h7v2h-7z M2,84h6v1h-6z M15,84h5v1h-5z M29,84h18v1h-18z M54,84h5v1h-5z M67,84h4v1h-4z M80,84h18v1h-18z M104,84h7v1h-7z M118,84h4v1h-4z M131,84h5v1h-5z M157,84h4v1h-4z M169,84h5v1h-5z M183,84h4v1h-4z M195,84h5v1h-5z M204,82h8v3h-8z M221,84h6v1h-6z M246,84h5v1h-5z M259,84h7v1h-7z M2,85h7v1h-7z M16,85h5v1h-5z M29,85h12v1h-12z M43,85h5v1h-5z M55,85h5v1h-5z M67,85h5v1h-5z M81,85h17v1h-17z M106,85h5v1h-5z M118,85h6v1h-6z M132,85h4v1h-4z M143,84h7v2h-7z M158,85h5v1h-5z M170,85h6v1h-6z M183,85h5v1h-5z M196,85h5v1h-5z M203,85h9v1h-9z M222,85h5v1h-5z M231,84h9v2h-9z M247,85h4v1h-4z M257,85h2v1h-2z M260,85h6v1h-6z M17,86h5v1h-5z M28,86h11v1h-11z M44,86h5v1h-5z M56,86h5v1h-5z M69,86h4v1h-4z M81,86h11v1h-11z M95,86h4v1h-4z M107,86h5v1h-5z M119,86h5v1h-5z M132,86h6v1h-6z M142,86h8v1h-8z M159,86h4v1h-4z M171,86h5v1h-5z M184,86h5v1h-5z M197,86h17v1h-17z M223,86h6v1h-6z M236,86h5v1h-5z M248,86h5v1h-5z M261,86h5v1h-5z M2,86h8v2h-8z M18,87h5v1h-5z M26,87h13v1h-13z M45,87h5v1h-5z M57,87h4v1h-4z M69,87h5v1h-5z M95,87h5v1h-5z M107,87h6v1h-6z M121,87h5v1h-5z M133,87h5v1h-5z M141,87h11v1h-11z M160,87h4v1h-4z M173,87h4v1h-4z M186,87h3v1h-3z M198,87h17v1h-17z M224,87h7v1h-7z M232,86h1v2h-1z M237,87h5v1h-5z M249,87h5v1h-5z M256,86h3v2h-3z M2,88h10v1h-10z M19,88h19v1h-19z M46,88h5v1h-5z M58,88h5v1h-5z M71,88h4v1h-4z M81,87h9v2h-9z M96,88h5v1h-5z M105,88h2v1h-2z M108,88h5v1h-5z M122,88h4v1h-4z M135,88h17v1h-17z M161,88h4v1h-4z M173,88h5v1h-5z M186,88h5v1h-5z M211,88h5v1h-5z M225,88h10v1h-10z M238,88h5v1h-5z M250,88h9v1h-9z M2,89h4v1h-4z M7,89h6v1h-6z M20,89h19v1h-19z M47,89h5v1h-5z M59,89h5v1h-5z M72,89h4v1h-4z M79,89h11v1h-11z M97,89h10v1h-10z M110,89h4v1h-4z M123,89h4v1h-4z M135,89h19v1h-19z M174,89h5v1h-5z M188,89h4v1h-4z M212,89h5v1h-5z M239,89h5v1h-5z M8,90h5v1h-5z M20,90h20v1h-20z M48,90h5v1h-5z M60,90h5v1h-5z M73,90h4v1h-4z M78,90h13v1h-13z M98,90h9v1h-9z M111,90h4v1h-4z M124,90h4v1h-4z M149,90h5v1h-5z M162,89h5v2h-5z M175,90h5v1h-5z M189,90h4v1h-4z M199,88h7v3h-7z M213,90h4v1h-4z M226,89h9v2h-9z M240,90h5v1h-5z M251,89h7v2h-7z M9,91h6v1h-6z M17,91h16v1h-16z M36,91h5v1h-5z M49,91h5v1h-5z M61,91h5v1h-5z M73,91h19v1h-19z M112,91h4v1h-4z M125,91h4v1h-4z M151,91h5v1h-5z M163,91h5v1h-5z M176,91h5v1h-5z M190,91h4v1h-4z M198,91h9v1h-9z M213,91h5v1h-5z M226,91h8v1h-8z M241,91h5v1h-5z M252,91h6v1h-6z M2,90h3v3h-3z M11,92h20v1h-20z M37,92h5v1h-5z M50,92h5v1h-5z M62,92h5v1h-5z M74,92h12v1h-12z M88,92h5v1h-5z M113,92h5v1h-5z M126,92h4v1h-4z M137,90h10v3h-10z M152,92h4v1h-4z M164,92h5v1h-5z M177,92h5v1h-5z M191,92h4v1h-4z M197,92h11v1h-11z M215,92h4v1h-4z M225,92h9v1h-9z M242,92h5v1h-5z M252,92h7v1h-7z M11,93h19v1h-19z M38,93h5v1h-5z M51,93h5v1h-5z M63,93h5v1h-5z M75,93h10v1h-10z M89,93h5v1h-5z M100,91h6v3h-6z M114,93h4v1h-4z M127,93h4v1h-4z M136,93h10v1h-10z M153,93h4v1h-4z M165,93h5v1h-5z M178,93h5v1h-5z M191,93h11v1h-11z M204,93h5v1h-5z M215,93h6v1h-6z M224,93h12v1h-12z M243,93h5v1h-5z M252,93h8v1h-8z M2,93h4v2h-4z M9,94h21v1h-21z M39,94h5v1h-5z M52,94h5v1h-5z M63,94h6v1h-6z M75,94h9v1h-9z M89,94h6v1h-6z M99,94h8v1h-8z M115,94h4v1h-4z M128,94h4v1h-4z M135,94h10v1h-10z M153,94h5v1h-5z M165,94h6v1h-6z M179,94h5v1h-5z M192,94h10v1h-10z M205,94h5v1h-5z M217,94h5v1h-5z M223,94h13v1h-13z M244,94h6v1h-6z M251,94h3v1h-3z M255,94h6v1h-6z M262,87h4v8h-4z M2,95h29v1h-29z M40,95h5v1h-5z M53,95h5v1h-5z M64,95h5v1h-5z M91,95h5v1h-5z M98,95h10v1h-10z M116,95h5v1h-5z M129,95h10v1h-10z M141,95h5v1h-5z M154,95h5v1h-5z M165,95h7v1h-7z M180,95h5v1h-5z M193,95h9v1h-9z M206,95h5v1h-5z M218,95h19v1h-19z M245,95h8v1h-8z M256,95h9v1h-9z M2,96h22v1h-22z M28,96h5v1h-5z M41,96h5v1h-5z M54,96h5v1h-5z M65,96h6v1h-6z M76,95h7v2h-7z M92,96h10v1h-10z M104,96h5v1h-5z M116,96h6v1h-6z M130,96h7v1h-7z M143,96h4v1h-4z M155,96h5v1h-5z M164,96h9v1h-9z M181,96h5v1h-5z M194,96h8v1h-8z M207,96h5v1h-5z M218,96h13v1h-13z M233,96h5v1h-5z M246,96h7v1h-7z M257,96h8v1h-8z M29,97h5v1h-5z M42,97h5v1h-5z M55,97h5v1h-5z M67,97h6v1h-6z M75,97h9v1h-9z M93,97h7v1h-7z M105,97h6v1h-6z M117,97h5v1h-5z M143,97h5v1h-5z M157,97h10v1h-10z M169,97h5v1h-5z M182,97h5v1h-5z M193,97h9v1h-9z M208,97h5v1h-5z M220,97h10v1h-10z M235,97h4v1h-4z M258,97h7v1h-7z M2,97h20v2h-20z M29,98h6v1h-6z M43,98h5v1h-5z M57,98h4v1h-4z M68,98h17v1h-17z M106,98h5v1h-5z M118,98h5v1h-5z M131,97h6v2h-6z M144,98h5v1h-5z M158,98h8v1h-8z M170,98h5v1h-5z M183,98h5v1h-5z M192,98h9v1h-9z M209,98h5v1h-5z M236,98h4v1h-4z M247,97h6v2h-6z M259,98h6v1h-6z M2,99h21v1h-21z M30,99h5v1h-5z M44,99h5v1h-5z M58,99h4v1h-4z M67,99h11v1h-11z M81,99h5v1h-5z M94,98h6v2h-6z M107,99h5v1h-5z M119,99h5v1h-5z M130,99h8v1h-8z M145,99h5v1h-5z M158,99h7v1h-7z M171,99h5v1h-5z M184,99h5v1h-5z M191,99h11v1h-11z M211,99h4v1h-4z M220,98h9v2h-9z M236,99h5v1h-5z M248,99h6v1h-6z M261,99h5v1h-5z M2,100h12v1h-12z M18,100h5v1h-5z M31,100h6v1h-6z M45,100h5v1h-5z M59,100h4v1h-4z M67,100h10v1h-10z M82,100h5v1h-5z M93,100h8v1h-8z M108,100h5v1h-5z M121,100h4v1h-4z M129,100h9v1h-9z M147,100h4v1h-4z M172,100h5v1h-5z M185,100h17v1h-17z M211,100h5v1h-5z M219,100h9v1h-9z M237,100h5v1h-5z M248,100h7v1h-7z M19,101h6v1h-6z M33,101h5v1h-5z M47,101h4v1h-4z M60,101h17v1h-17z M83,101h5v1h-5z M92,101h10v1h-10z M109,101h5v1h-5z M121,101h6v1h-6z M128,101h11v1h-11z M147,101h5v1h-5z M159,100h6v2h-6z M173,101h5v1h-5z M186,101h17v1h-17z M212,101h17v1h-17z M238,101h5v1h-5z M251,101h5v1h-5z M262,100h3v2h-3z M21,102h5v1h-5z M33,102h6v1h-6z M48,102h4v1h-4z M60,102h16v1h-16z M84,102h6v1h-6z M92,102h4v1h-4z M98,102h5v1h-5z M111,102h4v1h-4z M123,102h17v1h-17z M148,102h5v1h-5z M158,102h8v1h-8z M174,102h5v1h-5z M187,102h11v1h-11z M200,102h4v1h-4z M213,102h9v1h-9z M223,102h6v1h-6z M239,102h5v1h-5z M253,102h4v1h-4z M2,101h9v3h-9z M22,103h5v1h-5z M35,103h5v1h-5z M48,103h5v1h-5z M61,103h16v1h-16z M85,103h10v1h-10z M99,103h4v1h-4z M112,103h4v1h-4z M123,103h18v1h-18z M149,103h5v1h-5z M158,103h9v1h-9z M175,103h5v1h-5z M187,103h10v1h-10z M201,103h4v1h-4z M225,103h6v1h-6z M240,103h5v1h-5z M253,103h5v1h-5z M7,104h5v1h-5z M23,104h4v1h-4z M35,104h6v1h-6z M49,104h5v1h-5z M60,104h12v1h-12z M73,104h6v1h-6z M100,104h4v1h-4z M112,104h5v1h-5z M124,104h10v1h-10z M137,104h5v1h-5z M150,104h5v1h-5z M157,104h3v1h-3z M163,104h5v1h-5z M176,104h5v1h-5z M202,104h4v1h-4z M214,103h6v2h-6z M226,104h5v1h-5z M241,104h5v1h-5z M254,104h5v1h-5z M2,104h4v2h-4z M8,105h5v1h-5z M24,105h5v1h-5z M36,105h5v1h-5z M50,105h5v1h-5z M59,105h10v1h-10z M74,105h5v1h-5z M101,105h4v1h-4z M113,105h5v1h-5z M124,105h9v1h-9z M138,105h5v1h-5z M152,105h8v1h-8z M164,105h5v1h-5z M177,105h5v1h-5z M187,104h9v2h-9z M203,105h4v1h-4z M228,105h4v1h-4z M242,105h5v1h-5z M255,105h5v1h-5z M262,102h4v4h-4z M2,106h3v1h-3z M9,106h4v1h-4z M25,106h5v1h-5z M37,106h5v1h-5z M51,106h5v1h-5z M58,106h11v1h-11z M75,106h5v1h-5z M86,104h8v3h-8z M102,106h4v1h-4z M114,106h5v1h-5z M123,106h9v1h-9z M139,106h5v1h-5z M166,106h4v1h-4z M178,106h5v1h-5z M185,106h11v1h-11z M204,106h4v1h-4z M214,105h7v2h-7z M229,106h4v1h-4z M244,106h3v1h-3z M256,106h10v1h-10z M10,107h5v1h-5z M25,107h6v1h-6z M38,107h5v1h-5z M52,107h18v1h-18z M76,107h5v1h-5z M85,107h9v1h-9z M103,107h4v1h-4z M115,107h17v1h-17z M140,107h5v1h-5z M167,107h4v1h-4z M179,107h18v1h-18z M204,107h6v1h-6z M212,107h10v1h-10z M229,107h6v1h-6z M245,107h4v1h-4z M257,107h9v1h-9z M2,107h4v2h-4z M11,108h4v1h-4z M26,108h5v1h-5z M40,108h4v1h-4z M53,108h18v1h-18z M77,108h18v1h-18z M104,108h4v1h-4z M116,108h17v1h-17z M141,108h5v1h-5z M153,106h6v3h-6z M167,108h5v1h-5z M180,108h18v1h-18z M206,108h4v1h-4z M212,108h4v1h-4z M219,108h4v1h-4z M231,108h5v1h-5z M245,108h5v1h-5z M258,108h8v1h-8z M12,109h4v1h-4z M28,109h4v1h-4z M40,109h5v1h-5z M52,109h11v1h-11z M68,109h4v1h-4z M78,109h9v1h-9z M91,109h5v1h-5z M105,109h5v1h-5z M117,109h17v1h-17z M152,109h8v1h-8z M168,109h5v1h-5z M181,109h11v1h-11z M194,109h5v1h-5z M207,109h8v1h-8z M220,109h4v1h-4z M232,109h5v1h-5z M246,109h5v1h-5z M259,109h7v1h-7z M13,110h4v1h-4z M29,110h4v1h-4z M41,110h5v1h-5z M50,110h12v1h-12z M68,110h5v1h-5z M79,110h8v1h-8z M92,110h5v1h-5z M106,110h4v1h-4z M118,110h9v1h-9z M131,110h4v1h-4z M143,109h4v2h-4z M152,110h2v1h-2z M156,110h5v1h-5z M169,110h5v1h-5z M181,110h9v1h-9z M195,110h5v1h-5z M221,110h5v1h-5z M233,110h4v1h-4z M247,110h5v1h-5z M2,109h3v3h-3z M14,111h5v1h-5z M43,111h4v1h-4z M49,111h13v1h-13z M69,111h5v1h-5z M79,111h7v1h-7z M93,111h5v1h-5z M107,111h5v1h-5z M118,111h8v1h-8z M131,111h5v1h-5z M158,111h4v1h-4z M197,111h4v1h-4z M208,110h6v2h-6z M222,111h5v1h-5z M234,111h5v1h-5z M249,111h4v1h-4z M260,110h6v2h-6z M15,112h4v1h-4z M30,111h5v2h-5z M43,112h19v1h-19z M70,112h5v1h-5z M78,112h9v1h-9z M94,112h5v1h-5z M108,112h5v1h-5z M117,112h9v1h-9z M133,112h4v1h-4z M145,111h7v2h-7z M158,112h5v1h-5z M171,111h4v2h-4z M180,111h9v2h-9z M197,112h5v1h-5z M223,112h4v1h-4z M234,112h6v1h-6z M249,112h5v1h-5z M260,112h5v1h-5z M2,112h4v2h-4z M32,113h4v1h-4z M44,113h19v1h-19z M71,113h16v1h-16z M95,113h5v1h-5z M109,113h5v1h-5z M115,113h11v1h-11z M133,113h5v1h-5z M146,113h6v1h-6z M159,113h5v1h-5z M172,113h5v1h-5z M179,113h11v1h-11z M198,113h5v1h-5z M208,112h7v2h-7z M224,113h5v1h-5z M234,113h7v1h-7z M250,113h5v1h-5z M2,114h5v1h-5z M16,113h5v2h-5z M33,114h4v1h-4z M43,114h8v1h-8z M59,114h5v1h-5z M72,114h9v1h-9z M83,114h6v1h-6z M96,114h5v1h-5z M110,114h17v1h-17z M134,114h5v1h-5z M147,114h5v1h-5z M160,114h5v1h-5z M173,114h18v1h-18z M199,114h5v1h-5z M207,114h9v1h-9z M225,114h5v1h-5z M234,114h1v1h-1z M236,114h6v1h-6z M251,114h5v1h-5z M259,113h7v2h-7z M2,115h6v1h-6z M17,115h6v1h-6z M34,115h5v1h-5z M42,115h9v1h-9z M60,115h5v1h-5z M85,115h5v1h-5z M97,115h5v1h-5z M111,115h11v1h-11z M124,115h4v1h-4z M136,115h4v1h-4z M147,115h6v1h-6z M161,115h5v1h-5z M174,115h10v1h-10z M187,115h5v1h-5z M200,115h17v1h-17z M226,115h5v1h-5z M238,115h5v1h-5z M252,115h13v1h-13z M2,116h7v1h-7z M18,116h5v1h-5z M35,116h17v1h-17z M61,116h5v1h-5z M72,115h7v2h-7z M86,116h4v1h-4z M98,116h5v1h-5z M111,116h10v1h-10z M125,116h4v1h-4z M137,116h4v1h-4z M146,116h7v1h-7z M162,116h5v1h-5z M174,116h9v1h-9z M188,116h4v1h-4z M201,116h11v1h-11z M213,116h5v1h-5z M227,116h4v1h-4z M239,116h5v1h-5z M253,116h7v1h-7z M261,116h4v1h-4z M2,117h8v1h-8z M20,117h4v1h-4z M35,117h11v1h-11z M48,117h5v1h-5z M62,117h5v1h-5z M71,117h10v1h-10z M87,117h5v1h-5z M99,117h5v1h-5z M110,117h9v1h-9z M126,117h4v1h-4z M138,117h4v1h-4z M145,117h2v1h-2z M150,117h4v1h-4z M163,117h5v1h-5z M173,117h9v1h-9z M189,117h5v1h-5z M202,117h7v1h-7z M215,117h4v1h-4z M228,117h4v1h-4z M240,117h5v1h-5z M262,117h3v1h-3z M2,118h9v1h-9z M21,118h4v1h-4z M35,118h8v1h-8z M50,118h4v1h-4z M63,118h12v1h-12z M76,118h5v1h-5z M88,118h5v1h-5z M101,118h4v1h-4z M126,118h5v1h-5z M139,118h8v1h-8z M151,118h4v1h-4z M164,118h5v1h-5z M172,118h10v1h-10z M190,118h5v1h-5z M202,118h6v1h-6z M216,118h4v1h-4z M229,118h4v1h-4z M241,118h4v1h-4z M254,117h6v2h-6z M262,118h4v1h-4z M8,119h5v1h-5z M22,119h4v1h-4z M33,119h10v1h-10z M50,119h5v1h-5z M64,119h9v1h-9z M77,119h5v1h-5z M89,119h5v1h-5z M102,119h4v1h-4z M109,118h10v2h-10z M128,119h4v1h-4z M139,119h6v1h-6z M152,119h4v1h-4z M165,119h5v1h-5z M172,119h11v1h-11z M191,119h5v1h-5z M201,119h8v1h-8z M217,119h4v1h-4z M230,119h4v1h-4z M242,119h4v1h-4z M254,119h12v1h-12z M2,119h3v2h-3z M9,120h4v1h-4z M23,120h4v1h-4z M31,120h12v1h-12z M51,120h5v1h-5z M65,120h7v1h-7z M78,120h5v1h-5z M90,120h5v1h-5z M103,120h18v1h-18z M128,120h5v1h-5z M141,120h4v1h-4z M153,120h5v1h-5z M166,120h9v1h-9z M179,120h4v1h-4z M192,120h4v1h-4z M200,120h10v1h-10z M218,120h4v1h-4z M231,120h4v1h-4z M243,120h5v1h-5z M253,120h13v1h-13z M10,121h4v1h-4z M24,121h20v1h-20z M53,121h4v1h-4z M64,121h8v1h-8z M79,121h5v1h-5z M91,121h4v1h-4z M103,121h11v1h-11z M117,121h4v1h-4z M129,121h5v1h-5z M142,121h4v1h-4z M154,121h4v1h-4z M180,121h4v1h-4z M193,121h17v1h-17z M219,121h4v1h-4z M232,121h4v1h-4z M244,121h5v1h-5z M252,121h4v1h-4z M257,121h8v1h-8z M10,122h5v1h-5z M24,122h21v1h-21z M54,122h4v1h-4z M62,122h10v1h-10z M80,122h5v1h-5z M92,122h4v1h-4z M103,122h10v1h-10z M118,122h4v1h-4z M130,122h5v1h-5z M143,122h3v1h-3z M155,122h4v1h-4z M167,121h7v2h-7z M181,122h4v1h-4z M194,122h17v1h-17z M220,122h4v1h-4z M233,122h4v1h-4z M245,122h10v1h-10z M259,122h6v1h-6z M2,121h4v3h-4z M11,123h5v1h-5z M24,123h14v1h-14z M41,123h5v1h-5z M54,123h19v1h-19z M81,123h5v1h-5z M93,123h5v1h-5z M102,123h10v1h-10z M119,123h4v1h-4z M131,123h8v1h-8z M144,123h4v1h-4z M157,123h3v1h-3z M166,123h8v1h-8z M182,123h4v1h-4z M195,123h17v1h-17z M221,123h4v1h-4z M234,123h4v1h-4z M246,123h7v1h-7z M260,123h5v1h-5z M2,124h3v1h-3z M13,124h4v1h-4z M21,124h15v1h-15z M43,124h4v1h-4z M55,124h11v1h-11z M69,124h5v1h-5z M82,124h5v1h-5z M94,124h4v1h-4z M101,124h11v1h-11z M120,124h4v1h-4z M132,124h6v1h-6z M144,124h5v1h-5z M157,124h4v1h-4z M165,124h10v1h-10z M183,124h5v1h-5z M195,124h11v1h-11z M209,124h5v1h-5z M221,124h5v1h-5z M234,124h5v1h-5z M13,125h21v1h-21z M44,125h4v1h-4z M56,125h8v1h-8z M70,125h5v1h-5z M83,125h5v1h-5z M95,125h17v1h-17z M121,125h4v1h-4z M145,125h5v1h-5z M158,125h10v1h-10z M170,125h6v1h-6z M184,125h5v1h-5z M195,125h8v1h-8z M210,125h5v1h-5z M222,125h5v1h-5z M236,125h5v1h-5z M247,124h6v2h-6z M261,124h5v2h-5z M2,125h4v2h-4z M14,126h12v1h-12z M28,126h6v1h-6z M45,126h4v1h-4z M55,126h8v1h-8z M71,126h5v1h-5z M84,126h5v1h-5z M96,126h17v1h-17z M122,126h4v1h-4z M132,125h7v2h-7z M146,126h5v1h-5z M159,126h8v1h-8z M172,126h4v1h-4z M185,126h4v1h-4z M193,126h10v1h-10z M211,126h5v1h-5z M223,126h5v1h-5z M237,126h4v1h-4z M246,126h8v1h-8z M262,126h4v1h-4z M2,127h5v1h-5z M13,127h12v1h-12z M29,127h6v1h-6z M46,127h4v1h-4z M54,127h10v1h-10z M72,127h5v1h-5z M85,127h5v1h-5z M96,127h11v1h-11z M109,127h5v1h-5z M123,127h4v1h-4z M132,127h8v1h-8z M147,127h5v1h-5z M173,127h4v1h-4z M185,127h19v1h-19z M212,127h4v1h-4z M225,127h4v1h-4z M238,127h4v1h-4z M245,127h10v1h-10z M30,128h5v1h-5z M47,128h5v1h-5z M53,128h11v1h-11z M73,128h5v1h-5z M86,128h5v1h-5z M95,128h10v1h-10z M110,128h5v1h-5z M124,128h4v1h-4z M131,128h10v1h-10z M148,128h5v1h-5z M159,127h7v2h-7z M174,128h4v1h-4z M186,128h18v1h-18z M213,128h4v1h-4z M226,128h5v1h-5z M239,128h9v1h-9z M251,128h5v1h-5z M262,127h3v2h-3z M32,129h4v1h-4z M47,129h10v1h-10z M60,129h5v1h-5z M74,129h5v1h-5z M87,129h17v1h-17z M111,129h5v1h-5z M125,129h9v1h-9z M137,129h5v1h-5z M149,129h5v1h-5z M158,129h8v1h-8z M175,129h4v1h-4z M187,129h18v1h-18z M214,129h5v1h-5z M227,129h5v1h-5z M239,129h6v1h-6z M252,129h4v1h-4z M33,130h4v1h-4z M47,130h8v1h-8z M61,130h5v1h-5z M75,130h5v1h-5z M89,130h15v1h-15z M113,130h4v1h-4z M126,130h6v1h-6z M139,130h4v1h-4z M150,130h5v1h-5z M157,130h4v1h-4z M162,130h5v1h-5z M176,130h4v1h-4z M187,130h11v1h-11z M202,130h4v1h-4z M215,130h4v1h-4z M228,130h4v1h-4z M239,130h7v1h-7z M253,130h4v1h-4z M262,129h4v2h-4z M2,128h22v4h-22z M33,131h5v1h-5z M45,131h10v1h-10z M63,131h4v1h-4z M76,131h5v1h-5z M89,131h11v1h-11z M101,131h4v1h-4z M113,131h5v1h-5z M127,131h5v1h-5z M139,131h5v1h-5z M151,131h9v1h-9z M164,131h4v1h-4z M177,131h4v1h-4z M187,131h10v1h-10z M203,131h4v1h-4z M216,131h5v1h-5z M229,131h4v1h-4z M238,131h8v1h-8z M254,131h4v1h-4z M2,132h14v1h-14z M20,132h5v1h-5z M34,132h5v1h-5z M43,132h12v1h-12z M64,132h4v1h-4z M77,132h5v1h-5z M88,132h10v1h-10z M102,132h4v1h-4z M114,132h5v1h-5z M128,132h4v1h-4z M141,132h4v1h-4z M165,132h4v1h-4z M178,132h4v1h-4z M187,132h9v1h-9z M204,132h4v1h-4z M230,132h17v1h-17z M255,132h5v1h-5z M262,131h3v2h-3z M2,133h12v1h-12z M21,133h5v1h-5z M35,133h21v1h-21z M64,133h5v1h-5z M78,133h5v1h-5z M86,133h11v1h-11z M103,133h4v1h-4z M115,133h5v1h-5z M128,133h5v1h-5z M141,133h5v1h-5z M151,132h7v2h-7z M165,133h5v1h-5z M178,133h5v1h-5z M186,133h10v1h-10z M204,133h5v1h-5z M217,132h5v2h-5z M230,133h18v1h-18z M256,133h9v1h-9z M9,134h6v1h-6z M22,134h5v1h-5z M35,134h10v1h-10z M51,134h6v1h-6z M65,134h5v1h-5z M79,134h18v1h-18z M103,134h5v1h-5z M116,134h5v1h-5z M129,134h6v1h-6z M141,134h6v1h-6z M151,134h8v1h-8z M165,134h6v1h-6z M179,134h18v1h-18z M204,134h7v1h-7z M216,134h8v1h-8z M228,134h37v1h-37z M2,134h5v2h-5z M8,135h9v1h-9z M21,135h8v1h-8z M33,135h39v1h-39z M74,135h1v1h-1z M77,135h188v1h-188z M2,136h263v1h-263z M2,137h262v1h-262z M2,138h125v1h-125z M129,138h10v1h-10z M141,138h1v1h-1z M146,138h33v1h-33z M19,139h1v1h-1z M176,139h1v1h-1z
  "/>
</svg>