<?xml version="1.0" encoding="UTF-8"?>
<svg xmlns="http://www.w3.org/2000/svg" viewBox="0 0 268 137" width="268" height="137">
  <title>59 Massive igneous rock 59</title>
  <path fill="#111111" fill-rule="nonzero" d="
    M3,0h29v1h-29z M33,0h5v1h-5z M60,0h6v1h-6z M71,0h2v1h-2z M75,0h13v1h-13z M89,0h20v1h-20z M112,0h29v1h-29z M142,0h1v1h-1z M144,0h6v1h-6z M152,0h6v1h-6z M164,0h13v1h-13z M183,0h1v1h-1z M186,0h13v1h-13z M200,0h2v1h-2z M206,0h1v1h-1z M211,0h1v1h-1z M226,0h1v1h-1z M228,0h19v1h-19z M250,0h13v1h-13z M1,1h266v1h-266z M0,2h267v1h-267z M0,3h268v1h-268z M1,4h18v1h-18z M21,4h231v1h-231z M253,4h15v1h-15z M37,5h12v1h-12z M51,5h14v1h-14z M70,5h2v1h-2z M77,5h13v1h-13z M125,5h1v1h-1z M163,5h9v1h-9z M173,5h4v1h-4z M180,5h5v1h-5z M203,5h6v1h-6z M226,5h6v1h-6z M241,5h1v1h-1z M250,5h1v1h-1z M256,5h1v1h-1z M27,5h5v2h-5z M36,6h12v1h-12z M51,6h15v1h-15z M69,6h4v1h-4z M77,6h9v1h-9z M93,5h8v2h-8z M103,5h5v2h-5z M110,5h6v2h-6z M128,5h9v2h-9z M141,5h5v2h-5z M149,5h11v2h-11z M164,6h13v1h-13z M204,6h4v1h-4z M217,5h5v2h-5z M231,6h2v1h-2z M235,6h1v1h-1z M241,6h2v1h-2z M1,5h8v3h-8z M12,7h6v1h-6z M21,7h3v1h-3z M28,7h4v1h-4z M35,7h12v1h-12z M52,7h14v1h-14z M67,7h6v1h-6z M77,7h8v1h-8z M104,7h3v1h-3z M111,7h4v1h-4z M129,7h9v1h-9z M142,7h4v1h-4z M148,7h12v1h-12z M164,7h14v1h-14z M181,6h4v2h-4z M188,7h2v1h-2z M194,7h1v1h-1z M197,7h3v1h-3z M204,7h3v1h-3z M213,7h1v1h-1z M218,7h3v1h-3z M230,7h7v1h-7z M240,7h4v1h-4z M249,7h2v1h-2z M255,7h2v1h-2z M10,8h9v1h-9z M20,8h5v1h-5z M33,8h16v1h-16z M52,8h3v1h-3z M76,8h8v1h-8z M87,6h4v3h-4z M93,7h9v2h-9z M105,8h2v1h-2z M112,8h3v1h-3z M124,6h3v3h-3z M143,8h1v1h-1z M148,8h14v1h-14z M168,8h10v1h-10z M182,8h2v1h-2z M187,8h3v1h-3z M192,8h4v1h-4z M197,8h4v1h-4z M205,8h1v1h-1z M212,8h3v1h-3z M218,8h2v1h-2z M230,8h8v1h-8z M255,8h3v1h-3z M33,9h12v1h-12z M57,8h16v2h-16z M88,9h2v1h-2z M114,9h2v1h-2z M125,9h2v1h-2z M130,8h8v2h-8z M148,9h8v1h-8z M158,9h4v1h-4z M169,9h10v1h-10z M211,9h6v1h-6z M256,9h1v1h-1z M1,8h4v3h-4z M21,9h3v2h-3z M33,10h11v1h-11z M46,9h3v2h-3z M70,10h1v1h-1z M75,9h9v2h-9z M114,10h3v1h-3z M130,10h9v1h-9z M149,10h6v1h-6z M158,10h3v1h-3z M170,10h10v1h-10z M188,9h2v2h-2z M191,9h10v2h-10z M210,10h7v1h-7z M223,10h3v1h-3z M229,9h9v2h-9z M240,8h12v3h-12z M1,11h5v1h-5z M22,11h1v1h-1z M33,11h9v1h-9z M58,10h10v2h-10z M74,11h10v1h-10z M94,9h9v3h-9z M114,11h7v1h-7z M151,11h3v1h-3z M171,11h9v1h-9z M190,11h13v1h-13z M209,11h9v1h-9z M222,11h4v1h-4z M228,11h10v1h-10z M241,11h1v1h-1z M244,11h8v1h-8z M1,12h7v1h-7z M35,12h6v1h-6z M46,11h4v2h-4z M74,12h9v1h-9z M95,12h9v1h-9z M113,12h8v1h-8z M163,11h4v2h-4z M171,12h10v1h-10z M209,12h10v1h-10z M227,12h11v1h-11z M245,12h8v1h-8z M258,11h2v2h-2z M24,13h4v1h-4z M36,13h4v1h-4z M47,13h2v1h-2z M59,12h9v2h-9z M74,13h8v1h-8z M84,13h3v1h-3z M95,13h10v1h-10z M164,13h3v1h-3z M190,12h14v2h-14z M209,13h11v1h-11z M223,12h3v2h-3z M227,13h10v1h-10z M238,13h3v1h-3z M245,13h7v1h-7z M258,13h1v1h-1z M1,13h8v2h-8z M24,14h6v1h-6z M37,14h5v1h-5z M60,14h8v1h-8z M75,14h7v1h-7z M83,14h4v1h-4z M112,13h9v2h-9z M129,14h1v1h-1z M131,11h9v4h-9z M165,14h2v1h-2z M172,13h9v2h-9z M184,14h1v1h-1z M189,14h10v1h-10z M200,14h4v1h-4z M227,14h9v1h-9z M1,15h7v1h-7z M22,15h10v1h-10z M61,15h2v1h-2z M64,15h3v1h-3z M79,15h2v1h-2z M84,15h3v1h-3z M96,14h13v2h-13z M111,15h9v1h-9z M129,15h10v1h-10z M146,15h1v1h-1z M152,15h3v1h-3z M172,15h5v1h-5z M178,15h2v1h-2z M189,15h9v1h-9z M204,15h3v1h-3z M211,14h10v2h-10z M226,15h10v1h-10z M238,14h4v2h-4z M1,16h5v1h-5z M22,16h11v1h-11z M38,15h4v2h-4z M46,16h1v1h-1z M55,14h4v3h-4z M97,16h9v1h-9z M107,16h2v1h-2z M110,16h10v1h-10z M129,16h5v1h-5z M174,16h3v1h-3z M188,16h10v1h-10z M212,16h9v1h-9z M226,16h9v1h-9z M238,16h3v1h-3z M245,14h8v3h-8z M10,9h8v9h-8z M22,17h14v1h-14z M39,17h3v1h-3z M45,17h6v1h-6z M56,17h3v1h-3z M85,16h2v2h-2z M91,15h4v3h-4z M98,17h3v1h-3z M110,17h13v1h-13z M129,17h4v1h-4z M151,16h4v2h-4z M157,17h3v1h-3z M175,17h1v1h-1z M204,16h4v2h-4z M213,17h8v1h-8z M222,17h1v1h-1z M225,17h9v1h-9z M245,17h9v1h-9z M22,18h15v1h-15z M40,18h1v1h-1z M45,18h7v1h-7z M66,18h2v1h-2z M85,18h3v1h-3z M91,18h2v1h-2z M99,18h1v1h-1z M110,18h14v1h-14z M130,18h1v1h-1z M139,17h3v2h-3z M144,16h4v3h-4z M152,18h2v1h-2z M189,17h8v2h-8z M205,18h2v1h-2z M213,18h4v1h-4z M219,18h1v1h-1z M222,18h7v1h-7z M230,18h4v1h-4z M245,18h10v1h-10z M1,17h4v3h-4z M22,19h9v1h-9z M32,19h5v1h-5z M66,19h4v1h-4z M82,19h6v1h-6z M120,19h4v1h-4z M145,19h2v1h-2z M189,19h7v1h-7z M214,19h4v1h-4z M221,19h5v1h-5z M246,19h4v1h-4z M1,20h5v1h-5z M10,18h9v3h-9z M23,20h15v1h-15z M44,19h9v2h-9z M73,19h4v2h-4z M80,20h9v1h-9z M109,19h9v2h-9z M120,20h3v1h-3z M156,18h13v3h-13z M194,20h2v1h-2z M222,20h3v1h-3z M234,20h2v1h-2z M246,20h3v1h-3z M253,19h3v2h-3z M11,21h7v1h-7z M25,21h13v1h-13z M72,21h18v1h-18z M109,21h8v1h-8z M182,21h3v1h-3z M196,21h3v1h-3z M223,21h1v1h-1z M234,21h3v1h-3z M257,21h2v1h-2z M11,22h2v1h-2z M27,22h9v1h-9z M73,22h17v1h-17z M94,22h3v1h-3z M100,22h3v1h-3z M110,22h1v1h-1z M113,22h4v1h-4z M155,21h9v2h-9z M177,21h2v2h-2z M234,22h4v1h-4z M240,20h4v3h-4z M1,21h6v3h-6z M28,23h8v1h-8z M62,23h3v1h-3z M74,23h16v1h-16z M99,23h5v1h-5z M114,23h1v1h-1z M126,22h3v2h-3z M133,23h10v1h-10z M148,23h1v1h-1z M154,23h9v1h-9z M172,22h2v2h-2z M178,23h1v1h-1z M182,22h4v2h-4z M196,22h4v2h-4z M226,23h2v1h-2z M234,23h3v1h-3z M241,23h2v1h-2z M247,21h1v3h-1z M256,22h4v2h-4z M1,24h5v1h-5z M25,24h1v1h-1z M31,24h5v1h-5z M54,24h3v1h-3z M61,24h5v1h-5z M94,23h2v2h-2z M100,24h4v1h-4z M126,24h17v1h-17z M153,24h9v1h-9z M183,24h2v1h-2z M197,24h2v1h-2z M204,24h1v1h-1z M210,23h3v2h-3z M226,24h3v1h-3z M255,24h5v1h-5z M17,25h2v1h-2z M32,25h2v1h-2z M43,21h9v5h-9z M54,25h13v1h-13z M76,24h14v2h-14z M117,25h2v1h-2z M127,25h16v1h-16z M148,24h2v2h-2z M166,25h1v1h-1z M171,24h3v2h-3z M203,25h4v1h-4z M211,25h2v1h-2z M226,25h4v1h-4z M236,24h1v2h-1z M13,26h7v1h-7z M43,26h8v1h-8z M54,26h14v1h-14z M76,26h11v1h-11z M107,26h3v1h-3z M116,26h4v1h-4z M128,26h15v1h-15z M202,26h5v1h-5z M227,26h3v1h-3z M235,26h5v1h-5z M247,24h2v3h-2z M254,25h6v2h-6z M10,27h10v1h-10z M25,25h3v3h-3z M36,27h3v1h-3z M54,27h3v1h-3z M58,27h11v1h-11z M77,27h6v1h-6z M97,27h2v1h-2z M107,27h4v1h-4z M117,27h3v1h-3z M129,27h15v1h-15z M152,25h9v3h-9z M180,27h3v1h-3z M188,25h4v3h-4z M202,27h4v1h-4z M218,25h3v3h-3z M253,27h8v1h-8z M1,25h4v4h-4z M9,28h11v1h-11z M26,28h2v1h-2z M35,28h5v1h-5z M42,27h8v2h-8z M59,28h11v1h-11z M77,28h4v1h-4z M86,28h3v1h-3z M94,28h2v1h-2z M97,28h3v1h-3z M107,28h3v1h-3z M118,28h2v1h-2z M122,28h1v1h-1z M130,28h14v1h-14z M153,28h7v1h-7z M164,26h4v3h-4z M175,28h9v1h-9z M188,28h2v1h-2z M218,28h2v1h-2z M228,27h12v2h-12z M252,28h10v1h-10z M263,5h4v24h-4z M7,29h13v1h-13z M36,29h4v1h-4z M43,29h7v1h-7z M59,29h12v1h-12z M77,29h3v1h-3z M93,29h8v1h-8z M108,29h2v1h-2z M113,29h1v1h-1z M121,29h3v1h-3z M131,29h12v1h-12z M156,29h4v1h-4z M227,29h13v1h-13z M37,30h2v1h-2z M57,30h15v1h-15z M86,29h4v2h-4z M92,30h9v1h-9z M111,30h6v1h-6z M132,30h11v1h-11z M157,30h2v1h-2z M199,30h2v1h-2z M209,30h3v1h-3z M214,30h3v1h-3z M218,30h2v1h-2z M228,30h12v1h-12z M7,30h14v2h-14z M34,31h1v1h-1z M56,31h5v1h-5z M62,31h10v1h-10z M87,31h3v1h-3z M111,31h7v1h-7z M121,30h4v2h-4z M134,31h1v1h-1z M139,31h4v1h-4z M147,31h3v1h-3z M170,29h14v3h-14z M198,31h4v1h-4z M223,31h2v1h-2z M229,31h13v1h-13z M250,29h17v3h-17z M1,29h5v4h-5z M8,32h13v1h-13z M28,32h3v1h-3z M33,32h2v1h-2z M63,32h9v1h-9z M77,30h4v3h-4z M93,31h8v2h-8z M103,32h3v1h-3z M111,32h8v1h-8z M139,32h5v1h-5z M146,32h5v1h-5z M171,32h13v1h-13z M190,32h2v1h-2z M197,32h6v1h-6z M208,31h3v2h-3z M229,32h12v1h-12z M244,32h3v1h-3z M250,32h8v1h-8z M260,32h7v1h-7z M8,33h12v1h-12z M22,33h2v1h-2z M27,33h8v1h-8z M48,33h3v1h-3z M56,32h4v2h-4z M65,33h5v1h-5z M78,33h2v1h-2z M93,33h13v1h-13z M112,33h9v1h-9z M141,33h2v1h-2z M146,33h4v1h-4z M162,33h3v1h-3z M172,33h12v1h-12z M190,33h3v1h-3z M196,33h9v1h-9z M209,33h2v1h-2z M213,31h8v3h-8z M223,32h3v2h-3z M229,33h10v1h-10z M252,33h5v1h-5z M1,33h4v2h-4z M8,34h9v1h-9z M57,34h2v1h-2z M65,34h4v1h-4z M111,34h13v1h-13z M147,34h3v1h-3z M156,33h2v2h-2z M163,34h2v1h-2z M171,34h12v1h-12z M224,34h1v1h-1z M230,34h3v1h-3z M235,34h1v1h-1z M243,33h4v2h-4z M252,34h4v1h-4z M22,34h3v2h-3z M39,35h1v1h-1z M48,34h4v2h-4z M67,35h2v1h-2z M79,35h5v1h-5z M89,35h1v1h-1z M94,34h12v2h-12z M128,35h2v1h-2z M164,35h2v1h-2z M171,35h10v1h-10z M190,34h4v2h-4z M195,34h10v2h-10z M7,35h9v2h-9z M22,36h1v1h-1z M49,36h1v1h-1z M69,36h2v1h-2z M78,36h7v1h-7z M88,36h3v1h-3z M94,36h11v1h-11z M111,35h14v2h-14z M157,36h1v1h-1z M171,36h8v1h-8z M194,36h11v1h-11z M213,34h4v3h-4z M218,34h3v3h-3z M237,36h2v1h-2z M8,37h1v1h-1z M14,37h2v1h-2z M38,36h4v2h-4z M69,37h4v1h-4z M78,37h8v1h-8z M93,37h9v1h-9z M111,37h13v1h-13z M127,36h3v2h-3z M184,37h2v1h-2z M193,37h15v1h-15z M255,36h4v2h-4z M13,38h4v1h-4z M39,38h3v1h-3z M55,38h4v1h-4z M69,38h5v1h-5z M88,37h4v2h-4z M94,38h7v1h-7z M110,38h14v1h-14z M128,38h2v1h-2z M136,38h1v1h-1z M139,38h3v1h-3z M145,38h1v1h-1z M155,37h4v2h-4z M166,38h3v1h-3z M192,38h11v1h-11z M205,38h3v1h-3z M213,37h8v2h-8z M230,38h2v1h-2z M255,38h5v1h-5z M14,39h2v1h-2z M45,39h15v1h-15z M70,39h3v1h-3z M88,39h3v1h-3z M95,39h4v1h-4z M110,39h13v1h-13z M135,39h7v1h-7z M154,39h6v1h-6z M165,39h4v1h-4z M183,38h3v2h-3z M195,39h7v1h-7z M205,39h2v1h-2z M212,39h9v1h-9z M223,39h2v1h-2z M230,39h3v1h-3z M236,37h4v3h-4z M242,39h1v1h-1z M257,39h2v1h-2z M1,35h5v6h-5z M89,40h1v1h-1z M95,40h3v1h-3z M110,40h4v1h-4z M117,40h6v1h-6z M135,40h8v1h-8z M166,40h3v1h-3z M185,40h1v1h-1z M192,39h2v2h-2z M195,40h6v1h-6z M229,40h4v1h-4z M242,40h3v1h-3z M1,41h6v1h-6z M8,41h1v1h-1z M20,41h2v1h-2z M44,40h16v2h-16z M64,41h2v1h-2z M77,38h8v4h-8z M111,41h2v1h-2z M118,41h4v1h-4z M145,39h4v3h-4z M152,40h10v2h-10z M195,41h5v1h-5z M213,40h13v2h-13z M229,41h3v1h-3z M242,41h4v1h-4z M263,33h4v9h-4z M1,42h8v1h-8z M13,42h2v1h-2z M20,42h4v1h-4z M27,34h9v9h-9z M94,42h2v1h-2z M102,42h2v1h-2z M134,41h9v2h-9z M146,42h2v1h-2z M153,42h12v1h-12z M174,40h3v3h-3z M189,42h1v1h-1z M194,42h6v1h-6z M213,42h3v1h-3z M217,42h3v1h-3z M223,42h3v1h-3z M230,42h1v1h-1z M242,42h3v1h-3z M254,42h1v1h-1z M261,42h6v1h-6z M12,43h4v1h-4z M21,43h3v1h-3z M44,42h17v2h-17z M87,43h1v1h-1z M101,43h3v1h-3z M130,42h3v2h-3z M154,43h12v1h-12z M175,43h2v1h-2z M182,43h1v1h-1z M194,43h5v1h-5z M224,43h1v1h-1z M228,43h4v1h-4z M238,43h1v1h-1z M12,44h5v1h-5z M21,44h1v1h-1z M27,43h8v2h-8z M45,44h14v1h-14z M63,42h3v3h-3z M76,42h8v3h-8z M85,44h4v1h-4z M102,44h2v1h-2z M130,44h1v1h-1z M150,44h2v1h-2z M175,44h3v1h-3z M179,44h4v1h-4z M207,43h3v2h-3z M228,44h6v1h-6z M238,44h2v1h-2z M252,43h4v2h-4z M28,45h2v1h-2z M45,45h6v1h-6z M76,45h13v1h-13z M93,43h3v3h-3z M149,45h3v1h-3z M195,44h3v2h-3z M208,45h2v1h-2z M228,45h8v1h-8z M238,45h3v1h-3z M242,45h2v1h-2z M246,45h3v1h-3z M253,45h2v1h-2z M260,43h7v3h-7z M10,45h8v2h-8z M36,46h2v1h-2z M70,45h3v2h-3z M76,46h6v1h-6z M84,46h5v1h-5z M94,46h1v1h-1z M113,46h3v1h-3z M123,45h3v2h-3z M148,46h5v1h-5z M155,44h11v3h-11z M169,45h3v2h-3z M188,43h3v4h-3z M200,45h2v2h-2z M220,46h3v1h-3z M227,46h8v1h-8z M241,46h8v1h-8z M261,46h6v1h-6z M36,47h3v1h-3z M49,46h2v2h-2z M71,47h1v1h-1z M77,47h5v1h-5z M85,47h3v1h-3z M104,47h4v1h-4z M124,47h2v1h-2z M149,47h3v1h-3z M154,47h11v1h-11z M169,47h2v1h-2z M176,45h8v3h-8z M220,47h4v1h-4z M226,47h9v1h-9z M10,47h10v2h-10z M36,48h2v1h-2z M80,48h2v1h-2z M99,48h10v1h-10z M112,47h4v2h-4z M131,48h1v1h-1z M135,43h8v6h-8z M151,48h1v1h-1z M154,48h3v1h-3z M159,48h6v1h-6z M170,48h1v1h-1z M176,48h9v1h-9z M214,48h2v1h-2z M220,48h3v1h-3z M226,48h8v1h-8z M242,47h8v2h-8z M10,49h11v1h-11z M48,48h4v2h-4z M58,47h3v3h-3z M96,49h13v1h-13z M114,49h3v1h-3z M136,49h2v1h-2z M140,49h3v1h-3z M155,49h2v1h-2z M161,49h3v1h-3z M177,49h8v1h-8z M203,49h3v1h-3z M213,49h3v1h-3z M221,49h2v1h-2z M263,47h4v3h-4z M11,50h11v1h-11z M24,49h5v2h-5z M49,50h2v1h-2z M59,50h1v1h-1z M64,50h5v1h-5z M95,50h14v1h-14z M130,49h3v2h-3z M173,50h1v1h-1z M177,50h9v1h-9z M202,50h6v1h-6z M213,50h4v1h-4z M225,49h9v2h-9z M262,50h5v1h-5z M12,51h10v1h-10z M25,51h4v1h-4z M42,51h1v1h-1z M88,50h2v2h-2z M94,51h16v1h-16z M116,50h7v2h-7z M131,51h2v1h-2z M201,51h9v1h-9z M224,51h9v1h-9z M236,51h3v1h-3z M242,49h9v3h-9z M255,51h1v1h-1z M13,52h10v1h-10z M25,52h2v1h-2z M48,52h1v1h-1z M50,52h1v1h-1z M62,51h8v2h-8z M80,52h2v1h-2z M95,52h16v1h-16z M148,52h4v1h-4z M165,52h3v1h-3z M172,51h3v2h-3z M178,51h8v2h-8z M192,50h2v3h-2z M201,52h12v1h-12z M224,52h8v1h-8z M243,52h9v1h-9z M254,52h3v1h-3z M261,51h6v2h-6z M14,53h9v1h-9z M34,53h2v1h-2z M48,53h4v1h-4z M74,52h2v2h-2z M95,53h18v1h-18z M147,53h5v1h-5z M173,53h2v1h-2z M179,53h7v1h-7z M201,53h13v1h-13z M224,53h7v1h-7z M235,52h5v2h-5z M243,53h15v1h-15z M260,53h7v1h-7z M9,54h3v1h-3z M15,54h7v1h-7z M32,54h4v1h-4z M41,52h3v3h-3z M48,54h6v1h-6z M63,53h8v2h-8z M79,53h3v2h-3z M96,54h11v1h-11z M109,54h4v1h-4z M148,54h4v1h-4z M155,54h2v1h-2z M159,54h3v1h-3z M164,53h4v2h-4z M202,54h13v1h-13z M225,54h6v1h-6z M236,54h3v1h-3z M244,54h13v1h-13z M259,54h8v1h-8z M9,55h4v1h-4z M17,55h1v1h-1z M29,55h8v1h-8z M48,55h7v1h-7z M96,55h8v1h-8z M110,55h3v1h-3z M115,52h8v4h-8z M139,53h4v3h-4z M154,55h14v1h-14z M180,54h6v2h-6z M203,55h12v1h-12z M218,55h2v1h-2z M228,55h2v1h-2z M9,56h3v1h-3z M28,56h9v1h-9z M105,56h2v1h-2z M111,56h1v1h-1z M115,56h7v1h-7z M134,56h1v1h-1z M154,56h2v1h-2z M159,56h5v1h-5z M166,56h1v1h-1z M180,56h5v1h-5z M204,56h10v1h-10z M217,56h4v1h-4z M244,55h4v2h-4z M258,55h9v2h-9z M26,57h11v1h-11z M47,56h8v2h-8z M63,55h9v3h-9z M104,57h3v1h-3z M126,54h3v4h-3z M159,57h4v1h-4z M181,57h1v1h-1z M190,57h2v1h-2z M206,57h7v1h-7z M217,57h3v1h-3z M245,57h3v1h-3z M257,57h10v1h-10z M24,58h14v1h-14z M64,58h10v1h-10z M83,58h4v1h-4z M103,58h4v1h-4z M127,58h1v1h-1z M133,57h3v2h-3z M143,58h1v1h-1z M146,58h4v1h-4z M160,58h1v1h-1z M189,58h4v1h-4z M207,58h5v1h-5z M226,58h1v1h-1z M15,59h2v1h-2z M24,59h12v1h-12z M46,58h9v2h-9z M57,57h3v3h-3z M64,59h12v1h-12z M82,59h5v1h-5z M91,57h3v3h-3z M104,59h2v1h-2z M134,59h2v1h-2z M143,59h8v1h-8z M172,58h3v2h-3z M190,59h2v1h-2z M208,59h3v1h-3z M218,58h1v2h-1z M225,59h3v1h-3z M240,59h2v1h-2z M252,59h1v1h-1z M24,60h11v1h-11z M41,60h1v1h-1z M46,60h8v1h-8z M59,60h1v1h-1z M65,60h11v1h-11z M81,60h6v1h-6z M92,60h2v1h-2z M140,60h11v1h-11z M167,60h3v1h-3z M173,60h2v1h-2z M196,59h4v2h-4z M224,60h4v1h-4z M232,58h4v3h-4z M256,58h11v3h-11z M14,60h4v2h-4z M45,61h9v1h-9z M65,61h3v1h-3z M71,61h5v1h-5z M80,61h6v1h-6z M87,61h2v1h-2z M101,61h2v1h-2z M114,57h8v5h-8z M138,61h12v1h-12z M183,61h3v1h-3z M197,61h2v1h-2z M218,60h2v2h-2z M225,61h3v1h-3z M251,60h2v2h-2z M13,62h5v1h-5z M24,61h9v2h-9z M45,62h8v1h-8z M65,62h2v1h-2z M78,62h12v1h-12z M109,62h3v1h-3z M114,62h3v1h-3z M119,62h1v1h-1z M138,62h11v1h-11z M153,60h1v3h-1z M182,62h4v1h-4z M210,62h2v1h-2z M218,62h1v1h-1z M226,62h2v1h-2z M239,60h4v3h-4z M257,61h10v2h-10z M25,63h5v1h-5z M31,63h3v1h-3z M40,61h2v3h-2z M64,63h2v1h-2z M77,63h12v1h-12z M100,62h4v2h-4z M108,63h5v1h-5z M115,63h1v1h-1z M130,63h3v1h-3z M139,63h10v1h-10z M157,63h2v1h-2z M177,62h3v2h-3z M183,63h3v1h-3z M203,63h1v1h-1z M210,63h3v1h-3z M230,63h3v1h-3z M241,63h1v1h-1z M263,63h4v1h-4z M9,63h7v2h-7z M26,64h2v1h-2z M31,64h4v1h-4z M44,63h9v2h-9z M77,64h11v1h-11z M92,62h4v3h-4z M108,64h4v1h-4z M122,62h3v3h-3z M141,64h1v1h-1z M143,64h7v1h-7z M157,64h3v1h-3z M162,61h8v4h-8z M177,64h2v1h-2z M184,64h2v1h-2z M190,64h3v1h-3z M209,64h4v1h-4z M226,64h8v1h-8z M244,64h4v1h-4z M259,63h3v2h-3z M44,65h8v1h-8z M63,64h3v2h-3z M75,65h13v1h-13z M93,65h3v1h-3z M109,65h2v1h-2z M129,64h4v2h-4z M140,65h11v1h-11z M156,65h4v1h-4z M161,65h8v1h-8z M184,65h10v1h-10z M210,65h3v1h-3z M221,65h13v1h-13z M243,65h5v1h-5z M249,65h1v1h-1z M31,65h3v2h-3z M45,66h2v1h-2z M48,66h4v1h-4z M56,65h3v2h-3z M69,66h3v1h-3z M75,66h11v1h-11z M139,66h12v1h-12z M156,66h13v1h-13z M183,66h11v1h-11z M202,64h3v3h-3z M220,66h13v1h-13z M242,66h9v1h-9z M252,66h3v1h-3z M264,64h3v3h-3z M8,65h9v3h-9z M21,66h1v2h-1z M49,67h3v1h-3z M56,67h4v1h-4z M69,67h4v1h-4z M75,67h10v1h-10z M96,67h9v1h-9z M141,67h2v1h-2z M148,67h4v1h-4z M203,67h2v1h-2z M214,67h3v1h-3z M242,67h14v1h-14z M9,68h8v1h-8z M49,68h4v1h-4z M57,68h2v1h-2z M69,68h3v1h-3z M76,68h2v1h-2z M79,68h5v1h-5z M90,68h1v1h-1z M95,68h14v1h-14z M116,68h3v1h-3z M127,68h3v1h-3z M149,68h3v1h-3z M172,68h3v1h-3z M203,68h1v1h-1z M220,67h12v2h-12z M242,68h9v1h-9z M35,69h4v1h-4z M49,69h5v1h-5z M79,69h4v1h-4z M89,69h3v1h-3z M126,69h5v1h-5z M136,69h1v1h-1z M150,69h2v1h-2z M171,69h4v1h-4z M180,67h14v3h-14z M197,69h2v1h-2z M213,68h4v2h-4z M221,69h12v1h-12z M241,69h9v1h-9z M253,68h3v2h-3z M259,69h1v1h-1z M1,43h5v28h-5z M10,69h8v2h-8z M26,68h3v3h-3z M32,70h2v1h-2z M35,70h5v1h-5z M50,70h4v1h-4z M61,70h5v1h-5z M79,70h3v1h-3z M88,70h5v1h-5z M95,69h15v2h-15z M116,69h4v2h-4z M172,70h3v1h-3z M181,70h13v1h-13z M204,70h2v1h-2z M208,70h2v1h-2z M214,70h3v1h-3z M221,70h13v1h-13z M258,70h3v1h-3z M1,71h7v1h-7z M27,71h2v1h-2z M51,71h1v1h-1z M60,71h6v1h-6z M89,71h3v1h-3z M95,71h14v1h-14z M123,70h8v2h-8z M172,71h2v1h-2z M180,71h14v1h-14z M196,70h3v2h-3z M204,71h7v1h-7z M220,71h14v1h-14z M240,70h9v2h-9z M259,71h2v1h-2z M1,72h9v1h-9z M31,71h9v2h-9z M57,72h8v1h-8z M73,72h2v1h-2z M90,72h1v1h-1z M95,72h13v1h-13z M123,72h9v1h-9z M135,70h3v3h-3z M144,72h2v1h-2z M161,67h8v6h-8z M180,72h12v1h-12z M197,72h2v1h-2z M220,72h13v1h-13z M239,72h9v1h-9z M259,72h1v1h-1z M1,73h8v1h-8z M11,71h8v3h-8z M43,73h2v1h-2z M57,73h7v1h-7z M72,73h3v1h-3z M82,73h4v1h-4z M96,73h12v1h-12z M123,73h10v1h-10z M136,73h1v1h-1z M143,73h3v1h-3z M154,71h4v3h-4z M161,73h3v1h-3z M165,73h3v1h-3z M180,73h8v1h-8z M221,73h3v1h-3z M225,73h3v1h-3z M238,73h10v1h-10z M7,74h1v1h-1z M12,74h7v1h-7z M53,74h13v1h-13z M72,74h2v1h-2z M83,74h3v1h-3z M97,74h11v1h-11z M124,74h9v1h-9z M143,74h4v1h-4z M161,74h2v1h-2z M166,74h1v1h-1z M175,74h1v1h-1z M181,74h3v1h-3z M232,74h3v1h-3z M238,74h9v1h-9z M249,74h2v1h-2z M13,75h2v1h-2z M32,73h9v3h-9z M43,74h3v2h-3z M52,75h14v1h-14z M73,75h1v1h-1z M79,75h2v1h-2z M83,75h2v1h-2z M95,75h2v1h-2z M103,75h5v1h-5z M144,75h2v1h-2z M174,75h4v1h-4z M190,75h1v1h-1z M196,75h2v1h-2z M226,75h2v1h-2z M231,75h4v1h-4z M239,75h8v1h-8z M255,75h1v1h-1z M52,76h15v1h-15z M77,76h4v1h-4z M112,74h3v3h-3z M122,76h1v1h-1z M124,75h10v2h-10z M138,76h1v1h-1z M169,76h2v1h-2z M174,76h3v1h-3z M181,76h3v1h-3z M189,76h3v1h-3z M203,72h9v5h-9z M220,76h1v1h-1z M241,76h5v1h-5z M248,75h3v2h-3z M254,76h2v1h-2z M1,74h5v4h-5z M25,75h3v3h-3z M33,76h9v2h-9z M51,77h17v1h-17z M75,77h7v1h-7z M89,77h2v1h-2z M95,76h3v2h-3z M125,77h9v1h-9z M138,77h2v1h-2z M174,77h2v1h-2z M188,77h5v1h-5z M204,77h7v1h-7z M214,77h2v1h-2z M232,76h3v2h-3z M249,77h2v1h-2z M254,77h3v1h-3z M2,78h4v1h-4z M16,78h4v1h-4z M52,78h13v1h-13z M74,78h9v1h-9z M88,78h3v1h-3z M116,78h1v1h-1z M121,77h3v2h-3z M126,78h8v1h-8z M137,78h4v1h-4z M168,77h4v2h-4z M180,77h5v2h-5z M188,78h4v1h-4z M195,76h4v3h-4z M213,78h3v1h-3z M220,77h2v2h-2z M225,76h3v3h-3z M254,78h2v1h-2z M263,67h4v12h-4z M2,79h7v1h-7z M18,79h1v1h-1z M33,78h10v2h-10z M53,79h8v1h-8z M66,78h3v2h-3z M74,79h10v1h-10z M88,79h4v1h-4z M104,79h2v1h-2z M122,79h2v1h-2z M127,79h6v1h-6z M138,79h3v1h-3z M146,79h1v1h-1z M153,79h3v1h-3z M160,79h3v1h-3z M169,79h2v1h-2z M181,79h4v1h-4z M189,79h3v1h-3z M214,79h2v1h-2z M254,79h13v1h-13z M34,80h9v1h-9z M53,80h6v1h-6z M66,80h1v1h-1z M88,80h3v1h-3z M128,80h2v1h-2z M138,80h2v1h-2z M145,80h3v1h-3z M153,80h4v1h-4z M160,80h4v1h-4z M182,80h3v1h-3z M204,78h8v3h-8z M237,80h2v1h-2z M251,80h17v1h-17z M2,80h8v2h-8z M20,81h6v1h-6z M34,81h4v1h-4z M39,81h2v1h-2z M54,81h4v1h-4z M75,80h10v2h-10z M89,81h1v1h-1z M115,79h4v3h-4z M129,81h1v1h-1z M144,81h7v1h-7z M153,81h3v1h-3z M159,81h5v1h-5z M185,81h2v1h-2z M190,80h1v2h-1z M204,81h7v1h-7z M2,82h4v1h-4z M8,82h1v1h-1z M15,82h12v1h-12z M36,82h2v1h-2z M46,81h3v2h-3z M58,82h1v1h-1z M76,82h10v1h-10z M97,82h1v1h-1z M103,80h3v3h-3z M116,82h1v1h-1z M131,82h3v1h-3z M143,82h9v1h-9z M160,82h3v1h-3z M178,82h2v1h-2z M189,82h4v1h-4z M204,82h6v1h-6z M250,81h18v2h-18z M1,83h4v1h-4z M13,83h15v1h-15z M46,83h2v1h-2z M52,83h2v1h-2z M58,83h3v1h-3z M76,83h5v1h-5z M82,83h4v1h-4z M96,83h5v1h-5z M110,83h2v1h-2z M130,83h5v1h-5z M138,83h1v1h-1z M160,83h2v1h-2z M172,83h3v1h-3z M218,83h3v1h-3z M227,83h2v1h-2z M237,81h3v3h-3z M1,84h5v1h-5z M52,84h3v1h-3z M58,84h2v1h-2z M63,84h1v1h-1z M73,84h1v1h-1z M77,84h9v1h-9z M126,84h2v1h-2z M131,84h4v1h-4z M143,83h8v2h-8z M177,83h4v2h-4z M184,82h3v3h-3z M188,83h8v2h-8z M199,83h3v2h-3z M205,83h3v2h-3z M214,84h8v1h-8z M244,82h4v3h-4z M250,83h12v2h-12z M263,83h5v2h-5z M12,84h16v2h-16z M63,85h2v1h-2z M71,85h3v1h-3z M78,85h7v1h-7z M93,84h8v2h-8z M117,85h3v1h-3z M125,85h3v1h-3z M132,85h1v1h-1z M154,85h2v1h-2z M167,84h8v2h-8z M178,85h1v1h-1z M185,85h1v1h-1z M188,85h7v1h-7z M198,85h4v1h-4z M212,85h12v1h-12z M226,84h4v2h-4z M236,84h3v2h-3z M245,85h2v1h-2z M251,85h11v1h-11z M263,85h4v1h-4z M1,85h4v2h-4z M12,86h15v1h-15z M44,86h3v1h-3z M51,85h4v2h-4z M70,86h4v1h-4z M78,86h5v1h-5z M89,86h2v1h-2z M109,84h4v3h-4z M116,86h5v1h-5z M126,86h2v1h-2z M137,84h3v3h-3z M142,85h8v2h-8z M163,86h2v1h-2z M199,86h2v1h-2z M205,85h4v2h-4z M212,86h13v1h-13z M227,86h2v1h-2z M233,86h6v1h-6z M251,86h10v1h-10z M263,86h5v1h-5z M1,87h5v1h-5z M13,87h12v1h-12z M44,87h4v1h-4z M53,87h2v1h-2z M72,87h1v1h-1z M79,87h4v1h-4z M110,87h2v1h-2z M115,87h6v1h-6z M138,87h1v1h-1z M153,86h4v2h-4z M167,86h9v2h-9z M187,86h8v2h-8z M206,87h2v1h-2z M232,87h8v1h-8z M251,87h7v1h-7z M262,87h6v1h-6z M13,88h10v1h-10z M37,88h12v1h-12z M81,88h1v1h-1z M89,87h3v2h-3z M93,86h7v3h-7z M112,88h9v1h-9z M141,87h8v2h-8z M154,88h3v1h-3z M186,88h9v1h-9z M214,87h11v2h-11z M253,88h5v1h-5z M259,88h9v1h-9z M2,88h4v2h-4z M13,89h7v1h-7z M36,89h2v1h-2z M40,89h10v1h-10z M62,86h7v4h-7z M93,89h8v1h-8z M103,88h3v2h-3z M140,89h8v1h-8z M159,89h2v1h-2z M162,87h3v3h-3z M179,89h3v1h-3z M186,89h11v1h-11z M201,89h2v1h-2z M232,88h9v2h-9z M242,87h3v3h-3z M254,89h4v1h-4z M2,90h5v1h-5z M8,90h2v1h-2z M13,90h5v1h-5z M22,90h1v1h-1z M40,90h11v1h-11z M57,90h2v1h-2z M72,90h1v1h-1z M83,90h2v1h-2z M92,90h9v1h-9z M103,90h4v1h-4z M111,89h11v2h-11z M124,90h2v1h-2z M140,90h7v1h-7z M152,90h2v1h-2z M168,88h8v3h-8z M178,90h4v1h-4z M186,90h7v1h-7z M194,90h4v1h-4z M214,89h10v2h-10z M232,90h13v1h-13z M254,90h3v1h-3z M259,89h8v2h-8z M2,91h8v1h-8z M28,91h6v1h-6z M42,91h10v1h-10z M56,91h4v1h-4z M61,90h8v2h-8z M84,91h2v1h-2z M104,91h2v1h-2z M110,91h12v1h-12z M123,91h4v1h-4z M131,91h3v1h-3z M139,91h8v1h-8z M151,91h3v1h-3z M185,91h8v1h-8z M194,91h3v1h-3z M213,91h10v1h-10z M233,91h9v1h-9z M249,91h1v1h-1z M261,91h6v1h-6z M2,92h5v1h-5z M42,92h11v1h-11z M56,92h13v1h-13z M93,91h8v2h-8z M109,92h12v1h-12z M124,92h3v1h-3z M131,92h4v1h-4z M140,92h5v1h-5z M150,92h4v1h-4z M158,90h4v3h-4z M167,91h10v2h-10z M179,91h3v2h-3z M185,92h7v1h-7z M194,92h1v1h-1z M200,90h4v3h-4z M210,91h1v2h-1z M213,92h9v1h-9z M226,91h3v2h-3z M234,92h9v1h-9z M248,92h3v1h-3z M21,91h3v3h-3z M43,93h11v1h-11z M56,93h3v1h-3z M60,93h9v1h-9z M71,91h2v3h-2z M76,93h1v1h-1z M88,93h13v1h-13z M109,93h11v1h-11z M131,93h3v1h-3z M142,93h3v1h-3z M151,93h3v1h-3z M159,93h1v1h-1z M186,93h5v1h-5z M201,93h2v1h-2z M214,93h7v1h-7z M226,93h2v1h-2z M259,93h1v1h-1z M12,94h3v1h-3z M21,94h2v1h-2z M27,92h8v3h-8z M44,94h10v1h-10z M75,94h3v1h-3z M88,94h4v1h-4z M93,94h8v1h-8z M110,94h9v1h-9z M165,93h12v2h-12z M187,94h4v1h-4z M215,94h6v1h-6z M226,94h1v1h-1z M234,93h10v2h-10z M248,93h4v2h-4z M257,94h4v1h-4z M263,92h4v3h-4z M12,95h4v1h-4z M27,95h7v1h-7z M45,95h7v1h-7z M61,94h7v2h-7z M76,95h2v1h-2z M89,95h3v1h-3z M94,95h7v1h-7z M110,95h6v1h-6z M164,95h12v1h-12z M216,95h8v1h-8z M235,95h9v1h-9z M249,95h1v1h-1z M12,96h3v1h-3z M46,96h5v1h-5z M82,96h2v1h-2z M90,96h1v1h-1z M104,96h3v1h-3z M110,96h4v1h-4z M119,95h3v2h-3z M143,94h3v3h-3z M156,96h3v1h-3z M164,96h3v1h-3z M170,96h2v1h-2z M202,96h3v1h-3z M217,96h7v1h-7z M235,96h10v1h-10z M257,95h10v2h-10z M13,97h2v1h-2z M41,96h3v2h-3z M47,97h4v1h-4z M80,97h5v1h-5z M103,97h4v1h-4z M111,97h3v1h-3z M120,97h2v1h-2z M126,97h3v1h-3z M130,97h1v1h-1z M137,97h1v1h-1z M142,97h4v1h-4z M153,97h7v1h-7z M199,97h6v1h-6z M208,97h1v1h-1z M220,97h4v1h-4z M228,97h2v1h-2z M236,97h4v1h-4z M242,97h3v1h-3z M18,98h1v1h-1z M26,96h8v3h-8z M42,98h1v1h-1z M52,98h3v1h-3z M60,96h8v3h-8z M70,98h2v1h-2z M79,98h6v1h-6z M104,98h4v1h-4z M113,98h2v1h-2z M125,98h7v1h-7z M136,98h2v1h-2z M143,98h3v1h-3z M151,98h9v1h-9z M198,98h8v1h-8z M207,98h3v1h-3z M221,98h2v1h-2z M237,98h2v1h-2z M242,98h4v1h-4z M25,99h8v1h-8z M41,99h1v1h-1z M52,99h4v1h-4z M61,99h6v1h-6z M70,99h3v1h-3z M78,99h6v1h-6z M97,99h1v1h-1z M104,99h2v1h-2z M134,99h4v1h-4z M149,99h13v1h-13z M180,99h1v1h-1z M191,98h4v2h-4z M197,99h14v1h-14z M234,99h2v1h-2z M11,100h1v1h-1z M18,99h4v2h-4z M53,100h2v1h-2z M71,100h1v1h-1z M76,100h7v1h-7z M89,100h1v1h-1z M96,100h3v1h-3z M125,99h8v2h-8z M134,100h5v1h-5z M147,100h15v1h-15z M197,100h13v1h-13z M226,98h5v3h-5z M234,100h3v1h-3z M243,99h2v2h-2z M255,97h12v4h-12z M9,101h7v1h-7z M19,101h2v1h-2z M36,100h2v2h-2z M62,101h2v1h-2z M75,101h10v1h-10z M88,101h3v1h-3z M95,101h4v1h-4z M101,101h3v1h-3z M112,99h4v3h-4z M147,101h14v1h-14z M172,101h3v1h-3z M179,100h2v2h-2z M198,101h12v1h-12z M220,101h2v1h-2z M257,101h10v1h-10z M2,93h4v10h-4z M24,100h9v3h-9z M44,102h3v1h-3z M61,102h3v1h-3z M74,102h12v1h-12z M89,102h2v1h-2z M96,102h2v1h-2z M100,102h6v1h-6z M113,102h2v1h-2z M119,102h2v1h-2z M135,101h3v2h-3z M147,102h13v1h-13z M164,101h4v2h-4z M171,102h4v1h-4z M185,100h4v3h-4z M198,102h10v1h-10z M219,102h3v1h-3z M227,101h3v2h-3z M233,101h4v2h-4z M242,102h2v1h-2z M251,102h3v1h-3z M9,102h8v2h-8z M25,103h2v1h-2z M28,103h4v1h-4z M42,103h6v1h-6z M61,103h4v1h-4z M99,103h10v1h-10z M147,103h12v1h-12z M165,103h2v1h-2z M172,103h3v1h-3z M185,103h2v1h-2z M234,103h2v1h-2z M242,103h3v1h-3z M251,103h4v1h-4z M258,102h9v2h-9z M26,104h1v1h-1z M29,104h3v1h-3z M40,104h10v1h-10z M60,104h4v1h-4z M72,103h14v2h-14z M98,104h12v1h-12z M118,103h4v2h-4z M147,104h9v1h-9z M185,104h1v1h-1z M199,103h9v2h-9z M251,104h3v1h-3z M259,104h8v1h-8z M37,105h13v1h-13z M59,105h4v1h-4z M71,105h13v1h-13z M98,105h13v1h-13z M120,105h1v1h-1z M137,105h3v1h-3z M147,105h6v1h-6z M189,105h1v1h-1z M195,105h3v1h-3z M199,105h10v1h-10z M219,103h11v3h-11z M241,104h7v2h-7z M252,105h1v1h-1z M1,103h5v4h-5z M21,106h2v1h-2z M68,106h13v1h-13z M93,106h1v1h-1z M98,106h14v1h-14z M148,106h3v1h-3z M158,106h2v1h-2z M172,106h1v1h-1z M175,106h6v1h-6z M188,106h3v1h-3z M194,106h4v1h-4z M218,106h12v1h-12z M240,106h8v1h-8z M257,105h10v2h-10z M20,107h3v1h-3z M58,106h5v2h-5z M67,107h14v1h-14z M99,107h14v1h-14z M144,107h2v1h-2z M200,106h9v2h-9z M218,107h14v1h-14z M256,107h5v1h-5z M21,108h2v1h-2z M36,106h14v3h-14z M67,108h13v1h-13z M85,105h3v4h-3z M100,108h12v1h-12z M124,101h9v8h-9z M137,106h4v3h-4z M144,108h3v1h-3z M150,108h3v1h-3z M187,107h5v2h-5z M195,107h3v2h-3z M201,108h8v1h-8z M219,108h14v1h-14z M256,108h4v1h-4z M263,107h4v2h-4z M9,104h9v6h-9z M36,109h12v1h-12z M55,108h8v2h-8z M67,109h3v1h-3z M74,109h6v1h-6z M92,107h4v3h-4z M101,109h10v1h-10z M115,108h3v2h-3z M125,109h2v1h-2z M129,109h5v1h-5z M144,109h2v1h-2z M149,109h4v1h-4z M188,109h4v1h-4z M201,109h4v1h-4z M208,109h1v1h-1z M219,109h13v1h-13z M236,107h13v3h-13z M257,109h3v1h-3z M26,110h2v1h-2z M36,110h8v1h-8z M50,110h2v1h-2z M75,110h2v1h-2z M78,110h3v1h-3z M93,110h1v1h-1z M101,110h9v1h-9z M130,110h5v1h-5z M150,110h3v1h-3z M161,110h4v1h-4z M188,110h2v1h-2z M202,110h2v1h-2z M208,110h2v1h-2z M218,110h12v1h-12z M237,110h11v1h-11z M36,111h6v1h-6z M55,110h9v2h-9z M78,111h4v1h-4z M100,111h5v1h-5z M106,111h4v1h-4z M132,111h3v1h-3z M150,111h2v1h-2z M168,107h14v5h-14z M197,111h3v1h-3z M208,111h3v1h-3z M218,111h9v1h-9z M237,111h10v1h-10z M263,109h5v3h-5z M10,110h8v3h-8z M25,111h4v2h-4z M37,112h3v1h-3z M50,111h3v2h-3z M79,112h3v1h-3z M90,112h1v1h-1z M101,112h4v1h-4z M118,112h4v1h-4z M133,112h2v1h-2z M151,112h1v1h-1z M162,111h3v2h-3z M169,112h13v1h-13z M207,112h4v1h-4z M218,112h6v1h-6z M232,112h1v1h-1z M238,112h8v1h-8z M252,111h2v2h-2z M264,112h4v1h-4z M10,113h4v1h-4z M15,113h3v1h-3z M27,113h2v1h-2z M51,113h1v1h-1z M56,112h9v2h-9z M86,113h6v1h-6z M102,113h2v1h-2z M118,113h5v1h-5z M133,113h1v1h-1z M136,113h3v1h-3z M146,113h1v1h-1z M156,113h3v1h-3z M169,113h12v1h-12z M188,113h2v1h-2z M196,112h4v2h-4z M208,113h3v1h-3z M231,113h3v1h-3z M239,113h6v1h-6z M10,114h3v1h-3z M15,114h2v1h-2z M27,114h1v1h-1z M31,112h3v3h-3z M57,114h8v1h-8z M70,114h1v1h-1z M85,114h8v1h-8z M94,114h3v1h-3z M118,114h4v1h-4z M136,114h4v1h-4z M145,114h3v1h-3z M170,114h3v1h-3z M187,114h4v1h-4z M197,114h3v1h-3z M231,114h4v1h-4z M239,114h5v1h-5z M264,113h3v2h-3z M2,107h4v9h-4z M7,115h5v1h-5z M32,115h2v1h-2z M58,115h7v1h-7z M84,115h14v1h-14z M109,114h4v2h-4z M119,115h3v1h-3z M125,115h2v1h-2z M153,114h7v2h-7z M181,115h13v1h-13z M231,115h3v1h-3z M258,115h2v1h-2z M2,116h9v1h-9z M58,116h4v1h-4z M63,116h2v1h-2z M94,116h3v1h-3z M110,116h3v1h-3z M135,115h7v2h-7z M144,115h5v2h-5z M202,116h2v1h-2z M232,116h2v1h-2z M255,116h6v1h-6z M14,117h1v1h-1z M23,117h4v1h-4z M36,117h4v1h-4z M58,117h3v1h-3z M84,116h8v2h-8z M95,117h2v1h-2z M102,117h2v1h-2z M111,117h2v1h-2z M114,117h1v1h-1z M124,116h5v2h-5z M146,117h1v1h-1z M153,116h8v2h-8z M182,116h12v2h-12z M201,117h4v1h-4z M216,117h2v1h-2z M223,115h3v3h-3z M245,117h1v1h-1z M252,117h9v1h-9z M2,117h8v2h-8z M13,118h2v1h-2z M22,118h5v1h-5z M36,118h7v1h-7z M45,118h2v1h-2z M74,116h3v3h-3z M111,118h6v1h-6z M125,118h3v1h-3z M134,117h8v2h-8z M153,118h9v1h-9z M171,115h2v4h-2z M201,118h7v1h-7z M244,118h3v1h-3z M250,118h11v1h-11z M7,119h1v1h-1z M21,119h6v1h-6z M37,119h10v1h-10z M49,118h4v2h-4z M70,119h4v1h-4z M85,118h7v2h-7z M110,119h8v1h-8z M133,119h9v1h-9z M176,119h3v1h-3z M184,118h14v2h-14z M202,119h10v1h-10z M215,118h3v2h-3z M231,119h4v1h-4z M244,119h4v1h-4z M250,119h10v1h-10z M2,119h4v2h-4z M13,119h3v2h-3z M18,120h8v1h-8z M31,120h1v1h-1z M38,120h10v1h-10z M50,120h3v1h-3z M57,120h2v1h-2z M68,120h6v1h-6z M84,120h8v1h-8z M101,118h3v3h-3z M109,120h8v1h-8z M121,120h3v1h-3z M133,120h8v1h-8z M164,119h4v2h-4z M184,120h15v1h-15z M203,120h10v1h-10z M231,120h5v1h-5z M238,119h3v2h-3z M244,120h3v1h-3z M249,120h12v1h-12z M2,121h3v1h-3z M15,121h11v1h-11z M30,121h3v1h-3z M67,121h7v1h-7z M103,121h1v1h-1z M107,121h10v1h-10z M133,121h7v1h-7z M144,121h3v1h-3z M154,119h8v3h-8z M165,121h3v1h-3z M175,120h4v2h-4z M183,121h9v1h-9z M195,121h3v1h-3z M227,121h14v1h-14z M250,121h11v1h-11z M15,122h12v1h-12z M39,121h8v2h-8z M57,121h3v2h-3z M65,122h8v1h-8z M79,120h3v3h-3z M95,122h1v1h-1z M106,122h12v1h-12z M120,121h4v2h-4z M150,122h3v1h-3z M165,122h2v1h-2z M182,122h9v1h-9z M218,122h3v1h-3z M227,122h13v1h-13z M250,122h10v1h-10z M14,123h13v1h-13z M30,122h4v2h-4z M58,123h1v1h-1z M63,123h10v1h-10z M84,121h9v3h-9z M94,123h3v1h-3z M122,123h1v1h-1z M143,122h4v2h-4z M155,122h7v2h-7z M171,123h2v1h-2z M227,123h5v1h-5z M233,123h5v1h-5z M249,123h9v1h-9z M2,122h4v3h-4z M9,124h3v1h-3z M15,124h12v1h-12z M30,124h3v1h-3z M39,123h7v2h-7z M61,124h12v1h-12z M84,124h8v1h-8z M94,124h4v1h-4z M105,123h13v2h-13z M132,122h8v3h-8z M145,124h2v1h-2z M150,123h4v2h-4z M155,124h8v1h-8z M170,124h3v1h-3z M182,123h8v2h-8z M204,121h8v4h-8z M218,123h4v2h-4z M228,124h11v1h-11z M249,124h7v1h-7z M1,125h5v1h-5z M17,125h9v1h-9z M51,125h1v1h-1z M60,125h14v1h-14z M84,125h4v1h-4z M89,125h3v1h-3z M105,125h11v1h-11z M133,125h6v1h-6z M150,125h3v1h-3z M156,125h7v1h-7z M182,125h12v1h-12z M197,125h3v1h-3z M218,125h3v1h-3z M228,125h6v1h-6z M250,125h4v1h-4z M260,125h2v1h-2z M263,115h4v11h-4z M8,125h4v2h-4z M16,126h8v1h-8z M33,126h1v1h-1z M50,126h2v1h-2z M59,126h15v1h-15z M86,126h1v1h-1z M105,126h10v1h-10z M118,126h2v1h-2z M127,126h1v1h-1z M134,126h4v1h-4z M157,126h1v1h-1z M169,125h5v2h-5z M183,126h11v1h-11z M196,126h4v1h-4z M219,126h1v1h-1z M224,125h3v2h-3z M229,126h5v1h-5z M235,125h5v2h-5z M251,126h3v1h-3z M2,126h4v2h-4z M9,127h1v1h-1z M15,127h5v1h-5z M24,127h3v1h-3z M32,127h3v1h-3z M59,127h14v1h-14z M98,127h2v1h-2z M106,127h6v1h-6z M117,127h3v1h-3z M135,127h3v1h-3z M142,127h1v1h-1z M170,127h3v1h-3z M186,127h1v1h-1z M190,127h4v1h-4z M197,127h3v1h-3z M203,125h8v3h-8z M214,127h1v1h-1z M224,127h4v1h-4z M230,127h10v1h-10z M243,127h2v1h-2z M252,127h3v1h-3z M259,126h8v2h-8z M16,128h2v1h-2z M32,128h4v1h-4z M38,125h8v4h-8z M59,128h12v1h-12z M106,128h5v1h-5z M117,128h4v1h-4z M137,128h1v1h-1z M150,128h2v1h-2z M177,128h1v1h-1z M191,128h2v1h-2z M198,128h2v1h-2z M224,128h3v1h-3z M231,128h5v1h-5z M237,128h2v1h-2z M260,128h7v1h-7z M2,128h3v2h-3z M23,128h5v2h-5z M32,129h3v1h-3z M38,129h7v1h-7z M61,129h7v1h-7z M79,127h3v3h-3z M98,128h3v2h-3z M106,129h3v1h-3z M117,129h3v1h-3z M125,127h4v3h-4z M140,128h4v2h-4z M164,128h3v2h-3z M203,128h7v2h-7z M213,128h4v2h-4z M232,129h4v1h-4z M242,128h4v2h-4z M251,128h5v2h-5z M23,130h4v1h-4z M38,130h4v1h-4z M43,130h2v1h-2z M81,130h1v1h-1z M89,130h3v1h-3z M126,130h2v1h-2z M141,130h2v1h-2z M163,130h4v1h-4z M207,130h2v1h-2z M213,130h5v1h-5z M233,130h3v1h-3z M242,130h3v1h-3z M252,130h3v1h-3z M263,129h4v2h-4z M2,130h4v2h-4z M21,131h6v1h-6z M41,131h1v1h-1z M62,130h4v2h-4z M74,131h1v1h-1z M88,131h5v1h-5z M98,130h2v2h-2z M140,131h2v1h-2z M149,129h3v3h-3z M163,131h5v1h-5z M212,131h6v1h-6z M229,131h1v1h-1z M232,131h5v1h-5z M243,131h2v1h-2z M252,131h4v1h-4z M263,131h5v1h-5z M2,132h266v3h-266z M3,135h264v1h-264z M4,136h1v1h-1z M34,136h2v1h-2z M83,136h3v1h-3z M92,136h3v1h-3z M96,136h2v1h-2z M99,136h5v1h-5z M110,136h1v1h-1z M114,136h4v1h-4z M121,136h3v1h-3z M125,136h4v1h-4z M147,136h3v1h-3z M168,136h5v1h-5z M176,136h2v1h-2z M186,136h5v1h-5z M192,136h5v1h-5z M202,136h16v1h-16z M220,136h3v1h-3z M227,136h2v1h-2z M236,136h7v1h-7z M244,136h2v1h-2z M258,136h1v1h-1z
  "/>
</svg>