<?xml version="1.0" encoding="UTF-8"?>
<svg xmlns="http://www.w3.org/2000/svg" viewBox="0 0 267 137" width="267" height="137">
  <title>58 Massive igneous rock 58</title>
  <path fill="#111111" fill-rule="nonzero" d="
    M4,0h2v1h-2z M7,0h4v1h-4z M18,0h4v1h-4z M25,0h4v1h-4z M32,0h2v1h-2z M38,0h9v1h-9z M48,0h3v1h-3z M55,0h1v1h-1z M64,0h2v1h-2z M68,0h2v1h-2z M87,0h1v1h-1z M1,1h263v2h-263z M1,3h264v1h-264z M1,4h11v1h-11z M18,4h4v1h-4z M23,4h6v1h-6z M31,4h4v1h-4z M37,4h4v1h-4z M42,4h10v1h-10z M53,4h9v1h-9z M64,4h14v1h-14z M79,4h58v1h-58z M138,4h22v1h-22z M162,4h5v1h-5z M168,4h7v1h-7z M178,4h21v1h-21z M200,4h65v1h-65z M8,5h4v1h-4z M13,4h4v2h-4z M37,5h3v1h-3z M41,5h5v1h-5z M54,5h8v1h-8z M64,5h4v1h-4z M69,5h8v1h-8z M79,5h3v1h-3z M83,5h6v1h-6z M90,5h6v1h-6z M105,5h7v1h-7z M122,5h5v1h-5z M128,5h9v1h-9z M139,5h15v1h-15z M156,5h3v1h-3z M163,5h3v1h-3z M169,5h5v1h-5z M185,5h4v1h-4z M191,5h15v1h-15z M215,5h4v1h-4z M221,5h4v1h-4z M231,5h11v1h-11z M1,5h5v2h-5z M9,6h8v1h-8z M19,5h3v2h-3z M23,5h7v2h-7z M33,5h1v2h-1z M37,6h9v1h-9z M48,5h3v2h-3z M54,6h3v1h-3z M58,6h4v1h-4z M65,6h3v1h-3z M70,6h6v1h-6z M79,6h2v1h-2z M83,6h5v1h-5z M98,5h5v2h-5z M104,6h8v1h-8z M114,5h4v2h-4z M123,6h4v1h-4z M129,6h3v1h-3z M133,6h4v1h-4z M138,6h8v1h-8z M151,6h3v1h-3z M156,6h4v1h-4z M162,6h3v1h-3z M168,6h11v1h-11z M186,6h4v1h-4z M191,6h16v1h-16z M209,5h5v2h-5z M216,6h3v1h-3z M244,5h7v2h-7z M252,5h8v2h-8z M10,7h6v1h-6z M23,7h3v1h-3z M27,7h4v1h-4z M37,7h6v1h-6z M58,7h5v1h-5z M65,7h4v1h-4z M70,7h5v1h-5z M78,7h3v1h-3z M90,6h4v2h-4z M97,7h4v1h-4z M109,7h3v1h-3z M114,7h6v1h-6z M124,7h3v1h-3z M134,7h12v1h-12z M147,6h2v2h-2z M152,7h2v1h-2z M157,7h6v1h-6z M167,7h16v1h-16z M185,7h5v1h-5z M197,7h11v1h-11z M210,7h4v1h-4z M217,7h2v1h-2z M243,7h8v1h-8z M252,7h4v1h-4z M1,7h7v2h-7z M11,8h5v1h-5z M18,7h3v2h-3z M23,8h2v1h-2z M28,8h3v1h-3z M37,8h5v1h-5z M44,7h7v2h-7z M66,8h3v1h-3z M71,8h4v1h-4z M77,8h3v1h-3z M82,7h6v2h-6z M96,8h4v1h-4z M102,7h5v2h-5z M110,8h2v1h-2z M114,8h7v1h-7z M130,7h2v2h-2z M135,8h6v1h-6z M142,8h3v1h-3z M152,8h3v1h-3z M157,8h5v1h-5z M166,8h24v1h-24z M192,7h4v2h-4z M200,8h9v1h-9z M211,8h4v1h-4z M218,8h1v1h-1z M222,6h3v3h-3z M232,6h9v3h-9z M242,8h3v1h-3z M257,7h3v2h-3z M1,9h8v1h-8z M12,9h9v1h-9z M22,9h3v1h-3z M28,9h4v1h-4z M37,9h14v1h-14z M53,7h3v3h-3z M58,8h6v2h-6z M72,9h3v1h-3z M77,9h11v1h-11z M90,8h3v2h-3z M95,9h4v1h-4z M114,9h9v1h-9z M124,8h4v2h-4z M131,9h1v1h-1z M135,9h10v1h-10z M153,9h2v1h-2z M166,9h25v1h-25z M193,9h3v1h-3z M202,9h8v1h-8z M211,9h5v1h-5z M218,9h8v1h-8z M232,9h4v1h-4z M237,9h8v1h-8z M248,8h8v2h-8z M6,10h4v1h-4z M13,10h8v1h-8z M28,10h23v1h-23z M53,10h6v1h-6z M62,10h3v1h-3z M67,9h3v2h-3z M72,10h17v1h-17z M100,9h7v2h-7z M119,10h9v1h-9z M131,10h2v1h-2z M135,10h6v1h-6z M164,10h27v1h-27z M194,10h5v1h-5z M227,5h3v6h-3z M232,10h5v1h-5z M238,10h7v1h-7z M247,10h9v1h-9z M257,9h4v2h-4z M1,10h3v2h-3z M7,11h4v1h-4z M14,11h6v1h-6z M22,10h4v2h-4z M29,11h16v1h-16z M47,11h5v1h-5z M53,11h7v1h-7z M62,11h4v1h-4z M67,11h4v1h-4z M90,10h8v2h-8z M99,11h8v1h-8z M109,9h3v3h-3z M114,10h3v2h-3z M120,11h9v1h-9z M131,11h3v1h-3z M142,10h3v2h-3z M147,8h3v4h-3z M158,9h4v3h-4z M164,11h22v1h-22z M188,11h4v1h-4z M194,11h8v1h-8z M204,10h13v2h-13z M232,11h6v1h-6z M240,11h21v1h-21z M262,5h3v7h-3z M1,12h4v1h-4z M15,12h5v1h-5z M21,12h6v1h-6z M29,12h14v1h-14z M45,12h21v1h-21z M68,12h3v1h-3z M73,11h16v2h-16z M90,12h17v1h-17z M109,12h10v1h-10z M121,12h8v1h-8z M131,12h4v1h-4z M136,11h4v2h-4z M142,12h4v1h-4z M147,12h4v1h-4z M154,10h2v3h-2z M159,12h27v1h-27z M195,12h22v1h-22z M219,10h7v3h-7z M232,12h7v1h-7z M240,12h16v1h-16z M1,13h5v1h-5z M8,12h4v2h-4z M15,13h12v1h-12z M29,13h13v1h-13z M44,13h23v1h-23z M74,13h33v1h-33z M113,13h7v1h-7z M122,13h8v1h-8z M137,13h4v1h-4z M142,13h9v1h-9z M159,13h28v1h-28z M189,12h4v2h-4z M195,13h14v1h-14z M213,13h4v1h-4z M220,13h6v1h-6z M227,11h4v3h-4z M233,13h8v1h-8z M242,13h15v1h-15z M9,14h4v1h-4z M16,14h11v1h-11z M30,14h37v1h-37z M69,13h3v2h-3z M75,14h31v1h-31z M109,13h3v2h-3z M114,14h7v1h-7z M124,14h6v1h-6z M132,13h3v2h-3z M138,14h3v1h-3z M143,14h9v1h-9z M154,13h3v2h-3z M159,14h16v1h-16z M178,14h9v1h-9z M190,14h3v1h-3z M195,14h5v1h-5z M202,14h8v1h-8z M214,14h3v1h-3z M220,14h7v1h-7z M228,14h4v1h-4z M233,14h24v1h-24z M258,12h7v3h-7z M1,14h6v2h-6z M10,15h4v1h-4z M17,15h6v1h-6z M24,15h3v1h-3z M31,15h8v1h-8z M41,15h18v1h-18z M61,15h12v1h-12z M75,15h16v1h-16z M94,15h6v1h-6z M101,15h5v1h-5z M108,15h22v1h-22z M166,15h10v1h-10z M179,15h4v1h-4z M184,15h3v1h-3z M190,15h4v1h-4z M196,15h4v1h-4z M205,15h7v1h-7z M220,15h6v1h-6z M228,15h9v1h-9z M238,15h6v1h-6z M245,15h7v1h-7z M253,15h12v1h-12z M1,16h7v1h-7z M11,16h4v1h-4z M31,16h19v1h-19z M52,16h7v1h-7z M63,16h26v1h-26z M93,16h7v1h-7z M102,16h5v1h-5z M119,16h11v1h-11z M133,15h3v2h-3z M138,15h14v2h-14z M155,15h3v2h-3z M159,15h4v2h-4z M166,16h11v1h-11z M179,16h3v1h-3z M197,16h7v1h-7z M208,16h6v1h-6z M219,16h7v1h-7z M233,16h4v1h-4z M240,16h4v1h-4z M246,16h7v1h-7z M254,16h6v1h-6z M262,16h3v1h-3z M1,17h8v1h-8z M12,17h5v1h-5z M18,16h5v2h-5z M25,16h3v2h-3z M31,17h20v1h-20z M52,17h8v1h-8z M65,17h10v1h-10z M76,17h10v1h-10z M92,17h9v1h-9z M103,17h4v1h-4z M108,16h8v2h-8z M120,17h11v1h-11z M134,17h3v1h-3z M160,17h3v1h-3z M166,17h5v1h-5z M185,16h3v2h-3z M191,16h3v2h-3z M197,17h9v1h-9z M208,17h8v1h-8z M217,17h10v1h-10z M228,16h4v2h-4z M233,17h6v1h-6z M241,17h6v1h-6z M248,17h5v1h-5z M254,17h5v1h-5z M263,17h2v1h-2z M1,18h9v1h-9z M13,18h5v1h-5z M19,18h4v1h-4z M48,18h4v1h-4z M53,18h7v1h-7z M68,18h7v1h-7z M76,18h8v1h-8z M91,18h4v1h-4z M99,18h3v1h-3z M103,18h14v1h-14z M121,18h5v1h-5z M129,18h2v1h-2z M134,18h4v1h-4z M139,17h14v2h-14z M160,18h4v1h-4z M166,18h4v1h-4z M213,18h14v1h-14z M228,18h12v1h-12z M242,18h5v1h-5z M248,18h9v1h-9z M262,18h3v1h-3z M1,19h10v1h-10z M20,19h3v1h-3z M32,18h14v2h-14z M54,19h9v1h-9z M70,19h13v1h-13z M88,19h6v1h-6z M99,19h4v1h-4z M104,19h15v1h-15z M121,19h4v1h-4z M127,19h5v1h-5z M133,19h10v1h-10z M146,19h7v1h-7z M161,19h9v1h-9z M173,17h4v3h-4z M179,17h4v3h-4z M186,18h3v2h-3z M192,18h3v2h-3z M198,18h14v2h-14z M214,19h13v1h-13z M228,19h4v1h-4z M234,19h7v1h-7z M243,19h13v1h-13z M261,19h4v1h-4z M1,20h11v1h-11z M14,19h5v2h-5z M20,20h4v1h-4z M26,18h3v3h-3z M32,20h15v1h-15z M49,19h3v2h-3z M54,20h12v1h-12z M73,20h3v1h-3z M88,20h1v1h-1z M95,20h2v1h-2z M100,20h24v1h-24z M126,20h17v1h-17z M145,20h4v1h-4z M156,17h3v4h-3z M162,20h9v1h-9z M172,20h12v1h-12z M193,20h3v1h-3z M198,20h5v1h-5z M205,20h22v1h-22z M229,20h4v1h-4z M234,20h9v1h-9z M244,20h10v1h-10z M260,20h6v1h-6z M1,21h12v1h-12z M14,21h10v1h-10z M33,21h14v1h-14z M49,21h4v1h-4z M55,21h12v1h-12z M77,20h5v2h-5z M84,21h5v1h-5z M93,21h5v1h-5z M100,21h11v1h-11z M117,21h6v1h-6z M125,21h16v1h-16z M143,21h5v1h-5z M151,20h3v2h-3z M157,21h2v1h-2z M162,21h18v1h-18z M181,21h3v1h-3z M187,20h3v2h-3z M193,21h9v1h-9z M209,21h8v1h-8z M218,21h9v1h-9z M229,21h24v1h-24z M257,21h8v1h-8z M1,22h7v1h-7z M9,22h8v1h-8z M19,22h6v1h-6z M27,21h3v2h-3z M33,22h15v1h-15z M50,22h4v1h-4z M56,22h17v1h-17z M77,22h11v1h-11z M91,22h8v1h-8z M102,22h9v1h-9z M112,21h4v2h-4z M118,22h4v1h-4z M124,22h16v1h-16z M143,22h4v1h-4z M150,22h4v1h-4z M159,22h6v1h-6z M167,22h13v1h-13z M187,22h4v1h-4z M194,22h7v1h-7z M204,22h2v1h-2z M211,22h11v1h-11z M230,22h7v1h-7z M239,22h13v1h-13z M255,22h10v1h-10z M10,23h7v1h-7z M18,23h7v1h-7z M34,23h9v1h-9z M51,23h3v1h-3z M56,23h18v1h-18z M77,23h10v1h-10z M88,23h12v1h-12z M103,23h13v1h-13z M117,23h4v1h-4z M123,23h17v1h-17z M141,23h5v1h-5z M149,23h5v1h-5z M159,23h4v1h-4z M166,23h4v1h-4z M188,23h3v1h-3z M194,23h6v1h-6z M202,23h4v1h-4z M211,23h10v1h-10z M224,22h3v2h-3z M230,23h5v1h-5z M239,23h11v1h-11z M11,24h5v1h-5z M17,24h8v1h-8z M34,24h8v1h-8z M45,23h4v2h-4z M51,24h4v1h-4z M56,24h19v1h-19z M78,24h22v1h-22z M103,24h4v1h-4z M108,24h12v1h-12z M123,24h3v1h-3z M127,24h11v1h-11z M139,24h1v1h-1z M141,24h4v1h-4z M147,24h7v1h-7z M158,24h5v1h-5z M165,24h5v1h-5z M172,23h3v2h-3z M176,23h4v2h-4z M181,22h4v3h-4z M188,24h4v1h-4z M194,24h5v1h-5z M201,24h5v1h-5z M211,24h9v1h-9z M223,24h4v1h-4z M228,24h5v1h-5z M238,24h11v1h-11z M253,23h12v2h-12z M1,23h6v3h-6z M10,25h10v1h-10z M22,25h3v1h-3z M28,23h3v3h-3z M43,25h7v1h-7z M52,25h3v1h-3z M57,25h18v1h-18z M78,25h23v1h-23z M104,25h3v1h-3z M109,25h10v1h-10z M121,25h5v1h-5z M127,25h10v1h-10z M139,25h5v1h-5z M146,25h4v1h-4z M157,25h5v1h-5z M163,25h5v1h-5z M171,25h4v1h-4z M176,25h10v1h-10z M189,25h9v1h-9z M200,25h4v1h-4z M210,25h9v1h-9z M222,25h10v1h-10z M237,25h12v1h-12z M252,25h5v1h-5z M1,26h7v1h-7z M10,26h9v1h-9z M22,26h4v1h-4z M34,25h6v2h-6z M42,26h8v1h-8z M58,26h18v1h-18z M78,26h19v1h-19z M98,26h4v1h-4z M104,26h4v1h-4z M110,26h8v1h-8z M120,26h5v1h-5z M126,26h5v1h-5z M133,26h4v1h-4z M138,26h4v1h-4z M156,26h11v1h-11z M170,26h17v1h-17z M190,26h7v1h-7z M200,26h3v1h-3z M207,26h11v1h-11z M221,26h10v1h-10z M235,26h4v1h-4z M241,26h6v1h-6z M250,26h5v1h-5z M258,25h7v2h-7z M1,27h18v1h-18z M21,27h5v1h-5z M29,26h3v2h-3z M35,27h5v1h-5z M41,27h4v1h-4z M47,27h3v1h-3z M52,26h4v2h-4z M58,27h4v1h-4z M63,27h14v1h-14z M78,27h15v1h-15z M94,27h3v1h-3z M99,27h3v1h-3z M105,27h3v1h-3z M110,27h6v1h-6z M119,27h12v1h-12z M132,27h3v1h-3z M136,27h6v1h-6z M144,26h6v2h-6z M155,27h4v1h-4z M160,27h6v1h-6z M169,27h18v1h-18z M190,27h6v1h-6z M198,27h4v1h-4z M206,27h6v1h-6z M213,27h4v1h-4z M221,27h9v1h-9z M233,27h4v1h-4z M249,27h4v1h-4z M256,27h9v1h-9z M1,28h17v1h-17z M19,28h7v1h-7z M29,28h4v1h-4z M35,28h9v1h-9z M47,28h4v1h-4z M53,28h4v1h-4z M58,28h19v1h-19z M78,28h5v1h-5z M84,28h9v1h-9z M94,28h4v1h-4z M100,28h3v1h-3z M104,28h5v1h-5z M111,28h5v1h-5z M118,28h12v1h-12z M132,28h8v1h-8z M151,28h14v1h-14z M168,28h15v1h-15z M184,28h4v1h-4z M190,28h11v1h-11z M205,28h6v1h-6z M212,28h4v1h-4z M220,28h9v1h-9z M231,28h6v1h-6z M240,27h5v2h-5z M247,28h7v1h-7z M255,28h10v1h-10z M1,29h16v1h-16z M18,29h9v1h-9z M30,29h13v1h-13z M54,29h3v1h-3z M59,29h8v1h-8z M89,29h10v1h-10z M100,29h9v1h-9z M112,29h4v1h-4z M117,29h13v1h-13z M132,29h7v1h-7z M142,28h8v2h-8z M151,29h12v1h-12z M166,29h17v1h-17z M185,29h8v1h-8z M195,29h5v1h-5z M204,29h6v1h-6z M212,29h3v1h-3z M219,29h17v1h-17z M238,29h27v1h-27z M1,30h9v1h-9z M11,30h5v1h-5z M18,30h4v1h-4z M24,30h3v1h-3z M30,30h12v1h-12z M47,29h5v2h-5z M54,30h4v1h-4z M59,30h6v1h-6z M69,29h8v2h-8z M89,30h20v1h-20z M112,30h18v1h-18z M131,30h8v1h-8z M141,30h4v1h-4z M152,30h10v1h-10z M165,30h20v1h-20z M186,30h7v1h-7z M194,30h5v1h-5z M203,30h7v1h-7z M211,30h4v1h-4z M218,30h6v1h-6z M225,30h9v1h-9z M237,30h21v1h-21z M1,31h8v1h-8z M11,31h4v1h-4z M17,31h5v1h-5z M31,31h11v1h-11z M46,31h7v1h-7z M55,31h10v1h-10z M68,31h4v1h-4z M74,31h3v1h-3z M79,29h9v3h-9z M89,31h23v1h-23z M115,31h22v1h-22z M139,31h6v1h-6z M147,30h3v2h-3z M152,31h9v1h-9z M163,31h14v1h-14z M178,31h13v1h-13z M193,31h6v1h-6z M201,31h13v1h-13z M217,31h7v1h-7z M226,31h21v1h-21z M249,31h8v1h-8z M1,32h7v1h-7z M10,32h4v1h-4z M16,32h7v1h-7z M25,31h3v2h-3z M36,32h5v1h-5z M45,32h8v1h-8z M55,32h8v1h-8z M66,32h6v1h-6z M75,32h2v1h-2z M79,32h33v1h-33z M115,32h20v1h-20z M138,32h7v1h-7z M147,32h4v1h-4z M152,32h25v1h-25z M178,32h12v1h-12z M191,32h15v1h-15z M207,32h5v1h-5z M216,32h9v1h-9z M227,32h20v1h-20z M248,32h9v1h-9z M9,33h4v1h-4z M15,33h9v1h-9z M25,33h4v1h-4z M31,32h4v2h-4z M36,33h4v1h-4z M44,33h10v1h-10z M55,33h6v1h-6z M65,33h7v1h-7z M79,33h25v1h-25z M105,33h13v1h-13z M119,33h6v1h-6z M137,33h8v1h-8z M148,33h25v1h-25z M174,33h32v1h-32z M215,33h6v1h-6z M222,33h3v1h-3z M228,33h30v1h-30z M259,30h6v4h-6z M1,33h6v2h-6z M8,34h4v1h-4z M14,34h5v1h-5z M20,34h9v1h-9z M30,34h8v1h-8z M43,34h17v1h-17z M64,34h4v1h-4z M85,34h40v1h-40z M126,33h8v2h-8z M136,34h6v1h-6z M143,34h3v1h-3z M148,34h9v1h-9z M159,34h13v1h-13z M174,34h9v1h-9z M184,34h11v1h-11z M197,34h9v1h-9z M207,33h4v2h-4z M215,34h5v1h-5z M223,34h2v1h-2z M229,34h8v1h-8z M239,34h15v1h-15z M255,34h3v1h-3z M8,35h3v1h-3z M13,35h6v1h-6z M21,35h17v1h-17z M42,35h5v1h-5z M49,35h10v1h-10z M63,35h3v1h-3z M70,34h3v2h-3z M80,34h3v2h-3z M87,35h12v1h-12z M103,35h22v1h-22z M126,35h3v1h-3z M153,35h19v1h-19z M173,35h11v1h-11z M185,35h8v1h-8z M196,35h5v1h-5z M207,35h3v1h-3z M213,35h13v1h-13z M229,35h9v1h-9z M1,35h5v2h-5z M7,36h3v1h-3z M12,36h7v1h-7z M22,36h15v1h-15z M41,36h6v1h-6z M49,36h9v1h-9z M62,36h3v1h-3z M69,36h4v1h-4z M75,33h3v4h-3z M80,36h4v1h-4z M88,36h10v1h-10z M101,36h28v1h-28z M131,35h15v2h-15z M148,35h4v2h-4z M164,36h20v1h-20z M186,36h7v1h-7z M195,36h5v1h-5z M207,36h4v1h-4z M212,36h15v1h-15z M230,36h8v1h-8z M259,34h7v3h-7z M1,37h9v1h-9z M11,37h10v1h-10z M24,37h12v1h-12z M40,37h7v1h-7z M49,37h8v1h-8z M60,37h5v1h-5z M67,37h6v1h-6z M80,37h5v1h-5z M89,37h9v1h-9z M99,37h30v1h-30z M131,37h7v1h-7z M139,37h8v1h-8z M149,37h3v1h-3z M153,36h9v2h-9z M164,37h22v1h-22z M188,37h12v1h-12z M202,35h4v3h-4z M231,37h8v1h-8z M240,35h13v3h-13z M1,38h14v1h-14z M17,38h5v1h-5z M25,38h11v1h-11z M39,38h9v1h-9z M59,38h4v1h-4z M66,38h7v1h-7z M81,38h5v1h-5z M90,38h23v1h-23z M116,38h13v1h-13z M130,38h10v1h-10z M141,38h11v1h-11z M154,38h8v1h-8z M165,38h16v1h-16z M183,38h4v1h-4z M190,38h10v1h-10z M207,37h21v2h-21z M241,38h11v1h-11z M255,35h2v4h-2z M258,37h7v2h-7z M1,39h15v1h-15z M18,39h5v1h-5z M26,39h9v1h-9z M38,39h5v1h-5z M49,38h6v2h-6z M58,39h4v1h-4z M64,39h10v1h-10z M81,39h6v1h-6z M91,39h24v1h-24z M121,39h8v1h-8z M130,39h11v1h-11z M143,39h9v1h-9z M154,39h4v1h-4z M159,39h4v1h-4z M176,39h5v1h-5z M183,39h5v1h-5z M190,39h6v1h-6z M203,38h3v2h-3z M207,39h16v1h-16z M224,39h6v1h-6z M232,38h7v2h-7z M254,39h3v1h-3z M1,40h16v1h-16z M19,40h6v1h-6z M27,40h7v1h-7z M37,40h6v1h-6z M44,39h4v2h-4z M50,40h4v1h-4z M56,40h5v1h-5z M63,40h11v1h-11z M76,37h3v4h-3z M81,40h8v1h-8z M92,40h25v1h-25z M124,40h5v1h-5z M130,40h4v1h-4z M135,40h7v1h-7z M145,40h7v1h-7z M154,40h3v1h-3z M160,40h3v1h-3z M165,39h10v2h-10z M176,40h6v1h-6z M184,40h5v1h-5z M192,40h4v1h-4z M198,39h2v2h-2z M208,40h7v1h-7z M216,40h2v1h-2z M225,40h11v1h-11z M242,39h10v2h-10z M1,41h17v1h-17z M20,41h5v1h-5z M29,41h5v1h-5z M36,41h7v1h-7z M50,41h10v1h-10z M61,41h13v1h-13z M81,41h9v1h-9z M93,41h11v1h-11z M106,41h16v1h-16z M125,41h4v1h-4z M135,41h8v1h-8z M147,41h5v1h-5z M154,41h4v1h-4z M160,41h4v1h-4z M166,41h8v1h-8z M176,41h7v1h-7z M186,41h4v1h-4z M193,41h8v1h-8z M208,41h5v1h-5z M216,41h3v1h-3z M223,41h12v1h-12z M237,40h3v2h-3z M243,41h9v1h-9z M253,40h4v2h-4z M258,39h8v3h-8z M1,42h18v1h-18z M21,42h5v1h-5z M30,42h4v1h-4z M35,42h8v1h-8z M50,42h8v1h-8z M60,42h14v1h-14z M87,42h4v1h-4z M94,42h8v1h-8z M136,42h8v1h-8z M149,42h2v1h-2z M154,42h11v1h-11z M166,42h4v1h-4z M171,42h13v1h-13z M186,42h5v1h-5z M194,42h7v1h-7z M208,42h25v1h-25z M236,42h5v1h-5z M243,42h8v1h-8z M254,42h11v1h-11z M1,43h20v1h-20z M23,43h5v1h-5z M30,43h9v1h-9z M45,41h4v3h-4z M51,43h6v1h-6z M59,43h16v1h-16z M77,41h3v3h-3z M82,42h3v2h-3z M88,43h4v1h-4z M94,43h7v1h-7z M107,42h22v2h-22z M141,43h5v1h-5z M150,43h1v1h-1z M154,43h25v1h-25z M181,43h4v1h-4z M187,43h5v1h-5z M195,43h6v1h-6z M208,43h19v1h-19z M229,43h3v1h-3z M235,43h6v1h-6z M253,43h12v1h-12z M1,44h13v1h-13z M15,44h7v1h-7z M24,44h5v1h-5z M30,44h8v1h-8z M40,43h4v2h-4z M64,44h12v1h-12z M77,44h4v1h-4z M82,44h5v1h-5z M89,44h12v1h-12z M108,44h21v1h-21z M131,41h3v4h-3z M136,43h3v2h-3z M143,44h8v1h-8z M156,44h15v1h-15z M172,44h7v1h-7z M181,44h5v1h-5z M188,44h5v1h-5z M197,44h5v1h-5z M209,44h10v1h-10z M221,44h5v1h-5z M228,44h4v1h-4z M235,44h7v1h-7z M244,43h8v2h-8z M253,44h8v1h-8z M262,44h3v1h-3z M1,45h10v1h-10z M15,45h8v1h-8z M26,45h12v1h-12z M51,44h12v2h-12z M65,45h22v1h-22z M90,45h12v1h-12z M103,44h3v2h-3z M108,45h22v1h-22z M136,45h4v1h-4z M144,45h8v1h-8z M161,45h10v1h-10z M172,45h6v1h-6z M181,45h6v1h-6z M190,45h3v1h-3z M198,45h4v1h-4z M209,45h5v1h-5z M215,45h2v1h-2z M222,45h9v1h-9z M234,45h8v1h-8z M245,45h15v1h-15z M261,45h5v1h-5z M1,46h9v1h-9z M12,46h12v1h-12z M27,46h10v1h-10z M39,45h5v2h-5z M46,44h3v3h-3z M52,46h11v1h-11z M67,46h14v1h-14z M82,46h6v1h-6z M91,46h6v1h-6z M98,46h9v1h-9z M109,46h21v1h-21z M136,46h6v1h-6z M145,46h7v1h-7z M157,45h2v2h-2z M164,46h14v1h-14z M180,46h8v1h-8z M190,46h5v1h-5z M203,40h4v7h-4z M209,46h22v1h-22z M233,46h9v1h-9z M245,46h12v1h-12z M259,46h7v1h-7z M1,47h6v1h-6z M9,47h8v1h-8z M19,47h7v1h-7z M46,47h4v1h-4z M61,47h4v1h-4z M68,47h13v1h-13z M83,47h14v1h-14z M109,47h3v1h-3z M114,47h16v1h-16z M137,47h5v1h-5z M145,47h8v1h-8z M157,47h4v1h-4z M166,47h17v1h-17z M185,47h4v1h-4z M192,47h4v1h-4z M200,46h2v2h-2z M204,47h4v1h-4z M209,47h21v1h-21z M246,47h9v1h-9z M258,47h8v1h-8z M1,48h5v1h-5z M7,48h8v1h-8z M19,48h8v1h-8z M28,47h9v2h-9z M38,47h6v2h-6z M61,48h5v1h-5z M69,48h12v1h-12z M98,47h10v2h-10z M110,48h3v1h-3z M114,48h17v1h-17z M156,48h8v1h-8z M169,48h13v1h-13z M185,48h5v1h-5z M193,48h3v1h-3z M199,48h3v1h-3z M204,48h19v1h-19z M225,48h4v1h-4z M237,47h6v2h-6z M246,48h8v1h-8z M257,48h9v1h-9z M1,49h36v1h-36z M38,49h7v1h-7z M52,47h6v3h-6z M62,49h5v1h-5z M70,49h12v1h-12z M83,48h13v2h-13z M98,49h11v1h-11z M111,49h6v1h-6z M118,49h13v1h-13z M157,49h10v1h-10z M171,49h1v1h-1z M173,49h8v1h-8z M187,49h4v1h-4z M194,49h2v1h-2z M198,49h4v1h-4z M204,49h14v1h-14z M220,49h4v1h-4z M225,49h3v1h-3z M232,47h3v3h-3z M240,49h3v1h-3z M246,49h7v1h-7z M256,49h4v1h-4z M1,50h7v1h-7z M11,50h34v1h-34z M53,50h7v1h-7z M63,50h5v1h-5z M72,50h24v1h-24z M98,50h12v1h-12z M111,50h5v1h-5z M132,45h3v6h-3z M138,48h15v3h-15z M159,50h10v1h-10z M175,50h5v1h-5z M182,50h1v1h-1z M184,50h1v1h-1z M188,50h4v1h-4z M197,50h6v1h-6z M205,50h8v1h-8z M215,50h3v1h-3z M221,50h6v1h-6z M230,50h3v1h-3z M236,49h1v2h-1z M241,50h2v1h-2z M254,50h6v1h-6z M262,49h3v2h-3z M1,51h6v1h-6z M12,51h7v1h-7z M47,48h3v4h-3z M53,51h8v1h-8z M63,51h8v1h-8z M72,51h6v1h-6z M79,51h17v1h-17z M112,51h4v1h-4z M162,51h10v1h-10z M174,51h5v1h-5z M182,51h3v1h-3z M188,51h5v1h-5z M196,51h7v1h-7z M204,51h8v1h-8z M215,51h4v1h-4z M229,51h4v1h-4z M234,51h4v1h-4z M241,51h1v1h-1z M247,50h3v2h-3z M253,51h4v1h-4z M261,51h5v1h-5z M1,52h5v1h-5z M9,52h9v1h-9z M20,51h11v2h-11z M33,51h3v2h-3z M37,51h8v2h-8z M47,52h4v1h-4z M53,52h18v1h-18z M74,52h22v1h-22z M97,51h8v2h-8z M107,51h3v2h-3z M112,52h3v1h-3z M139,51h11v2h-11z M154,52h4v1h-4z M165,52h13v1h-13z M181,52h3v1h-3z M188,52h25v1h-25z M216,52h3v1h-3z M222,51h4v2h-4z M234,52h3v1h-3z M246,52h3v1h-3z M250,52h6v1h-6z M260,52h6v1h-6z M1,53h4v1h-4z M8,53h6v1h-6z M15,53h3v1h-3z M21,53h10v1h-10z M32,53h13v1h-13z M48,53h3v1h-3z M54,53h11v1h-11z M68,53h5v1h-5z M75,53h11v1h-11z M107,53h4v1h-4z M112,53h4v1h-4z M117,50h4v4h-4z M122,50h9v4h-9z M133,51h3v3h-3z M139,53h10v1h-10z M153,53h6v1h-6z M169,53h7v1h-7z M180,53h4v1h-4z M187,53h10v1h-10z M200,53h13v1h-13z M216,53h4v1h-4z M223,53h4v1h-4z M228,52h4v2h-4z M233,53h4v1h-4z M240,52h3v2h-3z M245,53h9v1h-9z M259,53h7v1h-7z M21,54h9v1h-9z M42,54h4v1h-4z M48,54h4v1h-4z M54,54h10v1h-10z M69,54h17v1h-17z M87,53h9v2h-9z M97,53h9v2h-9z M108,54h3v1h-3z M113,54h7v1h-7z M121,54h11v1h-11z M133,54h4v1h-4z M138,54h5v1h-5z M144,54h4v1h-4z M152,54h11v1h-11z M170,54h6v1h-6z M180,54h3v1h-3z M186,54h10v1h-10z M199,54h7v1h-7z M207,54h6v1h-6z M217,54h4v1h-4z M223,54h8v1h-8z M232,54h5v1h-5z M240,54h13v1h-13z M258,54h8v1h-8z M32,54h8v2h-8z M43,55h3v1h-3z M48,55h12v1h-12z M69,55h27v1h-27z M121,55h22v1h-22z M144,55h3v1h-3z M151,55h3v1h-3z M155,55h12v1h-12z M171,55h4v1h-4z M179,55h3v1h-3z M185,55h11v1h-11z M198,55h5v1h-5z M205,55h5v1h-5z M212,55h3v1h-3z M218,55h4v1h-4z M244,55h8v1h-8z M255,55h11v1h-11z M35,56h6v1h-6z M43,56h13v1h-13z M63,56h4v1h-4z M69,56h11v1h-11z M89,56h6v1h-6z M97,55h10v2h-10z M109,55h3v2h-3z M121,56h25v1h-25z M149,56h26v1h-26z M177,56h3v1h-3z M184,56h18v1h-18z M205,56h3v1h-3z M212,56h4v1h-4z M219,56h3v1h-3z M225,55h13v2h-13z M240,55h3v2h-3z M244,56h6v1h-6z M1,54h13v4h-13z M16,54h3v4h-3z M25,55h5v3h-5z M35,57h18v1h-18z M60,57h18v1h-18z M82,56h5v2h-5z M88,57h7v1h-7z M97,57h15v1h-15z M121,57h6v1h-6z M129,57h16v1h-16z M147,57h27v1h-27z M176,57h3v1h-3z M183,57h18v1h-18z M204,57h3v1h-3z M211,57h6v1h-6z M220,57h3v1h-3z M226,57h12v1h-12z M240,57h9v1h-9z M253,56h13v2h-13z M9,58h5v1h-5z M21,55h3v4h-3z M31,56h3v3h-3z M35,58h14v1h-14z M58,58h15v1h-15z M75,58h3v1h-3z M81,58h14v1h-14z M97,58h16v1h-16z M114,55h6v4h-6z M121,58h4v1h-4z M129,58h15v1h-15z M146,58h10v1h-10z M157,58h7v1h-7z M165,58h8v1h-8z M175,58h4v1h-4z M183,58h17v1h-17z M203,58h3v1h-3z M210,58h8v1h-8z M220,58h4v1h-4z M227,58h11v1h-11z M240,58h10v1h-10z M252,58h14v1h-14z M1,58h7v2h-7z M10,59h4v1h-4z M16,58h2v2h-2z M31,59h16v1h-16z M48,59h1v1h-1z M56,59h17v1h-17z M97,59h8v1h-8z M106,59h8v1h-8z M116,59h4v1h-4z M121,59h3v1h-3z M128,59h16v1h-16z M145,59h6v1h-6z M153,59h3v1h-3z M157,59h6v1h-6z M165,59h9v1h-9z M175,59h2v1h-2z M181,59h18v1h-18z M202,59h3v1h-3z M209,59h9v1h-9z M255,59h11v1h-11z M1,60h13v1h-13z M21,59h2v2h-2z M25,58h4v3h-4z M30,60h32v1h-32z M75,59h19v2h-19z M96,60h10v1h-10z M107,60h7v1h-7z M116,60h8v1h-8z M127,60h24v1h-24z M153,60h10v1h-10z M165,60h11v1h-11z M181,60h17v1h-17z M200,60h4v1h-4z M207,60h12v1h-12z M221,59h4v2h-4z M240,59h13v2h-13z M256,60h10v1h-10z M5,61h9v1h-9z M26,61h2v1h-2z M30,61h28v1h-28z M59,61h5v1h-5z M66,60h7v2h-7z M75,61h20v1h-20z M96,61h28v1h-28z M125,61h26v1h-26z M154,61h3v1h-3z M179,61h23v1h-23z M206,61h8v1h-8z M215,61h4v1h-4z M222,61h4v1h-4z M228,59h9v3h-9z M1,61h3v2h-3z M7,62h7v1h-7z M29,62h25v1h-25z M56,62h9v1h-9z M76,62h19v1h-19z M96,62h33v1h-33z M138,62h14v1h-14z M154,62h4v1h-4z M159,61h4v2h-4z M165,61h4v2h-4z M170,61h5v2h-5z M178,62h24v1h-24z M205,62h9v1h-9z M223,62h4v1h-4z M229,62h8v1h-8z M239,61h14v2h-14z M255,61h11v2h-11z M1,63h4v1h-4z M7,63h6v1h-6z M28,63h9v1h-9z M40,63h25v1h-25z M66,62h8v2h-8z M130,62h4v2h-4z M142,63h10v1h-10z M177,63h5v1h-5z M184,63h17v1h-17z M204,63h10v1h-10z M215,62h5v2h-5z M223,63h5v1h-5z M230,63h7v1h-7z M239,63h9v1h-9z M9,64h4v1h-4z M27,64h5v1h-5z M33,64h4v1h-4z M40,64h30v1h-30z M71,64h4v1h-4z M76,63h11v2h-11z M88,63h6v2h-6z M96,63h32v2h-32z M130,64h7v1h-7z M146,64h7v1h-7z M155,63h4v2h-4z M160,63h3v2h-3z M176,64h7v1h-7z M185,64h5v1h-5z M191,64h9v1h-9z M203,64h18v1h-18z M224,64h5v1h-5z M230,64h8v1h-8z M239,64h3v1h-3z M243,64h6v1h-6z M250,63h16v2h-16z M1,64h5v2h-5z M21,61h3v5h-3z M26,65h6v1h-6z M33,65h5v1h-5z M42,65h28v1h-28z M76,65h6v1h-6z M84,65h10v1h-10z M96,65h33v1h-33z M131,65h8v1h-8z M140,65h3v1h-3z M147,65h1v1h-1z M149,65h4v1h-4z M156,65h3v1h-3z M160,65h4v1h-4z M166,63h3v3h-3z M170,63h4v3h-4z M175,65h8v1h-8z M191,65h8v1h-8z M202,65h19v1h-19z M225,65h13v1h-13z M240,65h2v1h-2z M243,65h7v1h-7z M252,65h14v1h-14z M1,66h6v1h-6z M10,65h4v2h-4z M21,66h11v1h-11z M33,66h6v1h-6z M43,66h27v1h-27z M77,66h5v1h-5z M85,66h9v1h-9z M95,66h20v1h-20z M118,66h11v1h-11z M131,66h14v1h-14z M146,66h2v1h-2z M149,66h5v1h-5z M156,66h8v1h-8z M166,66h18v1h-18z M186,65h4v2h-4z M201,66h21v1h-21z M226,66h11v1h-11z M240,66h3v1h-3z M244,66h7v1h-7z M253,66h13v1h-13z M1,67h7v1h-7z M21,67h20v1h-20z M44,67h22v1h-22z M68,67h2v1h-2z M77,67h6v1h-6z M86,67h29v1h-29z M119,67h10v1h-10z M137,67h17v1h-17z M156,67h22v1h-22z M180,67h4v1h-4z M187,67h3v1h-3z M191,66h7v2h-7z M200,67h18v1h-18z M219,67h4v1h-4z M225,67h6v1h-6z M232,67h6v1h-6z M239,67h12v1h-12z M254,67h12v1h-12z M1,68h8v1h-8z M21,68h13v1h-13z M35,68h7v1h-7z M46,68h6v1h-6z M55,68h10v1h-10z M67,68h4v1h-4z M77,68h7v1h-7z M87,68h21v1h-21z M111,68h5v1h-5z M121,68h8v1h-8z M131,67h3v2h-3z M142,68h13v1h-13z M170,68h9v1h-9z M187,68h17v1h-17z M205,68h13v1h-13z M219,68h11v1h-11z M233,68h5v1h-5z M248,68h4v1h-4z M255,68h6v1h-6z M1,69h3v1h-3z M6,69h4v1h-4z M11,67h3v3h-3z M16,60h3v10h-3z M20,69h5v1h-5z M27,69h16v1h-16z M47,69h5v1h-5z M54,69h10v1h-10z M66,69h5v1h-5z M72,65h3v5h-3z M77,69h8v1h-8z M88,69h18v1h-18z M112,69h5v1h-5z M122,69h7v1h-7z M131,69h4v1h-4z M147,69h8v1h-8z M157,68h12v2h-12z M170,69h10v1h-10z M181,68h4v2h-4z M188,69h16v1h-16z M205,69h23v1h-23z M231,69h7v1h-7z M239,68h8v2h-8z M249,69h4v1h-4z M256,69h5v1h-5z M1,70h4v1h-4z M7,70h6v1h-6z M16,70h8v1h-8z M26,70h19v1h-19z M49,70h3v1h-3z M53,70h19v1h-19z M77,70h3v1h-3z M82,70h5v1h-5z M89,70h15v1h-15z M109,70h10v1h-10z M123,70h6v1h-6z M131,70h5v1h-5z M158,70h11v1h-11z M170,70h16v1h-16z M188,70h12v1h-12z M201,70h4v1h-4z M206,70h8v1h-8z M215,70h11v1h-11z M230,70h12v1h-12z M250,70h3v1h-3z M257,70h4v1h-4z M262,68h4v3h-4z M16,71h7v1h-7z M26,71h21v1h-21z M51,71h20v1h-20z M73,70h3v2h-3z M83,71h5v1h-5z M90,71h12v1h-12z M107,71h6v1h-6z M115,71h6v1h-6z M125,71h16v1h-16z M159,71h27v1h-27z M189,71h10v1h-10z M202,71h3v1h-3z M207,71h6v1h-6z M215,71h10v1h-10z M226,71h16v1h-16z M243,70h4v2h-4z M251,71h4v1h-4z M258,71h8v1h-8z M1,71h11v2h-11z M16,72h6v1h-6z M25,72h12v1h-12z M39,72h10v1h-10z M50,72h5v1h-5z M56,72h5v1h-5z M63,72h4v1h-4z M69,72h2v1h-2z M72,72h4v1h-4z M77,71h4v2h-4z M84,72h5v1h-5z M91,72h9v1h-9z M103,72h10v1h-10z M117,72h6v1h-6z M126,72h19v1h-19z M149,70h7v3h-7z M160,72h27v1h-27z M190,72h9v1h-9z M202,72h4v1h-4z M207,72h25v1h-25z M234,72h14v1h-14z M252,72h4v1h-4z M259,72h7v1h-7z M1,73h12v1h-12z M15,73h6v1h-6z M22,73h15v1h-15z M39,73h15v1h-15z M55,73h12v1h-12z M70,73h12v1h-12z M85,73h4v1h-4z M92,73h7v1h-7z M102,73h13v1h-13z M119,73h5v1h-5z M128,73h7v1h-7z M137,73h14v1h-14z M153,73h4v1h-4z M178,73h9v1h-9z M191,73h9v1h-9z M202,73h30v1h-30z M235,73h14v1h-14z M252,73h5v1h-5z M262,73h3v1h-3z M1,74h18v1h-18z M21,74h17v1h-17z M45,74h38v1h-38z M86,74h5v1h-5z M93,74h7v1h-7z M101,74h15v1h-15z M120,74h6v1h-6z M129,74h6v1h-6z M138,74h20v1h-20z M160,73h14v2h-14z M185,74h3v1h-3z M191,74h10v1h-10z M203,74h4v1h-4z M208,74h25v1h-25z M235,74h16v1h-16z M254,74h4v1h-4z M5,75h13v1h-13z M19,75h12v1h-12z M45,75h39v1h-39z M88,75h4v1h-4z M94,75h12v1h-12z M108,75h2v1h-2z M112,75h5v1h-5z M122,75h5v1h-5z M130,75h5v1h-5z M137,75h38v1h-38z M192,75h10v1h-10z M203,75h35v1h-35z M239,75h12v1h-12z M255,75h4v1h-4z M2,75h2v2h-2z M16,76h15v1h-15z M35,75h3v2h-3z M40,74h3v3h-3z M45,76h5v1h-5z M69,76h1v1h-1z M76,76h9v1h-9z M89,76h5v1h-5z M95,76h11v1h-11z M112,76h7v1h-7z M123,76h6v1h-6z M132,76h14v1h-14z M147,76h14v1h-14z M162,76h17v1h-17z M186,75h3v2h-3z M210,76h8v1h-8z M220,76h18v1h-18z M239,76h13v1h-13z M256,76h4v1h-4z M263,74h2v3h-2z M2,77h3v1h-3z M6,76h6v2h-6z M35,77h4v1h-4z M40,77h10v1h-10z M51,76h16v2h-16z M76,77h10v1h-10z M90,77h4v1h-4z M96,77h10v1h-10z M107,76h3v2h-3z M112,77h9v1h-9z M124,77h6v1h-6z M133,77h50v1h-50z M185,77h4v1h-4z M192,76h17v2h-17z M211,77h7v1h-7z M220,77h34v1h-34z M257,77h4v1h-4z M262,77h3v1h-3z M1,78h6v1h-6z M8,78h5v1h-5z M16,77h11v2h-11z M41,78h20v1h-20z M63,78h24v1h-24z M91,78h4v1h-4z M96,78h9v1h-9z M112,78h11v1h-11z M126,78h6v1h-6z M135,78h15v1h-15z M156,78h33v1h-33z M191,78h19v1h-19z M211,78h24v1h-24z M237,78h4v1h-4z M242,78h13v1h-13z M258,78h3v1h-3z M6,79h1v1h-1z M9,79h18v1h-18z M30,77h3v3h-3z M36,78h3v2h-3z M47,79h14v1h-14z M63,79h19v1h-19z M83,79h5v1h-5z M92,79h5v1h-5z M101,79h4v1h-4z M106,78h4v2h-4z M112,79h12v1h-12z M129,79h4v1h-4z M137,79h13v1h-13z M157,79h8v1h-8z M166,79h7v1h-7z M178,79h10v1h-10z M191,79h3v1h-3z M195,79h16v1h-16z M212,79h15v1h-15z M228,79h6v1h-6z M236,79h4v1h-4z M241,79h4v1h-4z M251,79h4v1h-4z M9,80h9v1h-9z M42,79h3v2h-3z M47,80h15v1h-15z M63,80h12v1h-12z M76,80h1v1h-1z M79,80h10v1h-10z M94,80h3v1h-3z M107,80h18v1h-18z M130,80h5v1h-5z M136,80h14v1h-14z M156,80h8v1h-8z M166,80h9v1h-9z M183,80h10v1h-10z M196,80h9v1h-9z M207,80h5v1h-5z M213,80h13v1h-13z M247,79h3v2h-3z M251,80h6v1h-6z M263,78h3v3h-3z M1,79h4v3h-4z M7,81h10v1h-10z M19,80h8v2h-8z M37,80h3v2h-3z M42,81h4v1h-4z M47,81h20v1h-20z M80,81h11v1h-11z M106,81h20v1h-20z M145,81h5v1h-5z M156,81h6v1h-6z M164,81h14v1h-14z M185,81h7v1h-7z M195,81h10v1h-10z M228,80h5v2h-5z M235,80h10v2h-10z M247,81h11v1h-11z M261,81h5v1h-5z M1,82h16v1h-16z M37,82h4v1h-4z M43,82h3v1h-3z M47,82h13v1h-13z M61,82h6v1h-6z M77,82h14v1h-14z M111,82h17v1h-17z M136,81h7v2h-7z M156,82h5v1h-5z M163,82h19v1h-19z M185,82h6v1h-6z M194,82h12v1h-12z M208,81h18v2h-18z M247,82h12v1h-12z M260,82h6v1h-6z M1,83h9v1h-9z M12,83h5v1h-5z M19,82h3v2h-3z M24,82h3v2h-3z M29,80h5v4h-5z M48,83h8v1h-8z M57,83h3v1h-3z M61,83h25v1h-25z M87,83h4v1h-4z M111,83h18v1h-18z M136,83h8v1h-8z M146,82h4v2h-4z M151,78h3v6h-3z M155,83h5v1h-5z M162,83h9v1h-9z M173,83h17v1h-17z M193,83h14v1h-14z M209,83h8v1h-8z M218,83h9v1h-9z M1,84h8v1h-8z M11,84h5v1h-5z M20,84h2v1h-2z M29,84h6v1h-6z M38,83h3v2h-3z M57,84h29v1h-29z M87,84h5v1h-5z M96,84h2v1h-2z M101,80h3v5h-3z M106,82h3v3h-3z M110,84h19v1h-19z M135,84h10v1h-10z M146,84h8v1h-8z M160,84h12v1h-12z M177,84h13v1h-13z M191,84h16v1h-16z M218,84h4v1h-4z M223,84h4v1h-4z M247,83h5v2h-5z M1,85h15v1h-15z M23,84h4v2h-4z M28,85h8v1h-8z M43,83h4v3h-4z M48,84h7v2h-7z M57,85h22v1h-22z M82,85h3v1h-3z M87,85h7v1h-7z M101,85h28v1h-28z M135,85h14v1h-14z M150,85h4v1h-4z M155,84h4v2h-4z M160,85h6v1h-6z M167,85h7v1h-7z M180,85h28v1h-28z M210,84h5v2h-5z M217,85h5v1h-5z M248,85h4v1h-4z M253,83h13v3h-13z M1,86h16v1h-16z M19,85h3v2h-3z M23,86h8v1h-8z M32,86h4v1h-4z M38,85h4v2h-4z M43,86h12v1h-12z M56,86h15v1h-15z M72,86h6v1h-6z M86,86h4v1h-4z M91,86h3v1h-3z M96,85h3v2h-3z M101,86h27v1h-27z M131,81h3v6h-3z M135,86h18v1h-18z M168,86h9v1h-9z M185,86h24v1h-24z M210,86h4v1h-4z M216,86h6v1h-6z M228,82h18v5h-18z M256,86h5v1h-5z M263,86h3v1h-3z M1,87h25v1h-25z M27,87h4v1h-4z M32,87h5v1h-5z M44,87h11v1h-11z M56,87h10v1h-10z M82,86h2v2h-2z M97,87h2v1h-2z M109,87h17v1h-17z M130,87h4v1h-4z M143,87h10v1h-10z M155,86h11v2h-11z M169,87h15v1h-15z M186,87h28v1h-28z M215,87h8v1h-8z M248,86h7v2h-7z M262,87h4v1h-4z M13,88h13v1h-13z M27,88h10v1h-10z M39,87h4v2h-4z M44,88h10v1h-10z M56,88h11v1h-11z M68,87h3v2h-3z M74,87h5v2h-5z M81,88h3v1h-3z M86,87h9v2h-9z M109,88h9v1h-9z M120,88h5v1h-5z M129,88h5v1h-5z M135,87h7v2h-7z M145,88h8v1h-8z M154,88h8v1h-8z M163,88h4v1h-4z M170,88h42v1h-42z M214,88h9v1h-9z M248,88h6v1h-6z M256,87h4v2h-4z M1,88h11v2h-11z M15,89h6v1h-6z M22,89h15v1h-15z M40,89h9v1h-9z M51,89h3v1h-3z M56,89h3v1h-3z M81,89h2v1h-2z M97,88h3v2h-3z M109,89h8v1h-8z M120,89h4v1h-4z M127,89h16v1h-16z M147,89h15v1h-15z M170,89h26v1h-26z M197,89h14v1h-14z M214,89h3v1h-3z M224,85h3v5h-3z M229,87h18v3h-18z M249,89h5v1h-5z M255,89h4v1h-4z M10,90h3v1h-3z M16,90h5v1h-5z M22,90h8v1h-8z M31,90h6v1h-6z M40,90h8v1h-8z M52,90h1v1h-1z M60,89h7v2h-7z M69,89h3v2h-3z M75,89h4v2h-4z M80,90h3v1h-3z M85,89h10v2h-10z M102,87h6v4h-6z M109,90h9v1h-9z M119,90h4v1h-4z M125,90h20v1h-20z M148,90h5v1h-5z M154,90h9v1h-9z M164,89h4v2h-4z M171,90h40v1h-40z M214,90h2v1h-2z M219,89h4v2h-4z M224,90h4v1h-4z M229,90h6v1h-6z M237,90h10v1h-10z M249,90h4v1h-4z M255,90h3v1h-3z M261,88h5v3h-5z M1,90h6v2h-6z M10,91h4v1h-4z M22,91h12v1h-12z M41,91h5v1h-5z M51,91h2v1h-2z M65,91h3v1h-3z M69,91h4v1h-4z M84,91h12v1h-12z M108,91h13v1h-13z M124,91h9v1h-9z M134,91h14v1h-14z M153,91h10v1h-10z M165,91h4v1h-4z M172,91h30v1h-30z M203,91h7v1h-7z M212,91h4v1h-4z M218,91h5v1h-5z M230,91h5v1h-5z M238,91h9v1h-9z M249,91h9v1h-9z M260,91h6v1h-6z M1,92h7v1h-7z M11,92h4v1h-4z M22,92h3v1h-3z M30,92h4v1h-4z M38,92h5v1h-5z M50,92h3v1h-3z M55,90h4v3h-4z M66,92h2v1h-2z M76,91h7v2h-7z M84,92h8v1h-8z M93,92h3v1h-3z M108,92h12v1h-12z M123,92h10v1h-10z M134,92h15v1h-15z M150,91h1v2h-1z M154,92h10v1h-10z M166,92h4v1h-4z M172,92h6v1h-6z M183,92h26v1h-26z M212,92h3v1h-3z M217,92h5v1h-5z M230,92h6v1h-6z M239,92h8v1h-8z M249,92h8v1h-8z M1,93h8v1h-8z M12,93h3v1h-3z M17,91h3v3h-3z M21,93h4v1h-4z M26,92h3v2h-3z M30,93h5v1h-5z M36,93h5v1h-5z M47,93h6v1h-6z M55,93h3v1h-3z M60,91h3v3h-3z M66,93h3v1h-3z M70,92h3v2h-3z M76,93h6v1h-6z M98,90h2v4h-2z M103,91h4v3h-4z M108,93h10v1h-10z M122,93h10v1h-10z M134,93h6v1h-6z M142,93h9v1h-9z M155,93h1v1h-1z M157,93h8v1h-8z M167,93h3v1h-3z M173,93h5v1h-5z M179,92h3v2h-3z M184,93h2v1h-2z M187,93h21v1h-21z M211,93h4v1h-4z M225,91h3v3h-3z M231,93h6v1h-6z M249,93h7v1h-7z M259,92h6v2h-6z M1,94h3v1h-3z M6,94h4v1h-4z M12,94h13v1h-13z M26,94h2v1h-2z M30,94h9v1h-9z M47,94h5v1h-5z M59,94h4v1h-4z M77,94h5v1h-5z M84,93h7v2h-7z M94,93h1v2h-1z M108,94h4v1h-4z M113,94h4v1h-4z M120,94h12v1h-12z M133,94h7v1h-7z M141,94h11v1h-11z M154,94h2v1h-2z M158,94h8v1h-8z M167,94h4v1h-4z M173,94h9v1h-9z M204,94h4v1h-4z M211,94h3v1h-3z M216,93h7v2h-7z M234,94h4v1h-4z M240,93h8v2h-8z M258,94h7v1h-7z M13,95h7v1h-7z M30,95h7v1h-7z M44,95h3v1h-3z M48,95h4v1h-4z M55,94h2v2h-2z M59,95h5v1h-5z M66,94h8v2h-8z M103,94h3v2h-3z M107,95h9v1h-9z M119,95h5v1h-5z M126,95h6v1h-6z M133,95h12v1h-12z M147,95h9v1h-9z M158,95h3v1h-3z M162,95h4v1h-4z M168,95h4v1h-4z M174,95h8v1h-8z M204,95h3v1h-3z M210,95h3v1h-3z M215,95h8v1h-8z M226,94h2v2h-2z M235,95h4v1h-4z M241,95h7v1h-7z M250,94h6v2h-6z M258,95h8v1h-8z M2,95h3v2h-3z M7,95h4v2h-4z M13,96h6v1h-6z M30,96h4v1h-4z M41,96h4v1h-4z M78,95h4v2h-4z M84,95h8v2h-8z M94,95h2v2h-2z M103,96h13v1h-13z M118,96h6v1h-6z M134,96h10v1h-10z M146,96h10v1h-10z M169,96h3v1h-3z M175,96h7v1h-7z M204,96h4v1h-4z M209,96h3v1h-3z M214,96h9v1h-9z M229,96h4v1h-4z M235,96h5v1h-5z M243,96h6v1h-6z M251,96h3v1h-3z M257,96h9v1h-9z M2,97h4v1h-4z M8,97h4v1h-4z M14,97h5v1h-5z M21,95h7v3h-7z M39,97h5v1h-5z M49,96h3v2h-3z M59,96h11v2h-11z M72,96h3v2h-3z M79,97h3v1h-3z M83,97h9v1h-9z M94,97h3v1h-3z M98,94h3v4h-3z M103,97h8v1h-8z M112,97h3v1h-3z M117,97h8v1h-8z M127,96h5v2h-5z M145,97h11v1h-11z M162,96h5v2h-5z M175,97h8v1h-8z M184,94h19v4h-19z M204,97h7v1h-7z M213,97h11v1h-11z M226,97h15v1h-15z M244,97h10v1h-10z M256,97h3v1h-3z M1,98h5v1h-5z M15,98h3v1h-3z M21,98h6v1h-6z M30,97h3v2h-3z M36,98h6v1h-6z M47,98h5v1h-5z M54,96h3v3h-3z M58,98h18v1h-18z M94,98h2v1h-2z M104,98h6v1h-6z M112,98h13v1h-13z M128,98h4v1h-4z M133,97h10v2h-10z M144,98h11v1h-11z M162,98h6v1h-6z M170,97h3v2h-3z M176,98h27v1h-27z M204,98h6v1h-6z M213,98h23v1h-23z M237,98h4v1h-4z M245,98h8v1h-8z M255,98h4v1h-4z M2,99h5v1h-5z M9,98h4v2h-4z M30,99h9v1h-9z M46,99h6v1h-6z M58,99h8v1h-8z M67,99h9v1h-9z M79,98h13v2h-13z M99,98h2v2h-2z M104,99h4v1h-4z M112,99h9v1h-9z M122,99h4v1h-4z M128,99h27v1h-27z M162,99h7v1h-7z M171,99h3v1h-3z M178,99h5v1h-5z M184,99h25v1h-25z M212,99h4v1h-4z M221,99h22v1h-22z M246,99h7v1h-7z M254,99h5v1h-5z M261,97h5v3h-5z M2,100h6v1h-6z M20,99h3v2h-3z M24,99h3v2h-3z M29,100h8v1h-8z M43,100h9v1h-9z M53,99h4v2h-4z M58,100h19v1h-19z M105,100h2v1h-2z M111,100h10v1h-10z M123,100h3v1h-3z M129,100h26v1h-26z M171,100h4v1h-4z M179,100h4v1h-4z M184,100h20v1h-20z M205,100h4v1h-4z M211,100h4v1h-4z M218,100h7v1h-7z M226,100h2v1h-2z M233,100h11v1h-11z M247,100h6v1h-6z M254,100h6v1h-6z M1,101h8v1h-8z M10,100h4v2h-4z M20,101h2v1h-2z M29,101h6v1h-6z M40,101h11v1h-11z M80,100h12v2h-12z M95,99h2v3h-2z M99,100h3v2h-3z M110,101h11v1h-11z M123,101h4v1h-4z M129,101h10v1h-10z M162,100h8v2h-8z M172,101h5v1h-5z M180,101h3v1h-3z M184,101h9v1h-9z M195,101h14v1h-14z M210,101h14v1h-14z M227,101h2v1h-2z M230,100h1v2h-1z M234,101h5v1h-5z M240,101h5v1h-5z M248,101h13v1h-13z M1,102h14v1h-14z M25,101h2v2h-2z M29,102h4v1h-4z M39,102h12v1h-12z M53,101h25v2h-25z M79,102h10v1h-10z M91,102h1v1h-1z M99,102h4v1h-4z M109,102h4v1h-4z M114,102h8v1h-8z M124,102h3v1h-3z M130,102h9v1h-9z M140,101h10v2h-10z M162,102h9v1h-9z M172,102h6v1h-6z M179,102h4v1h-4z M184,102h10v1h-10z M195,102h9v1h-9z M226,102h7v1h-7z M235,102h4v1h-4z M241,102h5v1h-5z M249,102h7v1h-7z M7,103h10v1h-10z M18,103h1v1h-1z M25,103h3v1h-3z M29,103h2v1h-2z M36,103h9v1h-9z M46,103h4v1h-4z M52,103h15v1h-15z M71,103h17v1h-17z M90,103h2v1h-2z M98,103h14v1h-14z M131,103h3v1h-3z M135,103h8v1h-8z M144,103h6v1h-6z M162,103h4v1h-4z M167,103h27v1h-27z M197,103h7v1h-7z M205,102h17v2h-17z M223,103h11v1h-11z M242,103h5v1h-5z M258,102h3v2h-3z M262,100h4v4h-4z M7,104h12v1h-12z M25,104h4v1h-4z M34,104h11v1h-11z M46,104h5v1h-5z M52,104h14v1h-14z M71,104h9v1h-9z M82,104h12v1h-12z M97,104h14v1h-14z M114,103h9v2h-9z M125,103h3v2h-3z M131,104h18v1h-18z M157,96h3v9h-3z M162,104h3v1h-3z M168,104h28v1h-28z M198,104h36v1h-36z M235,103h5v2h-5z M244,104h4v1h-4z M250,103h6v2h-6z M8,105h10v1h-10z M21,105h2v1h-2z M25,105h5v1h-5z M32,105h8v1h-8z M42,105h3v1h-3z M47,105h21v1h-21z M72,105h7v1h-7z M82,105h29v1h-29z M113,105h11v1h-11z M126,105h3v1h-3z M132,105h9v1h-9z M142,105h7v1h-7z M152,101h3v5h-3z M157,105h2v1h-2z M161,105h4v1h-4z M168,105h29v1h-29z M200,105h12v1h-12z M213,105h2v1h-2z M216,105h12v1h-12z M231,105h3v1h-3z M235,105h6v1h-6z M245,105h4v1h-4z M250,105h7v1h-7z M9,106h7v1h-7z M19,106h4v1h-4z M26,106h14v1h-14z M42,106h4v1h-4z M47,106h7v1h-7z M55,106h6v1h-6z M62,106h7v1h-7z M73,106h5v1h-5z M81,106h19v1h-19z M102,106h2v1h-2z M105,106h5v1h-5z M113,106h3v1h-3z M117,106h7v1h-7z M132,106h13v1h-13z M146,106h4v1h-4z M152,106h7v1h-7z M167,106h25v1h-25z M193,106h5v1h-5z M200,106h11v1h-11z M213,106h14v1h-14z M230,106h3v1h-3z M240,106h2v1h-2z M246,106h11v1h-11z M259,104h7v3h-7z M9,107h6v1h-6z M18,107h4v1h-4z M27,107h13v1h-13z M43,107h4v1h-4z M48,107h12v1h-12z M61,107h9v1h-9z M73,107h3v1h-3z M80,107h5v1h-5z M87,107h23v1h-23z M112,107h3v1h-3z M116,107h9v1h-9z M127,106h3v2h-3z M133,107h3v1h-3z M137,107h8v1h-8z M147,107h3v1h-3z M152,107h3v1h-3z M161,106h3v2h-3z M166,107h26v1h-26z M195,107h5v1h-5z M202,107h25v1h-25z M235,106h3v2h-3z M247,107h11v1h-11z M260,107h6v1h-6z M2,103h2v6h-2z M8,108h6v1h-6z M17,108h7v1h-7z M28,108h8v1h-8z M37,108h4v1h-4z M49,108h9v1h-9z M60,108h10v1h-10z M72,108h3v1h-3z M79,108h5v1h-5z M87,108h22v1h-22z M111,108h4v1h-4z M116,108h4v1h-4z M122,108h3v1h-3z M127,108h4v1h-4z M133,108h4v1h-4z M138,108h7v1h-7z M147,108h8v1h-8z M156,107h3v2h-3z M161,108h32v1h-32z M196,108h5v1h-5z M202,108h16v1h-16z M219,108h8v1h-8z M230,107h2v2h-2z M248,108h4v1h-4z M254,108h4v1h-4z M261,108h5v1h-5z M2,109h3v1h-3z M8,109h3v1h-3z M15,109h4v1h-4z M21,109h5v1h-5z M29,109h7v1h-7z M38,109h3v1h-3z M44,108h3v2h-3z M50,109h16v1h-16z M68,109h6v1h-6z M79,109h4v1h-4z M84,109h17v1h-17z M104,109h4v1h-4z M111,109h3v1h-3z M128,109h3v1h-3z M134,109h21v1h-21z M167,109h6v1h-6z M174,109h19v1h-19z M197,109h21v1h-21z M219,109h7v1h-7z M229,109h2v1h-2z M234,108h4v2h-4z M244,109h8v1h-8z M261,109h4v1h-4z M2,110h8v1h-8z M14,110h4v1h-4z M20,110h7v1h-7z M31,110h5v1h-5z M39,110h3v1h-3z M45,110h3v1h-3z M67,110h6v1h-6z M78,110h3v1h-3z M84,110h7v1h-7z M97,110h3v1h-3z M103,110h5v1h-5z M110,110h4v1h-4z M115,109h5v2h-5z M128,110h4v1h-4z M134,110h13v1h-13z M148,110h7v1h-7z M157,109h2v2h-2z M161,109h5v2h-5z M168,110h6v1h-6z M175,110h19v1h-19z M198,110h28v1h-28z M228,110h3v1h-3z M233,110h5v1h-5z M244,110h9v1h-9z M254,109h5v2h-5z M2,111h7v1h-7z M13,111h16v1h-16z M32,111h5v1h-5z M45,111h4v1h-4z M51,110h15v2h-15z M67,111h5v1h-5z M76,111h3v1h-3z M83,111h4v1h-4z M96,111h3v1h-3z M101,111h6v1h-6z M109,111h4v1h-4z M114,111h6v1h-6z M122,109h4v3h-4z M129,111h3v1h-3z M134,111h14v1h-14z M149,111h6v1h-6z M161,111h4v1h-4z M167,111h23v1h-23z M191,111h4v1h-4z M199,111h15v1h-15z M215,111h16v1h-16z M232,111h6v1h-6z M262,110h4v2h-4z M2,112h6v1h-6z M10,112h13v1h-13z M26,112h5v1h-5z M33,112h3v1h-3z M40,111h3v2h-3z M46,112h3v1h-3z M63,112h8v1h-8z M75,112h3v1h-3z M82,112h4v1h-4z M87,112h2v1h-2z M90,112h17v1h-17z M108,112h4v1h-4z M113,112h7v1h-7z M121,112h5v1h-5z M130,112h18v1h-18z M161,112h29v1h-29z M192,112h3v1h-3z M201,112h37v1h-37z M244,111h16v2h-16z M263,112h3v1h-3z M2,113h5v1h-5z M9,113h16v1h-16z M27,113h9v1h-9z M52,112h9v2h-9z M63,113h3v1h-3z M73,113h5v1h-5z M81,113h25v1h-25z M112,113h8v1h-8z M130,113h19v1h-19z M151,112h4v2h-4z M156,111h3v3h-3z M161,113h22v1h-22z M185,113h4v1h-4z M193,113h4v1h-4z M202,113h6v1h-6z M210,113h4v1h-4z M215,113h7v1h-7z M225,113h13v1h-13z M240,111h2v3h-2z M244,113h17v1h-17z M2,114h3v1h-3z M8,114h18v1h-18z M29,114h7v1h-7z M39,113h5v2h-5z M47,113h3v2h-3z M53,114h7v1h-7z M72,114h4v1h-4z M79,114h6v1h-6z M86,114h19v1h-19z M107,113h4v2h-4z M112,114h4v1h-4z M121,113h6v2h-6z M130,114h4v1h-4z M146,114h4v1h-4z M151,114h8v1h-8z M161,114h11v1h-11z M176,114h11v1h-11z M194,114h3v1h-3z M203,114h5v1h-5z M226,114h12v1h-12z M252,114h9v1h-9z M2,115h16v1h-16z M19,115h8v1h-8z M39,115h6v1h-6z M48,115h3v1h-3z M67,113h3v3h-3z M71,115h4v1h-4z M106,115h10v1h-10z M121,115h4v1h-4z M126,115h8v1h-8z M137,114h7v2h-7z M147,115h3v1h-3z M152,115h7v1h-7z M161,115h12v1h-12z M179,115h9v1h-9z M194,115h5v1h-5z M204,115h4v1h-4z M210,114h3v2h-3z M215,114h8v2h-8z M227,115h6v1h-6z M239,114h3v2h-3z M244,114h4v2h-4z M255,115h7v1h-7z M263,113h2v3h-2z M19,116h10v1h-10z M31,115h5v2h-5z M39,116h7v1h-7z M48,116h4v1h-4z M54,115h6v2h-6z M62,114h3v3h-3z M67,116h7v1h-7z M78,115h6v2h-6z M86,115h18v2h-18z M105,116h10v1h-10z M117,114h3v3h-3z M121,116h11v1h-11z M135,116h10v1h-10z M153,116h5v1h-5z M161,116h14v1h-14z M181,116h8v1h-8z M193,116h7v1h-7z M203,116h5v1h-5z M209,116h4v1h-4z M216,116h8v1h-8z M228,116h5v1h-5z M240,116h2v1h-2z M244,116h5v1h-5z M257,116h8v1h-8z M2,116h15v2h-15z M19,117h2v1h-2z M24,117h7v1h-7z M32,117h4v1h-4z M49,117h3v1h-3z M55,117h5v1h-5z M61,117h4v1h-4z M66,117h7v1h-7z M77,117h38v1h-38z M117,117h13v1h-13z M134,117h5v1h-5z M147,116h4v2h-4z M154,117h4v1h-4z M161,117h15v1h-15z M185,117h6v1h-6z M192,117h4v1h-4z M198,117h9v1h-9z M208,117h6v1h-6z M216,117h9v1h-9z M229,117h4v1h-4z M235,115h3v3h-3z M244,117h8v1h-8z M8,118h13v1h-13z M50,118h3v1h-3z M55,118h10v1h-10z M66,118h6v1h-6z M76,118h3v1h-3z M80,118h12v1h-12z M94,118h21v1h-21z M117,118h12v1h-12z M133,118h4v1h-4z M141,117h5v2h-5z M148,118h4v1h-4z M155,118h3v1h-3z M160,118h9v1h-9z M171,118h9v1h-9z M198,118h8v1h-8z M220,118h6v1h-6z M229,118h9v1h-9z M245,118h10v1h-10z M259,117h7v2h-7z M2,118h4v2h-4z M7,119h6v1h-6z M23,118h13v2h-13z M39,117h3v3h-3z M43,117h4v3h-4z M50,119h5v1h-5z M66,119h5v1h-5z M74,119h5v1h-5z M81,119h12v1h-12z M94,119h22v1h-22z M117,119h3v1h-3z M121,119h6v1h-6z M131,119h5v1h-5z M139,119h8v1h-8z M149,119h4v1h-4z M155,119h4v1h-4z M160,119h5v1h-5z M167,119h2v1h-2z M171,119h13v1h-13z M188,118h8v2h-8z M199,119h7v1h-7z M207,118h7v2h-7z M215,118h4v2h-4z M220,119h8v1h-8z M231,119h7v1h-7z M239,117h4v3h-4z M22,120h14v1h-14z M39,120h2v1h-2z M43,120h6v1h-6z M66,120h4v1h-4z M73,120h6v1h-6z M80,120h13v1h-13z M95,120h4v1h-4z M130,120h5v1h-5z M138,120h10v1h-10z M150,120h4v1h-4z M156,120h9v1h-9z M167,120h3v1h-3z M171,120h22v1h-22z M194,120h2v1h-2z M199,120h15v1h-15z M216,120h13v1h-13z M231,120h12v1h-12z M245,119h21v2h-21z M2,120h11v2h-11z M22,121h3v1h-3z M26,121h10v1h-10z M38,121h11v1h-11z M51,120h4v2h-4z M56,119h9v3h-9z M71,121h22v1h-22z M96,121h3v1h-3z M100,120h20v2h-20z M129,121h4v1h-4z M137,121h6v1h-6z M144,121h5v1h-5z M151,121h3v1h-3z M157,121h9v1h-9z M194,121h3v1h-3z M199,121h5v1h-5z M226,121h4v1h-4z M233,121h10v1h-10z M244,121h22v1h-22z M15,119h5v4h-5z M26,122h4v1h-4z M38,122h27v1h-27z M66,121h3v2h-3z M71,122h5v1h-5z M84,122h9v1h-9z M96,122h9v1h-9z M110,122h10v1h-10z M122,120h3v3h-3z M127,122h4v1h-4z M136,122h14v1h-14z M158,122h8v1h-8z M168,121h24v2h-24z M194,122h9v1h-9z M205,121h9v2h-9z M216,121h8v2h-8z M227,122h3v1h-3z M244,122h14v1h-14z M261,122h5v1h-5z M10,122h3v2h-3z M22,122h2v2h-2z M38,123h26v1h-26z M66,123h10v1h-10z M97,123h3v1h-3z M101,123h5v1h-5z M110,123h1v1h-1z M122,123h7v1h-7z M135,123h15v1h-15z M151,122h4v2h-4z M168,123h3v1h-3z M173,123h29v1h-29z M203,123h11v1h-11z M228,123h3v1h-3z M234,122h4v2h-4z M244,123h13v1h-13z M10,124h4v1h-4z M16,123h3v2h-3z M21,124h3v1h-3z M26,123h3v2h-3z M31,122h5v3h-5z M38,124h13v1h-13z M65,124h11v1h-11z M77,122h6v3h-6z M84,123h10v2h-10z M97,124h12v1h-12z M110,124h4v1h-4z M122,124h6v1h-6z M133,124h18v1h-18z M152,124h4v1h-4z M159,123h8v2h-8z M168,124h4v1h-4z M173,124h15v1h-15z M190,124h11v1h-11z M202,124h5v1h-5z M216,123h9v2h-9z M229,124h3v1h-3z M235,124h3v1h-3z M244,124h15v1h-15z M262,123h4v2h-4z M11,125h3v1h-3z M16,125h7v1h-7z M38,125h12v1h-12z M52,124h12v2h-12z M65,125h6v1h-6z M73,125h3v1h-3z M84,125h11v1h-11z M98,125h18v1h-18z M121,125h5v1h-5z M132,125h10v1h-10z M144,125h7v1h-7z M153,125h14v1h-14z M169,125h3v1h-3z M173,125h10v1h-10z M184,125h4v1h-4z M202,125h4v1h-4z M208,124h6v2h-6z M216,125h11v1h-11z M230,125h3v1h-3z M244,125h9v1h-9z M254,125h12v1h-12z M17,126h6v1h-6z M25,125h3v2h-3z M38,126h11v1h-11z M51,126h13v1h-13z M65,126h7v1h-7z M78,125h5v2h-5z M84,126h12v1h-12z M98,126h10v1h-10z M111,126h14v1h-14z M131,126h6v1h-6z M138,126h4v1h-4z M146,126h6v1h-6z M154,126h13v1h-13z M169,126h19v1h-19z M190,125h9v2h-9z M201,126h4v1h-4z M207,126h7v1h-7z M216,126h12v1h-12z M230,126h4v1h-4z M236,125h3v2h-3z M245,126h7v1h-7z M255,126h11v1h-11z M2,122h6v6h-6z M11,126h4v2h-4z M30,125h6v3h-6z M37,127h17v1h-17z M55,127h17v1h-17z M79,127h4v1h-4z M84,127h7v1h-7z M93,127h3v1h-3z M99,127h8v1h-8z M113,127h12v1h-12z M128,127h8v1h-8z M139,127h4v1h-4z M147,127h21v1h-21z M169,127h10v1h-10z M181,127h7v1h-7z M191,127h13v1h-13z M206,127h8v1h-8z M216,127h13v1h-13z M230,127h8v1h-8z M250,127h2v1h-2z M262,127h4v1h-4z M6,128h3v1h-3z M24,127h3v2h-3z M37,128h9v1h-9z M48,128h11v1h-11z M60,128h12v1h-12z M74,126h3v3h-3z M79,128h13v1h-13z M99,128h4v1h-4z M104,128h5v1h-5z M117,128h8v1h-8z M127,128h5v1h-5z M133,128h4v1h-4z M139,128h6v1h-6z M149,128h19v1h-19z M170,128h9v1h-9z M183,128h5v1h-5z M205,128h4v1h-4z M225,128h5v1h-5z M231,128h8v1h-8z M250,128h3v1h-3z M17,127h5v3h-5z M24,129h2v1h-2z M29,128h6v2h-6z M37,129h8v1h-8z M47,129h12v1h-12z M69,129h4v1h-4z M94,128h3v2h-3z M100,129h3v1h-3z M105,129h10v1h-10z M117,129h15v1h-15z M139,129h9v1h-9z M150,129h19v1h-19z M175,129h4v1h-4z M182,129h7v1h-7z M191,128h12v2h-12z M204,129h4v1h-4z M211,128h3v2h-3z M216,128h8v2h-8z M226,129h5v1h-5z M233,129h6v1h-6z M245,127h3v3h-3z M251,129h2v1h-2z M256,127h4v3h-4z M2,128h3v3h-3z M7,129h2v2h-2z M12,128h3v3h-3z M18,130h3v1h-3z M23,130h3v1h-3z M28,130h7v1h-7z M37,130h6v1h-6z M60,129h8v2h-8z M70,130h3v1h-3z M75,129h3v2h-3z M80,129h12v2h-12z M95,130h2v1h-2z M126,130h6v1h-6z M134,129h3v2h-3z M139,130h17v1h-17z M158,130h5v1h-5z M170,129h4v2h-4z M175,130h5v1h-5z M182,130h3v1h-3z M186,130h3v1h-3z M192,130h10v1h-10z M203,130h5v1h-5z M228,130h3v1h-3z M234,130h4v1h-4z M240,122h3v9h-3z M251,130h3v1h-3z M257,130h3v1h-3z M263,128h3v3h-3z M2,131h8v1h-8z M12,131h31v1h-31z M45,130h13v2h-13z M59,131h9v1h-9z M70,131h4v1h-4z M75,131h18v1h-18z M95,131h3v1h-3z M101,130h3v2h-3z M105,130h20v2h-20z M128,131h4v1h-4z M134,131h4v1h-4z M139,131h4v1h-4z M145,131h11v1h-11z M157,131h5v1h-5z M165,130h4v2h-4z M171,131h3v1h-3z M175,131h9v1h-9z M186,131h4v1h-4z M192,131h9v1h-9z M202,131h6v1h-6z M211,130h4v2h-4z M216,130h7v2h-7z M228,131h4v1h-4z M235,131h9v1h-9z M245,130h4v2h-4z M252,131h3v1h-3z M257,131h4v1h-4z M262,131h4v1h-4z M2,132h263v3h-263z M3,135h2v1h-2z M8,135h3v1h-3z M20,135h2v1h-2z M43,135h3v1h-3z M48,135h10v1h-10z M61,135h9v1h-9z M72,135h2v1h-2z M79,135h1v1h-1z M85,135h4v1h-4z M91,135h9v1h-9z M101,135h9v1h-9z M111,135h6v1h-6z M119,135h1v1h-1z M123,135h5v1h-5z M130,135h88v1h-88z M220,135h42v1h-42z
  "/>
</svg>