<?xml version="1.0" encoding="UTF-8"?>
<svg xmlns="http://www.w3.org/2000/svg" viewBox="0 0 268 139" width="268" height="139">
  <title>32 Bony coal or impure coal</title>
  <path fill="#111111" fill-rule="nonzero" d="
    M5,1h2v1h-2z M8,1h2v1h-2z M3,2h92v1h-92z M99,2h1v1h-1z M114,2h2v1h-2z M2,3h244v1h-244z M247,3h5v1h-5z M253,3h13v1h-13z M2,4h265v1h-265z M1,5h266v16h-266z M1,21h125v1h-125z M131,21h5v1h-5z M141,21h126v1h-126z M1,22h73v1h-73z M78,22h47v1h-47z M131,22h4v1h-4z M141,22h4v1h-4z M1,23h62v1h-62z M68,23h4v1h-4z M79,23h5v1h-5z M87,23h36v1h-36z M130,23h4v1h-4z M140,23h4v1h-4z M1,24h24v1h-24z M26,24h6v1h-6z M36,24h6v1h-6z M45,24h16v1h-16z M68,24h3v1h-3z M79,24h3v1h-3z M88,24h35v1h-35z M129,24h4v1h-4z M139,24h4v1h-4z M148,22h119v3h-119z M1,25h30v1h-30z M36,25h4v1h-4z M45,25h5v1h-5z M56,25h4v1h-4z M67,25h3v1h-3z M77,25h4v1h-4z M87,25h35v1h-35z M128,25h4v1h-4z M138,25h4v1h-4z M147,25h120v1h-120z M1,26h28v1h-28z M35,26h4v1h-4z M45,26h4v1h-4z M56,26h3v1h-3z M65,26h5v1h-5z M75,26h7v1h-7z M86,26h6v1h-6z M93,26h20v1h-20z M116,26h5v1h-5z M127,26h4v1h-4z M137,26h4v1h-4z M147,26h4v1h-4z M156,26h5v1h-5z M166,26h101v1h-101z M1,27h27v1h-27z M34,27h4v1h-4z M44,27h4v1h-4z M54,27h5v1h-5z M64,27h49v1h-49z M116,27h4v1h-4z M126,27h4v1h-4z M136,27h4v1h-4z M146,27h4v1h-4z M156,27h4v1h-4z M166,27h71v1h-71z M241,27h5v1h-5z M252,27h6v1h-6z M261,27h6v1h-6z M1,28h9v1h-9z M12,28h16v1h-16z M34,28h3v1h-3z M43,28h4v1h-4z M54,28h6v1h-6z M62,28h51v1h-51z M115,28h4v1h-4z M125,28h4v1h-4z M135,28h4v1h-4z M145,28h5v1h-5z M155,28h4v1h-4z M166,28h68v1h-68z M241,28h4v1h-4z M252,28h5v1h-5z M262,28h5v1h-5z M13,29h4v1h-4z M21,29h6v1h-6z M32,29h4v1h-4z M42,29h4v1h-4z M53,29h66v1h-66z M124,29h5v1h-5z M134,29h5v1h-5z M143,29h5v1h-5z M154,29h4v1h-4z M165,29h68v1h-68z M240,29h4v1h-4z M251,29h4v1h-4z M261,29h6v1h-6z M12,30h4v1h-4z M32,30h3v1h-3z M41,30h4v1h-4z M52,30h96v1h-96z M153,30h5v1h-5z M164,30h69v1h-69z M239,30h4v1h-4z M250,30h4v1h-4z M1,29h8v3h-8z M11,31h4v1h-4z M21,30h4v2h-4z M40,31h4v1h-4z M51,31h3v1h-3z M58,31h92v1h-92z M151,31h8v1h-8z M161,31h27v1h-27z M193,31h6v1h-6z M205,31h7v1h-7z M214,31h9v1h-9z M227,31h5v1h-5z M238,31h4v1h-4z M249,31h4v1h-4z M260,30h7v2h-7z M1,32h14v1h-14z M20,32h4v1h-4z M30,31h4v2h-4z M40,32h3v1h-3z M50,32h4v1h-4z M58,32h6v1h-6z M69,32h6v1h-6z M79,32h7v1h-7z M88,32h88v1h-88z M182,32h5v1h-5z M193,32h5v1h-5z M205,32h4v1h-4z M215,32h5v1h-5z M227,32h4v1h-4z M237,32h4v1h-4z M248,32h5v1h-5z M259,32h8v1h-8z M38,33h4v1h-4z M49,33h4v1h-4z M58,33h5v1h-5z M70,33h3v1h-3z M79,33h6v1h-6z M89,33h85v1h-85z M182,33h4v1h-4z M193,33h3v1h-3z M204,33h4v1h-4z M215,33h4v1h-4z M226,33h4v1h-4z M236,33h4v1h-4z M247,33h4v1h-4z M258,33h4v1h-4z M37,34h4v1h-4z M48,34h4v1h-4z M58,34h4v1h-4z M69,34h3v1h-3z M79,34h94v1h-94z M181,34h4v1h-4z M192,34h4v1h-4z M203,34h4v1h-4z M214,34h4v1h-4z M225,34h4v1h-4z M235,34h4v1h-4z M246,34h4v1h-4z M257,34h4v1h-4z M36,35h4v1h-4z M47,35h4v1h-4z M56,35h5v1h-5z M68,35h3v1h-3z M77,35h111v1h-111z M190,35h4v1h-4z M202,35h4v1h-4z M213,35h4v1h-4z M224,35h4v1h-4z M234,35h4v1h-4z M245,35h4v1h-4z M256,35h3v1h-3z M1,33h33v4h-33z M35,36h5v1h-5z M46,36h4v1h-4z M55,36h5v1h-5z M66,36h5v1h-5z M76,36h118v1h-118z M201,36h4v1h-4z M212,36h4v1h-4z M223,36h3v1h-3z M233,36h4v1h-4z M244,36h4v1h-4z M255,36h3v1h-3z M13,37h16v1h-16z M34,37h5v1h-5z M44,37h7v1h-7z M53,37h8v1h-8z M64,37h129v1h-129z M200,37h4v1h-4z M211,37h4v1h-4z M222,37h4v1h-4z M232,37h4v1h-4z M243,37h5v1h-5z M254,37h4v1h-4z M1,37h11v2h-11z M13,38h5v1h-5z M21,38h7v1h-7z M34,38h4v1h-4z M43,38h149v1h-149z M200,38h3v1h-3z M210,38h4v1h-4z M221,38h4v1h-4z M231,38h4v1h-4z M242,38h5v1h-5z M253,38h3v1h-3z M1,39h16v1h-16z M21,39h6v1h-6z M32,39h5v1h-5z M42,39h150v1h-150z M198,39h6v1h-6z M209,39h4v1h-4z M220,39h4v1h-4z M230,39h4v1h-4z M241,39h5v1h-5z M252,39h4v1h-4z M264,33h3v7h-3z M1,40h15v1h-15z M21,40h5v1h-5z M32,40h4v1h-4z M41,40h171v1h-171z M219,40h4v1h-4z M229,40h4v1h-4z M240,40h6v1h-6z M251,40h6v1h-6z M261,40h6v1h-6z M1,41h16v1h-16z M20,41h5v1h-5z M31,41h4v1h-4z M41,41h5v1h-5z M49,41h162v1h-162z M218,41h4v1h-4z M228,41h4v1h-4z M239,41h28v1h-28z M1,42h24v1h-24z M29,42h6v1h-6z M40,42h5v1h-5z M49,42h5v1h-5z M56,42h155v1h-155z M217,42h4v1h-4z M227,42h4v1h-4z M238,42h29v1h-29z M1,43h211v1h-211z M216,43h4v1h-4z M226,43h4v1h-4z M237,43h30v1h-30z M1,44h219v1h-219z M225,44h5v1h-5z M236,44h5v1h-5z M244,44h23v1h-23z M1,45h229v1h-229z M235,45h6v1h-6z M245,45h22v1h-22z M1,46h100v1h-100z M106,46h6v1h-6z M115,46h152v1h-152z M1,47h99v1h-99z M116,47h151v1h-151z M1,48h98v1h-98z M106,47h4v2h-4z M115,48h152v1h-152z M1,49h97v1h-97z M104,49h5v1h-5z M114,49h5v1h-5z M122,49h19v1h-19z M142,49h8v1h-8z M151,49h9v1h-9z M161,49h106v1h-106z M1,50h87v1h-87z M89,50h8v1h-8z M103,50h5v1h-5z M113,50h4v1h-4z M122,50h6v1h-6z M133,50h5v1h-5z M143,50h5v1h-5z M154,50h4v1h-4z M165,50h4v1h-4z M175,50h5v1h-5z M186,50h81v1h-81z M1,51h67v1h-67z M71,51h6v1h-6z M81,51h5v1h-5z M92,51h4v1h-4z M103,51h4v1h-4z M112,51h4v1h-4z M122,51h5v1h-5z M132,51h5v1h-5z M142,51h5v1h-5z M154,51h3v1h-3z M164,51h4v1h-4z M175,51h3v1h-3z M186,51h4v1h-4z M1,52h66v1h-66z M71,52h5v1h-5z M81,52h4v1h-4z M91,52h4v1h-4z M102,52h4v1h-4z M111,52h4v1h-4z M121,52h5v1h-5z M131,52h5v1h-5z M141,52h5v1h-5z M152,52h5v1h-5z M163,52h4v1h-4z M174,52h4v1h-4z M186,52h3v1h-3z M195,51h72v2h-72z M1,53h64v1h-64z M70,53h5v1h-5z M80,53h4v1h-4z M90,53h4v1h-4z M101,53h4v1h-4z M110,53h5v1h-5z M120,53h5v1h-5z M130,53h5v1h-5z M140,53h5v1h-5z M152,53h4v1h-4z M162,53h4v1h-4z M173,53h4v1h-4z M184,53h6v1h-6z M191,53h76v1h-76z M69,54h5v1h-5z M79,54h4v1h-4z M90,54h3v1h-3z M100,54h4v1h-4z M109,54h5v1h-5z M119,54h5v1h-5z M130,54h4v1h-4z M139,54h5v1h-5z M151,54h4v1h-4z M161,54h4v1h-4z M172,54h7v1h-7z M181,54h86v1h-86z M1,54h63v2h-63z M68,55h5v1h-5z M78,55h5v1h-5z M88,55h4v1h-4z M99,55h3v1h-3z M108,55h4v1h-4z M118,55h5v1h-5z M128,55h5v1h-5z M139,55h4v1h-4z M149,55h5v1h-5z M160,55h5v1h-5z M170,55h97v1h-97z M1,56h73v1h-73z M76,56h8v1h-8z M86,56h6v1h-6z M98,56h4v1h-4z M107,56h4v1h-4z M117,56h5v1h-5z M128,56h4v1h-4z M138,56h4v1h-4z M148,56h119v1h-119z M1,57h100v1h-100z M106,57h4v1h-4z M116,57h5v1h-5z M127,57h3v1h-3z M137,57h6v1h-6z M145,57h122v1h-122z M1,58h99v1h-99z M106,58h3v1h-3z M115,58h5v1h-5z M126,58h4v1h-4z M135,58h132v1h-132z M1,59h98v1h-98z M104,59h5v1h-5z M114,59h5v1h-5z M124,59h143v1h-143z M1,60h99v1h-99z M103,60h6v1h-6z M113,60h7v1h-7z M122,60h145v1h-145z M1,61h266v11h-266z M1,72h265v1h-265z M1,73h179v1h-179z M184,73h6v1h-6z M195,73h71v1h-71z M1,74h178v1h-178z M184,74h5v1h-5z M195,74h5v1h-5z M201,74h65v1h-65z M6,75h15v1h-15z M25,75h7v1h-7z M33,75h1v1h-1z M38,75h4v1h-4z M47,75h7v1h-7z M56,75h122v1h-122z M184,75h4v1h-4z M204,75h17v1h-17z M224,75h9v1h-9z M236,75h30v1h-30z M6,76h5v1h-5z M15,76h5v1h-5z M26,76h5v1h-5z M37,76h4v1h-4z M48,76h4v1h-4z M57,76h5v1h-5z M67,76h6v1h-6z M77,76h5v1h-5z M85,76h91v1h-91z M183,76h4v1h-4z M194,75h4v2h-4z M204,76h5v1h-5z M214,76h5v1h-5z M225,76h4v1h-4z M237,76h29v1h-29z M1,75h4v3h-4z M6,77h3v1h-3z M15,77h4v1h-4z M26,77h3v1h-3z M36,77h4v1h-4z M47,77h4v1h-4z M56,77h4v1h-4z M77,77h4v1h-4z M95,77h69v1h-69z M182,77h4v1h-4z M192,77h5v1h-5z M203,77h5v1h-5z M214,77h4v1h-4z M224,77h4v1h-4z M236,77h31v1h-31z M1,78h8v1h-8z M14,78h4v1h-4z M25,78h3v1h-3z M36,78h3v1h-3z M46,78h4v1h-4z M55,78h4v1h-4z M66,77h4v2h-4z M85,77h5v2h-5z M95,78h25v1h-25z M126,78h5v1h-5z M136,78h5v1h-5z M147,78h5v1h-5z M155,78h8v1h-8z M171,77h4v2h-4z M181,78h4v1h-4z M191,78h4v1h-4z M202,78h5v1h-5z M214,78h3v1h-3z M223,78h4v1h-4z M233,78h34v1h-34z M13,79h4v1h-4z M24,79h3v1h-3z M35,79h3v1h-3z M45,79h3v1h-3z M54,79h5v1h-5z M65,79h4v1h-4z M75,78h4v2h-4z M84,79h5v1h-5z M94,79h6v1h-6z M102,79h17v1h-17z M126,79h4v1h-4z M136,79h4v1h-4z M147,79h4v1h-4z M158,79h4v1h-4z M169,79h4v1h-4z M180,79h4v1h-4z M190,79h4v1h-4z M201,79h5v1h-5z M212,79h4v1h-4z M222,79h4v1h-4z M232,79h34v1h-34z M12,80h4v1h-4z M23,80h4v1h-4z M34,80h3v1h-3z M44,80h3v1h-3z M53,80h5v1h-5z M64,80h4v1h-4z M74,80h4v1h-4z M83,80h5v1h-5z M94,80h5v1h-5z M102,80h16v1h-16z M125,80h4v1h-4z M135,80h4v1h-4z M146,80h4v1h-4z M157,80h4v1h-4z M168,80h4v1h-4z M179,80h4v1h-4z M190,80h3v1h-3z M200,80h5v1h-5z M212,80h2v1h-2z M221,80h4v1h-4z M231,80h35v1h-35z M1,79h7v3h-7z M11,81h5v1h-5z M22,81h4v1h-4z M33,81h4v1h-4z M52,81h5v1h-5z M63,81h5v1h-5z M73,81h5v1h-5z M82,81h6v1h-6z M92,81h26v1h-26z M124,81h4v1h-4z M134,81h5v1h-5z M146,81h3v1h-3z M156,81h4v1h-4z M167,81h5v1h-5z M177,81h5v1h-5z M188,81h4v1h-4z M199,81h5v1h-5z M211,81h3v1h-3z M220,81h4v1h-4z M231,81h7v1h-7z M241,81h7v1h-7z M252,81h14v1h-14z M1,82h26v1h-26z M32,82h3v1h-3z M43,81h3v2h-3z M52,82h67v1h-67z M123,82h4v1h-4z M133,82h5v1h-5z M145,82h3v1h-3z M155,82h4v1h-4z M167,82h4v1h-4z M177,82h4v1h-4z M199,82h4v1h-4z M210,82h3v1h-3z M219,82h4v1h-4z M231,82h4v1h-4z M242,82h4v1h-4z M260,82h6v1h-6z M1,83h27v1h-27z M30,83h4v1h-4z M41,83h3v1h-3z M51,83h77v1h-77z M131,83h9v1h-9z M143,83h3v1h-3z M154,83h4v1h-4z M166,83h4v1h-4z M187,82h4v2h-4z M198,83h4v1h-4z M208,83h4v1h-4z M218,83h4v1h-4z M230,83h5v1h-5z M240,83h6v1h-6z M261,83h5v1h-5z M1,84h33v1h-33z M40,84h3v1h-3z M50,84h96v1h-96z M153,84h5v1h-5z M164,84h6v1h-6z M175,83h5v2h-5z M185,84h6v1h-6z M197,84h5v1h-5z M207,84h4v1h-4z M217,84h5v1h-5z M225,84h41v1h-41z M1,85h32v1h-32z M39,85h4v1h-4z M49,85h98v1h-98z M152,85h7v1h-7z M162,85h40v1h-40z M206,85h6v1h-6z M213,85h53v1h-53z M1,86h31v1h-31z M38,86h4v1h-4z M48,86h4v1h-4z M56,86h210v1h-210z M1,87h21v1h-21z M25,87h6v1h-6z M37,87h4v1h-4z M46,87h5v1h-5z M56,87h5v1h-5z M1,88h18v1h-18z M26,88h4v1h-4z M36,88h5v1h-5z M45,88h6v1h-6z M55,88h5v1h-5z M65,87h201v2h-201z M1,89h19v1h-19z M25,89h242v1h-242z M1,90h265v2h-265z M1,92h266v3h-266z M1,95h265v1h-265z M1,96h225v1h-225z M227,96h6v1h-6z M239,96h5v1h-5z M248,96h18v1h-18z M1,97h211v1h-211z M214,97h7v1h-7z M227,97h4v1h-4z M238,97h5v1h-5z M249,97h4v1h-4z M257,97h9v1h-9z M1,98h206v1h-206z M215,98h4v1h-4z M226,98h4v1h-4z M238,98h4v1h-4z M249,98h3v1h-3z M258,98h8v1h-8z M226,99h3v1h-3z M236,99h5v1h-5z M247,99h4v1h-4z M258,99h9v1h-9z M1,99h205v2h-205z M214,99h4v2h-4z M225,100h4v1h-4z M236,100h4v1h-4z M247,100h3v1h-3z M257,100h10v1h-10z M1,101h204v1h-204z M212,101h19v1h-19z M234,101h6v1h-6z M244,101h23v1h-23z M1,102h205v1h-205z M211,102h55v1h-55z M1,103h265v3h-265z M1,106h4v1h-4z M7,106h5v1h-5z M25,106h60v1h-60z M86,106h7v1h-7z M98,106h168v1h-168z M7,107h3v1h-3z M16,106h6v2h-6z M25,107h58v1h-58z M87,107h4v1h-4z M98,107h5v1h-5z M106,107h160v1h-160z M1,107h3v2h-3z M6,108h3v1h-3z M16,108h67v1h-67z M86,108h5v1h-5z M97,108h4v1h-4z M107,108h70v1h-70z M182,108h84v1h-84z M1,109h8v1h-8z M15,109h3v1h-3z M19,109h73v1h-73z M96,109h5v1h-5z M107,109h62v1h-62z M172,109h4v1h-4z M182,109h5v1h-5z M191,109h75v1h-75z M14,110h4v1h-4z M21,110h81v1h-81z M106,110h4v1h-4z M114,110h7v1h-7z M127,110h28v1h-28z M157,110h11v1h-11z M171,110h4v1h-4z M182,110h4v1h-4z M191,110h4v1h-4z M201,110h65v1h-65z M1,110h6v2h-6z M13,111h4v1h-4z M21,111h88v1h-88z M115,111h4v1h-4z M127,111h4v1h-4z M136,111h6v1h-6z M148,111h4v1h-4z M158,111h5v1h-5z M169,111h5v1h-5z M181,111h3v1h-3z M190,111h4v1h-4z M202,111h5v1h-5z M211,111h55v1h-55z M1,112h5v1h-5z M12,112h4v1h-4z M22,112h4v1h-4z M31,112h5v1h-5z M39,112h8v1h-8z M49,112h8v1h-8z M58,112h50v1h-50z M114,112h4v1h-4z M126,112h4v1h-4z M136,112h5v1h-5z M147,112h4v1h-4z M158,112h3v1h-3z M169,112h4v1h-4z M179,112h4v1h-4z M189,112h5v1h-5z M202,112h4v1h-4z M212,112h54v1h-54z M11,113h4v1h-4z M21,113h3v1h-3z M31,113h4v1h-4z M40,113h5v1h-5z M50,113h5v1h-5z M60,113h47v1h-47z M114,113h3v1h-3z M125,113h4v1h-4z M135,113h5v1h-5z M147,113h3v1h-3z M157,113h3v1h-3z M168,113h4v1h-4z M178,113h5v1h-5z M188,113h5v1h-5z M201,113h4v1h-4z M212,113h4v1h-4z M222,113h5v1h-5z M232,113h6v1h-6z M240,113h26v1h-26z M1,113h4v2h-4z M10,114h4v1h-4z M20,114h3v1h-3z M30,114h4v1h-4z M40,114h4v1h-4z M50,114h4v1h-4z M60,114h5v1h-5z M68,114h38v1h-38z M113,114h3v1h-3z M124,114h4v1h-4z M135,114h4v1h-4z M146,114h3v1h-3z M155,114h4v1h-4z M167,114h4v1h-4z M178,114h4v1h-4z M188,114h4v1h-4z M199,114h4v1h-4z M211,114h4v1h-4z M222,114h4v1h-4z M241,114h25v1h-25z M1,115h5v1h-5z M8,115h15v1h-15z M29,115h4v1h-4z M38,115h6v1h-6z M49,115h3v1h-3z M60,115h3v1h-3z M69,115h37v1h-37z M111,115h5v1h-5z M124,115h3v1h-3z M134,115h3v1h-3z M144,115h4v1h-4z M155,115h3v1h-3z M166,115h4v1h-4z M177,115h3v1h-3z M186,115h5v1h-5z M210,115h4v1h-4z M221,115h4v1h-4z M232,114h4v2h-4z M240,115h26v1h-26z M1,116h22v1h-22z M28,116h4v1h-4z M38,116h4v1h-4z M48,116h3v1h-3z M59,116h3v1h-3z M69,116h4v1h-4z M75,116h40v1h-40z M123,116h3v1h-3z M133,116h4v1h-4z M144,116h3v1h-3z M154,116h4v1h-4z M165,116h4v1h-4z M176,116h4v1h-4z M186,116h4v1h-4z M198,115h4v2h-4z M208,116h5v1h-5z M219,116h6v1h-6z M231,116h4v1h-4z M239,116h27v1h-27z M1,117h21v1h-21z M27,117h4v1h-4z M37,117h5v1h-5z M47,117h4v1h-4z M57,117h4v1h-4z M68,117h4v1h-4z M76,117h40v1h-40z M121,117h4v1h-4z M132,117h4v1h-4z M142,117h4v1h-4z M153,117h4v1h-4z M164,117h5v1h-5z M174,117h5v1h-5z M184,117h6v1h-6z M197,117h3v1h-3z M208,117h4v1h-4z M217,117h19v1h-19z M237,117h29v1h-29z M1,118h20v1h-20z M26,118h4v1h-4z M36,118h4v1h-4z M46,118h3v1h-3z M57,118h3v1h-3z M67,118h6v1h-6z M75,118h50v1h-50z M131,118h4v1h-4z M141,118h5v1h-5z M151,118h7v1h-7z M159,118h1v1h-1z M162,118h9v1h-9z M173,118h19v1h-19z M196,118h3v1h-3z M207,118h4v1h-4z M13,119h6v1h-6z M25,119h5v1h-5z M35,119h5v1h-5z M44,119h6v1h-6z M55,119h6v1h-6z M63,119h63v1h-63z M129,119h6v1h-6z M140,119h6v1h-6z M149,119h44v1h-44z M195,119h3v1h-3z M206,119h4v1h-4z M216,118h50v2h-50z M1,119h9v2h-9z M13,120h5v1h-5z M24,120h16v1h-16z M43,120h155v1h-155z M205,120h4v1h-4z M215,120h51v1h-51z M1,121h17v1h-17z M22,121h188v1h-188z M214,121h52v1h-52z M1,122h265v10h-265z M2,132h264v3h-264z M3,135h263v1h-263z M9,136h2v1h-2z M18,136h2v1h-2z M34,136h1v1h-1z M37,136h5v1h-5z M47,136h219v1h-219z M142,137h12v1h-12z M158,137h14v1h-14z M174,137h3v1h-3z M178,137h81v1h-81z M260,137h3v1h-3z
  "/>
</svg>