<?xml version="1.0" encoding="UTF-8"?>
<svg xmlns="http://www.w3.org/2000/svg" viewBox="0 0 264 138" width="264" height="138">
  <title>72 Ore</title>
  <path fill="#111111" fill-rule="nonzero" d="
    M131,1h7v1h-7z M140,1h2v1h-2z M143,1h1v1h-1z M147,1h4v1h-4z M153,1h8v1h-8z M163,1h84v1h-84z M248,1h1v1h-1z M11,2h2v1h-2z M19,2h3v1h-3z M26,2h1v1h-1z M29,2h2v1h-2z M35,2h3v1h-3z M80,2h4v1h-4z M115,2h147v1h-147z M2,3h260v1h-260z M1,4h262v1h-262z M1,5h131v1h-131z M135,5h6v1h-6z M144,5h5v1h-5z M150,5h10v1h-10z M162,5h16v1h-16z M181,5h6v1h-6z M191,5h11v1h-11z M204,5h1v1h-1z M208,5h14v1h-14z M225,5h7v1h-7z M252,5h11v1h-11z M1,6h8v1h-8z M12,6h8v1h-8z M21,6h6v1h-6z M39,6h5v1h-5z M56,6h17v1h-17z M75,6h22v1h-22z M100,6h16v1h-16z M119,6h7v1h-7z M128,6h3v1h-3z M150,6h11v1h-11z M164,6h6v1h-6z M173,6h5v1h-5z M181,6h5v1h-5z M192,6h9v1h-9z M203,6h2v1h-2z M210,6h6v1h-6z M226,6h6v1h-6z M236,5h4v2h-4z M242,5h7v2h-7z M6,7h2v1h-2z M22,7h4v1h-4z M29,6h7v2h-7z M46,6h8v2h-8z M58,7h2v1h-2z M61,7h5v1h-5z M67,7h5v1h-5z M76,7h5v1h-5z M85,7h11v1h-11z M102,7h9v1h-9z M136,6h6v2h-6z M145,6h3v2h-3z M149,7h4v1h-4z M157,7h4v1h-4z M164,7h5v1h-5z M175,7h3v1h-3z M180,7h6v1h-6z M210,7h5v1h-5z M218,6h3v2h-3z M225,7h7v1h-7z M236,7h14v1h-14z M13,7h6v2h-6z M23,8h2v1h-2z M29,8h8v1h-8z M45,8h10v1h-10z M61,8h4v1h-4z M68,8h5v1h-5z M76,8h4v1h-4z M82,8h1v1h-1z M86,8h8v1h-8z M120,7h6v2h-6z M138,8h5v1h-5z M147,8h6v1h-6z M157,8h11v1h-11z M176,8h9v1h-9z M202,7h3v2h-3z M209,8h6v1h-6z M225,8h9v1h-9z M236,8h8v1h-8z M247,8h4v1h-4z M12,9h8v1h-8z M27,9h11v1h-11z M44,9h5v1h-5z M51,9h5v1h-5z M60,9h5v1h-5z M69,9h10v1h-10z M87,9h6v1h-6z M119,9h7v1h-7z M133,8h3v2h-3z M140,9h4v1h-4z M147,9h5v1h-5z M159,9h8v1h-8z M172,9h1v1h-1z M177,9h7v1h-7z M186,8h3v2h-3z M193,7h7v3h-7z M203,9h2v1h-2z M209,9h7v1h-7z M223,9h4v1h-4z M230,9h5v1h-5z M238,9h6v1h-6z M248,9h4v1h-4z M254,6h9v4h-9z M1,7h3v4h-3z M11,10h10v1h-10z M26,10h6v1h-6z M34,10h5v1h-5z M43,10h5v1h-5z M53,10h4v1h-4z M59,10h6v1h-6z M70,10h8v1h-8z M88,10h5v1h-5z M97,9h2v2h-2z M104,8h6v3h-6z M113,8h3v3h-3z M118,10h9v1h-9z M132,10h4v1h-4z M141,10h4v1h-4z M146,10h5v1h-5z M153,10h2v1h-2z M186,10h2v1h-2z M193,10h8v1h-8z M207,10h4v1h-4z M213,10h4v1h-4z M222,10h5v1h-5z M231,10h5v1h-5z M238,10h5v1h-5z M249,10h14v1h-14z M1,11h4v1h-4z M10,11h5v1h-5z M17,11h5v1h-5z M25,11h6v1h-6z M36,11h4v1h-4z M42,11h5v1h-5z M54,11h12v1h-12z M81,9h3v3h-3z M87,11h6v1h-6z M98,11h1v1h-1z M103,11h8v1h-8z M117,11h4v1h-4z M125,11h3v1h-3z M131,11h4v1h-4z M137,11h1v1h-1z M142,11h8v1h-8z M153,11h3v1h-3z M171,10h3v2h-3z M177,10h6v2h-6z M192,11h10v1h-10z M206,11h5v1h-5z M215,11h3v1h-3z M221,11h6v1h-6z M232,11h10v1h-10z M244,11h2v1h-2z M1,12h5v1h-5z M9,12h5v1h-5z M18,12h5v1h-5z M24,12h6v1h-6z M37,12h9v1h-9z M48,12h1v1h-1z M71,11h6v2h-6z M86,12h8v1h-8z M102,12h10v1h-10z M116,12h5v1h-5z M125,12h9v1h-9z M137,12h2v1h-2z M143,12h7v1h-7z M152,12h4v1h-4z M160,10h6v3h-6z M176,12h7v1h-7z M191,12h4v1h-4z M198,12h5v1h-5z M205,12h5v1h-5z M215,12h10v1h-10z M233,12h7v1h-7z M243,12h4v1h-4z M1,13h12v1h-12z M19,13h10v1h-10z M37,13h8v1h-8z M48,13h2v1h-2z M64,12h3v2h-3z M70,13h8v1h-8z M85,13h11v1h-11z M101,13h5v1h-5z M109,13h4v1h-4z M115,13h5v1h-5z M126,13h7v1h-7z M138,13h1v1h-1z M153,13h3v1h-3z M159,13h8v1h-8z M175,13h10v1h-10z M190,13h4v1h-4z M199,13h9v1h-9z M212,13h1v1h-1z M217,13h7v1h-7z M243,13h3v1h-3z M250,11h7v3h-7z M1,14h11v1h-11z M14,14h2v1h-2z M20,14h8v1h-8z M38,14h6v1h-6z M47,14h3v1h-3z M55,12h6v3h-6z M70,14h9v1h-9z M84,14h5v1h-5z M92,14h5v1h-5z M100,14h5v1h-5z M109,14h10v1h-10z M143,13h6v2h-6z M158,14h10v1h-10z M174,14h6v1h-6z M181,14h5v1h-5z M189,14h4v1h-4z M200,14h8v1h-8z M227,12h2v3h-2z M234,13h5v2h-5z M245,14h1v1h-1z M250,14h8v1h-8z M259,11h4v4h-4z M1,15h10v1h-10z M37,15h7v1h-7z M48,15h1v1h-1z M54,15h8v1h-8z M69,15h5v1h-5z M75,15h5v1h-5z M83,15h5v1h-5z M93,15h11v1h-11z M106,15h3v1h-3z M111,15h7v1h-7z M121,14h2v2h-2z M127,14h6v2h-6z M142,15h8v1h-8z M157,15h4v1h-4z M165,15h4v1h-4z M173,15h6v1h-6z M182,15h10v1h-10z M211,14h3v2h-3z M217,14h6v2h-6z M228,15h1v1h-1z M233,15h7v1h-7z M249,15h14v1h-14z M14,15h3v2h-3z M21,15h6v2h-6z M31,14h3v3h-3z M37,16h8v1h-8z M54,16h9v1h-9z M68,16h5v1h-5z M76,16h5v1h-5z M82,16h5v1h-5z M94,16h8v1h-8z M105,16h4v1h-4z M121,16h3v1h-3z M126,16h8v1h-8z M141,16h4v1h-4z M147,16h4v1h-4z M156,16h4v1h-4z M166,16h4v1h-4z M172,16h7v1h-7z M184,16h7v1h-7z M201,15h6v2h-6z M211,16h2v1h-2z M216,16h7v1h-7z M232,16h9v1h-9z M247,16h5v1h-5z M1,16h9v2h-9z M15,17h1v1h-1z M19,17h9v1h-9z M36,17h9v1h-9z M59,17h5v1h-5z M67,17h5v1h-5z M77,17h9v1h-9z M89,17h2v1h-2z M111,16h6v2h-6z M122,17h1v1h-1z M125,17h9v1h-9z M140,17h4v1h-4z M148,17h4v1h-4z M155,17h4v1h-4z M167,17h12v1h-12z M195,17h1v1h-1z M215,17h9v1h-9z M231,17h5v1h-5z M238,17h4v1h-4z M246,17h5v1h-5z M255,16h8v2h-8z M1,18h10v1h-10z M18,18h11v1h-11z M35,18h5v1h-5z M42,18h4v1h-4z M52,17h4v2h-4z M60,18h4v1h-4z M66,18h4v1h-4z M77,18h8v1h-8z M95,17h6v2h-6z M106,17h3v2h-3z M110,18h8v1h-8z M125,18h3v1h-3z M131,18h5v1h-5z M138,18h5v1h-5z M149,18h10v1h-10z M162,18h2v1h-2z M168,18h7v1h-7z M184,17h6v2h-6z M194,18h3v1h-3z M200,17h8v2h-8z M214,18h5v1h-5z M222,18h3v1h-3z M230,18h5v1h-5z M239,18h4v1h-4z M245,18h5v1h-5z M257,18h6v1h-6z M1,19h11v1h-11z M17,19h6v1h-6z M25,19h5v1h-5z M34,19h5v1h-5z M42,19h5v1h-5z M50,19h8v1h-8z M61,19h8v1h-8z M88,18h3v2h-3z M94,19h7v1h-7z M109,19h10v1h-10z M124,19h3v1h-3z M133,19h9v1h-9z M150,19h7v1h-7z M184,19h7v1h-7z M195,19h8v1h-8z M204,19h5v1h-5z M213,19h5v1h-5z M223,19h3v1h-3z M229,19h5v1h-5z M240,19h9v1h-9z M253,19h3v1h-3z M1,20h5v1h-5z M8,20h5v1h-5z M16,20h6v1h-6z M26,20h5v1h-5z M33,20h5v1h-5z M44,20h10v1h-10z M62,20h7v1h-7z M72,18h4v3h-4z M78,19h6v2h-6z M89,20h2v1h-2z M94,20h8v1h-8z M109,20h4v1h-4z M116,20h4v1h-4z M123,20h4v1h-4z M133,20h8v1h-8z M145,20h3v1h-3z M168,19h6v2h-6z M183,20h9v1h-9z M196,20h6v1h-6z M206,20h4v1h-4z M212,20h5v1h-5z M224,20h9v1h-9z M241,20h7v1h-7z M252,20h4v1h-4z M1,21h6v1h-6z M9,21h12v1h-12z M27,21h10v1h-10z M40,21h1v1h-1z M45,21h8v1h-8z M73,21h1v1h-1z M77,21h8v1h-8z M93,21h10v1h-10z M108,21h4v1h-4z M116,21h10v1h-10z M144,21h4v1h-4z M151,20h6v2h-6z M161,19h3v3h-3z M167,21h8v1h-8z M182,21h4v1h-4z M188,21h5v1h-5z M196,21h5v1h-5z M207,21h8v1h-8z M225,21h7v1h-7z M253,21h3v1h-3z M258,19h5v3h-5z M10,22h10v1h-10z M23,22h1v1h-1z M28,22h8v1h-8z M56,20h3v3h-3z M62,21h6v2h-6z M76,22h10v1h-10z M92,22h5v1h-5z M100,22h4v1h-4z M107,22h4v1h-4z M118,22h7v1h-7z M150,22h7v1h-7z M166,22h10v1h-10z M181,22h4v1h-4z M190,22h10v1h-10z M207,22h7v1h-7z M234,20h3v3h-3z M242,21h5v2h-5z M257,22h6v1h-6z M11,23h8v1h-8z M23,23h3v1h-3z M39,22h3v2h-3z M61,23h8v1h-8z M75,23h5v1h-5z M83,23h4v1h-4z M91,23h6v1h-6z M101,23h9v1h-9z M113,23h1v1h-1z M128,21h3v3h-3z M134,21h6v3h-6z M145,22h3v2h-3z M150,23h8v1h-8z M165,23h5v1h-5z M173,23h4v1h-4z M180,23h4v1h-4z M190,23h9v1h-9z M202,23h1v1h-1z M218,23h2v1h-2z M225,22h6v2h-6z M236,23h1v1h-1z M241,23h7v1h-7z M22,24h4v1h-4z M40,24h2v1h-2z M46,22h6v3h-6z M60,24h11v1h-11z M74,24h6v1h-6z M84,24h4v1h-4z M90,24h8v1h-8z M102,24h7v1h-7z M119,23h5v2h-5z M132,24h10v1h-10z M148,24h5v1h-5z M154,24h5v1h-5z M164,24h5v1h-5z M174,24h9v1h-9z M208,23h6v2h-6z M218,24h3v1h-3z M224,24h8v1h-8z M239,24h10v1h-10z M255,23h8v2h-8z M1,22h7v4h-7z M12,24h6v2h-6z M23,25h2v1h-2z M29,23h6v3h-6z M44,25h9v1h-9z M59,25h4v1h-4z M67,25h5v1h-5z M73,25h9v1h-9z M85,25h8v1h-8z M103,25h5v1h-5z M119,25h6v1h-6z M138,25h5v1h-5z M147,25h5v1h-5z M156,25h4v1h-4z M163,25h5v1h-5z M175,25h7v1h-7z M186,25h3v1h-3z M208,25h7v1h-7z M218,25h2v1h-2z M223,25h10v1h-10z M238,25h6v1h-6z M246,25h4v1h-4z M254,25h9v1h-9z M1,26h4v1h-4z M11,26h8v1h-8z M27,26h9v1h-9z M44,26h4v1h-4z M49,26h5v1h-5z M58,26h4v1h-4z M68,26h9v1h-9z M86,26h7v1h-7z M96,25h3v2h-3z M102,26h6v1h-6z M112,24h3v3h-3z M118,26h7v1h-7z M131,25h5v2h-5z M139,26h5v1h-5z M146,26h5v1h-5z M157,26h10v1h-10z M185,26h4v1h-4z M192,24h6v3h-6z M201,24h3v3h-3z M207,26h11v1h-11z M222,26h5v1h-5z M229,26h4v1h-4z M237,26h6v1h-6z M247,26h4v1h-4z M253,26h10v1h-10z M1,27h3v1h-3z M10,27h10v1h-10z M26,27h5v1h-5z M33,27h4v1h-4z M42,27h5v1h-5z M51,27h4v1h-4z M57,27h4v1h-4z M79,26h4v2h-4z M97,27h1v1h-1z M102,27h7v1h-7z M113,27h1v1h-1z M117,27h10v1h-10z M130,27h5v1h-5z M140,27h10v1h-10z M153,27h1v1h-1z M158,27h8v1h-8z M169,27h2v1h-2z M176,26h5v2h-5z M186,27h3v1h-3z M191,27h8v1h-8z M206,27h3v1h-3z M213,27h5v1h-5z M221,27h5v1h-5z M230,27h5v1h-5z M236,27h8v1h-8z M248,27h9v1h-9z M0,28h4v1h-4z M9,28h5v1h-5z M16,28h5v1h-5z M25,28h5v1h-5z M34,28h4v1h-4z M41,28h5v1h-5z M52,28h8v1h-8z M80,28h2v1h-2z M86,27h6v2h-6z M101,28h9v1h-9z M123,28h11v1h-11z M136,28h2v1h-2z M158,28h7v1h-7z M175,28h7v1h-7z M190,28h4v1h-4z M195,28h5v1h-5z M205,28h4v1h-4z M214,28h4v1h-4z M220,28h5v1h-5z M231,28h9v1h-9z M242,28h4v1h-4z M249,28h7v1h-7z M258,27h5v2h-5z M0,29h5v1h-5z M8,29h5v1h-5z M17,29h5v1h-5z M24,29h5v1h-5z M35,29h10v1h-10z M63,28h3v2h-3z M85,29h8v1h-8z M100,29h4v1h-4z M107,29h4v1h-4z M115,28h5v2h-5z M124,29h9v1h-9z M141,28h7v2h-7z M159,29h6v1h-6z M168,28h3v2h-3z M174,29h9v1h-9z M189,29h4v1h-4z M197,29h4v1h-4z M204,29h4v1h-4z M215,29h9v1h-9z M227,29h2v1h-2z M232,29h7v1h-7z M241,29h5v1h-5z M0,30h6v1h-6z M7,30h4v1h-4z M17,30h11v1h-11z M36,30h8v1h-8z M64,30h2v1h-2z M69,27h7v4h-7z M84,30h10v1h-10z M99,30h4v1h-4z M108,30h4v1h-4z M114,30h7v1h-7z M125,30h7v1h-7z M135,29h3v2h-3z M152,28h3v3h-3z M158,30h8v1h-8z M173,30h4v1h-4z M180,30h4v1h-4z M188,30h4v1h-4z M198,30h8v1h-8z M215,30h8v1h-8z M227,30h3v1h-3z M232,30h6v1h-6z M249,29h6v2h-6z M257,29h6v2h-6z M0,31h10v1h-10z M19,31h8v1h-8z M31,31h1v1h-1z M53,29h6v3h-6z M67,31h10v1h-10z M83,31h4v1h-4z M91,31h4v1h-4z M98,31h4v1h-4z M109,31h8v1h-8z M126,31h6v1h-6z M142,30h6v2h-6z M153,31h1v1h-1z M158,31h9v1h-9z M172,31h5v1h-5z M181,31h10v1h-10z M199,31h6v1h-6z M209,31h3v1h-3z M226,31h4v1h-4z M242,30h3v2h-3z M248,31h8v1h-8z M1,32h9v1h-9z M37,31h6v2h-6z M47,30h3v3h-3z M52,32h8v1h-8z M66,32h5v1h-5z M74,32h4v1h-4z M82,32h5v1h-5z M92,32h9v1h-9z M119,31h3v2h-3z M125,32h7v1h-7z M141,32h9v1h-9z M157,32h4v1h-4z M163,32h5v1h-5z M171,32h6v1h-6z M181,32h9v1h-9z M200,32h5v1h-5z M216,31h6v2h-6z M227,32h1v1h-1z M232,31h7v2h-7z M247,32h10v1h-10z M258,31h5v2h-5z M20,32h6v2h-6z M30,32h3v2h-3z M36,33h7v1h-7z M51,33h10v1h-10z M66,33h4v1h-4z M75,33h4v1h-4z M81,33h5v1h-5z M120,33h1v1h-1z M124,33h9v1h-9z M140,33h4v1h-4z M146,33h4v1h-4z M156,33h4v1h-4z M164,33h4v1h-4z M170,33h8v1h-8z M182,33h7v1h-7z M193,32h3v2h-3z M209,32h4v2h-4z M215,33h8v1h-8z M231,33h10v1h-10z M246,33h4v1h-4z M253,33h10v1h-10z M1,33h8v2h-8z M13,32h3v3h-3z M19,34h8v1h-8z M36,34h8v1h-8z M49,34h6v1h-6z M57,34h5v1h-5z M65,34h4v1h-4z M76,34h9v1h-9z M87,34h2v1h-2z M93,33h7v2h-7z M110,32h6v3h-6z M124,34h4v1h-4z M130,34h4v1h-4z M138,34h6v1h-6z M147,34h5v1h-5z M155,34h4v1h-4z M165,34h7v1h-7z M175,34h3v1h-3z M183,34h6v1h-6z M194,34h2v1h-2z M199,33h6v2h-6z M210,34h2v1h-2z M214,34h10v1h-10z M230,34h4v1h-4z M237,34h4v1h-4z M245,34h4v1h-4z M1,35h9v1h-9z M13,35h2v1h-2z M18,35h10v1h-10z M35,35h10v1h-10z M49,35h4v1h-4z M58,35h10v1h-10z M71,35h2v1h-2z M77,35h7v1h-7z M86,35h4v1h-4z M94,35h5v1h-5z M103,33h3v3h-3z M109,35h8v1h-8z M130,35h5v1h-5z M137,35h8v1h-8z M148,35h10v1h-10z M161,35h1v1h-1z M176,35h2v1h-2z M182,35h7v1h-7z M198,35h9v1h-9z M214,35h4v1h-4z M220,35h5v1h-5z M229,35h5v1h-5z M238,35h4v1h-4z M243,35h6v1h-6z M255,34h8v2h-8z M1,36h10v1h-10z M17,36h12v1h-12z M34,36h4v1h-4z M42,36h4v1h-4z M48,36h4v1h-4z M59,36h8v1h-8z M87,36h3v1h-3z M93,36h7v1h-7z M104,36h1v1h-1z M108,36h5v1h-5z M114,36h4v1h-4z M122,35h5v2h-5z M132,36h14v1h-14z M149,36h8v1h-8z M160,36h3v1h-3z M166,35h6v2h-6z M182,36h8v1h-8z M197,36h4v1h-4z M203,36h5v1h-5z M213,36h4v1h-4z M221,36h5v1h-5z M227,36h5v1h-5z M239,36h9v1h-9z M7,37h5v1h-5z M16,37h5v1h-5z M25,37h5v1h-5z M33,37h4v1h-4z M43,37h9v1h-9z M60,37h6v1h-6z M70,36h4v2h-4z M77,36h6v2h-6z M92,37h9v1h-9z M107,37h5v1h-5z M115,37h4v1h-4z M121,37h7v1h-7z M142,37h4v1h-4z M166,37h7v1h-7z M180,37h5v1h-5z M187,37h4v1h-4z M196,37h4v1h-4z M205,37h3v1h-3z M211,37h5v1h-5z M222,37h9v1h-9z M240,37h7v1h-7z M257,36h6v2h-6z M1,37h4v2h-4z M8,38h5v1h-5z M16,38h4v1h-4z M26,38h11v1h-11z M43,38h8v1h-8z M61,38h5v1h-5z M71,38h3v1h-3z M76,38h8v1h-8z M91,38h5v1h-5z M97,38h4v1h-4z M106,38h4v1h-4z M116,38h12v1h-12z M143,38h2v1h-2z M150,37h6v2h-6z M160,37h4v2h-4z M165,38h8v1h-8z M180,38h4v1h-4z M188,38h4v1h-4z M195,38h4v1h-4z M206,38h9v1h-9z M218,38h1v1h-1z M223,38h7v1h-7z M234,38h2v1h-2z M240,38h6v1h-6z M249,36h3v3h-3z M256,38h7v1h-7z M1,39h5v1h-5z M9,39h11v1h-11z M27,39h9v1h-9z M38,38h2v2h-2z M54,37h3v3h-3z M60,39h7v1h-7z M75,39h10v1h-10z M91,39h4v1h-4z M98,39h5v1h-5z M105,39h5v1h-5z M117,39h11v1h-11z M133,37h7v3h-7z M150,39h7v1h-7z M161,39h8v1h-8z M170,39h4v1h-4z M179,39h4v1h-4z M189,39h9v1h-9z M200,39h2v1h-2z M224,39h5v1h-5z M240,39h7v1h-7z M255,39h8v1h-8z M10,40h8v1h-8z M37,40h3v1h-3z M44,39h6v2h-6z M55,40h1v1h-1z M59,40h9v1h-9z M74,40h4v1h-4z M82,40h4v1h-4z M90,40h5v1h-5z M99,40h10v1h-10z M126,40h2v1h-2z M132,40h8v1h-8z M148,40h10v1h-10z M163,40h4v1h-4z M171,40h4v1h-4z M178,40h3v1h-3z M190,40h7v1h-7z M200,40h3v1h-3z M217,39h3v2h-3z M223,40h6v1h-6z M234,39h3v2h-3z M239,40h8v1h-8z M254,40h9v1h-9z M1,40h6v2h-6z M38,41h3v1h-3z M43,41h8v1h-8z M58,41h4v1h-4z M64,41h5v1h-5z M73,41h5v1h-5z M83,41h4v1h-4z M89,41h6v1h-6z M117,40h6v2h-6z M131,41h10v1h-10z M148,41h5v1h-5z M155,41h4v1h-4z M162,41h4v1h-4z M172,41h9v1h-9z M184,41h2v1h-2z M207,39h6v3h-6z M223,41h7v1h-7z M235,41h13v1h-13z M253,41h4v1h-4z M1,42h5v1h-5z M11,41h6v2h-6z M21,40h3v3h-3z M28,40h6v3h-6z M41,42h11v1h-11z M57,42h3v1h-3z M65,42h5v1h-5z M73,42h3v1h-3z M83,42h9v1h-9z M94,42h2v1h-2z M111,41h3v2h-3z M117,42h7v1h-7z M130,42h5v1h-5z M138,42h4v1h-4z M147,42h4v1h-4z M156,42h4v1h-4z M162,42h3v1h-3z M173,42h7v1h-7z M191,41h5v2h-5z M200,41h4v2h-4z M206,42h7v1h-7z M222,42h9v1h-9z M236,42h6v1h-6z M245,42h4v1h-4z M252,42h4v1h-4z M1,43h4v1h-4z M11,43h7v1h-7z M21,43h2v1h-2z M27,43h8v1h-8z M41,43h5v1h-5z M48,43h5v1h-5z M56,43h4v1h-4z M67,43h9v1h-9z M78,43h2v1h-2z M84,43h7v1h-7z M94,43h3v1h-3z M101,41h6v3h-6z M111,43h2v1h-2z M116,43h9v1h-9z M129,43h5v1h-5z M139,43h4v1h-4z M146,43h4v1h-4z M156,43h9v1h-9z M168,43h2v1h-2z M183,42h4v2h-4z M190,43h7v1h-7z M201,43h1v1h-1z M205,43h9v1h-9z M221,43h4v1h-4z M228,43h4v1h-4z M236,43h5v1h-5z M246,43h10v1h-10z M10,44h8v1h-8z M26,44h10v1h-10z M40,44h5v1h-5z M50,44h9v1h-9z M67,44h8v1h-8z M78,44h3v1h-3z M85,44h6v1h-6z M94,44h2v1h-2z M100,44h7v1h-7z M115,44h4v1h-4z M122,44h4v1h-4z M129,44h4v1h-4z M140,44h9v1h-9z M157,44h7v1h-7z M174,43h5v2h-5z M184,44h3v1h-3z M189,44h9v1h-9z M204,44h5v1h-5z M211,44h4v1h-4z M220,44h4v1h-4z M229,44h4v1h-4z M235,44h5v1h-5z M247,44h8v1h-8z M259,41h4v4h-4z M9,45h4v1h-4z M14,45h5v1h-5z M25,45h5v1h-5z M33,45h11v1h-11z M50,45h8v1h-8z M62,45h3v1h-3z M77,45h4v1h-4z M84,45h7v1h-7z M99,45h10v1h-10z M114,45h5v1h-5z M123,45h10v1h-10z M141,45h7v1h-7z M158,45h5v1h-5z M168,44h3v2h-3z M173,45h7v1h-7z M187,45h5v1h-5z M195,45h4v1h-4z M203,45h6v1h-6z M213,45h4v1h-4z M219,45h5v1h-5z M230,45h9v1h-9z M247,45h7v1h-7z M8,46h4v1h-4z M16,46h5v1h-5z M24,46h5v1h-5z M33,46h9v1h-9z M51,46h6v1h-6z M68,45h6v2h-6z M78,46h2v1h-2z M84,46h8v1h-8z M98,46h5v1h-5z M105,46h5v1h-5z M113,46h5v1h-5z M123,46h9v1h-9z M135,46h2v1h-2z M141,46h6v1h-6z M158,46h6v1h-6z M169,46h12v1h-12z M186,46h5v1h-5z M196,46h4v1h-4z M202,46h8v1h-8z M214,46h8v1h-8z M231,46h7v1h-7z M241,45h3v2h-3z M247,46h6v1h-6z M1,44h3v4h-3z M7,47h4v1h-4z M17,47h10v1h-10z M34,47h8v1h-8z M52,47h5v1h-5z M61,46h4v2h-4z M67,47h8v1h-8z M82,47h11v1h-11z M97,47h5v1h-5z M106,47h5v1h-5z M112,47h6v1h-6z M142,47h5v1h-5z M151,45h3v3h-3z M157,47h8v1h-8z M170,47h5v1h-5z M178,47h5v1h-5z M186,47h4v1h-4z M197,47h9v1h-9z M215,47h6v1h-6z M242,47h1v1h-1z M247,47h7v1h-7z M257,45h6v3h-6z M1,48h4v1h-4z M6,48h4v1h-4z M18,48h8v1h-8z M29,48h3v1h-3z M35,48h6v1h-6z M52,48h6v1h-6z M61,48h1v1h-1z M66,48h9v1h-9z M81,48h5v1h-5z M89,48h4v1h-4z M96,48h6v1h-6z M107,48h9v1h-9z M117,48h4v1h-4z M134,47h4v2h-4z M141,48h7v1h-7z M152,48h1v1h-1z M155,48h5v1h-5z M162,48h3v1h-3z M170,48h4v1h-4z M179,48h10v1h-10z M192,48h2v1h-2z M198,48h7v1h-7z M208,47h3v2h-3z M215,48h5v1h-5z M224,46h3v3h-3z M231,47h6v2h-6z M246,48h9v1h-9z M258,48h5v1h-5z M1,49h8v1h-8z M35,49h7v1h-7z M45,46h3v4h-3z M51,49h8v1h-8z M66,49h4v1h-4z M72,49h5v1h-5z M81,49h4v1h-4z M90,49h12v1h-12z M108,49h7v1h-7z M118,49h3v1h-3z M125,47h6v3h-6z M135,49h2v1h-2z M140,49h9v1h-9z M155,49h4v1h-4z M162,49h4v1h-4z M169,49h4v1h-4z M180,49h8v1h-8z M209,49h1v1h-1z M215,49h6v1h-6z M230,49h8v1h-8z M245,49h4v1h-4z M251,49h5v1h-5z M19,49h6v2h-6z M28,49h4v2h-4z M34,50h8v1h-8z M49,50h4v1h-4z M65,50h4v1h-4z M73,50h5v1h-5z M80,50h4v1h-4z M91,50h8v1h-8z M101,50h2v1h-2z M109,50h5v1h-5z M119,50h1v1h-1z M124,50h8v1h-8z M139,50h4v1h-4z M145,50h5v1h-5z M154,50h4v1h-4z M163,50h9v1h-9z M191,49h4v2h-4z M198,49h6v2h-6z M214,50h7v1h-7z M229,50h10v1h-10z M244,50h4v1h-4z M252,50h5v1h-5z M259,49h4v2h-4z M19,51h7v1h-7z M30,51h1v1h-1z M33,51h10v1h-10z M48,51h4v1h-4z M56,50h4v2h-4z M63,51h5v1h-5z M74,51h10v1h-10z M101,51h3v1h-3z M107,51h8v1h-8z M122,51h11v1h-11z M138,51h5v1h-5z M147,51h4v1h-4z M153,51h4v1h-4z M160,51h1v1h-1z M164,51h7v1h-7z M192,51h3v1h-3z M197,51h8v1h-8z M213,51h9v1h-9z M228,51h5v1h-5z M236,51h4v1h-4z M243,51h4v1h-4z M1,50h7v3h-7z M12,50h3v3h-3z M18,52h8v1h-8z M32,52h5v1h-5z M40,52h4v1h-4z M47,52h4v1h-4z M57,52h10v1h-10z M75,52h7v1h-7z M92,51h6v2h-6z M101,52h1v1h-1z M106,52h9v1h-9z M130,52h4v1h-4z M137,52h6v1h-6z M148,52h8v1h-8z M175,50h3v3h-3z M181,50h6v3h-6z M196,52h10v1h-10z M212,52h4v1h-4z M220,52h3v1h-3z M227,52h5v1h-5z M237,52h9v1h-9z M254,51h9v2h-9z M1,53h8v1h-8z M12,53h2v1h-2z M17,53h10v1h-10z M31,53h5v1h-5z M41,53h10v1h-10z M58,53h8v1h-8z M70,53h1v1h-1z M76,53h6v1h-6z M92,53h7v1h-7z M106,53h11v1h-11z M121,52h6v2h-6z M131,53h13v1h-13z M149,53h6v1h-6z M159,52h3v2h-3z M165,52h6v2h-6z M176,53h2v1h-2z M180,53h8v1h-8z M195,53h4v1h-4z M203,53h4v1h-4z M211,53h4v1h-4z M221,53h3v1h-3z M226,53h5v1h-5z M238,53h7v1h-7z M1,54h9v1h-9z M15,54h5v1h-5z M24,54h4v1h-4z M31,54h4v1h-4z M42,54h7v1h-7z M53,54h2v1h-2z M75,54h7v1h-7z M85,52h3v3h-3z M90,54h10v1h-10z M106,54h5v1h-5z M113,54h5v1h-5z M120,54h8v1h-8z M132,54h7v1h-7z M141,54h3v1h-3z M149,54h5v1h-5z M159,54h2v1h-2z M163,54h8v1h-8z M179,54h4v1h-4z M185,54h4v1h-4z M194,54h5v1h-5z M204,54h4v1h-4z M210,54h4v1h-4z M221,54h9v1h-9z M232,54h1v1h-1z M249,54h1v1h-1z M255,53h8v2h-8z M6,55h4v1h-4z M15,55h4v1h-4z M25,55h9v1h-9z M37,55h2v1h-2z M59,54h6v2h-6z M69,54h3v2h-3z M74,55h8v1h-8z M89,55h5v1h-5z M96,55h5v1h-5z M105,55h5v1h-5z M114,55h14v1h-14z M149,55h6v1h-6z M163,55h10v1h-10z M177,55h5v1h-5z M186,55h4v1h-4z M193,55h5v1h-5z M205,55h8v1h-8z M219,55h2v1h-2z M239,54h5v2h-5z M254,55h9v1h-9z M1,55h3v2h-3z M7,56h5v1h-5z M14,56h5v1h-5z M26,56h7v1h-7z M43,55h5v2h-5z M58,56h7v1h-7z M70,56h1v1h-1z M73,56h5v1h-5z M79,56h4v1h-4z M88,56h5v1h-5z M97,56h5v1h-5z M104,56h5v1h-5z M115,56h7v1h-7z M125,56h3v1h-3z M133,55h5v2h-5z M148,56h8v1h-8z M162,56h4v1h-4z M169,56h4v1h-4z M177,56h4v1h-4z M187,56h10v1h-10z M200,56h2v1h-2z M217,56h4v1h-4z M222,55h6v2h-6z M232,55h2v2h-2z M238,56h7v1h-7z M253,56h9v1h-9z M8,57h9v1h-9z M20,57h2v1h-2z M37,56h3v2h-3z M42,57h7v1h-7z M52,55h4v3h-4z M58,57h9v1h-9z M72,57h5v1h-5z M80,57h4v1h-4z M88,57h4v1h-4z M98,57h10v1h-10z M126,57h2v1h-2z M132,57h7v1h-7z M146,57h5v1h-5z M153,57h4v1h-4z M161,57h4v1h-4z M170,57h10v1h-10z M188,57h8v1h-8z M217,57h11v1h-11z M237,57h8v1h-8z M252,57h5v1h-5z M1,57h4v2h-4z M26,57h6v2h-6z M37,58h2v1h-2z M41,58h9v1h-9z M57,58h4v1h-4z M63,58h4v1h-4z M71,58h5v1h-5z M81,58h10v1h-10z M94,58h1v1h-1z M99,58h7v1h-7z M116,57h6v2h-6z M131,58h9v1h-9z M145,58h4v1h-4z M153,58h5v1h-5z M160,58h4v1h-4z M171,58h8v1h-8z M183,58h2v1h-2z M199,57h3v2h-3z M206,56h6v3h-6z M218,58h11v1h-11z M235,58h6v1h-6z M243,58h3v1h-3z M251,58h5v1h-5z M19,58h3v2h-3z M25,59h8v1h-8z M40,59h5v1h-5z M46,59h5v1h-5z M56,59h4v1h-4z M65,59h4v1h-4z M70,59h5v1h-5z M82,59h8v1h-8z M100,59h5v1h-5z M109,57h3v3h-3z M116,59h7v1h-7z M130,59h4v1h-4z M137,59h4v1h-4z M144,59h4v1h-4z M154,59h10v1h-10z M200,59h2v1h-2z M205,59h8v1h-8z M219,59h12v1h-12z M235,59h5v1h-5z M244,59h4v1h-4z M250,59h5v1h-5z M1,59h5v2h-5z M20,60h2v1h-2z M24,60h10v1h-10z M39,60h4v1h-4z M48,60h4v1h-4z M55,60h4v1h-4z M66,60h8v1h-8z M93,59h3v2h-3z M100,60h6v1h-6z M109,60h1v1h-1z M115,60h8v1h-8z M129,60h4v1h-4z M138,60h9v1h-9z M150,60h2v1h-2z M166,59h3v2h-3z M182,59h3v2h-3z M189,58h6v3h-6z M204,60h9v1h-9z M219,60h4v1h-4z M226,60h5v1h-5z M234,60h5v1h-5z M245,60h10v1h-10z M1,61h4v1h-4z M9,58h7v4h-7z M24,61h4v1h-4z M30,61h5v1h-5z M38,61h4v1h-4z M48,61h10v1h-10z M61,61h1v1h-1z M66,61h7v1h-7z M77,61h1v1h-1z M99,61h8v1h-8z M114,61h4v1h-4z M120,61h4v1h-4z M128,61h5v1h-5z M139,61h7v1h-7z M156,60h6v2h-6z M166,61h4v1h-4z M172,59h6v3h-6z M183,61h1v1h-1z M188,61h8v1h-8z M203,61h5v1h-5z M210,61h4v1h-4z M218,61h5v1h-5z M228,61h10v1h-10z M246,61h7v1h-7z M255,61h3v1h-3z M259,57h4v5h-4z M8,62h9v1h-9z M23,62h4v1h-4z M31,62h10v1h-10z M50,62h7v1h-7z M60,62h3v1h-3z M77,62h2v1h-2z M83,60h6v3h-6z M97,62h11v1h-11z M113,62h4v1h-4z M121,62h5v1h-5z M127,62h4v1h-4z M133,62h3v1h-3z M149,61h4v2h-4z M155,62h7v1h-7z M167,62h2v1h-2z M171,62h9v1h-9z M186,62h5v1h-5z M193,62h4v1h-4z M202,62h4v1h-4z M211,62h10v1h-10z M229,62h7v1h-7z M239,62h3v1h-3z M256,62h7v1h-7z M7,63h5v1h-5z M13,63h5v1h-5z M21,63h5v1h-5z M33,63h8v1h-8z M61,63h2v1h-2z M67,62h6v2h-6z M81,63h9v1h-9z M96,63h5v1h-5z M104,63h5v1h-5z M112,63h5v1h-5z M122,63h8v1h-8z M133,63h4v1h-4z M140,62h6v2h-6z M150,63h2v1h-2z M154,63h9v1h-9z M170,63h5v1h-5z M177,63h4v1h-4z M185,63h5v1h-5z M194,63h4v1h-4z M201,63h4v1h-4z M212,63h9v1h-9z M238,63h4v1h-4z M246,62h6v2h-6z M1,62h3v3h-3z M6,64h4v1h-4z M14,64h16v1h-16z M66,64h8v1h-8z M80,64h11v1h-11z M96,64h4v1h-4z M105,64h14v1h-14z M123,64h6v1h-6z M134,64h2v1h-2z M139,64h7v1h-7z M154,64h10v1h-10z M169,64h4v1h-4z M178,64h3v1h-3z M185,64h4v1h-4z M195,64h9v1h-9z M207,64h2v1h-2z M213,64h7v1h-7z M229,63h6v2h-6z M239,64h3v1h-3z M245,64h8v1h-8z M1,65h9v1h-9z M15,65h9v1h-9z M26,65h4v1h-4z M34,64h6v2h-6z M44,63h2v3h-2z M50,63h6v3h-6z M64,65h11v1h-11z M79,65h5v1h-5z M88,65h4v1h-4z M95,65h5v1h-5z M106,65h9v1h-9z M123,65h7v1h-7z M139,65h8v1h-8z M153,65h4v1h-4z M161,65h4v1h-4z M168,65h4v1h-4z M178,65h9v1h-9z M196,65h7v1h-7z M214,65h5v1h-5z M229,65h7v1h-7z M244,65h10v1h-10z M259,63h4v3h-4z M1,66h8v1h-8z M11,66h1v1h-1z M16,66h8v1h-8z M26,66h5v1h-5z M33,66h7v1h-7z M49,66h8v1h-8z M64,66h4v1h-4z M71,66h5v1h-5z M78,66h5v1h-5z M89,66h10v1h-10z M100,66h3v1h-3z M107,66h7v1h-7z M117,65h2v2h-2z M124,66h6v1h-6z M138,66h4v1h-4z M144,66h4v1h-4z M152,66h4v1h-4z M162,66h9v1h-9z M174,66h2v1h-2z M179,66h8v1h-8z M207,65h3v2h-3z M223,64h3v3h-3z M228,66h9v1h-9z M243,66h5v1h-5z M250,66h5v1h-5z M0,67h8v1h-8z M17,67h6v1h-6z M27,67h3v1h-3z M33,67h8v1h-8z M47,67h5v1h-5z M55,67h3v1h-3z M62,67h5v1h-5z M72,67h10v1h-10z M85,67h1v1h-1z M90,67h7v1h-7z M108,67h6v1h-6z M123,67h8v1h-8z M145,67h4v1h-4z M150,67h6v1h-6z M163,67h7v1h-7z M192,67h1v1h-1z M197,66h5v2h-5z M208,67h1v1h-1z M213,66h7v2h-7z M227,67h4v1h-4z M233,67h5v1h-5z M242,67h6v1h-6z M251,67h5v1h-5z M258,66h5v2h-5z M10,67h3v2h-3z M31,68h11v1h-11z M47,68h4v1h-4z M55,68h5v1h-5z M61,68h5v1h-5z M73,68h8v1h-8z M91,68h6v1h-6z M100,67h4v2h-4z M107,68h7v1h-7z M122,68h9v1h-9z M136,67h5v2h-5z M146,68h8v1h-8z M173,67h4v2h-4z M180,67h6v2h-6z M196,68h7v1h-7z M211,68h10v1h-10z M226,68h4v1h-4z M235,68h4v1h-4z M241,68h9v1h-9z M252,68h11v1h-11z M10,69h2v1h-2z M16,68h8v2h-8z M30,69h5v1h-5z M39,69h4v1h-4z M46,69h4v1h-4z M57,69h8v1h-8z M68,69h2v1h-2z M91,69h5v1h-5z M101,69h2v1h-2z M106,69h8v1h-8z M121,69h5v1h-5z M129,69h3v1h-3z M135,69h7v1h-7z M147,69h7v1h-7z M164,68h5v2h-5z M174,69h2v1h-2z M179,69h7v1h-7z M191,68h3v2h-3z M195,69h9v1h-9z M210,69h4v1h-4z M218,69h4v1h-4z M225,69h4v1h-4z M236,69h9v1h-9z M253,69h10v1h-10z M0,68h7v3h-7z M15,70h10v1h-10z M30,70h4v1h-4z M40,70h9v1h-9z M52,70h1v1h-1z M57,70h7v1h-7z M67,70h4v1h-4z M74,69h6v2h-6z M84,68h3v3h-3z M90,70h7v1h-7z M104,70h11v1h-11z M121,70h4v1h-4z M130,70h8v1h-8z M139,70h4v1h-4z M147,70h6v1h-6z M157,68h3v3h-3z M163,70h7v1h-7z M179,70h9v1h-9z M192,70h6v1h-6z M201,70h4v1h-4z M209,70h5v1h-5z M219,70h10v1h-10z M231,70h1v1h-1z M237,70h7v1h-7z M247,69h3v2h-3z M254,70h9v1h-9z M0,71h8v1h-8z M14,71h4v1h-4z M21,71h5v1h-5z M29,71h4v1h-4z M41,71h7v1h-7z M58,71h6v1h-6z M74,71h7v1h-7z M85,71h1v1h-1z M88,71h10v1h-10z M104,71h5v1h-5z M112,71h4v1h-4z M120,71h5v1h-5z M140,71h3v1h-3z M147,71h7v1h-7z M158,71h2v1h-2z M162,71h9v1h-9z M178,71h4v1h-4z M184,71h5v1h-5z M192,71h5v1h-5z M202,71h4v1h-4z M208,71h5v1h-5z M215,71h3v1h-3z M248,71h2v1h-2z M253,71h10v1h-10z M1,72h8v1h-8z M12,72h6v1h-6z M22,72h10v1h-10z M42,72h5v1h-5z M51,71h3v2h-3z M57,72h7v1h-7z M68,71h3v2h-3z M73,72h8v1h-8z M87,72h5v1h-5z M95,72h4v1h-4z M103,72h5v1h-5z M113,72h14v1h-14z M140,72h2v1h-2z M146,72h8v1h-8z M161,72h4v1h-4z M168,72h4v1h-4z M177,72h4v1h-4z M185,72h4v1h-4z M192,72h4v1h-4z M203,72h9v1h-9z M230,71h4v2h-4z M237,71h6v2h-6z M252,72h11v1h-11z M1,73h9v1h-9z M12,73h5v1h-5z M34,73h3v1h-3z M41,73h6v1h-6z M51,73h2v1h-2z M57,73h8v1h-8z M72,73h5v1h-5z M78,73h4v1h-4z M86,73h5v1h-5z M96,73h11v1h-11z M114,73h8v1h-8z M124,73h3v1h-3z M131,71h6v3h-6z M145,73h4v1h-4z M151,73h4v1h-4z M160,73h4v1h-4z M169,73h4v1h-4z M175,73h4v1h-4z M186,73h9v1h-9z M204,73h7v1h-7z M214,72h4v2h-4z M220,71h7v3h-7z M230,73h3v1h-3z M236,73h8v1h-8z M251,73h11v1h-11z M5,74h10v1h-10z M19,74h1v1h-1z M33,74h4v1h-4z M41,74h7v1h-7z M56,74h9v1h-9z M71,74h4v1h-4z M79,74h5v1h-5z M86,74h4v1h-4z M97,74h9v1h-9z M125,74h2v1h-2z M130,74h8v1h-8z M144,74h4v1h-4z M152,74h4v1h-4z M160,74h3v1h-3z M170,74h9v1h-9z M183,74h1v1h-1z M187,74h7v1h-7z M215,74h3v1h-3z M219,74h9v1h-9z M235,74h10v1h-10z M250,74h5v1h-5z M7,75h8v1h-8z M17,75h4v1h-4z M34,75h2v1h-2z M40,75h9v1h-9z M55,75h5v1h-5z M62,75h5v1h-5z M70,75h4v1h-4z M80,75h10v1h-10z M98,75h7v1h-7z M115,74h6v2h-6z M125,75h3v1h-3z M129,75h10v1h-10z M143,75h4v1h-4z M153,75h10v1h-10z M182,75h3v1h-3z M198,74h2v2h-2z M204,74h6v2h-6z M219,75h10v1h-10z M234,75h5v1h-5z M242,75h4v1h-4z M250,75h4v1h-4z M17,76h3v1h-3z M24,73h7v4h-7z M39,76h4v1h-4z M46,76h4v1h-4z M54,76h5v1h-5z M63,76h10v1h-10z M81,76h8v1h-8z M115,76h7v1h-7z M127,76h5v1h-5z M135,76h5v1h-5z M142,76h4v1h-4z M154,76h7v1h-7z M164,76h2v1h-2z M181,76h4v1h-4z M188,75h6v2h-6z M204,76h7v1h-7z M218,76h4v1h-4z M225,76h4v1h-4z M233,76h5v1h-5z M242,76h11v1h-11z M258,74h5v3h-5z M7,76h7v2h-7z M23,77h9v1h-9z M38,77h4v1h-4z M46,77h6v1h-6z M53,77h5v1h-5z M64,77h8v1h-8z M76,77h1v1h-1z M82,77h6v1h-6z M98,76h6v2h-6z M108,75h3v3h-3z M114,77h8v1h-8z M127,77h4v1h-4z M136,77h9v1h-9z M171,75h6v3h-6z M182,77h3v1h-3z M187,77h8v1h-8z M203,77h9v1h-9z M217,77h4v1h-4z M226,77h5v1h-5z M232,77h5v1h-5z M243,77h9v1h-9z M7,78h8v1h-8z M21,78h5v1h-5z M28,78h5v1h-5z M37,78h4v1h-4z M47,78h9v1h-9z M65,78h7v1h-7z M75,78h3v1h-3z M97,78h8v1h-8z M113,78h10v1h-10z M126,78h4v1h-4z M137,78h7v1h-7z M148,78h3v1h-3z M155,77h6v2h-6z M164,77h3v2h-3z M171,78h7v1h-7z M183,78h13v1h-13z M201,78h5v1h-5z M209,78h4v1h-4z M216,78h5v1h-5z M227,78h9v1h-9z M244,78h7v1h-7z M1,74h3v6h-3z M6,79h10v1h-10z M21,79h4v1h-4z M29,79h11v1h-11z M65,79h6v1h-6z M75,79h4v1h-4z M81,78h7v2h-7z M92,77h2v3h-2z M96,79h10v1h-10z M112,79h5v1h-5z M120,79h10v1h-10z M131,79h2v1h-2z M147,79h4v1h-4z M154,79h7v1h-7z M170,79h9v1h-9z M192,79h5v1h-5z M200,79h5v1h-5z M210,79h9v1h-9z M222,79h2v1h-2z M228,79h7v1h-7z M245,79h6v1h-6z M255,77h8v3h-8z M12,80h5v1h-5z M20,80h4v1h-4z M30,80h9v1h-9z M43,80h2v1h-2z M49,79h6v2h-6z M59,78h2v3h-2z M65,80h7v1h-7z M76,80h1v1h-1z M80,80h9v1h-9z M95,80h5v1h-5z M104,80h3v1h-3z M111,80h5v1h-5z M121,80h7v1h-7z M130,80h4v1h-4z M138,79h6v2h-6z M148,80h3v1h-3z M153,80h9v1h-9z M170,80h2v1h-2z M176,80h4v1h-4z M184,79h5v2h-5z M193,80h4v1h-4z M200,80h4v1h-4z M210,80h8v1h-8z M221,80h3v1h-3z M239,78h3v3h-3z M244,80h7v1h-7z M256,80h7v1h-7z M1,80h8v2h-8z M13,81h10v1h-10z M31,81h7v1h-7z M42,81h4v1h-4z M48,81h7v1h-7z M64,81h9v1h-9z M78,81h6v1h-6z M86,81h4v1h-4z M95,81h4v1h-4z M104,81h4v1h-4z M110,81h6v1h-6z M131,81h3v1h-3z M137,81h8v1h-8z M149,81h1v1h-1z M152,81h4v1h-4z M159,81h4v1h-4z M168,81h3v1h-3z M177,81h4v1h-4z M184,81h3v1h-3z M194,81h9v1h-9z M205,81h3v1h-3z M221,81h4v1h-4z M228,80h6v2h-6z M239,81h2v1h-2z M243,81h9v1h-9z M258,81h5v1h-5z M1,82h7v1h-7z M14,82h7v1h-7z M26,82h1v1h-1z M32,82h6v1h-6z M43,82h2v1h-2z M48,82h8v1h-8z M63,82h4v1h-4z M69,82h4v1h-4z M78,82h5v1h-5z M87,82h5v1h-5z M93,82h6v1h-6z M105,82h9v1h-9z M116,82h1v1h-1z M122,81h6v2h-6z M131,82h2v1h-2z M136,82h10v1h-10z M151,82h4v1h-4z M160,82h4v1h-4z M167,82h4v1h-4z M178,82h8v1h-8z M195,82h7v1h-7z M211,81h6v2h-6z M222,82h2v1h-2z M227,82h8v1h-8z M243,82h10v1h-10z M259,82h4v1h-4z M1,83h5v1h-5z M9,83h1v1h-1z M31,83h7v1h-7z M47,83h10v1h-10z M62,83h4v1h-4z M70,83h5v1h-5z M77,83h6v1h-6z M88,83h9v1h-9z M99,83h2v1h-2z M106,83h7v1h-7z M122,83h7v1h-7z M135,83h4v1h-4z M143,83h4v1h-4z M150,83h4v1h-4z M161,83h9v1h-9z M190,83h2v1h-2z M196,83h5v1h-5z M205,82h4v2h-4z M210,83h8v1h-8z M226,83h10v1h-10z M241,83h5v1h-5z M249,83h5v1h-5z M258,83h5v1h-5z M15,83h6v2h-6z M25,83h3v2h-3z M31,84h8v1h-8z M54,84h3v1h-3z M61,84h4v1h-4z M71,84h12v1h-12z M89,84h7v1h-7z M107,84h6v1h-6z M116,83h2v2h-2z M121,84h8v1h-8z M134,84h5v1h-5z M143,84h10v1h-10z M162,84h7v1h-7z M171,83h4v2h-4z M189,84h4v1h-4z M195,84h7v1h-7z M205,84h14v1h-14z M226,84h3v1h-3z M233,84h4v1h-4z M240,84h5v1h-5z M250,84h4v1h-4z M257,84h6v1h-6z M8,84h3v2h-3z M15,85h7v1h-7z M26,85h2v1h-2z M30,85h10v1h-10z M45,84h5v2h-5z M55,85h9v1h-9z M66,85h2v1h-2z M72,85h8v1h-8z M89,85h6v1h-6z M99,84h3v2h-3z M106,85h7v1h-7z M120,85h4v1h-4z M126,85h4v1h-4z M133,85h6v1h-6z M144,85h8v1h-8z M156,85h2v1h-2z M172,85h2v1h-2z M179,83h6v3h-6z M190,85h2v1h-2z M195,85h8v1h-8z M208,85h5v1h-5z M215,85h5v1h-5z M225,85h4v1h-4z M234,85h4v1h-4z M240,85h4v1h-4z M251,85h12v1h-12z M1,84h4v3h-4z M13,86h11v1h-11z M29,86h4v1h-4z M37,86h4v1h-4z M44,86h5v1h-5z M56,86h7v1h-7z M82,85h3v2h-3z M100,86h1v1h-1z M105,86h8v1h-8z M119,86h4v1h-4z M127,86h9v1h-9z M138,86h2v1h-2z M155,86h3v1h-3z M163,85h5v2h-5z M178,86h8v1h-8z M193,86h10v1h-10z M207,86h6v1h-6z M216,86h4v1h-4z M223,86h5v1h-5z M235,86h8v1h-8z M252,86h11v1h-11z M1,87h5v1h-5z M13,87h4v1h-4z M19,87h5v1h-5z M27,87h5v1h-5z M38,87h10v1h-10z M66,86h3v2h-3z M73,86h6v2h-6z M89,86h7v2h-7z M105,87h9v1h-9z M119,87h3v1h-3z M128,87h7v1h-7z M138,87h3v1h-3z M145,86h6v2h-6z M156,87h2v1h-2z M162,87h7v1h-7z M178,87h9v1h-9z M192,87h5v1h-5z M200,87h5v1h-5z M207,87h4v1h-4z M218,87h9v1h-9z M229,87h2v1h-2z M1,88h6v1h-6z M12,88h4v1h-4z M20,88h5v1h-5z M26,88h6v1h-6z M56,87h6v2h-6z M67,88h2v1h-2z M72,88h7v1h-7z M88,88h9v1h-9z M103,88h5v1h-5z M111,88h5v1h-5z M118,88h4v1h-4z M139,88h2v1h-2z M145,88h7v1h-7z M161,88h4v1h-4z M166,88h4v1h-4z M176,88h4v1h-4z M184,88h5v1h-5z M191,88h5v1h-5z M201,88h9v1h-9z M218,88h8v1h-8z M246,87h3v2h-3z M253,87h10v2h-10z M1,89h7v1h-7z M11,89h4v1h-4z M21,89h9v1h-9z M56,89h7v1h-7z M71,89h10v1h-10z M87,89h4v1h-4z M94,89h4v1h-4z M103,89h4v1h-4z M112,89h9v1h-9z M124,89h1v1h-1z M129,88h6v2h-6z M144,89h9v1h-9z M160,89h4v1h-4z M168,89h3v1h-3z M176,89h3v1h-3z M185,89h10v1h-10z M202,89h7v1h-7z M236,87h6v3h-6z M247,89h2v1h-2z M252,89h11v1h-11z M1,90h13v1h-13z M16,90h2v1h-2z M22,90h7v1h-7z M50,87h2v4h-2z M55,90h9v1h-9z M70,90h5v1h-5z M77,90h5v1h-5z M86,90h4v1h-4z M95,90h5v1h-5z M102,90h5v1h-5z M124,90h2v1h-2z M129,90h7v1h-7z M143,90h5v1h-5z M149,90h5v1h-5z M159,90h4v1h-4z M168,90h5v1h-5z M174,90h5v1h-5z M219,89h6v2h-6z M229,88h3v3h-3z M235,90h8v1h-8z M250,90h13v1h-13z M1,91h12v1h-12z M23,91h6v1h-6z M33,90h3v2h-3z M39,88h7v4h-7z M54,91h4v1h-4z M61,91h4v1h-4z M69,91h5v1h-5z M78,91h5v1h-5z M85,91h5v1h-5z M96,91h13v1h-13z M113,90h6v2h-6z M125,91h1v1h-1z M127,91h10v1h-10z M143,91h4v1h-4z M150,91h5v1h-5z M159,91h3v1h-3z M169,91h9v1h-9z M180,91h2v1h-2z M186,90h7v2h-7z M203,90h6v2h-6z M213,90h3v2h-3z M218,91h7v1h-7z M234,91h10v1h-10z M250,91h4v1h-4z M257,91h6v1h-6z M1,92h11v1h-11z M15,91h4v2h-4z M23,92h7v1h-7z M38,92h8v1h-8z M53,92h4v1h-4z M62,92h4v1h-4z M68,92h5v1h-5z M79,92h9v1h-9z M106,92h3v1h-3z M127,92h3v1h-3z M134,92h4v1h-4z M142,92h3v1h-3z M151,92h9v1h-9z M170,92h7v1h-7z M179,92h4v1h-4z M187,92h6v1h-6z M197,90h2v3h-2z M202,92h7v1h-7z M213,92h2v1h-2z M217,92h9v1h-9z M233,92h4v1h-4z M240,92h5v1h-5z M249,92h4v1h-4z M16,93h3v1h-3z M22,93h8v1h-8z M36,93h12v1h-12z M52,93h4v1h-4z M90,92h3v2h-3z M107,93h2v1h-2z M113,92h7v2h-7z M126,93h4v1h-4z M135,93h4v1h-4z M140,93h4v1h-4z M152,93h7v1h-7z M180,93h2v1h-2z M186,93h7v1h-7z M201,93h9v1h-9z M217,93h4v1h-4z M223,93h4v1h-4z M232,93h4v1h-4z M241,93h5v1h-5z M248,93h4v1h-4z M258,92h5v2h-5z M0,93h4v2h-4z M6,93h6v2h-6z M21,94h10v1h-10z M36,94h5v1h-5z M45,94h4v1h-4z M51,94h4v1h-4z M63,93h8v2h-8z M90,94h2v1h-2z M112,94h9v1h-9z M125,94h3v1h-3z M163,92h3v3h-3z M170,93h6v2h-6z M186,94h8v1h-8z M200,94h4v1h-4z M207,94h4v1h-4z M216,94h4v1h-4z M224,94h5v1h-5z M231,94h4v1h-4z M242,94h9v1h-9z M255,94h1v1h-1z M0,95h13v1h-13z M20,95h5v1h-5z M27,95h5v1h-5z M35,95h5v1h-5z M46,95h8v1h-8z M80,93h7v3h-7z M97,92h7v4h-7z M111,95h4v1h-4z M118,95h4v1h-4z M123,95h5v1h-5z M130,95h2v1h-2z M136,94h7v2h-7z M147,95h2v1h-2z M153,94h6v2h-6z M169,95h8v1h-8z M185,95h3v1h-3z M190,95h5v1h-5z M199,95h4v1h-4z M208,95h4v1h-4z M215,95h4v1h-4z M225,95h9v1h-9z M243,95h7v1h-7z M254,95h3v1h-3z M1,96h13v1h-13z M19,96h5v1h-5z M28,96h11v1h-11z M46,96h7v1h-7z M64,95h6v2h-6z M74,95h3v2h-3z M80,96h8v1h-8z M95,96h10v1h-10z M110,96h4v1h-4z M119,96h8v1h-8z M137,96h5v1h-5z M146,96h4v1h-4z M153,96h7v1h-7z M168,96h5v1h-5z M174,96h4v1h-4z M184,96h4v1h-4z M192,96h4v1h-4z M198,96h4v1h-4z M209,96h9v1h-9z M221,96h1v1h-1z M226,96h7v1h-7z M237,95h2v2h-2z M253,96h4v1h-4z M259,94h4v3h-4z M1,97h6v1h-6z M10,97h5v1h-5z M18,97h5v1h-5z M28,97h10v1h-10z M58,97h1v1h-1z M64,97h7v1h-7z M78,97h10v1h-10z M94,97h5v1h-5z M103,97h3v1h-3z M109,97h5v1h-5z M120,97h6v1h-6z M130,96h3v2h-3z M136,97h7v1h-7z M147,97h2v1h-2z M152,97h9v1h-9z M167,97h4v1h-4z M175,97h4v1h-4z M182,97h5v1h-5z M193,97h8v1h-8z M210,97h7v1h-7z M237,97h3v1h-3z M244,96h6v2h-6z M254,97h3v1h-3z M1,98h5v1h-5z M11,98h11v1h-11z M47,97h6v2h-6z M62,98h10v1h-10z M78,98h4v1h-4z M85,98h4v1h-4z M94,98h4v1h-4z M104,98h9v1h-9z M116,98h1v1h-1z M135,98h8v1h-8z M151,98h4v1h-4z M158,98h3v1h-3z M166,98h4v1h-4z M176,98h10v1h-10z M205,98h2v1h-2z M210,98h6v1h-6z M226,97h6v2h-6z M243,98h8v1h-8z M258,97h5v2h-5z M1,99h4v1h-4z M12,99h8v1h-8z M40,98h2v2h-2z M46,99h8v1h-8z M61,99h4v1h-4z M69,99h4v1h-4z M76,99h5v1h-5z M86,99h4v1h-4z M92,99h6v1h-6z M104,99h7v1h-7z M115,99h2v1h-2z M120,98h7v2h-7z M135,99h5v1h-5z M141,99h4v1h-4z M149,99h5v1h-5z M159,99h4v1h-4z M165,99h5v1h-5z M177,99h7v1h-7z M204,99h3v1h-3z M211,99h5v1h-5z M221,97h2v3h-2z M226,99h7v1h-7z M242,99h10v1h-10z M13,100h6v1h-6z M30,98h7v3h-7z M45,100h10v1h-10z M60,100h4v1h-4z M70,100h3v1h-3z M75,100h5v1h-5z M87,100h13v1h-13z M105,100h6v1h-6z M119,100h8v1h-8z M133,100h5v1h-5z M142,100h4v1h-4z M149,100h4v1h-4z M160,100h9v1h-9z M171,100h2v1h-2z M187,99h2v2h-2z M194,98h6v3h-6z M205,100h1v1h-1z M210,100h7v1h-7z M224,100h10v1h-10z M241,100h4v1h-4z M248,100h5v1h-5z M256,99h6v2h-6z M7,101h2v1h-2z M23,99h3v3h-3z M29,101h9v1h-9z M44,101h5v1h-5z M52,101h4v1h-4z M59,101h5v1h-5z M71,101h8v1h-8z M82,101h2v1h-2z M97,101h4v1h-4z M119,101h9v1h-9z M133,101h4v1h-4z M142,101h10v1h-10z M154,101h2v1h-2z M188,101h1v1h-1z M193,101h8v1h-8z M209,101h9v1h-9z M224,101h4v1h-4z M231,101h4v1h-4z M240,101h6v1h-6z M249,101h13v1h-13z M8,102h1v1h-1z M13,101h7v2h-7z M28,102h11v1h-11z M43,102h5v1h-5z M53,102h10v1h-10z M81,102h3v1h-3z M98,102h3v1h-3z M104,101h7v2h-7z M118,102h4v1h-4z M125,102h5v1h-5z M132,102h3v1h-3z M144,102h7v1h-7z M171,101h3v2h-3z M178,100h6v3h-6z M192,102h10v1h-10z M208,102h3v1h-3z M215,102h4v1h-4z M223,102h4v1h-4z M232,102h4v1h-4z M239,102h8v1h-8z M250,102h12v1h-12z M12,103h9v1h-9z M27,103h5v1h-5z M35,103h5v1h-5z M42,103h5v1h-5z M53,103h9v1h-9z M65,103h2v1h-2z M82,103h2v1h-2z M99,103h1v1h-1z M103,103h9v1h-9z M126,103h9v1h-9z M137,103h3v1h-3z M153,102h4v2h-4z M161,101h6v3h-6z M172,103h1v1h-1z M176,103h9v1h-9z M191,103h4v1h-4z M199,103h3v1h-3z M207,103h4v1h-4z M216,103h4v1h-4z M222,103h4v1h-4z M233,103h9v1h-9z M243,103h5v1h-5z M251,103h11v1h-11z M1,100h3v5h-3z M11,104h4v1h-4z M17,104h5v1h-5z M26,104h5v1h-5z M36,104h10v1h-10z M64,104h3v1h-3z M72,102h6v3h-6z M88,101h7v4h-7z M102,104h5v1h-5z M108,104h5v1h-5z M117,103h4v2h-4z M127,104h7v1h-7z M136,104h4v1h-4z M144,103h6v2h-6z M155,104h1v1h-1z M160,104h8v1h-8z M176,104h4v1h-4z M182,104h4v1h-4z M190,104h4v1h-4z M199,104h5v1h-5z M206,104h4v1h-4z M217,104h8v1h-8z M229,104h1v1h-1z M234,104h7v1h-7z M244,104h4v1h-4z M251,104h6v1h-6z M258,104h4v1h-4z M1,105h4v1h-4z M10,105h5v1h-5z M18,105h12v1h-12z M36,105h8v1h-8z M65,105h2v1h-2z M71,105h8v1h-8z M87,105h9v1h-9z M101,105h4v1h-4z M109,105h12v1h-12z M137,105h3v1h-3z M144,105h7v1h-7z M159,105h10v1h-10z M175,105h3v1h-3z M183,105h4v1h-4z M189,105h4v1h-4z M201,105h11v1h-11z M217,105h7v1h-7z M245,105h2v1h-2z M251,105h11v1h-11z M1,106h5v1h-5z M9,106h5v1h-5z M19,106h10v1h-10z M37,106h7v1h-7z M48,105h2v2h-2z M54,104h7v3h-7z M69,106h10v1h-10z M86,106h4v1h-4z M93,106h4v1h-4z M100,106h4v1h-4z M111,106h7v1h-7z M120,106h2v1h-2z M128,105h5v2h-5z M137,106h2v1h-2z M143,106h9v1h-9z M159,106h4v1h-4z M166,106h4v1h-4z M174,106h3v1h-3z M184,106h9v1h-9z M195,106h2v1h-2z M210,106h3v1h-3z M218,106h5v1h-5z M228,105h3v2h-3z M235,105h5v2h-5z M250,106h12v1h-12z M20,107h8v1h-8z M38,107h6v1h-6z M53,107h8v1h-8z M69,107h4v1h-4z M77,107h3v1h-3z M85,107h5v1h-5z M94,107h9v1h-9z M121,107h1v1h-1z M128,107h6v1h-6z M142,107h4v1h-4z M149,107h4v1h-4z M157,107h5v1h-5z M166,107h5v1h-5z M173,107h4v1h-4z M211,107h2v1h-2z M218,107h6v1h-6z M229,107h1v1h-1z M234,107h7v1h-7z M249,107h13v1h-13z M0,107h12v2h-12z M37,108h8v1h-8z M52,108h5v1h-5z M58,108h5v1h-5z M68,108h4v1h-4z M78,108h4v1h-4z M84,108h5v1h-5z M112,107h6v2h-6z M126,108h9v1h-9z M141,108h4v1h-4z M149,108h5v1h-5z M156,108h4v1h-4z M167,108h9v1h-9z M179,108h2v1h-2z M194,107h3v2h-3z M201,106h7v3h-7z M218,108h7v1h-7z M234,108h8v1h-8z M248,108h4v1h-4z M256,108h6v1h-6z M0,109h11v1h-11z M21,108h6v2h-6z M31,107h3v3h-3z M36,109h10v1h-10z M51,109h5v1h-5z M60,109h4v1h-4z M66,109h5v1h-5z M79,109h8v1h-8z M95,108h7v2h-7z M106,108h3v2h-3z M112,109h7v1h-7z M126,109h3v1h-3z M132,109h4v1h-4z M140,109h4v1h-4z M151,109h9v1h-9z M169,109h6v1h-6z M178,109h3v1h-3z M185,107h6v3h-6z M201,109h8v1h-8z M217,109h3v1h-3z M222,109h4v1h-4z M232,109h4v1h-4z M238,109h5v1h-5z M247,109h5v1h-5z M257,109h5v1h-5z M1,110h10v1h-10z M14,108h3v3h-3z M20,110h8v1h-8z M32,110h2v1h-2z M35,110h5v1h-5z M42,110h5v1h-5z M50,110h5v1h-5z M60,110h10v1h-10z M73,110h2v1h-2z M96,110h6v1h-6z M107,110h1v1h-1z M111,110h9v1h-9z M126,110h2v1h-2z M133,110h10v1h-10z M151,110h8v1h-8z M161,110h3v1h-3z M179,110h2v1h-2z M185,110h7v1h-7z M200,110h10v1h-10z M215,110h3v1h-3z M223,110h4v1h-4z M231,110h4v1h-4z M240,110h4v1h-4z M247,110h3v1h-3z M15,111h2v1h-2z M19,111h10v1h-10z M34,111h5v1h-5z M43,111h11v1h-11z M61,111h8v1h-8z M89,110h2v2h-2z M95,111h7v1h-7z M109,111h5v1h-5z M116,111h4v1h-4z M125,111h5v1h-5z M135,111h7v1h-7z M145,111h2v1h-2z M161,111h4v1h-4z M169,110h5v2h-5z M184,111h9v1h-9z M199,111h4v1h-4z M206,111h4v1h-4z M214,111h4v1h-4z M224,111h4v1h-4z M230,111h4v1h-4z M241,111h8v1h-8z M252,111h2v1h-2z M1,111h11v2h-11z M18,112h6v1h-6z M26,112h3v1h-3z M33,112h5v1h-5z M44,112h9v1h-9z M72,111h4v2h-4z M80,110h6v3h-6z M94,112h9v1h-9z M108,112h5v1h-5z M117,112h9v1h-9z M135,112h6v1h-6z M152,111h6v2h-6z M161,112h3v1h-3z M168,112h7v1h-7z M182,112h4v1h-4z M190,112h4v1h-4z M198,112h4v1h-4z M207,112h9v1h-9z M225,112h9v1h-9z M237,112h2v1h-2z M252,112h3v1h-3z M1,113h6v1h-6z M8,113h6v1h-6z M17,113h5v1h-5z M27,113h10v1h-10z M73,113h2v1h-2z M78,113h9v1h-9z M93,113h4v1h-4z M100,113h5v1h-5z M108,113h4v1h-4z M117,113h8v1h-8z M127,112h4v2h-4z M136,113h5v1h-5z M151,113h8v1h-8z M167,113h4v1h-4z M172,113h5v1h-5z M181,113h5v1h-5z M191,113h10v1h-10z M208,113h8v1h-8z M225,113h8v1h-8z M236,113h4v1h-4z M252,113h2v1h-2z M258,110h4v4h-4z M1,114h5v1h-5z M9,114h12v1h-12z M27,114h9v1h-9z M39,114h2v1h-2z M62,112h6v3h-6z M77,114h11v1h-11z M92,114h4v1h-4z M101,114h10v1h-10z M113,114h2v1h-2z M119,114h6v1h-6z M128,114h3v1h-3z M135,114h7v1h-7z M145,112h3v3h-3z M150,114h10v1h-10z M165,114h5v1h-5z M174,114h3v1h-3z M180,114h5v1h-5z M192,114h8v1h-8z M237,114h3v1h-3z M242,112h6v3h-6z M257,114h5v1h-5z M0,115h5v1h-5z M6,115h2v1h-2z M10,115h15v1h-15z M28,115h7v1h-7z M45,113h7v3h-7z M56,113h2v3h-2z M61,115h8v1h-8z M76,115h5v1h-5z M85,115h4v1h-4z M91,115h5v1h-5z M102,115h8v1h-8z M120,115h5v1h-5z M134,115h9v1h-9z M149,115h5v1h-5z M156,115h5v1h-5z M165,115h4v1h-4z M174,115h10v1h-10z M187,115h1v1h-1z M219,114h2v2h-2z M226,114h6v2h-6z M237,115h2v1h-2z M241,115h8v1h-8z M256,115h6v1h-6z M11,116h8v1h-8z M21,116h4v1h-4z M39,115h3v2h-3z M45,116h8v1h-8z M60,116h4v1h-4z M67,116h4v1h-4z M75,116h5v1h-5z M85,116h9v1h-9z M112,115h4v2h-4z M119,116h6v1h-6z M133,116h4v1h-4z M139,116h5v1h-5z M148,116h5v1h-5z M157,116h5v1h-5z M164,116h4v1h-4z M176,116h6v1h-6z M186,116h2v1h-2z M209,114h6v3h-6z M225,116h7v1h-7z M240,116h10v1h-10z M255,116h7v1h-7z M0,116h4v2h-4z M6,116h3v2h-3z M22,117h3v1h-3z M29,116h6v2h-6z M40,117h1v1h-1z M42,117h13v1h-13z M59,117h4v1h-4z M68,117h4v1h-4z M74,117h5v1h-5z M103,116h6v2h-6z M113,117h2v1h-2z M119,117h8v1h-8z M140,117h5v1h-5z M147,117h5v1h-5z M158,117h8v1h-8z M169,117h3v1h-3z M176,117h5v1h-5z M185,117h3v1h-3z M193,115h6v3h-6z M202,115h3v3h-3z M208,117h8v1h-8z M224,117h9v1h-9z M239,117h5v1h-5z M246,117h4v1h-4z M254,117h8v1h-8z M7,118h1v1h-1z M12,117h6v2h-6z M28,118h8v1h-8z M42,118h5v1h-5z M50,118h5v1h-5z M58,118h4v1h-4z M69,118h10v1h-10z M97,117h3v2h-3z M102,118h8v1h-8z M118,118h3v1h-3z M123,118h4v1h-4z M132,117h4v2h-4z M142,118h9v1h-9z M153,118h2v1h-2z M159,118h7v1h-7z M170,118h2v1h-2z M176,118h6v1h-6z M186,118h2v1h-2z M192,118h8v1h-8z M207,118h4v1h-4z M223,118h5v1h-5z M231,118h4v1h-4z M239,118h3v1h-3z M247,118h5v1h-5z M253,118h9v1h-9z M1,118h3v2h-3z M11,119h8v1h-8z M26,119h10v1h-10z M41,119h5v1h-5z M51,119h10v1h-10z M70,119h8v1h-8z M80,119h3v1h-3z M87,117h6v3h-6z M101,119h10v1h-10z M117,119h3v1h-3z M124,119h5v1h-5z M131,119h3v1h-3z M142,119h8v1h-8z M160,119h5v1h-5z M175,119h8v1h-8z M191,119h5v1h-5z M197,119h4v1h-4z M205,119h5v1h-5z M214,118h4v2h-4z M222,119h5v1h-5z M231,119h5v1h-5z M238,119h3v1h-3z M248,119h8v1h-8z M258,119h4v1h-4z M1,120h4v1h-4z M10,120h10v1h-10z M25,120h5v1h-5z M33,120h5v1h-5z M40,120h5v1h-5z M52,120h8v1h-8z M63,120h1v1h-1z M70,120h7v1h-7z M80,120h2v1h-2z M86,120h8v1h-8z M101,120h4v1h-4z M107,120h5v1h-5z M117,120h2v1h-2z M125,120h8v1h-8z M136,120h2v1h-2z M159,120h7v1h-7z M174,120h10v1h-10z M190,120h4v1h-4z M198,120h3v1h-3z M205,120h4v1h-4z M215,120h5v1h-5z M221,120h6v1h-6z M232,120h8v1h-8z M249,120h6v1h-6z M0,121h5v1h-5z M9,121h5v1h-5z M16,121h5v1h-5z M24,121h5v1h-5z M34,121h10v1h-10z M62,121h3v1h-3z M70,121h6v1h-6z M85,121h10v1h-10z M100,121h4v1h-4z M108,121h5v1h-5z M115,121h3v1h-3z M136,121h3v1h-3z M143,120h6v2h-6z M152,119h4v3h-4z M173,121h5v1h-5z M180,121h5v1h-5z M189,121h4v1h-4z M199,121h10v1h-10z M216,121h8v1h-8z M233,121h6v1h-6z M250,121h5v1h-5z M0,122h7v1h-7z M8,122h5v1h-5z M17,122h11v1h-11z M35,122h8v1h-8z M70,122h7v1h-7z M84,122h4v1h-4z M91,122h5v1h-5z M99,122h5v1h-5z M109,122h8v1h-8z M126,121h6v2h-6z M136,122h2v1h-2z M143,122h7v1h-7z M153,122h2v1h-2z M158,121h9v2h-9z M172,122h4v1h-4z M181,122h4v1h-4z M188,122h4v1h-4z M200,122h7v1h-7z M217,122h7v1h-7z M234,122h5v1h-5z M243,120h4v3h-4z M249,122h6v1h-6z M1,123h11v1h-11z M15,123h1v1h-1z M18,123h9v1h-9z M53,121h7v3h-7z M62,122h4v2h-4z M69,123h9v1h-9z M83,123h5v1h-5z M93,123h8v1h-8z M104,123h3v1h-3z M110,123h7v1h-7z M120,122h3v2h-3z M126,123h7v1h-7z M142,123h9v1h-9z M156,123h5v1h-5z M164,123h5v1h-5z M171,123h5v1h-5z M182,123h9v1h-9z M200,123h6v1h-6z M210,121h3v3h-3z M227,121h2v3h-2z M233,123h6v1h-6z M245,123h1v1h-1z M248,123h9v1h-9z M1,124h10v1h-10z M19,124h7v1h-7z M30,124h2v1h-2z M36,123h6v2h-6z M46,123h3v2h-3z M52,124h9v1h-9z M62,124h3v1h-3z M67,124h5v1h-5z M75,124h4v1h-4z M82,124h5v1h-5z M103,124h4v1h-4z M121,124h1v1h-1z M126,124h8v1h-8z M140,124h5v1h-5z M147,124h4v1h-4z M155,124h5v1h-5z M165,124h10v1h-10z M177,124h2v1h-2z M183,124h7v1h-7z M194,124h2v1h-2z M201,124h5v1h-5z M210,124h2v1h-2z M217,123h6v2h-6z M232,124h8v1h-8z M247,124h10v1h-10z M259,120h3v5h-3z M1,125h9v1h-9z M20,125h6v1h-6z M29,125h4v1h-4z M35,125h8v1h-8z M47,125h1v1h-1z M50,125h5v1h-5z M57,125h6v1h-6z M66,125h5v1h-5z M76,125h9v1h-9z M94,124h6v2h-6z M104,125h3v1h-3z M111,124h6v2h-6z M125,125h10v1h-10z M139,125h5v1h-5z M148,125h5v1h-5z M154,125h5v1h-5z M166,125h7v1h-7z M194,125h3v1h-3z M200,125h7v1h-7z M216,125h8v1h-8z M231,125h4v1h-4z M237,125h4v1h-4z M247,125h6v1h-6z M254,125h8v1h-8z M0,126h10v1h-10z M14,124h3v3h-3z M19,126h7v1h-7z M31,126h1v1h-1z M34,126h10v1h-10z M49,126h5v1h-5z M58,126h6v1h-6z M65,126h5v1h-5z M77,126h8v1h-8z M88,126h2v1h-2z M95,126h5v1h-5z M104,126h2v1h-2z M110,126h8v1h-8z M124,126h4v1h-4z M131,126h4v1h-4z M138,126h5v1h-5z M149,126h9v1h-9z M161,126h1v1h-1z M167,126h6v1h-6z M176,125h4v2h-4z M184,125h6v2h-6z M194,126h2v1h-2z M199,126h9v1h-9z M215,126h10v1h-10z M230,126h5v1h-5z M237,126h5v1h-5z M246,126h7v1h-7z M255,126h7v1h-7z M0,127h11v1h-11z M18,127h9v1h-9z M33,127h6v1h-6z M41,127h4v1h-4z M49,127h4v1h-4z M59,127h10v1h-10z M72,127h2v1h-2z M87,127h3v1h-3z M94,127h7v1h-7z M109,127h10v1h-10z M132,127h10v1h-10z M145,127h2v1h-2z M160,127h3v1h-3z M167,127h5v1h-5z M177,127h2v1h-2z M183,127h8v1h-8z M198,127h4v1h-4z M205,127h3v1h-3z M214,127h4v1h-4z M222,127h4v1h-4z M229,127h5v1h-5z M236,127h1v1h-1z M239,127h14v1h-14z M0,128h12v1h-12z M18,128h10v1h-10z M32,128h5v1h-5z M42,128h4v1h-4z M48,128h5v1h-5z M60,128h8v1h-8z M71,128h3v1h-3z M88,128h2v1h-2z M93,128h9v1h-9z M108,128h12v1h-12z M123,127h4v2h-4z M133,128h8v1h-8z M150,127h7v2h-7z M160,128h4v1h-4z M166,128h7v1h-7z M182,128h9v1h-9z M197,128h4v1h-4z M206,128h3v1h-3z M213,128h5v1h-5z M223,128h10v1h-10z M235,128h3v1h-3z M240,128h8v1h-8z M250,128h3v1h-3z M256,127h6v2h-6z M1,129h12v1h-12z M17,129h5v1h-5z M24,129h5v1h-5z M31,129h6v1h-6z M43,129h8v1h-8z M55,129h2v1h-2z M71,129h4v1h-4z M77,127h7v3h-7z M92,129h4v1h-4z M99,129h4v1h-4z M107,129h19v1h-19z M127,129h3v1h-3z M144,128h4v2h-4z M150,129h6v1h-6z M161,129h3v1h-3z M165,129h9v1h-9z M181,129h4v1h-4z M188,129h4v1h-4z M196,129h5v1h-5z M207,129h13v1h-13z M224,129h8v1h-8z M234,129h4v1h-4z M255,129h7v1h-7z M1,130h4v1h-4z M6,130h8v1h-8z M15,130h5v1h-5z M25,130h10v1h-10z M43,130h7v1h-7z M61,129h6v2h-6z M71,130h3v1h-3z M75,130h10v1h-10z M91,130h4v1h-4z M99,130h5v1h-5z M106,130h9v1h-9z M116,130h9v1h-9z M127,130h4v1h-4z M134,129h6v2h-6z M143,130h14v1h-14z M162,130h7v1h-7z M171,130h4v1h-4z M180,130h5v1h-5z M188,130h5v1h-5z M195,130h9v1h-9z M207,130h14v1h-14z M224,130h7v1h-7z M235,130h3v1h-3z M241,129h6v2h-6z M254,130h8v1h-8z M1,131h3v1h-3z M10,131h9v1h-9z M23,131h1v1h-1z M26,131h8v1h-8z M38,131h2v1h-2z M54,130h3v2h-3z M61,131h7v1h-7z M75,131h5v1h-5z M81,131h5v1h-5z M90,131h4v1h-4z M100,131h10v1h-10z M111,131h5v1h-5z M117,131h105v1h-105z M223,131h9v1h-9z M233,131h14v1h-14z M253,131h9v1h-9z M0,132h4v1h-4z M6,131h3v2h-3z M11,132h7v1h-7z M21,132h4v1h-4z M36,132h4v1h-4z M44,131h6v2h-6z M55,132h1v1h-1z M59,132h10v1h-10z M74,132h5v1h-5z M81,132h15v1h-15z M99,132h163v1h-163z M0,133h19v1h-19z M20,133h6v1h-6z M27,132h7v2h-7z M35,133h6v1h-6z M43,133h8v1h-8z M52,133h209v1h-209z M1,134h259v1h-259z M1,135h132v1h-132z M247,135h1v1h-1z M258,135h1v1h-1z M2,136h68v1h-68z M89,136h1v1h-1z M94,136h12v1h-12z M14,137h1v1h-1z M28,137h1v1h-1z
  "/>
</svg>