<?xml version="1.0" encoding="UTF-8"?>
<svg xmlns="http://www.w3.org/2000/svg" viewBox="0 0 269 137" width="269" height="137">
  <title>47 Gneiss and schist</title>
  <path fill="#111111" fill-rule="nonzero" d="
    M12,0h1v1h-1z M2,1h42v1h-42z M46,1h3v1h-3z M50,1h2v1h-2z M53,1h3v1h-3z M60,1h2v1h-2z M65,1h1v1h-1z M68,1h4v1h-4z M79,1h5v1h-5z M89,1h3v1h-3z M93,1h7v1h-7z M101,1h3v1h-3z M105,1h1v1h-1z M110,1h3v1h-3z M115,1h3v1h-3z M119,1h4v1h-4z M124,1h4v1h-4z M132,1h18v1h-18z M152,1h116v1h-116z M1,2h267v2h-267z M1,4h238v1h-238z M240,4h28v1h-28z M1,5h5v1h-5z M21,5h7v1h-7z M29,5h6v1h-6z M43,5h6v1h-6z M53,5h7v1h-7z M61,5h9v1h-9z M72,5h7v1h-7z M90,5h6v1h-6z M99,5h8v1h-8z M112,5h14v1h-14z M127,5h2v1h-2z M130,5h6v1h-6z M137,5h6v1h-6z M151,5h6v1h-6z M159,5h6v1h-6z M168,5h5v1h-5z M176,5h10v1h-10z M198,5h6v1h-6z M206,5h6v1h-6z M215,5h12v1h-12z M230,5h7v1h-7z M241,5h5v1h-5z M258,5h4v1h-4z M15,5h5v2h-5z M21,6h6v1h-6z M28,6h6v1h-6z M43,6h5v1h-5z M52,6h8v1h-8z M61,6h6v1h-6z M72,6h6v1h-6z M90,6h5v1h-5z M98,6h6v1h-6z M111,6h13v1h-13z M130,6h5v1h-5z M137,6h5v1h-5z M151,6h5v1h-5z M158,6h5v1h-5z M167,6h5v1h-5z M177,6h7v1h-7z M198,6h5v1h-5z M206,6h5v1h-5z M214,6h12v1h-12z M230,6h6v1h-6z M240,6h6v1h-6z M257,6h5v1h-5z M13,7h6v1h-6z M20,7h13v1h-13z M42,7h5v1h-5z M51,7h7v1h-7z M60,7h6v1h-6z M70,7h6v1h-6z M89,7h5v1h-5z M97,7h6v1h-6z M110,7h6v1h-6z M117,7h6v1h-6z M130,7h4v1h-4z M137,7h4v1h-4z M150,7h5v1h-5z M157,7h5v1h-5z M166,7h5v1h-5z M177,7h6v1h-6z M196,7h6v1h-6z M204,7h6v1h-6z M213,7h12v1h-12z M229,7h5v1h-5z M239,7h5v1h-5z M256,7h6v1h-6z M264,5h4v3h-4z M12,8h20v1h-20z M41,8h5v1h-5z M49,8h7v1h-7z M59,8h6v1h-6z M69,8h6v1h-6z M88,8h4v1h-4z M96,8h5v1h-5z M109,8h6v1h-6z M116,8h5v1h-5z M129,8h5v1h-5z M136,8h4v1h-4z M149,8h5v1h-5z M164,8h5v1h-5z M176,8h6v1h-6z M195,8h6v1h-6z M203,8h6v1h-6z M212,8h12v1h-12z M228,8h5v1h-5z M238,8h6v1h-6z M256,8h4v1h-4z M262,8h6v1h-6z M10,9h21v1h-21z M40,9h5v1h-5z M48,9h6v1h-6z M58,9h5v1h-5z M67,9h6v1h-6z M87,9h4v1h-4z M94,9h7v1h-7z M108,9h12v1h-12z M129,9h4v1h-4z M135,9h4v1h-4z M148,9h5v1h-5z M156,8h5v2h-5z M163,9h5v1h-5z M175,9h5v1h-5z M194,9h6v1h-6z M201,9h7v1h-7z M211,9h12v1h-12z M226,9h6v1h-6z M237,9h5v1h-5z M255,9h4v1h-4z M261,9h7v1h-7z M9,10h19v1h-19z M39,10h4v1h-4z M46,10h6v1h-6z M56,10h5v1h-5z M65,10h7v1h-7z M86,10h4v1h-4z M93,10h6v1h-6z M107,10h5v1h-5z M114,10h5v1h-5z M134,10h5v1h-5z M147,10h5v1h-5z M155,10h4v1h-4z M162,10h5v1h-5z M174,10h5v1h-5z M193,10h5v1h-5z M200,10h6v1h-6z M209,10h12v1h-12z M225,10h5v1h-5z M236,10h5v1h-5z M254,10h4v1h-4z M7,11h13v1h-13z M22,11h5v1h-5z M37,11h6v1h-6z M44,11h7v1h-7z M55,11h5v1h-5z M63,11h7v1h-7z M84,11h5v1h-5z M92,11h5v1h-5z M105,11h6v1h-6z M112,11h6v1h-6z M128,10h4v2h-4z M133,11h5v1h-5z M146,11h5v1h-5z M154,11h4v1h-4z M161,11h5v1h-5z M173,11h5v1h-5z M191,11h6v1h-6z M198,11h6v1h-6z M208,11h12v1h-12z M224,11h5v1h-5z M234,11h6v1h-6z M253,11h5v1h-5z M260,10h8v2h-8z M1,6h4v7h-4z M6,12h5v1h-5z M13,12h6v1h-6z M21,12h5v1h-5z M36,12h5v1h-5z M44,12h5v1h-5z M55,12h3v1h-3z M62,12h6v1h-6z M83,12h5v1h-5z M91,12h5v1h-5z M104,12h6v1h-6z M112,12h5v1h-5z M127,12h4v1h-4z M133,12h4v1h-4z M145,12h5v1h-5z M153,12h5v1h-5z M160,12h5v1h-5z M171,12h6v1h-6z M190,12h6v1h-6z M197,12h6v1h-6z M208,12h11v1h-11z M223,12h5v1h-5z M233,12h5v1h-5z M253,12h4v1h-4z M259,12h9v1h-9z M1,13h9v1h-9z M12,13h5v1h-5z M19,13h6v1h-6z M35,13h5v1h-5z M42,13h6v1h-6z M55,13h2v1h-2z M60,13h7v1h-7z M81,13h5v1h-5z M89,13h5v1h-5z M103,13h5v1h-5z M110,13h6v1h-6z M126,13h5v1h-5z M132,13h5v1h-5z M144,13h5v1h-5z M152,13h5v1h-5z M159,13h5v1h-5z M170,13h6v1h-6z M189,13h5v1h-5z M197,13h5v1h-5z M206,13h11v1h-11z M222,13h5v1h-5z M231,13h6v1h-6z M252,13h4v1h-4z M257,13h11v1h-11z M12,14h4v1h-4z M19,14h5v1h-5z M34,14h5v1h-5z M41,14h6v1h-6z M59,14h6v1h-6z M80,14h5v1h-5z M88,14h5v1h-5z M101,14h6v1h-6z M109,14h5v1h-5z M126,14h10v1h-10z M143,14h5v1h-5z M151,14h6v1h-6z M158,14h5v1h-5z M169,14h5v1h-5z M188,14h5v1h-5z M196,14h5v1h-5z M205,14h12v1h-12z M221,14h5v1h-5z M230,14h6v1h-6z M250,14h5v1h-5z M256,14h12v1h-12z M1,14h8v2h-8z M11,15h4v1h-4z M33,15h5v1h-5z M40,15h6v1h-6z M57,15h7v1h-7z M79,15h5v1h-5z M86,15h5v1h-5z M100,15h6v1h-6z M108,15h5v1h-5z M125,15h4v1h-4z M130,15h5v1h-5z M142,15h5v1h-5z M150,15h5v1h-5z M157,15h5v1h-5z M169,15h4v1h-4z M187,15h5v1h-5z M195,15h5v1h-5z M204,15h12v1h-12z M220,15h4v1h-4z M229,15h6v1h-6z M249,15h20v1h-20z M1,16h14v1h-14z M19,15h4v2h-4z M33,16h4v1h-4z M39,16h5v1h-5z M56,16h6v1h-6z M78,16h12v1h-12z M99,16h5v1h-5z M106,16h6v1h-6z M124,16h5v1h-5z M130,16h4v1h-4z M140,16h6v1h-6z M149,16h4v1h-4z M157,16h4v1h-4z M168,16h4v1h-4z M186,16h5v1h-5z M193,16h6v1h-6z M203,16h12v1h-12z M219,16h5v1h-5z M228,16h6v1h-6z M248,16h21v1h-21z M1,17h15v1h-15z M32,17h4v1h-4z M39,17h4v1h-4z M48,17h2v1h-2z M55,17h5v1h-5z M77,17h12v1h-12z M98,17h5v1h-5z M105,17h6v1h-6z M123,17h11v1h-11z M139,17h6v1h-6z M148,17h4v1h-4z M185,17h5v1h-5z M192,17h6v1h-6z M202,17h11v1h-11z M218,17h4v1h-4z M227,17h5v1h-5z M246,17h5v1h-5z M7,18h10v1h-10z M18,17h5v2h-5z M31,18h4v1h-4z M38,18h5v1h-5z M47,18h3v1h-3z M54,18h5v1h-5z M76,18h11v1h-11z M97,18h5v1h-5z M104,18h5v1h-5z M121,18h12v1h-12z M138,18h5v1h-5z M146,18h6v1h-6z M167,17h4v2h-4z M184,18h5v1h-5z M191,18h5v1h-5z M201,18h11v1h-11z M216,18h5v1h-5z M226,18h6v1h-6z M245,18h5v1h-5z M252,17h10v2h-10z M264,17h4v2h-4z M8,19h10v1h-10z M46,19h4v1h-4z M54,19h4v1h-4z M74,19h12v1h-12z M96,19h12v1h-12z M121,19h11v1h-11z M137,19h5v1h-5z M145,19h6v1h-6z M166,19h4v1h-4z M183,19h5v1h-5z M190,19h5v1h-5z M200,19h11v1h-11z M226,19h4v1h-4z M243,19h6v1h-6z M251,19h10v1h-10z M263,19h5v1h-5z M14,20h5v1h-5z M20,19h3v2h-3z M31,19h3v2h-3z M45,20h4v1h-4z M73,20h5v1h-5z M79,20h5v1h-5z M95,20h5v1h-5z M101,20h5v1h-5z M120,20h11v1h-11z M136,20h5v1h-5z M144,20h6v1h-6z M166,20h3v1h-3z M183,20h4v1h-4z M190,20h3v1h-3z M199,20h11v1h-11z M216,19h4v2h-4z M225,20h5v1h-5z M242,20h6v1h-6z M250,20h10v1h-10z M263,20h6v1h-6z M8,20h5v2h-5z M30,21h4v1h-4z M45,21h3v1h-3z M72,21h4v1h-4z M78,21h6v1h-6z M93,21h5v1h-5z M101,21h4v1h-4z M119,21h11v1h-11z M135,21h5v1h-5z M144,21h5v1h-5z M156,17h4v5h-4z M167,21h1v1h-1z M189,21h4v1h-4z M215,21h4v1h-4z M225,21h4v1h-4z M241,21h5v1h-5z M249,21h10v1h-10z M262,21h6v1h-6z M1,18h4v5h-4z M7,22h5v1h-5z M15,21h8v2h-8z M31,22h3v1h-3z M53,20h4v3h-4z M71,22h5v1h-5z M77,22h5v1h-5z M93,22h4v1h-4z M100,22h4v1h-4z M117,22h12v1h-12z M135,22h4v1h-4z M143,22h5v1h-5z M156,22h5v1h-5z M183,21h3v2h-3z M198,21h10v2h-10z M225,22h3v1h-3z M240,22h5v1h-5z M248,22h10v1h-10z M261,22h7v1h-7z M1,23h10v1h-10z M14,23h9v1h-9z M31,23h4v1h-4z M38,19h4v5h-4z M44,22h4v2h-4z M54,23h3v1h-3z M70,23h5v1h-5z M76,23h5v1h-5z M100,23h3v1h-3z M115,23h13v1h-13z M143,23h4v1h-4z M182,23h5v1h-5z M188,22h4v2h-4z M197,23h10v1h-10z M215,22h3v2h-3z M238,23h6v1h-6z M247,23h10v1h-10z M1,24h9v1h-9z M13,24h9v1h-9z M39,24h3v1h-3z M70,24h3v1h-3z M76,24h4v1h-4z M92,23h4v2h-4z M101,24h2v1h-2z M114,24h12v1h-12z M134,23h4v2h-4z M143,24h5v1h-5z M183,24h9v1h-9z M225,23h4v2h-4z M237,24h5v1h-5z M246,24h10v1h-10z M260,23h8v2h-8z M1,25h8v1h-8z M12,25h10v1h-10z M32,24h4v2h-4z M45,24h3v2h-3z M54,24h4v2h-4z M69,25h4v1h-4z M75,25h5v1h-5z M92,25h3v1h-3z M112,25h7v1h-7z M120,25h5v1h-5z M134,25h5v1h-5z M143,25h7v1h-7z M165,25h2v1h-2z M184,25h8v1h-8z M236,25h5v1h-5z M244,25h11v1h-11z M259,25h4v1h-4z M264,25h5v1h-5z M1,26h7v1h-7z M10,26h11v1h-11z M55,26h4v1h-4z M69,26h3v1h-3z M75,26h4v1h-4z M112,26h5v1h-5z M119,26h5v1h-5z M135,26h7v1h-7z M145,26h5v1h-5z M184,26h4v1h-4z M189,26h3v1h-3z M197,24h4v3h-4z M203,24h3v3h-3z M236,26h4v1h-4z M243,26h11v1h-11z M257,26h5v1h-5z M1,27h6v1h-6z M9,27h11v1h-11z M33,26h4v2h-4z M39,25h4v3h-4z M45,26h4v2h-4z M111,27h4v1h-4z M118,27h4v1h-4z M136,27h6v1h-6z M146,27h4v1h-4z M157,23h4v5h-4z M164,26h4v2h-4z M183,27h4v1h-4z M189,27h4v1h-4z M198,27h9v1h-9z M235,27h4v1h-4z M242,27h11v1h-11z M256,27h5v1h-5z M8,28h11v1h-11z M56,27h4v2h-4z M69,27h4v2h-4z M74,27h4v2h-4z M91,26h4v3h-4z M99,28h3v1h-3z M117,28h5v1h-5z M138,28h4v1h-4z M157,28h3v1h-3z M164,28h3v1h-3z M182,28h5v1h-5z M214,24h4v5h-4z M226,25h4v4h-4z M241,28h11v1h-11z M256,28h4v1h-4z M1,28h5v2h-5z M7,29h6v1h-6z M16,29h2v1h-2z M34,28h4v2h-4z M40,28h4v2h-4z M46,28h4v2h-4z M69,29h9v1h-9z M92,29h3v1h-3z M139,29h4v1h-4z M147,28h4v2h-4z M156,29h4v1h-4z M163,29h4v1h-4z M181,29h5v1h-5z M189,28h3v2h-3z M199,28h4v2h-4z M214,29h3v1h-3z M225,29h5v1h-5z M234,28h4v2h-4z M240,29h10v1h-10z M255,29h4v1h-4z M1,30h11v1h-11z M40,30h3v1h-3z M46,30h5v1h-5z M57,29h4v2h-4z M69,30h5v1h-5z M75,30h4v1h-4z M92,30h4v1h-4z M110,28h4v3h-4z M117,29h4v2h-4z M139,30h3v1h-3z M146,30h5v1h-5z M155,30h4v1h-4z M163,30h3v1h-3z M180,30h5v1h-5z M188,30h3v1h-3z M204,28h4v3h-4z M213,30h4v1h-4z M225,30h4v1h-4z M233,30h4v1h-4z M239,30h10v1h-10z M254,30h4v1h-4z M33,30h4v2h-4z M76,31h3v1h-3z M111,31h4v1h-4z M117,31h5v1h-5z M138,31h4v1h-4z M146,31h4v1h-4z M154,31h5v1h-5z M162,31h4v1h-4z M179,31h5v1h-5z M187,31h4v1h-4z M198,30h5v2h-5z M204,31h3v1h-3z M212,31h5v1h-5z M223,31h5v1h-5z M232,31h4v1h-4z M238,31h10v1h-10z M253,31h4v1h-4z M1,31h9v2h-9z M32,32h4v1h-4z M47,31h4v2h-4z M70,31h4v2h-4z M93,31h3v2h-3z M112,32h4v1h-4z M118,32h5v1h-5z M137,32h5v1h-5z M144,32h6v1h-6z M153,32h4v1h-4z M161,32h4v1h-4z M177,32h6v1h-6z M186,32h5v1h-5z M197,32h5v1h-5z M203,32h4v1h-4z M212,32h4v1h-4z M222,32h5v1h-5z M230,32h6v1h-6z M237,32h10v1h-10z M252,32h4v1h-4z M30,33h6v1h-6z M39,31h4v3h-4z M58,31h3v3h-3z M76,32h4v2h-4z M94,33h2v1h-2z M119,33h4v1h-4z M136,33h5v1h-5z M143,33h6v1h-6z M152,33h4v1h-4z M160,33h4v1h-4z M176,33h6v1h-6z M185,33h5v1h-5z M196,33h5v1h-5z M202,33h5v1h-5z M220,33h6v1h-6z M230,33h16v1h-16z M251,33h4v1h-4z M30,34h5v1h-5z M38,34h4v1h-4z M57,34h4v1h-4z M71,33h3v2h-3z M77,34h4v1h-4z M119,34h5v1h-5z M134,34h7v1h-7z M142,34h6v1h-6z M151,34h4v1h-4z M160,34h3v1h-3z M174,34h6v1h-6z M184,34h5v1h-5z M195,34h5v1h-5z M202,34h4v1h-4z M211,33h4v2h-4z M219,34h6v1h-6z M229,34h5v1h-5z M235,34h11v1h-11z M250,34h4v1h-4z M1,33h11v3h-11z M30,35h4v1h-4z M37,35h5v1h-5z M56,35h5v1h-5z M100,29h3v7h-3z M113,33h4v3h-4z M133,35h6v1h-6z M140,35h7v1h-7z M149,35h5v1h-5z M159,35h4v1h-4z M173,35h6v1h-6z M182,35h6v1h-6z M194,35h5v1h-5z M200,35h5v1h-5z M210,35h4v1h-4z M218,35h6v1h-6z M228,35h5v1h-5z M249,35h4v1h-4z M1,36h10v1h-10z M30,36h2v1h-2z M36,36h5v1h-5z M48,33h4v4h-4z M55,36h5v1h-5z M71,35h4v2h-4z M78,35h3v2h-3z M94,34h3v3h-3z M112,36h4v1h-4z M132,36h6v1h-6z M140,36h5v1h-5z M148,36h5v1h-5z M157,36h4v1h-4z M172,36h6v1h-6z M181,36h6v1h-6z M193,36h5v1h-5z M200,36h4v1h-4z M209,36h5v1h-5z M216,36h6v1h-6z M1,37h8v1h-8z M25,37h3v1h-3z M34,37h6v1h-6z M47,37h5v1h-5z M53,37h7v1h-7z M93,37h4v1h-4z M99,36h4v2h-4z M120,35h4v3h-4z M130,37h14v1h-14z M147,37h5v1h-5z M156,37h4v1h-4z M170,37h6v1h-6z M180,37h5v1h-5z M192,37h12v1h-12z M208,37h4v1h-4z M215,37h6v1h-6z M250,36h3v2h-3z M265,26h4v12h-4z M1,38h7v1h-7z M24,38h4v1h-4z M33,38h6v1h-6z M45,38h13v1h-13z M71,37h3v2h-3z M78,37h4v2h-4z M92,38h10v1h-10z M111,37h5v2h-5z M118,38h5v1h-5z M129,38h14v1h-14z M146,38h5v1h-5z M155,38h5v1h-5z M169,38h6v1h-6z M178,38h6v1h-6z M191,38h11v1h-11z M207,38h5v1h-5z M213,38h6v1h-6z M228,36h4v3h-4z M235,35h9v4h-9z M250,38h4v1h-4z M1,39h6v1h-6z M23,39h5v1h-5z M31,39h7v1h-7z M42,39h14v1h-14z M70,39h3v1h-3z M77,39h5v1h-5z M91,39h10v1h-10z M109,39h6v1h-6z M117,39h5v1h-5z M128,39h6v1h-6z M136,39h5v1h-5z M145,39h5v1h-5z M153,39h6v1h-6z M168,39h6v1h-6z M176,39h6v1h-6z M190,39h11v1h-11z M205,39h4v1h-4z M212,39h6v1h-6z M228,39h5v1h-5z M250,39h5v1h-5z M264,38h5v2h-5z M21,40h6v1h-6z M30,40h7v1h-7z M39,40h15v1h-15z M69,40h4v1h-4z M76,40h5v1h-5z M90,40h10v1h-10z M108,40h6v1h-6z M116,40h5v1h-5z M127,40h6v1h-6z M135,40h5v1h-5z M144,40h5v1h-5z M152,40h5v1h-5z M166,40h6v1h-6z M175,40h6v1h-6z M188,40h12v1h-12z M203,40h5v1h-5z M211,40h6v1h-6z M229,40h4v1h-4z M236,39h9v2h-9z M251,40h4v1h-4z M263,40h6v1h-6z M1,40h5v2h-5z M20,41h6v1h-6z M28,41h7v1h-7z M36,41h16v1h-16z M68,41h4v1h-4z M76,41h4v1h-4z M89,41h10v1h-10z M107,41h6v1h-6z M115,41h5v1h-5z M125,41h6v1h-6z M134,41h4v1h-4z M142,41h6v1h-6z M151,41h5v1h-5z M165,41h6v1h-6z M173,41h7v1h-7z M187,41h11v1h-11z M202,41h5v1h-5z M211,41h4v1h-4z M237,41h8v1h-8z M262,41h7v1h-7z M19,42h6v1h-6z M27,42h6v1h-6z M36,42h15v1h-15z M67,42h4v1h-4z M75,42h4v1h-4z M88,42h10v1h-10z M106,42h5v1h-5z M114,42h5v1h-5z M125,42h5v1h-5z M133,42h4v1h-4z M141,42h5v1h-5z M150,42h5v1h-5z M164,42h6v1h-6z M172,42h6v1h-6z M185,42h12v1h-12z M201,42h5v1h-5z M212,42h2v1h-2z M229,41h5v2h-5z M236,42h9v1h-9z M252,41h3v2h-3z M261,42h8v1h-8z M18,43h5v1h-5z M26,43h6v1h-6z M34,43h16v1h-16z M66,43h4v1h-4z M74,43h4v1h-4z M87,43h10v1h-10z M105,43h6v1h-6z M113,43h5v1h-5z M124,43h5v1h-5z M132,43h4v1h-4z M141,43h4v1h-4z M149,43h5v1h-5z M163,43h5v1h-5z M170,43h6v1h-6z M184,43h12v1h-12z M199,43h6v1h-6z M228,43h5v1h-5z M236,43h8v1h-8z M17,44h5v1h-5z M25,44h6v1h-6z M34,44h6v1h-6z M42,44h6v1h-6z M65,44h5v1h-5z M73,44h5v1h-5z M86,44h10v1h-10z M104,44h5v1h-5z M112,44h4v1h-4z M124,44h4v1h-4z M131,44h5v1h-5z M140,44h4v1h-4z M148,44h5v1h-5z M162,44h5v1h-5z M170,44h5v1h-5z M182,44h13v1h-13z M197,44h5v1h-5z M226,44h6v1h-6z M235,44h9v1h-9z M251,43h4v2h-4z M260,43h9v2h-9z M17,45h4v1h-4z M24,45h5v1h-5z M33,45h5v1h-5z M41,45h6v1h-6z M64,45h4v1h-4z M71,45h6v1h-6z M84,45h11v1h-11z M103,45h5v1h-5z M111,45h5v1h-5z M123,45h4v1h-4z M130,45h5v1h-5z M138,45h5v1h-5z M147,45h5v1h-5z M161,45h5v1h-5z M169,45h5v1h-5z M181,45h13v1h-13z M196,45h5v1h-5z M224,45h7v1h-7z M234,45h9v1h-9z M251,45h3v1h-3z M17,46h3v1h-3z M32,46h5v1h-5z M39,46h6v1h-6z M62,46h5v1h-5z M69,46h7v1h-7z M83,46h11v1h-11z M102,46h5v1h-5z M110,46h5v1h-5z M122,46h4v1h-4z M129,46h4v1h-4z M137,46h5v1h-5z M146,46h5v1h-5z M161,46h4v1h-4z M168,46h5v1h-5z M179,46h14v1h-14z M194,46h6v1h-6z M204,46h1v1h-1z M223,46h6v1h-6z M232,46h11v1h-11z M250,46h4v1h-4z M259,45h4v2h-4z M264,45h4v2h-4z M16,47h4v1h-4z M23,46h4v2h-4z M31,47h5v1h-5z M38,47h5v1h-5z M61,47h5v1h-5z M68,47h5v1h-5z M82,47h10v1h-10z M101,47h5v1h-5z M109,47h5v1h-5z M121,47h5v1h-5z M128,47h5v1h-5z M137,47h4v1h-4z M145,47h5v1h-5z M160,47h4v1h-4z M178,47h13v1h-13z M194,47h5v1h-5z M203,47h4v1h-4z M222,47h6v1h-6z M231,47h11v1h-11z M249,47h4v1h-4z M258,47h5v1h-5z M16,48h3v1h-3z M30,48h4v1h-4z M37,48h5v1h-5z M60,48h5v1h-5z M67,48h5v1h-5z M100,48h5v1h-5z M108,48h4v1h-4z M121,48h4v1h-4z M128,48h4v1h-4z M136,48h5v1h-5z M144,48h5v1h-5z M160,48h3v1h-3z M167,47h4v2h-4z M177,48h13v1h-13z M192,48h5v1h-5z M202,48h5v1h-5z M221,48h5v1h-5z M230,48h11v1h-11z M248,48h5v1h-5z M15,49h4v1h-4z M22,48h4v2h-4z M29,49h5v1h-5z M36,49h5v1h-5z M59,49h5v1h-5z M65,49h6v1h-6z M80,48h11v2h-11z M99,49h5v1h-5z M107,49h4v1h-4z M120,49h5v1h-5z M126,49h5v1h-5z M135,49h4v1h-4z M143,49h5v1h-5z M160,49h4v1h-4z M167,49h3v1h-3z M177,49h12v1h-12z M191,49h5v1h-5z M201,49h5v1h-5z M220,49h5v1h-5z M228,49h7v1h-7z M236,49h4v1h-4z M248,49h4v1h-4z M265,47h3v3h-3z M14,50h4v1h-4z M21,50h5v1h-5z M28,50h5v1h-5z M36,50h4v1h-4z M57,50h5v1h-5z M64,50h6v1h-6z M85,50h5v1h-5z M98,50h5v1h-5z M106,50h4v1h-4z M119,50h4v1h-4z M126,50h4v1h-4z M134,50h4v1h-4z M142,50h5v1h-5z M161,50h3v1h-3z M166,50h4v1h-4z M176,50h4v1h-4z M181,50h6v1h-6z M191,50h4v1h-4z M199,50h6v1h-6z M219,50h5v1h-5z M227,50h6v1h-6z M236,50h2v1h-2z M246,50h6v1h-6z M258,48h4v3h-4z M12,51h6v1h-6z M28,51h4v1h-4z M36,51h3v1h-3z M56,51h5v1h-5z M63,51h5v1h-5z M79,50h4v2h-4z M97,51h5v1h-5z M118,51h5v1h-5z M125,51h5v1h-5z M133,51h5v1h-5z M142,51h4v1h-4z M161,51h4v1h-4z M190,51h4v1h-4z M198,51h5v1h-5z M219,51h4v1h-4z M225,51h8v1h-8z M246,51h5v1h-5z M12,52h5v1h-5z M21,51h4v2h-4z M28,52h5v1h-5z M56,52h4v1h-4z M62,52h5v1h-5z M85,51h4v2h-4z M96,52h5v1h-5z M106,51h3v2h-3z M117,52h4v1h-4z M123,52h6v1h-6z M132,52h5v1h-5z M141,52h4v1h-4z M162,52h3v1h-3z M167,51h4v2h-4z M176,51h9v2h-9z M188,52h5v1h-5z M197,52h5v1h-5z M218,52h4v1h-4z M224,52h12v1h-12z M244,52h6v1h-6z M257,51h5v2h-5z M264,50h4v3h-4z M10,53h6v1h-6z M20,53h4v1h-4z M36,52h4v2h-4z M56,53h3v1h-3z M62,53h4v1h-4z M78,52h4v2h-4z M85,53h3v1h-3z M96,53h4v1h-4z M116,53h5v1h-5z M123,53h5v1h-5z M132,53h4v1h-4z M161,53h4v1h-4z M179,53h5v1h-5z M188,53h4v1h-4z M196,53h5v1h-5z M219,53h2v1h-2z M223,53h6v1h-6z M231,53h4v1h-4z M243,53h6v1h-6z M257,53h4v1h-4z M9,54h6v1h-6z M19,54h5v1h-5z M77,54h5v1h-5z M84,54h4v1h-4z M115,54h5v1h-5z M122,54h4v1h-4z M131,54h5v1h-5z M195,54h5v1h-5z M221,54h6v1h-6z M229,54h6v1h-6z M241,54h6v1h-6z M256,54h5v1h-5z M8,55h6v1h-6z M18,55h5v1h-5z M29,53h4v3h-4z M37,54h4v2h-4z M77,55h4v1h-4z M83,55h4v1h-4z M95,54h4v2h-4z M114,55h4v1h-4z M121,55h5v1h-5z M131,55h4v1h-4z M195,55h4v1h-4z M221,55h5v1h-5z M229,55h4v1h-4z M240,55h6v1h-6z M255,55h5v1h-5z M263,53h5v3h-5z M1,42h4v15h-4z M6,56h6v1h-6z M17,56h5v1h-5z M55,54h4v3h-4z M61,54h4v3h-4z M94,56h5v1h-5z M102,56h2v1h-2z M121,56h4v1h-4z M140,53h4v4h-4z M162,54h3v3h-3z M168,53h4v4h-4z M194,56h4v1h-4z M214,56h2v1h-2z M220,56h5v1h-5z M228,56h4v1h-4z M238,56h6v1h-6z M254,56h5v1h-5z M262,56h6v1h-6z M1,57h10v1h-10z M16,57h5v1h-5z M30,56h3v2h-3z M38,56h4v2h-4z M61,57h5v1h-5z M75,56h11v2h-11z M92,57h6v1h-6z M100,57h4v1h-4z M112,56h5v2h-5z M130,56h5v2h-5z M161,57h4v1h-4z M167,57h4v1h-4z M187,54h4v4h-4z M213,57h4v1h-4z M219,57h5v1h-5z M226,57h5v1h-5z M237,57h6v1h-6z M252,57h7v1h-7z M1,58h9v1h-9z M15,58h5v1h-5z M27,58h2v1h-2z M37,58h5v1h-5z M74,58h10v1h-10z M92,58h4v1h-4z M111,58h5v1h-5z M160,58h4v1h-4z M166,58h5v1h-5z M180,54h4v5h-4z M188,58h3v1h-3z M212,58h5v1h-5z M235,58h6v1h-6z M250,58h7v1h-7z M1,59h7v1h-7z M13,59h6v1h-6z M26,59h4v1h-4z M36,59h5v1h-5z M56,57h4v3h-4z M73,59h10v1h-10z M91,59h4v1h-4z M98,58h5v2h-5z M110,59h5v1h-5z M120,57h4v3h-4z M159,59h5v1h-5z M165,59h4v1h-4z M174,59h3v1h-3z M178,59h6v1h-6z M188,59h4v1h-4z M193,57h4v3h-4z M212,59h4v1h-4z M226,58h4v2h-4z M234,59h6v1h-6z M248,59h8v1h-8z M261,57h7v3h-7z M1,60h6v1h-6z M12,60h6v1h-6z M25,60h5v1h-5z M34,60h7v1h-7z M55,60h5v1h-5z M72,60h10v1h-10z M90,60h4v1h-4z M97,60h5v1h-5z M120,60h5v1h-5z M131,58h4v3h-4z M141,57h3v4h-3z M158,60h11v1h-11z M174,60h9v1h-9z M188,60h3v1h-3z M193,60h5v1h-5z M211,60h4v1h-4z M219,58h4v3h-4z M233,60h6v1h-6z M247,60h6v1h-6z M259,60h9v1h-9z M1,61h5v1h-5z M10,61h6v1h-6z M24,61h5v1h-5z M33,61h7v1h-7z M62,58h4v4h-4z M72,61h3v1h-3z M97,61h4v1h-4z M121,61h5v1h-5z M156,61h12v1h-12z M173,61h9v1h-9z M187,61h4v1h-4z M211,61h3v1h-3z M219,61h3v1h-3z M225,60h4v2h-4z M232,61h5v1h-5z M246,61h5v1h-5z M258,61h10v1h-10z M9,62h6v1h-6z M23,62h5v1h-5z M31,62h8v1h-8z M54,61h5v2h-5z M61,62h5v1h-5z M140,61h4v2h-4z M156,62h11v1h-11z M186,62h4v1h-4z M210,62h4v1h-4z M218,62h4v1h-4z M231,62h5v1h-5z M245,62h5v1h-5z M257,62h11v1h-11z M1,62h4v2h-4z M8,63h5v1h-5z M21,63h6v1h-6z M30,63h7v1h-7z M52,63h6v1h-6z M60,63h5v1h-5z M89,61h4v3h-4z M110,60h4v4h-4z M131,61h3v3h-3z M139,63h4v1h-4z M156,63h10v1h-10z M170,62h11v2h-11z M185,63h5v1h-5z M209,63h5v1h-5z M225,62h3v2h-3z M231,63h4v1h-4z M244,63h5v1h-5z M255,63h13v1h-13z M1,64h11v1h-11z M19,64h7v1h-7z M28,64h7v1h-7z M51,64h6v1h-6z M59,64h5v1h-5z M71,62h4v3h-4z M77,61h4v4h-4z M90,64h4v1h-4z M96,62h4v3h-4z M111,64h4v1h-4z M130,64h3v1h-3z M139,64h3v1h-3z M155,64h10v1h-10z M168,64h12v1h-12z M184,64h5v1h-5z M194,61h4v4h-4z M208,64h5v1h-5z M217,63h5v2h-5z M224,64h5v1h-5z M230,64h4v1h-4z M244,64h4v1h-4z M253,64h15v1h-15z M1,65h10v1h-10z M18,65h6v1h-6z M27,65h5v1h-5z M49,65h14v1h-14z M78,65h3v1h-3z M97,65h4v1h-4z M112,65h4v1h-4z M122,62h4v4h-4z M152,65h2v1h-2z M157,65h7v1h-7z M168,65h10v1h-10z M183,65h5v1h-5z M193,65h4v1h-4z M207,65h5v1h-5z M216,65h5v1h-5z M223,65h10v1h-10z M252,65h16v1h-16z M16,66h7v1h-7z M26,66h5v1h-5z M49,66h13v1h-13z M72,65h4v2h-4z M77,66h4v1h-4z M91,65h5v2h-5z M98,66h4v1h-4z M113,66h3v1h-3z M122,66h3v1h-3z M129,65h4v2h-4z M138,65h4v2h-4z M151,66h4v1h-4z M157,66h5v1h-5z M167,66h10v1h-10z M182,66h5v1h-5z M192,66h5v1h-5z M207,66h4v1h-4z M216,66h4v1h-4z M222,66h5v1h-5z M228,66h5v1h-5z M243,65h4v2h-4z M251,66h6v1h-6z M258,66h10v1h-10z M1,66h8v2h-8z M15,67h7v1h-7z M25,67h5v1h-5z M47,67h13v1h-13z M71,67h10v1h-10z M92,67h4v1h-4z M99,67h4v1h-4z M121,67h4v1h-4z M128,67h4v1h-4z M150,67h5v1h-5z M156,67h5v1h-5z M166,67h11v1h-11z M181,67h6v1h-6z M191,67h5v1h-5z M206,67h4v1h-4z M215,67h5v1h-5z M221,67h5v1h-5z M242,67h4v1h-4z M250,67h6v1h-6z M257,67h5v1h-5z M1,68h6v1h-6z M14,68h6v1h-6z M24,68h5v1h-5z M46,68h6v1h-6z M53,68h6v1h-6z M91,68h4v1h-4z M121,68h3v1h-3z M127,68h4v1h-4z M137,67h4v2h-4z M148,68h12v1h-12z M165,68h11v1h-11z M180,68h5v1h-5z M190,68h5v1h-5z M205,68h4v1h-4z M213,68h12v1h-12z M228,67h4v2h-4z M242,68h3v1h-3z M249,68h12v1h-12z M13,69h6v1h-6z M23,69h5v1h-5z M45,69h5v1h-5z M52,69h6v1h-6z M70,68h10v2h-10z M90,69h4v1h-4z M100,68h3v2h-3z M113,67h4v3h-4z M122,69h1v1h-1z M126,69h5v1h-5z M136,69h5v1h-5z M148,69h11v1h-11z M164,69h10v1h-10z M178,69h6v1h-6z M189,69h5v1h-5z M203,69h5v1h-5z M213,69h11v1h-11z M226,69h5v1h-5z M248,69h12v1h-12z M264,67h4v3h-4z M1,69h5v2h-5z M11,70h7v1h-7z M22,70h5v1h-5z M43,70h6v1h-6z M51,70h6v1h-6z M68,70h12v1h-12z M88,70h6v1h-6z M99,70h4v1h-4z M112,70h4v1h-4z M125,70h5v1h-5z M135,70h5v1h-5z M147,70h4v1h-4z M153,70h5v1h-5z M163,70h10v1h-10z M177,70h6v1h-6z M187,70h6v1h-6z M202,70h6v1h-6z M212,70h11v1h-11z M226,70h4v1h-4z M240,69h4v2h-4z M247,70h12v1h-12z M10,71h6v1h-6z M21,71h5v1h-5z M42,71h5v1h-5z M50,71h5v1h-5z M67,71h6v1h-6z M74,71h5v1h-5z M87,71h6v1h-6z M98,71h5v1h-5z M111,71h4v1h-4z M124,71h5v1h-5z M135,71h4v1h-4z M145,71h5v1h-5z M152,71h5v1h-5z M162,71h10v1h-10z M177,71h5v1h-5z M186,71h5v1h-5z M201,71h5v1h-5z M210,71h11v1h-11z M225,71h5v1h-5z M239,71h4v1h-4z M246,71h12v1h-12z M9,72h5v1h-5z M21,72h4v1h-4z M42,72h4v1h-4z M49,72h5v1h-5z M66,72h6v1h-6z M73,72h5v1h-5z M85,72h6v1h-6z M96,72h6v1h-6z M110,72h5v1h-5z M124,72h4v1h-4z M134,72h4v1h-4z M145,72h4v1h-4z M152,72h4v1h-4z M161,72h10v1h-10z M176,72h4v1h-4z M184,72h6v1h-6z M199,72h6v1h-6z M209,72h11v1h-11z M224,72h5v1h-5z M238,72h4v1h-4z M245,72h11v1h-11z M8,73h5v1h-5z M20,73h4v1h-4z M41,73h4v1h-4z M48,73h5v1h-5z M65,73h6v1h-6z M72,73h5v1h-5z M84,73h6v1h-6z M95,73h6v1h-6z M109,73h5v1h-5z M123,73h4v1h-4z M133,73h4v1h-4z M144,73h5v1h-5z M151,73h5v1h-5z M161,73h9v1h-9z M175,73h4v1h-4z M183,73h6v1h-6z M198,73h6v1h-6z M208,73h11v1h-11z M223,73h5v1h-5z M237,73h4v1h-4z M244,73h11v1h-11z M265,70h3v4h-3z M1,71h4v4h-4z M7,74h5v1h-5z M18,74h6v1h-6z M64,74h12v1h-12z M83,74h5v1h-5z M94,74h6v1h-6z M108,74h5v1h-5z M115,73h4v2h-4z M123,74h3v1h-3z M132,74h4v1h-4z M144,74h4v1h-4z M151,74h4v1h-4z M160,74h9v1h-9z M174,74h4v1h-4z M182,74h5v1h-5z M196,74h7v1h-7z M206,74h12v1h-12z M222,74h6v1h-6z M235,74h5v1h-5z M242,74h12v1h-12z M1,75h10v1h-10z M17,75h6v1h-6z M40,74h4v2h-4z M48,74h4v2h-4z M63,75h5v1h-5z M69,75h6v1h-6z M82,75h5v1h-5z M93,75h6v1h-6z M108,75h4v1h-4z M114,75h5v1h-5z M122,75h3v1h-3z M131,75h4v1h-4z M150,75h4v1h-4z M159,75h9v1h-9z M173,75h5v1h-5z M181,75h4v1h-4z M194,75h7v1h-7z M205,75h12v1h-12z M221,75h6v1h-6z M234,75h5v1h-5z M241,75h12v1h-12z M1,76h9v1h-9z M15,76h6v1h-6z M40,76h3v1h-3z M48,76h3v1h-3z M61,76h13v1h-13z M81,76h4v1h-4z M91,76h7v1h-7z M108,76h2v1h-2z M113,76h5v1h-5z M122,76h2v1h-2z M130,76h4v1h-4z M173,76h4v1h-4z M193,76h7v1h-7z M203,76h13v1h-13z M220,76h6v1h-6z M233,76h13v1h-13z M247,76h5v1h-5z M1,77h8v1h-8z M14,77h6v1h-6z M60,77h13v1h-13z M80,77h4v1h-4z M90,77h6v1h-6z M112,77h5v1h-5z M129,77h5v1h-5z M143,75h4v3h-4z M150,76h3v2h-3z M159,76h8v2h-8z M180,76h4v2h-4z M192,77h6v1h-6z M202,77h12v1h-12z M219,77h5v1h-5z M233,77h4v1h-4z M239,77h5v1h-5z M247,77h4v1h-4z M1,78h7v1h-7z M13,78h6v1h-6z M47,77h4v2h-4z M59,78h12v1h-12z M79,78h5v1h-5z M89,78h6v1h-6z M111,78h5v1h-5z M128,78h4v1h-4z M142,78h5v1h-5z M172,77h4v2h-4z M191,78h6v1h-6z M201,78h5v1h-5z M208,78h5v1h-5z M218,78h5v1h-5z M231,78h6v1h-6z M238,78h6v1h-6z M246,78h4v1h-4z M1,79h6v1h-6z M12,79h5v1h-5z M39,77h4v3h-4z M46,79h4v1h-4z M58,79h12v1h-12z M78,79h5v1h-5z M88,79h5v1h-5z M110,79h5v1h-5z M127,79h4v1h-4z M142,79h4v1h-4z M149,78h4v2h-4z M158,78h8v2h-8z M179,78h4v2h-4z M189,79h6v1h-6z M200,79h5v1h-5z M218,79h4v1h-4z M230,79h6v1h-6z M238,79h5v1h-5z M246,79h5v1h-5z M10,80h6v1h-6z M38,80h4v1h-4z M45,80h5v1h-5z M57,80h12v1h-12z M78,80h4v1h-4z M87,80h5v1h-5z M109,80h5v1h-5z M117,80h2v1h-2z M126,80h5v1h-5z M141,80h5v1h-5z M148,80h5v1h-5z M157,80h9v1h-9z M171,79h4v2h-4z M188,80h6v1h-6z M199,80h5v1h-5z M208,79h4v2h-4z M217,80h4v1h-4z M230,80h4v1h-4z M237,80h5v1h-5z M246,80h6v1h-6z M9,81h6v1h-6z M36,81h6v1h-6z M44,81h5v1h-5z M56,81h12v1h-12z M85,81h5v1h-5z M108,81h5v1h-5z M116,81h4v1h-4z M125,81h5v1h-5z M140,81h5v1h-5z M147,81h5v1h-5z M178,80h4v2h-4z M187,81h5v1h-5z M197,81h7v1h-7z M208,81h5v1h-5z M229,81h4v1h-4z M236,81h5v1h-5z M247,81h6v1h-6z M264,74h4v8h-4z M8,82h6v1h-6z M35,82h6v1h-6z M42,82h6v1h-6z M55,82h12v1h-12z M84,82h5v1h-5z M100,81h4v2h-4z M107,82h5v1h-5z M115,82h5v1h-5z M124,82h5v1h-5z M138,82h7v1h-7z M146,82h5v1h-5z M156,81h9v2h-9z M170,81h4v2h-4z M177,82h5v1h-5z M209,82h4v1h-4z M228,82h4v1h-4z M249,82h4v1h-4z M263,82h5v1h-5z M1,80h5v4h-5z M8,83h4v1h-4z M33,83h13v1h-13z M55,83h10v1h-10z M77,81h4v3h-4z M84,83h4v1h-4z M98,83h5v1h-5z M106,83h4v1h-4z M115,83h4v1h-4z M123,83h5v1h-5z M137,83h6v1h-6z M144,83h6v1h-6z M154,83h10v1h-10z M177,83h4v1h-4z M196,82h10v2h-10z M227,83h4v1h-4z M236,82h4v2h-4z M7,84h4v1h-4z M33,84h12v1h-12z M54,84h10v1h-10z M76,84h4v1h-4z M82,84h5v1h-5z M97,84h5v1h-5z M105,84h5v1h-5z M114,84h4v1h-4z M123,84h4v1h-4z M137,84h5v1h-5z M144,84h5v1h-5z M153,84h10v1h-10z M169,83h4v2h-4z M176,84h5v1h-5z M186,82h5v3h-5z M197,84h10v1h-10z M216,81h4v4h-4z M236,84h5v1h-5z M262,83h6v2h-6z M1,84h4v2h-4z M8,85h2v1h-2z M31,85h5v1h-5z M37,85h7v1h-7z M53,85h10v1h-10z M75,85h4v1h-4z M82,85h4v1h-4z M97,85h4v1h-4z M104,85h5v1h-5z M113,85h5v1h-5z M122,85h4v1h-4z M135,85h6v1h-6z M142,85h6v1h-6z M152,85h10v1h-10z M168,85h4v1h-4z M175,85h5v1h-5z M186,85h7v1h-7z M199,85h8v1h-8z M210,83h4v3h-4z M226,84h5v2h-5z M232,85h1v1h-1z M236,85h7v1h-7z M250,83h4v3h-4z M261,85h7v1h-7z M30,86h5v1h-5z M37,86h5v1h-5z M53,86h9v1h-9z M74,86h5v1h-5z M81,86h4v1h-4z M96,86h4v1h-4z M103,86h5v1h-5z M112,86h5v1h-5z M121,86h4v1h-4z M134,86h6v1h-6z M141,86h5v1h-5z M150,86h11v1h-11z M167,86h4v1h-4z M175,86h4v1h-4z M188,86h6v1h-6z M202,86h4v1h-4z M209,86h5v1h-5z M226,86h10v1h-10z M239,86h4v1h-4z M260,86h8v1h-8z M28,87h6v1h-6z M36,87h5v1h-5z M52,87h9v1h-9z M73,87h5v1h-5z M80,87h4v1h-4z M95,87h5v1h-5z M102,87h4v1h-4z M112,87h4v1h-4z M120,87h4v1h-4z M134,87h4v1h-4z M140,87h5v1h-5z M149,87h11v1h-11z M166,87h5v1h-5z M174,87h4v1h-4z M189,87h5v1h-5z M201,87h5v1h-5z M208,87h5v1h-5z M227,87h9v1h-9z M249,86h4v2h-4z M258,87h10v1h-10z M27,88h6v1h-6z M36,88h3v1h-3z M51,88h9v1h-9z M72,88h5v1h-5z M79,88h5v1h-5z M95,88h4v1h-4z M101,88h5v1h-5z M111,88h5v1h-5z M119,88h4v1h-4z M133,88h4v1h-4z M139,88h5v1h-5z M147,88h12v1h-12z M165,88h5v1h-5z M174,88h3v1h-3z M190,88h4v1h-4z M199,88h6v1h-6z M207,88h5v1h-5z M229,88h2v1h-2z M240,87h4v2h-4z M248,88h4v1h-4z M257,88h11v1h-11z M25,89h6v1h-6z M36,89h1v1h-1z M50,89h9v1h-9z M71,89h5v1h-5z M79,89h3v1h-3z M93,89h4v1h-4z M100,89h4v1h-4z M110,89h5v1h-5z M118,89h4v1h-4z M132,89h4v1h-4z M139,89h4v1h-4z M146,89h12v1h-12z M164,89h5v1h-5z M189,89h5v1h-5z M199,89h5v1h-5z M206,89h6v1h-6z M216,85h3v5h-3z M232,88h4v2h-4z M239,89h5v1h-5z M247,89h4v1h-4z M256,89h12v1h-12z M24,90h6v1h-6z M49,90h9v1h-9z M70,90h5v1h-5z M78,90h4v1h-4z M93,90h3v1h-3z M99,90h4v1h-4z M109,90h5v1h-5z M131,90h4v1h-4z M138,90h4v1h-4z M145,90h12v1h-12z M164,90h4v1h-4z M188,90h5v1h-5z M197,90h13v1h-13z M232,90h3v1h-3z M238,90h5v1h-5z M246,90h4v1h-4z M255,90h13v1h-13z M1,86h5v6h-5z M23,91h5v1h-5z M48,91h9v1h-9z M69,91h5v1h-5z M77,91h4v1h-4z M92,91h4v1h-4z M98,91h5v1h-5z M108,91h5v1h-5z M117,90h4v2h-4z M137,91h5v1h-5z M144,91h12v1h-12z M162,91h5v1h-5z M187,91h5v1h-5z M196,91h13v1h-13z M215,90h4v2h-4z M231,91h5v1h-5z M237,91h5v1h-5z M245,91h4v1h-4z M254,91h14v1h-14z M2,92h3v1h-3z M22,92h5v1h-5z M29,91h4v2h-4z M47,92h9v1h-9z M68,92h5v1h-5z M76,92h5v1h-5z M91,92h4v1h-4z M98,92h4v1h-4z M107,92h5v1h-5z M115,92h5v1h-5z M130,91h4v2h-4z M136,92h6v1h-6z M143,92h12v1h-12z M160,92h6v1h-6z M185,92h6v1h-6z M195,92h13v1h-13z M214,92h4v1h-4z M230,92h11v1h-11z M244,92h5v1h-5z M253,92h15v1h-15z M20,93h6v1h-6z M28,93h5v1h-5z M46,93h5v1h-5z M52,93h3v1h-3z M67,93h5v1h-5z M75,93h5v1h-5z M90,93h5v1h-5z M97,93h4v1h-4z M106,93h5v1h-5z M115,93h4v1h-4z M129,93h4v1h-4z M135,93h5v1h-5z M142,93h11v1h-11z M159,93h6v1h-6z M184,93h6v1h-6z M193,93h13v1h-13z M213,93h5v1h-5z M229,93h11v1h-11z M242,93h5v1h-5z M253,93h4v1h-4z M258,93h10v1h-10z M19,94h6v1h-6z M26,94h7v1h-7z M44,94h5v1h-5z M66,94h5v1h-5z M74,94h5v1h-5z M89,94h5v1h-5z M96,94h4v1h-4z M105,94h5v1h-5z M114,94h4v1h-4z M129,94h3v1h-3z M134,94h5v1h-5z M142,94h10v1h-10z M158,94h6v1h-6z M183,94h5v1h-5z M192,94h14v1h-14z M212,94h5v1h-5z M228,94h11v1h-11z M242,94h4v1h-4z M252,94h5v1h-5z M17,95h7v1h-7z M25,95h7v1h-7z M43,95h6v1h-6z M65,95h5v1h-5z M74,95h4v1h-4z M88,95h5v1h-5z M95,95h4v1h-4z M104,95h5v1h-5z M113,95h5v1h-5z M134,95h4v1h-4z M141,95h10v1h-10z M157,95h5v1h-5z M166,95h2v1h-2z M181,95h5v1h-5z M190,95h13v1h-13z M209,95h8v1h-8z M227,95h11v1h-11z M241,95h4v1h-4z M258,94h4v2h-4z M17,96h5v1h-5z M24,96h6v1h-6z M42,96h7v1h-7z M64,96h5v1h-5z M74,96h3v1h-3z M86,96h12v1h-12z M103,96h5v1h-5z M113,96h4v1h-4z M128,95h4v2h-4z M133,96h5v1h-5z M141,96h9v1h-9z M156,96h5v1h-5z M165,96h4v1h-4z M180,96h5v1h-5z M189,96h13v1h-13z M208,96h9v1h-9z M227,96h10v1h-10z M241,96h1v1h-1z M252,95h4v2h-4z M258,96h3v1h-3z M15,97h5v1h-5z M23,97h6v1h-6z M41,97h9v1h-9z M64,97h4v1h-4z M85,97h12v1h-12z M102,97h5v1h-5z M155,97h5v1h-5z M178,97h5v1h-5z M188,97h12v1h-12z M207,97h10v1h-10z M228,97h7v1h-7z M14,98h5v1h-5z M22,98h6v1h-6z M39,98h11v1h-11z M63,98h4v1h-4z M83,98h6v1h-6z M90,98h6v1h-6z M102,98h4v1h-4z M113,97h3v2h-3z M155,98h4v1h-4z M164,97h5v2h-5z M177,98h5v1h-5z M187,98h12v1h-12z M206,98h10v1h-10z M228,98h6v1h-6z M252,97h3v2h-3z M21,99h5v1h-5z M38,99h11v1h-11z M61,99h4v1h-4z M82,99h6v1h-6z M90,99h5v1h-5z M141,97h8v3h-8z M163,99h4v1h-4z M176,99h5v1h-5z M186,99h12v1h-12z M204,99h11v1h-11z M227,99h6v1h-6z M14,99h4v2h-4z M20,100h5v1h-5z M38,100h10v1h-10z M60,100h4v1h-4z M68,100h3v1h-3z M81,100h5v1h-5z M102,99h3v2h-3z M113,99h4v2h-4z M128,97h3v4h-3z M154,99h4v2h-4z M162,100h4v1h-4z M175,100h4v1h-4z M184,100h12v1h-12z M202,100h12v1h-12z M220,100h2v1h-2z M225,100h6v1h-6z M251,99h4v2h-4z M13,101h5v1h-5z M19,101h5v1h-5z M38,101h9v1h-9z M59,101h4v1h-4z M67,101h4v1h-4z M80,101h5v1h-5z M127,101h4v1h-4z M133,97h4v5h-4z M142,100h8v2h-8z M155,101h3v1h-3z M161,101h4v1h-4z M174,101h4v1h-4z M183,101h12v1h-12z M201,101h12v1h-12z M220,101h10v1h-10z M250,101h4v1h-4z M257,97h4v5h-4z M13,102h10v1h-10z M58,102h4v1h-4z M67,102h3v1h-3z M80,102h4v1h-4z M90,100h4v3h-4z M126,102h5v1h-5z M132,102h4v1h-4z M154,102h4v1h-4z M160,102h4v1h-4z M173,102h4v1h-4z M182,102h12v1h-12z M201,102h11v1h-11z M218,102h11v1h-11z M248,102h6v1h-6z M256,102h4v1h-4z M14,103h9v1h-9z M37,102h9v2h-9z M57,103h5v1h-5z M65,103h5v1h-5z M91,103h4v1h-4z M113,101h3v3h-3z M126,103h4v1h-4z M131,103h5v1h-5z M142,102h3v2h-3z M146,102h4v2h-4z M154,103h3v1h-3z M160,103h3v1h-3z M172,103h4v1h-4z M181,103h6v1h-6z M188,103h5v1h-5z M200,103h11v1h-11z M218,103h10v1h-10z M247,103h6v1h-6z M255,103h5v1h-5z M14,104h4v1h-4z M19,104h4v1h-4z M57,104h4v1h-4z M64,104h5v1h-5z M112,104h3v1h-3z M125,104h4v1h-4z M131,104h4v1h-4z M142,104h8v1h-8z M153,104h4v1h-4z M159,104h4v1h-4z M171,104h4v1h-4z M181,104h4v1h-4z M187,104h5v1h-5z M198,104h11v1h-11z M216,104h11v1h-11z M246,104h6v1h-6z M255,104h4v1h-4z M20,105h4v1h-4z M41,104h4v2h-4z M56,105h4v1h-4z M63,105h5v1h-5z M92,104h3v2h-3z M102,101h4v5h-4z M110,105h5v1h-5z M124,105h4v1h-4z M130,105h4v1h-4z M141,105h9v1h-9z M153,105h3v1h-3z M159,105h3v1h-3z M169,105h5v1h-5z M179,105h5v1h-5z M186,105h5v1h-5z M197,105h11v1h-11z M215,105h10v1h-10z M244,105h6v1h-6z M254,105h5v1h-5z M264,94h4v12h-4z M13,105h4v2h-4z M21,106h4v1h-4z M56,106h3v1h-3z M62,106h5v1h-5z M79,103h4v4h-4z M91,106h4v1h-4z M101,106h4v1h-4z M110,106h4v1h-4z M123,106h5v1h-5z M129,106h4v1h-4z M140,106h9v1h-9z M152,106h4v1h-4z M158,106h4v1h-4z M169,106h4v1h-4z M178,106h5v1h-5z M185,106h5v1h-5z M195,106h11v1h-11z M213,106h11v1h-11z M242,106h6v1h-6z M252,106h6v1h-6z M263,106h5v1h-5z M12,107h4v1h-4z M20,107h5v1h-5z M42,106h4v2h-4z M80,107h4v1h-4z M90,107h5v1h-5z M100,107h4v1h-4z M108,107h6v1h-6z M122,107h11v1h-11z M139,107h9v1h-9z M151,107h4v1h-4z M168,107h4v1h-4z M178,107h4v1h-4z M185,107h4v1h-4z M194,107h11v1h-11z M212,107h11v1h-11z M241,107h6v1h-6z M251,107h6v1h-6z M10,108h6v1h-6z M20,108h4v1h-4z M36,104h4v5h-4z M43,108h3v1h-3z M62,107h4v2h-4z M89,108h5v1h-5z M99,108h4v1h-4z M108,108h5v1h-5z M122,108h10v1h-10z M138,108h9v1h-9z M150,108h5v1h-5z M157,107h4v2h-4z M177,108h4v1h-4z M185,108h2v1h-2z M193,108h11v1h-11z M211,108h11v1h-11z M240,108h5v1h-5z M248,108h7v1h-7z M262,107h6v2h-6z M9,109h6v1h-6z M18,109h5v1h-5z M34,109h5v1h-5z M42,109h4v1h-4z M55,107h4v3h-4z M63,109h4v1h-4z M89,109h4v1h-4z M98,109h4v1h-4z M107,109h5v1h-5z M120,109h11v1h-11z M137,109h9v1h-9z M149,109h5v1h-5z M156,109h4v1h-4z M167,108h4v2h-4z M192,109h11v1h-11z M210,109h10v1h-10z M238,109h6v1h-6z M246,109h8v1h-8z M261,109h7v1h-7z M1,93h4v18h-4z M8,110h5v1h-5z M17,110h6v1h-6z M33,110h5v1h-5z M41,110h5v1h-5z M56,110h3v1h-3z M63,110h5v1h-5z M88,110h4v1h-4z M96,110h5v1h-5z M106,110h5v1h-5z M119,110h11v1h-11z M136,110h9v1h-9z M147,110h6v1h-6z M155,110h5v1h-5z M167,110h3v1h-3z M176,109h4v2h-4z M192,110h4v1h-4z M209,110h10v1h-10z M236,110h7v1h-7z M244,110h9v1h-9z M260,110h8v1h-8z M1,111h5v1h-5z M7,111h5v1h-5z M16,111h6v1h-6z M32,111h6v1h-6z M40,111h6v1h-6z M56,111h4v1h-4z M64,111h5v1h-5z M81,108h4v4h-4z M87,111h4v1h-4z M95,111h5v1h-5z M104,111h5v1h-5z M118,111h10v1h-10z M135,111h9v1h-9z M147,111h5v1h-5z M154,111h5v1h-5z M166,111h4v1h-4z M175,111h4v1h-4z M208,111h5v1h-5z M214,111h4v1h-4z M235,111h6v1h-6z M242,111h9v1h-9z M259,111h9v1h-9z M1,112h10v1h-10z M14,112h6v1h-6z M30,112h6v1h-6z M39,112h5v1h-5z M57,112h4v1h-4z M65,112h4v1h-4z M80,112h10v1h-10z M93,112h6v1h-6z M103,112h5v1h-5z M117,112h11v1h-11z M133,112h10v1h-10z M146,112h5v1h-5z M154,112h4v1h-4z M174,112h5v1h-5z M181,112h2v1h-2z M191,111h5v2h-5z M197,110h5v3h-5z M214,112h5v1h-5z M234,112h14v1h-14z M258,112h10v1h-10z M1,113h9v1h-9z M13,113h6v1h-6z M29,113h6v1h-6z M38,113h5v1h-5z M66,113h3v1h-3z M79,113h10v1h-10z M92,113h6v1h-6z M101,113h5v1h-5z M116,113h11v1h-11z M132,113h10v1h-10z M145,113h6v1h-6z M153,113h4v1h-4z M165,112h4v2h-4z M174,113h4v1h-4z M180,113h3v1h-3z M192,113h11v1h-11z M214,113h6v1h-6z M233,113h13v1h-13z M257,113h11v1h-11z M1,114h8v1h-8z M12,114h6v1h-6z M28,114h6v1h-6z M37,114h5v1h-5z M77,114h11v1h-11z M91,114h5v1h-5z M101,114h4v1h-4z M115,114h5v1h-5z M121,114h4v1h-4z M132,114h9v1h-9z M144,114h5v1h-5z M150,114h6v1h-6z M164,114h4v1h-4z M173,114h4v1h-4z M179,114h4v1h-4z M193,114h5v1h-5z M206,112h6v3h-6z M231,114h13v1h-13z M256,114h12v1h-12z M11,115h6v1h-6z M27,115h6v1h-6z M36,115h5v1h-5z M57,113h5v3h-5z M65,114h4v2h-4z M76,115h6v1h-6z M83,115h5v1h-5z M90,115h5v1h-5z M100,115h4v1h-4z M113,115h5v1h-5z M120,115h4v1h-4z M129,115h12v1h-12z M143,115h5v1h-5z M149,115h6v1h-6z M163,115h4v1h-4z M172,115h5v1h-5z M178,115h5v1h-5z M194,115h4v1h-4z M199,114h4v2h-4z M206,115h7v1h-7z M216,114h4v2h-4z M230,115h12v1h-12z M254,115h14v1h-14z M1,115h6v2h-6z M10,116h5v1h-5z M26,116h4v1h-4z M33,116h6v1h-6z M56,116h5v1h-5z M63,116h5v1h-5z M76,116h4v1h-4z M83,116h4v1h-4z M89,116h5v1h-5z M100,116h3v1h-3z M113,116h4v1h-4z M119,116h5v1h-5z M129,116h11v1h-11z M143,116h4v1h-4z M148,116h6v1h-6z M162,116h5v1h-5z M170,116h6v1h-6z M177,116h5v1h-5z M194,116h9v1h-9z M207,116h7v1h-7z M253,116h15v1h-15z M1,117h5v1h-5z M9,117h5v1h-5z M25,117h4v1h-4z M32,117h6v1h-6z M55,117h5v1h-5z M62,117h5v1h-5z M75,117h4v1h-4z M82,117h5v1h-5z M88,117h5v1h-5z M99,117h3v1h-3z M111,117h5v1h-5z M119,117h4v1h-4z M128,117h11v1h-11z M141,117h4v1h-4z M146,117h7v1h-7z M161,117h5v1h-5z M169,117h6v1h-6z M176,117h5v1h-5z M193,117h10v1h-10z M217,116h3v2h-3z M229,116h11v2h-11z M252,117h16v1h-16z M8,118h5v1h-5z M24,118h4v1h-4z M31,118h6v1h-6z M54,118h12v1h-12z M81,118h5v1h-5z M88,118h4v1h-4z M98,118h4v1h-4z M110,118h5v1h-5z M118,118h4v1h-4z M127,118h11v1h-11z M139,118h5v1h-5z M145,118h7v1h-7z M160,118h5v1h-5z M168,118h5v1h-5z M175,118h5v1h-5z M192,118h10v1h-10z M209,117h5v2h-5z M216,118h4v1h-4z M252,118h10v1h-10z M1,118h4v2h-4z M7,119h5v1h-5z M23,119h4v1h-4z M30,119h5v1h-5z M53,119h5v1h-5z M59,119h6v1h-6z M74,118h4v2h-4z M80,119h4v1h-4z M87,119h4v1h-4z M97,119h4v1h-4z M109,119h5v1h-5z M117,119h5v1h-5z M126,119h11v1h-11z M139,119h3v1h-3z M145,119h5v1h-5z M159,119h5v1h-5z M167,119h5v1h-5z M174,119h5v1h-5z M191,119h10v1h-10z M209,119h9v1h-9z M233,118h5v2h-5z M251,119h10v1h-10z M1,120h10v1h-10z M22,120h4v1h-4z M29,120h5v1h-5z M52,120h4v1h-4z M58,120h6v1h-6z M74,120h9v1h-9z M87,120h3v1h-3z M96,120h5v1h-5z M108,120h5v1h-5z M116,120h5v1h-5z M125,120h11v1h-11z M138,120h3v1h-3z M144,120h5v1h-5z M157,120h6v1h-6z M173,120h5v1h-5z M190,120h10v1h-10z M208,120h10v1h-10z M228,118h4v3h-4z M250,120h10v1h-10z M264,118h4v3h-4z M1,121h9v1h-9z M22,121h3v1h-3z M29,121h4v1h-4z M49,121h6v1h-6z M57,121h6v1h-6z M73,121h9v1h-9z M96,121h4v1h-4z M107,121h4v1h-4z M116,121h4v1h-4z M123,121h12v1h-12z M137,121h4v1h-4z M156,121h6v1h-6z M166,120h5v2h-5z M172,121h5v1h-5z M188,121h11v1h-11z M206,121h11v1h-11z M226,121h5v1h-5z M250,121h5v1h-5z M262,121h6v1h-6z M21,122h3v1h-3z M48,122h6v1h-6z M56,122h6v1h-6z M71,122h10v1h-10z M86,121h3v2h-3z M95,122h4v1h-4z M106,122h5v1h-5z M115,122h4v1h-4z M123,122h10v1h-10z M136,122h4v1h-4z M142,121h5v2h-5z M156,122h4v1h-4z M164,122h6v1h-6z M171,122h5v1h-5z M186,122h11v1h-11z M205,122h11v1h-11z M225,122h6v1h-6z M234,120h4v3h-4z M250,122h4v1h-4z M256,121h4v2h-4z M261,122h7v1h-7z M1,122h8v2h-8z M46,123h6v1h-6z M55,123h5v1h-5z M70,123h10v1h-10z M85,123h4v1h-4z M94,123h4v1h-4z M105,123h5v1h-5z M114,123h4v1h-4z M122,123h4v1h-4z M128,123h4v1h-4z M135,123h4v1h-4z M142,123h3v1h-3z M154,123h5v1h-5z M163,123h6v1h-6z M170,123h5v1h-5z M184,123h12v1h-12z M204,123h11v1h-11z M224,123h6v1h-6z M233,123h4v1h-4z M249,123h5v1h-5z M256,123h12v1h-12z M1,124h6v1h-6z M28,122h4v3h-4z M69,124h10v1h-10z M93,124h4v1h-4z M104,124h5v1h-5z M113,124h4v1h-4z M121,124h5v1h-5z M134,124h5v1h-5z M153,124h5v1h-5z M162,124h5v1h-5z M170,124h4v1h-4z M183,124h12v1h-12z M202,124h12v1h-12z M223,124h6v1h-6z M232,124h5v1h-5z M248,124h6v1h-6z M255,124h13v1h-13z M17,125h3v1h-3z M26,125h6v1h-6z M45,124h5v2h-5z M55,124h4v2h-4z M68,125h4v1h-4z M84,124h4v2h-4z M92,125h4v1h-4z M103,125h5v1h-5z M111,125h6v1h-6z M120,125h5v1h-5z M133,125h5v1h-5z M152,125h5v1h-5z M162,125h4v1h-4z M169,125h5v1h-5z M181,125h13v1h-13z M201,125h11v1h-11z M222,125h6v1h-6z M231,125h5v1h-5z M247,125h6v1h-6z M254,125h14v1h-14z M1,125h5v2h-5z M16,126h4v1h-4z M25,126h6v1h-6z M43,126h5v1h-5z M55,126h3v1h-3z M67,126h4v1h-4z M74,125h4v2h-4z M82,126h5v1h-5z M91,126h5v1h-5z M102,126h5v1h-5z M110,126h6v1h-6z M119,126h7v1h-7z M132,126h5v1h-5z M151,126h5v1h-5z M161,126h5v1h-5z M168,126h5v1h-5z M180,126h13v1h-13z M200,126h11v1h-11z M221,126h5v1h-5z M229,126h6v1h-6z M246,126h5v1h-5z M253,126h15v1h-15z M14,127h6v1h-6z M24,127h6v1h-6z M42,127h5v1h-5z M54,127h4v1h-4z M65,127h5v1h-5z M72,127h5v1h-5z M81,127h4v1h-4z M90,127h4v1h-4z M101,127h5v1h-5z M110,127h5v1h-5z M118,127h9v1h-9z M131,127h5v1h-5z M150,127h5v1h-5z M160,127h5v1h-5z M167,127h4v1h-4z M178,127h14v1h-14z M198,127h12v1h-12z M220,127h6v1h-6z M228,127h5v1h-5z M244,127h6v1h-6z M252,127h11v1h-11z M13,128h6v1h-6z M23,128h5v1h-5z M53,128h5v1h-5z M65,128h4v1h-4z M71,128h5v1h-5z M80,128h5v1h-5z M88,128h4v1h-4z M100,128h5v1h-5z M109,128h4v1h-4z M117,128h10v1h-10z M130,128h5v1h-5z M149,128h5v1h-5z M159,128h5v1h-5z M165,128h5v1h-5z M177,128h13v1h-13z M198,128h11v1h-11z M219,128h5v1h-5z M226,128h6v1h-6z M242,128h20v1h-20z M12,129h5v1h-5z M22,129h5v1h-5z M52,129h5v1h-5z M63,129h5v1h-5z M70,129h5v1h-5z M78,129h6v1h-6z M87,129h5v1h-5z M99,129h5v1h-5z M108,129h4v1h-4z M116,129h11v1h-11z M128,129h6v1h-6z M148,129h5v1h-5z M158,129h11v1h-11z M176,129h6v1h-6z M184,129h5v1h-5z M198,129h10v1h-10z M217,129h6v1h-6z M225,129h5v1h-5z M242,129h5v1h-5z M249,129h11v1h-11z M1,127h4v4h-4z M11,130h5v1h-5z M21,130h5v1h-5z M42,128h4v3h-4z M50,130h6v1h-6z M62,130h5v1h-5z M69,130h5v1h-5z M77,130h5v1h-5z M86,130h5v1h-5z M98,130h5v1h-5z M106,130h5v1h-5z M115,130h11v1h-11z M147,130h5v1h-5z M157,130h6v1h-6z M164,130h5v1h-5z M175,130h5v1h-5z M184,130h4v1h-4z M216,130h6v1h-6z M224,130h5v1h-5z M241,130h5v1h-5z M248,130h10v1h-10z M264,127h4v4h-4z M1,131h5v1h-5z M10,131h6v1h-6z M19,131h6v1h-6z M41,131h5v1h-5z M49,131h6v1h-6z M61,131h12v1h-12z M76,131h6v1h-6z M85,131h6v1h-6z M97,131h5v1h-5z M104,131h6v1h-6z M114,131h12v1h-12z M127,130h5v2h-5z M145,131h6v1h-6z M156,131h13v1h-13z M173,131h7v1h-7z M184,131h3v1h-3z M198,130h8v2h-8z M209,131h1v1h-1z M215,131h6v1h-6z M223,131h7v1h-7z M239,131h29v1h-29z M2,132h266v3h-266z M3,135h224v1h-224z M229,135h20v1h-20z M252,135h8v1h-8z M263,135h4v1h-4z M16,136h1v1h-1z M29,136h4v1h-4z M47,136h1v1h-1z M64,136h2v1h-2z M74,136h1v1h-1z M150,136h2v1h-2z
  "/>
</svg>