<?xml version="1.0" encoding="UTF-8"?>
<svg xmlns="http://www.w3.org/2000/svg" viewBox="0 0 268 138" width="268" height="138">
  <title>31 Coal</title>
  <path fill="#111111" fill-rule="nonzero" d="
    M12,1h42v1h-42z M58,1h28v1h-28z M98,1h6v1h-6z M3,2h229v1h-229z M3,3h263v1h-263z M2,4h264v7h-264z M2,11h265v3h-265z M2,14h264v1h-264z M2,15h265v6h-265z M3,21h264v4h-264z M2,25h265v3h-265z M2,28h264v2h-264z M2,30h265v15h-265z M3,45h264v3h-264z M2,48h265v19h-265z M2,67h264v2h-264z M2,69h265v24h-265z M2,93h264v17h-264z M1,110h265v2h-265z M2,112h264v22h-264z M3,134h263v1h-263z M4,135h44v1h-44z M49,135h217v1h-217z M154,136h4v1h-4z M167,136h4v1h-4z M182,136h2v1h-2z M185,136h6v1h-6z M192,136h73v1h-73z
  "/>
</svg>