<?xml version="1.0" encoding="UTF-8"?>
<svg xmlns="http://www.w3.org/2000/svg" viewBox="0 0 268 138" width="268" height="138">
  <title>26 Sandy shale</title>
  <path fill="#111111" fill-rule="nonzero" d="
    M218,0h2v1h-2z M13,1h2v1h-2z M39,1h2v1h-2z M61,1h2v1h-2z M67,1h1v1h-1z M69,1h1v1h-1z M71,1h6v1h-6z M82,1h21v1h-21z M106,1h16v1h-16z M124,1h10v1h-10z M136,1h131v1h-131z M2,2h266v1h-266z M1,3h267v2h-267z M0,5h216v1h-216z M219,5h3v1h-3z M223,5h15v1h-15z M242,5h4v1h-4z M252,5h3v1h-3z M262,5h6v1h-6z M0,6h6v1h-6z M13,6h3v1h-3z M19,6h2v1h-2z M26,6h1v1h-1z M31,6h2v1h-2z M42,6h1v1h-1z M46,6h3v1h-3z M122,6h1v1h-1z M0,7h5v1h-5z M201,9h2v1h-2z M232,9h2v1h-2z M244,9h1v1h-1z M258,9h1v1h-1z M263,6h4v4h-4z M1,8h4v3h-4z M31,10h1v1h-1z M39,10h1v1h-1z M70,10h49v1h-49z M132,10h2v1h-2z M140,10h2v1h-2z M174,10h2v1h-2z M183,10h1v1h-1z M1,11h7v1h-7z M14,11h2v1h-2z M20,11h4v1h-4z M30,11h3v1h-3z M38,11h4v1h-4z M48,11h2v1h-2z M56,11h3v1h-3z M124,11h4v1h-4z M147,11h4v1h-4z M156,11h2v1h-2z M165,11h2v1h-2z M182,11h3v1h-3z M190,11h3v1h-3z M1,12h8v1h-8z M46,12h4v1h-4z M56,12h4v1h-4z M66,11h54v2h-54z M139,11h4v2h-4z M147,12h5v1h-5z M199,10h68v3h-68z M29,12h5v2h-5z M37,12h5v2h-5z M45,13h5v1h-5z M55,13h5v1h-5z M66,13h2v1h-2z M71,13h48v1h-48z M123,12h5v2h-5z M131,11h4v3h-4z M139,13h5v1h-5z M147,13h4v1h-4z M155,12h4v2h-4z M164,12h4v2h-4z M173,11h4v3h-4z M182,12h4v2h-4z M190,12h4v2h-4z M200,13h15v1h-15z M216,13h2v1h-2z M244,13h2v1h-2z M250,13h9v1h-9z M262,13h5v1h-5z M1,13h9v2h-9z M12,12h5v3h-5z M20,12h5v3h-5z M29,14h4v1h-4z M38,14h4v1h-4z M46,14h4v1h-4z M55,14h6v1h-6z M125,14h3v1h-3z M132,14h1v1h-1z M140,14h3v1h-3z M148,14h3v1h-3z M156,14h3v1h-3z M165,14h2v1h-2z M174,14h2v1h-2z M1,15h8v1h-8z M14,15h2v1h-2z M21,15h3v1h-3z M30,15h2v1h-2z M39,15h1v1h-1z M49,15h1v1h-1z M58,15h1v1h-1z M1,16h5v1h-5z M263,14h4v5h-4z M1,17h4v3h-4z M8,19h8v1h-8z M18,19h3v1h-3z M24,19h7v1h-7z M32,19h2v1h-2z M40,19h2v1h-2z M47,19h5v1h-5z M117,19h2v1h-2z M137,19h1v1h-1z M140,19h13v1h-13z M162,19h4v1h-4z M168,19h7v1h-7z M176,19h27v1h-27z M210,19h1v1h-1z M217,19h1v1h-1z M258,19h9v1h-9z M66,20h3v1h-3z M73,20h3v1h-3z M81,20h3v1h-3z M88,20h4v1h-4z M98,20h3v1h-3z M107,20h3v1h-3z M123,20h3v1h-3z M130,20h2v1h-2z M135,20h69v1h-69z M208,20h4v1h-4z M215,20h3v1h-3z M229,20h2v1h-2z M236,20h1v1h-1z M241,20h2v1h-2z M247,20h3v1h-3z M255,20h12v1h-12z M80,21h5v1h-5z M97,21h4v1h-4z M116,20h4v2h-4z M130,21h3v1h-3z M135,21h70v1h-70z M208,21h5v1h-5z M214,21h5v1h-5z M241,21h3v1h-3z M254,21h13v1h-13z M1,20h53v3h-53z M66,21h4v2h-4z M73,21h4v2h-4z M80,22h6v1h-6z M88,21h5v2h-5z M97,22h5v1h-5z M106,21h5v2h-5z M116,22h5v1h-5z M130,22h4v1h-4z M135,22h69v1h-69z M208,22h4v1h-4z M214,22h4v1h-4z M222,20h2v3h-2z M229,21h3v2h-3z M235,21h3v2h-3z M241,22h2v1h-2z M247,21h4v2h-4z M255,22h2v1h-2z M260,22h7v1h-7z M1,23h32v1h-32z M34,23h19v1h-19z M58,20h4v4h-4z M67,23h2v1h-2z M74,23h3v1h-3z M81,23h4v1h-4z M89,23h4v1h-4z M97,23h4v1h-4z M107,23h4v1h-4z M116,23h4v1h-4z M123,21h4v3h-4z M130,23h3v1h-3z M154,23h2v1h-2z M163,23h3v1h-3z M170,23h1v1h-1z M177,23h1v1h-1z M201,23h1v1h-1z M215,23h3v1h-3z M229,23h2v1h-2z M248,23h2v1h-2z M82,24h1v1h-1z M90,24h2v1h-2z M108,24h2v1h-2z M117,24h1v1h-1z M124,24h2v1h-2z M263,23h4v4h-4z M1,24h4v4h-4z M263,27h5v1h-5z M1,28h77v1h-77z M82,28h4v1h-4z M90,28h2v1h-2z M97,28h2v1h-2z M103,28h4v1h-4z M112,28h3v1h-3z M121,28h2v1h-2z M142,28h6v1h-6z M150,28h1v1h-1z M176,28h2v1h-2z M189,28h8v1h-8z M201,28h2v1h-2z M215,28h1v1h-1z M222,28h1v1h-1z M229,28h2v1h-2z M235,28h3v1h-3z M241,28h2v1h-2z M248,28h19v1h-19z M1,29h85v1h-85z M89,29h3v1h-3z M95,29h4v1h-4z M120,29h3v1h-3z M127,28h3v2h-3z M134,29h63v1h-63z M200,29h4v1h-4z M209,29h1v1h-1z M214,29h3v1h-3z M240,29h4v1h-4z M82,30h4v1h-4z M89,30h4v1h-4z M96,30h4v1h-4z M103,29h5v2h-5z M111,29h5v2h-5z M119,30h5v1h-5z M134,30h64v1h-64z M200,30h5v1h-5z M208,30h2v1h-2z M213,30h4v1h-4z M235,29h4v2h-4z M247,29h21v2h-21z M1,30h78v2h-78z M83,31h3v1h-3z M89,31h3v1h-3z M96,31h3v1h-3z M104,31h4v1h-4z M112,31h4v1h-4z M120,31h4v1h-4z M128,30h2v2h-2z M135,31h63v1h-63z M200,31h4v1h-4z M209,31h1v1h-1z M214,31h3v1h-3z M221,29h3v3h-3z M228,29h4v3h-4z M235,31h3v1h-3z M241,30h3v2h-3z M248,31h20v1h-20z M7,32h6v1h-6z M24,32h2v1h-2z M58,32h2v1h-2z M68,32h2v1h-2z M75,32h3v1h-3z M84,32h1v1h-1z M114,32h1v1h-1z M121,32h2v1h-2z M137,32h1v1h-1z M156,32h3v1h-3z M177,32h3v1h-3z M184,32h2v1h-2z M195,32h1v1h-1z M201,32h3v1h-3z M215,32h1v1h-1z M222,32h1v1h-1z M230,32h1v1h-1z M262,32h6v1h-6z M1,32h4v4h-4z M263,33h5v3h-5z M1,36h5v1h-5z M29,36h1v1h-1z M53,36h2v1h-2z M65,36h2v1h-2z M70,36h3v1h-3z M88,36h2v1h-2z M97,36h1v1h-1z M101,36h4v1h-4z M121,36h1v1h-1z M212,36h2v1h-2z M221,36h3v1h-3z M236,36h3v1h-3z M257,36h2v1h-2z M262,36h6v1h-6z M1,37h123v1h-123z M132,37h136v1h-136z M1,38h124v2h-124z M130,38h137v2h-137z M1,40h123v1h-123z M131,40h136v1h-136z M1,41h4v3h-4z M263,41h4v3h-4z M1,44h5v1h-5z M8,44h28v1h-28z M37,44h4v1h-4z M43,44h15v1h-15z M59,44h5v1h-5z M65,44h44v1h-44z M110,44h14v1h-14z M146,44h1v1h-1z M159,44h4v1h-4z M164,44h13v1h-13z M182,44h4v1h-4z M194,44h2v1h-2z M201,44h10v1h-10z M214,44h2v1h-2z M220,44h8v1h-8z M232,44h10v1h-10z M258,44h1v1h-1z M262,44h5v1h-5z M1,45h136v1h-136z M1,46h137v2h-137z M143,45h124v3h-124z M1,48h136v1h-136z M146,48h21v1h-21z M168,48h34v1h-34z M203,48h31v1h-31z M236,48h5v1h-5z M242,48h25v1h-25z M1,49h5v1h-5z M108,49h1v1h-1z M1,50h4v2h-4z M263,49h4v3h-4z M1,52h7v1h-7z M11,52h3v1h-3z M18,52h1v1h-1z M24,52h2v1h-2z M31,52h1v1h-1z M39,52h61v1h-61z M111,52h3v1h-3z M130,52h41v1h-41z M172,52h6v1h-6z M179,52h1v1h-1z M181,52h2v1h-2z M187,52h4v1h-4z M203,52h2v1h-2z M221,52h46v1h-46z M1,53h8v1h-8z M11,53h4v1h-4z M17,53h4v1h-4z M22,53h5v1h-5z M31,53h2v1h-2z M36,53h65v1h-65z M117,53h3v1h-3z M129,53h65v1h-65z M195,53h5v1h-5z M209,53h4v1h-4z M220,53h47v1h-47z M1,54h20v1h-20z M23,54h5v1h-5z M36,54h66v1h-66z M117,54h4v1h-4z M129,54h71v1h-71z M219,54h48v1h-48z M11,55h4v1h-4z M17,55h4v1h-4z M23,55h4v1h-4z M31,54h1v2h-1z M36,55h65v1h-65z M103,53h4v3h-4z M110,53h4v3h-4z M118,55h2v1h-2z M123,53h3v3h-3z M129,55h64v1h-64z M196,55h3v1h-3z M208,54h5v2h-5z M220,55h47v1h-47z M1,55h8v2h-8z M12,56h2v1h-2z M18,56h2v1h-2z M24,56h3v1h-3z M41,56h1v1h-1z M46,56h4v1h-4z M55,56h1v1h-1z M59,56h3v1h-3z M65,56h2v1h-2z M80,56h3v1h-3z M86,56h2v1h-2z M95,56h5v1h-5z M104,56h2v1h-2z M112,56h1v1h-1z M145,56h2v1h-2z M155,56h1v1h-1z M165,56h5v1h-5z M181,56h2v1h-2z M187,56h1v1h-1z M189,56h2v1h-2z M202,53h4v4h-4z M209,56h3v1h-3z M254,56h6v1h-6z M261,56h6v1h-6z M1,57h5v1h-5z M26,57h1v1h-1z M204,57h1v1h-1z M1,58h4v2h-4z M1,60h6v1h-6z M10,60h1v1h-1z M13,60h2v1h-2z M17,60h3v1h-3z M22,60h3v1h-3z M27,60h1v1h-1z M41,60h1v1h-1z M55,60h1v1h-1z M70,60h2v1h-2z M85,60h1v1h-1z M124,60h5v1h-5z M195,60h7v1h-7z M203,60h23v1h-23z M235,60h1v1h-1z M249,60h2v1h-2z M257,60h4v1h-4z M40,61h2v1h-2z M46,61h4v1h-4z M62,61h3v1h-3z M69,61h4v1h-4z M76,61h3v1h-3z M83,61h4v1h-4z M92,61h3v1h-3z M153,61h2v1h-2z M186,61h1v1h-1z M194,61h34v1h-34z M256,61h5v1h-5z M46,62h5v1h-5z M61,62h5v1h-5z M68,62h5v1h-5z M83,62h5v1h-5z M168,62h3v1h-3z M176,62h3v1h-3z M193,62h36v1h-36z M248,61h5v2h-5z M1,61h35v3h-35z M47,63h4v1h-4z M54,61h4v3h-4z M76,62h4v2h-4z M84,63h3v1h-3z M91,62h5v2h-5z M103,61h46v3h-46z M152,62h4v2h-4z M176,63h4v1h-4z M185,62h4v2h-4z M194,63h34v1h-34z M234,61h4v3h-4z M241,61h4v3h-4z M249,63h4v1h-4z M257,62h4v2h-4z M1,64h6v1h-6z M9,64h8v1h-8z M20,64h10v1h-10z M31,64h4v1h-4z M39,62h4v3h-4z M48,64h2v1h-2z M54,64h3v1h-3z M62,63h3v2h-3z M69,63h4v2h-4z M76,64h3v1h-3z M85,64h1v1h-1z M92,64h4v1h-4z M104,64h11v1h-11z M122,64h6v1h-6z M134,64h4v1h-4z M141,64h7v1h-7z M153,64h3v1h-3z M160,62h3v3h-3z M167,63h4v2h-4z M176,64h3v1h-3z M185,64h3v1h-3z M196,64h3v1h-3z M201,64h1v1h-1z M221,64h3v1h-3z M226,64h2v1h-2z M234,64h2v1h-2z M242,64h3v1h-3z M249,64h2v1h-2z M259,64h1v1h-1z M161,65h1v1h-1z M168,65h3v1h-3z M177,65h1v1h-1z M263,57h4v10h-4z M1,65h4v3h-4z M57,67h1v1h-1z M63,67h2v1h-2z M72,67h2v1h-2z M77,67h1v1h-1z M79,67h1v1h-1z M82,67h1v1h-1z M87,67h1v1h-1z M96,67h2v1h-2z M182,67h1v1h-1z M224,67h2v1h-2z M231,67h2v1h-2z M239,67h1v1h-1z M250,67h6v1h-6z M257,67h3v1h-3z M262,67h5v1h-5z M1,68h8v1h-8z M12,68h3v1h-3z M27,68h4v1h-4z M35,68h3v1h-3z M42,68h2v1h-2z M57,68h35v1h-35z M96,68h4v1h-4z M104,68h3v1h-3z M120,68h3v1h-3z M147,68h3v1h-3z M155,68h3v1h-3z M164,68h2v1h-2z M181,68h3v1h-3z M190,68h3v1h-3z M200,68h1v1h-1z M207,68h3v1h-3z M216,68h3v1h-3z M224,68h3v1h-3z M231,68h3v1h-3z M238,68h3v1h-3z M11,69h4v1h-4z M28,69h4v1h-4z M35,69h4v1h-4z M42,69h3v1h-3z M57,69h36v1h-36z M120,69h4v1h-4z M129,69h3v1h-3z M146,69h4v1h-4z M180,69h4v1h-4z M190,69h4v1h-4z M215,69h5v1h-5z M223,69h5v1h-5z M11,70h5v1h-5z M27,70h5v1h-5z M34,70h6v1h-6z M42,70h4v1h-4z M49,68h5v3h-5z M58,70h35v1h-35z M104,69h4v2h-4z M111,68h5v3h-5z M119,70h5v1h-5z M129,70h4v1h-4z M146,70h5v1h-5z M155,69h4v2h-4z M163,69h4v2h-4z M180,70h5v1h-5z M190,70h3v1h-3z M199,69h3v2h-3z M206,69h4v2h-4z M215,70h4v1h-4z M224,70h4v1h-4z M231,69h4v2h-4z M237,69h5v2h-5z M246,68h21v3h-21z M1,69h9v3h-9z M12,71h3v1h-3z M20,68h4v4h-4z M28,71h4v1h-4z M35,71h4v1h-4z M42,71h3v1h-3z M50,71h3v1h-3z M58,71h8v1h-8z M67,71h25v1h-25z M95,69h5v3h-5z M104,71h3v1h-3z M112,71h4v1h-4z M120,71h4v1h-4z M129,71h3v1h-3z M138,69h3v3h-3z M147,71h3v1h-3z M155,71h3v1h-3z M164,71h2v1h-2z M172,68h4v4h-4z M181,71h3v1h-3z M191,71h1v1h-1z M208,71h1v1h-1z M216,71h3v1h-3z M225,71h1v1h-1z M238,71h3v1h-3z M247,71h20v1h-20z M1,72h5v1h-5z M7,72h1v1h-1z M139,72h2v1h-2z M239,72h1v1h-1z M262,72h5v1h-5z M1,73h4v2h-4z M79,74h1v1h-1z M86,74h2v1h-2z M263,73h4v2h-4z M11,75h6v1h-6z M18,75h18v1h-18z M42,75h8v1h-8z M56,75h3v1h-3z M65,75h1v1h-1z M70,75h2v1h-2z M78,75h3v1h-3z M85,75h3v1h-3z M93,75h2v1h-2z M105,75h7v1h-7z M114,75h10v1h-10z M127,75h8v1h-8z M141,75h2v1h-2z M154,75h1v1h-1z M172,75h3v1h-3z M181,75h2v1h-2z M197,75h1v1h-1z M226,75h3v1h-3z M232,75h3v1h-3z M244,75h3v1h-3z M259,75h1v1h-1z M261,75h6v1h-6z M9,76h42v1h-42z M63,76h3v1h-3z M70,76h3v1h-3z M85,76h4v1h-4z M92,76h9v1h-9z M104,76h61v1h-61z M180,76h3v1h-3z M214,76h3v1h-3z M1,75h5v3h-5z M63,77h4v1h-4z M70,77h4v1h-4z M77,76h4v2h-4z M92,77h10v1h-10z M103,77h62v1h-62z M171,76h4v2h-4z M180,77h4v1h-4z M189,76h2v2h-2z M196,76h3v2h-3z M1,78h6v1h-6z M9,77h43v2h-43z M56,76h4v3h-4z M64,78h2v1h-2z M70,78h3v1h-3z M79,78h2v1h-2z M85,77h3v2h-3z M93,78h9v1h-9z M104,78h62v1h-62z M172,78h3v1h-3z M181,78h2v1h-2z M190,78h1v1h-1z M198,78h1v1h-1z M204,76h3v3h-3z M213,77h4v2h-4z M223,76h44v3h-44z M1,79h5v1h-5z M12,79h21v1h-21z M34,79h16v1h-16z M57,79h1v1h-1z M93,79h1v1h-1z M100,79h1v1h-1z M113,79h1v1h-1z M116,79h1v1h-1z M118,79h14v1h-14z M134,79h30v1h-30z M215,79h1v1h-1z M224,79h15v1h-15z M240,79h3v1h-3z M244,79h23v1h-23z M21,80h1v1h-1z M25,80h1v1h-1z M262,80h5v1h-5z M263,81h4v1h-4z M1,80h4v3h-4z M28,82h1v1h-1z M43,82h1v1h-1z M152,82h1v1h-1z M262,82h5v1h-5z M13,83h4v1h-4z M20,83h3v1h-3z M26,83h4v1h-4z M34,83h64v1h-64z M110,83h2v1h-2z M131,83h3v1h-3z M138,83h3v1h-3z M150,83h63v1h-63z M215,83h1v1h-1z M223,83h3v1h-3z M232,83h2v1h-2z M240,83h3v1h-3z M249,83h2v1h-2z M12,84h6v1h-6z M26,84h5v1h-5z M33,84h66v1h-66z M101,83h4v2h-4z M137,84h4v1h-4z M143,84h5v1h-5z M223,84h4v1h-4z M248,84h4v1h-4z M255,84h3v1h-3z M0,83h10v3h-10z M13,85h5v1h-5z M19,84h5v2h-5z M34,85h64v1h-64z M101,85h5v1h-5z M116,83h4v3h-4z M123,83h4v3h-4z M130,84h4v2h-4z M138,85h3v1h-3z M149,84h70v2h-70z M231,84h5v2h-5z M239,84h5v2h-5z M247,85h5v1h-5z M261,83h6v3h-6z M0,86h8v1h-8z M13,86h4v1h-4z M20,86h3v1h-3z M26,85h4v2h-4z M37,86h61v1h-61z M102,86h3v1h-3z M109,84h4v3h-4z M117,86h3v1h-3z M124,86h3v1h-3z M132,86h1v1h-1z M143,85h4v2h-4z M150,86h68v1h-68z M222,85h5v2h-5z M232,86h3v1h-3z M240,86h4v1h-4z M248,86h4v1h-4z M255,85h5v2h-5z M14,87h2v1h-2z M94,87h1v1h-1z M166,87h1v1h-1z M212,87h1v1h-1z M214,87h3v1h-3z M223,87h3v1h-3z M250,87h1v1h-1z M256,87h2v1h-2z M262,86h5v2h-5z M0,87h5v2h-5z M1,89h4v1h-4z M263,88h4v2h-4z M1,90h6v1h-6z M11,90h10v1h-10z M23,90h31v1h-31z M66,90h24v1h-24z M91,90h5v1h-5z M99,90h4v1h-4z M108,90h5v1h-5z M125,90h4v1h-4z M131,90h10v1h-10z M144,90h5v1h-5z M151,90h11v1h-11z M172,90h4v1h-4z M180,90h2v1h-2z M194,90h5v1h-5z M200,90h14v1h-14z M215,90h1v1h-1z M217,90h6v1h-6z M224,90h34v1h-34z M260,90h7v1h-7z M1,91h55v1h-55z M58,91h4v1h-4z M65,91h51v1h-51z M124,91h60v1h-60z M194,91h73v1h-73z M1,92h62v1h-62z M123,92h62v1h-62z M1,93h55v1h-55z M58,93h5v1h-5z M65,92h52v2h-52z M124,93h61v1h-61z M193,92h74v2h-74z M0,94h7v1h-7z M8,94h1v1h-1z M12,94h6v1h-6z M20,94h8v1h-8z M30,94h20v1h-20z M51,94h1v1h-1z M53,94h3v1h-3z M58,94h4v1h-4z M66,94h1v1h-1z M76,94h17v1h-17z M96,94h2v1h-2z M99,94h6v1h-6z M106,94h10v1h-10z M126,94h11v1h-11z M140,94h7v1h-7z M149,94h11v1h-11z M161,94h10v1h-10z M172,94h5v1h-5z M179,94h4v1h-4z M210,94h2v1h-2z M219,94h2v1h-2z M225,94h8v1h-8z M239,94h28v1h-28z M60,95h2v1h-2z M262,95h5v1h-5z M0,95h5v2h-5z M1,97h4v2h-4z M7,98h3v1h-3z M15,98h2v1h-2z M23,98h1v1h-1z M30,98h1v1h-1z M37,98h2v1h-2z M44,98h3v1h-3z M52,98h2v1h-2z M68,98h2v1h-2z M90,98h52v1h-52z M143,98h2v1h-2z M146,98h1v1h-1z M159,98h3v1h-3z M169,98h1v1h-1z M176,98h3v1h-3z M185,98h1v1h-1z M193,98h3v1h-3z M216,98h2v1h-2z M223,98h29v1h-29z M257,98h3v1h-3z M29,99h3v1h-3z M67,99h3v1h-3z M81,99h4v1h-4z M90,99h64v1h-64z M168,99h2v1h-2z M175,99h4v1h-4z M184,99h3v1h-3z M192,99h4v1h-4z M201,98h3v2h-3z M209,98h4v2h-4z M257,99h4v1h-4z M1,99h10v2h-10z M28,100h5v1h-5z M43,99h4v2h-4z M51,99h4v2h-4z M67,100h4v1h-4z M74,99h4v2h-4z M81,100h5v1h-5z M89,100h65v1h-65z M158,99h5v2h-5z M167,100h3v1h-3z M176,100h3v1h-3z M183,100h4v1h-4z M201,100h4v1h-4z M208,100h5v1h-5z M215,99h4v2h-4z M222,99h31v2h-31z M257,100h3v1h-3z M1,101h5v1h-5z M7,101h4v1h-4z M14,99h4v3h-4z M22,99h4v3h-4z M29,101h3v1h-3z M36,99h4v3h-4z M44,101h2v1h-2z M52,101h3v1h-3z M59,99h4v3h-4z M74,101h3v1h-3z M82,101h3v1h-3z M90,101h64v1h-64z M159,101h3v1h-3z M177,101h1v1h-1z M184,101h3v1h-3z M192,100h3v2h-3z M201,101h3v1h-3z M209,101h4v1h-4z M216,101h2v1h-2z M223,101h30v1h-30z M258,101h1v1h-1z M8,102h2v1h-2z M14,102h3v1h-3z M38,102h1v1h-1z M53,102h1v1h-1z M60,102h2v1h-2z M67,101h3v2h-3z M76,102h1v1h-1z M116,102h1v1h-1z M146,102h6v1h-6z M225,102h2v1h-2z M230,102h1v1h-1z M250,102h1v1h-1z M1,102h4v2h-4z M263,96h4v8h-4z M1,104h5v1h-5z M62,104h1v1h-1z M139,104h2v1h-2z M147,104h2v1h-2z M226,104h1v1h-1z M244,104h1v1h-1z M262,104h5v1h-5z M1,105h7v1h-7z M11,105h3v1h-3z M71,105h2v1h-2z M78,105h2v1h-2z M85,105h2v1h-2z M92,105h3v1h-3z M101,105h2v1h-2z M108,105h3v1h-3z M116,105h2v1h-2z M130,104h4v2h-4z M154,105h1v1h-1z M162,105h2v1h-2z M173,105h40v1h-40z M225,105h2v1h-2z M233,105h3v1h-3z M10,106h5v1h-5z M18,105h48v2h-48z M77,106h4v1h-4z M91,106h5v1h-5z M107,106h4v1h-4z M115,106h4v1h-4z M130,106h5v1h-5z M153,106h3v1h-3z M171,106h44v1h-44z M18,107h50v1h-50z M76,107h5v1h-5z M108,107h3v1h-3z M116,107h2v1h-2z M123,104h3v4h-3z M130,107h4v1h-4z M138,105h4v3h-4z M146,105h4v3h-4z M154,107h3v1h-3z M161,106h3v2h-3z M172,107h43v1h-43z M224,106h4v2h-4z M232,106h5v2h-5z M242,105h4v3h-4z M250,105h4v3h-4z M1,106h8v3h-8z M11,107h4v2h-4z M19,108h47v1h-47z M70,106h4v3h-4z M77,108h4v1h-4z M84,106h4v3h-4z M92,107h4v2h-4z M100,106h4v3h-4z M109,108h1v1h-1z M131,108h2v1h-2z M162,108h1v1h-1z M173,108h41v1h-41z M225,108h2v1h-2z M233,108h4v1h-4z M242,108h3v1h-3z M252,108h1v1h-1z M259,105h8v4h-8z M1,109h5v1h-5z M51,109h3v1h-3z M61,109h4v1h-4z M93,109h2v1h-2z M234,109h1v1h-1z M262,109h5v1h-5z M1,110h4v1h-4z M1,111h5v1h-5z M108,111h2v1h-2z M263,110h4v2h-4z M1,112h22v1h-22z M28,112h2v1h-2z M35,112h54v1h-54z M94,112h2v1h-2z M101,112h2v1h-2z M108,112h3v1h-3z M122,112h3v1h-3z M130,112h3v1h-3z M139,112h26v1h-26z M166,112h31v1h-31z M199,112h1v1h-1z M208,112h2v1h-2z M213,112h3v1h-3z M221,112h2v1h-2z M230,112h37v1h-37z M27,113h4v1h-4z M115,112h4v2h-4z M139,113h64v1h-64z M208,113h3v1h-3z M213,113h4v1h-4z M1,113h24v2h-24z M94,113h3v2h-3z M108,113h4v2h-4z M115,114h3v1h-3z M122,113h4v2h-4z M130,113h4v2h-4z M207,114h4v1h-4z M213,114h3v1h-3z M220,113h4v2h-4z M228,113h39v2h-39z M1,115h23v1h-23z M28,114h3v2h-3z M35,113h55v3h-55z M94,115h2v1h-2z M100,113h4v3h-4z M108,115h3v1h-3z M116,115h2v1h-2z M123,115h2v1h-2z M130,115h1v1h-1z M140,114h63v2h-63z M208,115h2v1h-2z M214,115h2v1h-2z M229,115h38v1h-38z M83,116h2v1h-2z M101,116h2v1h-2z M200,116h2v1h-2z M221,115h2v2h-2z M241,116h2v1h-2z M245,116h2v1h-2z M249,116h1v1h-1z M251,116h1v1h-1z M255,116h5v1h-5z M263,116h4v2h-4z M1,116h5v3h-5z M9,118h2v1h-2z M94,118h2v1h-2z M253,118h3v1h-3z M262,118h5v1h-5z M1,119h25v1h-25z M28,119h22v1h-22z M56,119h2v1h-2z M66,119h2v1h-2z M76,119h3v1h-3z M93,119h4v1h-4z M103,119h3v1h-3z M113,119h77v1h-77z M210,119h3v1h-3z M218,119h1v1h-1z M230,119h2v1h-2z M65,120h4v1h-4z M75,120h5v1h-5z M92,120h5v1h-5z M112,120h79v1h-79z M218,120h2v1h-2z M224,119h2v2h-2z M1,120h51v2h-51z M56,120h4v2h-4z M65,121h5v1h-5z M76,121h4v1h-4z M85,119h3v3h-3z M92,121h4v1h-4z M103,120h4v2h-4z M112,121h78v1h-78z M218,121h1v1h-1z M225,121h1v1h-1z M229,120h4v2h-4z M1,122h50v1h-50z M57,122h3v1h-3z M66,122h3v1h-3z M77,122h1v1h-1z M93,122h3v1h-3z M103,122h3v1h-3z M114,122h1v1h-1z M116,122h74v1h-74z M195,119h3v4h-3z M202,119h4v4h-4z M210,120h4v3h-4z M230,122h3v1h-3z M237,119h30v4h-30z M1,123h5v1h-5z M10,123h2v1h-2z M187,123h1v1h-1z M212,123h1v1h-1z M258,123h3v1h-3z M262,123h5v1h-5z M1,124h4v1h-4z M185,124h6v1h-6z M47,125h1v1h-1z M56,125h2v1h-2z M59,125h80v1h-80z M182,125h39v1h-39z M222,125h25v1h-25z M257,125h1v1h-1z M1,125h5v2h-5z M11,126h3v1h-3z M21,126h4v1h-4z M33,126h4v1h-4z M46,126h3v1h-3z M55,126h86v1h-86z M147,126h3v1h-3z M165,126h3v1h-3z M256,126h3v1h-3z M55,127h87v1h-87z M181,126h70v2h-70z M255,127h4v1h-4z M20,127h5v2h-5z M32,127h6v2h-6z M45,127h5v2h-5z M55,128h86v1h-86z M146,127h5v2h-5z M156,126h3v3h-3z M165,127h4v2h-4z M173,126h4v3h-4z M182,128h68v1h-68z M255,128h5v1h-5z M0,127h7v3h-7z M10,127h5v3h-5z M21,129h3v1h-3z M33,129h4v1h-4z M46,129h3v1h-3z M58,129h4v1h-4z M82,129h1v1h-1z M111,129h2v1h-2z M138,129h2v1h-2z M146,129h4v1h-4z M166,129h1v1h-1z M174,129h2v1h-2z M203,129h2v1h-2z M239,129h4v1h-4z M247,129h3v1h-3z M256,129h3v1h-3z M0,130h6v1h-6z M10,130h4v1h-4z M34,130h2v1h-2z M47,130h1v1h-1z M0,131h5v1h-5z M263,124h4v8h-4z M0,132h6v1h-6z M12,132h1v1h-1z M161,132h2v1h-2z M165,132h2v1h-2z M188,132h5v1h-5z M197,132h3v1h-3z M203,132h1v1h-1z M213,132h2v1h-2z M224,132h4v1h-4z M256,132h2v1h-2z M261,132h6v1h-6z M0,133h267v1h-267z M1,134h266v1h-266z M1,135h265v1h-265z M1,136h263v1h-263z M4,137h1v1h-1z M6,137h3v1h-3z M10,137h13v1h-13z M30,137h6v1h-6z M43,137h2v1h-2z M50,137h5v1h-5z M56,137h1v1h-1z M59,137h4v1h-4z M64,137h2v1h-2z M68,137h25v1h-25z M102,137h4v1h-4z M122,137h2v1h-2z M132,137h3v1h-3z M155,137h1v1h-1z M182,137h4v1h-4z M188,137h3v1h-3z M194,137h5v1h-5z M240,137h2v1h-2z
  "/>
</svg>