<?xml version="1.0" encoding="UTF-8"?>
<svg xmlns="http://www.w3.org/2000/svg" viewBox="0 0 253 137" width="253" height="137">
  <title>63 Porphyritic rock 63</title>
  <path fill="#111111" fill-rule="nonzero" d="
    M2,0h4v1h-4z M8,0h3v1h-3z M19,0h2v1h-2z M86,0h2v1h-2z M91,0h2v1h-2z M129,0h2v1h-2z M154,0h7v1h-7z M163,0h2v1h-2z M168,0h83v1h-83z M1,1h251v1h-251z M0,2h253v2h-253z M0,4h159v1h-159z M160,4h24v1h-24z M186,4h10v1h-10z M197,4h1v1h-1z M200,4h4v1h-4z M205,4h4v1h-4z M232,4h14v1h-14z M35,5h11v1h-11z M47,5h16v1h-16z M91,5h2v1h-2z M100,5h1v1h-1z M127,5h2v1h-2z M130,5h6v1h-6z M234,5h10v1h-10z M0,5h5v2h-5z M36,6h10v1h-10z M55,6h5v1h-5z M128,6h8v1h-8z M166,5h6v2h-6z M235,6h8v1h-8z M37,7h9v1h-9z M126,7h11v1h-11z M235,7h7v1h-7z M248,4h5v4h-5z M1,7h4v2h-4z M37,8h8v1h-8z M54,7h6v2h-6z M92,8h2v1h-2z M123,8h8v1h-8z M132,8h5v1h-5z M164,7h7v2h-7z M235,8h4v1h-4z M13,9h1v1h-1z M54,9h9v1h-9z M121,9h9v1h-9z M133,9h5v1h-5z M147,9h2v1h-2z M163,9h9v1h-9z M235,9h3v1h-3z M0,9h5v2h-5z M12,10h3v1h-3z M37,9h3v2h-3z M53,10h11v1h-11z M91,9h4v2h-4z M118,10h10v1h-10z M133,10h4v1h-4z M146,10h4v1h-4z M164,10h4v1h-4z M169,10h4v1h-4z M1,11h4v1h-4z M10,11h6v1h-6z M53,11h5v1h-5z M59,11h5v1h-5z M91,11h5v1h-5z M115,11h11v1h-11z M135,11h1v1h-1z M145,11h4v1h-4z M234,10h4v2h-4z M1,12h3v1h-3z M9,12h7v1h-7z M53,12h4v1h-4z M60,12h5v1h-5z M114,12h10v1h-10z M144,12h5v1h-5z M169,11h5v2h-5z M234,12h3v1h-3z M1,13h4v1h-4z M7,13h8v1h-8z M55,13h1v1h-1z M61,13h6v1h-6z M92,12h4v2h-4z M113,13h9v1h-9z M144,13h4v1h-4z M170,13h5v1h-5z M6,14h9v1h-9z M36,11h4v4h-4z M61,14h7v1h-7z M80,14h2v1h-2z M92,14h5v1h-5z M113,14h6v1h-6z M143,14h4v1h-4z M158,14h4v1h-4z M211,14h2v1h-2z M249,8h4v7h-4z M6,15h10v1h-10z M63,15h6v1h-6z M79,15h7v1h-7z M93,15h4v1h-4z M114,15h4v1h-4z M155,15h8v1h-8z M171,14h5v2h-5z M196,15h2v1h-2z M208,15h7v1h-7z M233,13h4v3h-4z M0,14h5v3h-5z M8,16h1v1h-1z M11,16h5v1h-5z M36,15h3v2h-3z M65,16h6v1h-6z M78,16h9v1h-9z M93,16h5v1h-5z M142,15h4v2h-4z M154,16h9v1h-9z M172,16h5v1h-5z M195,16h4v1h-4z M12,17h5v1h-5z M66,17h6v1h-6z M79,17h9v1h-9z M94,17h4v1h-4z M141,17h4v1h-4z M153,17h9v1h-9z M205,16h9v2h-9z M232,16h4v2h-4z M35,17h4v2h-4z M67,18h6v1h-6z M80,18h8v1h-8z M117,18h3v1h-3z M140,18h5v1h-5z M153,18h8v1h-8z M173,17h5v2h-5z M194,17h5v2h-5z M248,15h5v4h-5z M13,18h5v2h-5z M68,19h5v1h-5z M81,19h7v1h-7z M95,18h4v2h-4z M113,19h7v1h-7z M140,19h4v1h-4z M155,19h4v1h-4z M194,19h4v1h-4z M205,18h8v2h-8z M232,18h3v2h-3z M1,17h4v4h-4z M14,20h5v1h-5z M35,19h3v2h-3z M70,20h3v1h-3z M80,20h7v1h-7z M111,20h9v1h-9z M174,19h5v2h-5z M193,20h5v1h-5z M207,20h6v1h-6z M231,20h4v1h-4z M14,21h6v1h-6z M79,21h5v1h-5z M110,21h10v1h-10z M139,20h4v2h-4z M157,20h3v2h-3z M175,21h5v1h-5z M209,21h4v1h-4z M231,21h3v1h-3z M15,22h5v1h-5z M34,21h4v2h-4z M51,22h2v1h-2z M96,20h4v3h-4z M138,22h4v1h-4z M176,22h4v1h-4z M192,21h5v2h-5z M209,22h5v1h-5z M50,23h3v1h-3z M79,22h4v2h-4z M97,23h4v1h-4z M110,22h8v2h-8z M137,23h4v1h-4z M176,23h5v1h-5z M192,23h4v1h-4z M210,23h4v1h-4z M16,23h5v2h-5z M50,24h4v1h-4z M114,24h4v1h-4z M136,24h4v1h-4z M157,22h4v3h-4z M177,24h4v1h-4z M192,24h3v1h-3z M230,22h4v3h-4z M17,25h5v1h-5z M51,25h4v1h-4z M78,24h4v2h-4z M97,24h9v2h-9z M115,25h3v1h-3z M134,25h6v1h-6z M178,25h2v1h-2z M210,24h5v2h-5z M229,25h5v1h-5z M18,26h4v1h-4z M34,23h3v4h-3z M51,26h5v1h-5z M77,26h5v1h-5z M97,26h8v1h-8z M114,26h5v1h-5z M132,26h7v1h-7z M190,25h5v2h-5z M18,27h5v1h-5z M35,27h2v1h-2z M96,27h8v1h-8z M190,27h4v1h-4z M211,26h5v2h-5z M229,26h4v2h-4z M52,27h5v2h-5z M77,27h4v2h-4z M97,28h5v1h-5z M131,27h7v2h-7z M158,25h4v4h-4z M189,28h5v1h-5z M212,28h4v1h-4z M229,28h3v1h-3z M19,28h5v2h-5z M53,29h5v1h-5z M132,29h7v1h-7z M159,29h3v1h-3z M189,29h4v1h-4z M42,30h2v1h-2z M54,30h4v1h-4z M77,29h3v2h-3z M134,30h6v1h-6z M188,30h5v1h-5z M212,29h5v2h-5z M20,30h4v2h-4z M41,31h4v1h-4z M55,31h4v1h-4z M115,27h4v5h-4z M135,31h5v1h-5z M21,32h3v1h-3z M76,31h3v2h-3z M115,32h5v1h-5z M137,32h2v1h-2z M188,31h4v2h-4z M213,31h5v2h-5z M41,32h5v2h-5z M55,32h5v2h-5z M138,33h1v1h-1z M159,30h4v4h-4z M189,33h1v1h-1z M0,21h5v14h-5z M42,34h5v1h-5z M56,34h5v1h-5z M75,33h4v2h-4z M159,34h5v1h-5z M182,34h7v1h-7z M214,33h4v2h-4z M242,34h2v1h-2z M116,33h4v3h-4z M133,35h4v1h-4z M181,35h9v1h-9z M215,35h2v1h-2z M241,35h4v1h-4z M43,35h5v2h-5z M57,35h5v2h-5z M74,35h4v2h-4z M117,36h3v1h-3z M133,36h5v1h-5z M181,36h10v1h-10z M239,36h7v1h-7z M38,37h5v1h-5z M44,37h5v1h-5z M58,37h5v1h-5z M91,37h5v1h-5z M133,37h6v1h-6z M182,37h9v1h-9z M210,37h2v1h-2z M236,37h9v1h-9z M37,38h6v1h-6z M45,38h4v1h-4z M59,38h4v1h-4z M74,37h3v2h-3z M90,38h8v1h-8z M133,38h7v1h-7z M160,35h4v4h-4z M174,38h2v1h-2z M186,38h5v1h-5z M209,38h3v1h-3z M233,38h11v1h-11z M36,39h7v1h-7z M45,39h3v1h-3z M60,39h3v1h-3z M74,39h2v1h-2z M91,39h9v1h-9z M135,39h6v1h-6z M172,39h4v1h-4z M187,39h3v1h-3z M231,39h9v1h-9z M1,35h4v6h-4z M35,40h7v1h-7z M61,40h1v1h-1z M65,40h3v1h-3z M92,40h10v1h-10z M117,37h4v4h-4z M136,40h7v1h-7z M161,39h4v2h-4z M170,40h6v1h-6z M209,39h4v2h-4z M228,40h11v1h-11z M34,41h6v1h-6z M63,41h5v1h-5z M94,41h9v1h-9z M137,41h7v1h-7z M162,41h2v1h-2z M169,41h7v1h-7z M206,41h7v1h-7z M222,40h2v2h-2z M227,41h10v1h-10z M11,42h2v1h-2z M33,42h5v1h-5z M61,42h7v1h-7z M96,42h9v1h-9z M118,41h3v2h-3z M138,42h7v1h-7z M202,42h11v1h-11z M221,42h4v1h-4z M227,42h7v1h-7z M31,43h6v1h-6z M60,43h7v1h-7z M98,43h9v1h-9z M110,43h2v1h-2z M140,43h6v1h-6z M193,43h21v1h-21z M221,43h5v1h-5z M228,43h4v1h-4z M30,44h6v1h-6z M59,44h6v1h-6z M99,44h8v1h-8z M141,44h5v1h-5z M168,42h8v3h-8z M190,44h24v1h-24z M222,44h4v1h-4z M29,45h6v1h-6z M59,45h5v1h-5z M83,45h5v1h-5z M102,45h6v1h-6z M142,45h5v1h-5z M152,45h1v1h-1z M168,45h9v1h-9z M189,45h18v1h-18z M210,45h4v1h-4z M27,46h7v1h-7z M60,46h3v1h-3z M83,46h4v1h-4z M104,46h4v1h-4z M109,44h4v3h-4z M126,46h3v1h-3z M142,46h6v1h-6z M150,46h4v1h-4z M173,46h4v1h-4z M190,46h9v1h-9z M200,46h1v1h-1z M202,46h1v1h-1z M210,46h3v1h-3z M26,47h7v1h-7z M83,47h5v1h-5z M106,47h1v1h-1z M126,47h4v1h-4z M143,47h11v1h-11z M173,47h5v1h-5z M191,47h4v1h-4z M211,47h2v1h-2z M222,45h5v3h-5z M26,48h5v1h-5z M48,48h1v1h-1z M82,48h6v1h-6z M145,48h9v1h-9z M174,48h4v1h-4z M223,48h3v1h-3z M26,49h4v1h-4z M47,49h3v1h-3z M80,49h9v1h-9z M108,47h4v3h-4z M126,48h5v2h-5z M146,49h6v1h-6z M174,49h5v1h-5z M224,49h1v1h-1z M27,50h2v1h-2z M78,50h12v1h-12z M93,50h3v1h-3z M126,50h6v1h-6z M147,50h5v1h-5z M77,51h13v1h-13z M92,51h7v1h-7z M108,50h3v2h-3z M125,51h8v1h-8z M146,51h5v1h-5z M176,50h4v2h-4z M10,43h4v10h-4z M75,52h8v1h-8z M85,52h5v1h-5z M92,52h10v1h-10z M124,52h9v1h-9z M146,52h4v1h-4z M10,53h5v1h-5z M72,53h9v1h-9z M86,53h3v1h-3z M92,53h11v1h-11z M123,53h5v1h-5z M129,53h4v1h-4z M145,53h5v1h-5z M176,52h5v2h-5z M216,53h1v1h-1z M70,54h10v1h-10z M93,54h10v1h-10z M122,54h5v1h-5z M130,54h2v1h-2z M146,54h2v1h-2z M170,54h2v1h-2z M177,54h5v1h-5z M215,54h4v1h-4z M69,55h8v1h-8z M94,55h8v1h-8z M120,55h6v1h-6z M169,55h3v1h-3z M178,55h4v1h-4z M204,55h1v1h-1z M215,55h6v1h-6z M66,56h9v1h-9z M95,56h3v1h-3z M118,56h7v1h-7z M179,56h4v1h-4z M204,56h3v1h-3z M215,56h8v1h-8z M0,41h5v17h-5z M10,54h4v4h-4z M64,57h8v1h-8z M117,57h6v1h-6z M204,57h4v1h-4z M217,57h7v1h-7z M11,58h3v1h-3z M64,58h6v1h-6z M94,57h4v2h-4z M116,58h6v1h-6z M163,58h5v1h-5z M169,56h4v3h-4z M180,57h4v2h-4z M204,58h6v1h-6z M219,58h7v1h-7z M65,59h3v1h-3z M93,59h5v1h-5z M114,59h7v1h-7z M150,59h6v1h-6z M160,59h13v1h-13z M181,59h3v1h-3z M204,59h7v1h-7z M219,59h8v1h-8z M241,59h3v1h-3z M113,60h7v1h-7z M149,60h24v1h-24z M205,60h7v1h-7z M221,60h7v1h-7z M93,60h4v2h-4z M112,61h6v1h-6z M130,61h9v1h-9z M148,61h19v1h-19z M204,61h8v1h-8z M222,61h7v1h-7z M232,61h3v1h-3z M240,60h4v2h-4z M93,62h3v1h-3z M110,62h7v1h-7z M130,62h10v1h-10z M149,62h14v1h-14z M169,61h4v2h-4z M203,62h9v1h-9z M224,62h6v1h-6z M240,62h3v1h-3z M11,59h4v5h-4z M27,63h2v1h-2z M110,63h6v1h-6z M130,63h9v1h-9z M150,63h2v1h-2z M170,63h2v1h-2z M203,63h4v1h-4z M209,63h2v1h-2z M226,63h4v1h-4z M231,62h4v2h-4z M10,64h8v1h-8z M27,64h3v1h-3z M110,64h4v1h-4z M131,64h7v1h-7z M202,64h4v1h-4z M227,64h7v1h-7z M239,63h4v2h-4z M27,65h4v1h-4z M47,50h4v16h-4z M111,65h1v1h-1z M201,65h4v1h-4z M239,65h3v1h-3z M8,65h11v2h-11z M27,66h5v1h-5z M92,63h4v4h-4z M134,65h3v2h-3z M229,65h5v2h-5z M238,66h4v1h-4z M0,58h4v10h-4z M9,67h9v1h-9z M133,67h4v1h-4z M200,66h4v2h-4z M229,67h4v1h-4z M237,67h5v1h-5z M11,68h1v1h-1z M28,67h4v2h-4z M48,66h3v3h-3z M198,68h5v1h-5z M229,68h3v1h-3z M237,68h4v1h-4z M29,69h4v1h-4z M61,69h2v1h-2z M91,67h4v3h-4z M197,69h5v1h-5z M29,70h5v1h-5z M47,70h7v1h-7z M60,70h4v1h-4z M91,70h3v1h-3z M134,68h3v3h-3z M196,70h6v1h-6z M236,69h4v2h-4z M1,68h3v4h-3z M30,71h5v1h-5z M46,71h9v1h-9z M60,71h6v1h-6z M73,69h3v3h-3z M166,71h1v1h-1z M196,71h4v1h-4z M210,70h6v2h-6z M235,71h5v1h-5z M31,72h4v1h-4z M45,72h9v1h-9z M61,72h7v1h-7z M90,71h4v2h-4z M101,72h3v1h-3z M165,72h3v1h-3z M195,72h5v1h-5z M209,72h7v1h-7z M235,72h4v1h-4z M32,73h4v1h-4z M46,73h7v1h-7z M62,73h6v1h-6z M89,73h5v1h-5z M194,73h5v1h-5z M209,73h6v1h-6z M234,73h5v1h-5z M32,74h5v1h-5z M47,74h4v1h-4z M61,74h7v1h-7z M73,72h4v3h-4z M89,74h4v1h-4z M100,73h4v2h-4z M165,73h4v2h-4z M193,74h5v1h-5z M208,74h6v1h-6z M234,74h4v1h-4z M33,75h5v1h-5z M66,75h2v1h-2z M73,75h5v1h-5z M90,75h2v1h-2z M99,75h5v1h-5z M165,75h5v1h-5z M192,75h5v1h-5z M208,75h8v1h-8z M233,75h5v1h-5z M0,72h4v5h-4z M34,76h4v1h-4z M60,75h4v2h-4z M99,76h8v1h-8z M162,76h8v1h-8z M192,76h4v1h-4z M208,76h2v1h-2z M213,76h3v1h-3z M34,77h5v1h-5z M59,77h5v1h-5z M99,77h4v1h-4z M104,77h5v1h-5z M161,77h10v1h-10z M192,77h3v1h-3z M213,77h4v1h-4z M233,76h4v2h-4z M1,77h3v2h-3z M20,78h2v1h-2z M58,78h5v1h-5z M104,78h6v1h-6z M133,71h4v8h-4z M158,78h13v1h-13z M193,78h1v1h-1z M213,78h5v1h-5z M228,78h8v1h-8z M19,79h3v1h-3z M35,78h5v2h-5z M58,79h4v1h-4z M74,76h4v4h-4z M98,78h4v2h-4z M105,79h7v1h-7z M157,79h9v1h-9z M167,79h3v1h-3z M213,79h6v1h-6z M228,79h7v1h-7z M18,80h4v1h-4z M37,80h3v1h-3z M42,80h3v1h-3z M57,80h5v1h-5z M99,80h2v1h-2z M106,80h7v1h-7z M134,79h3v2h-3z M155,80h9v1h-9z M168,80h1v1h-1z M214,80h5v1h-5z M1,79h4v3h-4z M17,81h5v1h-5z M41,81h4v1h-4z M57,81h4v1h-4z M75,80h3v2h-3z M107,81h8v1h-8z M153,81h9v1h-9z M215,81h5v1h-5z M229,80h7v2h-7z M16,82h5v1h-5z M39,82h6v1h-6z M56,82h4v1h-4z M109,82h7v1h-7z M151,82h7v1h-7z M176,73h3v10h-3z M216,82h5v1h-5z M232,82h4v1h-4z M15,83h5v1h-5z M38,83h5v1h-5z M56,83h3v1h-3z M110,83h6v1h-6z M149,83h8v1h-8z M217,83h4v1h-4z M233,83h2v1h-2z M1,82h3v3h-3z M14,84h5v1h-5z M55,84h4v1h-4z M75,82h4v3h-4z M112,84h6v1h-6z M148,84h6v1h-6z M13,85h5v1h-5z M37,84h5v2h-5z M54,85h4v1h-4z M113,85h7v1h-7z M133,81h4v5h-4z M148,85h4v1h-4z M218,84h4v2h-4z M1,85h4v2h-4z M12,86h5v1h-5z M37,86h3v1h-3z M53,86h5v1h-5z M100,86h2v1h-2z M133,86h3v1h-3z M148,86h3v1h-3z M176,83h4v4h-4z M219,86h4v1h-4z M1,87h3v1h-3z M11,87h6v1h-6z M37,87h2v1h-2z M53,87h4v1h-4z M76,85h3v3h-3z M100,87h3v1h-3z M115,86h5v2h-5z M134,87h2v1h-2z M148,87h2v1h-2z M158,87h4v1h-4z M219,87h5v1h-5z M10,88h5v1h-5z M52,88h4v1h-4z M76,88h4v1h-4z M116,88h4v1h-4z M157,88h7v1h-7z M1,88h4v2h-4z M10,89h4v1h-4z M52,89h3v1h-3z M77,89h5v1h-5z M99,88h5v2h-5z M177,87h3v3h-3z M1,90h5v1h-5z M10,90h3v1h-3z M76,90h7v1h-7z M97,90h8v1h-8z M133,90h6v1h-6z M220,88h5v3h-5z M51,90h4v2h-4z M74,91h9v1h-9z M96,91h10v1h-10z M157,89h8v3h-8z M177,90h4v2h-4z M192,91h7v1h-7z M222,91h3v1h-3z M52,92h2v1h-2z M74,92h8v1h-8z M94,92h6v1h-6z M101,92h5v1h-5z M130,91h10v2h-10z M157,92h3v1h-3z M162,92h2v1h-2z M192,92h11v1h-11z M224,92h1v1h-1z M1,91h10v3h-10z M63,93h3v1h-3z M74,93h7v1h-7z M93,93h6v1h-6z M102,93h3v1h-3z M130,93h9v1h-9z M192,93h14v1h-14z M1,94h4v1h-4z M6,94h6v1h-6z M61,94h5v1h-5z M91,94h7v1h-7z M177,92h3v3h-3z M196,94h14v1h-14z M213,93h4v2h-4z M1,95h3v1h-3z M89,95h8v1h-8z M156,93h4v3h-4z M178,95h1v1h-1z M200,95h11v1h-11z M213,95h3v1h-3z M241,94h3v2h-3z M0,96h4v1h-4z M8,95h5v2h-5z M25,96h6v1h-6z M60,95h6v2h-6z M87,96h8v1h-8z M176,96h7v1h-7z M202,96h9v1h-9z M9,97h4v1h-4z M25,97h10v1h-10z M59,97h7v1h-7z M85,97h9v1h-9z M155,96h4v2h-4z M205,97h5v1h-5z M26,98h15v1h-15z M47,98h2v1h-2z M59,98h8v1h-8z M84,98h8v1h-8z M106,98h2v1h-2z M155,98h3v1h-3z M226,98h3v1h-3z M27,99h15v1h-15z M46,99h3v1h-3z M60,99h1v1h-1z M64,99h3v1h-3z M84,99h6v1h-6z M105,99h3v1h-3z M142,99h2v1h-2z M154,99h4v1h-4z M174,97h10v3h-10z M212,96h4v4h-4z M225,99h5v1h-5z M30,100h14v1h-14z M84,100h4v1h-4z M154,100h3v1h-3z M177,100h5v1h-5z M211,100h5v1h-5z M225,100h7v1h-7z M34,101h10v1h-10z M64,100h4v2h-4z M141,100h4v2h-4z M226,101h8v1h-8z M39,102h4v1h-4z M45,100h5v3h-5z M65,102h4v1h-4z M140,102h5v1h-5z M153,101h4v2h-4z M212,101h3v2h-3z M227,102h7v1h-7z M0,97h5v7h-5z M66,103h4v1h-4z M138,103h7v1h-7z M226,103h8v1h-8z M66,104h5v1h-5z M105,100h4v5h-4z M121,104h25v1h-25z M152,103h4v2h-4z M167,104h2v1h-2z M30,105h6v1h-6z M45,103h4v3h-4z M67,105h4v1h-4z M106,105h3v1h-3z M120,105h20v1h-20z M141,105h5v1h-5z M165,105h6v1h-6z M1,104h4v3h-4z M27,106h9v1h-9z M45,106h3v1h-3z M120,106h19v1h-19z M141,106h4v1h-4z M151,105h4v2h-4z M165,106h9v1h-9z M188,106h1v1h-1z M225,104h4v3h-4z M26,107h9v1h-9z M68,106h4v2h-4z M121,107h16v1h-16z M142,107h3v1h-3z M166,107h10v1h-10z M187,107h3v1h-3z M196,107h3v1h-3z M26,108h6v1h-6z M69,108h5v1h-5z M105,106h4v3h-4z M144,108h1v1h-1z M150,107h4v2h-4z M167,108h15v1h-15z M224,107h4v2h-4z M0,107h5v3h-5z M26,109h4v1h-4z M58,109h1v1h-1z M70,109h4v1h-4z M149,109h5v1h-5z M171,109h13v1h-13z M186,108h4v2h-4z M195,108h4v2h-4z M224,109h3v1h-3z M16,108h3v3h-3z M32,110h1v1h-1z M57,110h3v1h-3z M70,110h5v1h-5z M89,110h1v1h-1z M173,110h17v1h-17z M223,110h4v1h-4z M15,111h4v1h-4z M31,111h3v1h-3z M56,111h4v1h-4z M71,111h4v1h-4z M88,111h3v1h-3z M149,110h4v2h-4z M178,111h6v1h-6z M196,110h4v2h-4z M222,111h5v1h-5z M15,112h3v1h-3z M72,112h4v1h-4z M86,112h5v1h-5z M127,112h2v1h-2z M150,112h2v1h-2z M196,112h5v1h-5z M222,112h4v1h-4z M56,112h3v2h-3z M72,113h3v1h-3z M84,113h7v1h-7z M126,113h5v1h-5z M31,112h4v3h-4z M84,114h6v1h-6z M126,114h6v1h-6z M185,111h4v4h-4z M197,113h4v2h-4z M221,113h5v2h-5z M14,113h4v3h-4z M55,114h4v2h-4z M83,115h9v1h-9z M127,115h7v1h-7z M186,115h2v1h-2z M13,116h4v1h-4z M55,116h3v1h-3z M84,116h3v1h-3z M88,116h5v1h-5z M106,109h3v8h-3z M221,115h4v2h-4z M32,115h4v3h-4z M85,117h1v1h-1z M89,117h5v1h-5z M106,117h1v1h-1z M127,116h8v2h-8z M241,96h4v22h-4z M13,117h3v2h-3z M33,118h3v1h-3z M90,118h4v1h-4z M105,118h8v1h-8z M126,118h5v1h-5z M140,118h3v1h-3z M198,115h4v4h-4z M220,117h4v2h-4z M239,118h7v1h-7z M90,119h6v1h-6z M104,119h10v1h-10z M126,119h4v1h-4z M140,119h4v1h-4z M219,119h5v1h-5z M12,119h4v2h-4z M33,119h4v2h-4z M54,117h4v4h-4z M85,120h2v1h-2z M91,120h5v1h-5z M103,120h10v1h-10z M125,120h5v1h-5z M140,120h5v1h-5z M238,119h9v2h-9z M92,121h5v1h-5z M104,121h8v1h-8z M125,121h4v1h-4z M141,121h5v1h-5z M181,121h3v1h-3z M238,121h8v1h-8z M11,121h4v2h-4z M34,121h4v2h-4z M84,121h4v2h-4z M92,122h6v1h-6z M105,122h3v1h-3z M142,122h5v1h-5z M179,122h5v1h-5z M219,120h4v3h-4z M242,122h2v1h-2z M34,123h5v1h-5z M53,121h4v3h-4z M76,123h6v1h-6z M84,123h5v1h-5z M93,123h6v1h-6z M124,122h4v2h-4z M143,123h5v1h-5z M176,123h9v1h-9z M220,123h1v1h-1z M52,124h5v1h-5z M74,124h9v1h-9z M94,124h5v1h-5z M144,124h5v1h-5z M173,124h11v1h-11z M199,119h4v6h-4z M205,124h2v1h-2z M1,110h4v16h-4z M10,123h4v3h-4z M70,125h13v1h-13z M95,125h5v1h-5z M123,124h4v2h-4z M145,125h6v1h-6z M163,125h3v1h-3z M170,125h12v1h-12z M199,125h8v1h-8z M1,126h7v1h-7z M11,126h2v1h-2z M35,124h4v3h-4z M52,125h4v2h-4z M68,126h14v1h-14z M85,124h4v3h-4z M95,126h6v1h-6z M146,126h6v1h-6z M169,126h11v1h-11z M199,126h9v1h-9z M1,127h10v1h-10z M36,127h3v1h-3z M47,127h9v1h-9z M68,127h12v1h-12z M86,127h2v1h-2z M97,127h4v1h-4z M147,127h6v1h-6z M169,127h8v1h-8z M198,127h9v1h-9z M1,128h11v1h-11z M36,128h4v1h-4z M67,128h6v1h-6z M97,128h5v1h-5z M122,126h4v3h-4z M148,128h5v1h-5z M156,128h1v1h-1z M163,126h4v3h-4z M169,128h5v1h-5z M198,128h8v1h-8z M1,129h12v1h-12z M36,129h3v1h-3z M46,128h10v2h-10z M98,129h4v1h-4z M149,129h4v1h-4z M155,129h2v1h-2z M163,129h5v1h-5z M199,129h4v1h-4z M249,19h4v111h-4z M7,130h6v1h-6z M37,130h2v1h-2z M48,130h9v1h-9z M99,130h2v1h-2z M121,129h4v2h-4z M248,130h5v1h-5z M1,130h4v2h-4z M8,131h6v1h-6z M50,131h8v1h-8z M120,131h5v1h-5z M151,130h7v2h-7z M164,130h4v2h-4z M244,131h9v1h-9z M1,132h28v1h-28z M30,132h1v1h-1z M33,132h3v1h-3z M37,132h3v1h-3z M47,132h1v1h-1z M51,132h7v1h-7z M81,132h1v1h-1z M86,132h2v1h-2z M92,132h4v1h-4z M98,132h2v1h-2z M103,132h1v1h-1z M106,132h3v1h-3z M117,132h1v1h-1z M120,132h8v1h-8z M130,132h15v1h-15z M147,132h106v1h-106z M1,133h251v2h-251z M1,135h249v1h-249z M11,136h1v1h-1z M16,136h16v1h-16z M33,136h73v1h-73z M110,136h26v1h-26z M146,136h4v1h-4z M157,136h1v1h-1z M183,136h1v1h-1z
  "/>
</svg>