<?xml version="1.0" encoding="UTF-8"?>
<svg xmlns="http://www.w3.org/2000/svg" viewBox="0 0 268 137" width="268" height="137">
  <title>22 Chalk</title>
  <path fill="#111111" fill-rule="nonzero" d="
    M3,0h37v1h-37z M48,0h2v1h-2z M2,1h110v1h-110z M116,1h1v1h-1z M131,1h5v1h-5z M138,1h2v1h-2z M142,1h4v1h-4z M154,1h1v1h-1z M1,2h264v1h-264z M1,3h265v1h-265z M1,4h5v1h-5z M25,4h1v1h-1z M31,4h1v1h-1z M35,4h232v1h-232z M90,5h1v1h-1z M115,5h2v1h-2z M121,5h9v1h-9z M135,5h6v1h-6z M142,5h2v1h-2z M147,5h1v1h-1z M150,5h8v1h-8z M159,5h109v1h-109z M225,6h5v1h-5z M263,6h5v1h-5z M65,9h2v1h-2z M64,10h3v1h-3z M144,10h1v1h-1z M63,11h4v1h-4z M143,11h2v1h-2z M143,12h3v1h-3z M63,12h5v2h-5z M226,7h3v7h-3z M263,7h4v7h-4z M64,14h4v1h-4z M142,13h4v3h-4z M225,14h4v2h-4z M63,15h5v2h-5z M263,14h5v3h-5z M1,5h4v13h-4z M1,18h5v1h-5z M143,16h3v3h-3z M142,19h5v1h-5z M64,17h4v4h-4z M143,20h4v1h-4z M63,21h5v1h-5z M142,21h5v1h-5z M15,22h3v1h-3z M63,22h6v1h-6z M142,22h4v1h-4z M226,16h3v7h-3z M1,19h6v5h-6z M14,23h72v1h-72z M118,23h1v1h-1z M122,23h6v1h-6z M142,23h5v1h-5z M225,23h5v1h-5z M263,17h4v7h-4z M104,24h58v1h-58z M182,24h35v1h-35z M219,24h1v1h-1z M222,24h8v1h-8z M252,24h15v1h-15z M14,24h76v2h-76z M98,24h2v2h-2z M104,25h60v1h-60z M179,25h60v1h-60z M250,25h17v1h-17z M1,24h5v3h-5z M16,26h2v1h-2z M27,26h6v1h-6z M36,26h11v1h-11z M48,26h42v1h-42z M99,26h1v1h-1z M105,26h59v1h-59z M174,25h3v2h-3z M180,26h60v1h-60z M251,26h16v1h-16z M82,27h6v1h-6z M111,27h5v1h-5z M119,27h11v1h-11z M131,27h31v1h-31z M174,27h2v1h-2z M181,27h23v1h-23z M205,27h24v1h-24z M231,27h8v1h-8z M253,27h14v1h-14z M262,28h5v1h-5z M48,29h1v1h-1z M47,30h3v2h-3z M203,31h1v1h-1z M202,32h3v1h-3z M128,33h3v3h-3z M127,36h4v6h-4z M1,27h4v16h-4z M1,43h6v1h-6z M47,32h4v12h-4z M1,44h31v1h-31z M41,44h32v1h-32z M76,44h4v1h-4z M127,42h5v3h-5z M202,33h4v12h-4z M263,29h4v16h-4z M40,45h57v1h-57z M109,45h39v1h-39z M160,45h27v1h-27z M188,45h1v1h-1z M190,45h2v1h-2z M194,45h4v1h-4z M200,45h10v1h-10z M228,45h4v1h-4z M235,45h32v1h-32z M39,46h58v1h-58z M227,46h40v1h-40z M1,45h32v3h-32z M40,47h57v1h-57z M108,46h40v2h-40z M159,46h55v2h-55z M226,47h41v1h-41z M1,48h5v1h-5z M73,48h5v1h-5z M93,48h2v1h-2z M110,48h12v1h-12z M124,48h22v1h-22z M160,48h54v1h-54z M227,48h18v1h-18z M246,48h21v1h-21z M210,49h1v1h-1z M76,52h1v1h-1z M75,53h3v1h-3z M160,54h3v1h-3z M237,55h2v1h-2z M160,55h4v4h-4z M160,59h3v1h-3z M160,60h4v5h-4z M160,65h3v1h-3z M27,66h1v1h-1z M75,54h4v13h-4z M160,66h4v1h-4z M9,67h32v1h-32z M52,67h44v1h-44z M106,67h4v1h-4z M134,67h2v1h-2z M159,67h5v1h-5z M236,56h4v12h-4z M263,49h4v19h-4z M50,68h68v1h-68z M128,68h43v1h-43z M182,68h38v1h-38z M229,68h38v1h-38z M9,68h33v2h-33z M50,69h69v1h-69z M9,70h7v1h-7z M18,70h16v1h-16z M37,70h3v1h-3z M52,70h66v1h-66z M128,69h45v2h-45z M181,69h39v2h-39z M228,69h39v2h-39z M87,71h15v1h-15z M103,71h5v1h-5z M116,71h1v1h-1z M142,71h27v1h-27z M183,71h37v1h-37z M229,71h38v1h-38z M165,72h2v1h-2z M60,74h3v2h-3z M139,75h1v1h-1z M59,76h4v2h-4z M138,76h3v6h-3z M60,78h3v6h-3z M137,82h4v2h-4z M1,49h4v37h-4z M59,84h4v2h-4z M138,84h3v2h-3z M1,86h12v1h-12z M15,86h4v1h-4z M24,86h4v1h-4z M37,86h2v1h-2z M58,86h6v1h-6z M138,86h4v1h-4z M263,72h4v15h-4z M1,87h69v1h-69z M79,87h25v1h-25z M131,87h1v1h-1z M133,87h2v1h-2z M137,87h5v1h-5z M206,87h4v1h-4z M213,72h4v16h-4z M251,87h3v1h-3z M262,87h5v1h-5z M120,88h45v1h-45z M176,88h81v1h-81z M261,88h6v1h-6z M1,88h70v2h-70z M78,88h28v2h-28z M120,89h46v1h-46z M260,89h7v1h-7z M15,90h3v1h-3z M19,90h31v1h-31z M53,90h16v1h-16z M79,90h24v1h-24z M120,90h45v1h-45z M177,89h80v2h-80z M124,91h6v1h-6z M140,91h14v1h-14z M182,91h2v1h-2z M185,91h19v1h-19z M209,91h1v1h-1z M214,91h16v1h-16z M231,91h24v1h-24z M261,90h6v2h-6z M88,95h2v1h-2z M171,95h2v1h-2z M244,95h2v1h-2z M15,95h3v2h-3z M170,96h3v1h-3z M243,96h3v1h-3z M87,96h3v2h-3z M1,90h4v18h-4z M15,97h4v11h-4z M1,108h5v1h-5z M13,108h6v1h-6z M87,98h4v11h-4z M170,97h4v12h-4z M243,97h4v12h-4z M1,109h25v1h-25z M33,109h60v1h-60z M119,109h3v1h-3z M162,109h13v1h-13z M196,109h4v1h-4z M234,109h3v1h-3z M242,109h5v1h-5z M263,92h4v18h-4z M32,110h64v1h-64z M103,110h41v1h-41z M155,110h54v1h-54z M1,110h27v2h-27z M33,111h64v1h-64z M102,111h44v1h-44z M154,111h55v1h-55z M1,112h9v1h-9z M11,112h16v1h-16z M34,112h63v1h-63z M103,112h43v1h-43z M155,112h54v1h-54z M226,110h41v3h-41z M93,113h2v1h-2z M109,113h6v1h-6z M122,113h24v1h-24z M156,113h6v1h-6z M170,113h4v1h-4z M179,113h2v1h-2z M182,113h1v1h-1z M184,113h10v1h-10z M232,113h35v1h-35z M261,114h6v1h-6z M264,115h3v1h-3z M263,116h4v1h-4z M45,118h3v1h-3z M126,118h2v1h-2z M264,117h3v2h-3z M200,119h3v1h-3z M263,119h4v1h-4z M45,119h4v2h-4z M199,120h5v1h-5z M264,120h3v1h-3z M44,121h5v1h-5z M200,121h3v1h-3z M44,122h4v1h-4z M45,123h3v2h-3z M45,125h4v1h-4z M44,126h5v1h-5z M199,122h4v7h-4z M263,121h4v8h-4z M1,113h4v17h-4z M45,127h4v3h-4z M264,129h3v1h-3z M1,130h5v1h-5z M44,130h5v1h-5z M125,119h4v12h-4z M263,130h4v1h-4z M1,131h50v1h-50z M54,131h12v1h-12z M76,131h1v1h-1z M96,131h2v1h-2z M124,131h6v1h-6z M199,129h5v3h-5z M263,131h5v1h-5z M1,132h159v1h-159z M163,132h15v1h-15z M180,132h1v1h-1z M185,132h9v1h-9z M197,132h10v1h-10z M213,132h3v1h-3z M218,132h2v1h-2z M240,132h1v1h-1z M259,132h2v1h-2z M262,132h6v1h-6z M1,133h266v1h-266z M2,134h265v1h-265z M3,135h2v1h-2z M32,135h3v1h-3z M40,135h3v1h-3z M44,135h223v1h-223z M130,136h8v1h-8z M140,136h4v1h-4z M151,136h41v1h-41z M194,136h4v1h-4z M200,136h13v1h-13z M215,136h9v1h-9z M226,136h17v1h-17z M244,136h21v1h-21z
  "/>
</svg>