<?xml version="1.0" encoding="UTF-8"?>
<svg xmlns="http://www.w3.org/2000/svg" viewBox="0 0 267 140" width="267" height="140">
  <title>46 Contorted gneiss</title>
  <path fill="#111111" fill-rule="nonzero" d="
    M3,0h10v1h-10z M14,0h6v1h-6z M21,0h10v1h-10z M35,0h1v1h-1z M37,0h18v1h-18z M58,0h1v1h-1z M66,0h1v1h-1z M84,0h1v1h-1z M2,1h163v1h-163z M167,1h4v1h-4z M2,2h263v1h-263z M2,3h264v1h-264z M2,4h4v1h-4z M9,4h28v1h-28z M55,4h4v1h-4z M60,4h6v1h-6z M74,4h6v1h-6z M85,4h2v1h-2z M91,4h2v1h-2z M98,4h2v1h-2z M106,4h160v1h-160z M2,5h3v1h-3z M9,5h26v1h-26z M67,4h5v2h-5z M75,5h4v1h-4z M108,5h9v1h-9z M120,5h5v1h-5z M128,5h16v1h-16z M172,5h1v1h-1z M174,5h14v1h-14z M192,5h20v1h-20z M214,5h52v1h-52z M7,6h25v1h-25z M54,5h4v2h-4z M62,5h3v2h-3z M75,6h3v1h-3z M109,6h8v1h-8z M129,6h5v1h-5z M136,6h9v1h-9z M176,6h12v1h-12z M193,6h12v1h-12z M206,6h5v1h-5z M224,6h6v1h-6z M232,6h5v1h-5z M243,6h5v1h-5z M254,6h4v1h-4z M1,6h4v2h-4z M7,7h5v1h-5z M13,7h7v1h-7z M22,7h7v1h-7z M53,7h5v1h-5z M67,6h4v2h-4z M94,7h8v1h-8z M130,7h5v1h-5z M137,7h9v1h-9z M177,7h5v1h-5z M184,7h5v1h-5z M195,7h10v1h-10z M207,7h4v1h-4z M225,7h5v1h-5z M233,7h5v1h-5z M255,7h3v1h-3z M261,6h5v2h-5z M2,8h9v1h-9z M12,8h6v1h-6z M21,8h7v1h-7z M37,8h4v1h-4z M52,8h5v1h-5z M61,7h4v2h-4z M74,7h4v2h-4z M81,8h1v1h-1z M92,8h9v1h-9z M109,7h4v2h-4z M137,8h10v1h-10z M168,8h6v1h-6z M178,8h5v1h-5z M185,8h6v1h-6z M195,8h11v1h-11z M208,8h4v1h-4z M226,8h5v1h-5z M234,8h4v1h-4z M254,8h4v1h-4z M2,9h15v1h-15z M19,9h7v1h-7z M32,9h9v1h-9z M51,9h5v1h-5z M60,9h4v1h-4z M66,8h4v2h-4z M73,9h4v1h-4z M91,9h10v1h-10z M108,9h4v1h-4z M131,8h4v2h-4z M138,9h9v1h-9z M155,9h2v1h-2z M167,9h10v1h-10z M179,9h5v1h-5z M186,9h7v1h-7z M197,9h10v1h-10z M208,9h5v1h-5z M227,9h5v1h-5z M234,9h5v1h-5z M244,7h4v3h-4z M253,9h4v1h-4z M10,10h5v1h-5z M18,10h6v1h-6z M31,10h10v1h-10z M49,10h6v1h-6z M59,10h5v1h-5z M65,10h4v1h-4z M73,10h3v1h-3z M81,9h3v2h-3z M92,10h5v1h-5z M107,10h5v1h-5z M114,7h4v4h-4z M138,10h4v1h-4z M144,10h4v1h-4z M168,10h9v1h-9z M180,10h5v1h-5z M189,10h5v1h-5z M198,10h9v1h-9z M209,10h5v1h-5z M220,10h1v1h-1z M228,10h4v1h-4z M235,10h4v1h-4z M252,10h4v1h-4z M2,10h6v2h-6z M9,11h5v1h-5z M17,11h5v1h-5z M31,11h9v1h-9z M47,11h7v1h-7z M58,11h5v1h-5z M64,11h5v1h-5z M72,11h4v1h-4z M81,11h4v1h-4z M106,11h5v1h-5z M169,11h8v1h-8z M181,11h4v1h-4z M190,11h5v1h-5z M210,11h5v1h-5z M219,11h3v1h-3z M251,11h5v1h-5z M1,12h12v1h-12z M15,12h6v1h-6z M32,12h3v1h-3z M45,12h7v1h-7z M57,12h5v1h-5z M63,12h5v1h-5z M72,12h3v1h-3z M104,12h6v1h-6z M113,11h5v2h-5z M121,6h4v7h-4z M131,10h5v3h-5z M145,11h3v2h-3z M154,10h3v3h-3z M191,12h5v1h-5z M199,11h9v2h-9z M211,12h4v1h-4z M219,12h4v1h-4z M229,11h4v2h-4z M236,11h3v2h-3z M250,12h5v1h-5z M14,13h6v1h-6z M43,13h7v1h-7z M55,13h6v1h-6z M62,13h5v1h-5z M70,13h5v1h-5z M82,12h3v2h-3z M103,13h6v1h-6z M111,13h6v1h-6z M120,13h4v1h-4z M139,11h4v3h-4z M145,13h4v1h-4z M153,13h4v1h-4z M182,12h4v2h-4z M192,13h4v1h-4z M200,13h9v1h-9z M212,13h4v1h-4z M220,13h4v1h-4z M230,13h3v1h-3z M236,13h4v1h-4z M250,13h3v1h-3z M2,13h10v2h-10z M13,14h5v1h-5z M22,14h2v1h-2z M42,14h7v1h-7z M55,14h11v1h-11z M70,14h4v1h-4z M102,14h7v1h-7z M110,14h6v1h-6z M119,14h5v1h-5z M132,13h4v2h-4z M140,14h3v1h-3z M153,14h3v1h-3z M182,14h5v1h-5z M193,14h3v1h-3z M201,14h9v1h-9z M213,14h4v1h-4z M220,14h5v1h-5z M237,14h3v1h-3z M2,15h15v1h-15z M40,15h7v1h-7z M53,15h12v1h-12z M68,15h5v1h-5z M82,14h4v2h-4z M99,15h16v1h-16z M119,15h4v1h-4z M152,15h4v1h-4z M183,15h4v1h-4z M214,15h3v1h-3z M221,15h4v1h-4z M230,14h4v2h-4z M2,16h8v1h-8z M21,15h4v2h-4z M38,16h7v1h-7z M52,16h13v1h-13z M68,16h4v1h-4z M98,16h16v1h-16z M118,16h5v1h-5z M131,15h5v2h-5z M139,15h4v2h-4z M146,14h3v3h-3z M153,16h3v1h-3z M164,16h2v1h-2z M193,15h4v2h-4z M202,15h8v2h-8z M214,16h4v1h-4z M222,16h4v1h-4z M2,17h7v1h-7z M11,16h5v2h-5z M22,17h3v1h-3z M37,17h6v1h-6z M50,17h13v1h-13z M83,16h3v2h-3z M97,17h16v1h-16z M117,17h5v1h-5z M130,17h6v1h-6z M138,17h5v1h-5z M153,17h2v1h-2z M163,17h4v1h-4z M192,17h5v1h-5z M215,17h3v1h-3z M223,17h3v1h-3z M1,18h8v1h-8z M11,18h4v1h-4z M36,18h6v1h-6z M48,18h14v1h-14z M66,17h5v2h-5z M95,18h17v1h-17z M115,18h6v1h-6z M128,18h7v1h-7z M137,18h5v1h-5z M163,18h5v1h-5z M182,16h4v3h-4z M191,18h6v1h-6z M202,17h9v2h-9z M215,18h4v1h-4z M224,18h2v1h-2z M245,10h3v9h-3z M1,19h14v1h-14z M22,18h4v2h-4z M35,19h5v1h-5z M47,19h14v1h-14z M65,19h4v1h-4z M94,19h16v1h-16z M114,19h6v1h-6z M126,19h9v1h-9z M136,19h6v1h-6z M145,17h4v3h-4z M164,19h5v1h-5z M181,19h4v1h-4z M189,19h7v1h-7z M201,19h5v1h-5z M207,19h4v1h-4z M237,15h4v5h-4z M244,19h4v1h-4z M1,20h15v1h-15z M33,20h6v1h-6z M45,20h13v1h-13z M63,20h5v1h-5z M72,20h3v1h-3z M93,20h14v1h-14z M109,20h10v1h-10z M121,20h19v1h-19z M144,20h5v1h-5z M165,20h4v1h-4z M179,20h15v1h-15z M200,20h5v1h-5z M216,19h3v2h-3z M231,16h3v5h-3z M244,20h3v1h-3z M252,20h2v1h-2z M1,21h17v1h-17z M23,20h4v2h-4z M33,21h4v1h-4z M43,21h14v1h-14z M60,21h6v1h-6z M70,21h5v1h-5z M92,21h13v1h-13z M107,21h11v1h-11z M119,21h20v1h-20z M143,21h5v1h-5z M177,21h16v1h-16z M199,21h5v1h-5z M207,20h5v2h-5z M216,21h4v1h-4z M237,20h3v2h-3z M251,21h4v1h-4z M1,22h5v1h-5z M7,22h13v1h-13z M32,22h4v1h-4z M42,22h7v1h-7z M50,22h6v1h-6z M59,22h6v1h-6z M69,22h6v1h-6z M91,22h11v1h-11z M105,22h11v1h-11z M118,22h20v1h-20z M142,22h5v1h-5z M166,21h3v2h-3z M176,22h15v1h-15z M197,22h7v1h-7z M206,22h6v1h-6z M216,22h3v1h-3z M243,21h4v2h-4z M251,22h5v1h-5z M1,23h4v1h-4z M8,23h5v1h-5z M14,23h7v1h-7z M24,22h4v2h-4z M31,23h4v1h-4z M41,23h6v1h-6z M49,23h5v1h-5z M57,23h6v1h-6z M67,23h8v1h-8z M90,23h10v1h-10z M104,23h9v1h-9z M118,23h19v1h-19z M140,23h6v1h-6z M175,23h13v1h-13z M191,23h20v1h-20z M215,23h4v1h-4z M230,21h4v3h-4z M236,22h4v2h-4z M242,23h5v1h-5z M252,23h5v1h-5z M1,24h5v1h-5z M7,24h6v1h-6z M17,24h4v1h-4z M25,24h2v1h-2z M30,24h5v1h-5z M40,24h6v1h-6z M56,24h6v1h-6z M66,24h6v1h-6z M89,24h11v1h-11z M102,24h8v1h-8z M117,24h29v1h-29z M174,24h12v1h-12z M190,24h20v1h-20z M214,24h5v1h-5z M235,24h5v1h-5z M242,24h4v1h-4z M2,25h10v1h-10z M30,25h4v1h-4z M39,25h5v1h-5z M48,24h5v2h-5z M55,25h5v1h-5z M66,25h5v1h-5z M88,25h10v1h-10z M101,25h6v1h-6z M116,25h27v1h-27z M173,25h11v1h-11z M189,25h20v1h-20z M213,25h5v1h-5z M229,24h4v2h-4z M234,25h5v1h-5z M241,25h4v1h-4z M253,24h5v2h-5z M1,26h11v1h-11z M17,25h5v2h-5z M29,26h4v1h-4z M39,26h4v1h-4z M47,26h5v1h-5z M54,26h5v1h-5z M67,26h2v1h-2z M88,26h9v1h-9z M100,26h5v1h-5z M116,26h26v1h-26z M172,26h10v1h-10z M188,26h30v1h-30z M228,26h4v1h-4z M234,26h4v1h-4z M240,26h4v1h-4z M254,26h4v1h-4z M1,27h20v1h-20z M38,27h4v1h-4z M47,27h4v1h-4z M77,27h3v1h-3z M87,27h9v1h-9z M98,27h6v1h-6z M116,27h22v1h-22z M157,27h1v1h-1z M177,27h4v1h-4z M188,27h5v1h-5z M196,27h21v1h-21z M227,27h10v1h-10z M255,27h2v1h-2z M1,28h19v1h-19z M29,27h3v2h-3z M54,27h3v2h-3z M98,28h5v1h-5z M115,28h19v1h-19z M143,28h3v1h-3z M157,28h2v1h-2z M177,28h5v1h-5z M188,28h6v1h-6z M195,28h8v1h-8z M204,28h12v1h-12z M226,28h10v1h-10z M239,27h5v2h-5z M2,29h17v1h-17z M37,28h5v2h-5z M53,29h4v1h-4z M87,28h8v2h-8z M97,29h5v1h-5z M113,29h18v1h-18z M172,27h3v3h-3z M178,29h5v1h-5z M189,29h12v1h-12z M204,29h9v1h-9z M225,29h11v1h-11z M238,29h5v1h-5z M262,8h4v22h-4z M2,30h13v1h-13z M53,30h3v1h-3z M76,28h4v3h-4z M87,30h7v1h-7z M96,30h5v1h-5z M109,30h20v1h-20z M143,29h4v2h-4z M156,29h3v2h-3z M178,30h6v1h-6z M190,30h11v1h-11z M204,30h5v1h-5z M214,30h2v1h-2z M224,30h11v1h-11z M237,30h6v1h-6z M261,30h5v1h-5z M2,31h8v1h-8z M11,31h2v1h-2z M28,29h4v3h-4z M38,30h4v2h-4z M47,28h3v4h-3z M53,31h4v1h-4z M87,31h8v1h-8z M96,31h4v1h-4z M106,31h16v1h-16z M124,31h4v1h-4z M144,31h4v1h-4z M172,30h4v2h-4z M179,31h6v1h-6z M191,31h11v1h-11z M223,31h5v1h-5z M229,31h5v1h-5z M237,31h4v1h-4z M252,31h1v1h-1z M2,32h7v1h-7z M22,32h2v1h-2z M29,32h4v1h-4z M38,32h5v1h-5z M105,32h17v1h-17z M123,32h4v1h-4z M155,31h4v2h-4z M192,32h11v1h-11z M204,31h4v2h-4z M213,31h3v2h-3z M222,32h5v1h-5z M229,32h4v1h-4z M236,32h5v1h-5z M250,32h3v1h-3z M2,33h5v1h-5z M29,33h5v1h-5z M39,33h5v1h-5z M54,32h3v2h-3z M75,31h4v3h-4z M87,32h12v2h-12z M104,33h17v1h-17z M122,33h5v1h-5z M145,32h4v2h-4z M154,33h5v1h-5z M173,32h4v2h-4z M191,33h17v1h-17z M221,33h5v1h-5z M236,33h4v1h-4z M247,33h6v1h-6z M1,34h6v1h-6z M21,33h4v2h-4z M30,34h5v1h-5z M40,34h5v1h-5z M47,32h4v3h-4z M54,34h4v1h-4z M63,34h2v1h-2z M86,34h13v1h-13z M103,34h18v1h-18z M122,34h4v1h-4z M146,34h3v1h-3z M154,34h4v1h-4z M172,34h5v1h-5z M182,32h4v3h-4z M190,34h18v1h-18z M212,33h4v2h-4z M221,34h4v1h-4z M245,34h8v1h-8z M1,35h5v1h-5z M21,35h3v1h-3z M30,35h6v1h-6z M41,35h11v1h-11z M62,35h4v1h-4z M75,34h3v2h-3z M85,35h5v1h-5z M91,35h9v1h-9z M103,35h6v1h-6z M110,35h15v1h-15z M134,35h4v1h-4z M147,35h2v1h-2z M155,35h2v1h-2z M171,35h5v1h-5z M179,35h6v1h-6z M188,35h19v1h-19z M228,33h4v3h-4z M245,35h6v1h-6z M20,36h4v1h-4z M32,36h6v1h-6z M42,36h11v1h-11z M55,35h4v2h-4z M63,36h4v1h-4z M76,36h1v1h-1z M85,36h4v1h-4z M91,36h10v1h-10z M103,36h5v1h-5z M109,36h16v1h-16z M132,36h6v1h-6z M169,36h7v1h-7z M177,36h7v1h-7z M187,36h20v1h-20z M212,35h3v2h-3z M227,36h4v1h-4z M235,34h4v3h-4z M246,36h2v1h-2z M7,37h2v1h-2z M20,37h3v1h-3z M33,37h7v1h-7z M43,37h11v1h-11z M56,37h5v1h-5z M91,37h4v1h-4z M97,37h5v1h-5z M103,37h4v1h-4z M109,37h14v1h-14z M128,37h10v1h-10z M168,37h7v1h-7z M176,37h7v1h-7z M185,37h21v1h-21z M211,37h4v1h-4z M220,35h4v3h-4z M235,37h5v1h-5z M7,38h4v1h-4z M34,38h7v1h-7z M45,38h9v1h-9z M57,38h4v1h-4z M64,37h4v2h-4z M82,37h6v2h-6z M90,38h4v1h-4z M104,38h4v1h-4z M109,38h13v1h-13z M127,38h9v1h-9z M166,38h6v1h-6z M175,38h6v1h-6z M185,38h20v1h-20z M210,38h5v1h-5z M220,38h5v1h-5z M228,37h4v2h-4z M236,38h4v1h-4z M7,39h5v1h-5z M46,39h9v1h-9z M58,39h4v1h-4z M65,39h4v1h-4z M80,39h5v1h-5z M87,39h7v1h-7z M98,38h4v2h-4z M103,39h5v1h-5z M109,39h10v1h-10z M127,39h6v1h-6z M166,39h5v1h-5z M174,39h5v1h-5z M184,39h5v1h-5z M190,39h9v1h-9z M200,39h7v1h-7z M210,39h4v1h-4z M221,39h5v1h-5z M228,39h5v1h-5z M236,39h6v1h-6z M8,40h5v1h-5z M19,38h4v3h-4z M37,39h5v2h-5z M47,40h9v1h-9z M66,40h2v1h-2z M79,40h5v1h-5z M86,40h7v1h-7z M97,40h5v1h-5z M103,40h16v1h-16z M127,40h4v1h-4z M142,40h2v1h-2z M165,40h4v1h-4z M173,40h4v1h-4z M184,40h4v1h-4z M222,40h5v1h-5z M229,40h4v1h-4z M237,40h6v1h-6z M9,41h4v1h-4z M19,41h3v1h-3z M48,41h9v1h-9z M59,40h4v2h-4z M79,41h4v1h-4z M85,41h7v1h-7z M94,41h27v1h-27z M141,41h3v1h-3z M158,41h2v1h-2z M173,41h3v1h-3z M183,41h5v1h-5z M190,40h23v2h-23z M223,41h12v1h-12z M238,41h6v1h-6z M2,36h4v7h-4z M9,42h5v1h-5z M20,42h1v1h-1z M38,41h4v2h-4z M49,42h9v1h-9z M60,42h4v1h-4z M78,42h4v1h-4z M84,42h5v1h-5z M91,42h34v1h-34z M140,42h4v1h-4z M155,42h6v1h-6z M173,42h4v1h-4z M183,42h30v1h-30z M224,42h12v1h-12z M239,42h6v1h-6z M10,43h5v1h-5z M35,43h7v1h-7z M50,43h14v1h-14z M84,43h4v1h-4z M91,43h8v1h-8z M101,43h26v1h-26z M139,43h4v1h-4z M153,43h7v1h-7z M164,41h4v3h-4z M173,43h5v1h-5z M184,43h31v1h-31z M225,43h13v1h-13z M241,43h6v1h-6z M255,42h3v2h-3z M11,44h4v1h-4z M32,44h9v1h-9z M50,44h10v1h-10z M61,44h4v1h-4z M83,44h5v1h-5z M90,44h8v1h-8z M107,44h21v1h-21z M138,44h5v1h-5z M152,44h7v1h-7z M164,44h5v1h-5z M174,44h5v1h-5z M185,44h31v1h-31z M226,44h14v1h-14z M242,44h6v1h-6z M26,45h13v1h-13z M50,45h5v1h-5z M56,45h4v1h-4z M78,43h3v3h-3z M89,45h5v1h-5z M108,45h22v1h-22z M138,45h4v1h-4z M152,45h5v1h-5z M165,45h6v1h-6z M174,45h7v1h-7z M187,45h14v1h-14z M202,45h15v1h-15z M218,45h5v1h-5z M227,45h14v1h-14z M244,45h6v1h-6z M24,46h14v1h-14z M49,46h6v1h-6z M78,46h4v1h-4z M83,45h4v2h-4z M89,46h4v1h-4z M101,44h5v3h-5z M108,46h24v1h-24z M153,46h2v1h-2z M166,46h7v1h-7z M175,46h9v1h-9z M192,46h10v1h-10z M203,46h22v1h-22z M229,46h14v1h-14z M244,46h7v1h-7z M255,44h4v3h-4z M22,47h9v1h-9z M37,47h17v1h-17z M57,46h3v2h-3z M62,45h3v3h-3z M78,47h14v1h-14z M101,47h31v1h-31z M137,46h4v2h-4z M167,47h19v1h-19z M195,47h32v1h-32z M230,47h6v1h-6z M237,47h7v1h-7z M247,47h5v1h-5z M2,43h3v6h-3z M20,48h8v1h-8z M35,48h19v1h-19z M56,48h4v1h-4z M72,48h3v1h-3z M79,48h14v1h-14z M102,48h31v1h-31z M138,48h2v1h-2z M169,48h20v1h-20z M198,48h29v1h-29z M231,48h6v1h-6z M240,48h5v1h-5z M248,48h5v1h-5z M18,49h8v1h-8z M31,49h29v1h-29z M70,49h5v1h-5z M80,49h15v1h-15z M103,49h19v1h-19z M123,49h11v1h-11z M170,49h21v1h-21z M200,49h7v1h-7z M209,49h6v1h-6z M216,49h11v1h-11z M233,49h5v1h-5z M241,49h5v1h-5z M249,49h5v1h-5z M17,50h6v1h-6z M30,50h30v1h-30z M69,50h5v1h-5z M80,50h4v1h-4z M86,50h10v1h-10z M105,50h17v1h-17z M125,50h9v1h-9z M174,50h9v1h-9z M186,50h7v1h-7z M202,50h6v1h-6z M210,50h5v1h-5z M217,50h6v1h-6z M225,50h1v1h-1z M242,50h5v1h-5z M250,50h5v1h-5z M256,47h4v4h-4z M9,51h1v1h-1z M16,51h5v1h-5z M28,51h30v1h-30z M62,48h4v4h-4z M67,51h7v1h-7z M86,51h11v1h-11z M116,51h7v1h-7z M146,50h3v2h-3z M176,51h9v1h-9z M189,51h7v1h-7z M203,51h6v1h-6z M210,51h6v1h-6z M218,51h5v1h-5z M234,50h5v2h-5z M243,51h5v1h-5z M251,51h8v1h-8z M14,52h6v1h-6z M25,52h8v1h-8z M35,52h22v1h-22z M66,52h6v1h-6z M81,51h4v2h-4z M87,52h11v1h-11z M126,51h9v2h-9z M146,52h4v1h-4z M164,52h3v1h-3z M178,52h9v1h-9z M191,52h6v1h-6z M205,52h12v1h-12z M219,52h4v1h-4z M232,52h8v1h-8z M244,52h5v1h-5z M252,52h5v1h-5z M2,49h4v5h-4z M7,52h4v2h-4z M13,53h6v1h-6z M23,53h22v1h-22z M61,52h4v2h-4z M67,53h3v1h-3z M82,53h4v1h-4z M89,53h10v1h-10z M119,52h5v2h-5z M131,53h4v1h-4z M147,53h4v1h-4z M163,53h4v1h-4z M180,53h9v1h-9z M193,53h6v1h-6z M206,53h12v1h-12z M220,53h4v1h-4z M237,53h4v1h-4z M245,53h5v1h-5z M253,53h4v1h-4z M2,54h9v1h-9z M12,54h6v1h-6z M22,54h18v1h-18z M59,54h6v1h-6z M82,54h5v1h-5z M90,54h9v1h-9z M120,54h5v1h-5z M132,54h4v1h-4z M148,54h3v1h-3z M162,54h4v1h-4z M183,54h8v1h-8z M194,54h7v1h-7z M207,54h5v1h-5z M213,54h5v1h-5z M221,54h4v1h-4z M237,54h5v1h-5z M246,54h5v1h-5z M253,54h5v1h-5z M2,55h14v1h-14z M20,55h7v1h-7z M29,55h9v1h-9z M56,55h8v1h-8z M83,55h5v1h-5z M90,55h4v1h-4z M95,55h4v1h-4z M126,53h4v3h-4z M133,55h5v1h-5z M160,55h5v1h-5z M186,55h7v1h-7z M195,55h6v1h-6z M221,55h5v1h-5z M232,53h4v3h-4z M238,55h4v1h-4z M247,55h4v1h-4z M254,55h4v1h-4z M19,56h6v1h-6z M28,56h7v1h-7z M50,56h13v1h-13z M84,56h5v1h-5z M90,56h10v1h-10z M120,55h4v2h-4z M126,56h5v1h-5z M133,56h7v1h-7z M149,55h3v2h-3z M160,56h4v1h-4z M188,56h8v1h-8z M197,56h6v1h-6z M208,55h5v2h-5z M214,55h5v2h-5z M222,56h4v1h-4z M239,56h4v1h-4z M254,56h5v1h-5z M2,56h13v2h-13z M19,57h5v1h-5z M27,57h6v1h-6z M39,57h22v1h-22z M85,57h16v1h-16z M119,57h5v1h-5z M127,57h16v1h-16z M151,57h1v1h-1z M160,57h3v1h-3z M190,57h7v1h-7z M200,57h4v1h-4z M215,57h5v1h-5z M223,57h5v1h-5z M239,57h5v1h-5z M248,56h4v2h-4z M2,58h12v1h-12z M18,58h5v1h-5z M26,58h7v1h-7z M36,58h22v1h-22z M75,58h1v1h-1z M86,58h9v1h-9z M96,58h15v1h-15z M119,58h6v1h-6z M127,58h18v1h-18z M192,58h7v1h-7z M200,58h5v1h-5z M209,57h5v2h-5z M224,58h4v1h-4z M240,58h4v1h-4z M255,57h4v2h-4z M2,59h7v1h-7z M10,59h4v1h-4z M25,59h6v1h-6z M33,59h12v1h-12z M87,59h8v1h-8z M97,59h17v1h-17z M119,59h18v1h-18z M139,59h8v1h-8z M184,59h7v1h-7z M193,59h7v1h-7z M202,59h4v1h-4z M210,59h5v1h-5z M216,58h5v2h-5z M249,58h4v2h-4z M7,60h1v1h-1z M10,60h5v1h-5z M17,59h4v2h-4z M24,60h6v1h-6z M32,60h10v1h-10z M88,60h7v1h-7z M98,60h17v1h-17z M120,60h18v1h-18z M142,60h6v1h-6z M172,60h2v1h-2z M195,60h5v1h-5z M202,60h5v1h-5z M211,60h4v1h-4z M225,59h4v2h-4z M241,59h4v2h-4z M256,59h4v2h-4z M2,60h4v2h-4z M11,61h4v1h-4z M16,61h4v1h-4z M24,61h4v1h-4z M30,61h7v1h-7z M42,61h2v1h-2z M89,61h7v1h-7z M98,61h6v1h-6z M108,61h8v1h-8z M121,61h18v1h-18z M144,61h5v1h-5z M183,60h9v2h-9z M197,61h4v1h-4z M203,61h5v1h-5z M211,61h5v1h-5z M217,60h5v2h-5z M256,61h5v1h-5z M262,31h4v31h-4z M2,62h3v1h-3z M30,62h6v1h-6z M41,62h4v1h-4z M61,62h2v1h-2z M89,62h17v1h-17z M123,62h9v1h-9z M135,62h5v1h-5z M145,62h4v1h-4z M157,62h2v1h-2z M172,61h3v2h-3z M189,62h2v1h-2z M197,62h5v1h-5z M212,62h4v1h-4z M218,62h5v1h-5z M226,61h4v2h-4z M242,61h4v2h-4z M250,60h4v3h-4z M257,62h9v1h-9z M12,62h9v2h-9z M23,62h4v2h-4z M29,63h5v1h-5z M41,63h8v1h-8z M61,63h3v1h-3z M74,59h3v5h-3z M89,63h18v1h-18z M126,63h7v1h-7z M136,63h5v1h-5z M146,63h4v1h-4z M156,63h8v1h-8z M198,63h4v1h-4z M205,62h4v2h-4z M212,63h5v1h-5z M218,63h6v1h-6z M226,63h5v1h-5z M232,56h3v8h-3z M250,63h5v1h-5z M13,64h9v1h-9z M41,64h10v1h-10z M90,64h18v1h-18z M128,64h5v1h-5z M137,64h4v1h-4z M157,64h7v1h-7z M171,63h4v2h-4z M219,64h5v1h-5z M257,63h8v2h-8z M13,65h10v1h-10z M24,64h4v2h-4z M29,64h4v2h-4z M42,65h10v1h-10z M60,64h4v2h-4z M82,65h1v1h-1z M90,65h12v1h-12z M112,62h4v4h-4z M129,65h5v1h-5z M158,65h6v1h-6z M171,65h3v1h-3z M199,64h3v2h-3z M206,64h4v2h-4z M213,64h4v2h-4z M219,65h6v1h-6z M227,64h3v2h-3z M243,63h4v3h-4z M19,66h14v1h-14z M46,66h6v1h-6z M81,66h4v1h-4z M92,66h10v1h-10z M104,65h4v2h-4z M111,66h4v1h-4z M129,66h6v1h-6z M138,65h3v2h-3z M161,66h3v1h-3z M171,66h2v1h-2z M199,66h4v1h-4z M214,66h4v1h-4z M220,66h5v1h-5z M251,64h4v3h-4z M258,65h7v2h-7z M12,66h5v2h-5z M20,67h14v1h-14z M49,67h1v1h-1z M61,66h3v2h-3z M73,64h4v4h-4z M81,67h6v1h-6z M147,64h4v4h-4z M213,67h5v1h-5z M2,63h4v6h-4z M9,68h7v1h-7z M30,68h4v1h-4z M82,68h6v1h-6z M97,67h11v2h-11z M110,67h4v2h-4z M130,67h5v2h-5z M137,67h4v2h-4z M147,68h3v1h-3z M180,68h3v1h-3z M198,67h4v2h-4z M2,69h13v1h-13z M31,69h4v1h-4z M73,68h3v2h-3z M83,69h6v1h-6z M97,69h10v1h-10z M110,69h3v1h-3z M136,69h4v1h-4z M146,69h4v1h-4z M180,69h6v1h-6z M197,69h5v1h-5z M207,66h4v4h-4z M213,68h4v2h-4z M237,69h3v1h-3z M2,70h11v1h-11z M20,68h9v3h-9z M61,68h4v3h-4z M74,70h1v1h-1z M85,70h4v1h-4z M129,69h5v2h-5z M135,70h5v1h-5z M145,70h4v1h-4z M181,70h6v1h-6z M195,70h6v1h-6z M206,70h4v1h-4z M221,67h4v4h-4z M236,70h4v1h-4z M252,67h3v4h-3z M2,71h9v1h-9z M17,71h12v1h-12z M62,71h3v1h-3z M86,71h4v1h-4z M98,70h9v2h-9z M110,70h4v2h-4z M128,71h5v1h-5z M135,71h4v1h-4z M143,71h5v1h-5z M182,71h6v1h-6z M194,71h6v1h-6z M205,71h5v1h-5z M213,70h3v2h-3z M221,71h5v1h-5z M235,71h5v1h-5z M258,67h8v5h-8z M2,72h7v1h-7z M13,72h16v1h-16z M32,70h4v3h-4z M49,72h4v1h-4z M63,72h1v1h-1z M88,72h1v1h-1z M99,72h16v1h-16z M127,72h6v1h-6z M134,72h5v1h-5z M142,72h5v1h-5z M153,72h3v1h-3z M184,72h3v1h-3z M193,72h6v1h-6z M204,72h5v1h-5z M212,72h4v1h-4z M227,66h4v7h-4z M233,72h6v1h-6z M244,66h4v7h-4z M251,71h4v2h-4z M257,72h9v1h-9z M1,73h6v1h-6z M12,73h16v1h-16z M33,73h3v1h-3z M48,73h5v1h-5z M100,73h17v1h-17z M126,73h12v1h-12z M142,73h4v1h-4z M192,73h5v1h-5z M202,73h6v1h-6z M211,73h4v1h-4z M220,72h5v2h-5z M226,73h5v1h-5z M232,73h6v1h-6z M243,73h4v1h-4z M1,74h5v1h-5z M10,74h17v1h-17z M47,74h5v1h-5z M100,74h4v1h-4z M106,74h12v1h-12z M124,74h7v1h-7z M132,74h5v1h-5z M141,74h4v1h-4z M153,73h4v2h-4z M191,74h5v1h-5z M200,74h7v1h-7z M210,74h4v1h-4z M219,74h17v1h-17z M242,74h5v1h-5z M250,73h4v2h-4z M256,73h4v2h-4z M1,75h4v1h-4z M9,75h16v1h-16z M32,74h4v2h-4z M46,75h5v1h-5z M99,75h5v1h-5z M124,75h6v1h-6z M131,75h5v1h-5z M139,75h6v1h-6z M154,75h4v1h-4z M199,75h6v1h-6z M207,75h7v1h-7z M218,75h12v1h-12z M232,75h2v1h-2z M241,75h5v1h-5z M249,75h4v1h-4z M255,75h5v1h-5z M262,73h3v3h-3z M1,76h5v1h-5z M7,76h15v1h-15z M31,76h5v1h-5z M80,76h24v1h-24z M108,75h4v2h-4z M123,76h5v1h-5z M130,76h5v1h-5z M138,76h5v1h-5z M155,76h4v1h-4z M168,75h3v2h-3z M198,76h6v1h-6z M205,76h8v1h-8z M215,76h14v1h-14z M240,76h12v1h-12z M254,76h5v1h-5z M262,76h4v1h-4z M1,77h19v1h-19z M28,77h7v1h-7z M45,76h4v2h-4z M66,77h2v1h-2z M71,77h33v1h-33z M106,77h5v1h-5z M114,75h4v3h-4z M121,77h6v1h-6z M130,77h4v1h-4z M137,77h5v1h-5z M156,77h3v1h-3z M167,77h4v1h-4z M197,77h5v1h-5z M204,77h7v1h-7z M214,77h8v1h-8z M223,77h6v1h-6z M239,77h12v1h-12z M254,77h4v1h-4z M262,77h3v1h-3z M2,78h15v1h-15z M25,78h9v1h-9z M45,78h2v1h-2z M58,78h53v1h-53z M113,78h4v1h-4z M120,78h6v1h-6z M129,78h5v1h-5z M136,78h5v1h-5z M157,78h2v1h-2z M166,78h4v1h-4z M176,78h1v1h-1z M190,75h4v4h-4z M197,78h4v1h-4z M203,78h6v1h-6z M212,78h9v1h-9z M222,78h6v1h-6z M238,78h12v1h-12z M253,78h4v1h-4z M2,79h14v1h-14z M22,79h11v1h-11z M54,79h31v1h-31z M88,79h29v1h-29z M119,79h6v1h-6z M128,79h5v1h-5z M135,79h5v1h-5z M203,79h5v1h-5z M212,79h7v1h-7z M221,79h6v1h-6z M234,79h14v1h-14z M252,79h4v1h-4z M2,80h6v1h-6z M10,80h5v1h-5z M19,80h12v1h-12z M53,80h30v1h-30z M84,80h1v1h-1z M88,80h28v1h-28z M118,80h6v1h-6z M127,80h5v1h-5z M134,80h5v1h-5z M165,79h4v2h-4z M197,79h3v2h-3z M203,80h3v1h-3z M211,80h6v1h-6z M220,80h6v1h-6z M233,80h14v1h-14z M250,80h6v1h-6z M9,81h5v1h-5z M18,81h9v1h-9z M50,81h73v1h-73z M126,81h6v1h-6z M133,81h5v1h-5z M164,81h4v1h-4z M202,81h4v1h-4z M210,81h5v1h-5z M219,81h6v1h-6z M231,81h15v1h-15z M249,81h5v1h-5z M9,82h4v1h-4z M17,82h6v1h-6z M49,82h64v1h-64z M115,82h7v1h-7z M125,82h12v1h-12z M164,82h3v1h-3z M191,79h3v4h-3z M197,81h4v2h-4z M203,82h3v1h-3z M210,82h4v1h-4z M218,82h6v1h-6z M231,82h13v1h-13z M247,82h6v1h-6z M2,81h5v3h-5z M8,83h4v1h-4z M15,83h7v1h-7z M35,79h3v5h-3z M47,83h32v1h-32z M81,83h31v1h-31z M113,83h7v1h-7z M123,83h13v1h-13z M144,83h2v1h-2z M165,83h1v1h-1z M190,83h4v1h-4z M203,83h4v1h-4z M218,83h4v1h-4z M231,83h4v1h-4z M237,83h5v1h-5z M245,83h7v1h-7z M14,84h6v1h-6z M45,84h27v1h-27z M83,84h1v1h-1z M85,84h34v1h-34z M122,84h13v1h-13z M189,84h4v1h-4z M204,84h3v1h-3z M230,84h5v1h-5z M237,84h4v1h-4z M245,84h6v1h-6z M2,84h9v2h-9z M13,85h6v1h-6z M34,84h4v2h-4z M44,85h18v1h-18z M77,85h40v1h-40z M120,85h14v1h-14z M188,85h4v1h-4z M198,83h4v3h-4z M204,85h4v1h-4z M209,83h4v3h-4z M217,84h4v2h-4z M244,85h5v1h-5z M257,85h3v1h-3z M2,86h8v1h-8z M12,86h6v1h-6z M22,86h2v1h-2z M43,86h5v1h-5z M51,86h7v1h-7z M67,86h32v1h-32z M101,86h15v1h-15z M118,86h15v1h-15z M154,86h3v1h-3z M175,79h3v8h-3z M186,86h6v1h-6z M198,86h3v1h-3z M205,86h9v1h-9z M236,85h4v2h-4z M244,86h4v1h-4z M256,86h4v1h-4z M2,87h14v1h-14z M42,87h5v1h-5z M50,87h5v1h-5z M64,87h32v1h-32z M100,87h32v1h-32z M153,87h8v1h-8z M183,87h7v1h-7z M197,87h4v1h-4z M210,87h4v1h-4z M231,85h4v3h-4z M236,87h5v1h-5z M2,88h7v1h-7z M10,88h6v1h-6z M21,87h4v2h-4z M34,86h3v3h-3z M41,88h5v1h-5z M49,88h5v1h-5z M61,88h20v1h-20z M95,88h36v1h-36z M134,87h2v2h-2z M154,88h9v1h-9z M181,88h8v1h-8z M196,88h4v1h-4z M210,88h5v1h-5z M217,86h3v3h-3z M225,88h2v1h-2z M231,88h10v1h-10z M243,87h4v2h-4z M255,87h4v2h-4z M2,89h12v1h-12z M21,89h5v1h-5z M40,89h5v1h-5z M48,89h5v1h-5z M59,89h12v1h-12z M72,89h1v1h-1z M92,89h37v1h-37z M133,89h3v1h-3z M155,89h8v1h-8z M178,89h9v1h-9z M195,89h5v1h-5z M205,87h4v3h-4z M225,89h3v1h-3z M232,89h9v1h-9z M254,89h4v1h-4z M23,90h3v1h-3z M40,90h4v1h-4z M48,90h4v1h-4z M57,90h9v1h-9z M87,90h41v1h-41z M158,90h5v1h-5z M177,90h8v1h-8z M194,90h5v1h-5z M232,90h10v1h-10z M244,89h4v2h-4z M262,78h4v13h-4z M23,91h4v1h-4z M39,91h5v1h-5z M47,91h3v1h-3z M56,91h7v1h-7z M85,91h41v1h-41z M132,90h4v2h-4z M143,84h4v8h-4z M175,91h8v1h-8z M193,91h5v1h-5z M204,90h4v2h-4z M217,89h4v3h-4z M233,91h9v1h-9z M245,91h3v1h-3z M253,90h4v2h-4z M24,92h4v1h-4z M38,92h5v1h-5z M55,92h6v1h-6z M76,92h7v1h-7z M85,92h39v1h-39z M131,92h4v1h-4z M144,92h2v1h-2z M174,92h6v1h-6z M190,92h7v1h-7z M202,92h6v1h-6z M211,89h4v4h-4z M216,92h4v1h-4z M234,92h9v1h-9z M253,92h3v1h-3z M2,90h11v4h-11z M24,93h3v1h-3z M37,93h5v1h-5z M46,92h4v2h-4z M54,93h5v1h-5z M74,93h48v1h-48z M131,93h3v1h-3z M173,93h5v1h-5z M188,93h8v1h-8z M199,93h8v1h-8z M210,93h10v1h-10z M234,93h10v1h-10z M245,92h4v2h-4z M253,93h2v1h-2z M25,94h2v1h-2z M35,94h6v1h-6z M44,94h5v1h-5z M53,94h5v1h-5z M71,94h14v1h-14z M86,94h33v1h-33z M130,94h4v1h-4z M170,94h7v1h-7z M186,94h8v1h-8z M196,94h9v1h-9z M209,94h11v1h-11z M240,94h4v1h-4z M31,95h10v1h-10z M43,95h5v1h-5z M53,95h4v1h-4z M66,95h49v1h-49z M130,95h3v1h-3z M167,95h8v1h-8z M182,95h21v1h-21z M208,95h11v1h-11z M224,90h4v6h-4z M235,94h4v2h-4z M240,95h5v1h-5z M246,94h4v2h-4z M28,96h20v1h-20z M63,96h29v1h-29z M93,96h17v1h-17z M131,96h2v1h-2z M151,96h3v1h-3z M155,96h18v1h-18z M178,96h24v1h-24z M205,96h14v1h-14z M225,96h3v1h-3z M241,96h4v1h-4z M246,96h5v1h-5z M15,96h4v2h-4z M26,97h21v1h-21z M60,97h45v1h-45z M144,97h27v1h-27z M176,97h22v1h-22z M204,97h14v1h-14z M225,97h2v1h-2z M247,97h4v1h-4z M2,94h10v5h-10z M25,98h21v1h-21z M52,96h4v3h-4z M58,98h44v1h-44z M142,98h27v1h-27z M175,98h20v1h-20z M201,98h16v1h-16z M236,96h3v3h-3z M248,98h3v1h-3z M262,91h3v8h-3z M14,98h4v2h-4z M24,99h20v1h-20z M51,99h30v1h-30z M83,99h15v1h-15z M110,99h3v1h-3z M139,99h22v1h-22z M173,99h6v1h-6z M182,99h10v1h-10z M199,99h17v1h-17z M1,99h11v2h-11z M13,100h4v1h-4z M24,100h16v1h-16z M49,100h32v1h-32z M82,100h13v1h-13z M110,100h4v1h-4z M138,100h9v1h-9z M171,100h7v1h-7z M180,100h10v1h-10z M196,100h19v1h-19z M242,97h4v4h-4z M2,101h15v1h-15z M23,101h10v1h-10z M41,101h20v1h-20z M62,101h14v1h-14z M79,101h11v1h-11z M110,101h5v1h-5z M123,101h8v1h-8z M138,101h6v1h-6z M170,101h6v1h-6z M178,101h8v1h-8z M194,101h20v1h-20z M235,99h4v3h-4z M241,101h5v1h-5z M248,99h4v3h-4z M2,102h14v1h-14z M38,102h21v1h-21z M62,102h11v1h-11z M77,102h10v1h-10z M111,102h4v1h-4z M123,102h9v1h-9z M137,102h5v1h-5z M167,102h8v1h-8z M177,102h7v1h-7z M191,102h12v1h-12z M204,102h9v1h-9z M220,102h1v1h-1z M240,102h5v1h-5z M247,102h4v1h-4z M255,101h2v2h-2z M12,103h4v1h-4z M37,103h19v1h-19z M61,103h7v1h-7z M76,103h8v1h-8z M123,103h8v1h-8z M137,103h4v1h-4z M146,103h13v1h-13z M165,103h8v1h-8z M175,103h7v1h-7z M189,103h11v1h-11z M203,103h9v1h-9z M219,103h4v1h-4z M234,102h4v2h-4z M240,103h4v1h-4z M246,103h5v1h-5z M2,103h8v2h-8z M12,104h3v1h-3z M37,104h18v1h-18z M74,104h8v1h-8z M91,104h1v1h-1z M112,103h4v2h-4z M128,104h1v1h-1z M138,104h4v1h-4z M145,104h27v1h-27z M174,104h6v1h-6z M187,104h10v1h-10z M198,104h13v1h-13z M219,104h5v1h-5z M233,104h4v1h-4z M239,104h11v1h-11z M2,105h6v1h-6z M22,102h9v4h-9z M36,105h5v1h-5z M60,104h7v2h-7z M74,105h6v1h-6z M90,105h3v1h-3z M113,105h4v1h-4z M145,105h24v1h-24z M172,105h6v1h-6z M185,105h23v1h-23z M211,105h1v1h-1z M219,105h7v1h-7z M232,105h4v1h-4z M238,105h5v1h-5z M244,105h5v1h-5z M254,103h4v3h-4z M2,106h5v1h-5z M23,106h10v1h-10z M47,105h8v2h-8z M60,106h9v1h-9z M74,106h4v1h-4z M90,106h4v1h-4z M104,105h3v2h-3z M114,106h4v1h-4z M145,106h6v1h-6z M153,106h13v1h-13z M170,106h6v1h-6z M183,106h23v1h-23z M210,106h3v1h-3z M221,106h6v1h-6z M231,106h5v1h-5z M238,106h4v1h-4z M243,106h5v1h-5z M2,107h4v1h-4z M24,107h11v1h-11z M37,106h4v2h-4z M47,107h12v1h-12z M60,107h10v1h-10z M74,107h3v1h-3z M91,107h3v1h-3z M103,107h4v1h-4z M115,107h3v1h-3z M139,105h4v3h-4z M145,107h5v1h-5z M159,107h3v1h-3z M168,107h7v1h-7z M181,107h23v1h-23z M223,107h4v1h-4z M230,107h5v1h-5z M243,107h4v1h-4z M25,108h11v1h-11z M38,108h4v1h-4z M47,108h13v1h-13z M62,108h1v1h-1z M64,108h7v1h-7z M91,108h4v1h-4z M103,108h3v1h-3z M137,108h6v1h-6z M157,108h17v1h-17z M179,108h21v1h-21z M209,107h4v2h-4z M224,108h2v1h-2z M229,108h5v1h-5z M237,107h4v2h-4z M242,108h4v1h-4z M27,109h16v1h-16z M48,109h13v1h-13z M66,109h6v1h-6z M74,108h4v2h-4z M92,109h4v1h-4z M102,109h4v1h-4z M130,109h12v1h-12z M146,108h5v2h-5z M155,109h18v1h-18z M176,109h22v1h-22z M209,109h3v1h-3z M229,109h4v1h-4z M242,109h3v1h-3z M28,110h17v1h-17z M49,110h12v1h-12z M66,110h5v1h-5z M102,110h3v1h-3z M126,110h15v1h-15z M147,110h5v1h-5z M154,110h40v1h-40z M228,110h4v1h-4z M236,109h4v2h-4z M241,110h4v1h-4z M255,106h3v5h-3z M12,111h7v1h-7z M29,111h11v1h-11z M41,111h7v1h-7z M55,111h6v1h-6z M64,111h6v1h-6z M76,110h3v2h-3z M93,110h3v2h-3z M101,111h4v1h-4z M120,111h19v1h-19z M147,111h4v1h-4z M153,111h38v1h-38z M197,111h4v1h-4z M236,111h9v1h-9z M256,111h1v1h-1z M2,108h3v5h-3z M29,112h5v1h-5z M35,112h5v1h-5z M43,112h5v1h-5z M54,112h7v1h-7z M62,112h8v1h-8z M74,112h5v1h-5z M85,112h1v1h-1z M117,112h16v1h-16z M143,112h8v1h-8z M153,112h5v1h-5z M159,112h30v1h-30z M196,112h5v1h-5z M208,110h4v3h-4z M227,111h4v2h-4z M235,112h5v1h-5z M262,99h4v14h-4z M12,112h10v2h-10z M44,113h5v1h-5z M54,113h6v1h-6z M62,113h6v1h-6z M73,113h6v1h-6z M84,113h3v1h-3z M101,112h3v2h-3z M114,113h14v1h-14z M139,113h11v1h-11z M153,113h4v1h-4z M159,113h28v1h-28z M195,113h5v1h-5z M208,113h3v1h-3z M226,113h5v1h-5z M234,113h6v1h-6z M241,112h3v2h-3z M2,113h4v2h-4z M13,114h10v1h-10z M30,113h4v2h-4z M36,113h4v2h-4z M46,114h3v1h-3z M72,114h6v1h-6z M83,114h4v1h-4z M112,114h10v1h-10z M135,114h14v1h-14z M154,114h4v1h-4z M159,114h26v1h-26z M193,114h6v1h-6z M226,114h4v1h-4z M234,114h5v1h-5z M241,114h2v1h-2z M262,113h3v2h-3z M2,115h5v1h-5z M19,115h3v1h-3z M29,115h5v1h-5z M35,115h5v1h-5z M46,115h4v1h-4z M54,114h5v2h-5z M61,114h5v2h-5z M71,115h6v1h-6z M82,115h5v1h-5z M109,115h9v1h-9z M131,115h16v1h-16z M154,115h11v1h-11z M167,115h16v1h-16z M225,115h4v1h-4z M233,115h4v1h-4z M240,115h4v1h-4z M246,115h3v1h-3z M2,116h4v1h-4z M29,116h4v1h-4z M62,116h4v1h-4z M81,116h5v1h-5z M107,116h10v1h-10z M128,116h14v1h-14z M153,116h12v1h-12z M167,116h14v1h-14z M192,115h5v2h-5z M223,116h6v1h-6z M232,116h4v1h-4z M240,116h3v1h-3z M246,116h4v1h-4z M261,115h4v2h-4z M28,117h5v1h-5z M35,116h4v2h-4z M47,116h3v2h-3z M55,116h5v2h-5z M62,117h5v1h-5z M81,117h4v1h-4z M106,117h8v1h-8z M125,117h16v1h-16z M151,117h7v1h-7z M166,117h15v1h-15z M192,117h3v1h-3z M209,117h4v1h-4z M221,117h7v1h-7z M231,117h5v1h-5z M239,117h4v1h-4z M246,117h5v1h-5z M260,117h5v1h-5z M25,118h7v1h-7z M34,118h5v1h-5z M64,118h4v1h-4z M80,118h4v1h-4z M105,118h6v1h-6z M121,118h14v1h-14z M142,118h15v1h-15z M160,117h5v2h-5z M166,118h5v1h-5z M179,118h2v1h-2z M207,118h19v1h-19z M230,118h5v1h-5z M237,118h5v1h-5z M246,118h6v1h-6z M20,119h11v1h-11z M33,119h5v1h-5z M46,118h4v2h-4z M56,118h5v2h-5z M65,119h4v1h-4z M71,116h4v4h-4z M81,119h3v1h-3z M103,119h7v1h-7z M120,119h9v1h-9z M137,119h20v1h-20z M159,119h6v1h-6z M166,119h4v1h-4z M179,119h3v1h-3z M205,119h19v1h-19z M230,119h11v1h-11z M247,119h5v1h-5z M259,118h7v2h-7z M2,117h3v4h-3z M14,120h16v1h-16z M32,120h5v1h-5z M45,120h5v1h-5z M57,120h4v1h-4z M72,120h4v1h-4z M103,120h5v1h-5z M116,120h10v1h-10z M133,120h31v1h-31z M167,120h3v1h-3z M204,120h18v1h-18z M227,120h13v1h-13z M258,120h7v1h-7z M11,121h25v1h-25z M44,121h5v1h-5z M56,121h5v1h-5z M73,121h3v1h-3z M101,121h5v1h-5z M115,121h8v1h-8z M129,121h35v1h-35z M168,121h3v1h-3z M179,120h4v2h-4z M202,121h7v1h-7z M225,121h14v1h-14z M249,120h4v2h-4z M257,121h8v1h-8z M1,121h4v2h-4z M9,122h27v1h-27z M42,122h6v1h-6z M55,122h6v1h-6z M66,120h3v3h-3z M100,122h5v1h-5z M114,122h6v1h-6z M127,122h14v1h-14z M148,122h15v1h-15z M180,122h4v1h-4z M191,122h17v1h-17z M217,122h20v1h-20z M250,122h3v1h-3z M2,123h3v1h-3z M8,123h27v1h-27z M40,123h8v1h-8z M54,123h6v1h-6z M65,123h4v1h-4z M91,123h2v1h-2z M113,123h5v1h-5z M126,123h9v1h-9z M146,123h15v1h-15z M167,122h4v2h-4z M189,123h17v1h-17z M211,123h26v1h-26z M2,124h45v1h-45z M50,124h9v1h-9z M64,124h5v1h-5z M73,122h4v3h-4z M91,124h3v1h-3z M112,124h5v1h-5z M124,124h9v1h-9z M136,124h23v1h-23z M165,124h6v1h-6z M181,123h4v2h-4z M188,124h15v1h-15z M208,124h27v1h-27z M238,124h2v1h-2z M2,125h57v1h-57z M62,125h6v1h-6z M72,125h4v1h-4z M111,125h5v1h-5z M123,125h6v1h-6z M132,125h38v1h-38z M182,125h3v1h-3z M188,125h4v1h-4z M197,125h3v1h-3z M206,125h27v1h-27z M237,125h4v1h-4z M256,122h9v4h-9z M2,126h65v1h-65z M70,126h6v1h-6z M83,126h2v1h-2z M100,123h4v4h-4z M111,126h4v1h-4z M122,126h6v1h-6z M131,126h38v1h-38z M183,126h1v1h-1z M204,126h27v1h-27z M237,126h3v1h-3z M255,126h10v1h-10z M2,127h15v1h-15z M20,127h55v1h-55z M80,127h5v1h-5z M101,127h5v1h-5z M111,127h5v1h-5z M121,127h5v1h-5z M130,127h20v1h-20z M152,127h15v1h-15z M187,126h4v2h-4z M197,127h32v1h-32z M236,127h4v1h-4z M2,128h5v1h-5z M8,128h7v1h-7z M19,128h54v1h-54z M78,128h7v1h-7z M91,125h4v4h-4z M101,128h6v1h-6z M112,128h5v1h-5z M130,128h12v1h-12z M143,128h2v1h-2z M150,128h14v1h-14z M186,128h5v1h-5z M195,128h32v1h-32z M254,127h11v2h-11z M2,129h4v1h-4z M7,129h6v1h-6z M18,129h9v1h-9z M31,129h40v1h-40z M76,129h8v1h-8z M103,129h5v1h-5z M112,129h6v1h-6z M120,128h4v2h-4z M129,129h7v1h-7z M148,129h12v1h-12z M168,129h4v1h-4z M184,129h6v1h-6z M194,129h30v1h-30z M235,128h5v2h-5z M253,129h12v1h-12z M2,130h10v1h-10z M17,130h7v1h-7z M29,130h40v1h-40z M75,130h7v1h-7z M92,129h3v2h-3z M104,130h5v1h-5z M113,130h11v1h-11z M129,130h6v1h-6z M147,130h9v1h-9z M182,130h7v1h-7z M191,130h26v1h-26z M218,130h1v1h-1z M221,130h5v1h-5z M235,130h4v1h-4z M251,130h14v1h-14z M15,131h7v1h-7z M26,131h41v1h-41z M75,131h5v1h-5z M93,131h2v1h-2z M105,131h5v1h-5z M115,131h10v1h-10z M146,131h7v1h-7z M163,130h9v2h-9z M179,131h10v1h-10z M190,131h22v1h-22z M219,131h8v1h-8z M235,131h3v1h-3z M250,131h10v1h-10z M2,131h9v2h-9z M13,132h52v1h-52z M75,132h4v1h-4z M106,132h4v1h-4z M116,132h10v1h-10z M130,131h6v2h-6z M145,132h6v1h-6z M163,132h8v1h-8z M177,132h33v1h-33z M218,132h9v1h-9z M236,132h1v1h-1z M248,132h11v1h-11z M2,133h78v1h-78z M81,133h9v1h-9z M92,133h5v1h-5z M102,133h9v1h-9z M112,133h1v1h-1z M115,133h12v1h-12z M129,133h8v1h-8z M143,133h8v1h-8z M163,133h5v1h-5z M175,133h31v1h-31z M218,133h8v1h-8z M243,133h1v1h-1z M245,133h13v1h-13z M262,131h3v3h-3z M2,134h169v1h-169z M172,134h34v1h-34z M217,134h8v1h-8z M239,134h19v1h-19z M261,134h4v1h-4z M2,135h263v1h-263z M3,136h262v1h-262z M93,137h4v1h-4z M103,137h21v1h-21z M125,137h141v1h-141z M139,138h3v1h-3z M169,138h7v1h-7z M180,138h1v1h-1z M190,138h4v1h-4z M195,138h70v1h-70z M263,139h1v1h-1z
  "/>
</svg>