<?xml version="1.0" encoding="UTF-8"?>
<svg xmlns="http://www.w3.org/2000/svg" viewBox="0 0 268 138" width="268" height="138">
  <title>62 Porphyritic rock 62</title>
  <path fill="#111111" fill-rule="nonzero" d="
    M2,0h57v1h-57z M60,0h1v1h-1z M64,0h14v1h-14z M80,0h12v1h-12z M93,0h20v1h-20z M123,0h1v1h-1z M131,0h12v1h-12z M144,0h1v1h-1z M146,0h1v1h-1z M155,0h2v1h-2z M167,0h3v1h-3z M175,0h2v1h-2z M187,0h1v1h-1z M194,0h1v1h-1z M1,1h265v1h-265z M0,2h267v1h-267z M0,3h268v1h-268z M0,4h7v1h-7z M8,4h5v1h-5z M18,4h2v1h-2z M28,4h1v1h-1z M30,4h7v1h-7z M42,4h6v1h-6z M53,4h3v1h-3z M60,4h2v1h-2z M66,4h8v1h-8z M76,4h2v1h-2z M86,4h1v1h-1z M90,4h10v1h-10z M105,4h17v1h-17z M124,4h11v1h-11z M137,4h11v1h-11z M152,4h7v1h-7z M162,4h2v1h-2z M165,4h14v1h-14z M182,4h86v1h-86z M0,5h5v1h-5z M68,5h2v1h-2z M91,5h8v1h-8z M114,5h7v1h-7z M231,5h10v1h-10z M263,5h5v1h-5z M65,6h6v1h-6z M90,6h9v1h-9z M115,6h7v1h-7z M194,5h6v2h-6z M230,6h10v1h-10z M255,5h6v2h-6z M45,7h3v1h-3z M88,7h11v1h-11z M114,7h9v1h-9z M139,7h1v1h-1z M192,7h9v1h-9z M228,7h12v1h-12z M43,8h6v1h-6z M86,8h13v1h-13z M113,8h10v1h-10z M137,8h4v1h-4z M153,8h3v1h-3z M190,8h11v1h-11z M225,8h15v1h-15z M254,7h8v2h-8z M14,9h5v1h-5z M41,9h9v1h-9z M85,9h13v1h-13z M113,9h9v1h-9z M135,9h7v1h-7z M150,9h6v1h-6z M189,9h11v1h-11z M222,9h17v1h-17z M253,9h9v1h-9z M40,10h10v1h-10z M64,7h8v4h-8z M84,10h13v1h-13z M112,10h9v1h-9z M134,10h9v1h-9z M187,10h13v1h-13z M221,10h17v1h-17z M253,10h8v1h-8z M13,10h7v2h-7z M38,11h12v1h-12z M82,11h14v1h-14z M111,11h10v1h-10z M132,11h11v1h-11z M149,10h8v2h-8z M185,11h13v1h-13z M220,11h15v1h-15z M251,11h10v1h-10z M12,12h9v1h-9z M37,12h13v1h-13z M81,12h13v1h-13z M130,12h13v1h-13z M184,12h13v1h-13z M208,12h4v1h-4z M220,12h12v1h-12z M251,12h9v1h-9z M36,13h13v1h-13z M81,13h12v1h-12z M110,12h9v2h-9z M128,13h14v1h-14z M182,13h13v1h-13z M207,13h6v1h-6z M220,13h9v1h-9z M250,13h9v1h-9z M33,14h14v1h-14z M81,14h10v1h-10z M109,14h9v1h-9z M127,14h14v1h-14z M170,14h3v1h-3z M182,14h12v1h-12z M206,14h8v1h-8z M221,14h6v1h-6z M249,14h10v1h-10z M32,15h14v1h-14z M81,15h9v1h-9z M108,15h9v1h-9z M126,15h14v1h-14z M182,15h10v1h-10z M205,15h10v1h-10z M223,15h1v1h-1z M248,15h10v1h-10z M31,16h15v1h-15z M65,11h8v6h-8z M82,16h5v1h-5z M107,16h9v1h-9z M123,16h15v1h-15z M150,12h7v5h-7z M168,15h7v2h-7z M182,16h8v1h-8z M205,16h11v1h-11z M247,16h10v1h-10z M29,17h14v1h-14z M84,17h1v1h-1z M106,17h10v1h-10z M122,17h14v1h-14z M183,17h5v1h-5z M205,17h6v1h-6z M212,17h5v1h-5z M246,17h10v1h-10z M29,18h13v1h-13z M94,18h4v1h-4z M105,18h10v1h-10z M121,18h13v1h-13z M168,17h8v2h-8z M184,18h3v1h-3z M207,18h11v1h-11z M246,18h9v1h-9z M12,13h8v7h-8z M29,19h11v1h-11z M52,19h1v1h-1z M92,19h7v1h-7z M105,19h9v1h-9z M122,19h10v1h-10z M151,17h6v3h-6z M208,19h11v1h-11z M246,19h8v1h-8z M29,20h9v1h-9z M51,20h6v1h-6z M66,17h8v4h-8z M105,20h8v1h-8z M122,20h8v1h-8z M169,19h8v2h-8z M209,20h11v1h-11z M247,20h7v1h-7z M29,21h7v1h-7z M51,21h7v1h-7z M105,21h7v1h-7z M123,21h6v1h-6z M170,21h7v1h-7z M210,21h12v1h-12z M234,20h6v2h-6z M248,21h5v1h-5z M30,22h5v1h-5z M51,22h8v1h-8z M107,22h4v1h-4z M124,22h2v1h-2z M136,22h4v1h-4z M152,20h6v3h-6z M170,22h8v1h-8z M210,22h13v1h-13z M234,22h7v1h-7z M251,22h1v1h-1z M67,21h8v3h-8z M108,23h1v1h-1z M171,23h7v1h-7z M212,23h11v1h-11z M50,23h9v2h-9z M68,24h7v1h-7z M135,23h6v2h-6z M152,23h7v2h-7z M171,24h8v1h-8z M213,24h11v1h-11z M11,20h8v6h-8z M50,25h8v1h-8z M68,25h6v1h-6z M91,20h8v6h-8z M172,25h7v1h-7z M190,25h1v1h-1z M215,25h8v1h-8z M233,23h7v3h-7z M69,26h5v1h-5z M90,26h9v1h-9z M134,25h7v2h-7z M153,25h6v2h-6z M172,26h8v1h-8z M188,26h8v1h-8z M216,26h6v1h-6z M49,26h8v2h-8z M133,27h8v1h-8z M153,27h5v1h-5z M188,27h13v1h-13z M218,27h3v1h-3z M77,28h4v1h-4z M90,27h8v2h-8z M109,28h4v1h-4z M154,28h2v1h-2z M173,27h7v2h-7z M188,28h18v1h-18z M233,26h6v3h-6z M76,29h6v1h-6z M95,29h3v1h-3z M107,29h7v1h-7z M133,28h7v2h-7z M232,29h7v1h-7z M247,29h4v1h-4z M10,26h9v5h-9z M48,28h8v3h-8z M72,30h10v1h-10z M90,29h4v2h-4z M95,30h2v1h-2z M107,30h8v1h-8z M246,30h6v1h-6z M264,6h4v25h-4z M11,31h7v1h-7z M47,31h9v1h-9z M70,31h13v1h-13z M132,30h7v2h-7z M174,29h6v3h-6z M187,29h21v3h-21z M232,30h6v2h-6z M245,31h9v1h-9z M12,32h5v1h-5z M47,32h8v1h-8z M67,32h15v1h-15z M107,31h9v2h-9z M175,32h4v1h-4z M188,32h20v1h-20z M245,32h10v1h-10z M263,31h5v2h-5z M29,33h3v1h-3z M46,33h9v1h-9z M65,33h17v1h-17z M108,33h9v1h-9z M131,32h8v2h-8z M147,33h9v1h-9z M176,33h2v1h-2z M193,33h14v1h-14z M245,33h12v1h-12z M0,6h4v29h-4z M27,34h5v1h-5z M46,34h8v1h-8z M62,34h19v1h-19z M90,31h8v4h-8z M109,34h9v1h-9z M146,34h20v1h-20z M200,34h7v1h-7z M231,32h7v3h-7z M245,34h14v1h-14z M0,35h5v1h-5z M26,35h7v1h-7z M45,35h9v1h-9z M62,35h16v1h-16z M109,35h10v1h-10z M130,34h8v2h-8z M145,35h22v1h-22z M220,35h2v1h-2z M231,35h6v1h-6z M247,35h13v1h-13z M61,36h15v1h-15z M90,35h7v2h-7z M110,36h9v1h-9z M130,36h7v1h-7z M218,36h5v1h-5z M249,36h13v1h-13z M264,33h4v4h-4z M26,36h8v2h-8z M45,36h8v2h-8z M61,37h13v1h-13z M89,37h8v1h-8z M111,37h9v1h-9z M129,37h8v1h-8z M145,36h23v2h-23z M217,37h7v1h-7z M250,37h18v1h-18z M26,38h9v1h-9z M61,38h11v1h-11z M111,38h10v1h-10z M146,38h21v1h-21z M180,38h4v1h-4z M216,38h8v1h-8z M230,36h7v3h-7z M252,38h16v1h-16z M27,39h8v1h-8z M44,38h8v2h-8z M62,39h8v1h-8z M90,38h7v2h-7z M112,39h9v1h-9z M147,39h20v1h-20z M179,39h6v1h-6z M215,39h10v1h-10z M231,39h5v1h-5z M254,39h14v1h-14z M27,40h9v1h-9z M45,40h7v1h-7z M62,40h5v1h-5z M91,40h4v1h-4z M113,40h9v1h-9z M129,38h7v3h-7z M163,40h2v1h-2z M213,40h11v1h-11z M232,40h4v1h-4z M255,40h13v1h-13z M28,41h9v1h-9z M46,41h5v1h-5z M114,41h8v1h-8z M177,40h9v2h-9z M194,41h3v1h-3z M243,41h1v1h-1z M257,41h5v1h-5z M29,42h8v1h-8z M48,42h2v1h-2z M115,42h7v1h-7z M129,41h6v2h-6z M176,42h10v1h-10z M194,42h5v1h-5z M212,41h10v2h-10z M242,42h4v1h-4z M258,42h2v1h-2z M29,43h9v1h-9z M131,43h3v1h-3z M174,43h12v1h-12z M211,43h9v1h-9z M240,43h6v1h-6z M116,43h6v2h-6z M153,44h3v1h-3z M173,44h11v1h-11z M210,44h10v1h-10z M238,44h8v1h-8z M30,44h9v2h-9z M117,45h3v1h-3z M152,45h6v1h-6z M171,45h12v1h-12z M209,45h9v1h-9z M237,45h9v1h-9z M31,46h9v1h-9z M75,46h8v1h-8z M151,46h7v1h-7z M170,46h12v1h-12z M193,43h7v4h-7z M207,46h10v1h-10z M236,46h10v1h-10z M21,47h1v1h-1z M31,47h4v1h-4z M36,47h5v1h-5z M74,47h18v1h-18z M105,47h1v1h-1z M136,47h1v1h-1z M151,47h8v1h-8z M169,47h11v1h-11z M192,47h8v1h-8z M206,47h10v1h-10z M234,47h12v1h-12z M264,41h4v7h-4z M20,48h4v1h-4z M32,48h10v1h-10z M57,48h6v1h-6z M74,48h19v1h-19z M134,48h5v1h-5z M150,48h8v1h-8z M167,48h12v1h-12z M206,48h9v1h-9z M19,49h5v1h-5z M32,49h9v1h-9z M56,49h7v1h-7z M104,48h5v2h-5z M130,49h9v1h-9z M149,49h8v1h-8z M166,49h12v1h-12z M232,48h12v2h-12z M263,48h5v2h-5z M18,50h7v1h-7z M33,50h8v1h-8z M56,50h8v1h-8z M128,50h11v1h-11z M149,50h7v1h-7z M166,50h11v1h-11z M206,49h8v2h-8z M230,50h12v1h-12z M17,51h8v1h-8z M33,51h7v1h-7z M74,49h20v3h-20z M103,50h7v2h-7z M126,51h14v1h-14z M148,51h8v1h-8z M166,51h10v1h-10z M192,48h7v4h-7z M206,51h7v1h-7z M229,51h12v1h-12z M253,51h3v1h-3z M34,52h4v1h-4z M75,52h19v1h-19z M125,52h14v1h-14z M167,52h8v1h-8z M192,52h6v1h-6z M207,52h5v1h-5z M228,52h12v1h-12z M251,52h6v1h-6z M16,52h9v2h-9z M36,53h1v1h-1z M80,53h4v1h-4z M85,53h8v1h-8z M102,52h8v2h-8z M121,53h17v1h-17z M148,52h7v2h-7z M168,53h5v1h-5z M209,53h1v1h-1z M227,53h12v1h-12z M251,53h7v1h-7z M15,54h10v1h-10z M101,54h8v1h-8z M120,54h17v1h-17z M147,54h8v1h-8z M191,53h7v2h-7z M226,54h11v1h-11z M250,54h8v1h-8z M14,55h10v1h-10z M100,55h9v1h-9z M118,55h17v1h-17z M147,55h7v1h-7z M227,55h8v1h-8z M250,55h9v1h-9z M264,50h4v6h-4z M13,56h10v1h-10z M116,56h18v1h-18z M227,56h7v1h-7z M13,57h9v1h-9z M100,56h8v2h-8z M115,57h16v1h-16z M146,56h8v2h-8z M176,57h3v1h-3z M190,55h8v3h-8z M228,57h5v1h-5z M251,56h8v2h-8z M264,56h3v2h-3z M0,36h4v23h-4z M12,58h10v1h-10z M56,51h7v8h-7z M99,58h9v1h-9z M116,58h12v1h-12z M175,58h5v1h-5z M228,58h3v1h-3z M252,58h7v1h-7z M11,59h10v1h-10z M98,59h9v1h-9z M116,59h11v1h-11z M145,58h8v2h-8z M174,59h7v1h-7z M215,59h1v1h-1z M252,59h8v1h-8z M264,58h4v2h-4z M0,59h5v2h-5z M10,60h10v1h-10z M81,60h3v1h-3z M117,60h8v1h-8z M145,60h7v1h-7z M190,58h7v3h-7z M213,60h5v1h-5z M10,61h9v1h-9z M41,61h6v1h-6z M81,61h5v1h-5z M98,60h8v2h-8z M118,61h4v1h-4z M144,61h8v1h-8z M173,60h9v2h-9z M190,61h6v1h-6z M212,61h9v1h-9z M253,60h7v2h-7z M9,62h10v1h-10z M38,62h10v1h-10z M79,62h7v1h-7z M120,62h1v1h-1z M144,62h7v1h-7z M174,62h8v1h-8z M191,62h3v1h-3z M212,62h12v1h-12z M264,60h3v3h-3z M9,63h9v1h-9z M33,63h15v1h-15z M78,63h8v1h-8z M97,62h8v2h-8z M145,63h6v1h-6z M175,63h8v1h-8z M212,63h15v1h-15z M254,62h7v2h-7z M264,63h4v1h-4z M10,64h7v1h-7z M31,64h17v1h-17z M77,64h10v1h-10z M146,64h4v1h-4z M161,64h4v1h-4z M176,64h8v1h-8z M212,64h16v1h-16z M255,64h7v1h-7z M263,64h5v1h-5z M11,65h5v1h-5z M26,65h23v1h-23z M55,59h8v7h-8z M75,65h11v1h-11z M96,64h8v2h-8z M148,65h1v1h-1z M212,65h19v1h-19z M244,65h2v1h-2z M255,65h13v1h-13z M13,66h2v1h-2z M25,66h23v1h-23z M73,66h12v1h-12z M158,65h8v2h-8z M177,65h8v2h-8z M213,66h19v1h-19z M243,66h4v1h-4z M24,67h23v1h-23z M55,66h7v2h-7z M72,67h12v1h-12z M96,66h7v2h-7z M132,67h3v1h-3z M178,67h8v1h-8z M202,67h3v1h-3z M215,67h18v1h-18z M256,66h11v2h-11z M24,68h22v1h-22z M56,68h6v1h-6z M71,68h12v1h-12z M97,68h5v1h-5z M131,68h5v1h-5z M157,67h9v2h-9z M179,68h9v1h-9z M200,68h6v1h-6z M218,68h15v1h-15z M242,67h6v2h-6z M257,68h5v1h-5z M263,68h4v1h-4z M0,61h4v9h-4z M24,69h19v1h-19z M56,69h5v1h-5z M70,69h11v1h-11z M129,69h7v1h-7z M180,69h9v1h-9z M222,69h10v1h-10z M258,69h3v1h-3z M25,70h14v1h-14z M57,70h3v1h-3z M69,70h11v1h-11z M118,70h1v1h-1z M181,70h8v1h-8z M224,70h7v1h-7z M1,70h3v2h-3z M25,71h9v1h-9z M68,71h11v1h-11z M114,71h6v1h-6z M129,70h8v2h-8z M162,69h4v3h-4z M182,71h8v1h-8z M199,69h8v3h-8z M241,69h7v3h-7z M27,72h4v1h-4z M67,72h10v1h-10z M130,72h8v1h-8z M157,69h3v4h-3z M162,72h3v1h-3z M183,72h7v1h-7z M240,72h8v1h-8z M1,72h4v2h-4z M67,73h9v1h-9z M89,73h3v1h-3z M184,73h5v1h-5z M240,73h7v1h-7z M67,74h8v1h-8z M87,74h6v1h-6z M130,73h9v2h-9z M185,74h2v1h-2z M239,74h8v1h-8z M67,75h6v1h-6z M87,75h7v1h-7z M114,72h7v4h-7z M131,75h9v1h-9z M200,72h8v4h-8z M67,76h5v1h-5z M86,76h8v1h-8z M132,76h9v1h-9z M239,75h7v2h-7z M0,74h5v4h-5z M12,77h3v1h-3z M70,77h1v1h-1z M86,77h9v1h-9z M133,77h9v1h-9z M238,77h8v1h-8z M10,78h6v1h-6z M36,78h4v1h-4z M87,78h9v1h-9z M113,76h8v3h-8z M134,78h8v1h-8z M201,76h7v3h-7z M238,78h7v1h-7z M0,78h4v2h-4z M36,79h6v1h-6z M87,79h10v1h-10z M135,79h8v1h-8z M157,73h8v7h-8z M185,79h3v1h-3z M201,79h8v1h-8z M221,79h3v1h-3z M237,79h8v1h-8z M9,79h8v2h-8z M35,80h8v1h-8z M88,80h10v1h-10z M184,80h6v1h-6z M201,80h9v1h-9z M221,80h4v1h-4z M237,80h7v1h-7z M9,81h9v1h-9z M34,81h9v1h-9z M50,81h3v1h-3z M75,81h6v1h-6z M89,81h10v1h-10z M136,80h8v2h-8z M183,81h7v1h-7z M220,81h6v1h-6z M236,81h8v1h-8z M0,80h5v3h-5z M49,82h5v1h-5z M90,82h9v1h-9z M181,82h9v1h-9z M219,82h8v1h-8z M264,69h4v14h-4z M10,82h8v2h-8z M34,82h8v2h-8z M48,83h7v1h-7z M74,82h8v2h-8z M137,82h7v2h-7z M180,83h10v1h-10z M202,81h8v3h-8z M218,83h9v1h-9z M255,83h3v1h-3z M47,84h8v1h-8z M91,83h9v2h-9z M138,84h5v1h-5z M157,80h7v5h-7z M178,84h12v1h-12z M218,84h8v1h-8z M236,82h7v3h-7z M254,84h5v1h-5z M0,83h4v3h-4z M10,84h9v2h-9z M33,84h8v2h-8z M73,84h8v2h-8z M93,85h3v1h-3z M97,85h5v1h-5z M138,85h4v1h-4z M158,85h5v1h-5z M177,85h12v1h-12z M203,84h7v2h-7z M217,85h8v1h-8z M236,85h6v1h-6z M251,85h8v1h-8z M33,86h7v1h-7z M47,85h9v2h-9z M93,86h9v1h-9z M113,79h7v8h-7z M176,86h12v1h-12z M203,86h6v1h-6z M216,86h9v1h-9z M237,86h5v1h-5z M250,86h9v1h-9z M11,86h9v2h-9z M32,87h8v1h-8z M73,86h7v2h-7z M174,87h14v1h-14z M239,87h1v1h-1z M248,87h11v1h-11z M264,83h3v5h-3z M12,88h9v1h-9z M32,88h7v1h-7z M48,87h9v2h-9z M72,88h7v1h-7z M94,87h8v2h-8z M173,88h14v1h-14z M216,87h8v2h-8z M244,88h15v1h-15z M13,89h9v1h-9z M31,89h8v1h-8z M49,89h9v1h-9z M95,89h6v1h-6z M171,89h14v1h-14z M215,89h8v1h-8z M243,89h15v1h-15z M13,90h10v1h-10z M50,90h9v1h-9z M71,89h8v2h-8z M96,90h4v1h-4z M113,87h6v4h-6z M171,90h13v1h-13z M239,90h17v1h-17z M51,91h9v1h-9z M71,91h7v1h-7z M98,91h1v1h-1z M113,91h5v1h-5z M127,91h1v1h-1z M170,91h12v1h-12z M214,90h8v2h-8z M238,91h17v1h-17z M14,91h9v2h-9z M30,90h8v3h-8z M51,92h10v1h-10z M125,92h5v1h-5z M171,92h9v1h-9z M190,92h5v1h-5z M237,92h15v1h-15z M1,86h3v8h-3z M15,93h7v1h-7z M52,93h10v1h-10z M70,92h8v2h-8z M124,93h7v1h-7z M171,93h8v1h-8z M189,93h7v1h-7z M213,92h8v2h-8z M237,93h13v1h-13z M264,88h4v6h-4z M15,94h6v1h-6z M29,93h9v2h-9z M53,94h9v1h-9z M70,94h7v1h-7z M123,94h8v1h-8z M147,94h4v1h-4z M172,94h5v1h-5z M189,94h8v1h-8z M238,94h10v1h-10z M263,94h5v1h-5z M16,95h4v1h-4z M28,95h9v1h-9z M69,95h8v1h-8z M121,95h10v1h-10z M146,95h5v1h-5z M189,95h9v1h-9z M212,94h8v2h-8z M239,95h7v1h-7z M257,95h2v1h-2z M54,95h9v2h-9z M120,96h11v1h-11z M146,96h6v1h-6z M189,96h4v1h-4z M194,96h5v1h-5z M227,96h3v1h-3z M239,96h4v1h-4z M256,96h5v1h-5z M55,97h8v1h-8z M69,96h7v2h-7z M119,97h11v1h-11z M145,97h7v1h-7z M189,97h5v1h-5z M195,97h5v1h-5z M213,96h6v2h-6z M225,97h6v1h-6z M256,97h6v1h-6z M28,96h8v3h-8z M56,98h6v1h-6z M118,98h11v1h-11z M162,98h2v1h-2z M190,98h12v1h-12z M213,98h5v1h-5z M224,98h7v1h-7z M255,98h7v1h-7z M29,99h6v1h-6z M56,99h5v1h-5z M116,99h12v1h-12z M144,98h8v2h-8z M160,99h5v1h-5z M191,99h11v1h-11z M215,99h1v1h-1z M223,99h8v1h-8z M254,99h8v1h-8z M0,94h5v7h-5z M30,100h4v1h-4z M69,98h6v3h-6z M84,100h7v1h-7z M115,100h12v1h-12z M144,100h7v1h-7z M160,100h6v1h-6z M192,100h11v1h-11z M253,100h9v1h-9z M70,101h4v1h-4z M81,101h19v1h-19z M114,101h12v1h-12z M159,101h8v1h-8z M193,101h11v1h-11z M223,100h9v2h-9z M253,101h8v1h-8z M80,102h21v1h-21z M112,102h12v1h-12z M143,101h8v2h-8z M194,102h11v1h-11z M224,102h9v1h-9z M252,102h8v1h-8z M111,103h12v1h-12z M160,102h8v2h-8z M195,103h11v1h-11z M251,103h9v1h-9z M21,104h4v1h-4z M110,104h12v1h-12z M142,103h8v2h-8z M161,104h8v1h-8z M184,104h5v1h-5z M196,104h11v1h-11z M225,103h9v2h-9z M251,104h8v1h-8z M20,105h6v1h-6z M80,103h22v3h-22z M109,105h12v1h-12z M141,105h9v1h-9z M161,105h9v1h-9z M184,105h6v1h-6z M197,105h10v1h-10z M226,105h9v1h-9z M18,106h9v1h-9z M67,106h2v1h-2z M81,106h20v1h-20z M109,106h10v1h-10z M141,106h7v1h-7z M162,106h8v1h-8z M198,106h8v1h-8z M226,106h10v1h-10z M250,105h8v2h-8z M17,107h10v1h-10z M65,107h5v1h-5z M86,107h5v1h-5z M93,107h7v1h-7z M110,107h8v1h-8z M163,107h8v1h-8z M200,107h5v1h-5z M216,107h2v1h-2z M228,107h9v1h-9z M249,107h8v1h-8z M15,108h13v1h-13z M62,108h8v1h-8z M110,108h7v1h-7z M140,107h8v2h-8z M183,106h7v3h-7z M201,108h3v1h-3z M228,108h10v1h-10z M14,109h13v1h-13z M60,109h11v1h-11z M112,109h3v1h-3z M140,109h7v1h-7z M164,108h8v2h-8z M182,109h8v1h-8z M229,109h9v1h-9z M248,108h8v2h-8z M12,110h7v1h-7z M20,110h7v1h-7z M58,110h13v1h-13z M165,110h8v1h-8z M230,110h8v1h-8z M247,110h8v1h-8z M10,111h16v1h-16z M35,111h5v1h-5z M56,111h15v1h-15z M165,111h9v1h-9z M182,110h7v2h-7z M215,108h6v4h-6z M230,111h9v1h-9z M247,111h7v1h-7z M264,95h4v17h-4z M9,112h16v1h-16z M34,112h6v1h-6z M54,112h16v1h-16z M123,112h5v1h-5z M140,110h6v3h-6z M231,112h8v1h-8z M246,112h7v1h-7z M7,113h17v1h-17z M33,113h7v1h-7z M52,113h16v1h-16z M78,113h3v1h-3z M122,113h6v1h-6z M141,113h4v1h-4z M166,112h8v2h-8z M214,112h7v2h-7z M232,113h6v1h-6z M264,112h3v2h-3z M7,114h7v1h-7z M15,114h7v1h-7z M32,114h8v1h-8z M50,114h16v1h-16z M77,114h5v1h-5z M96,114h2v1h-2z M121,114h8v1h-8z M142,114h2v1h-2z M167,114h7v1h-7z M181,112h7v3h-7z M233,114h4v1h-4z M247,113h5v2h-5z M7,115h12v1h-12z M49,115h14v1h-14z M77,115h6v1h-6z M95,115h4v1h-4z M120,115h9v1h-9z M168,115h5v1h-5z M180,115h8v1h-8z M213,114h8v2h-8z M7,116h11v1h-11z M32,115h9v2h-9z M49,116h12v1h-12z M93,116h7v1h-7z M169,116h2v1h-2z M8,117h8v1h-8z M48,117h11v1h-11z M75,116h8v2h-8z M93,117h8v1h-8z M153,117h5v1h-5z M202,117h3v1h-3z M9,118h6v1h-6z M33,117h9v2h-9z M49,118h9v1h-9z M74,118h8v1h-8z M120,116h8v3h-8z M151,118h7v1h-7z M201,118h5v1h-5z M213,116h7v3h-7z M247,118h3v1h-3z M10,119h3v1h-3z M49,119h7v1h-7z M73,119h9v1h-9z M93,118h9v2h-9z M149,119h9v1h-9z M180,116h7v4h-7z M199,119h7v1h-7z M244,119h8v1h-8z M34,119h8v2h-8z M50,120h5v1h-5z M73,120h8v1h-8z M94,120h9v1h-9z M120,119h7v2h-7z M146,120h12v1h-12z M197,120h9v1h-9z M212,119h8v2h-8z M242,120h11v1h-11z M51,121h2v1h-2z M72,121h9v1h-9z M95,121h9v1h-9z M119,121h8v1h-8z M144,121h14v1h-14z M180,120h6v2h-6z M195,121h11v1h-11z M240,121h13v1h-13z M35,121h8v2h-8z M72,122h8v1h-8z M96,122h10v1h-10z M142,122h15v1h-15z M181,122h4v1h-4z M194,122h12v1h-12z M238,122h15v1h-15z M71,123h8v1h-8z M97,123h9v1h-9z M119,122h7v2h-7z M140,123h15v1h-15z M192,123h13v1h-13z M234,123h18v1h-18z M36,123h8v2h-8z M97,124h10v1h-10z M138,124h16v1h-16z M191,124h12v1h-12z M212,121h7v4h-7z M232,124h19v1h-19z M36,125h9v1h-9z M70,124h8v2h-8z M97,125h11v1h-11z M137,125h15v1h-15z M190,125h12v1h-12z M232,125h17v1h-17z M99,126h10v1h-10z M118,124h8v3h-8z M136,126h14v1h-14z M188,126h12v1h-12z M232,126h15v1h-15z M37,126h9v2h-9z M69,126h8v2h-8z M100,127h9v1h-9z M117,127h9v1h-9z M136,127h12v1h-12z M186,127h13v1h-13z M212,125h6v3h-6z M232,127h11v1h-11z M38,128h8v1h-8z M69,128h7v1h-7z M100,128h10v1h-10z M137,128h9v1h-9z M185,128h12v1h-12z M214,128h2v1h-2z M232,128h8v1h-8z M38,129h7v1h-7z M101,129h8v1h-8z M137,129h6v1h-6z M184,129h11v1h-11z M232,129h6v1h-6z M38,130h6v1h-6z M102,130h6v1h-6z M140,130h1v1h-1z M184,130h10v1h-10z M264,114h4v17h-4z M1,101h4v31h-4z M39,131h3v1h-3z M68,129h7v3h-7z M117,128h8v4h-8z M185,131h7v1h-7z M264,131h3v1h-3z M1,132h19v1h-19z M22,132h12v1h-12z M35,132h10v1h-10z M47,132h2v1h-2z M50,132h8v1h-8z M61,132h1v1h-1z M65,132h10v1h-10z M77,132h2v1h-2z M81,132h2v1h-2z M103,131h5v2h-5z M118,132h7v1h-7z M185,132h6v1h-6z M263,132h5v1h-5z M1,133h204v1h-204z M208,133h20v1h-20z M230,133h38v1h-38z M1,134h266v1h-266z M2,135h265v1h-265z M3,136h11v1h-11z M18,136h2v1h-2z M24,136h3v1h-3z M33,136h233v1h-233z M108,137h2v1h-2z M182,137h4v1h-4z M210,137h10v1h-10z M221,137h5v1h-5z M232,137h15v1h-15z M249,137h16v1h-16z
  "/>
</svg>