<?xml version="1.0" encoding="UTF-8"?>
<svg xmlns="http://www.w3.org/2000/svg" viewBox="0 0 266 138" width="266" height="138">
  <title>43 Metamorphism</title>
  <path fill="#111111" fill-rule="nonzero" d="
    M77,0h4v1h-4z M1,1h263v1h-263z M0,2h265v1h-265z M0,3h266v2h-266z M0,5h7v1h-7z M18,5h1v1h-1z M31,5h3v1h-3z M221,5h2v1h-2z M260,5h6v1h-6z M261,6h5v1h-5z M67,7h2v1h-2z M183,5h3v3h-3z M221,6h3v2h-3z M0,6h4v3h-4z M67,8h3v1h-3z M0,9h5v1h-5z M66,9h4v1h-4z M87,9h3v1h-3z M112,9h1v1h-1z M143,9h3v1h-3z M221,8h4v2h-4z M9,10h4v1h-4z M36,10h3v1h-3z M66,10h5v1h-5z M86,10h6v1h-6z M110,10h3v1h-3z M199,10h12v1h-12z M222,10h2v1h-2z M235,8h3v3h-3z M35,11h5v1h-5z M86,11h9v1h-9z M143,10h5v2h-5z M168,10h3v2h-3z M183,8h4v4h-4z M198,11h14v1h-14z M9,11h5v2h-5z M35,12h4v1h-4z M87,12h10v1h-10z M167,12h4v1h-4z M198,12h15v1h-15z M234,11h4v2h-4z M10,13h5v1h-5z M34,13h5v1h-5z M67,11h4v3h-4z M89,13h10v1h-10z M144,12h5v2h-5z M166,13h5v1h-5z M199,13h13v1h-13z M233,13h5v1h-5z M247,13h2v1h-2z M0,10h4v5h-4z M10,14h6v1h-6z M47,14h1v1h-1z M91,14h8v1h-8z M145,14h5v1h-5z M166,14h4v1h-4z M246,14h5v1h-5z M11,15h5v1h-5z M33,14h5v2h-5z M47,15h2v1h-2z M94,15h5v1h-5z M146,15h5v1h-5z M165,15h5v1h-5z M246,15h8v1h-8z M12,16h5v1h-5z M32,16h5v1h-5z M46,16h5v1h-5z M68,14h4v3h-4z M110,11h4v6h-4z M132,16h3v1h-3z M165,16h3v1h-3z M248,16h7v1h-7z M12,17h6v1h-6z M31,17h5v1h-5z M46,17h6v1h-6z M68,17h5v1h-5z M109,17h5v1h-5z M131,17h4v1h-4z M147,16h5v2h-5z M164,17h4v1h-4z M184,12h4v6h-4z M233,14h4v4h-4z M248,17h10v1h-10z M13,18h5v1h-5z M31,18h4v1h-4z M47,18h6v1h-6z M128,18h7v1h-7z M148,18h4v1h-4z M163,18h5v1h-5z M185,18h3v1h-3z M251,18h8v1h-8z M14,19h4v1h-4z M30,19h5v1h-5z M48,19h8v1h-8z M69,18h4v2h-4z M127,19h8v1h-8z M149,19h3v1h-3z M186,19h1v1h-1z M253,19h6v1h-6z M14,20h5v1h-5z M30,20h4v1h-4z M50,20h8v1h-8z M126,20h7v1h-7z M162,19h5v2h-5z M255,20h3v1h-3z M29,21h5v1h-5z M51,21h8v1h-8z M69,20h5v2h-5z M109,18h4v4h-4z M125,21h7v1h-7z M162,21h4v1h-4z M232,18h4v4h-4z M15,21h4v2h-4z M29,22h4v1h-4z M53,22h7v1h-7z M69,22h4v1h-4z M124,22h5v1h-5z M218,22h3v1h-3z M232,22h3v1h-3z M16,23h3v1h-3z M29,23h3v1h-3z M54,23h6v1h-6z M70,23h3v1h-3z M110,22h3v2h-3z M218,23h4v1h-4z M56,24h4v1h-4z M123,23h5v2h-5z M205,24h2v1h-2z M218,24h5v1h-5z M57,25h2v1h-2z M124,25h3v1h-3z M178,25h4v1h-4z M203,25h5v1h-5z M218,25h6v1h-6z M0,15h5v12h-5z M90,26h2v1h-2z M178,26h5v1h-5z M202,26h6v1h-6z M219,26h6v1h-6z M87,27h5v1h-5z M179,27h5v1h-5z M201,27h6v1h-6z M220,27h6v1h-6z M85,28h7v1h-7z M179,28h7v1h-7z M201,28h4v1h-4z M221,28h6v1h-6z M0,27h4v3h-4z M84,29h7v1h-7z M141,29h1v1h-1z M180,29h7v1h-7z M200,29h4v1h-4z M222,29h6v1h-6z M243,29h2v1h-2z M81,30h9v1h-9z M182,30h7v1h-7z M199,30h4v1h-4z M224,30h4v1h-4z M80,31h8v1h-8z M183,31h6v1h-6z M197,31h6v1h-6z M225,31h3v1h-3z M79,32h7v1h-7z M166,32h2v1h-2z M185,32h4v1h-4z M0,30h5v4h-5z M36,33h2v1h-2z M79,33h5v1h-5z M140,30h3v4h-3z M164,33h4v1h-4z M186,33h3v1h-3z M197,32h5v2h-5z M16,34h2v1h-2z M20,34h3v1h-3z M79,34h4v1h-4z M119,34h1v1h-1z M162,34h6v1h-6z M198,34h2v1h-2z M9,35h15v1h-15z M56,35h1v1h-1z M118,35h3v1h-3z M160,35h8v1h-8z M100,35h3v2h-3z M117,36h5v1h-5z M158,36h9v1h-9z M242,30h4v7h-4z M8,36h16v2h-16z M117,37h6v1h-6z M155,37h11v1h-11z M242,37h5v1h-5z M261,7h4v31h-4z M0,34h4v5h-4z M9,38h14v1h-14z M49,36h17v3h-17z M118,38h6v1h-6z M154,38h9v1h-9z M50,39h15v1h-15z M118,39h7v1h-7z M139,34h4v6h-4z M154,39h6v1h-6z M161,39h2v1h-2z M176,39h2v1h-2z M261,38h5v2h-5z M35,34h4v7h-4z M120,40h7v1h-7z M154,40h5v1h-5z M175,40h3v1h-3z M231,40h4v1h-4z M121,41h6v1h-6z M156,41h1v1h-1z M228,41h8v1h-8z M243,38h4v4h-4z M72,42h2v1h-2z M100,37h4v6h-4z M122,42h6v1h-6z M138,40h4v3h-4z M225,42h11v1h-11z M243,42h3v1h-3z M101,43h3v1h-3z M123,43h6v1h-6z M139,43h2v1h-2z M209,38h4v6h-4z M224,43h11v1h-11z M71,43h4v2h-4z M210,44h3v1h-3z M223,44h9v1h-9z M101,44h4v2h-4z M125,44h4v2h-4z M175,41h4v5h-4z M189,45h11v1h-11z M222,45h7v1h-7z M256,45h2v1h-2z M261,40h4v6h-4z M36,41h4v6h-4z M70,45h4v2h-4z M101,46h5v1h-5z M174,46h5v1h-5z M223,46h4v1h-4z M255,46h4v1h-4z M36,47h5v1h-5z M69,47h5v1h-5z M187,46h14v2h-14z M254,47h6v1h-6z M261,46h5v2h-5z M69,48h4v1h-4z M102,47h3v2h-3z M188,48h12v1h-12z M19,49h2v1h-2z M37,48h4v2h-4z M84,49h3v1h-3z M103,49h1v1h-1z M174,47h4v3h-4z M190,49h2v1h-2z M253,48h5v2h-5z M18,50h5v1h-5z M37,50h3v1h-3z M83,50h5v1h-5z M252,50h5v1h-5z M51,50h4v2h-4z M68,49h4v3h-4z M84,51h6v1h-6z M144,51h4v1h-4z M173,50h5v2h-5z M210,45h4v7h-4z M251,51h5v1h-5z M18,51h6v2h-6z M50,52h5v1h-5z M67,52h4v1h-4z M85,52h6v1h-6z M141,52h7v1h-7z M156,52h2v1h-2z M174,52h3v1h-3z M211,52h2v1h-2z M250,52h5v1h-5z M19,53h7v1h-7z M49,53h5v1h-5z M66,53h5v1h-5z M86,53h6v1h-6z M139,53h9v1h-9z M155,53h3v1h-3z M175,53h1v1h-1z M249,53h6v1h-6z M20,54h7v1h-7z M48,54h5v1h-5z M66,54h4v1h-4z M87,54h6v1h-6z M137,54h10v1h-10z M248,54h5v1h-5z M22,55h6v1h-6z M47,55h6v1h-6z M65,55h5v1h-5z M88,55h6v1h-6z M136,55h9v1h-9z M155,54h4v2h-4z M247,55h5v1h-5z M23,56h6v1h-6z M47,56h5v1h-5z M65,56h4v1h-4z M89,56h6v1h-6z M133,56h11v1h-11z M223,56h1v1h-1z M248,56h2v1h-2z M24,57h6v1h-6z M46,57h5v1h-5z M67,57h2v1h-2z M90,57h6v1h-6z M115,57h1v1h-1z M117,57h3v1h-3z M133,57h7v1h-7z M155,56h3v2h-3z M222,57h3v1h-3z M0,39h5v20h-5z M25,58h6v1h-6z M46,58h4v1h-4z M78,58h3v1h-3z M91,58h5v1h-5z M107,58h13v1h-13z M133,58h5v1h-5z M212,58h2v1h-2z M222,58h4v1h-4z M26,59h5v1h-5z M45,59h4v1h-4z M92,59h4v1h-4z M136,59h1v1h-1z M210,59h4v1h-4z M235,59h3v1h-3z M28,60h2v1h-2z M44,60h4v1h-4z M106,59h15v2h-15z M192,58h3v3h-3z M234,60h4v1h-4z M12,61h3v1h-3z M43,61h5v1h-5z M106,61h12v1h-12z M154,58h4v4h-4z M209,60h5v2h-5z M234,61h5v1h-5z M1,59h4v4h-4z M12,62h4v1h-4z M43,62h4v1h-4z M78,59h4v4h-4z M168,62h3v1h-3z M191,61h4v2h-4z M207,62h6v1h-6z M221,59h5v4h-5z M11,63h5v1h-5z M42,63h5v1h-5z M167,63h7v1h-7z M207,63h5v1h-5z M235,62h4v2h-4z M43,64h3v1h-3z M79,63h3v2h-3z M153,62h5v3h-5z M167,64h9v1h-9z M190,63h4v2h-4z M206,64h5v1h-5z M235,64h5v1h-5z M11,64h4v2h-4z M59,65h2v1h-2z M78,65h5v1h-5z M168,65h10v1h-10z M189,65h5v1h-5z M205,65h5v1h-5z M236,65h4v1h-4z M10,66h5v1h-5z M58,66h4v1h-4z M169,66h10v1h-10z M189,66h4v1h-4z M204,66h5v1h-5z M221,63h4v4h-4z M236,66h5v1h-5z M249,66h8v1h-8z M258,66h1v1h-1z M261,48h4v19h-4z M10,67h4v1h-4z M59,67h5v1h-5z M153,65h4v3h-4z M171,67h9v1h-9z M188,67h5v1h-5z M203,67h5v1h-5z M9,68h5v1h-5z M59,68h7v1h-7z M154,68h2v1h-2z M174,68h5v1h-5z M202,68h5v1h-5z M220,67h5v2h-5z M237,67h5v2h-5z M249,67h16v2h-16z M59,69h8v1h-8z M79,66h4v4h-4z M141,69h1v1h-1z M188,68h4v2h-4z M202,69h4v1h-4z M238,69h4v1h-4z M250,69h15v1h-15z M9,69h4v2h-4z M62,70h7v1h-7z M79,70h5v1h-5z M99,70h2v1h-2z M124,70h3v1h-3z M140,70h4v1h-4z M188,70h3v1h-3z M204,70h1v1h-1z M220,69h4v2h-4z M239,70h3v1h-3z M258,70h2v1h-2z M64,71h7v1h-7z M139,71h6v1h-6z M221,71h3v1h-3z M240,71h2v1h-2z M22,72h15v1h-15z M64,72h8v1h-8z M80,71h3v2h-3z M96,71h5v2h-5z M124,71h4v2h-4z M139,72h8v1h-8z M222,72h1v1h-1z M240,72h1v1h-1z M66,73h7v1h-7z M95,73h6v1h-6z M140,73h10v1h-10z M8,71h4v4h-4z M67,74h6v1h-6z M93,74h7v1h-7z M109,74h3v1h-3z M124,73h5v2h-5z M141,74h10v1h-10z M9,75h2v1h-2z M21,73h16v3h-16z M69,75h3v1h-3z M91,75h7v1h-7z M109,75h4v1h-4z M125,75h4v1h-4z M144,75h7v1h-7z M25,76h7v1h-7z M34,76h1v1h-1z M51,76h1v1h-1z M70,76h2v1h-2z M91,76h6v1h-6z M146,76h5v1h-5z M90,77h6v1h-6z M108,76h5v2h-5z M0,63h5v16h-5z M50,77h3v2h-3z M89,78h6v1h-6z M125,76h5v3h-5z M161,78h3v1h-3z M50,79h4v1h-4z M88,79h6v1h-6z M245,79h3v1h-3z M49,80h5v1h-5z M88,80h5v1h-5z M176,80h2v1h-2z M50,81h3v1h-3z M88,81h4v1h-4z M175,81h7v1h-7z M222,81h6v1h-6z M244,80h4v2h-4z M175,82h12v1h-12z M218,82h12v1h-12z M243,82h5v1h-5z M261,70h4v13h-4z M126,79h5v5h-5z M161,79h4v5h-4z M176,83h12v1h-12z M200,82h3v2h-3z M242,83h5v1h-5z M127,84h4v1h-4z M161,84h5v1h-5z M177,84h12v1h-12z M217,83h14v2h-14z M242,84h4v1h-4z M108,78h4v8h-4z M128,85h2v1h-2z M181,85h8v1h-8z M200,84h4v2h-4z M217,85h9v1h-9z M228,85h2v1h-2z M32,86h2v1h-2z M107,86h5v1h-5z M241,85h4v2h-4z M261,83h5v4h-5z M30,87h5v1h-5z M74,87h4v1h-4z M108,87h4v1h-4z M240,87h4v1h-4z M66,88h13v1h-13z M149,88h4v1h-4z M162,85h4v4h-4z M201,86h4v3h-4z M239,88h5v1h-5z M9,89h4v1h-4z M30,88h6v2h-6z M49,82h5v8h-5z M64,89h15v1h-15z M91,89h1v1h-1z M108,88h3v2h-3z M148,89h6v1h-6z M201,89h5v1h-5z M9,90h6v1h-6z M31,90h6v1h-6z M49,90h4v1h-4z M63,90h16v1h-16z M90,90h4v1h-4z M109,90h1v1h-1z M147,90h6v1h-6z M162,89h5v2h-5z M202,90h4v1h-4z M239,89h4v2h-4z M250,89h4v2h-4z M9,91h10v1h-10z M33,91h5v1h-5z M50,91h3v1h-3z M63,91h15v1h-15z M89,91h6v1h-6z M144,91h8v1h-8z M203,91h4v1h-4z M240,91h2v1h-2z M250,91h5v1h-5z M10,92h11v1h-11z M33,92h6v1h-6z M51,92h1v1h-1z M64,92h7v1h-7z M90,92h6v1h-6z M142,92h9v1h-9z M251,92h5v1h-5z M12,93h11v1h-11z M35,93h5v1h-5z M91,93h6v1h-6z M141,93h8v1h-8z M163,91h4v3h-4z M203,92h5v2h-5z M252,93h5v1h-5z M14,94h10v1h-10z M35,94h6v1h-6z M92,94h6v1h-6z M141,94h7v1h-7z M164,94h2v1h-2z M204,94h3v1h-3z M253,94h4v1h-4z M1,79h4v17h-4z M17,95h7v1h-7z M93,95h6v1h-6z M120,95h3v1h-3z M141,95h5v1h-5z M205,95h2v1h-2z M253,95h5v1h-5z M20,96h4v1h-4z M37,95h5v2h-5z M94,96h6v1h-6z M119,96h5v1h-5z M142,96h2v1h-2z M221,96h3v1h-3z M254,96h5v1h-5z M261,87h4v10h-4z M0,96h5v2h-5z M38,97h5v1h-5z M95,97h7v1h-7z M119,97h6v1h-6z M185,97h4v1h-4z M254,97h11v1h-11z M39,98h4v1h-4z M96,98h6v1h-6z M120,98h7v1h-7z M184,98h5v1h-5z M221,97h4v2h-4z M40,99h3v1h-3z M98,99h4v1h-4z M121,99h7v1h-7z M181,99h7v1h-7z M221,99h3v1h-3z M256,98h9v2h-9z M99,100h2v1h-2z M123,100h7v1h-7z M176,100h11v1h-11z M257,100h1v1h-1z M124,101h7v1h-7z M175,101h10v1h-10z M240,101h4v1h-4z M1,98h4v5h-4z M53,102h2v1h-2z M125,102h7v1h-7z M175,102h9v1h-9z M220,100h4v3h-4z M236,102h9v1h-9z M52,103h4v1h-4z M65,103h1v1h-1z M85,103h1v1h-1z M126,103h6v1h-6z M175,103h7v1h-7z M219,103h5v1h-5z M233,103h12v1h-12z M0,103h5v2h-5z M52,104h3v1h-3z M64,104h4v1h-4z M128,104h4v1h-4z M155,104h3v1h-3z M219,104h4v1h-4z M232,104h12v1h-12z M28,105h2v1h-2z M51,105h4v1h-4z M64,105h5v1h-5z M84,104h3v2h-3z M129,105h1v1h-1z M154,105h5v1h-5z M197,105h5v1h-5z M232,105h8v1h-8z M27,106h4v1h-4z M50,106h5v1h-5z M65,106h4v1h-4z M155,106h6v1h-6z M197,106h7v1h-7z M218,105h5v2h-5z M233,106h4v1h-4z M65,107h6v1h-6z M155,107h7v1h-7z M197,107h10v1h-10z M26,107h5v2h-5z M49,107h5v2h-5z M66,108h6v1h-6z M105,108h5v1h-5z M156,108h8v1h-8z M198,108h10v1h-10z M26,109h4v1h-4z M49,109h4v1h-4z M67,109h6v1h-6z M83,106h4v4h-4z M104,109h7v1h-7z M141,109h2v1h-2z M158,109h7v1h-7z M200,109h8v1h-8z M218,107h4v3h-4z M9,110h3v1h-3z M25,110h5v1h-5z M48,110h5v1h-5z M68,110h6v1h-6z M83,110h5v1h-5z M102,110h8v1h-8z M140,110h4v1h-4z M159,110h8v1h-8z M203,110h5v1h-5z M219,110h2v1h-2z M48,111h4v1h-4z M69,111h5v1h-5z M101,111h8v1h-8z M139,111h5v1h-5z M160,111h7v1h-7z M254,111h2v1h-2z M25,111h4v2h-4z M47,112h4v1h-4z M69,112h6v1h-6z M99,112h9v1h-9z M138,112h5v1h-5z M162,112h5v1h-5z M253,112h3v1h-3z M70,113h5v1h-5z M97,113h9v1h-9z M137,113h6v1h-6z M163,113h3v1h-3z M251,113h5v1h-5z M8,111h4v4h-4z M24,113h5v2h-5z M46,113h5v2h-5z M71,114h4v1h-4z M96,114h8v1h-8z M137,114h5v1h-5z M250,114h6v1h-6z M24,115h4v1h-4z M46,115h4v1h-4z M72,115h3v1h-3z M96,115h7v1h-7z M119,115h2v1h-2z M137,115h4v1h-4z M179,115h3v1h-3z M190,115h2v1h-2z M249,115h6v1h-6z M8,115h5v2h-5z M23,116h4v1h-4z M47,116h2v1h-2z M97,116h4v1h-4z M136,116h5v1h-5z M178,116h5v1h-5z M189,116h3v1h-3z M248,116h6v1h-6z M9,117h4v1h-4z M84,111h4v7h-4z M118,116h4v2h-4z M135,117h5v1h-5z M177,117h6v1h-6z M188,117h5v1h-5z M229,117h3v1h-3z M248,117h4v1h-4z M9,118h5v1h-5z M24,117h3v2h-3z M84,118h3v1h-3z M118,118h5v1h-5z M135,118h4v1h-4z M176,118h6v1h-6z M229,118h4v1h-4z M245,118h7v1h-7z M25,119h1v1h-1z M175,119h6v1h-6z M189,118h4v2h-4z M245,119h6v1h-6z M37,120h1v1h-1z M134,119h5v2h-5z M174,120h6v1h-6z M189,120h3v1h-3z M229,119h5v2h-5z M244,120h6v1h-6z M36,121h4v1h-4z M135,121h3v1h-3z M152,121h2v1h-2z M173,121h6v1h-6z M230,121h4v1h-4z M244,121h5v1h-5z M10,119h4v4h-4z M119,119h4v4h-4z M152,122h3v1h-3z M172,122h6v1h-6z M218,122h2v1h-2z M230,122h5v1h-5z M36,122h6v2h-6z M96,123h4v1h-4z M171,123h6v1h-6z M213,123h8v1h-8z M231,123h4v1h-4z M37,124h6v1h-6z M64,124h8v1h-8z M96,124h6v1h-6z M120,123h4v2h-4z M152,123h4v2h-4z M170,124h6v1h-6z M207,124h14v1h-14z M231,124h5v1h-5z M38,125h7v1h-7z M63,125h14v1h-14z M96,125h7v1h-7z M152,125h5v1h-5z M170,125h4v1h-4z M205,125h16v1h-16z M11,123h4v4h-4z M39,126h7v1h-7z M63,126h15v1h-15z M96,126h9v1h-9z M120,125h5v2h-5z M170,126h2v1h-2z M205,126h14v1h-14z M232,125h4v2h-4z M1,105h4v23h-4z M12,127h3v1h-3z M40,127h8v1h-8z M64,127h14v1h-14z M98,127h9v1h-9z M153,126h5v2h-5z M205,127h7v1h-7z M232,127h5v1h-5z M1,128h5v1h-5z M42,128h6v1h-6z M67,128h10v1h-10z M100,128h8v1h-8z M121,127h4v2h-4z M154,128h4v1h-4z M188,121h4v8h-4z M207,128h2v1h-2z M233,128h4v1h-4z M43,129h6v1h-6z M101,129h7v1h-7z M122,129h2v1h-2z M154,129h5v1h-5z M234,129h2v1h-2z M44,130h5v1h-5z M103,130h6v1h-6z M261,100h4v31h-4z M0,129h5v3h-5z M105,131h3v1h-3z M155,130h4v2h-4z M261,131h5v1h-5z M1,132h4v1h-4z M156,132h3v1h-3z M261,132h4v1h-4z M1,133h6v1h-6z M34,133h1v1h-1z M39,133h1v1h-1z M44,133h4v1h-4z M49,133h1v1h-1z M54,133h2v1h-2z M58,133h11v1h-11z M72,133h15v1h-15z M97,133h3v1h-3z M104,133h7v1h-7z M112,133h60v1h-60z M176,133h16v1h-16z M199,133h6v1h-6z M208,133h40v1h-40z M249,133h17v1h-17z M1,134h264v1h-264z M2,135h263v1h-263z M2,136h262v1h-262z M3,137h204v1h-204z M208,137h40v1h-40z M249,137h14v1h-14z
  "/>
</svg>