<?xml version="1.0" encoding="UTF-8"?>
<svg xmlns="http://www.w3.org/2000/svg" viewBox="0 0 267 138" width="267" height="138">
  <title>21 Crystalline limestone</title>
  <path fill="#111111" fill-rule="nonzero" d="
    M2,1h133v1h-133z M137,1h18v1h-18z M1,2h252v1h-252z M254,2h10v1h-10z M1,3h265v2h-265z M57,5h6v1h-6z M80,5h1v1h-1z M103,5h1v1h-1z M106,5h1v1h-1z M108,5h6v1h-6z M118,5h3v1h-3z M122,5h10v1h-10z M135,5h15v1h-15z M151,5h1v1h-1z M153,5h6v1h-6z M161,5h3v1h-3z M165,5h24v1h-24z M190,5h76v1h-76z M136,6h5v1h-5z M210,6h2v1h-2z M215,6h5v1h-5z M247,6h4v1h-4z M258,6h8v1h-8z M95,7h2v1h-2z M209,7h3v1h-3z M262,7h5v1h-5z M29,8h2v1h-2z M77,8h2v1h-2z M95,8h3v1h-3z M11,9h3v1h-3z M75,9h4v1h-4z M95,9h4v1h-4z M154,9h1v1h-1z M208,8h4v2h-4z M263,8h4v2h-4z M74,10h5v1h-5z M96,10h3v1h-3z M207,10h4v1h-4z M253,10h2v1h-2z M10,10h5v2h-5z M22,9h10v3h-10z M45,11h2v1h-2z M73,11h6v1h-6z M96,11h4v1h-4z M152,10h4v2h-4z M187,11h2v1h-2z M206,11h5v1h-5z M228,11h3v1h-3z M262,10h5v2h-5z M11,12h5v1h-5z M26,12h6v1h-6z M43,12h4v1h-4z M73,12h5v1h-5z M96,12h5v1h-5z M116,12h3v1h-3z M205,12h5v1h-5z M252,11h4v2h-4z M12,13h5v1h-5z M41,13h6v1h-6z M73,13h4v1h-4z M115,13h5v1h-5z M151,12h4v2h-4z M166,13h8v1h-8z M187,12h3v2h-3z M204,13h5v1h-5z M228,12h4v2h-4z M251,13h4v1h-4z M262,12h4v2h-4z M40,14h6v1h-6z M72,14h5v1h-5z M113,14h6v1h-6z M128,13h4v2h-4z M165,14h10v1h-10z M204,14h4v1h-4z M229,14h4v1h-4z M250,14h4v1h-4z M13,14h5v2h-5z M38,15h7v1h-7z M72,15h4v1h-4z M97,13h4v3h-4z M112,15h7v1h-7z M129,15h4v1h-4z M150,14h4v2h-4z M165,15h11v1h-11z M187,14h4v2h-4z M204,15h3v1h-3z M229,15h5v1h-5z M249,15h5v1h-5z M14,16h4v1h-4z M37,16h6v1h-6z M71,16h5v1h-5z M99,16h2v1h-2z M110,16h8v1h-8z M129,16h6v1h-6z M137,7h3v10h-3z M166,16h9v1h-9z M204,16h2v1h-2z M230,16h4v1h-4z M249,16h4v1h-4z M15,17h3v1h-3z M37,17h5v1h-5z M89,17h4v1h-4z M109,17h7v1h-7z M131,17h4v1h-4z M136,17h4v1h-4z M149,16h4v2h-4z M188,16h4v2h-4z M249,17h3v1h-3z M262,14h5v4h-5z M37,18h4v1h-4z M71,17h4v2h-4z M83,18h10v1h-10z M109,18h6v1h-6z M131,18h9v1h-9z M148,18h4v1h-4z M231,17h4v2h-4z M249,18h2v1h-2z M37,19h2v1h-2z M81,19h12v1h-12z M109,19h4v1h-4z M132,19h3v1h-3z M149,19h3v1h-3z M231,19h5v1h-5z M58,6h4v15h-4z M81,20h11v1h-11z M110,20h1v1h-1z M136,19h4v2h-4z M150,20h1v1h-1z M189,18h3v3h-3z M232,20h3v1h-3z M263,18h4v3h-4z M1,5h4v17h-4z M57,21h5v1h-5z M82,21h7v1h-7z M1,22h5v1h-5z M28,22h6v1h-6z M54,22h9v1h-9z M65,22h3v1h-3z M74,22h1v1h-1z M76,22h1v1h-1z M81,22h11v1h-11z M103,22h1v1h-1z M136,21h5v2h-5z M216,7h4v16h-4z M1,23h177v1h-177z M179,23h5v1h-5z M187,23h4v1h-4z M192,23h7v1h-7z M202,23h1v1h-1z M214,23h12v1h-12z M262,21h5v3h-5z M1,24h266v2h-266z M8,26h2v1h-2z M18,26h2v1h-2z M21,26h8v1h-8z M33,26h1v1h-1z M48,26h5v1h-5z M56,26h1v1h-1z M64,26h7v1h-7z M74,26h8v1h-8z M83,26h11v1h-11z M96,26h171v1h-171z M22,27h5v1h-5z M175,27h5v1h-5z M193,27h2v1h-2z M216,27h4v1h-4z M222,27h5v1h-5z M229,27h38v1h-38z M261,28h6v1h-6z M37,29h2v1h-2z M63,29h2v1h-2z M90,29h2v1h-2z M137,29h2v1h-2z M10,30h2v1h-2z M22,28h4v3h-4z M36,30h3v1h-3z M61,30h4v1h-4z M88,30h5v1h-5z M97,27h4v4h-4z M137,30h3v1h-3z M9,31h3v1h-3z M35,31h4v1h-4z M60,31h5v1h-5z M87,31h6v1h-6z M96,31h5v1h-5z M114,31h2v1h-2z M127,31h1v1h-1z M137,31h4v1h-4z M158,30h3v2h-3z M186,31h2v1h-2z M207,31h2v1h-2z M242,31h3v1h-3z M8,32h5v1h-5z M34,32h4v1h-4z M59,32h5v1h-5z M87,32h5v1h-5z M111,32h7v1h-7z M126,32h3v1h-3z M137,32h6v1h-6z M157,32h4v1h-4z M206,32h3v1h-3z M240,32h6v1h-6z M1,26h4v8h-4z M7,33h5v1h-5z M23,31h3v3h-3z M33,33h5v1h-5z M45,33h1v1h-1z M57,33h7v1h-7z M72,32h3v2h-3z M86,33h5v1h-5z M107,33h11v1h-11z M125,33h4v1h-4z M138,33h6v1h-6z M156,33h5v1h-5z M186,32h3v2h-3z M205,33h4v1h-4z M219,33h1v1h-1z M235,33h11v1h-11z M1,34h10v1h-10z M32,34h5v1h-5z M44,34h3v1h-3z M56,34h6v1h-6z M85,34h5v1h-5z M106,34h11v1h-11z M124,34h4v1h-4z M139,34h5v1h-5z M156,34h4v1h-4z M186,34h4v1h-4z M204,34h5v1h-5z M219,34h3v1h-3z M234,34h10v1h-10z M31,35h5v1h-5z M43,35h5v1h-5z M56,35h5v1h-5z M84,35h5v1h-5z M106,35h9v1h-9z M140,35h5v1h-5z M155,35h4v1h-4z M186,35h5v1h-5z M219,35h4v1h-4z M234,35h6v1h-6z M256,35h3v1h-3z M1,35h9v2h-9z M44,36h5v1h-5z M58,36h1v1h-1z M83,36h5v1h-5z M123,35h5v2h-5z M142,36h2v1h-2z M154,36h5v1h-5z M165,36h1v1h-1z M176,28h3v9h-3z M187,36h4v1h-4z M203,35h5v2h-5z M219,36h5v1h-5z M235,36h4v1h-4z M255,36h4v1h-4z M1,37h8v1h-8z M31,36h4v2h-4z M45,37h5v1h-5z M72,34h4v4h-4z M153,37h5v1h-5z M163,37h5v1h-5z M187,37h5v1h-5z M202,37h5v1h-5z M220,37h6v1h-6z M13,38h3v1h-3z M46,38h5v1h-5z M83,37h4v2h-4z M122,37h5v2h-5z M152,38h5v1h-5z M163,38h6v1h-6z M175,37h4v2h-4z M188,38h4v1h-4z M201,38h5v1h-5z M221,38h5v1h-5z M254,37h4v2h-4z M1,38h6v2h-6z M13,39h4v1h-4z M47,39h4v1h-4z M121,39h5v1h-5z M152,39h4v1h-4z M164,39h7v1h-7z M189,39h3v1h-3z M201,39h4v1h-4z M222,39h6v1h-6z M253,39h5v1h-5z M13,40h5v1h-5z M22,34h4v7h-4z M48,40h4v1h-4z M121,40h4v1h-4z M166,40h7v1h-7z M176,39h3v2h-3z M202,40h3v1h-3z M223,40h5v1h-5z M252,40h5v1h-5z M1,40h4v2h-4z M14,41h4v1h-4z M22,41h5v1h-5z M121,41h3v1h-3z M151,40h4v2h-4z M168,41h5v1h-5z M224,41h4v1h-4z M252,41h4v1h-4z M1,42h5v1h-5z M13,42h6v1h-6z M22,42h6v1h-6z M49,41h2v2h-2z M73,38h4v5h-4z M97,32h4v11h-4z M150,42h4v1h-4z M170,42h3v1h-3z M225,42h3v1h-3z M251,42h5v1h-5z M262,29h5v14h-5z M1,43h90v1h-90z M96,43h6v1h-6z M103,43h3v1h-3z M110,43h6v1h-6z M118,43h3v1h-3z M122,42h2v2h-2z M147,43h1v1h-1z M150,43h3v1h-3z M157,43h1v1h-1z M170,43h2v1h-2z M175,41h5v3h-5z M251,43h4v1h-4z M1,44h196v1h-196z M198,44h5v1h-5z M208,44h10v1h-10z M219,44h4v1h-4z M225,44h3v1h-3z M232,44h1v1h-1z M250,44h5v1h-5z M262,43h4v2h-4z M1,45h265v1h-265z M1,46h9v1h-9z M11,46h19v1h-19z M39,46h228v1h-228z M1,47h5v1h-5z M58,47h5v1h-5z M131,47h1v1h-1z M136,47h9v1h-9z M147,47h2v1h-2z M151,47h3v1h-3z M162,47h9v1h-9z M173,47h25v1h-25z M200,47h67v1h-67z M214,48h5v1h-5z M225,48h2v1h-2z M235,48h2v1h-2z M246,48h2v1h-2z M250,48h1v1h-1z M252,48h15v1h-15z M58,48h4v2h-4z M262,49h5v1h-5z M18,51h2v1h-2z M48,51h3v1h-3z M149,51h2v1h-2z M202,51h2v1h-2z M15,52h6v1h-6z M46,52h5v1h-5z M68,52h3v1h-3z M148,52h4v1h-4z M230,52h5v1h-5z M263,50h4v3h-4z M14,53h6v1h-6z M27,53h2v1h-2z M45,53h6v1h-6z M58,50h5v4h-5z M68,53h5v1h-5z M109,53h2v1h-2z M123,53h2v1h-2z M148,53h5v1h-5z M202,52h4v2h-4z M229,53h6v1h-6z M262,53h5v1h-5z M12,54h8v1h-8z M27,54h3v1h-3z M44,54h7v1h-7z M85,54h10v1h-10z M108,54h4v1h-4z M123,54h3v1h-3z M149,54h5v1h-5z M193,54h1v1h-1z M202,54h5v1h-5z M226,54h9v1h-9z M259,54h8v1h-8z M11,55h8v1h-8z M42,55h7v1h-7z M69,54h5v2h-5z M85,55h11v1h-11z M107,55h4v1h-4z M123,55h4v1h-4z M150,55h4v1h-4z M172,55h3v1h-3z M187,55h8v1h-8z M203,55h5v1h-5z M215,49h4v7h-4z M225,55h8v1h-8z M256,55h11v1h-11z M10,56h7v1h-7z M26,55h4v2h-4z M41,56h7v1h-7z M70,56h5v1h-5z M85,56h12v1h-12z M105,56h6v1h-6z M123,56h5v1h-5z M150,56h5v1h-5z M185,56h11v1h-11z M204,56h4v1h-4z M215,56h3v1h-3z M225,56h5v1h-5z M255,56h11v1h-11z M10,57h5v1h-5z M41,57h5v1h-5z M71,57h5v1h-5z M86,57h10v1h-10z M104,57h5v1h-5z M124,57h4v1h-4z M151,57h5v1h-5z M171,56h4v2h-4z M185,57h10v1h-10z M204,57h5v1h-5z M226,57h3v1h-3z M255,57h12v1h-12z M12,58h2v1h-2z M25,57h5v2h-5z M41,58h4v1h-4z M72,58h5v1h-5z M103,58h5v1h-5z M125,58h4v1h-4z M139,48h4v11h-4z M152,58h5v1h-5z M169,58h6v1h-6z M185,58h9v1h-9z M243,57h3v2h-3z M41,59h2v1h-2z M73,59h4v1h-4z M169,59h5v1h-5z M187,59h3v1h-3z M205,58h4v2h-4z M263,58h4v2h-4z M74,60h4v1h-4z M102,59h5v2h-5z M126,59h4v2h-4z M153,59h4v2h-4z M206,60h3v1h-3z M243,59h4v2h-4z M75,61h2v1h-2z M101,61h5v1h-5z M139,59h3v3h-3z M155,61h1v1h-1z M168,60h5v2h-5z M244,61h3v1h-3z M25,59h4v4h-4z M101,62h4v1h-4z M127,61h3v2h-3z M167,62h5v1h-5z M244,62h4v1h-4z M25,63h3v1h-3z M101,63h3v1h-3z M167,63h4v1h-4z M244,63h5v1h-5z M1,48h4v17h-4z M25,64h2v1h-2z M58,54h4v11h-4z M102,64h1v1h-1z M167,64h3v1h-3z M1,65h5v1h-5z M20,65h3v1h-3z M25,65h4v1h-4z M35,65h1v1h-1z M58,65h5v1h-5z M139,62h4v4h-4z M245,64h4v2h-4z M1,66h87v1h-87z M90,66h17v1h-17z M138,66h6v1h-6z M146,66h1v1h-1z M168,65h1v2h-1z M215,57h4v10h-4z M1,67h223v1h-223z M231,67h4v1h-4z M243,67h1v1h-1z M246,66h3v2h-3z M262,60h5v8h-5z M1,68h266v1h-266z M1,69h94v1h-94z M96,69h170v1h-170z M39,70h5v1h-5z M113,70h5v1h-5z M145,70h4v1h-4z M163,70h2v1h-2z M169,70h24v1h-24z M194,70h72v1h-72z M114,71h4v1h-4z M185,71h5v1h-5z M216,71h1v1h-1z M225,71h1v1h-1z M238,71h5v1h-5z M246,71h20v1h-20z M81,73h3v1h-3z M114,72h3v2h-3z M126,73h2v1h-2z M144,73h3v1h-3z M186,72h4v2h-4z M262,72h5v2h-5z M6,74h5v1h-5z M51,74h2v1h-2z M114,74h4v1h-4z M143,74h4v1h-4z M177,74h3v1h-3z M186,74h3v1h-3z M202,74h3v1h-3z M6,75h7v1h-7z M29,75h3v1h-3z M80,74h5v2h-5z M142,75h5v1h-5z M176,75h4v1h-4z M236,75h4v1h-4z M262,74h4v2h-4z M7,76h6v1h-6z M28,76h4v1h-4z M51,75h4v2h-4z M79,76h5v1h-5z M142,76h4v1h-4z M201,75h4v2h-4z M215,76h3v1h-3z M8,77h6v1h-6z M26,77h6v1h-6z M51,77h5v1h-5z M78,77h5v1h-5z M95,77h3v1h-3z M113,75h5v3h-5z M125,74h4v4h-4z M141,77h4v1h-4z M175,76h5v2h-5z M214,77h5v1h-5z M235,76h5v2h-5z M9,78h6v1h-6z M25,78h6v1h-6z M52,78h5v1h-5z M77,78h5v1h-5z M94,78h5v1h-5z M140,78h5v1h-5z M157,78h3v1h-3z M175,78h4v1h-4z M200,77h5v2h-5z M214,78h6v1h-6z M234,78h5v1h-5z M255,78h3v1h-3z M24,79h6v1h-6z M53,79h5v1h-5z M76,79h5v1h-5z M94,79h10v1h-10z M139,79h5v1h-5z M156,79h5v1h-5z M174,79h5v1h-5z M199,79h5v1h-5z M215,79h6v1h-6z M233,79h5v1h-5z M255,79h4v1h-4z M11,79h4v2h-4z M23,80h6v1h-6z M75,80h5v1h-5z M95,80h10v1h-10z M156,80h7v1h-7z M199,80h4v1h-4z M216,80h6v1h-6z M233,80h4v1h-4z M255,80h5v1h-5z M262,76h5v5h-5z M23,81h5v1h-5z M54,80h5v2h-5z M96,81h9v1h-9z M124,78h4v4h-4z M139,80h4v2h-4z M157,81h8v1h-8z M174,80h4v2h-4z M198,81h5v1h-5z M217,81h6v1h-6z M232,81h5v1h-5z M22,82h5v1h-5z M56,82h3v1h-3z M75,81h4v2h-4z M100,82h5v1h-5z M125,82h2v1h-2z M139,82h2v1h-2z M159,82h7v1h-7z M174,82h3v1h-3z M197,82h5v1h-5z M219,82h4v1h-4z M232,82h4v1h-4z M256,81h10v2h-10z M23,83h1v1h-1z M102,83h3v1h-3z M114,78h4v6h-4z M126,83h1v1h-1z M160,83h6v1h-6z M174,83h2v1h-2z M219,83h5v1h-5z M232,83h3v1h-3z M257,83h9v1h-9z M114,84h3v1h-3z M161,84h6v1h-6z M197,83h4v2h-4z M221,84h2v1h-2z M259,84h8v1h-8z M1,70h4v16h-4z M40,71h4v15h-4z M113,85h4v1h-4z M163,85h3v1h-3z M198,85h2v1h-2z M261,85h5v1h-5z M1,86h5v1h-5z M22,86h1v1h-1z M39,86h6v1h-6z M113,86h5v1h-5z M262,86h5v1h-5z M1,87h102v1h-102z M105,87h4v1h-4z M112,87h7v1h-7z M124,87h2v1h-2z M135,87h3v1h-3z M164,87h2v1h-2z M186,75h4v13h-4z M248,72h4v16h-4z M1,88h211v1h-211z M214,88h8v1h-8z M247,88h6v1h-6z M262,87h4v2h-4z M1,89h266v1h-266z M1,90h35v1h-35z M39,90h2v1h-2z M42,90h225v1h-225z M1,91h5v1h-5z M50,91h5v1h-5z M82,91h5v1h-5z M114,91h4v1h-4z M124,91h6v1h-6z M135,91h1v1h-1z M147,91h8v1h-8z M157,91h10v1h-10z M169,91h98v1h-98z M83,92h3v1h-3z M198,92h6v1h-6z M209,92h1v1h-1z M215,92h3v1h-3z M222,92h15v1h-15z M238,92h29v1h-29z M84,93h2v1h-2z M199,93h5v1h-5z M262,93h4v1h-4z M69,94h2v1h-2z M263,94h3v1h-3z M15,95h1v1h-1z M67,95h4v1h-4z M83,95h1v1h-1z M112,95h3v1h-3z M145,95h3v1h-3z M183,95h2v1h-2z M230,95h4v1h-4z M253,95h5v1h-5z M32,96h1v1h-1z M66,96h5v1h-5z M82,96h4v1h-4z M111,96h4v1h-4z M144,96h4v1h-4z M163,96h1v1h-1z M182,96h5v1h-5z M218,96h3v1h-3z M230,96h5v1h-5z M252,96h5v1h-5z M14,96h4v2h-4z M32,97h5v1h-5z M65,97h6v1h-6z M82,97h5v1h-5z M110,97h5v1h-5z M143,97h5v1h-5z M162,97h3v1h-3z M182,97h7v1h-7z M217,97h4v1h-4z M231,97h4v1h-4z M252,97h4v1h-4z M263,95h4v3h-4z M13,98h5v1h-5z M32,98h6v1h-6z M64,98h6v1h-6z M82,98h8v1h-8z M109,98h6v1h-6z M142,98h5v1h-5z M161,98h5v1h-5z M183,98h7v1h-7z M216,98h5v1h-5z M231,98h5v1h-5z M251,98h5v1h-5z M12,99h5v1h-5z M32,99h9v1h-9z M50,92h4v8h-4z M63,99h6v1h-6z M83,99h8v1h-8z M108,99h6v1h-6z M142,99h4v1h-4z M162,99h4v1h-4z M184,99h9v1h-9z M199,94h4v6h-4z M215,99h6v1h-6z M250,99h5v1h-5z M12,100h4v1h-4z M33,100h9v1h-9z M50,100h5v1h-5z M63,100h5v1h-5z M85,100h8v1h-8z M107,100h5v1h-5z M140,100h6v1h-6z M161,100h6v1h-6z M187,100h6v1h-6z M214,100h5v1h-5z M232,99h5v2h-5z M249,100h5v1h-5z M262,98h5v3h-5z M11,101h5v1h-5z M36,101h7v1h-7z M62,101h5v1h-5z M86,101h7v1h-7z M139,101h6v1h-6z M163,101h4v1h-4z M188,101h6v1h-6z M213,101h6v1h-6z M233,101h5v1h-5z M10,102h5v1h-5z M37,102h5v1h-5z M62,102h4v1h-4z M88,102h5v1h-5z M107,101h4v2h-4z M139,102h5v1h-5z M163,102h5v1h-5z M190,102h3v1h-3z M199,100h5v3h-5z M212,102h6v1h-6z M248,101h5v2h-5z M10,103h4v1h-4z M63,103h2v1h-2z M90,103h2v1h-2z M107,103h3v1h-3z M139,103h4v1h-4z M164,103h5v1h-5z M199,103h4v1h-4z M211,103h6v1h-6z M234,102h4v2h-4z M248,103h3v1h-3z M107,104h2v1h-2z M139,104h3v1h-3z M165,104h5v1h-5z M199,104h5v1h-5z M211,104h5v1h-5z M1,92h4v14h-4z M10,104h5v2h-5z M50,101h4v5h-4z M125,92h4v14h-4z M166,105h4v1h-4z M199,105h4v1h-4z M212,105h3v1h-3z M1,106h17v1h-17z M22,106h21v1h-21z M45,106h11v1h-11z M57,106h3v1h-3z M62,106h2v1h-2z M66,106h1v1h-1z M77,106h4v1h-4z M83,106h2v1h-2z M99,106h1v1h-1z M107,106h1v1h-1z M125,106h5v1h-5z M167,106h3v1h-3z M199,106h5v1h-5z M262,101h4v6h-4z M1,107h170v1h-170z M182,107h3v1h-3z M199,107h6v1h-6z M215,107h1v1h-1z M1,108h244v1h-244z M259,108h1v1h-1z M262,107h5v2h-5z M1,109h265v1h-265z M1,110h5v1h-5z M7,110h1v1h-1z M47,110h8v1h-8z M75,110h7v1h-7z M85,110h6v1h-6z M93,110h173v1h-173z M153,111h5v1h-5z M178,111h3v1h-3z M184,111h4v1h-4z M191,111h1v1h-1z M194,111h9v1h-9z M209,111h57v1h-57z M255,112h5v1h-5z M261,112h5v1h-5z M122,113h1v1h-1z M262,113h4v1h-4z M121,114h3v1h-3z M93,114h4v2h-4z M120,115h4v1h-4z M153,112h4v4h-4z M182,115h3v1h-3z M230,112h5v4h-5z M52,116h3v1h-3z M92,116h4v1h-4z M120,116h5v1h-5z M153,116h5v1h-5z M211,116h3v1h-3z M10,117h2v1h-2z M33,117h1v1h-1z M51,117h4v1h-4z M91,117h5v1h-5z M154,117h3v1h-3z M245,117h2v1h-2z M262,114h5v4h-5z M9,118h4v1h-4z M49,118h6v1h-6z M89,118h6v1h-6z M121,117h4v2h-4z M143,118h3v1h-3z M211,117h4v2h-4z M243,118h5v1h-5z M9,119h5v1h-5z M47,119h7v1h-7z M88,119h6v1h-6z M141,119h6v1h-6z M211,119h5v1h-5z M242,119h6v1h-6z M9,120h7v1h-7z M32,118h3v3h-3z M46,120h6v1h-6z M88,120h5v1h-5z M121,119h5v2h-5z M141,120h5v1h-5z M212,120h5v1h-5z M241,120h6v1h-6z M11,121h6v1h-6z M45,121h6v1h-6z M88,121h4v1h-4z M122,121h4v1h-4z M139,121h6v1h-6z M162,121h4v1h-4z M182,116h4v6h-4z M213,121h5v1h-5z M240,121h6v1h-6z M12,122h6v1h-6z M45,122h5v1h-5z M64,121h3v2h-3z M88,122h3v1h-3z M103,122h3v1h-3z M123,122h2v1h-2z M138,122h6v1h-6z M162,122h7v1h-7z M183,122h3v1h-3z M199,121h4v2h-4z M214,122h4v1h-4z M239,122h6v1h-6z M262,118h4v5h-4z M13,123h6v1h-6z M46,123h3v1h-3z M64,123h5v1h-5z M102,123h5v1h-5z M137,123h6v1h-6z M163,123h8v1h-8z M183,123h4v1h-4z M198,123h5v1h-5z M214,123h5v1h-5z M239,123h5v1h-5z M14,124h5v1h-5z M31,121h4v4h-4z M65,124h5v1h-5z M103,124h5v1h-5z M136,124h6v1h-6z M164,124h9v1h-9z M183,124h3v1h-3z M215,124h4v1h-4z M231,116h4v9h-4z M238,124h5v1h-5z M253,124h3v1h-3z M65,125h6v1h-6z M104,125h4v1h-4z M135,125h6v1h-6z M166,125h8v1h-8z M197,124h5v2h-5z M216,125h4v1h-4z M230,125h5v1h-5z M238,125h4v1h-4z M252,125h5v1h-5z M31,125h3v2h-3z M66,126h6v1h-6z M135,126h4v1h-4z M168,126h6v1h-6z M196,126h5v1h-5z M239,126h2v1h-2z M253,126h5v1h-5z M67,127h5v1h-5z M104,126h5v2h-5z M135,127h3v1h-3z M170,127h3v1h-3z M195,127h5v1h-5z M254,127h4v1h-4z M30,127h4v2h-4z M69,128h3v1h-3z M105,128h5v1h-5z M194,128h5v1h-5z M255,128h5v1h-5z M262,123h5v6h-5z M31,129h2v1h-2z M76,111h4v19h-4z M154,118h4v12h-4z M193,129h6v1h-6z M231,126h3v4h-3z M255,129h6v1h-6z M262,129h4v1h-4z M1,111h4v20h-4z M30,130h3v1h-3z M76,130h5v1h-5z M106,129h4v2h-4z M193,130h4v1h-4z M231,130h4v1h-4z M256,130h5v1h-5z M263,130h4v1h-4z M1,131h63v1h-63z M69,131h14v1h-14z M91,131h3v1h-3z M95,131h6v1h-6z M103,131h1v1h-1z M106,131h5v1h-5z M112,131h8v1h-8z M121,131h2v1h-2z M136,131h1v1h-1z M153,130h5v2h-5z M193,131h3v1h-3z M1,132h200v1h-200z M202,132h2v1h-2z M230,131h5v2h-5z M257,131h10v2h-10z M2,133h264v2h-264z M4,135h5v1h-5z M11,135h3v1h-3z M16,135h11v1h-11z M28,135h29v1h-29z M59,135h3v1h-3z M66,135h4v1h-4z M71,135h7v1h-7z M81,135h185v1h-185z M171,136h2v1h-2z M177,136h4v1h-4z M184,136h82v1h-82z M255,137h2v1h-2z M260,137h1v1h-1z M262,137h3v1h-3z
  "/>
</svg>