<?xml version="1.0" encoding="UTF-8"?>
<svg xmlns="http://www.w3.org/2000/svg" viewBox="0 0 260 141" width="260" height="141">
  <title>45 Gneiss</title>
  <path fill="#111111" fill-rule="nonzero" d="
    M166,0h1v1h-1z M175,0h18v1h-18z M195,0h63v1h-63z M94,1h3v1h-3z M106,1h153v1h-153z M52,2h1v1h-1z M58,2h2v1h-2z M63,2h3v1h-3z M67,2h192v1h-192z M11,3h248v1h-248z M2,4h169v1h-169z M177,4h6v1h-6z M191,4h14v1h-14z M217,4h5v1h-5z M228,4h7v1h-7z M237,4h6v1h-6z M246,4h6v1h-6z M1,5h85v1h-85z M87,5h27v1h-27z M139,5h7v1h-7z M147,5h8v1h-8z M159,5h8v1h-8z M179,5h3v1h-3z M196,5h6v1h-6z M228,5h5v1h-5z M254,4h5v2h-5z M1,6h66v1h-66z M72,6h11v1h-11z M86,6h19v1h-19z M130,6h2v1h-2z M139,6h4v1h-4z M147,6h7v1h-7z M158,6h7v1h-7z M177,6h6v1h-6z M191,5h4v2h-4z M196,6h5v1h-5z M227,6h6v1h-6z M237,5h5v2h-5z M245,5h5v2h-5z M253,6h7v1h-7z M1,7h28v1h-28z M37,7h4v1h-4z M43,7h9v1h-9z M55,7h8v1h-8z M72,7h7v1h-7z M85,7h19v1h-19z M110,6h3v2h-3z M126,7h7v1h-7z M138,7h5v1h-5z M145,7h7v1h-7z M157,7h7v1h-7z M173,7h10v1h-10z M190,7h4v1h-4z M217,5h4v3h-4z M227,7h4v1h-4z M236,7h5v1h-5z M244,7h5v1h-5z M1,8h4v1h-4z M6,8h19v1h-19z M36,8h5v1h-5z M42,8h8v1h-8z M53,8h8v1h-8z M71,8h7v1h-7z M83,8h17v1h-17z M123,8h10v1h-10z M137,8h5v1h-5z M144,8h6v1h-6z M155,8h7v1h-7z M172,8h10v1h-10z M189,8h5v1h-5z M195,7h5v2h-5z M225,8h6v1h-6z M235,8h5v1h-5z M243,8h5v1h-5z M252,7h8v2h-8z M1,9h24v1h-24z M36,9h13v1h-13z M51,9h8v1h-8z M69,9h7v1h-7z M80,9h18v1h-18z M121,9h11v1h-11z M136,9h6v1h-6z M143,9h6v1h-6z M154,9h6v1h-6z M172,9h9v1h-9z M188,9h5v1h-5z M194,9h5v1h-5z M217,8h3v2h-3z M224,9h6v1h-6z M234,9h5v1h-5z M242,9h5v1h-5z M251,9h9v1h-9z M11,10h9v1h-9z M36,10h10v1h-10z M50,10h8v1h-8z M67,10h6v1h-6z M78,10h9v1h-9z M88,10h7v1h-7z M121,10h9v1h-9z M135,10h5v1h-5z M142,10h6v1h-6z M152,10h7v1h-7z M173,10h4v1h-4z M187,10h5v1h-5z M194,10h4v1h-4z M222,10h6v1h-6z M233,10h6v1h-6z M241,10h5v1h-5z M250,10h10v1h-10z M1,10h8v2h-8z M10,11h8v1h-8z M35,11h10v1h-10z M49,11h6v1h-6z M63,11h8v1h-8z M77,11h7v1h-7z M87,11h7v1h-7z M122,11h3v1h-3z M134,11h5v1h-5z M141,11h5v1h-5z M151,11h6v1h-6z M186,11h5v1h-5z M193,11h4v1h-4z M221,11h7v1h-7z M231,11h6v1h-6z M240,11h5v1h-5z M249,11h5v1h-5z M256,11h4v1h-4z M1,12h14v1h-14z M23,10h4v3h-4z M34,12h10v1h-10z M48,12h7v1h-7z M62,12h7v1h-7z M74,12h8v1h-8z M86,12h7v1h-7z M109,8h4v5h-4z M133,12h12v1h-12z M150,12h6v1h-6z M183,12h7v1h-7z M192,12h5v1h-5z M202,12h4v1h-4z M220,12h6v1h-6z M230,12h6v1h-6z M238,12h6v1h-6z M248,12h5v1h-5z M1,13h13v1h-13z M24,13h3v1h-3z M35,13h9v1h-9z M47,13h5v1h-5z M61,13h6v1h-6z M72,13h8v1h-8z M84,13h7v1h-7z M132,13h5v1h-5z M139,13h5v1h-5z M148,13h6v1h-6z M181,13h8v1h-8z M191,13h5v1h-5z M202,13h8v1h-8z M220,13h5v1h-5z M229,13h6v1h-6z M237,13h6v1h-6z M246,13h6v1h-6z M1,14h12v1h-12z M24,14h4v1h-4z M35,14h8v1h-8z M46,14h5v1h-5z M59,14h6v1h-6z M71,14h6v1h-6z M81,14h8v1h-8z M109,13h3v2h-3z M130,14h7v1h-7z M138,14h5v1h-5z M147,14h6v1h-6z M179,14h8v1h-8z M190,14h6v1h-6z M202,14h9v1h-9z M219,14h5v1h-5z M228,14h6v1h-6z M236,14h6v1h-6z M246,14h5v1h-5z M255,12h5v3h-5z M1,15h11v1h-11z M25,15h3v1h-3z M38,15h4v1h-4z M46,15h4v1h-4z M58,15h6v1h-6z M69,15h7v1h-7z M79,15h9v1h-9z M110,15h1v1h-1z M128,15h7v1h-7z M147,15h5v1h-5z M177,15h9v1h-9z M189,15h6v1h-6z M203,15h10v1h-10z M218,15h5v1h-5z M227,15h5v1h-5z M235,15h6v1h-6z M244,15h6v1h-6z M1,16h10v1h-10z M37,16h5v1h-5z M45,16h4v1h-4z M57,16h6v1h-6z M67,16h7v1h-7z M77,16h8v1h-8z M97,16h4v1h-4z M123,16h11v1h-11z M136,15h6v2h-6z M146,16h5v1h-5z M156,16h11v1h-11z M176,16h7v1h-7z M187,16h7v1h-7z M207,16h6v1h-6z M217,16h5v1h-5z M226,16h6v1h-6z M234,16h5v1h-5z M243,16h6v1h-6z M1,17h9v1h-9z M25,16h4v2h-4z M37,17h4v1h-4z M44,17h4v1h-4z M56,17h5v1h-5z M66,17h6v1h-6z M74,17h9v1h-9z M97,17h5v1h-5z M121,17h11v1h-11z M134,17h6v1h-6z M145,17h5v1h-5z M175,17h7v1h-7z M185,17h7v1h-7z M209,17h4v1h-4z M216,17h5v1h-5z M225,17h5v1h-5z M233,17h5v1h-5z M242,17h6v1h-6z M25,18h5v1h-5z M36,18h4v1h-4z M55,18h4v1h-4z M65,18h5v1h-5z M73,18h9v1h-9z M97,18h7v1h-7z M119,18h11v1h-11z M144,18h5v1h-5z M157,17h12v2h-12z M174,18h7v1h-7z M184,18h7v1h-7z M216,18h4v1h-4z M223,18h5v1h-5z M232,18h6v1h-6z M240,18h6v1h-6z M1,18h8v2h-8z M12,19h2v1h-2z M26,19h3v1h-3z M35,19h5v1h-5z M43,18h4v2h-4z M54,19h4v1h-4z M63,19h6v1h-6z M70,19h8v1h-8z M98,19h8v1h-8z M117,19h11v1h-11z M133,18h6v2h-6z M143,19h5v1h-5z M158,19h1v1h-1z M161,19h8v1h-8z M173,19h5v1h-5z M182,19h8v1h-8z M222,19h6v1h-6z M231,19h5v1h-5z M238,19h7v1h-7z M11,20h5v1h-5z M27,20h2v1h-2z M34,20h5v1h-5z M42,20h5v1h-5z M53,20h4v1h-4z M62,20h6v1h-6z M70,20h6v1h-6z M100,20h7v1h-7z M116,20h7v1h-7z M131,20h6v1h-6z M142,20h5v1h-5z M166,20h1v1h-1z M180,20h9v1h-9z M222,20h5v1h-5z M230,20h5v1h-5z M238,20h6v1h-6z M1,20h7v2h-7z M11,21h6v1h-6z M33,21h5v1h-5z M42,21h4v1h-4z M52,21h4v1h-4z M61,21h13v1h-13z M101,21h7v1h-7z M115,21h6v1h-6z M128,21h8v1h-8z M141,21h6v1h-6z M172,20h5v2h-5z M179,21h6v1h-6z M189,21h2v1h-2z M215,19h4v3h-4z M221,21h5v1h-5z M229,21h5v1h-5z M236,21h6v1h-6z M11,22h9v1h-9z M32,22h6v1h-6z M41,22h5v1h-5z M51,22h4v1h-4z M60,22h5v1h-5z M67,22h5v1h-5z M88,22h2v1h-2z M104,22h3v1h-3z M114,22h6v1h-6z M123,22h12v1h-12z M140,22h6v1h-6z M172,22h4v1h-4z M179,22h5v1h-5z M189,22h3v1h-3z M221,22h4v1h-4z M229,22h4v1h-4z M235,22h6v1h-6z M256,15h4v8h-4z M1,22h6v2h-6z M12,23h2v1h-2z M15,23h6v1h-6z M31,23h6v1h-6z M40,23h5v1h-5z M50,23h5v1h-5z M59,23h12v1h-12z M114,23h5v1h-5z M121,23h13v1h-13z M139,23h6v1h-6z M171,23h4v1h-4z M199,23h2v1h-2z M214,22h4v2h-4z M220,23h4v1h-4z M228,23h5v1h-5z M234,23h6v1h-6z M255,23h5v1h-5z M18,24h2v1h-2z M27,24h8v1h-8z M39,24h5v1h-5z M58,24h5v1h-5z M65,24h5v1h-5z M77,24h3v1h-3z M113,24h19v1h-19z M138,24h6v1h-6z M178,23h5v2h-5z M188,23h4v2h-4z M219,24h5v1h-5z M227,24h5v1h-5z M234,24h5v1h-5z M243,24h5v1h-5z M1,24h5v2h-5z M26,25h8v1h-8z M38,25h5v1h-5z M49,24h4v2h-4z M57,25h5v1h-5z M64,25h5v1h-5z M76,25h4v1h-4z M88,23h3v3h-3z M112,25h14v1h-14z M127,25h1v1h-1z M138,25h5v1h-5z M149,23h3v3h-3z M170,24h4v2h-4z M178,25h4v1h-4z M213,24h4v2h-4z M227,25h4v1h-4z M233,25h5v1h-5z M23,26h10v1h-10z M37,26h5v1h-5z M56,26h4v1h-4z M63,26h5v1h-5z M75,26h4v1h-4z M110,26h13v1h-13z M136,26h6v1h-6z M150,26h3v1h-3z M169,26h5v1h-5z M199,24h3v3h-3z M212,26h5v1h-5z M219,25h3v2h-3z M227,26h3v1h-3z M242,25h10v2h-10z M21,27h10v1h-10z M36,27h6v1h-6z M48,26h4v2h-4z M63,27h4v1h-4z M109,27h12v1h-12z M134,27h7v1h-7z M150,27h4v1h-4z M169,27h4v1h-4z M177,26h4v2h-4z M187,25h4v3h-4z M212,27h4v1h-4z M233,26h4v2h-4z M243,27h7v1h-7z M6,28h1v1h-1z M19,28h10v1h-10z M36,28h5v1h-5z M47,28h4v1h-4z M55,27h4v2h-4z M62,28h4v1h-4z M74,27h4v2h-4z M107,28h14v1h-14z M132,28h8v1h-8z M168,28h5v1h-5z M176,28h5v1h-5z M199,27h4v2h-4z M211,28h5v1h-5z M226,27h4v2h-4z M17,29h10v1h-10z M35,29h5v1h-5z M46,29h5v1h-5z M54,29h4v1h-4z M61,29h4v1h-4z M73,29h4v1h-4z M104,29h8v1h-8z M114,29h5v1h-5z M127,29h10v1h-10z M168,29h4v1h-4z M176,29h4v1h-4z M186,28h4v2h-4z M210,29h5v1h-5z M218,27h4v3h-4z M226,29h3v1h-3z M1,26h4v5h-4z M16,30h9v1h-9z M33,30h6v1h-6z M46,30h4v1h-4z M60,30h4v1h-4z M72,30h4v1h-4z M88,26h4v5h-4z M102,30h9v1h-9z M113,30h5v1h-5z M125,30h11v1h-11z M151,28h3v3h-3z M167,30h4v1h-4z M174,30h5v1h-5z M186,30h3v1h-3z M218,30h3v1h-3z M15,31h6v1h-6z M31,31h8v1h-8z M45,31h4v1h-4z M53,30h4v2h-4z M59,31h4v1h-4z M71,31h4v1h-4z M100,31h8v1h-8z M112,31h5v1h-5z M123,31h11v1h-11z M152,31h3v1h-3z M165,31h5v1h-5z M173,31h6v1h-6z M200,29h4v3h-4z M209,30h5v2h-5z M217,31h4v1h-4z M225,30h4v2h-4z M232,28h4v4h-4z M14,32h6v1h-6z M29,32h8v1h-8z M44,32h5v1h-5z M52,32h4v1h-4z M58,32h4v1h-4z M72,32h3v1h-3z M89,31h3v2h-3z M99,32h7v1h-7z M111,32h5v1h-5z M121,32h10v1h-10z M140,31h3v2h-3z M152,32h2v1h-2z M164,32h6v1h-6z M172,32h6v1h-6z M201,32h2v1h-2z M208,32h5v1h-5z M216,32h5v1h-5z M13,33h5v1h-5z M28,33h8v1h-8z M43,33h5v1h-5z M58,33h3v1h-3z M73,33h1v1h-1z M90,33h1v1h-1z M97,33h7v1h-7z M111,33h4v1h-4z M120,33h8v1h-8z M139,33h4v1h-4z M162,33h6v1h-6z M172,33h5v1h-5z M207,33h5v1h-5z M216,33h4v1h-4z M224,32h4v2h-4z M231,32h4v2h-4z M242,33h2v1h-2z M12,34h5v1h-5z M25,34h10v1h-10z M43,34h4v1h-4z M51,33h4v2h-4z M57,34h4v1h-4z M96,34h6v1h-6z M110,34h5v1h-5z M119,34h6v1h-6z M139,34h3v1h-3z M159,34h7v1h-7z M169,34h7v1h-7z M206,34h5v1h-5z M215,34h5v1h-5z M223,34h4v1h-4z M230,34h5v1h-5z M11,35h6v1h-6z M21,35h12v1h-12z M41,35h5v1h-5z M50,35h5v1h-5z M56,35h4v1h-4z M95,35h6v1h-6z M109,35h4v1h-4z M117,35h6v1h-6z M138,35h4v1h-4z M158,35h8v1h-8z M167,35h7v1h-7z M205,35h5v1h-5z M214,35h5v1h-5z M222,35h5v1h-5z M242,34h3v2h-3z M6,29h3v8h-3z M11,36h5v1h-5z M19,36h12v1h-12z M40,36h6v1h-6z M49,36h5v1h-5z M55,36h5v1h-5z M94,36h5v1h-5z M107,36h6v1h-6z M116,36h6v1h-6z M138,36h3v1h-3z M155,36h18v1h-18z M204,36h5v1h-5z M213,36h5v1h-5z M222,36h4v1h-4z M230,35h4v2h-4z M242,36h4v1h-4z M6,37h9v1h-9z M18,37h9v1h-9z M39,37h5v1h-5z M49,37h4v1h-4z M55,37h4v1h-4z M94,37h4v1h-4z M104,37h7v1h-7z M116,37h5v1h-5z M137,37h4v1h-4z M154,37h18v1h-18z M203,37h5v1h-5z M212,37h5v1h-5z M221,37h4v1h-4z M229,37h4v1h-4z M6,38h8v1h-8z M17,38h6v1h-6z M38,38h5v1h-5z M48,38h4v1h-4z M93,38h4v1h-4z M103,38h7v1h-7z M115,38h5v1h-5z M151,38h8v1h-8z M160,38h10v1h-10z M202,38h5v1h-5z M210,38h6v1h-6z M219,38h6v1h-6z M228,38h5v1h-5z M243,37h4v2h-4z M16,39h6v1h-6z M36,39h6v1h-6z M47,39h5v1h-5z M54,38h4v2h-4z M61,39h1v1h-1z M75,39h4v1h-4z M92,39h5v1h-5z M101,39h8v1h-8z M114,39h5v1h-5z M137,38h3v2h-3z M150,39h19v1h-19z M183,39h10v1h-10z M201,39h6v1h-6z M209,39h6v1h-6z M218,39h5v1h-5z M227,39h5v1h-5z M244,39h4v1h-4z M8,39h5v2h-5z M15,40h5v1h-5z M28,40h13v1h-13z M46,40h5v1h-5z M53,40h5v1h-5z M75,40h10v1h-10z M91,40h5v1h-5z M100,40h7v1h-7z M113,40h5v1h-5z M138,40h1v1h-1z M149,40h5v1h-5z M157,40h9v1h-9z M183,40h12v1h-12z M200,40h5v1h-5z M208,40h6v1h-6z M217,40h6v1h-6z M226,40h6v1h-6z M244,40h5v1h-5z M14,41h5v1h-5z M25,41h16v1h-16z M45,41h5v1h-5z M52,41h5v1h-5z M60,40h3v2h-3z M75,41h11v1h-11z M90,41h5v1h-5z M99,41h7v1h-7z M111,41h6v1h-6z M147,41h5v1h-5z M156,41h7v1h-7z M184,41h11v1h-11z M200,41h4v1h-4z M207,41h6v1h-6z M216,41h5v1h-5z M225,41h5v1h-5z M245,41h4v1h-4z M23,42h15v1h-15z M44,42h5v1h-5z M76,42h11v1h-11z M97,42h6v1h-6z M109,42h7v1h-7z M145,42h6v1h-6z M154,42h8v1h-8z M174,42h1v1h-1z M190,42h4v1h-4z M198,42h5v1h-5z M205,42h7v1h-7z M215,42h5v1h-5z M223,42h6v1h-6z M233,42h2v1h-2z M246,42h1v1h-1z M14,42h4v2h-4z M22,43h14v1h-14z M43,43h6v1h-6z M51,42h5v2h-5z M60,42h4v2h-4z M82,43h4v1h-4z M89,42h5v2h-5z M96,43h6v1h-6z M108,43h7v1h-7z M124,43h4v1h-4z M144,43h6v1h-6z M153,43h6v1h-6z M173,43h3v1h-3z M197,43h5v1h-5z M205,43h5v1h-5z M213,43h6v1h-6z M222,43h6v1h-6z M232,43h3v1h-3z M8,41h4v4h-4z M21,44h7v1h-7z M42,44h6v1h-6z M50,44h5v1h-5z M88,44h5v1h-5z M95,44h5v1h-5z M107,44h7v1h-7z M124,44h7v1h-7z M143,44h5v1h-5z M151,44h6v1h-6z M172,44h4v1h-4z M196,44h5v1h-5z M203,44h6v1h-6z M212,44h6v1h-6z M220,44h7v1h-7z M231,44h4v1h-4z M13,44h4v2h-4z M21,45h5v1h-5z M41,45h6v1h-6z M48,45h6v1h-6z M88,45h4v1h-4z M94,45h6v1h-6z M105,45h6v1h-6z M123,45h11v1h-11z M142,45h5v1h-5z M150,45h5v1h-5z M163,45h2v1h-2z M172,45h5v1h-5z M194,45h6v1h-6z M203,45h5v1h-5z M210,45h7v1h-7z M219,45h7v1h-7z M230,45h4v1h-4z M1,31h3v16h-3z M7,45h4v2h-4z M12,46h5v1h-5z M19,46h6v1h-6z M39,46h7v1h-7z M47,46h6v1h-6z M93,46h5v1h-5z M103,46h7v1h-7z M114,46h1v1h-1z M124,46h11v1h-11z M141,46h5v1h-5z M149,46h5v1h-5z M161,46h5v1h-5z M193,46h6v1h-6z M202,46h5v1h-5z M209,46h6v1h-6z M217,46h8v1h-8z M229,46h5v1h-5z M12,47h4v1h-4z M19,47h5v1h-5z M29,47h5v1h-5z M38,47h14v1h-14z M87,46h4v2h-4z M92,47h6v1h-6z M102,47h6v1h-6z M127,47h9v1h-9z M140,47h5v1h-5z M148,47h5v1h-5z M159,47h6v1h-6z M192,47h6v1h-6z M201,47h5v1h-5z M208,47h6v1h-6z M216,47h7v1h-7z M228,47h5v1h-5z M249,47h1v1h-1z M1,47h9v2h-9z M27,48h24v1h-24z M61,44h4v5h-4z M86,48h4v1h-4z M101,48h6v1h-6z M113,47h3v2h-3z M132,48h3v1h-3z M140,48h4v1h-4z M147,48h5v1h-5z M156,48h8v1h-8z M173,46h4v3h-4z M191,48h6v1h-6z M200,48h5v1h-5z M207,48h5v1h-5z M215,48h6v1h-6z M243,48h9v1h-9z M1,49h7v1h-7z M25,49h17v1h-17z M44,49h5v1h-5z M85,49h4v1h-4z M91,48h5v2h-5z M101,49h5v1h-5z M112,49h4v1h-4z M139,49h5v1h-5z M147,49h4v1h-4z M155,49h7v1h-7z M189,49h7v1h-7z M199,49h5v1h-5z M206,49h6v1h-6z M214,49h6v1h-6z M227,48h5v2h-5z M242,49h11v1h-11z M1,50h6v1h-6z M11,48h4v3h-4z M18,48h4v3h-4z M24,50h16v1h-16z M42,50h6v1h-6z M52,50h1v1h-1z M62,49h3v2h-3z M84,50h4v1h-4z M91,50h4v1h-4z M99,50h6v1h-6z M113,50h3v1h-3z M139,50h3v1h-3z M146,50h4v1h-4z M154,50h6v1h-6z M174,49h3v2h-3z M188,50h7v1h-7z M198,50h5v1h-5z M206,50h5v1h-5z M213,50h6v1h-6z M227,50h4v1h-4z M242,50h10v1h-10z M1,51h5v1h-5z M10,51h4v1h-4z M24,51h6v1h-6z M32,51h7v1h-7z M40,51h7v1h-7z M51,51h3v1h-3z M83,51h5v1h-5z M90,51h4v1h-4z M99,51h4v1h-4z M139,51h4v1h-4z M145,51h4v1h-4z M155,51h3v1h-3z M175,51h2v1h-2z M186,51h8v1h-8z M197,51h5v1h-5z M205,51h5v1h-5z M213,51h5v1h-5z M243,51h7v1h-7z M256,24h4v28h-4z M9,52h5v1h-5z M23,52h5v1h-5z M31,52h15v1h-15z M81,52h5v1h-5z M98,52h5v1h-5z M144,52h5v1h-5z M183,52h10v1h-10z M196,52h5v1h-5z M204,52h5v1h-5z M1,52h4v2h-4z M8,53h5v1h-5z M23,53h4v1h-4z M29,53h16v1h-16z M50,52h4v2h-4z M80,53h5v1h-5z M89,52h4v2h-4z M97,53h5v1h-5z M138,52h4v2h-4z M144,53h4v1h-4z M180,53h10v1h-10z M195,53h6v1h-6z M203,53h5v1h-5z M212,52h5v2h-5z M255,52h5v2h-5z M1,54h3v1h-3z M7,54h4v1h-4z M17,51h4v4h-4z M23,54h3v1h-3z M29,54h15v1h-15z M68,54h3v1h-3z M79,54h5v1h-5z M88,54h5v1h-5z M164,54h1v1h-1z M176,54h12v1h-12z M194,54h6v1h-6z M203,54h4v1h-4z M211,54h4v1h-4z M1,55h10v1h-10z M17,55h3v1h-3z M28,55h15v1h-15z M49,54h4v2h-4z M65,55h7v1h-7z M77,55h6v1h-6z M87,55h5v1h-5z M97,54h4v2h-4z M113,51h4v5h-4z M126,55h2v1h-2z M137,54h5v2h-5z M143,54h4v2h-4z M174,55h11v1h-11z M193,55h6v1h-6z M202,55h5v1h-5z M235,55h2v1h-2z M254,54h6v2h-6z M1,56h8v1h-8z M28,56h4v1h-4z M48,56h4v1h-4z M63,56h9v1h-9z M75,56h6v1h-6z M86,56h5v1h-5z M96,56h4v1h-4z M114,56h2v1h-2z M126,56h3v1h-3z M173,56h7v1h-7z M191,56h6v1h-6z M202,56h4v1h-4z M210,55h5v2h-5z M253,56h7v1h-7z M1,57h7v1h-7z M61,57h9v1h-9z M75,57h4v1h-4z M85,57h5v1h-5z M95,57h4v1h-4z M115,57h1v1h-1z M125,57h4v1h-4z M137,56h9v2h-9z M162,55h3v3h-3z M172,57h6v1h-6z M189,57h7v1h-7z M201,57h4v1h-4z M210,57h4v1h-4z M223,57h4v1h-4z M235,56h4v2h-4z M253,57h6v1h-6z M1,58h6v1h-6z M16,56h4v3h-4z M22,55h4v4h-4z M28,57h3v2h-3z M47,57h4v2h-4z M60,58h6v1h-6z M74,58h4v1h-4z M84,58h5v1h-5z M95,58h3v1h-3z M124,58h5v1h-5z M136,58h9v1h-9z M161,58h4v1h-4z M171,58h6v1h-6z M187,58h8v1h-8z M200,58h5v1h-5z M209,58h4v1h-4z M219,58h9v1h-9z M235,58h6v1h-6z M1,59h5v1h-5z M14,59h5v1h-5z M46,59h5v1h-5z M60,59h3v1h-3z M73,59h4v1h-4z M83,59h6v1h-6z M94,59h4v1h-4z M123,59h5v1h-5z M135,59h10v1h-10z M161,59h3v1h-3z M171,59h4v1h-4z M180,59h13v1h-13z M199,59h5v1h-5z M208,59h5v1h-5z M218,59h10v1h-10z M236,59h6v1h-6z M252,58h8v2h-8z M13,60h6v1h-6z M46,60h4v1h-4z M62,60h1v1h-1z M72,60h4v1h-4z M81,60h6v1h-6z M93,60h4v1h-4z M104,60h4v1h-4z M122,60h5v1h-5z M135,60h9v1h-9z M170,60h5v1h-5z M177,60h14v1h-14z M198,60h5v1h-5z M208,60h4v1h-4z M218,60h9v1h-9z M237,60h6v1h-6z M251,60h9v1h-9z M11,61h7v1h-7z M21,59h4v3h-4z M47,61h2v1h-2z M80,61h6v1h-6z M90,61h7v1h-7z M101,61h7v1h-7z M122,61h4v1h-4z M135,61h4v1h-4z M140,61h4v1h-4z M160,60h4v2h-4z M170,61h4v1h-4z M176,61h12v1h-12z M197,61h5v1h-5z M207,61h5v1h-5z M219,61h3v1h-3z M250,61h10v1h-10z M9,62h9v1h-9z M20,62h5v1h-5z M71,61h4v2h-4z M78,62h7v1h-7z M88,62h7v1h-7z M99,62h8v1h-8z M121,62h4v1h-4z M170,62h3v1h-3z M175,62h5v1h-5z M194,62h7v1h-7z M206,62h5v1h-5z M239,61h4v2h-4z M250,62h5v1h-5z M256,62h4v1h-4z M8,63h7v1h-7z M20,63h4v1h-4z M27,59h4v5h-4z M70,63h4v1h-4z M77,63h6v1h-6z M85,63h8v1h-8z M99,63h7v1h-7z M133,62h10v2h-10z M175,63h4v1h-4z M191,63h9v1h-9z M205,63h5v1h-5z M241,63h1v1h-1z M249,63h5v1h-5z M256,63h3v1h-3z M1,60h4v5h-4z M7,64h6v1h-6z M19,64h5v1h-5z M38,64h1v1h-1z M70,64h3v1h-3z M77,64h5v1h-5z M84,64h8v1h-8z M98,64h6v1h-6z M121,63h3v2h-3z M132,64h10v1h-10z M148,64h3v1h-3z M160,62h3v3h-3z M169,63h4v2h-4z M174,64h4v1h-4z M186,64h12v1h-12z M204,64h5v1h-5z M228,64h3v1h-3z M248,64h5v1h-5z M7,65h5v1h-5z M19,65h4v1h-4z M26,64h4v2h-4z M36,65h5v1h-5z M56,65h1v1h-1z M69,65h4v1h-4z M76,65h4v1h-4z M83,65h6v1h-6z M99,65h3v1h-3z M131,65h11v1h-11z M148,65h4v1h-4z M169,65h9v1h-9z M183,65h13v1h-13z M203,65h6v1h-6z M248,65h4v1h-4z M1,65h3v2h-3z M5,66h5v1h-5z M17,66h5v1h-5z M25,66h5v1h-5z M34,66h7v1h-7z M55,66h3v1h-3z M69,66h3v1h-3z M76,66h3v1h-3z M82,66h5v1h-5z M108,66h2v1h-2z M130,66h11v1h-11z M181,66h12v1h-12z M200,66h7v1h-7z M255,64h4v3h-4z M16,67h6v1h-6z M24,67h5v1h-5z M32,67h8v1h-8z M55,67h4v1h-4z M68,67h4v1h-4z M75,67h4v1h-4z M81,67h5v1h-5z M108,67h3v1h-3z M129,67h11v1h-11z M148,66h5v2h-5z M168,66h9v2h-9z M180,67h9v1h-9z M193,67h1v1h-1z M197,67h10v1h-10z M211,67h4v1h-4z M246,66h5v2h-5z M254,67h6v1h-6z M1,67h8v2h-8z M15,68h14v1h-14z M31,68h6v1h-6z M56,68h4v1h-4z M75,68h3v1h-3z M80,68h5v1h-5z M107,68h4v1h-4z M127,68h12v1h-12z M149,68h5v1h-5z M179,68h7v1h-7z M191,68h15v1h-15z M210,68h8v1h-8z M228,65h4v4h-4z M245,68h5v1h-5z M13,69h14v1h-14z M30,69h6v1h-6z M57,69h5v1h-5z M68,68h3v2h-3z M74,69h4v1h-4z M80,69h4v1h-4z M106,69h4v1h-4z M126,69h13v1h-13z M140,69h1v1h-1z M150,69h4v1h-4z M167,68h4v2h-4z M179,69h5v1h-5z M190,69h13v1h-13z M244,69h5v1h-5z M253,68h7v2h-7z M1,69h6v2h-6z M12,70h14v1h-14z M31,70h3v1h-3z M46,70h2v1h-2z M58,70h5v1h-5z M67,70h3v1h-3z M73,70h4v1h-4z M89,70h3v1h-3z M105,70h5v1h-5z M124,70h13v1h-13z M151,70h4v1h-4z M178,70h5v1h-5z M189,70h11v1h-11z M211,69h8v2h-8z M229,69h4v2h-4z M242,70h6v1h-6z M252,70h8v1h-8z M11,71h14v1h-14z M45,71h4v1h-4z M59,71h4v1h-4z M66,71h4v1h-4z M73,71h3v1h-3z M79,70h4v2h-4z M88,71h4v1h-4z M105,71h4v1h-4z M122,71h15v1h-15z M165,70h5v2h-5z M173,68h3v4h-3z M187,71h9v1h-9z M213,71h6v1h-6z M241,71h6v1h-6z M251,71h9v1h-9z M1,71h5v2h-5z M10,72h13v1h-13z M60,72h4v1h-4z M65,72h4v1h-4z M72,72h4v1h-4z M105,72h3v1h-3z M120,72h15v1h-15z M139,70h3v3h-3z M152,71h3v2h-3z M164,72h6v1h-6z M186,72h6v1h-6z M230,71h3v2h-3z M239,72h7v1h-7z M250,72h10v1h-10z M9,73h13v1h-13z M45,72h3v2h-3z M62,73h6v1h-6z M72,73h3v1h-3z M78,72h4v2h-4z M89,72h4v2h-4z M104,73h4v1h-4z M118,73h8v1h-8z M127,73h7v1h-7z M138,73h4v1h-4z M163,73h5v1h-5z M172,72h4v2h-4z M185,73h5v1h-5z M231,73h1v1h-1z M238,73h7v1h-7z M248,73h6v1h-6z M255,73h5v1h-5z M8,74h5v1h-5z M15,74h6v1h-6z M63,74h5v1h-5z M71,74h4v1h-4z M105,74h2v1h-2z M116,74h10v1h-10z M127,74h5v1h-5z M162,74h5v1h-5z M184,74h5v1h-5z M221,74h1v1h-1z M236,74h7v1h-7z M248,74h5v1h-5z M255,74h4v1h-4z M8,75h4v1h-4z M15,75h5v1h-5z M44,74h4v2h-4z M63,75h4v1h-4z M71,75h3v1h-3z M115,75h16v1h-16z M138,74h3v2h-3z M159,75h7v1h-7z M171,74h4v2h-4z M184,75h4v1h-4z M234,75h7v1h-7z M246,75h6v1h-6z M14,76h5v1h-5z M62,76h4v1h-4z M70,76h4v1h-4z M77,74h4v3h-4z M90,74h4v3h-4z M113,76h17v1h-17z M137,76h4v1h-4z M157,76h8v1h-8z M169,76h6v1h-6z M192,76h1v1h-1z M220,75h3v2h-3z M231,76h9v1h-9z M245,76h6v1h-6z M254,75h5v2h-5z M1,73h4v5h-4z M7,76h4v2h-4z M13,77h5v1h-5z M31,77h2v1h-2z M43,76h4v2h-4z M61,77h4v1h-4z M69,77h5v1h-5z M77,77h3v1h-3z M91,77h4v1h-4z M111,77h7v1h-7z M121,77h6v1h-6z M137,77h3v1h-3z M154,77h9v1h-9z M169,77h5v1h-5z M178,71h4v7h-4z M183,76h4v2h-4z M206,77h3v1h-3z M229,77h9v1h-9z M242,77h8v1h-8z M252,77h7v1h-7z M1,78h3v1h-3z M6,78h4v1h-4z M13,78h4v1h-4z M42,78h5v1h-5z M59,78h6v1h-6z M68,78h5v1h-5z M76,78h4v1h-4z M92,78h3v1h-3z M110,78h7v1h-7z M118,78h9v1h-9z M152,78h9v1h-9z M167,78h6v1h-6z M177,78h5v1h-5z M183,78h3v1h-3z M191,77h4v2h-4z M219,77h4v2h-4z M228,78h7v1h-7z M241,78h7v1h-7z M251,78h8v1h-8z M1,79h9v1h-9z M12,79h5v1h-5z M21,79h2v1h-2z M42,79h4v1h-4z M58,79h6v1h-6z M67,79h5v1h-5z M76,79h3v1h-3z M109,79h16v1h-16z M136,78h4v2h-4z M151,79h8v1h-8z M165,79h7v1h-7z M192,79h4v1h-4z M205,78h4v2h-4z M219,79h3v1h-3z M227,79h7v1h-7z M239,79h8v1h-8z M249,79h11v1h-11z M1,80h8v1h-8z M11,80h5v1h-5z M43,80h2v1h-2z M56,80h7v1h-7z M66,80h6v1h-6z M108,80h6v1h-6z M115,80h8v1h-8z M136,80h3v1h-3z M149,80h8v1h-8z M162,80h9v1h-9z M176,79h10v2h-10z M204,80h5v1h-5z M218,80h4v1h-4z M227,80h4v1h-4z M237,80h8v1h-8z M248,80h12v1h-12z M11,81h4v1h-4z M20,80h3v2h-3z M31,78h3v4h-3z M55,81h6v1h-6z M65,81h5v1h-5z M75,80h4v2h-4z M107,81h5v1h-5z M115,81h6v1h-6z M148,81h6v1h-6z M158,81h11v1h-11z M174,81h6v1h-6z M181,81h5v1h-5z M193,80h4v2h-4z M204,81h4v1h-4z M226,81h5v1h-5z M235,81h9v1h-9z M247,81h6v1h-6z M255,81h5v1h-5z M1,81h7v2h-7z M10,82h5v1h-5z M52,82h8v1h-8z M64,82h5v1h-5z M74,82h4v1h-4z M114,82h5v1h-5z M147,82h5v1h-5z M156,82h13v1h-13z M173,82h6v1h-6z M181,82h4v1h-4z M203,82h4v1h-4z M218,81h3v2h-3z M225,82h5v1h-5z M233,82h8v1h-8z M245,82h7v1h-7z M254,82h6v1h-6z M8,83h5v1h-5z M19,82h4v2h-4z M51,83h7v1h-7z M62,83h6v1h-6z M73,83h4v1h-4z M81,83h1v1h-1z M107,82h4v2h-4z M113,83h5v1h-5z M146,83h5v1h-5z M154,83h23v1h-23z M180,83h5v1h-5z M194,82h4v2h-4z M203,83h3v1h-3z M218,83h2v1h-2z M225,83h4v1h-4z M232,83h7v1h-7z M243,83h7v1h-7z M253,83h6v1h-6z M1,83h5v2h-5z M8,84h4v1h-4z M18,84h4v1h-4z M31,82h4v3h-4z M49,84h7v1h-7z M61,84h6v1h-6z M72,84h4v1h-4z M94,84h8v1h-8z M106,84h4v1h-4z M112,84h5v1h-5z M146,84h4v1h-4z M153,84h6v1h-6z M164,84h12v1h-12z M179,84h5v1h-5z M195,84h3v1h-3z M202,84h4v1h-4z M231,84h7v1h-7z M241,84h8v1h-8z M252,84h7v1h-7z M1,85h4v1h-4z M7,85h4v1h-4z M18,85h3v1h-3z M46,85h9v1h-9z M59,85h7v1h-7z M71,85h5v1h-5z M80,84h3v2h-3z M92,85h10v1h-10z M105,85h5v1h-5z M112,85h4v1h-4z M146,85h3v1h-3z M151,85h7v1h-7z M162,85h11v1h-11z M178,85h5v1h-5z M203,85h2v1h-2z M224,84h4v2h-4z M230,85h5v1h-5z M240,85h8v1h-8z M250,85h10v1h-10z M42,86h10v1h-10z M57,86h8v1h-8z M70,86h5v1h-5z M79,86h4v1h-4z M91,86h11v1h-11z M105,86h4v1h-4z M111,86h5v1h-5z M128,86h5v1h-5z M145,86h4v1h-4z M151,86h6v1h-6z M161,86h9v1h-9z M176,86h7v1h-7z M229,86h5v1h-5z M238,86h8v1h-8z M249,86h10v1h-10z M1,86h9v2h-9z M17,86h4v2h-4z M32,85h3v3h-3z M41,87h10v1h-10z M54,87h10v1h-10z M69,87h5v1h-5z M92,87h8v1h-8z M104,87h5v1h-5z M127,87h11v1h-11z M145,87h3v1h-3z M150,87h5v1h-5z M159,87h8v1h-8z M175,87h7v1h-7z M224,86h3v2h-3z M229,87h4v1h-4z M237,87h7v1h-7z M247,87h7v1h-7z M255,87h5v1h-5z M1,88h8v1h-8z M18,88h2v1h-2z M38,88h24v1h-24z M67,88h6v1h-6z M104,88h4v1h-4z M111,87h4v2h-4z M127,88h12v1h-12z M144,88h4v1h-4z M150,88h4v1h-4z M158,88h7v1h-7z M171,88h9v1h-9z M209,88h2v1h-2z M224,88h8v1h-8z M236,88h6v1h-6z M245,88h15v1h-15z M1,89h7v1h-7z M18,89h1v1h-1z M37,89h7v1h-7z M47,89h14v1h-14z M65,89h6v1h-6z M79,87h3v3h-3z M103,89h4v1h-4z M110,89h4v1h-4z M118,89h1v1h-1z M130,89h9v1h-9z M143,89h5v1h-5z M149,89h5v1h-5z M158,89h5v1h-5z M170,89h9v1h-9z M235,89h6v1h-6z M244,89h6v1h-6z M253,89h7v1h-7z M1,90h6v1h-6z M36,90h6v1h-6z M47,90h23v1h-23z M78,90h4v1h-4z M103,90h3v1h-3z M110,90h3v1h-3z M117,90h3v1h-3z M134,90h2v1h-2z M143,90h4v1h-4z M157,90h5v1h-5z M168,90h9v1h-9z M186,90h3v1h-3z M209,89h3v2h-3z M224,89h3v2h-3z M228,89h4v2h-4z M234,90h5v1h-5z M242,90h8v1h-8z M252,90h7v1h-7z M35,91h5v1h-5z M43,91h26v1h-26z M78,91h3v1h-3z M101,91h5v1h-5z M109,91h4v1h-4z M141,91h6v1h-6z M149,90h4v2h-4z M156,91h5v1h-5z M167,91h7v1h-7z M185,91h4v1h-4z M209,91h4v1h-4z M224,91h8v1h-8z M234,91h4v1h-4z M241,91h6v1h-6z M1,91h5v2h-5z M7,92h1v1h-1z M33,92h6v1h-6z M41,92h26v1h-26z M79,92h2v1h-2z M100,92h5v1h-5z M109,92h3v1h-3z M140,92h6v1h-6z M148,92h5v1h-5z M156,92h4v1h-4z M165,92h7v1h-7z M183,92h6v1h-6z M198,92h1v1h-1z M223,92h9v1h-9z M233,92h4v1h-4z M240,92h6v1h-6z M248,91h12v2h-12z M7,93h2v1h-2z M33,93h5v1h-5z M40,93h8v1h-8z M52,93h13v1h-13z M79,93h1v1h-1z M99,93h5v1h-5z M108,93h4v1h-4z M117,91h4v3h-4z M140,93h5v1h-5z M164,93h7v1h-7z M181,93h8v1h-8z M196,93h3v1h-3z M210,92h4v2h-4z M223,93h4v1h-4z M239,93h5v1h-5z M247,93h6v1h-6z M32,94h5v1h-5z M39,94h7v1h-7z M50,94h8v1h-8z M97,94h6v1h-6z M107,94h4v1h-4z M138,94h6v1h-6z M148,93h4v2h-4z M156,93h3v2h-3z M163,94h6v1h-6z M180,94h7v1h-7z M222,94h5v1h-5z M239,94h4v1h-4z M247,94h5v1h-5z M255,93h4v2h-4z M1,93h4v3h-4z M31,95h5v1h-5z M37,95h7v1h-7z M49,95h6v1h-6z M69,95h2v1h-2z M96,95h6v1h-6z M105,95h6v1h-6z M137,95h6v1h-6z M162,95h6v1h-6z M180,95h5v1h-5z M211,94h3v2h-3z M246,95h5v1h-5z M254,95h5v1h-5z M7,94h3v3h-3z M18,96h2v1h-2z M30,96h5v1h-5z M37,96h6v1h-6z M47,96h7v1h-7z M68,96h5v1h-5z M94,96h6v1h-6z M104,96h5v1h-5z M118,94h4v3h-4z M133,96h8v1h-8z M147,95h4v2h-4z M155,95h4v2h-4z M162,96h5v1h-5z M182,96h1v1h-1z M212,96h2v1h-2z M221,95h5v2h-5z M238,95h4v2h-4z M245,96h5v1h-5z M253,96h6v1h-6z M7,97h4v1h-4z M17,97h4v1h-4z M29,97h5v1h-5z M36,97h5v1h-5z M45,97h7v1h-7z M68,97h6v1h-6z M92,97h6v1h-6z M103,97h5v1h-5z M119,97h3v1h-3z M130,97h11v1h-11z M146,97h4v1h-4z M154,97h4v1h-4z M161,97h5v1h-5z M220,97h5v1h-5z M228,93h8v5h-8z M245,97h4v1h-4z M252,97h7v1h-7z M17,98h8v1h-8z M29,98h4v1h-4z M36,98h4v1h-4z M44,98h7v1h-7z M69,98h7v1h-7z M90,98h7v1h-7z M102,98h5v1h-5z M120,98h2v1h-2z M127,98h12v1h-12z M145,98h5v1h-5z M153,98h5v1h-5z M160,98h5v1h-5z M170,98h1v1h-1z M196,94h4v5h-4z M218,98h6v1h-6z M227,98h4v1h-4z M244,98h5v1h-5z M17,99h9v1h-9z M28,99h5v1h-5z M35,99h4v1h-4z M43,99h6v1h-6z M71,99h6v1h-6z M88,99h7v1h-7z M99,99h7v1h-7z M126,99h9v1h-9z M144,99h5v1h-5z M152,99h5v1h-5z M160,99h4v1h-4z M169,99h3v1h-3z M196,99h3v1h-3z M217,99h6v1h-6z M226,99h5v1h-5z M251,98h9v2h-9z M8,98h3v3h-3z M19,100h7v1h-7z M28,100h3v1h-3z M35,100h3v1h-3z M43,100h5v1h-5z M72,100h6v1h-6z M86,100h8v1h-8z M98,100h7v1h-7z M124,100h9v1h-9z M142,100h7v1h-7z M151,100h4v1h-4z M159,100h4v1h-4z M214,100h8v1h-8z M225,100h5v1h-5z M250,100h10v1h-10z M9,101h1v1h-1z M21,101h5v1h-5z M27,101h4v1h-4z M42,101h5v1h-5z M74,101h4v1h-4z M85,101h6v1h-6z M95,101h8v1h-8z M123,101h7v1h-7z M135,101h13v1h-13z M150,101h5v1h-5z M158,101h5v1h-5z M186,101h2v1h-2z M195,100h4v2h-4z M211,101h10v1h-10z M224,101h6v1h-6z M232,98h4v4h-4z M250,101h4v1h-4z M255,101h5v1h-5z M26,102h4v1h-4z M34,101h4v2h-4z M84,102h6v1h-6z M93,102h7v1h-7z M122,102h6v1h-6z M131,102h15v1h-15z M148,102h7v1h-7z M169,100h4v3h-4z M196,102h2v1h-2z M207,102h12v1h-12z M222,102h7v1h-7z M231,102h4v1h-4z M238,97h3v6h-3z M250,102h3v1h-3z M25,103h5v1h-5z M34,103h3v1h-3z M41,102h4v2h-4z M48,103h2v1h-2z M83,103h5v1h-5z M92,103h6v1h-6z M121,103h6v1h-6z M129,103h16v1h-16z M147,103h7v1h-7z M157,102h5v2h-5z M181,102h9v2h-9z M204,103h14v1h-14z M221,103h7v1h-7z M230,103h5v1h-5z M250,103h2v1h-2z M33,104h4v1h-4z M40,104h4v1h-4z M47,104h3v1h-3z M82,104h5v1h-5z M90,104h7v1h-7z M106,103h3v2h-3z M120,104h5v1h-5z M128,104h14v1h-14z M145,104h8v1h-8z M156,104h5v1h-5z M180,104h9v1h-9z M202,104h25v1h-25z M228,104h6v1h-6z M237,103h4v2h-4z M251,104h1v1h-1z M1,96h3v10h-3z M25,104h4v2h-4z M32,105h5v1h-5z M58,105h7v1h-7z M81,105h5v1h-5z M89,105h6v1h-6z M120,105h4v1h-4z M127,105h10v1h-10z M140,105h11v1h-11z M154,105h6v1h-6z M170,103h3v3h-3z M181,105h6v1h-6z M200,105h11v1h-11z M213,105h20v1h-20z M244,99h4v7h-4z M1,106h4v1h-4z M24,106h5v1h-5z M40,105h3v2h-3z M55,106h11v1h-11z M81,106h3v1h-3z M88,106h6v1h-6z M119,106h4v1h-4z M126,106h7v1h-7z M140,106h19v1h-19z M199,106h8v1h-8z M212,106h20v1h-20z M236,105h5v2h-5z M243,106h4v1h-4z M24,107h4v1h-4z M32,106h4v2h-4z M39,107h4v1h-4z M47,105h4v3h-4z M56,107h9v1h-9z M80,107h4v1h-4z M86,107h5v1h-5z M105,105h4v3h-4z M125,107h6v1h-6z M136,107h22v1h-22z M171,106h2v2h-2z M197,107h7v1h-7z M207,107h24v1h-24z M235,107h12v1h-12z M11,108h2v1h-2z M23,108h4v1h-4z M31,108h5v1h-5z M62,108h1v1h-1z M79,108h4v1h-4z M85,108h5v1h-5z M118,107h4v2h-4z M125,108h5v1h-5z M134,108h23v1h-23z M196,108h6v1h-6z M205,108h13v1h-13z M221,108h9v1h-9z M233,108h13v1h-13z M255,102h4v7h-4z M10,109h4v1h-4z M22,109h5v1h-5z M31,109h4v1h-4z M39,108h3v2h-3z M85,109h4v1h-4z M105,108h3v2h-3z M117,109h5v1h-5z M124,109h5v1h-5z M133,109h23v1h-23z M196,109h5v1h-5z M204,109h8v1h-8z M214,109h2v1h-2z M217,109h1v1h-1z M219,109h9v1h-9z M231,109h15v1h-15z M21,110h5v1h-5z M30,110h4v1h-4z M79,109h3v2h-3z M84,110h4v1h-4z M123,110h5v1h-5z M132,110h6v1h-6z M143,110h7v1h-7z M195,110h5v1h-5z M202,110h8v1h-8z M216,110h27v1h-27z M256,109h3v2h-3z M9,110h4v2h-4z M20,111h5v1h-5z M29,111h5v1h-5z M38,110h4v2h-4z M83,111h5v1h-5z M105,110h4v2h-4z M131,111h5v1h-5z M142,111h7v1h-7z M162,111h3v1h-3z M181,111h3v1h-3z M194,111h5v1h-5z M201,111h7v1h-7z M213,111h29v1h-29z M8,112h4v1h-4z M19,112h5v1h-5z M28,112h5v1h-5z M37,112h5v1h-5z M78,111h4v2h-4z M83,112h4v1h-4z M105,112h3v1h-3z M117,110h4v3h-4z M130,112h5v1h-5z M141,112h6v1h-6z M161,112h5v1h-5z M200,112h6v1h-6z M211,112h29v1h-29z M251,112h2v1h-2z M7,113h4v1h-4z M18,113h5v1h-5z M27,113h5v1h-5z M48,108h3v6h-3z M62,113h3v1h-3z M77,113h9v1h-9z M106,113h1v1h-1z M116,113h5v1h-5z M140,113h6v1h-6z M157,113h9v1h-9z M181,112h4v2h-4z M194,112h4v2h-4z M199,113h5v1h-5z M210,113h9v1h-9z M223,113h16v1h-16z M1,107h3v8h-3z M7,114h3v1h-3z M17,114h6v1h-6z M26,114h6v1h-6z M36,113h5v2h-5z M49,114h1v1h-1z M61,114h4v1h-4z M76,114h10v1h-10z M92,114h2v1h-2z M123,111h4v4h-4z M139,114h6v1h-6z M155,114h10v1h-10z M181,114h6v1h-6z M208,114h8v1h-8z M222,114h15v1h-15z M250,113h3v2h-3z M255,111h4v4h-4z M1,115h4v1h-4z M6,115h3v1h-3z M15,115h6v1h-6z M23,115h8v1h-8z M33,115h6v1h-6z M60,115h5v1h-5z M76,115h4v1h-4z M81,115h4v1h-4z M92,115h3v1h-3z M116,114h4v2h-4z M123,115h3v1h-3z M130,113h4v3h-4z M138,115h6v1h-6z M154,115h10v1h-10z M173,114h2v2h-2z M182,115h5v1h-5z M193,114h10v2h-10z M206,115h8v1h-8z M221,115h5v1h-5z M228,115h7v1h-7z M7,116h1v1h-1z M13,116h6v1h-6z M22,116h17v1h-17z M59,116h5v1h-5z M75,116h5v1h-5z M81,116h3v1h-3z M92,116h4v1h-4z M115,116h4v1h-4z M123,116h4v1h-4z M130,116h3v1h-3z M138,116h5v1h-5z M155,116h6v1h-6z M183,116h5v1h-5z M205,116h7v1h-7z M219,116h6v1h-6z M227,116h5v1h-5z M249,115h4v2h-4z M12,117h7v1h-7z M21,117h16v1h-16z M59,117h4v1h-4z M74,117h5v1h-5z M92,117h5v1h-5z M114,117h4v1h-4z M137,117h5v1h-5z M155,117h3v1h-3z M172,116h4v2h-4z M184,117h4v1h-4z M192,116h10v2h-10z M204,117h6v1h-6z M217,117h6v1h-6z M248,117h4v1h-4z M1,116h3v3h-3z M11,118h6v1h-6z M18,118h18v1h-18z M42,118h4v1h-4z M58,118h5v1h-5z M72,118h6v1h-6z M80,117h4v2h-4z M93,118h5v1h-5z M113,118h5v1h-5z M122,117h4v2h-4z M185,118h3v1h-3z M191,118h5v1h-5z M203,118h5v1h-5z M213,118h9v1h-9z M227,117h4v2h-4z M10,119h6v1h-6z M17,119h17v1h-17z M42,119h5v1h-5z M57,119h5v1h-5z M71,119h6v1h-6z M79,119h4v1h-4z M94,119h5v1h-5z M112,119h5v1h-5z M121,119h5v1h-5z M129,117h4v3h-4z M191,119h4v1h-4z M203,119h4v1h-4z M212,119h9v1h-9z M226,119h4v1h-4z M247,118h4v2h-4z M9,120h6v1h-6z M16,120h15v1h-15z M43,120h5v1h-5z M57,120h4v1h-4z M69,120h6v1h-6z M78,120h5v1h-5z M95,120h4v1h-4z M111,120h5v1h-5z M120,120h5v1h-5z M129,120h3v1h-3z M172,118h3v3h-3z M190,120h5v1h-5z M197,118h4v3h-4z M202,120h5v1h-5z M210,120h8v1h-8z M225,120h5v1h-5z M237,120h3v1h-3z M1,119h4v3h-4z M8,121h13v1h-13z M23,121h7v1h-7z M43,121h6v1h-6z M56,121h4v1h-4z M67,121h7v1h-7z M77,121h5v1h-5z M96,121h3v1h-3z M109,121h6v1h-6z M119,121h5v1h-5z M137,118h4v4h-4z M144,121h2v1h-2z M189,121h5v1h-5z M209,121h6v1h-6z M224,121h5v1h-5z M246,120h4v2h-4z M1,122h3v1h-3z M7,122h5v1h-5z M13,122h6v1h-6z M22,122h6v1h-6z M44,122h6v1h-6z M57,122h3v1h-3z M65,122h8v1h-8z M76,122h5v1h-5z M97,122h2v1h-2z M108,122h6v1h-6z M117,122h7v1h-7z M128,121h4v2h-4z M144,122h3v1h-3z M171,121h4v2h-4z M188,122h6v1h-6z M196,121h4v2h-4z M208,122h6v1h-6z M221,122h8v1h-8z M237,121h4v2h-4z M247,122h2v1h-2z M1,123h4v1h-4z M6,123h5v1h-5z M13,123h4v1h-4z M21,123h6v1h-6z M45,123h5v1h-5z M63,123h8v1h-8z M75,123h5v1h-5z M106,123h6v1h-6z M116,123h7v1h-7z M126,123h5v1h-5z M136,122h5v2h-5z M156,123h1v1h-1z M172,123h2v1h-2z M187,123h6v1h-6z M195,123h4v1h-4z M208,123h4v1h-4z M217,123h11v1h-11z M237,123h5v1h-5z M256,115h3v9h-3z M12,124h5v1h-5z M20,124h6v1h-6z M37,123h3v2h-3z M47,124h4v1h-4z M61,124h8v1h-8z M74,124h5v1h-5z M103,124h8v1h-8z M115,124h6v1h-6z M125,124h6v1h-6z M136,124h4v1h-4z M154,124h5v1h-5z M173,124h1v1h-1z M186,124h13v1h-13z M202,121h4v4h-4z M207,124h5v1h-5z M216,124h10v1h-10z M238,124h5v1h-5z M1,124h8v2h-8z M11,125h5v1h-5z M19,125h6v1h-6z M37,125h4v1h-4z M48,125h3v1h-3z M59,125h7v1h-7z M72,125h6v1h-6z M102,125h7v1h-7z M113,125h7v1h-7z M124,125h6v1h-6z M135,125h5v1h-5z M143,123h4v3h-4z M154,125h8v1h-8z M184,125h8v1h-8z M193,125h5v1h-5z M215,125h8v1h-8z M239,125h4v1h-4z M1,126h7v1h-7z M10,126h5v1h-5z M19,126h5v1h-5z M36,126h4v1h-4z M57,126h8v1h-8z M70,126h7v1h-7z M101,126h6v1h-6z M112,126h6v1h-6z M122,126h7v1h-7z M134,126h5v1h-5z M143,126h3v1h-3z M155,126h9v1h-9z M183,126h14v1h-14z M213,126h7v1h-7z M239,126h5v1h-5z M1,127h6v1h-6z M10,127h4v1h-4z M18,127h5v1h-5z M27,127h4v1h-4z M56,127h7v1h-7z M68,127h7v1h-7z M84,127h6v1h-6z M100,127h6v1h-6z M110,127h8v1h-8z M120,127h8v1h-8z M133,127h6v1h-6z M156,127h9v1h-9z M180,127h17v1h-17z M201,125h4v3h-4z M207,125h4v3h-4z M213,127h5v1h-5z M224,127h9v1h-9z M240,127h4v1h-4z M255,124h4v4h-4z M1,128h5v1h-5z M9,128h4v1h-4z M18,128h4v1h-4z M25,128h6v1h-6z M36,127h3v2h-3z M54,128h6v1h-6z M65,128h8v1h-8z M81,128h10v1h-10z M99,128h5v1h-5z M109,128h7v1h-7z M119,128h7v1h-7z M131,128h7v1h-7z M158,128h6v1h-6z M178,128h18v1h-18z M199,128h5v1h-5z M206,128h4v1h-4z M212,128h5v1h-5z M223,128h11v1h-11z M255,128h5v1h-5z M8,129h4v1h-4z M17,129h5v1h-5z M24,129h7v1h-7z M53,129h6v1h-6z M62,129h10v1h-10z M77,129h12v1h-12z M98,129h5v1h-5z M107,129h18v1h-18z M130,129h7v1h-7z M175,129h35v1h-35z M212,129h4v1h-4z M224,129h10v1h-10z M241,128h3v2h-3z M256,129h4v1h-4z M7,130h4v1h-4z M16,130h5v1h-5z M23,130h7v1h-7z M51,130h6v1h-6z M60,130h9v1h-9z M77,130h11v1h-11z M97,130h5v1h-5z M107,130h6v1h-6z M114,130h9v1h-9z M128,130h7v1h-7z M142,127h4v4h-4z M173,130h36v1h-36z M211,130h4v1h-4z M224,130h9v1h-9z M256,130h3v1h-3z M1,129h4v3h-4z M6,131h4v1h-4z M16,131h4v1h-4z M23,131h5v1h-5z M51,131h5v1h-5z M59,131h9v1h-9z M79,131h5v1h-5z M96,131h5v1h-5z M106,131h6v1h-6z M113,131h9v1h-9z M126,131h7v1h-7z M143,131h2v1h-2z M172,131h36v1h-36z M210,131h5v1h-5z M225,131h1v1h-1z M255,131h4v1h-4z M15,132h5v1h-5z M25,132h1v1h-1z M35,129h4v4h-4z M50,132h5v1h-5z M57,132h7v1h-7z M95,132h6v1h-6z M105,132h5v1h-5z M112,132h9v1h-9z M125,132h9v1h-9z M143,132h1v1h-1z M156,132h1v1h-1z M167,132h52v1h-52z M221,132h13v1h-13z M239,132h2v1h-2z M244,132h2v1h-2z M251,132h9v1h-9z M14,133h5v1h-5z M35,133h3v1h-3z M49,133h5v1h-5z M56,133h7v1h-7z M93,133h8v1h-8z M104,133h156v1h-156z M1,132h8v3h-8z M12,134h6v1h-6z M36,134h3v1h-3z M47,134h23v1h-23z M71,134h189v1h-189z M1,135h259v1h-259z M1,136h258v1h-258z M2,137h131v1h-131z M134,137h1v1h-1z M136,137h11v1h-11z M148,137h1v1h-1z M2,138h53v1h-53z M60,138h1v1h-1z M63,138h7v1h-7z M5,139h6v1h-6z M18,139h1v1h-1z M21,139h2v1h-2z M7,140h2v1h-2z
  "/>
</svg>