<?xml version="1.0" encoding="UTF-8"?>
<svg xmlns="http://www.w3.org/2000/svg" viewBox="0 0 267 138" width="267" height="138">
  <title>04 Glacial till and moraines a</title>
  <path fill="#111111" fill-rule="nonzero" d="
    M240,0h2v1h-2z M3,1h44v1h-44z M48,1h2v1h-2z M54,1h5v1h-5z M61,1h7v1h-7z M70,1h14v1h-14z M92,1h2v1h-2z M103,1h1v1h-1z M108,1h2v1h-2z M125,1h1v1h-1z M150,1h2v1h-2z M158,1h1v1h-1z M181,1h1v1h-1z M189,1h3v1h-3z M195,1h2v1h-2z M200,1h11v1h-11z M216,1h2v1h-2z M221,1h1v1h-1z M225,1h40v1h-40z M2,2h263v2h-263z M2,4h18v1h-18z M21,4h3v1h-3z M26,4h1v1h-1z M28,4h7v1h-7z M37,4h228v1h-228z M68,5h3v1h-3z M92,5h6v1h-6z M108,5h2v1h-2z M115,5h2v1h-2z M125,5h11v1h-11z M138,5h2v1h-2z M143,5h4v1h-4z M163,5h12v1h-12z M181,5h5v1h-5z M203,5h2v1h-2z M207,5h10v1h-10z M222,5h6v1h-6z M230,5h5v1h-5z M241,5h3v1h-3z M253,5h4v1h-4z M10,6h1v1h-1z M37,6h3v1h-3z M54,5h7v2h-7z M67,6h4v1h-4z M113,6h3v1h-3z M131,6h4v1h-4z M156,5h2v2h-2z M168,6h7v1h-7z M182,6h3v1h-3z M208,6h9v1h-9z M223,6h5v1h-5z M231,6h3v1h-3z M241,6h2v1h-2z M254,6h4v1h-4z M261,5h5v2h-5z M9,7h3v1h-3z M21,7h2v1h-2z M81,7h3v1h-3z M157,7h1v1h-1z M164,6h3v2h-3z M182,7h2v1h-2z M189,5h4v3h-4z M203,6h1v2h-1z M209,7h7v1h-7z M221,7h8v1h-8z M232,7h2v1h-2z M247,7h4v1h-4z M254,7h3v1h-3z M260,7h5v1h-5z M8,8h4v1h-4z M37,7h4v2h-4z M67,7h5v2h-5z M81,8h4v1h-4z M92,6h5v3h-5z M113,7h4v2h-4z M126,6h3v3h-3z M131,7h3v2h-3z M137,6h3v3h-3z M144,6h3v3h-3z M165,8h1v1h-1z M168,7h8v2h-8z M190,8h4v1h-4z M209,8h6v1h-6z M220,8h9v1h-9z M9,9h3v1h-3z M20,8h4v2h-4z M38,9h1v1h-1z M54,7h8v3h-8z M68,9h2v1h-2z M80,9h5v1h-5z M93,9h2v1h-2z M113,9h3v1h-3z M126,9h2v1h-2z M169,9h7v1h-7z M212,9h2v1h-2z M259,8h6v2h-6z M9,10h2v1h-2z M21,10h2v1h-2z M43,10h5v1h-5z M54,10h7v1h-7z M81,10h3v1h-3z M105,10h2v1h-2z M169,10h6v1h-6z M192,9h8v2h-8z M220,9h8v2h-8z M260,10h5v1h-5z M29,11h2v1h-2z M42,11h7v1h-7z M55,11h5v1h-5z M94,11h2v1h-2z M118,11h7v1h-7z M131,9h4v3h-4z M141,11h5v1h-5z M151,10h2v2h-2z M170,11h3v1h-3z M185,11h1v1h-1z M192,11h9v1h-9z M220,11h7v1h-7z M241,11h1v1h-1z M246,8h7v4h-7z M262,11h4v1h-4z M41,12h8v1h-8z M57,12h2v1h-2z M72,12h4v1h-4z M93,12h5v1h-5z M104,11h4v2h-4z M118,12h8v1h-8z M131,12h5v1h-5z M140,12h7v1h-7z M157,12h3v1h-3z M164,12h2v1h-2z M177,12h2v1h-2z M206,12h3v1h-3z M215,12h2v1h-2z M221,12h6v1h-6z M240,12h3v1h-3z M247,12h6v1h-6z M20,13h2v1h-2z M28,12h3v2h-3z M41,13h9v1h-9z M72,13h5v1h-5z M91,13h8v1h-8z M105,13h2v1h-2z M117,13h10v1h-10z M139,13h9v1h-9z M157,13h2v1h-2z M184,12h3v2h-3z M193,12h8v2h-8z M215,13h1v1h-1z M222,13h3v1h-3z M227,13h2v1h-2z M241,13h2v1h-2z M247,13h5v1h-5z M255,13h2v1h-2z M19,14h4v1h-4z M28,14h2v1h-2z M41,14h11v1h-11z M71,14h7v1h-7z M90,14h10v1h-10z M116,14h11v1h-11z M131,13h7v2h-7z M163,13h3v2h-3z M171,14h2v1h-2z M185,14h1v1h-1z M194,14h6v1h-6z M206,13h2v2h-2z M248,14h4v1h-4z M17,15h7v1h-7z M89,15h12v1h-12z M131,15h5v1h-5z M140,14h8v2h-8z M162,15h4v1h-4z M190,15h1v1h-1z M195,15h4v1h-4z M227,14h4v2h-4z M248,15h3v1h-3z M7,16h4v1h-4z M15,16h11v1h-11z M59,16h3v1h-3z M70,15h9v2h-9z M88,16h14v1h-14z M131,16h4v1h-4z M141,16h6v1h-6z M159,16h8v1h-8z M170,15h3v2h-3z M178,16h3v1h-3z M209,16h5v1h-5z M227,16h3v1h-3z M234,16h2v1h-2z M7,17h5v1h-5z M14,17h13v1h-13z M88,17h15v1h-15z M142,17h4v1h-4z M157,17h10v1h-10z M175,17h8v1h-8z M189,16h4v2h-4z M201,17h2v1h-2z M228,17h10v1h-10z M249,16h2v2h-2z M255,17h3v1h-3z M8,18h19v1h-19z M34,15h3v4h-3z M41,15h12v4h-12z M58,17h4v2h-4z M71,17h8v2h-8z M116,15h10v4h-10z M140,18h1v1h-1z M152,17h3v2h-3z M156,18h12v1h-12z M190,18h2v1h-2z M208,17h7v2h-7z M229,18h9v1h-9z M249,18h1v1h-1z M255,18h4v1h-4z M42,19h10v1h-10z M59,19h3v1h-3z M72,19h5v1h-5z M87,18h17v2h-17z M118,19h8v1h-8z M156,19h4v1h-4z M164,19h5v1h-5z M195,19h1v1h-1z M201,18h3v2h-3z M207,19h8v1h-8z M218,17h3v3h-3z M228,19h11v1h-11z M255,19h3v1h-3z M12,19h15v2h-15z M43,20h8v1h-8z M59,20h2v1h-2z M119,20h6v1h-6z M131,17h3v4h-3z M139,19h3v2h-3z M165,20h4v1h-4z M175,18h9v3h-9z M219,20h2v1h-2z M245,20h2v1h-2z M13,21h13v1h-13z M43,21h7v1h-7z M87,20h16v2h-16z M122,21h2v1h-2z M130,21h4v1h-4z M146,20h2v2h-2z M156,20h3v2h-3z M166,21h3v1h-3z M176,21h8v1h-8z M208,20h6v2h-6z M219,21h5v1h-5z M228,20h10v2h-10z M245,21h3v1h-3z M14,22h12v1h-12z M45,22h3v1h-3z M88,22h15v1h-15z M131,22h3v1h-3z M156,22h4v1h-4z M164,22h5v1h-5z M177,22h6v1h-6z M194,20h3v3h-3z M209,22h4v1h-4z M218,22h7v1h-7z M229,22h9v1h-9z M246,22h3v1h-3z M250,22h4v1h-4z M258,22h1v1h-1z M14,23h10v1h-10z M53,23h1v1h-1z M94,23h8v1h-8z M104,23h1v1h-1z M114,22h4v2h-4z M131,23h4v1h-4z M137,23h1v1h-1z M142,23h2v1h-2z M156,23h13v1h-13z M179,23h3v1h-3z M186,23h2v1h-2z M195,23h1v1h-1z M215,23h11v1h-11z M230,23h6v1h-6z M247,23h8v1h-8z M15,24h8v1h-8z M30,24h2v1h-2z M51,24h3v1h-3z M83,24h3v1h-3z M95,24h6v1h-6z M114,24h3v1h-3z M126,24h3v1h-3z M131,24h8v1h-8z M149,24h2v1h-2z M156,24h12v1h-12z M180,24h2v1h-2z M195,24h4v1h-4z M215,24h5v1h-5z M221,24h5v1h-5z M247,24h9v1h-9z M257,23h3v2h-3z M2,5h3v21h-3z M15,25h7v1h-7z M51,25h4v1h-4z M74,24h2v2h-2z M82,25h4v1h-4z M125,25h4v1h-4z M131,25h4v1h-4z M136,25h3v1h-3z M142,24h3v2h-3z M149,25h3v1h-3z M155,25h13v1h-13z M179,25h3v1h-3z M194,25h6v1h-6z M207,25h2v1h-2z M215,25h4v1h-4z M239,24h3v2h-3z M246,25h10v1h-10z M1,26h4v1h-4z M10,26h2v1h-2z M17,26h3v1h-3z M29,25h4v2h-4z M52,26h4v1h-4z M83,26h3v1h-3z M103,24h4v3h-4z M126,26h3v1h-3z M149,26h2v1h-2z M155,26h5v1h-5z M165,26h3v1h-3z M173,26h1v1h-1z M179,26h4v1h-4z M193,26h8v1h-8z M215,26h5v1h-5z M222,25h4v2h-4z M229,26h4v1h-4z M240,26h2v1h-2z M262,12h3v15h-3z M2,27h3v1h-3z M30,27h2v1h-2z M40,26h3v2h-3z M52,27h7v1h-7z M104,27h2v1h-2z M127,27h1v1h-1z M150,27h1v1h-1z M166,27h2v1h-2z M172,27h3v1h-3z M180,27h2v1h-2z M216,27h9v1h-9z M229,27h8v1h-8z M246,26h8v2h-8z M260,27h5v1h-5z M9,27h4v2h-4z M41,28h2v1h-2z M52,28h8v1h-8z M131,26h3v3h-3z M173,28h1v1h-1z M192,27h9v2h-9z M213,28h2v1h-2z M218,28h6v1h-6z M228,28h9v1h-9z M246,28h7v1h-7z M8,29h5v1h-5z M57,29h4v1h-4z M103,29h4v1h-4z M131,29h5v1h-5z M140,29h5v1h-5z M160,29h2v1h-2z M192,29h8v1h-8z M219,29h5v1h-5z M227,29h10v1h-10z M247,29h4v1h-4z M253,29h3v1h-3z M259,28h6v2h-6z M1,28h4v3h-4z M6,30h8v1h-8z M50,29h4v2h-4z M58,30h4v1h-4z M72,30h2v1h-2z M101,30h7v1h-7z M117,30h3v1h-3z M131,30h7v1h-7z M139,30h7v1h-7z M178,30h2v1h-2z M193,30h6v1h-6z M202,30h3v1h-3z M226,30h12v1h-12z M248,30h1v1h-1z M260,30h5v1h-5z M2,31h14v1h-14z M20,31h3v1h-3z M49,31h4v1h-4z M69,31h7v1h-7z M91,29h3v3h-3z M99,31h10v1h-10z M131,31h16v1h-16z M151,29h2v3h-2z M159,30h3v2h-3z M170,31h4v1h-4z M177,31h4v1h-4z M185,29h3v3h-3z M195,31h3v1h-3z M203,31h2v1h-2z M212,29h3v3h-3z M224,31h6v1h-6z M253,30h2v2h-2z M261,31h4v1h-4z M2,32h7v1h-7z M13,32h4v1h-4z M21,32h2v1h-2z M29,32h2v1h-2z M47,32h6v1h-6z M59,31h3v2h-3z M68,32h8v1h-8z M98,32h12v1h-12z M117,31h4v2h-4z M131,32h6v1h-6z M139,32h8v1h-8z M160,32h1v1h-1z M165,32h2v1h-2z M170,32h5v1h-5z M178,32h3v1h-3z M224,32h4v1h-4z M242,30h2v3h-2z M14,33h4v1h-4z M28,33h4v1h-4z M35,33h3v1h-3z M58,33h4v1h-4z M68,33h9v1h-9z M99,33h14v1h-14z M118,33h1v1h-1z M131,33h4v1h-4z M140,33h6v1h-6z M164,33h4v1h-4z M169,33h7v1h-7z M206,33h4v1h-4z M223,33h4v1h-4z M234,31h4v3h-4z M2,33h6v2h-6z M16,34h3v1h-3z M47,33h7v2h-7z M57,34h4v1h-4z M67,34h10v1h-10z M83,34h1v1h-1z M99,34h16v1h-16z M140,34h5v1h-5z M164,34h13v1h-13z M206,34h7v1h-7z M218,33h1v2h-1z M234,34h3v1h-3z M248,34h1v1h-1z M258,34h2v1h-2z M17,35h3v1h-3z M29,34h11v2h-11z M48,35h13v1h-13z M66,35h11v1h-11z M99,35h17v1h-17z M140,35h2v1h-2z M148,35h2v1h-2z M165,35h12v1h-12z M191,34h2v2h-2z M206,35h8v1h-8z M233,35h4v1h-4z M247,35h3v1h-3z M258,35h3v1h-3z M2,35h5v2h-5z M17,36h4v1h-4z M29,36h12v1h-12z M51,36h8v1h-8z M65,36h12v1h-12z M82,35h3v2h-3z M100,36h17v1h-17z M147,36h3v1h-3z M155,36h1v1h-1z M167,36h10v1h-10z M185,36h1v1h-1z M192,36h1v1h-1z M198,34h3v3h-3z M222,34h4v3h-4z M232,36h5v1h-5z M259,36h1v1h-1z M51,37h7v1h-7z M101,37h16v1h-16z M138,37h1v1h-1z M148,37h2v1h-2z M154,37h4v1h-4z M184,37h2v1h-2z M222,37h7v1h-7z M230,37h8v1h-8z M248,36h2v2h-2z M253,36h3v2h-3z M1,37h6v2h-6z M18,37h3v2h-3z M28,37h14v2h-14z M52,38h5v1h-5z M64,37h13v2h-13z M102,38h15v1h-15z M126,36h3v3h-3z M142,38h1v1h-1z M153,38h7v1h-7z M167,37h9v2h-9z M206,36h9v3h-9z M222,38h16v1h-16z M246,38h5v1h-5z M254,38h1v1h-1z M2,39h6v1h-6z M17,39h4v1h-4z M63,39h13v1h-13z M127,39h1v1h-1z M168,39h6v1h-6z M188,39h6v1h-6z M206,39h8v1h-8z M224,39h9v1h-9z M234,39h3v1h-3z M244,39h8v1h-8z M2,40h8v1h-8z M16,40h5v1h-5z M27,39h15v2h-15z M64,40h12v1h-12z M103,39h13v2h-13z M167,40h3v1h-3z M178,40h2v1h-2z M207,40h5v1h-5z M228,40h3v1h-3z M258,40h1v1h-1z M2,41h18v1h-18z M22,41h2v1h-2z M27,41h14v1h-14z M65,41h11v1h-11z M91,40h4v2h-4z M104,41h12v1h-12z M136,41h2v1h-2z M141,39h3v3h-3z M149,41h2v1h-2z M166,41h5v1h-5z M177,41h4v1h-4z M217,41h1v1h-1z M242,40h10v2h-10z M258,41h3v1h-3z M8,42h11v1h-11z M26,42h14v1h-14z M67,42h7v1h-7z M92,42h3v1h-3z M105,42h10v1h-10z M119,42h2v1h-2z M136,42h9v1h-9z M148,42h3v1h-3z M154,39h7v4h-7z M165,42h7v1h-7z M178,42h2v1h-2z M205,42h2v1h-2z M229,41h2v2h-2z M242,42h9v1h-9z M258,42h2v1h-2z M8,43h9v1h-9z M22,42h3v2h-3z M26,43h13v1h-13z M53,43h2v1h-2z M69,43h4v1h-4z M118,43h3v1h-3z M136,43h10v1h-10z M149,43h1v1h-1z M154,43h6v1h-6z M164,43h8v1h-8z M187,40h7v4h-7z M204,43h3v1h-3z M243,43h8v1h-8z M26,44h11v1h-11z M52,44h4v1h-4z M106,43h8v2h-8z M118,44h4v1h-4z M139,44h8v1h-8z M155,44h5v1h-5z M204,44h4v1h-4z M211,44h1v1h-1z M237,44h1v1h-1z M245,44h3v1h-3z M262,32h3v13h-3z M1,42h4v4h-4z M26,45h10v1h-10z M42,45h2v1h-2z M53,45h2v1h-2z M82,45h2v1h-2z M106,45h7v1h-7z M119,45h2v1h-2z M139,45h9v1h-9z M156,45h2v1h-2z M163,44h9v2h-9z M183,45h2v1h-2z M187,44h8v2h-8z M206,45h1v1h-1z M210,45h3v1h-3z M236,45h2v1h-2z M257,45h8v1h-8z M27,46h8v1h-8z M81,46h3v1h-3z M106,46h5v1h-5z M139,46h3v1h-3z M144,46h4v1h-4z M164,46h8v1h-8z M188,46h6v1h-6z M197,44h3v3h-3z M228,46h4v1h-4z M243,46h1v1h-1z M251,46h3v1h-3z M256,46h9v1h-9z M7,44h3v4h-3z M27,47h6v1h-6z M41,46h4v2h-4z M63,47h1v1h-1z M81,47h4v1h-4z M100,45h3v3h-3z M138,47h3v1h-3z M145,47h4v1h-4z M151,47h3v1h-3z M166,47h6v1h-6z M176,47h1v1h-1z M182,46h4v2h-4z M188,47h5v1h-5z M217,47h1v1h-1z M226,47h7v1h-7z M252,47h2v1h-2z M15,48h3v1h-3z M28,48h4v1h-4z M42,48h2v1h-2z M81,48h3v1h-3z M100,48h2v1h-2z M131,34h3v15h-3z M137,48h4v1h-4z M145,48h9v1h-9z M168,48h3v1h-3z M174,48h3v1h-3z M183,48h3v1h-3z M189,48h4v1h-4z M242,47h3v2h-3z M14,49h4v1h-4z M62,48h3v2h-3z M126,49h9v1h-9z M137,49h3v1h-3z M145,49h5v1h-5z M151,49h3v1h-3z M173,49h5v1h-5z M203,48h3v2h-3z M216,48h3v2h-3z M255,47h10v3h-10z M15,50h3v1h-3z M44,50h5v1h-5z M62,50h2v1h-2z M90,50h4v1h-4z M126,50h15v1h-15z M144,50h6v1h-6z M158,50h1v1h-1z M188,50h1v1h-1z M203,50h11v1h-11z M225,48h8v3h-8z M256,50h4v1h-4z M262,50h3v1h-3z M16,51h1v1h-1z M43,51h7v1h-7z M72,51h2v1h-2z M87,51h8v1h-8z M114,51h2v1h-2z M126,51h24v1h-24z M158,51h2v1h-2z M172,50h6v2h-6z M187,51h3v1h-3z M203,51h12v1h-12z M225,51h6v1h-6z M257,51h2v1h-2z M261,51h4v1h-4z M42,52h10v1h-10z M71,52h4v1h-4z M113,52h5v1h-5z M131,52h5v1h-5z M138,52h12v1h-12z M158,52h1v1h-1z M164,52h2v1h-2z M172,52h5v1h-5z M187,52h4v1h-4z M197,51h3v2h-3z M203,52h13v1h-13z M226,52h4v1h-4z M235,51h3v2h-3z M260,52h5v1h-5z M34,52h4v2h-4z M70,53h5v1h-5z M86,52h10v2h-10z M105,53h2v1h-2z M114,53h4v1h-4z M131,53h4v1h-4z M139,53h7v1h-7z M148,53h1v1h-1z M156,53h4v1h-4z M173,53h3v1h-3z M188,53h2v1h-2z M198,53h1v1h-1z M202,53h5v1h-5z M241,53h2v1h-2z M2,46h3v9h-3z M22,53h3v2h-3z M34,54h3v1h-3z M60,54h1v1h-1z M71,54h4v1h-4z M85,54h11v1h-11z M115,54h1v1h-1z M139,54h1v1h-1z M141,54h1v1h-1z M154,54h6v1h-6z M201,54h5v1h-5z M212,53h4v2h-4z M226,53h1v2h-1z M242,54h7v1h-7z M250,53h4v2h-4z M259,53h6v2h-6z M8,55h3v1h-3z M42,53h12v3h-12z M83,55h13v1h-13z M118,55h6v1h-6z M131,54h3v2h-3z M154,55h7v1h-7z M180,54h2v2h-2z M191,55h2v1h-2z M211,55h5v1h-5z M225,55h2v1h-2z M244,55h9v1h-9z M260,55h5v1h-5z M8,56h4v1h-4z M42,56h13v1h-13z M82,56h14v1h-14z M104,54h4v3h-4z M117,56h8v1h-8z M153,56h8v1h-8z M209,56h6v1h-6z M226,56h1v1h-1z M232,56h1v1h-1z M8,57h3v1h-3z M43,57h11v1h-11z M59,55h3v3h-3z M81,57h15v1h-15z M116,57h10v1h-10z M138,55h2v3h-2z M143,57h3v1h-3z M191,56h3v2h-3z M201,55h4v3h-4z M207,57h7v1h-7z M230,57h4v1h-4z M9,58h2v1h-2z M44,58h10v1h-10z M115,58h11v1h-11z M142,58h4v1h-4z M154,57h7v2h-7z M192,58h1v1h-1z M201,58h12v1h-12z M230,58h6v1h-6z M238,58h1v1h-1z M244,56h8v3h-8z M17,59h3v1h-3z M48,59h5v1h-5z M81,58h14v2h-14z M114,59h12v1h-12z M143,59h3v1h-3z M150,59h2v1h-2z M155,59h5v1h-5z M163,59h1v1h-1z M185,59h2v1h-2z M202,59h11v1h-11z M2,55h2v6h-2z M15,60h8v1h-8z M66,60h3v1h-3z M81,60h13v1h-13z M115,60h10v1h-10z M130,56h4v5h-4z M144,60h1v1h-1z M157,60h2v1h-2z M163,60h2v1h-2z M175,60h2v1h-2z M184,60h6v1h-6z M203,60h4v1h-4z M211,60h2v1h-2z M229,59h7v2h-7z M245,59h7v2h-7z M255,60h1v1h-1z M15,61h10v1h-10z M29,59h3v3h-3z M41,60h3v2h-3z M82,61h11v1h-11z M115,61h9v1h-9z M131,61h3v1h-3z M149,60h4v2h-4z M158,61h1v1h-1z M184,61h8v1h-8z M226,61h2v1h-2z M230,61h5v1h-5z M246,61h5v1h-5z M254,61h4v1h-4z M262,56h3v6h-3z M15,62h11v1h-11z M41,62h2v1h-2z M65,61h5v2h-5z M83,62h9v1h-9z M97,61h4v2h-4z M109,62h2v1h-2z M117,62h7v1h-7z M130,62h4v1h-4z M136,61h3v2h-3z M149,62h3v1h-3z M157,62h2v1h-2z M169,62h4v1h-4z M198,62h1v1h-1z M203,62h2v1h-2z M225,62h3v1h-3z M232,62h2v1h-2z M247,62h3v1h-3z M256,62h1v1h-1z M14,63h13v1h-13z M54,63h3v1h-3z M66,63h3v1h-3z M79,63h2v1h-2z M87,63h3v1h-3z M98,63h3v1h-3z M109,63h3v1h-3z M119,63h3v1h-3z M127,63h7v1h-7z M137,63h1v1h-1z M157,63h1v1h-1z M167,63h7v1h-7z M184,62h9v2h-9z M197,63h3v1h-3z M202,63h3v1h-3z M225,63h2v1h-2z M241,62h3v2h-3z M54,64h4v1h-4z M108,64h4v1h-4z M126,64h8v1h-8z M143,64h3v1h-3z M166,64h8v1h-8z M186,64h6v1h-6z M198,64h1v1h-1z M203,64h2v1h-2z M223,64h4v1h-4z M242,64h2v1h-2z M260,62h5v3h-5z M2,61h3v5h-3z M10,65h3v1h-3z M14,64h12v2h-12z M54,65h3v1h-3z M109,65h2v1h-2z M127,65h7v1h-7z M142,65h5v1h-5z M164,65h10v1h-10z M187,65h3v1h-3z M221,65h7v1h-7z M261,65h4v1h-4z M78,64h4v3h-4z M128,66h6v1h-6z M210,65h4v2h-4z M233,65h3v2h-3z M9,66h4v2h-4z M15,66h10v2h-10z M34,66h4v2h-4z M70,67h4v1h-4z M116,67h4v1h-4z M130,67h6v1h-6z M141,66h7v2h-7z M151,66h2v2h-2z M162,66h12v2h-12z M193,67h2v1h-2z M202,67h6v1h-6z M211,67h2v1h-2z M10,68h2v1h-2z M16,68h8v1h-8z M34,68h2v1h-2z M68,68h8v1h-8z M115,68h5v1h-5z M130,68h4v1h-4z M150,68h3v1h-3z M162,68h2v1h-2z M166,68h7v1h-7z M193,68h3v1h-3z M201,68h7v1h-7z M255,68h5v1h-5z M16,69h7v1h-7z M28,69h2v1h-2z M48,69h5v1h-5z M67,69h9v1h-9z M110,69h10v1h-10z M151,69h2v1h-2z M167,69h6v1h-6z M200,69h8v1h-8z M220,66h8v4h-8z M239,69h2v1h-2z M254,69h7v1h-7z M17,70h6v1h-6z M27,70h3v1h-3z M36,70h4v1h-4z M46,70h7v1h-7z M62,70h2v1h-2z M108,70h12v1h-12z M140,68h8v3h-8z M157,69h1v2h-1z M168,70h4v1h-4z M216,69h1v2h-1z M220,70h7v1h-7z M238,70h4v1h-4z M253,70h8v1h-8z M19,71h2v1h-2z M35,71h19v1h-19z M60,71h5v1h-5z M66,70h10v2h-10z M93,70h3v2h-3z M107,71h11v1h-11z M143,71h3v1h-3z M201,70h7v2h-7z M215,71h1v1h-1z M221,71h5v1h-5z M237,71h5v1h-5z M252,71h9v1h-9z M2,66h2v7h-2z M27,71h4v2h-4z M34,72h20v1h-20z M60,72h4v1h-4z M67,72h9v1h-9z M94,72h2v1h-2z M105,72h6v1h-6z M115,72h3v1h-3z M124,72h2v1h-2z M144,72h1v1h-1z M165,72h2v1h-2z M189,72h2v1h-2z M202,72h6v1h-6z M224,72h1v1h-1z M1,73h3v1h-3z M27,73h3v1h-3z M34,73h19v1h-19z M61,73h3v1h-3z M68,73h7v1h-7z M85,73h1v1h-1z M104,73h5v1h-5z M123,73h3v1h-3z M131,69h3v5h-3z M136,73h2v1h-2z M143,73h3v1h-3z M182,73h1v1h-1z M185,73h7v1h-7z M198,73h1v1h-1z M204,73h3v1h-3z M231,72h2v2h-2z M237,72h6v2h-6z M252,72h8v2h-8z M7,74h2v1h-2z M15,74h3v1h-3z M27,74h2v1h-2z M69,74h5v1h-5z M84,74h3v1h-3z M103,74h4v1h-4z M115,73h4v2h-4z M122,74h4v1h-4z M142,74h4v1h-4z M149,74h3v1h-3z M164,73h4v2h-4z M180,74h12v1h-12z M205,74h1v1h-1z M253,74h7v1h-7z M15,75h4v1h-4z M33,74h20v2h-20z M70,75h3v1h-3z M83,75h4v1h-4z M102,75h4v1h-4z M116,75h3v1h-3z M123,75h2v1h-2z M135,74h3v2h-3z M143,75h2v1h-2z M148,75h4v1h-4z M178,75h4v1h-4z M186,75h5v1h-5z M258,75h2v1h-2z M262,66h3v10h-3z M1,74h4v3h-4z M6,75h4v2h-4z M15,76h3v1h-3z M34,76h18v1h-18z M83,76h3v1h-3z M101,76h4v1h-4z M115,76h5v1h-5z M149,76h3v1h-3z M178,76h3v1h-3z M236,74h7v3h-7z M7,77h2v1h-2z M35,77h17v1h-17z M100,77h4v1h-4z M130,74h4v4h-4z M153,77h4v1h-4z M177,77h2v1h-2z M186,76h4v2h-4z M194,77h2v1h-2z M205,75h2v3h-2z M214,76h2v2h-2z M237,77h6v1h-6z M258,76h7v2h-7z M27,78h1v1h-1z M36,78h15v1h-15z M115,77h4v2h-4z M140,78h1v1h-1z M152,78h8v1h-8z M171,76h2v3h-2z M176,78h3v1h-3z M186,78h3v1h-3z M194,78h3v1h-3z M238,78h4v1h-4z M260,78h5v1h-5z M26,79h3v1h-3z M38,79h13v1h-13z M66,79h3v1h-3z M78,79h2v1h-2z M100,78h3v2h-3z M114,79h5v1h-5z M130,78h3v2h-3z M146,79h2v1h-2z M152,79h9v1h-9z M166,79h1v1h-1z M176,79h2v1h-2z M185,79h4v1h-4z M194,79h2v1h-2z M250,79h2v1h-2z M39,80h11v1h-11z M55,80h2v1h-2z M77,80h3v1h-3z M96,80h1v1h-1z M113,80h5v1h-5z M128,80h5v1h-5z M139,79h2v2h-2z M153,80h9v1h-9z M176,80h3v1h-3z M184,80h5v1h-5z M25,80h4v2h-4z M40,81h8v1h-8z M66,80h4v2h-4z M77,81h4v1h-4z M95,81h3v1h-3z M99,80h3v2h-3z M112,81h6v1h-6z M127,81h7v1h-7z M145,80h4v2h-4z M153,81h8v1h-8z M165,80h3v2h-3z M176,81h12v1h-12z M199,80h2v2h-2z M244,80h2v2h-2z M256,81h2v1h-2z M1,77h3v6h-3z M27,82h1v1h-1z M54,81h3v2h-3z M66,82h3v1h-3z M77,82h9v1h-9z M94,82h9v1h-9z M110,82h8v1h-8z M126,82h8v1h-8z M146,82h1v1h-1z M154,82h7v1h-7z M177,82h10v1h-10z M200,82h2v1h-2z M203,82h1v1h-1z M208,80h3v3h-3z M216,82h6v1h-6z M226,81h1v2h-1z M262,79h3v4h-3z M55,83h2v1h-2z M77,83h11v1h-11z M94,83h4v1h-4z M100,83h5v1h-5z M108,83h8v1h-8z M127,83h7v1h-7z M140,83h2v1h-2z M155,83h6v1h-6z M177,83h8v1h-8z M190,82h2v2h-2z M200,83h6v1h-6z M216,83h7v1h-7z M238,83h2v1h-2z M255,82h3v2h-3z M260,83h5v1h-5z M11,84h2v1h-2z M18,83h3v2h-3z M56,84h1v1h-1z M76,84h13v1h-13z M94,84h3v1h-3z M100,84h13v1h-13z M139,84h4v1h-4z M150,84h3v1h-3z M156,84h4v1h-4z M181,84h1v1h-1z M216,84h8v1h-8z M238,84h3v1h-3z M248,84h4v1h-4z M2,83h2v3h-2z M9,85h6v1h-6z M19,85h1v1h-1z M57,85h3v1h-3z M75,85h14v1h-14z M101,85h11v1h-11z M117,83h4v3h-4z M130,84h4v2h-4z M138,85h6v1h-6z M150,85h4v1h-4z M213,85h11v1h-11z M238,85h2v1h-2z M8,86h7v1h-7z M42,86h2v1h-2z M56,86h4v1h-4z M74,86h15v1h-15z M101,86h5v1h-5z M107,86h1v1h-1z M118,86h2v1h-2z M131,86h3v1h-3z M199,84h7v3h-7z M216,86h8v1h-8z M32,87h3v1h-3z M55,87h6v1h-6z M137,86h7v2h-7z M151,86h2v2h-2z M163,85h2v3h-2z M198,87h8v1h-8z M213,86h2v2h-2z M230,86h2v2h-2z M247,85h6v3h-6z M29,88h7v1h-7z M55,88h7v1h-7z M73,87h15v2h-15z M102,87h3v2h-3z M122,88h4v1h-4z M137,88h6v1h-6z M146,88h2v1h-2z M169,87h2v2h-2z M181,86h2v3h-2z M197,88h9v1h-9z M217,87h6v2h-6z M247,88h5v1h-5z M258,84h7v5h-7z M1,86h4v4h-4z M7,87h10v3h-10z M28,89h8v1h-8z M41,87h4v3h-4z M54,89h8v1h-8z M73,89h14v1h-14z M102,89h2v1h-2z M121,89h7v1h-7z M137,89h5v1h-5z M155,88h2v2h-2z M168,89h3v1h-3z M187,88h1v2h-1z M198,89h7v1h-7z M219,89h2v1h-2z M248,89h3v1h-3z M260,89h5v1h-5z M22,90h2v1h-2z M54,90h7v1h-7z M94,90h1v1h-1z M112,90h3v1h-3z M138,90h3v1h-3z M146,89h3v2h-3z M166,90h4v1h-4z M176,89h1v2h-1z M200,90h5v1h-5z M254,88h2v3h-2z M2,90h3v2h-3z M55,91h6v1h-6z M69,91h1v1h-1z M74,90h12v2h-12z M147,91h1v1h-1z M165,91h7v1h-7z M202,91h1v1h-1z M241,89h2v3h-2z M262,90h3v2h-3z M1,92h4v1h-4z M6,90h12v3h-12z M21,91h4v2h-4z M28,90h9v3h-9z M56,92h4v1h-4z M75,92h9v1h-9z M111,91h4v2h-4z M120,90h8v3h-8z M130,87h4v6h-4z M152,92h2v1h-2z M165,92h8v1h-8z M191,92h2v1h-2z M219,92h2v1h-2z M226,91h3v2h-3z M232,92h4v1h-4z M22,93h2v1h-2z M28,93h8v1h-8z M58,93h1v1h-1z M75,93h8v1h-8z M92,91h4v3h-4z M112,93h3v1h-3z M141,93h3v1h-3z M151,93h3v1h-3z M160,93h2v1h-2z M165,93h9v1h-9z M190,93h4v1h-4z M206,93h1v1h-1z M212,93h4v1h-4z M218,93h3v1h-3z M227,93h10v1h-10z M256,93h1v1h-1z M1,93h15v2h-15z M30,94h6v1h-6z M67,92h4v3h-4z M75,94h7v1h-7z M92,94h3v1h-3z M113,94h1v1h-1z M121,93h6v2h-6z M130,93h7v2h-7z M152,94h2v1h-2z M159,94h3v1h-3z M165,94h8v1h-8z M181,93h2v2h-2z M190,94h3v1h-3z M212,94h5v1h-5z M219,94h2v1h-2z M227,94h11v1h-11z M255,94h3v1h-3z M262,92h4v3h-4z M16,95h1v1h-1z M49,95h3v1h-3z M67,95h3v1h-3z M76,95h6v1h-6z M123,95h3v1h-3z M131,95h3v1h-3z M141,94h4v2h-4z M153,95h1v1h-1z M158,95h4v1h-4z M188,95h6v1h-6z M205,94h2v2h-2z M227,95h5v1h-5z M255,95h4v1h-4z M262,95h3v1h-3z M1,95h8v2h-8z M76,96h5v1h-5z M102,96h4v1h-4z M148,96h13v1h-13z M166,95h7v2h-7z M176,96h1v1h-1z M187,96h7v1h-7z M198,95h2v2h-2z M211,95h6v2h-6z M227,96h4v1h-4z M250,96h2v1h-2z M255,96h10v1h-10z M1,97h7v1h-7z M49,96h4v2h-4z M65,97h3v1h-3z M99,97h14v1h-14z M148,97h12v1h-12z M168,97h2v1h-2z M175,97h3v1h-3z M186,97h8v1h-8z M235,95h4v3h-4z M1,98h4v1h-4z M15,96h4v3h-4z M38,98h6v1h-6z M49,98h3v1h-3z M62,98h9v1h-9z M99,98h16v1h-16z M120,98h3v1h-3z M146,98h5v1h-5z M163,98h1v1h-1z M175,98h4v1h-4z M186,98h9v1h-9z M212,97h4v2h-4z M226,97h5v2h-5z M233,98h6v1h-6z M258,97h7v2h-7z M36,99h10v1h-10z M62,99h11v1h-11z M88,99h2v1h-2z M98,99h17v1h-17z M130,96h3v4h-3z M137,99h2v1h-2z M144,99h7v1h-7z M156,98h4v2h-4z M162,99h3v1h-3z M187,99h7v1h-7z M227,99h11v1h-11z M260,99h5v1h-5z M34,100h13v1h-13z M61,100h5v1h-5z M67,100h7v1h-7z M119,99h5v2h-5z M130,100h4v1h-4z M136,100h3v1h-3z M144,100h8v1h-8z M156,100h3v1h-3z M163,100h1v1h-1z M170,100h2v1h-2z M182,100h3v1h-3z M188,100h6v1h-6z M206,100h2v1h-2z M213,99h3v2h-3z M219,98h2v3h-2z M227,100h10v1h-10z M245,100h1v1h-1z M249,97h8v4h-8z M25,101h2v1h-2z M33,101h14v1h-14z M70,101h5v1h-5z M120,101h3v1h-3z M136,101h4v1h-4z M144,101h3v1h-3z M148,101h5v1h-5z M154,101h5v1h-5z M169,101h3v1h-3z M189,101h4v1h-4z M205,101h5v1h-5z M228,101h8v1h-8z M244,101h3v1h-3z M24,102h3v1h-3z M32,102h16v1h-16z M61,101h3v2h-3z M71,102h5v1h-5z M87,100h4v3h-4z M98,100h16v3h-16z M120,102h2v1h-2z M137,102h2v1h-2z M149,102h10v1h-10z M170,102h1v1h-1z M190,102h2v1h-2z M201,102h2v1h-2z M204,102h7v1h-7z M228,102h7v1h-7z M244,102h2v1h-2z M250,101h7v2h-7z M23,103h4v1h-4z M31,103h17v1h-17z M72,103h5v1h-5z M98,103h15v1h-15z M130,101h3v3h-3z M148,103h11v1h-11z M201,103h1v1h-1z M229,103h3v1h-3z M251,103h5v1h-5z M262,100h3v4h-3z M73,104h4v1h-4z M98,104h14v1h-14z M130,104h4v1h-4z M141,104h1v1h-1z M149,104h4v1h-4z M172,104h3v1h-3z M195,104h2v1h-2z M204,103h8v2h-8z M237,104h2v1h-2z M1,99h3v7h-3z M24,104h3v2h-3z M74,105h3v1h-3z M99,105h12v1h-12z M130,105h3v1h-3z M140,105h2v1h-2z M149,105h2v1h-2z M190,104h2v2h-2z M195,105h3v1h-3z M205,105h8v1h-8z M220,105h2v1h-2z M238,105h1v1h-1z M260,104h5v2h-5z M73,106h5v1h-5z M100,106h10v1h-10z M117,106h2v1h-2z M126,106h9v1h-9z M141,106h1v1h-1z M190,106h1v1h-1z M206,106h6v1h-6z M221,106h1v1h-1z M244,106h1v1h-1z M251,106h3v1h-3z M30,104h18v4h-18z M54,107h1v1h-1z M61,103h2v5h-2z M73,107h6v1h-6z M85,107h2v1h-2z M103,107h6v1h-6z M125,107h11v1h-11z M171,105h8v3h-8z M182,106h2v2h-2z M207,107h4v1h-4z M214,107h1v1h-1z M222,107h6v1h-6z M231,106h2v2h-2z M250,107h4v1h-4z M2,106h2v3h-2z M10,106h4v3h-4z M31,108h17v1h-17z M61,108h3v1h-3z M71,108h5v1h-5z M78,108h2v1h-2z M84,108h5v1h-5z M105,108h3v1h-3z M126,108h3v1h-3z M130,108h6v1h-6z M146,108h2v1h-2z M155,108h2v1h-2z M222,108h7v1h-7z M232,108h1v1h-1z M243,107h3v2h-3z M251,108h2v1h-2z M11,109h3v1h-3z M32,109h15v1h-15z M53,108h4v2h-4z M61,109h14v1h-14z M84,109h6v1h-6z M116,107h4v3h-4z M131,109h3v1h-3z M140,109h9v1h-9z M155,109h3v1h-3z M172,108h7v2h-7z M202,109h2v1h-2z M213,108h4v2h-4z M221,109h8v1h-8z M244,109h2v1h-2z M257,109h2v1h-2z M24,110h2v1h-2z M39,110h8v1h-8z M53,110h3v1h-3z M62,110h12v1h-12z M84,110h7v1h-7z M116,110h3v1h-3z M139,110h9v1h-9z M155,110h2v1h-2z M163,110h1v1h-1z M172,110h6v1h-6z M187,110h2v1h-2z M195,110h2v1h-2z M215,110h1v1h-1z M222,110h7v1h-7z M238,109h2v2h-2z M256,110h4v1h-4z M23,111h4v1h-4z M40,111h6v1h-6z M65,111h8v1h-8z M84,111h6v1h-6z M97,111h3v1h-3z M130,110h4v2h-4z M138,111h8v1h-8z M172,111h5v1h-5z M187,111h3v1h-3z M239,111h1v1h-1z M241,111h4v1h-4z M257,111h2v1h-2z M21,112h6v1h-6z M42,112h2v1h-2z M85,112h5v1h-5z M130,112h3v1h-3z M158,112h2v1h-2z M163,111h2v2h-2z M169,111h2v2h-2z M195,111h3v2h-3z M262,106h3v7h-3z M16,113h11v1h-11z M34,113h2v1h-2z M96,112h4v2h-4z M108,113h1v1h-1z M123,113h2v1h-2z M149,113h3v1h-3z M156,113h5v1h-5z M184,113h1v1h-1z M191,113h3v1h-3z M214,113h2v1h-2z M222,111h6v3h-6z M230,113h3v1h-3z M238,112h8v2h-8z M250,113h2v1h-2z M261,113h4v1h-4z M1,109h3v6h-3z M15,114h11v1h-11z M97,114h3v1h-3z M107,114h3v1h-3z M121,114h5v1h-5z M138,112h7v3h-7z M149,114h4v1h-4z M155,114h7v1h-7z M178,114h1v1h-1z M184,114h3v1h-3z M189,114h6v1h-6z M219,114h4v1h-4z M224,114h3v1h-3z M231,114h1v1h-1z M14,115h12v1h-12z M33,114h4v2h-4z M47,115h3v1h-3z M72,115h3v1h-3z M119,115h8v1h-8z M130,113h4v3h-4z M139,115h5v1h-5z M149,115h3v1h-3z M154,115h8v1h-8z M177,115h3v1h-3z M184,115h11v1h-11z M213,114h3v2h-3z M219,115h3v1h-3z M238,114h9v2h-9z M1,115h4v2h-4z M34,116h3v1h-3z M89,116h3v1h-3z M107,115h4v2h-4z M130,116h6v1h-6z M140,116h4v1h-4z M155,116h7v1h-7z M178,116h1v1h-1z M185,116h10v1h-10z M200,116h2v1h-2z M207,116h3v1h-3z M213,116h2v1h-2z M219,116h2v1h-2z M260,114h5v3h-5z M13,116h13v2h-13z M46,116h4v2h-4z M71,116h4v2h-4z M80,116h5v2h-5z M130,117h7v1h-7z M166,116h2v2h-2z M186,117h9v1h-9z M200,117h1v1h-1z M204,117h11v1h-11z M239,116h8v2h-8z M256,117h3v1h-3z M261,117h4v1h-4z M1,117h7v2h-7z M47,118h2v1h-2z M72,118h2v1h-2z M80,118h4v1h-4z M88,117h4v2h-4z M117,116h10v3h-10z M130,118h5v1h-5z M142,118h1v1h-1z M156,117h6v2h-6z M186,118h8v1h-8z M203,118h12v1h-12z M240,118h7v1h-7z M251,118h1v1h-1z M255,118h5v1h-5z M1,119h8v1h-8z M81,119h2v1h-2z M88,119h3v1h-3z M98,119h2v1h-2z M118,119h9v1h-9z M130,119h4v1h-4z M141,119h3v1h-3z M158,119h3v1h-3z M173,118h1v2h-1z M186,119h6v1h-6z M202,119h5v1h-5z M209,119h8v1h-8z M226,119h2v1h-2z M243,119h3v1h-3z M1,120h7v1h-7z M12,118h14v3h-14z M96,120h9v1h-9z M119,120h7v1h-7z M141,120h2v1h-2z M147,119h3v2h-3z M187,120h4v1h-4z M226,120h1v1h-1z M231,119h3v2h-3z M262,118h3v3h-3z M1,121h4v1h-4z M31,121h1v1h-1z M41,121h6v1h-6z M58,121h3v1h-3z M94,121h12v1h-12z M120,121h5v1h-5z M148,121h2v1h-2z M154,121h1v1h-1z M173,121h1v1h-1z M188,121h1v1h-1z M196,120h2v2h-2z M232,121h2v1h-2z M238,120h2v2h-2z M251,119h9v3h-9z M12,121h13v2h-13z M68,122h8v1h-8z M93,122h14v1h-14z M121,122h4v1h-4z M137,122h2v1h-2z M154,122h2v1h-2z M171,122h4v1h-4z M182,120h2v3h-2z M202,120h4v3h-4z M212,120h8v3h-8z M252,122h8v1h-8z M262,121h4v2h-4z M11,123h12v1h-12z M40,122h9v2h-9z M57,122h4v2h-4z M66,123h13v1h-13z M92,123h15v1h-15z M136,123h3v1h-3z M148,123h1v1h-1z M162,121h2v3h-2z M168,123h8v1h-8z M203,123h3v1h-3z M210,123h7v1h-7z M230,123h2v1h-2z M253,123h7v1h-7z M261,123h5v1h-5z M11,124h11v1h-11z M39,124h10v1h-10z M58,124h1v1h-1z M92,124h14v1h-14z M147,124h3v1h-3z M167,124h9v1h-9z M178,124h1v1h-1z M203,124h4v1h-4z M209,124h7v1h-7z M229,124h4v1h-4z M244,123h3v2h-3z M253,124h13v1h-13z M1,122h3v4h-3z M11,125h9v1h-9z M30,122h3v4h-3z M91,125h15v1h-15z M111,125h1v1h-1z M119,125h2v1h-2z M145,125h5v1h-5z M187,125h2v1h-2z M194,125h4v1h-4z M204,125h11v1h-11z M222,125h3v1h-3z M228,125h7v1h-7z M245,125h1v1h-1z M253,125h12v1h-12z M1,126h4v1h-4z M11,126h8v1h-8z M23,126h8v1h-8z M39,125h11v2h-11z M85,126h1v1h-1z M92,126h13v1h-13z M110,126h3v1h-3z M166,125h14v2h-14z M187,126h3v1h-3z M193,126h6v1h-6z M204,126h12v1h-12z M222,126h4v1h-4z M227,126h8v1h-8z M254,126h5v1h-5z M261,126h4v1h-4z M11,127h7v1h-7z M22,127h9v1h-9z M40,127h10v1h-10z M93,127h11v1h-11z M109,127h5v1h-5z M118,126h4v2h-4z M130,120h3v8h-3z M139,127h1v1h-1z M166,127h10v1h-10z M192,127h7v1h-7z M204,127h9v1h-9z M214,127h2v1h-2z M222,127h3v1h-3z M226,127h9v1h-9z M238,126h1v2h-1z M255,127h3v1h-3z M13,128h1v1h-1z M22,128h10v1h-10z M41,128h9v1h-9z M55,128h3v1h-3z M97,128h6v1h-6z M110,128h3v1h-3z M118,128h3v1h-3z M127,128h6v1h-6z M138,128h3v1h-3z M155,128h1v1h-1z M166,128h9v1h-9z M182,128h2v1h-2z M191,128h9v1h-9z M204,128h4v1h-4z M214,128h3v1h-3z M222,128h1v1h-1z M249,127h3v2h-3z M43,129h6v1h-6z M65,124h14v6h-14z M84,127h4v3h-4z M100,129h2v1h-2z M138,129h2v1h-2z M143,126h7v4h-7z M154,129h2v1h-2z M167,129h9v1h-9z M181,129h3v1h-3z M190,129h10v1h-10z M204,129h3v1h-3z M215,129h1v1h-1z M226,128h10v2h-10z M243,129h3v1h-3z M256,128h3v2h-3z M262,127h3v3h-3z M1,127h3v4h-3z M21,129h11v2h-11z M36,130h2v1h-2z M54,129h4v2h-4z M66,130h8v1h-8z M75,130h2v1h-2z M85,130h1v1h-1z M126,129h7v2h-7z M174,130h2v1h-2z M182,130h2v1h-2z M205,130h1v1h-1z M209,130h2v1h-2z M227,130h8v1h-8z M242,130h5v1h-5z M256,130h4v1h-4z M262,130h4v1h-4z M1,131h4v1h-4z M21,131h10v1h-10z M35,131h4v1h-4z M126,131h8v1h-8z M144,130h5v2h-5z M173,131h4v1h-4z M182,131h1v1h-1z M190,130h9v2h-9z M208,131h4v1h-4z M219,129h4v3h-4z M228,131h7v1h-7z M242,131h6v1h-6z M254,131h12v1h-12z M1,132h7v1h-7z M16,132h1v1h-1z M20,132h11v1h-11z M35,132h5v1h-5z M55,131h3v2h-3z M122,132h1v1h-1z M125,132h9v1h-9z M139,132h11v1h-11z M153,132h2v1h-2z M156,132h2v1h-2z M162,132h2v1h-2z M172,132h15v1h-15z M190,132h76v1h-76z M1,133h265v2h-265z M1,135h263v1h-263z M3,136h2v1h-2z M35,136h19v1h-19z M55,136h3v1h-3z M72,136h6v1h-6z
  "/>
</svg>