<?xml version="1.0" encoding="UTF-8"?>
<svg xmlns="http://www.w3.org/2000/svg" viewBox="0 0 268 136" width="268" height="136">
  <title>40 Breccia</title>
  <path fill="#111111" fill-rule="nonzero" d="
    M4,0h22v1h-22z M27,0h3v1h-3z M36,0h2v1h-2z M44,0h2v1h-2z M55,0h1v1h-1z M3,1h262v1h-262z M2,2h264v1h-264z M2,3h265v1h-265z M2,4h5v1h-5z M46,4h36v1h-36z M84,4h1v1h-1z M89,4h75v1h-75z M165,4h102v1h-102z M47,5h27v1h-27z M91,5h8v1h-8z M100,5h3v1h-3z M112,5h4v1h-4z M117,5h4v1h-4z M123,5h17v1h-17z M152,5h3v1h-3z M157,5h4v1h-4z M174,5h5v1h-5z M180,5h4v1h-4z M186,5h5v1h-5z M193,5h6v1h-6z M204,5h19v1h-19z M229,5h17v1h-17z M250,5h6v1h-6z M14,4h6v3h-6z M47,6h10v1h-10z M59,6h15v1h-15z M76,5h4v2h-4z M90,6h12v1h-12z M107,5h4v2h-4z M113,6h29v1h-29z M145,5h4v2h-4z M186,6h11v1h-11z M205,6h18v1h-18z M229,6h20v1h-20z M250,6h5v1h-5z M13,7h7v1h-7z M49,7h8v1h-8z M59,7h5v1h-5z M67,7h13v1h-13z M89,7h14v1h-14z M106,7h6v1h-6z M115,7h15v1h-15z M131,7h19v1h-19z M151,7h4v1h-4z M157,6h3v2h-3z M175,6h9v2h-9z M186,7h10v1h-10z M207,7h16v1h-16z M229,7h8v1h-8z M240,7h13v1h-13z M257,5h4v3h-4z M13,8h3v1h-3z M49,8h5v1h-5z M58,8h5v1h-5z M68,8h12v1h-12z M88,8h8v1h-8z M97,8h7v1h-7z M105,8h7v1h-7z M115,8h10v1h-10z M137,8h23v1h-23z M176,8h4v1h-4z M187,8h8v1h-8z M209,8h15v1h-15z M229,8h7v1h-7z M243,8h8v1h-8z M257,8h3v1h-3z M12,9h4v1h-4z M17,8h3v2h-3z M50,9h4v1h-4z M57,9h5v1h-5z M71,9h10v1h-10z M87,9h7v1h-7z M99,9h14v1h-14z M116,9h7v1h-7z M141,9h19v1h-19z M177,9h4v1h-4z M218,9h7v1h-7z M228,9h6v1h-6z M247,9h4v1h-4z M263,5h4v5h-4z M11,10h5v1h-5z M17,10h4v1h-4z M50,10h11v1h-11z M75,10h6v1h-6z M86,10h7v1h-7z M101,10h12v1h-12z M115,10h6v1h-6z M146,10h15v1h-15z M177,10h6v1h-6z M188,9h5v2h-5z M219,10h14v1h-14z M248,10h6v1h-6z M262,10h5v1h-5z M11,11h11v1h-11z M50,11h10v1h-10z M76,11h6v1h-6z M84,11h9v1h-9z M103,11h17v1h-17z M147,11h15v1h-15z M177,11h7v1h-7z M186,11h5v1h-5z M219,11h13v1h-13z M260,11h7v1h-7z M9,12h16v1h-16z M49,12h8v1h-8z M104,12h4v1h-4z M110,12h8v1h-8z M148,12h6v1h-6z M157,12h6v1h-6z M178,12h12v1h-12z M219,12h12v1h-12z M248,11h7v2h-7z M8,13h23v1h-23z M47,13h8v1h-8z M76,12h15v2h-15z M105,13h3v1h-3z M111,13h6v1h-6z M158,13h5v1h-5z M178,13h11v1h-11z M219,13h10v1h-10z M247,13h8v1h-8z M259,12h8v2h-8z M2,5h4v10h-4z M7,14h5v1h-5z M13,14h5v1h-5z M20,14h18v1h-18z M46,14h7v1h-7z M75,14h15v1h-15z M106,14h3v1h-3z M110,14h5v1h-5z M159,14h5v1h-5z M179,14h9v1h-9z M219,14h9v1h-9z M253,14h1v1h-1z M260,14h7v1h-7z M14,15h3v1h-3z M20,15h31v1h-31z M74,15h4v1h-4z M80,15h9v1h-9z M106,15h8v1h-8z M148,13h5v3h-5z M159,15h6v1h-6z M179,15h8v1h-8z M218,15h9v1h-9z M247,14h3v2h-3z M263,15h4v1h-4z M17,16h9v1h-9z M29,16h21v1h-21z M73,16h5v1h-5z M106,16h7v1h-7z M159,16h7v1h-7z M180,16h7v1h-7z M218,16h7v1h-7z M262,16h5v1h-5z M2,15h9v3h-9z M15,17h9v1h-9z M31,17h18v1h-18z M72,17h6v1h-6z M80,16h4v2h-4z M107,17h6v1h-6z M180,17h8v1h-8z M217,17h6v1h-6z M247,16h2v2h-2z M251,17h3v1h-3z M260,17h7v1h-7z M33,18h15v1h-15z M70,18h14v1h-14z M159,17h8v2h-8z M181,18h8v1h-8z M204,18h4v1h-4z M212,18h10v1h-10z M246,18h9v1h-9z M259,18h8v1h-8z M35,19h12v1h-12z M68,19h19v1h-19z M108,18h4v2h-4z M149,16h5v4h-5z M159,19h9v1h-9z M183,19h7v1h-7z M202,19h19v1h-19z M2,18h19v3h-19z M36,20h10v1h-10z M67,20h22v1h-22z M109,20h4v1h-4z M158,20h11v1h-11z M185,20h7v1h-7z M200,20h19v1h-19z M246,19h21v2h-21z M2,21h20v1h-20z M39,21h7v1h-7z M64,21h9v1h-9z M78,21h11v1h-11z M109,21h5v1h-5z M150,20h5v2h-5z M157,21h12v1h-12z M187,21h6v1h-6z M196,21h21v1h-21z M246,21h14v1h-14z M2,22h9v1h-9z M13,22h9v1h-9z M41,22h6v1h-6z M60,22h12v1h-12z M80,22h10v1h-10z M110,22h6v1h-6z M150,22h20v1h-20z M189,22h26v1h-26z M246,22h11v1h-11z M2,23h6v1h-6z M14,23h8v1h-8z M43,23h5v1h-5z M58,23h14v1h-14z M81,23h10v1h-10z M111,23h7v1h-7z M162,23h3v1h-3z M167,23h3v1h-3z M189,23h25v1h-25z M245,23h9v1h-9z M44,24h5v1h-5z M55,24h16v1h-16z M87,24h6v1h-6z M111,24h30v1h-30z M150,23h10v2h-10z M164,24h7v1h-7z M190,24h22v1h-22z M245,24h7v1h-7z M262,21h5v4h-5z M2,24h5v2h-5z M45,25h25v1h-25z M88,25h5v1h-5z M112,25h49v1h-49z M164,25h8v1h-8z M190,25h10v1h-10z M201,25h10v1h-10z M243,25h7v1h-7z M46,26h23v1h-23z M89,26h5v1h-5z M113,26h50v1h-50z M164,26h9v1h-9z M189,26h11v1h-11z M202,26h8v1h-8z M225,26h5v1h-5z M235,26h2v1h-2z M239,26h9v1h-9z M2,26h4v2h-4z M15,24h7v4h-7z M46,27h10v1h-10z M90,27h9v1h-9z M112,27h20v1h-20z M133,27h43v1h-43z M189,27h12v1h-12z M202,27h7v1h-7z M223,27h24v1h-24z M261,25h6v3h-6z M2,28h5v1h-5z M47,28h9v1h-9z M59,27h10v2h-10z M90,28h18v1h-18z M109,28h11v1h-11z M126,28h5v1h-5z M133,28h4v1h-4z M138,28h39v1h-39z M189,28h7v1h-7z M198,28h10v1h-10z M221,28h24v1h-24z M2,29h7v1h-7z M47,29h8v1h-8z M59,29h9v1h-9z M91,29h30v1h-30z M122,29h3v1h-3z M126,29h4v1h-4z M133,29h46v1h-46z M189,29h6v1h-6z M198,29h8v1h-8z M219,29h7v1h-7z M230,29h14v1h-14z M260,28h7v2h-7z M2,30h8v1h-8z M16,28h5v3h-5z M48,30h9v1h-9z M60,30h8v1h-8z M97,30h18v1h-18z M116,30h11v1h-11z M128,30h2v1h-2z M132,30h23v1h-23z M163,30h18v1h-18z M199,30h6v1h-6z M217,30h10v1h-10z M230,30h12v1h-12z M259,30h8v1h-8z M2,31h10v1h-10z M16,31h4v1h-4z M47,31h10v1h-10z M61,31h6v1h-6z M92,30h4v2h-4z M99,31h3v1h-3z M104,31h11v1h-11z M116,31h35v1h-35z M167,31h15v1h-15z M200,31h5v1h-5z M215,31h13v1h-13z M231,31h9v1h-9z M258,31h4v1h-4z M2,32h11v1h-11z M15,32h5v1h-5z M46,32h12v1h-12z M61,32h7v1h-7z M93,32h3v1h-3z M112,32h33v1h-33z M171,32h13v1h-13z M188,30h7v3h-7z M201,32h5v1h-5z M212,32h9v1h-9z M223,32h5v1h-5z M231,32h8v1h-8z M257,32h4v1h-4z M9,33h11v1h-11z M42,33h26v1h-26z M93,33h4v1h-4z M98,32h4v2h-4z M105,32h2v2h-2z M112,33h9v1h-9z M124,33h11v1h-11z M175,33h10v1h-10z M187,33h8v1h-8z M202,33h15v1h-15z M218,33h1v1h-1z M223,33h6v1h-6z M232,33h6v1h-6z M254,33h6v1h-6z M263,31h4v3h-4z M2,33h4v2h-4z M9,34h10v1h-10z M38,34h14v1h-14z M54,34h17v1h-17z M94,34h8v1h-8z M105,34h3v1h-3z M110,34h8v1h-8z M176,34h4v1h-4z M181,34h5v1h-5z M187,34h4v1h-4z M192,34h3v1h-3z M202,34h14v1h-14z M224,34h6v1h-6z M231,34h5v1h-5z M253,34h7v1h-7z M262,34h5v1h-5z M2,35h17v1h-17z M33,35h18v1h-18z M54,35h19v1h-19z M94,35h22v1h-22z M125,34h9v2h-9z M191,35h24v1h-24z M218,34h3v2h-3z M226,35h10v1h-10z M251,35h9v1h-9z M261,35h6v1h-6z M2,36h18v1h-18z M28,36h21v1h-21z M53,36h9v1h-9z M64,36h11v1h-11z M86,36h3v1h-3z M94,36h20v1h-20z M176,35h3v2h-3z M182,35h8v2h-8z M191,36h25v1h-25z M218,36h4v1h-4z M226,36h9v1h-9z M251,36h16v1h-16z M2,37h19v1h-19z M24,37h16v1h-16z M42,37h7v1h-7z M53,37h8v1h-8z M66,37h13v1h-13z M81,37h30v1h-30z M126,36h8v2h-8z M176,37h13v1h-13z M191,37h33v1h-33z M225,37h11v1h-11z M250,37h17v1h-17z M2,38h5v1h-5z M10,38h30v1h-30z M42,38h6v1h-6z M52,38h9v1h-9z M69,38h37v1h-37z M127,38h7v1h-7z M176,38h8v1h-8z M185,38h4v1h-4z M192,38h46v1h-46z M249,38h11v1h-11z M262,38h5v1h-5z M15,39h33v1h-33z M52,39h8v1h-8z M73,39h29v1h-29z M128,39h5v1h-5z M186,39h4v1h-4z M191,39h20v1h-20z M212,39h41v1h-41z M255,39h4v1h-4z M15,40h16v1h-16z M34,40h15v1h-15z M52,40h7v1h-7z M76,40h10v1h-10z M87,40h13v1h-13z M129,40h4v1h-4z M175,39h8v2h-8z M186,40h14v1h-14z M214,40h3v1h-3z M234,40h20v1h-20z M256,40h1v1h-1z M16,41h14v1h-14z M37,41h22v1h-22z M77,41h5v1h-5z M83,41h16v1h-16z M175,41h9v1h-9z M186,41h13v1h-13z M235,41h19v1h-19z M263,39h4v3h-4z M16,42h13v1h-13z M39,42h20v1h-20z M130,41h4v2h-4z M174,42h10v1h-10z M186,42h10v1h-10z M235,42h9v1h-9z M247,42h8v1h-8z M17,43h11v1h-11z M41,43h18v1h-18z M78,42h20v2h-20z M131,43h4v1h-4z M173,43h7v1h-7z M181,43h3v1h-3z M187,43h8v1h-8z M247,43h9v1h-9z M260,43h1v1h-1z M17,44h10v1h-10z M42,44h12v1h-12z M55,44h4v1h-4z M79,44h19v1h-19z M131,44h5v1h-5z M172,44h8v1h-8z M182,44h2v1h-2z M190,44h4v1h-4z M236,43h8v2h-8z M246,44h3v1h-3z M253,44h4v1h-4z M22,45h4v1h-4z M56,45h3v1h-3z M80,45h10v1h-10z M132,45h7v1h-7z M171,45h9v1h-9z M183,45h11v1h-11z M236,45h11v1h-11z M253,45h5v1h-5z M17,45h3v2h-3z M21,46h5v1h-5z M42,45h5v2h-5z M48,45h6v2h-6z M80,46h9v1h-9z M133,46h8v1h-8z M170,46h10v1h-10z M182,46h12v1h-12z M233,46h14v1h-14z M254,46h5v1h-5z M18,47h7v1h-7z M43,47h11v1h-11z M55,46h4v2h-4z M133,47h10v1h-10z M167,47h27v1h-27z M230,47h16v1h-16z M263,42h3v6h-3z M17,48h7v1h-7z M50,48h8v1h-8z M81,47h6v2h-6z M94,45h4v4h-4z M133,48h12v1h-12z M166,48h28v1h-28z M228,48h17v1h-17z M256,47h4v2h-4z M262,48h4v1h-4z M14,49h9v1h-9z M43,48h6v2h-6z M51,49h7v1h-7z M82,49h4v1h-4z M132,49h5v1h-5z M138,49h9v1h-9z M164,49h20v1h-20z M188,49h7v1h-7z M224,49h20v1h-20z M12,50h11v1h-11z M43,50h5v1h-5z M83,50h3v1h-3z M129,50h10v1h-10z M142,50h8v1h-8z M161,50h13v1h-13z M189,50h6v1h-6z M201,50h5v1h-5z M220,50h22v1h-22z M257,49h10v2h-10z M10,51h12v1h-12z M42,51h5v1h-5z M122,51h18v1h-18z M143,51h9v1h-9z M155,51h19v1h-19z M190,51h4v1h-4z M197,51h11v1h-11z M218,51h21v1h-21z M256,51h11v1h-11z M2,39h4v14h-4z M9,52h13v1h-13z M42,52h4v1h-4z M51,50h6v3h-6z M83,51h4v2h-4z M121,52h19v1h-19z M146,52h27v1h-27z M176,50h6v3h-6z M190,52h21v1h-21z M215,52h12v1h-12z M229,52h6v1h-6z M256,52h10v1h-10z M2,53h12v1h-12z M15,53h6v1h-6z M43,53h3v1h-3z M53,53h5v1h-5z M84,53h4v1h-4z M94,49h5v5h-5z M119,53h17v1h-17z M138,53h5v1h-5z M147,53h23v1h-23z M191,53h10v1h-10z M202,53h18v1h-18z M224,53h2v1h-2z M229,53h4v1h-4z M255,53h11v1h-11z M2,54h18v1h-18z M42,54h8v1h-8z M55,54h3v1h-3z M84,54h7v1h-7z M93,54h7v1h-7z M118,54h13v1h-13z M132,54h3v1h-3z M140,54h3v1h-3z M148,54h12v1h-12z M162,54h8v1h-8z M175,53h7v2h-7z M203,54h15v1h-15z M229,54h3v1h-3z M254,54h12v1h-12z M2,55h8v1h-8z M12,55h7v1h-7z M85,55h15v1h-15z M115,55h21v1h-21z M140,55h4v1h-4z M147,55h24v1h-24z M174,55h7v1h-7z M192,54h7v2h-7z M203,55h3v1h-3z M208,55h9v1h-9z M223,54h4v2h-4z M253,55h7v1h-7z M2,56h7v1h-7z M12,56h5v1h-5z M55,55h4v2h-4z M85,56h16v1h-16z M114,56h9v1h-9z M126,56h11v1h-11z M139,56h5v1h-5z M147,56h5v1h-5z M153,56h28v1h-28z M194,56h7v1h-7z M202,56h3v1h-3z M209,56h2v1h-2z M221,56h7v1h-7z M229,55h4v2h-4z M252,56h7v1h-7z M2,57h6v1h-6z M11,57h5v1h-5z M42,55h9v3h-9z M53,57h6v1h-6z M86,57h16v1h-16z M105,57h1v1h-1z M107,57h10v1h-10z M119,57h3v1h-3z M129,57h15v1h-15z M147,57h34v1h-34z M195,57h10v1h-10z M213,56h5v2h-5z M251,57h6v1h-6z M2,58h13v1h-13z M41,58h4v1h-4z M47,58h3v1h-3z M51,58h9v1h-9z M94,58h22v1h-22z M118,58h3v1h-3z M133,58h11v1h-11z M148,58h9v1h-9z M158,58h1v1h-1z M160,58h7v1h-7z M169,58h12v1h-12z M197,58h9v1h-9z M208,57h3v2h-3z M220,57h8v2h-8z M250,58h6v1h-6z M263,55h3v4h-3z M2,59h12v1h-12z M40,59h5v1h-5z M50,59h11v1h-11z M87,58h4v2h-4z M93,59h21v1h-21z M117,59h4v1h-4z M135,59h10v1h-10z M148,59h7v1h-7z M162,59h5v1h-5z M170,59h11v1h-11z M200,59h10v1h-10z M213,58h4v2h-4z M220,59h2v1h-2z M225,59h3v1h-3z M249,59h5v1h-5z M2,60h11v1h-11z M50,60h12v1h-12z M87,60h10v1h-10z M101,60h7v1h-7z M109,60h5v1h-5z M139,60h15v1h-15z M164,60h4v1h-4z M170,60h2v1h-2z M173,60h7v1h-7z M202,60h9v1h-9z M214,60h4v1h-4z M225,60h4v1h-4z M230,57h3v4h-3z M248,60h5v1h-5z M262,59h4v2h-4z M2,61h10v1h-10z M39,60h6v2h-6z M50,61h13v1h-13z M85,61h11v1h-11z M103,61h10v1h-10z M116,60h4v2h-4z M142,61h10v1h-10z M164,61h9v1h-9z M176,61h4v1h-4z M204,61h16v1h-16z M247,61h5v1h-5z M261,61h5v1h-5z M2,62h9v1h-9z M38,62h7v1h-7z M51,62h15v1h-15z M72,62h23v1h-23z M105,62h8v1h-8z M115,62h4v1h-4z M143,62h8v1h-8z M165,62h8v1h-8z M176,62h3v1h-3z M206,62h14v1h-14z M247,62h4v1h-4z M2,63h8v1h-8z M37,63h9v1h-9z M50,63h9v1h-9z M60,63h33v1h-33z M106,63h12v1h-12z M175,63h3v1h-3z M207,63h13v1h-13z M226,61h8v3h-8z M246,63h4v1h-4z M260,62h6v2h-6z M2,64h6v1h-6z M36,64h21v1h-21z M62,64h30v1h-30z M107,64h10v1h-10z M144,63h5v2h-5z M166,63h7v2h-7z M210,64h9v1h-9z M227,64h7v1h-7z M245,64h4v1h-4z M2,65h4v1h-4z M36,65h18v1h-18z M64,65h17v1h-17z M84,65h7v1h-7z M108,65h8v1h-8z M145,65h5v1h-5z M167,65h5v1h-5z M174,64h4v2h-4z M244,65h4v1h-4z M259,64h7v2h-7z M1,66h5v1h-5z M35,66h17v1h-17z M66,66h7v1h-7z M74,66h6v1h-6z M83,66h6v1h-6z M145,66h7v1h-7z M168,66h4v1h-4z M174,66h3v1h-3z M243,66h5v1h-5z M258,66h3v1h-3z M2,67h4v1h-4z M34,67h15v1h-15z M67,67h13v1h-13z M82,67h6v1h-6z M108,66h7v2h-7z M145,67h9v1h-9z M169,67h8v1h-8z M216,65h3v3h-3z M239,67h8v1h-8z M257,67h3v1h-3z M33,68h11v1h-11z M69,68h11v1h-11z M83,68h4v1h-4z M108,68h6v1h-6z M144,68h5v1h-5z M150,68h5v1h-5z M169,68h9v1h-9z M191,68h2v1h-2z M215,68h5v1h-5z M228,65h6v4h-6z M236,68h11v1h-11z M256,68h5v1h-5z M262,66h4v3h-4z M33,69h5v1h-5z M71,69h8v1h-8z M82,69h4v1h-4z M108,69h5v1h-5z M144,69h3v1h-3z M170,69h11v1h-11z M183,69h11v1h-11z M215,69h6v1h-6z M229,69h17v1h-17z M256,69h10v1h-10z M1,68h5v3h-5z M31,70h5v1h-5z M72,70h7v1h-7z M82,70h3v1h-3z M108,70h4v1h-4z M144,70h4v1h-4z M152,69h3v2h-3z M171,70h24v1h-24z M215,70h9v1h-9z M229,70h16v1h-16z M2,71h6v1h-6z M30,71h5v1h-5z M72,71h13v1h-13z M107,71h6v1h-6z M145,71h3v1h-3z M151,71h5v1h-5z M173,71h23v1h-23z M215,71h10v1h-10z M228,71h17v1h-17z M255,70h11v2h-11z M2,72h8v1h-8z M29,72h5v1h-5z M107,72h8v1h-8z M145,72h11v1h-11z M175,72h13v1h-13z M215,72h29v1h-29z M2,73h10v1h-10z M28,73h5v1h-5z M73,72h11v2h-11z M108,73h13v1h-13z M146,73h11v1h-11z M177,73h11v1h-11z M191,72h6v2h-6z M216,73h20v1h-20z M237,73h6v1h-6z M256,72h10v2h-10z M2,74h12v1h-12z M27,74h6v1h-6z M73,74h10v1h-10z M108,74h15v1h-15z M147,74h5v1h-5z M179,74h8v1h-8z M190,74h3v1h-3z M194,74h4v1h-4z M237,74h5v1h-5z M256,74h3v1h-3z M7,75h9v1h-9z M26,75h6v1h-6z M73,75h6v1h-6z M107,75h18v1h-18z M154,74h3v2h-3z M180,75h6v1h-6z M195,75h4v1h-4z M216,74h19v2h-19z M236,75h5v1h-5z M256,75h4v1h-4z M262,74h4v2h-4z M12,76h6v1h-6z M24,76h9v1h-9z M80,75h3v2h-3z M107,76h20v1h-20z M189,75h4v2h-4z M195,76h7v1h-7z M215,76h25v1h-25z M256,76h10v1h-10z M2,75h4v3h-4z M8,77h1v1h-1z M13,77h7v1h-7z M22,77h12v1h-12z M73,76h4v2h-4z M106,77h39v1h-39z M148,75h4v3h-4z M155,76h3v2h-3z M190,77h5v1h-5z M197,77h9v1h-9z M214,77h25v1h-25z M15,78h19v1h-19z M74,78h3v1h-3z M79,77h3v2h-3z M106,78h7v1h-7z M115,78h37v1h-37z M155,78h4v1h-4z M181,76h5v3h-5z M192,78h3v1h-3z M198,78h10v1h-10z M209,78h16v1h-16z M230,78h9v1h-9z M255,77h11v2h-11z M16,79h8v1h-8z M26,79h3v1h-3z M30,79h5v1h-5z M106,79h4v1h-4z M112,79h1v1h-1z M115,79h3v1h-3z M119,79h4v1h-4z M125,79h26v1h-26z M156,79h4v1h-4z M180,79h7v1h-7z M192,79h4v1h-4z M199,79h24v1h-24z M231,79h8v1h-8z M254,79h12v1h-12z M18,80h6v1h-6z M26,80h4v1h-4z M31,80h5v1h-5z M106,80h3v1h-3z M114,80h4v1h-4z M120,80h3v1h-3z M125,80h3v1h-3z M129,80h3v1h-3z M135,80h15v1h-15z M157,80h3v1h-3z M179,80h9v1h-9z M192,80h5v1h-5z M198,80h19v1h-19z M233,80h6v1h-6z M253,80h13v1h-13z M2,78h9v4h-9z M13,81h1v1h-1z M17,81h13v1h-13z M31,81h8v1h-8z M74,79h7v3h-7z M105,81h4v1h-4z M113,81h5v1h-5z M120,81h7v1h-7z M129,81h4v1h-4z M135,81h6v1h-6z M157,81h4v1h-4z M178,81h11v1h-11z M192,81h17v1h-17z M234,81h6v1h-6z M251,81h15v1h-15z M17,82h25v1h-25z M68,82h13v1h-13z M105,82h3v1h-3z M114,82h4v1h-4z M121,82h5v1h-5z M127,82h14v1h-14z M146,81h4v2h-4z M157,82h5v1h-5z M178,82h5v1h-5z M187,82h2v1h-2z M191,82h15v1h-15z M235,82h6v1h-6z M250,82h16v1h-16z M2,82h13v2h-13z M17,83h43v1h-43z M62,83h18v1h-18z M104,83h6v1h-6z M126,83h37v1h-37z M176,83h6v1h-6z M187,83h9v1h-9z M197,83h2v1h-2z M235,83h7v1h-7z M249,83h7v1h-7z M259,83h7v1h-7z M7,84h14v1h-14z M23,84h10v1h-10z M36,84h43v1h-43z M104,84h7v1h-7z M114,83h3v2h-3z M121,83h4v2h-4z M126,84h38v1h-38z M173,84h8v1h-8z M188,84h7v1h-7z M235,84h8v1h-8z M248,84h8v1h-8z M9,85h11v1h-11z M28,85h5v1h-5z M38,85h31v1h-31z M70,85h8v1h-8z M104,85h8v1h-8z M114,85h4v1h-4z M121,85h10v1h-10z M135,85h30v1h-30z M171,85h10v1h-10z M185,85h10v1h-10z M235,85h9v1h-9z M248,85h7v1h-7z M261,84h5v2h-5z M12,86h8v1h-8z M29,86h5v1h-5z M37,86h4v1h-4z M46,86h6v1h-6z M55,86h14v1h-14z M72,86h6v1h-6z M105,86h7v1h-7z M114,86h15v1h-15z M147,86h1v1h-1z M155,86h2v1h-2z M159,86h8v1h-8z M169,86h27v1h-27z M235,86h10v1h-10z M247,86h5v1h-5z M253,86h3v1h-3z M260,86h6v1h-6z M13,87h7v1h-7z M30,87h5v1h-5z M36,87h6v1h-6z M46,87h5v1h-5z M59,87h11v1h-11z M71,87h6v1h-6z M104,87h8v1h-8z M114,87h10v1h-10z M160,87h37v1h-37z M235,87h22v1h-22z M258,87h8v1h-8z M45,88h5v1h-5z M63,88h14v1h-14z M104,88h7v1h-7z M115,88h9v1h-9z M160,88h13v1h-13z M176,88h22v1h-22z M235,88h31v1h-31z M15,88h5v2h-5z M31,88h11v2h-11z M45,89h4v1h-4z M67,89h5v1h-5z M73,89h4v1h-4z M103,89h4v1h-4z M112,89h12v1h-12z M160,89h12v1h-12z M175,89h7v1h-7z M185,89h14v1h-14z M235,89h25v1h-25z M29,90h13v1h-13z M44,90h4v1h-4z M67,90h10v1h-10z M101,90h6v1h-6z M110,90h15v1h-15z M126,87h3v4h-3z M160,90h9v1h-9z M175,90h4v1h-4z M185,90h15v1h-15z M234,90h14v1h-14z M249,90h8v1h-8z M16,90h4v2h-4z M28,91h13v1h-13z M43,91h5v1h-5z M68,91h8v1h-8z M100,91h19v1h-19z M121,91h9v1h-9z M159,91h10v1h-10z M174,91h5v1h-5z M185,91h16v1h-16z M233,91h13v1h-13z M251,91h5v1h-5z M262,89h4v3h-4z M16,92h5v1h-5z M27,92h13v1h-13z M42,92h5v1h-5z M70,92h7v1h-7z M97,92h16v1h-16z M145,92h24v1h-24z M173,92h6v1h-6z M185,92h17v1h-17z M232,92h13v1h-13z M252,92h5v1h-5z M260,92h6v1h-6z M16,93h6v1h-6z M24,93h14v1h-14z M39,93h7v1h-7z M70,93h9v1h-9z M96,93h16v1h-16z M122,92h8v2h-8z M142,93h21v1h-21z M164,93h5v1h-5z M174,93h9v1h-9z M185,93h18v1h-18z M231,93h12v1h-12z M253,93h13v1h-13z M2,84h4v11h-4z M15,94h31v1h-31z M71,94h11v1h-11z M94,94h18v1h-18z M123,94h7v1h-7z M138,94h30v1h-30z M174,94h18v1h-18z M195,94h8v1h-8z M230,94h11v1h-11z M254,94h12v1h-12z M15,95h30v1h-30z M71,95h13v1h-13z M92,95h21v1h-21z M124,95h6v1h-6z M135,95h10v1h-10z M146,95h23v1h-23z M171,95h3v1h-3z M178,95h14v1h-14z M196,95h8v1h-8z M214,95h5v1h-5z M229,95h10v1h-10z M255,95h6v1h-6z M2,95h3v2h-3z M14,96h30v1h-30z M78,96h8v1h-8z M91,96h12v1h-12z M105,96h10v1h-10z M124,96h21v1h-21z M146,96h29v1h-29z M181,96h11v1h-11z M197,96h8v1h-8z M208,96h29v1h-29z M255,96h5v1h-5z M2,97h4v1h-4z M11,97h7v1h-7z M20,97h12v1h-12z M35,97h8v1h-8z M72,96h4v2h-4z M80,97h7v1h-7z M91,97h11v1h-11z M106,97h10v1h-10z M125,97h15v1h-15z M142,97h2v1h-2z M146,97h4v1h-4z M153,97h23v1h-23z M180,97h12v1h-12z M198,97h35v1h-35z M255,97h4v1h-4z M2,98h16v1h-16z M20,98h11v1h-11z M36,98h7v1h-7z M82,98h6v1h-6z M90,98h10v1h-10z M106,98h13v1h-13z M125,98h13v1h-13z M144,98h5v1h-5z M165,98h12v1h-12z M179,98h3v1h-3z M184,98h3v1h-3z M188,98h5v1h-5z M197,98h21v1h-21z M219,98h12v1h-12z M254,98h5v1h-5z M20,99h10v1h-10z M37,99h6v1h-6z M73,98h3v2h-3z M84,99h14v1h-14z M107,99h13v1h-13z M124,99h14v1h-14z M143,99h5v1h-5z M173,99h10v1h-10z M219,99h10v1h-10z M253,99h6v1h-6z M2,99h15v2h-15z M19,100h5v1h-5z M37,100h17v1h-17z M73,100h4v1h-4z M84,100h13v1h-13z M107,100h14v1h-14z M122,100h17v1h-17z M188,99h29v2h-29z M218,100h10v1h-10z M252,100h9v1h-9z M262,95h4v6h-4z M2,101h10v1h-10z M13,101h4v1h-4z M38,101h17v1h-17z M73,101h24v1h-24z M103,101h36v1h-36z M143,100h4v2h-4z M174,100h9v2h-9z M188,101h17v1h-17z M208,101h19v1h-19z M252,101h14v1h-14z M7,102h8v1h-8z M38,102h20v1h-20z M72,102h39v1h-39z M114,102h15v1h-15z M132,102h7v1h-7z M142,102h4v1h-4z M187,102h16v1h-16z M209,102h7v1h-7z M218,102h8v1h-8z M251,102h3v1h-3z M257,102h9v1h-9z M9,103h6v1h-6z M39,103h7v1h-7z M47,103h63v1h-63z M116,103h12v1h-12z M133,103h6v1h-6z M141,103h4v1h-4z M175,102h7v2h-7z M186,103h15v1h-15z M210,103h6v1h-6z M219,103h7v1h-7z M250,103h4v1h-4z M257,103h4v1h-4z M10,104h6v1h-6z M19,101h4v4h-4z M40,104h6v1h-6z M47,104h28v1h-28z M81,104h28v1h-28z M117,104h4v1h-4z M123,104h5v1h-5z M134,104h5v1h-5z M140,104h5v1h-5z M176,104h6v1h-6z M198,104h2v1h-2z M211,104h5v1h-5z M220,104h5v1h-5z M249,104h5v1h-5z M2,102h3v4h-3z M12,105h11v1h-11z M42,105h11v1h-11z M56,105h18v1h-18z M91,105h9v1h-9z M104,105h4v1h-4z M117,105h5v1h-5z M123,105h4v1h-4z M135,105h9v1h-9z M177,105h6v1h-6z M186,104h4v2h-4z M213,105h5v1h-5z M219,105h5v1h-5z M249,105h6v1h-6z M262,103h4v3h-4z M13,106h10v1h-10z M43,106h9v1h-9z M94,106h5v1h-5z M104,106h3v1h-3z M135,106h8v1h-8z M178,106h6v1h-6z M185,106h4v1h-4z M214,106h9v1h-9z M248,106h8v1h-8z M260,106h6v1h-6z M14,107h10v1h-10z M44,107h6v1h-6z M59,106h15v2h-15z M94,107h6v1h-6z M103,107h3v1h-3z M117,106h9v2h-9z M136,107h7v1h-7z M180,107h9v1h-9z M214,107h8v1h-8z M247,107h19v1h-19z M18,108h6v1h-6z M53,108h4v1h-4z M58,108h17v1h-17z M96,108h10v1h-10z M137,108h7v1h-7z M215,108h6v1h-6z M246,108h20v1h-20z M19,109h6v1h-6z M45,108h4v2h-4z M52,109h12v1h-12z M97,109h8v1h-8z M117,108h8v2h-8z M139,109h7v1h-7z M181,108h7v2h-7z M242,109h24v1h-24z M51,110h12v1h-12z M68,109h7v2h-7z M98,110h6v1h-6z M141,110h6v1h-6z M179,110h8v1h-8z M215,109h5v2h-5z M240,110h9v1h-9z M250,110h7v1h-7z M20,110h5v2h-5z M46,110h3v2h-3z M51,111h13v1h-13z M68,111h8v1h-8z M99,111h5v1h-5z M117,110h7v2h-7z M142,111h6v1h-6z M172,111h15v1h-15z M236,111h12v1h-12z M250,111h4v1h-4z M46,112h30v1h-30z M100,112h3v1h-3z M144,112h5v1h-5z M170,112h17v1h-17z M215,111h4v2h-4z M227,112h3v1h-3z M234,112h19v1h-19z M19,112h7v2h-7z M52,113h24v1h-24z M99,113h4v1h-4z M118,112h5v2h-5z M145,113h7v1h-7z M167,113h20v1h-20z M215,113h38v1h-38z M19,114h8v1h-8z M53,114h5v1h-5z M62,114h14v1h-14z M98,114h4v1h-4z M118,114h6v1h-6z M145,114h9v1h-9z M165,114h23v1h-23z M215,114h37v1h-37z M20,115h7v1h-7z M46,113h4v3h-4z M52,115h5v1h-5z M63,115h14v1h-14z M98,115h3v1h-3z M118,115h8v1h-8z M146,115h11v1h-11z M163,115h10v1h-10z M174,115h14v1h-14z M214,115h37v1h-37z M19,116h8v1h-8z M46,116h10v1h-10z M65,116h12v1h-12z M97,116h4v1h-4z M118,116h9v1h-9z M146,116h33v1h-33z M181,116h7v1h-7z M211,116h25v1h-25z M240,116h10v1h-10z M19,117h9v1h-9z M47,117h8v1h-8z M67,117h11v1h-11z M97,117h3v1h-3z M118,117h10v1h-10z M169,117h8v1h-8z M182,117h6v1h-6z M198,117h1v1h-1z M201,117h34v1h-34z M19,118h4v1h-4z M47,118h7v1h-7z M69,118h11v1h-11z M95,118h5v1h-5z M119,118h3v1h-3z M124,118h6v1h-6z M147,117h20v2h-20z M183,118h5v1h-5z M195,118h24v1h-24z M221,118h14v1h-14z M241,117h9v2h-9z M47,119h5v1h-5z M70,119h12v1h-12z M89,119h10v1h-10z M119,119h4v1h-4z M125,119h6v1h-6z M169,118h7v2h-7z M184,119h5v1h-5z M192,119h24v1h-24z M224,119h11v1h-11z M242,119h9v1h-9z M24,118h4v3h-4z M46,120h5v1h-5z M70,120h14v1h-14z M86,120h12v1h-12z M119,120h6v1h-6z M126,120h7v1h-7z M148,119h20v2h-20z M169,120h6v1h-6z M185,120h29v1h-29z M228,120h7v1h-7z M242,120h11v1h-11z M1,106h4v16h-4z M45,121h5v1h-5z M71,121h6v1h-6z M78,121h20v1h-20z M118,121h9v1h-9z M129,121h5v1h-5z M149,121h8v1h-8z M158,121h9v1h-9z M170,121h4v1h-4z M186,121h18v1h-18z M230,121h6v1h-6z M243,121h12v1h-12z M19,119h3v4h-3z M25,121h3v2h-3z M43,122h6v1h-6z M72,122h5v1h-5z M80,122h11v1h-11z M93,122h5v1h-5z M129,122h7v1h-7z M149,122h7v1h-7z M161,122h7v1h-7z M169,122h4v1h-4z M186,122h17v1h-17z M232,122h4v1h-4z M244,122h12v1h-12z M25,123h4v1h-4z M42,123h6v1h-6z M73,123h4v1h-4z M81,123h10v1h-10z M93,123h4v1h-4z M117,122h10v2h-10z M130,123h7v1h-7z M149,123h6v1h-6z M162,123h11v1h-11z M187,123h15v1h-15z M246,123h11v1h-11z M26,124h3v1h-3z M41,124h5v1h-5z M73,124h8v1h-8z M116,124h4v1h-4z M121,124h5v1h-5z M131,124h8v1h-8z M164,124h9v1h-9z M187,124h14v1h-14z M233,123h4v2h-4z M250,124h8v1h-8z M18,123h4v3h-4z M25,125h5v1h-5z M32,125h13v1h-13z M86,124h10v2h-10z M113,125h6v1h-6z M123,125h3v1h-3z M134,125h5v1h-5z M165,125h8v1h-8z M188,125h12v1h-12z M251,125h8v1h-8z M18,126h3v1h-3z M24,126h20v1h-20z M74,125h8v2h-8z M87,126h9v1h-9z M111,126h8v1h-8z M124,126h3v1h-3z M135,126h5v1h-5z M188,126h11v1h-11z M234,125h4v2h-4z M18,127h4v1h-4z M23,127h20v1h-20z M74,127h6v1h-6z M83,127h2v1h-2z M88,127h3v1h-3z M93,127h3v1h-3z M110,127h10v1h-10z M124,127h4v1h-4z M137,127h4v1h-4z M166,126h8v2h-8z M189,127h9v1h-9z M235,127h4v1h-4z M252,126h8v2h-8z M2,122h3v7h-3z M17,128h18v1h-18z M38,128h5v1h-5z M82,128h3v1h-3z M108,128h13v1h-13z M137,128h5v1h-5z M167,128h7v1h-7z M189,128h8v1h-8z M253,128h8v1h-8z M262,110h4v19h-4z M1,129h4v1h-4z M17,129h9v1h-9z M28,129h7v1h-7z M38,129h4v1h-4z M74,128h4v2h-4z M82,129h4v1h-4z M93,128h4v2h-4z M107,129h6v1h-6z M123,128h5v2h-5z M133,129h3v1h-3z M138,129h5v1h-5z M148,124h7v6h-7z M167,129h8v1h-8z M189,129h7v1h-7z M236,128h3v2h-3z M253,129h13v1h-13z M1,130h45v1h-45z M48,130h6v1h-6z M73,130h6v1h-6z M81,130h6v1h-6z M92,130h6v1h-6z M105,130h9v1h-9z M115,129h6v2h-6z M122,130h7v1h-7z M132,130h5v1h-5z M138,130h6v1h-6z M147,130h8v1h-8z M166,130h10v1h-10z M188,130h8v1h-8z M236,130h4v1h-4z M254,130h12v1h-12z M1,131h217v1h-217z M226,131h5v1h-5z M236,131h30v1h-30z M2,132h263v1h-263z M3,133h262v1h-262z M77,134h12v1h-12z M91,134h26v1h-26z M118,134h11v1h-11z M130,134h134v1h-134z
  "/>
</svg>