<?xml version="1.0" encoding="UTF-8"?>
<svg xmlns="http://www.w3.org/2000/svg" viewBox="0 0 269 138" width="269" height="138">
  <title>66 Massive igneous rock 66</title>
  <path fill="#111111" fill-rule="nonzero" d="
    M3,0h23v1h-23z M27,0h14v1h-14z M47,0h17v1h-17z M69,0h10v1h-10z M82,0h6v1h-6z M94,0h13v1h-13z M109,0h9v1h-9z M119,0h2v1h-2z M124,0h5v1h-5z M2,1h266v1h-266z M1,2h268v2h-268z M1,4h6v1h-6z M9,4h4v1h-4z M20,4h11v1h-11z M33,4h6v1h-6z M40,4h16v1h-16z M59,4h29v1h-29z M93,4h6v1h-6z M101,4h168v1h-168z M264,5h5v1h-5z M98,6h1v1h-1z M250,6h1v1h-1z M97,7h3v1h-3z M127,5h3v3h-3z M45,8h2v1h-2z M126,8h4v1h-4z M211,8h1v1h-1z M249,7h3v2h-3z M126,9h5v1h-5z M179,9h3v1h-3z M265,6h4v4h-4z M44,9h4v2h-4z M71,10h2v1h-2z M125,10h8v1h-8z M134,10h1v1h-1z M154,10h2v1h-2z M249,9h4v2h-4z M44,11h5v1h-5z M97,8h4v4h-4z M153,11h3v1h-3z M210,9h4v3h-4z M248,11h5v1h-5z M41,12h10v1h-10z M93,12h11v1h-11z M179,10h4v3h-4z M209,12h6v1h-6z M245,12h12v1h-12z M265,10h3v3h-3z M92,13h13v1h-13z M122,11h13v3h-13z M153,12h4v2h-4z M177,13h8v1h-8z M206,13h13v1h-13z M244,13h13v1h-13z M265,13h4v1h-4z M70,11h4v4h-4z M92,14h14v1h-14z M152,14h5v1h-5z M175,14h12v1h-12z M244,14h14v1h-14z M265,14h3v1h-3z M40,13h12v3h-12z M69,15h5v1h-5z M94,15h11v1h-11z M125,14h5v2h-5z M149,15h12v1h-12z M175,15h13v1h-13z M205,14h14v2h-14z M245,15h12v1h-12z M265,15h4v1h-4z M15,13h4v4h-4z M44,16h5v1h-5z M67,16h10v1h-10z M96,16h5v1h-5z M148,16h14v1h-14z M176,16h11v1h-11z M205,16h13v1h-13z M248,16h5v1h-5z M264,16h5v1h-5z M13,17h8v1h-8z M67,17h11v1h-11z M126,16h4v2h-4z M149,17h13v1h-13z M12,18h11v1h-11z M44,17h4v2h-4z M67,18h10v1h-10z M127,18h2v1h-2z M151,18h9v1h-9z M249,17h4v2h-4z M11,19h12v1h-12z M45,19h2v1h-2z M68,19h7v1h-7z M97,17h4v3h-4z M12,20h10v1h-10z M98,20h2v1h-2z M179,17h4v4h-4z M210,17h4v4h-4z M249,19h3v2h-3z M1,5h4v17h-4z M13,21h7v1h-7z M69,20h5v2h-5z M180,21h2v1h-2z M250,21h1v1h-1z M1,22h5v1h-5z M153,19h4v4h-4z M15,22h4v2h-4z M70,22h3v2h-3z M232,23h2v1h-2z M16,24h3v1h-3z M71,24h1v1h-1z M17,25h1v1h-1z M231,24h4v2h-4z M232,26h3v1h-3z M231,27h4v1h-4z M230,28h6v1h-6z M109,29h3v1h-3z M194,30h3v1h-3z M136,31h2v1h-2z M166,31h3v1h-3z M226,29h13v3h-13z M32,32h2v1h-2z M109,30h4v3h-4z M228,32h11v1h-11z M31,33h3v1h-3z M108,33h8v1h-8z M231,33h5v1h-5z M193,31h4v4h-4z M81,35h2v1h-2z M190,35h9v1h-9z M231,34h4v2h-4z M31,34h4v3h-4z M54,36h2v1h-2z M80,36h3v1h-3z M105,34h12v3h-12z M135,32h4v5h-4z M166,32h4v5h-4z M232,36h3v1h-3z M28,37h10v1h-10z M133,37h9v1h-9z M163,37h1v1h-1z M165,37h5v1h-5z M188,36h13v2h-13z M253,37h2v1h-2z M162,38h11v1h-11z M189,38h11v1h-11z M27,38h12v2h-12z M53,37h4v3h-4z M80,37h4v3h-4z M132,38h11v2h-11z M162,39h12v1h-12z M193,39h4v1h-4z M28,40h8v1h-8z M53,40h5v1h-5z M79,40h5v1h-5z M133,40h9v1h-9z M163,40h11v1h-11z M253,38h3v3h-3z M77,41h10v1h-10z M109,37h4v5h-4z M165,41h6v1h-6z M252,41h5v1h-5z M11,42h2v1h-2z M110,42h2v1h-2z M249,42h10v1h-10z M11,43h3v1h-3z M31,41h4v3h-4z M50,41h12v3h-12z M76,42h11v2h-11z M194,40h3v4h-3z M31,44h3v1h-3z M51,44h10v1h-10z M77,44h9v1h-9z M135,41h4v4h-4z M166,42h4v3h-4z M10,44h4v2h-4z M33,45h1v1h-1z M137,45h1v1h-1z M166,45h3v1h-3z M248,43h12v3h-12z M1,23h4v24h-4z M10,46h5v1h-5z M252,46h5v1h-5z M1,47h5v1h-5z M8,47h9v1h-9z M53,45h4v3h-4z M253,47h4v1h-4z M1,48h17v1h-17z M53,48h3v1h-3z M80,45h4v4h-4z M1,49h18v1h-18z M81,49h2v1h-2z M1,50h17v1h-17z M216,46h4v5h-4z M253,48h3v3h-3z M1,51h6v1h-6z M10,51h6v1h-6z M215,51h9v1h-9z M1,52h4v1h-4z M10,52h5v2h-5z M212,52h13v2h-13z M10,54h4v1h-4z M116,54h3v1h-3z M153,54h3v1h-3z M212,54h12v1h-12z M11,55h3v1h-3z M153,55h4v1h-4z M183,55h2v1h-2z M216,55h5v1h-5z M12,56h1v1h-1z M115,55h4v2h-4z M1,53h5v5h-5z M67,57h1v1h-1z M116,57h3v1h-3z M153,56h3v2h-3z M216,56h4v2h-4z M265,17h4v41h-4z M115,58h5v1h-5z M153,58h4v1h-4z M182,56h3v3h-3z M217,58h3v1h-3z M114,59h10v1h-10z M181,59h5v1h-5z M113,60h12v1h-12z M177,60h12v1h-12z M217,59h2v2h-2z M40,61h2v1h-2z M111,61h13v1h-13z M149,59h12v3h-12z M238,59h2v3h-2z M66,58h3v5h-3z M94,62h2v1h-2z M113,62h10v1h-10z M149,62h11v1h-11z M177,61h13v2h-13z M40,62h3v2h-3z M65,63h6v1h-6z M93,63h3v1h-3z M115,63h5v1h-5z M181,63h5v1h-5z M237,62h4v2h-4z M265,58h3v6h-3z M115,64h4v1h-4z M234,64h8v1h-8z M39,64h4v2h-4z M93,64h4v2h-4z M152,63h4v3h-4z M38,66h6v1h-6z M63,64h11v3h-11z M93,66h3v1h-3z M116,65h3v2h-3z M233,65h13v2h-13z M265,64h4v3h-4z M64,67h9v1h-9z M92,67h4v1h-4z M116,67h2v1h-2z M153,66h3v2h-3z M182,64h4v4h-4z M233,67h12v1h-12z M65,68h4v1h-4z M90,68h7v1h-7z M153,68h2v1h-2z M183,68h2v1h-2z M236,68h5v1h-5z M37,67h10v3h-10z M39,70h5v1h-5z M66,69h3v2h-3z M89,69h12v2h-12z M67,71h1v1h-1z M90,71h11v1h-11z M237,69h4v3h-4z M92,72h5v1h-5z M201,72h2v1h-2z M238,72h1v1h-1z M265,67h3v6h-3z M39,71h4v3h-4z M133,73h2v1h-2z M40,74h2v1h-2z M132,74h3v1h-3z M264,73h5v2h-5z M93,73h3v3h-3z M264,75h4v1h-4z M20,75h2v2h-2z M200,73h4v4h-4z M132,75h4v3h-4z M197,77h11v1h-11z M19,77h3v2h-3z M131,78h6v1h-6z M138,78h1v1h-1z M196,78h13v1h-13z M127,79h12v1h-12z M195,79h14v1h-14z M265,76h3v4h-3z M19,79h4v2h-4z M196,80h12v1h-12z M264,80h4v1h-4z M16,81h9v1h-9z M127,80h13v2h-13z M167,79h3v3h-3z M129,82h8v1h-8z M138,82h1v1h-1z M251,82h2v1h-2z M15,82h12v2h-12z M53,83h3v1h-3z M264,81h5v3h-5z M16,84h9v1h-9z M132,83h4v2h-4z M167,82h4v3h-4z M200,81h4v4h-4z M18,85h5v1h-5z M133,85h3v1h-3z M166,85h5v1h-5z M201,85h2v1h-2z M221,85h3v1h-3z M251,83h3v3h-3z M163,86h12v1h-12z M250,86h5v1h-5z M19,86h4v2h-4z M52,84h4v4h-4z M103,87h2v1h-2z M246,87h12v1h-12z M19,88h3v1h-3z M51,88h7v1h-7z M162,87h13v2h-13z M245,88h14v1h-14z M20,89h1v1h-1z M49,89h10v1h-10z M163,89h10v1h-10z M220,86h4v4h-4z M245,89h13v1h-13z M102,88h4v3h-4z M166,90h4v1h-4z M220,90h5v1h-5z M226,90h1v1h-1z M228,90h1v1h-1z M247,90h1v1h-1z M49,90h11v2h-11z M76,91h2v1h-2z M102,91h5v1h-5z M52,92h5v1h-5z M99,92h11v1h-11z M167,91h3v3h-3z M216,91h14v3h-14z M250,90h4v4h-4z M75,92h4v3h-4z M98,93h12v2h-12z M167,94h2v1h-2z M219,94h6v1h-6z M52,93h4v3h-4z M74,95h8v1h-8z M100,95h7v1h-7z M220,95h4v1h-4z M251,94h3v2h-3z M53,96h2v2h-2z M148,97h1v1h-1z M189,97h2v1h-2z M221,96h3v2h-3z M72,96h11v3h-11z M222,98h1v1h-1z M74,99h5v1h-5z M103,96h3v4h-3z M147,98h3v2h-3z M32,96h3v5h-3z M188,98h3v3h-3z M31,101h5v1h-5z M75,100h4v2h-4z M147,100h4v2h-4z M188,101h4v1h-4z M29,102h10v1h-10z M75,102h3v1h-3z M144,102h11v1h-11z M185,102h10v1h-10z M28,103h11v1h-11z M76,103h2v1h-2z M143,103h13v1h-13z M183,103h13v1h-13z M29,104h9v1h-9z M142,104h13v1h-13z M183,104h14v1h-14z M31,105h5v1h-5z M143,105h11v1h-11z M184,105h12v1h-12z M11,107h2v1h-2z M32,106h3v2h-3z M188,106h4v2h-4z M33,108h1v1h-1z M122,107h3v2h-3z M147,106h4v3h-4z M121,109h4v1h-4z M188,108h3v2h-3z M122,110h3v1h-3z M147,109h3v2h-3z M10,108h4v4h-4z M121,111h4v1h-4z M148,111h1v1h-1z M233,110h3v2h-3z M1,58h4v55h-4z M9,112h6v1h-6z M121,112h5v1h-5z M127,112h2v1h-2z M233,112h2v1h-2z M1,113h5v1h-5z M7,113h10v1h-10z M118,113h12v1h-12z M206,113h2v1h-2z M232,113h4v1h-4z M1,114h17v1h-17z M117,114h13v1h-13z M206,114h3v1h-3z M229,114h12v1h-12z M258,114h1v1h-1z M1,115h16v1h-16z M95,115h2v1h-2z M118,115h12v1h-12z M166,115h3v1h-3z M9,116h5v1h-5z M48,116h2v1h-2z M121,116h5v1h-5z M228,115h13v2h-13z M95,116h3v2h-3z M165,116h4v2h-4z M257,115h3v3h-3z M10,117h4v2h-4z M47,117h3v2h-3z M94,118h4v1h-4z M121,117h4v2h-4z M256,118h4v1h-4z M264,84h4v35h-4z M47,119h4v1h-4z M92,119h6v1h-6z M122,119h3v1h-3z M166,118h3v2h-3z M205,115h4v5h-4z M232,117h4v3h-4z M256,119h5v1h-5z M263,119h5v1h-5z M11,119h2v2h-2z M47,120h5v1h-5z M71,120h1v1h-1z M122,120h2v1h-2z M164,120h9v1h-9z M202,120h11v1h-11z M233,120h2v1h-2z M71,121h2v1h-2z M90,120h12v2h-12z M162,121h11v1h-11z M201,121h13v1h-13z M69,122h6v1h-6z M90,122h11v1h-11z M162,122h12v1h-12z M202,122h11v1h-11z M252,120h16v3h-16z M43,121h12v3h-12z M67,123h11v1h-11z M93,123h5v1h-5z M162,123h11v1h-11z M255,123h6v1h-6z M263,123h5v1h-5z M45,124h6v1h-6z M66,124h12v1h-12z M256,124h4v1h-4z M67,125h11v1h-11z M94,124h4v2h-4z M139,124h3v2h-3z M257,125h2v1h-2z M264,124h4v2h-4z M69,126h5v1h-5z M95,126h2v1h-2z M139,126h4v1h-4z M205,123h4v4h-4z M263,126h5v1h-5z M69,127h4v1h-4z M95,127h1v1h-1z M137,127h6v1h-6z M165,124h4v4h-4z M205,127h3v1h-3z M136,128h10v1h-10z M166,128h1v1h-1z M206,128h2v1h-2z M47,125h3v5h-3z M70,128h3v2h-3z M135,129h12v1h-12z M48,130h1v1h-1z M71,130h1v1h-1z M136,130h11v1h-11z M1,116h4v16h-4z M138,131h5v1h-5z M145,131h1v1h-1z M264,127h4v5h-4z M1,132h5v1h-5z M139,132h4v1h-4z M263,132h5v1h-5z M1,133h40v1h-40z M42,133h150v1h-150z M193,133h17v1h-17z M211,133h1v1h-1z M215,133h16v1h-16z M233,133h8v1h-8z M242,133h26v1h-26z M1,134h267v2h-267z M2,136h265v1h-265z M83,137h1v1h-1z M91,137h1v1h-1z M137,137h2v1h-2z M167,137h2v1h-2z M218,137h3v1h-3z
  "/>
</svg>