<?xml version="1.0" encoding="UTF-8"?>
<svg xmlns="http://www.w3.org/2000/svg" viewBox="0 0 267 139" width="267" height="139">
  <title>68 Massive igneous rock 68</title>
  <path fill="#111111" fill-rule="nonzero" d="
    M2,1h120v1h-120z M125,1h141v1h-141z M1,2h265v1h-265z M1,3h266v1h-266z M1,4h265v1h-265z M0,5h5v1h-5z M145,5h5v1h-5z M161,5h1v1h-1z M163,5h5v1h-5z M192,5h1v1h-1z M261,5h5v1h-5z M21,10h1v1h-1z M193,10h2v1h-2z M20,11h3v1h-3z M121,11h3v1h-3z M186,11h1v1h-1z M192,11h4v1h-4z M227,11h3v1h-3z M263,6h3v6h-3z M13,12h3v1h-3z M19,12h4v1h-4z M81,12h2v1h-2z M114,12h3v1h-3z M120,12h5v1h-5z M148,12h3v1h-3z M155,12h3v1h-3z M185,12h3v1h-3z M191,12h5v1h-5z M226,12h5v1h-5z M262,12h4v1h-4z M12,13h10v1h-10z M48,13h2v1h-2z M54,13h2v1h-2z M81,13h3v1h-3z M87,13h3v1h-3z M113,13h11v1h-11z M148,13h4v1h-4z M154,13h4v1h-4z M185,13h11v1h-11z M219,13h4v1h-4z M225,13h6v1h-6z M257,13h3v1h-3z M261,13h5v1h-5z M13,14h8v1h-8z M47,14h4v1h-4z M52,14h4v1h-4z M81,14h4v1h-4z M86,14h4v1h-4z M114,14h9v1h-9z M148,14h10v1h-10z M183,14h1v1h-1z M185,14h10v1h-10z M217,14h13v1h-13z M256,14h10v1h-10z M48,15h8v1h-8z M81,15h9v1h-9z M110,15h13v1h-13z M257,15h9v1h-9z M14,15h6v2h-6z M48,16h7v1h-7z M79,16h1v1h-1z M110,16h12v1h-12z M145,16h3v1h-3z M149,15h8v2h-8z M216,15h13v2h-13z M10,17h11v1h-11z M44,17h4v1h-4z M49,17h6v1h-6z M78,17h3v1h-3z M82,16h7v2h-7z M110,17h13v1h-13z M144,17h13v1h-13z M182,15h12v3h-12z M216,17h14v1h-14z M43,18h13v1h-13z M77,18h13v1h-13z M144,18h14v1h-14z M183,18h12v1h-12z M217,18h13v1h-13z M253,16h14v3h-14z M10,18h12v2h-12z M44,19h12v1h-12z M78,19h13v1h-13z M112,18h12v2h-12z M146,19h13v1h-13z M184,19h12v1h-12z M219,19h12v1h-12z M19,20h2v1h-2z M45,20h11v1h-11z M78,20h12v1h-12z M112,20h7v1h-7z M121,20h3v1h-3z M147,20h12v1h-12z M183,20h12v1h-12z M218,20h12v1h-12z M254,19h13v2h-13z M10,20h7v2h-7z M45,21h7v1h-7z M54,21h2v1h-2z M79,21h7v1h-7z M88,21h1v1h-1z M112,21h8v1h-8z M147,21h11v1h-11z M182,21h12v1h-12z M218,21h10v1h-10z M44,22h8v1h-8z M79,22h8v1h-8z M111,22h9v1h-9z M146,22h10v1h-10z M182,22h11v1h-11z M217,22h11v1h-11z M253,21h14v2h-14z M9,22h9v2h-9z M44,23h9v1h-9z M77,23h10v1h-10z M110,23h5v1h-5z M117,23h3v1h-3z M145,23h5v1h-5z M152,23h4v1h-4z M181,23h5v1h-5z M191,23h2v1h-2z M216,23h5v1h-5z M225,23h2v1h-2z M253,23h3v1h-3z M259,23h8v1h-8z M9,24h3v1h-3z M43,24h5v1h-5z M49,24h5v1h-5z M76,24h6v1h-6z M83,24h4v1h-4z M110,24h4v1h-4z M144,24h5v1h-5z M153,24h3v1h-3z M182,24h3v1h-3z M216,24h4v1h-4z M254,24h1v1h-1z M261,24h6v1h-6z M44,25h3v1h-3z M50,25h4v1h-4z M110,25h3v1h-3z M217,25h2v1h-2z M262,25h5v1h-5z M52,26h2v1h-2z M76,25h4v2h-4z M111,26h1v1h-1z M144,25h4v2h-4z M77,27h1v1h-1z M240,37h1v1h-1z M167,38h2v1h-2z M202,38h3v1h-3z M231,38h3v1h-3z M238,38h4v1h-4z M159,39h1v1h-1z M166,39h4v1h-4z M193,39h3v1h-3z M201,39h5v1h-5z M231,39h4v1h-4z M236,39h6v1h-6z M158,40h3v1h-3z M193,40h4v1h-4z M200,40h5v1h-5z M230,40h11v1h-11z M128,41h3v1h-3z M157,41h4v1h-4z M165,40h5v2h-5z M193,41h11v1h-11z M231,41h9v1h-9z M92,42h1v1h-1z M127,42h4v1h-4z M156,42h13v1h-13z M227,42h4v1h-4z M232,42h7v1h-7z M14,43h3v1h-3z M23,43h2v1h-2z M50,43h1v1h-1z M58,43h3v1h-3z M84,43h3v1h-3z M91,43h4v1h-4z M121,43h9v1h-9z M155,43h13v1h-13z M226,43h15v1h-15z M14,44h4v1h-4z M22,44h4v1h-4z M49,44h3v1h-3z M57,44h4v1h-4z M84,44h4v1h-4z M90,44h5v1h-5z M121,44h8v1h-8z M190,42h13v3h-13z M227,44h15v1h-15z M14,45h11v1h-11z M48,45h5v1h-5z M56,45h5v1h-5z M84,45h10v1h-10z M120,45h8v1h-8z M155,44h12v2h-12z M191,45h13v1h-13z M228,45h14v1h-14z M15,46h9v1h-9z M49,46h11v1h-11z M81,46h1v1h-1z M156,46h11v1h-11z M192,46h12v1h-12z M229,46h13v1h-13z M263,26h4v21h-4z M12,47h2v1h-2z M16,47h8v1h-8z M45,47h2v1h-2z M50,47h9v1h-9z M80,47h4v1h-4z M85,46h7v2h-7z M118,46h10v2h-10z M192,47h13v1h-13z M229,47h9v1h-9z M11,48h12v1h-12z M44,48h4v1h-4z M50,48h8v1h-8z M81,48h11v1h-11z M119,48h11v1h-11z M157,47h12v2h-12z M192,48h12v1h-12z M228,48h10v1h-10z M12,49h11v1h-11z M44,49h5v1h-5z M51,49h6v1h-6z M81,49h13v1h-13z M190,49h13v1h-13z M227,49h5v1h-5z M234,49h5v1h-5z M263,47h3v3h-3z M12,50h12v1h-12z M44,50h14v1h-14z M82,50h13v1h-13z M119,49h12v2h-12z M156,49h14v2h-14z M190,50h5v1h-5z M198,50h4v1h-4z M226,50h4v1h-4z M237,50h1v1h-1z M45,51h14v1h-14z M82,51h7v1h-7z M91,51h4v1h-4z M117,51h13v1h-13z M155,51h13v1h-13z M190,51h4v1h-4z M226,51h3v1h-3z M13,51h12v2h-12z M47,52h12v1h-12z M81,52h8v1h-8z M92,52h3v1h-3z M117,52h5v1h-5z M124,52h6v1h-6z M154,52h5v1h-5z M163,52h3v1h-3z M190,52h3v1h-3z M227,52h1v1h-1z M12,53h13v1h-13z M47,53h6v1h-6z M55,53h5v1h-5z M80,53h10v1h-10z M116,53h5v1h-5z M125,53h3v1h-3z M155,53h3v1h-3z M262,50h4v4h-4z M11,54h11v1h-11z M46,54h7v1h-7z M57,54h2v1h-2z M80,54h5v1h-5z M86,54h4v1h-4z M116,54h4v1h-4z M10,55h6v1h-6z M17,55h5v1h-5z M45,55h9v1h-9z M58,55h1v1h-1z M80,55h3v1h-3z M87,55h2v1h-2z M116,55h3v1h-3z M10,56h4v1h-4z M18,56h4v1h-4z M45,56h10v1h-10z M80,56h2v1h-2z M10,57h3v1h-3z M45,57h3v1h-3z M51,57h3v1h-3z M45,58h2v1h-2z M1,6h3v56h-3z M263,54h3v8h-3z M1,62h4v1h-4z M263,62h4v8h-4z M208,70h1v1h-1z M199,71h1v1h-1z M206,71h4v1h-4z M197,72h4v1h-4z M205,72h5v1h-5z M242,72h1v1h-1z M197,73h6v1h-6z M204,73h6v1h-6z M234,73h1v1h-1z M240,73h4v1h-4z M168,74h3v1h-3z M197,74h11v1h-11z M233,74h3v1h-3z M239,74h5v1h-5z M167,75h4v1h-4z M232,75h12v1h-12z M1,63h3v14h-3z M166,76h5v1h-5z M194,75h13v2h-13z M58,77h3v1h-3z M93,77h2v1h-2z M130,77h4v1h-4z M159,77h3v1h-3z M165,77h5v1h-5z M194,77h15v1h-15z M230,76h13v2h-13z M263,70h3v8h-3z M1,77h4v2h-4z M16,78h2v1h-2z M24,78h2v1h-2z M49,78h4v1h-4z M56,78h5v1h-5z M92,78h4v1h-4z M123,78h1v1h-1z M129,78h5v1h-5z M158,78h5v1h-5z M164,78h5v1h-5z M194,78h16v1h-16z M229,78h14v1h-14z M263,78h4v1h-4z M16,79h3v1h-3z M49,79h5v1h-5z M56,79h4v1h-4z M84,79h3v1h-3z M91,79h4v1h-4z M122,79h3v1h-3z M128,79h5v1h-5z M155,79h13v1h-13z M230,79h13v1h-13z M15,80h5v1h-5z M22,79h4v2h-4z M50,80h10v1h-10z M84,80h4v1h-4z M90,80h4v1h-4z M122,80h10v1h-10z M155,80h12v1h-12z M196,79h14v2h-14z M16,81h9v1h-9z M50,81h9v1h-9z M84,81h9v1h-9z M118,81h13v1h-13z M155,81h13v1h-13z M232,80h12v2h-12z M262,79h4v3h-4z M12,82h3v1h-3z M16,82h8v1h-8z M46,82h4v1h-4z M51,82h7v1h-7z M85,82h7v1h-7z M117,82h13v1h-13z M155,82h14v1h-14z M196,81h11v2h-11z M232,82h11v1h-11z M259,82h7v1h-7z M81,83h2v1h-2z M86,83h6v1h-6z M157,83h13v1h-13z M195,83h5v1h-5z M202,83h4v1h-4z M231,83h10v1h-10z M12,83h12v2h-12z M46,83h12v2h-12z M118,83h14v2h-14z M158,84h13v1h-13z M193,84h6v1h-6z M204,84h1v1h-1z M230,84h6v1h-6z M237,84h3v1h-3z M258,83h8v2h-8z M13,85h12v1h-12z M47,85h12v1h-12z M80,84h13v2h-13z M158,85h12v1h-12z M193,85h5v1h-5z M229,85h6v1h-6z M238,85h1v1h-1z M14,86h12v1h-12z M48,86h5v1h-5z M55,86h5v1h-5z M81,86h13v1h-13z M120,85h13v2h-13z M157,86h10v1h-10z M192,86h5v1h-5z M228,86h6v1h-6z M14,87h11v1h-11z M47,87h7v1h-7z M56,87h3v1h-3z M81,87h14v1h-14z M120,87h12v1h-12z M156,87h4v1h-4z M162,87h4v1h-4z M227,87h5v1h-5z M14,88h7v1h-7z M58,88h1v1h-1z M81,88h9v1h-9z M91,88h4v1h-4z M120,88h10v1h-10z M155,88h4v1h-4z M192,87h4v2h-4z M228,88h3v1h-3z M257,85h9v4h-9z M12,89h10v1h-10z M46,88h9v2h-9z M118,89h6v1h-6z M126,89h4v1h-4z M154,89h5v1h-5z M194,89h1v1h-1z M12,90h9v1h-9z M46,90h3v1h-3z M52,90h3v1h-3z M80,89h11v2h-11z M117,90h5v1h-5z M153,90h5v1h-5z M258,89h8v2h-8z M1,79h3v13h-3z M12,91h4v1h-4z M19,91h2v1h-2z M46,91h2v1h-2z M79,91h5v1h-5z M86,91h5v1h-5z M117,91h4v1h-4z M153,91h4v1h-4z M257,91h9v1h-9z M12,92h3v1h-3z M78,92h5v1h-5z M88,92h2v1h-2z M118,92h3v1h-3z M154,92h2v1h-2z M257,92h2v1h-2z M1,92h4v2h-4z M79,93h3v1h-3z M262,92h4v2h-4z M1,94h3v2h-3z M1,96h4v3h-4z M263,94h3v8h-3z M263,102h4v2h-4z M1,99h3v7h-3z M1,106h4v2h-4z M172,109h2v1h-2z M241,109h1v1h-1z M1,108h3v3h-3z M170,110h5v1h-5z M205,110h3v1h-3z M240,110h3v1h-3z M25,111h3v1h-3z M134,111h2v1h-2z M169,111h5v1h-5z M197,111h2v1h-2z M204,111h5v1h-5z M16,112h2v1h-2z M24,112h4v1h-4z M59,112h3v1h-3z M97,112h2v1h-2z M133,112h3v1h-3z M168,112h6v1h-6z M197,112h4v1h-4z M203,112h5v1h-5z M238,111h5v2h-5z M16,113h4v1h-4z M58,113h4v1h-4z M124,113h2v1h-2z M131,113h5v1h-5z M160,113h4v1h-4z M167,113h6v1h-6z M196,113h11v1h-11z M232,113h3v1h-3z M237,113h5v1h-5z M16,114h5v1h-5z M23,113h5v2h-5z M50,114h3v1h-3z M57,114h5v1h-5z M87,114h2v1h-2z M95,113h4v2h-4z M123,114h4v1h-4z M130,114h5v1h-5z M159,114h12v1h-12z M195,114h12v1h-12z M232,114h9v1h-9z M1,111h4v5h-4z M17,115h10v1h-10z M50,115h5v1h-5z M56,115h5v1h-5z M86,115h4v1h-4z M93,115h6v1h-6z M123,115h11v1h-11z M194,115h12v1h-12z M228,115h12v1h-12z M13,116h3v1h-3z M17,116h8v1h-8z M50,116h10v1h-10z M85,116h13v1h-13z M120,116h14v1h-14z M51,117h8v1h-8z M84,117h13v1h-13z M157,115h13v3h-13z M194,116h13v2h-13z M228,116h11v2h-11z M13,117h12v2h-12z M47,118h2v1h-2z M52,118h7v1h-7z M83,118h13v1h-13z M120,117h12v2h-12z M158,118h12v1h-12z M195,118h13v1h-13z M228,118h13v1h-13z M1,116h3v4h-3z M14,119h11v1h-11z M46,119h13v1h-13z M121,119h12v1h-12z M158,119h13v1h-13z M196,119h12v1h-12z M229,119h13v1h-13z M15,120h11v1h-11z M47,120h12v1h-12z M84,119h12v2h-12z M159,120h12v1h-12z M195,120h9v1h-9z M229,120h14v1h-14z M15,121h6v1h-6z M22,121h5v1h-5z M48,121h12v1h-12z M85,121h11v1h-11z M194,121h11v1h-11z M228,121h14v1h-14z M14,122h8v1h-8z M23,122h4v1h-4z M48,122h7v1h-7z M56,122h5v1h-5z M86,122h11v1h-11z M122,120h12v3h-12z M158,121h13v2h-13z M193,122h6v1h-6z M201,122h4v1h-4z M227,122h14v1h-14z M13,123h9v1h-9z M48,123h8v1h-8z M57,123h4v1h-4z M86,123h10v1h-10z M121,123h10v1h-10z M156,123h6v1h-6z M163,123h7v1h-7z M193,123h5v1h-5z M202,123h1v1h-1z M227,123h5v1h-5z M235,123h3v1h-3z M12,124h11v1h-11z M46,124h11v1h-11z M84,124h11v1h-11z M120,124h12v1h-12z M155,124h6v1h-6z M165,124h4v1h-4z M192,124h5v1h-5z M227,124h4v1h-4z M12,125h4v1h-4z M19,125h3v1h-3z M46,125h4v1h-4z M51,125h6v1h-6z M84,125h5v1h-5z M91,125h4v1h-4z M118,125h6v1h-6z M128,125h4v1h-4z M166,125h2v1h-2z M192,125h4v1h-4z M227,125h2v1h-2z M1,120h4v7h-4z M12,126h3v1h-3z M45,126h4v1h-4z M53,126h4v1h-4z M83,126h5v1h-5z M118,126h5v1h-5z M155,125h5v2h-5z M193,126h2v1h-2z M2,127h3v1h-3z M46,127h2v1h-2z M55,127h1v1h-1z M83,127h4v1h-4z M118,127h4v1h-4z M156,127h2v1h-2z M85,128h1v1h-1z M119,128h1v1h-1z M263,104h3v28h-3z M1,128h4v5h-4z M1,133h10v1h-10z M12,133h4v1h-4z M20,133h3v1h-3z M48,133h1v1h-1z M88,133h1v1h-1z M262,132h4v2h-4z M1,134h266v2h-266z M2,136h265v1h-265z M20,137h3v1h-3z M25,137h241v1h-241z M244,138h3v1h-3z M259,138h1v1h-1z
  "/>
</svg>