<?xml version="1.0" encoding="UTF-8"?>
<svg xmlns="http://www.w3.org/2000/svg" viewBox="0 0 266 138" width="266" height="138">
  <title>54 Bedded lava and tuff</title>
  <path fill="#111111" fill-rule="nonzero" d="
    M23,1h186v1h-186z M211,1h1v1h-1z M213,1h3v1h-3z M223,1h2v1h-2z M2,2h263v1h-263z M1,3h265v1h-265z M1,4h30v1h-30z M33,4h5v1h-5z M54,4h1v1h-1z M86,4h3v1h-3z M97,4h2v1h-2z M101,4h2v1h-2z M105,4h13v1h-13z M124,4h1v1h-1z M126,4h25v1h-25z M155,4h111v1h-111z M14,5h2v1h-2z M19,5h2v1h-2z M69,5h1v1h-1z M85,5h1v1h-1z M141,5h7v1h-7z M180,5h11v1h-11z M198,5h8v1h-8z M214,5h1v1h-1z M216,5h16v1h-16z M235,5h31v1h-31z M64,6h8v1h-8z M81,6h8v1h-8z M141,6h8v1h-8z M179,6h12v1h-12z M197,6h9v1h-9z M214,6h18v1h-18z M235,6h13v1h-13z M251,6h15v1h-15z M1,5h4v3h-4z M13,7h32v1h-32z M61,7h13v1h-13z M80,7h10v1h-10z M104,7h31v1h-31z M139,7h10v1h-10z M178,7h14v1h-14z M196,7h11v1h-11z M213,7h9v1h-9z M225,7h17v1h-17z M255,7h11v1h-11z M1,8h49v1h-49z M61,8h14v1h-14z M78,8h7v1h-7z M87,8h1v1h-1z M90,8h1v1h-1z M97,8h39v1h-39z M138,8h11v1h-11z M174,8h9v1h-9z M188,8h6v1h-6z M195,8h13v1h-13z M213,8h8v1h-8z M228,8h11v1h-11z M257,8h9v1h-9z M72,9h11v1h-11z M91,9h58v1h-58z M174,9h7v1h-7z M190,9h8v1h-8z M205,9h3v1h-3z M214,9h5v1h-5z M230,9h23v1h-23z M261,9h4v1h-4z M1,9h54v2h-54z M74,10h7v1h-7z M89,10h46v1h-46z M136,10h12v1h-12z M175,10h4v1h-4z M192,10h5v1h-5z M231,10h28v1h-28z M260,10h5v1h-5z M1,11h22v1h-22z M29,11h10v1h-10z M44,11h12v1h-12z M75,11h4v1h-4z M88,11h17v1h-17z M136,11h11v1h-11z M157,11h9v1h-9z M229,11h36v1h-36z M1,12h9v1h-9z M28,12h11v1h-11z M84,12h14v1h-14z M136,12h12v1h-12z M154,12h13v1h-13z M226,12h39v1h-39z M1,13h5v1h-5z M27,13h13v1h-13z M82,13h13v1h-13z M107,13h14v1h-14z M136,13h13v1h-13z M152,13h13v1h-13z M190,13h13v1h-13z M220,13h22v1h-22z M249,13h16v1h-16z M1,14h4v1h-4z M15,14h24v1h-24z M48,12h10v3h-10z M79,14h13v1h-13z M102,14h19v1h-19z M135,14h22v1h-22z M184,14h54v1h-54z M258,14h7v1h-7z M1,15h6v1h-6z M8,15h2v1h-2z M12,15h18v1h-18z M48,15h5v1h-5z M54,15h4v1h-4z M73,15h17v1h-17z M100,15h13v1h-13z M135,15h9v1h-9z M147,15h8v1h-8z M178,15h58v1h-58z M250,15h3v1h-3z M254,15h3v1h-3z M261,15h4v1h-4z M1,16h17v1h-17z M19,16h9v1h-9z M49,16h37v1h-37z M99,16h7v1h-7z M136,16h7v1h-7z M149,16h3v1h-3z M163,16h1v1h-1z M175,16h53v1h-53z M231,16h10v1h-10z M246,16h20v1h-20z M1,17h14v1h-14z M23,17h6v1h-6z M46,17h37v1h-37z M98,17h4v1h-4z M138,17h3v1h-3z M162,17h2v1h-2z M171,17h14v1h-14z M205,17h16v1h-16z M231,17h11v1h-11z M243,17h23v1h-23z M1,18h6v1h-6z M8,18h3v1h-3z M24,18h8v1h-8z M40,18h1v1h-1z M43,18h34v1h-34z M118,18h12v1h-12z M134,18h9v1h-9z M170,18h8v1h-8z M230,18h18v1h-18z M253,18h1v1h-1z M258,18h8v1h-8z M1,19h4v1h-4z M24,19h12v1h-12z M43,19h18v1h-18z M64,19h7v1h-7z M85,19h3v1h-3z M97,18h4v2h-4z M110,19h42v1h-42z M170,19h5v1h-5z M230,19h14v1h-14z M1,20h3v1h-3z M24,20h13v1h-13z M48,20h4v1h-4z M54,20h4v1h-4z M83,20h17v1h-17z M107,20h50v1h-50z M230,20h12v1h-12z M1,21h4v1h-4z M25,21h13v1h-13z M44,21h1v1h-1z M48,21h12v1h-12z M82,21h17v1h-17z M105,21h58v1h-58z M165,21h3v1h-3z M230,21h10v1h-10z M1,22h11v1h-11z M25,22h3v1h-3z M35,22h11v1h-11z M48,22h13v1h-13z M81,22h17v1h-17z M107,22h7v1h-7z M127,22h54v1h-54z M187,22h26v1h-26z M230,22h9v1h-9z M254,22h3v1h-3z M262,19h3v4h-3z M35,23h27v1h-27z M71,23h6v1h-6z M78,23h7v1h-7z M96,23h1v1h-1z M124,23h1v1h-1z M138,23h12v1h-12z M151,23h72v1h-72z M230,23h4v1h-4z M235,23h3v1h-3z M245,23h13v1h-13z M261,23h5v1h-5z M36,24h19v1h-19z M70,24h14v1h-14z M121,24h6v1h-6z M133,24h18v1h-18z M157,24h70v1h-70z M230,24h3v1h-3z M235,24h1v1h-1z M244,24h13v1h-13z M261,24h4v1h-4z M1,23h27v3h-27z M36,25h18v1h-18z M72,25h10v1h-10z M95,25h4v1h-4z M100,25h5v1h-5z M117,25h34v1h-34z M166,25h32v1h-32z M208,25h20v1h-20z M230,25h2v1h-2z M248,25h5v1h-5z M258,25h7v1h-7z M1,26h6v1h-6z M9,26h1v1h-1z M11,26h16v1h-16z M30,26h7v1h-7z M41,26h11v1h-11z M75,26h6v1h-6z M93,26h13v1h-13z M113,26h26v1h-26z M144,26h8v1h-8z M184,26h7v1h-7z M215,26h10v1h-10z M256,26h9v1h-9z M1,27h4v1h-4z M28,27h9v1h-9z M93,27h6v1h-6z M100,27h4v1h-4z M113,27h9v1h-9z M128,27h8v1h-8z M214,27h10v1h-10z M249,27h17v1h-17z M1,28h5v1h-5z M8,28h7v1h-7z M26,28h10v1h-10z M41,27h9v2h-9z M115,28h4v1h-4z M209,28h16v1h-16z M244,28h22v1h-22z M1,29h19v1h-19z M25,29h8v1h-8z M41,29h2v1h-2z M46,29h3v1h-3z M72,29h12v1h-12z M162,29h18v1h-18z M209,29h26v1h-26z M243,29h22v1h-22z M1,30h30v1h-30z M41,30h1v1h-1z M45,30h4v1h-4z M64,30h26v1h-26z M133,30h3v1h-3z M161,30h25v1h-25z M211,30h2v1h-2z M223,30h14v1h-14z M244,30h14v1h-14z M261,30h4v1h-4z M1,31h10v1h-10z M14,31h18v1h-18z M34,31h62v1h-62z M126,31h11v1h-11z M161,31h30v1h-30z M225,31h14v1h-14z M258,31h7v1h-7z M1,32h6v1h-6z M18,32h119v1h-119z M176,32h19v1h-19z M235,32h6v1h-6z M242,32h3v1h-3z M255,32h10v1h-10z M20,33h3v1h-3z M24,33h50v1h-50z M78,33h57v1h-57z M182,33h19v1h-19z M238,33h28v1h-28z M1,33h4v2h-4z M24,34h6v1h-6z M37,34h26v1h-26z M87,34h45v1h-45z M149,34h5v1h-5z M182,34h27v1h-27z M211,34h9v1h-9z M240,34h26v1h-26z M2,35h3v1h-3z M19,34h4v2h-4z M45,35h3v1h-3z M95,35h31v1h-31z M147,35h10v1h-10z M171,35h8v1h-8z M180,35h9v1h-9z M193,35h42v1h-42z M245,35h11v1h-11z M262,35h4v1h-4z M1,36h4v1h-4z M18,36h5v1h-5z M24,35h5v2h-5z M41,36h8v1h-8z M59,36h14v1h-14z M84,36h5v1h-5z M97,36h1v1h-1z M101,36h4v1h-4z M106,36h8v1h-8z M115,36h2v1h-2z M122,36h1v1h-1z M141,36h18v1h-18z M166,36h23v1h-23z M195,36h46v1h-46z M1,37h10v1h-10z M13,37h1v1h-1z M15,37h7v1h-7z M23,37h6v1h-6z M39,37h12v1h-12z M58,37h17v1h-17z M81,37h11v1h-11z M94,37h4v1h-4z M100,37h4v1h-4z M110,37h3v1h-3z M115,37h3v1h-3z M122,37h2v1h-2z M140,37h10v1h-10z M152,37h9v1h-9z M165,37h24v1h-24z M199,37h47v1h-47z M262,36h3v2h-3z M1,38h29v1h-29z M37,38h14v1h-14z M59,38h18v1h-18z M80,38h25v1h-25z M109,38h10v1h-10z M121,38h6v1h-6z M141,38h7v1h-7z M157,38h13v1h-13z M171,38h3v1h-3z M175,38h14v1h-14z M201,38h14v1h-14z M219,38h31v1h-31z M1,39h7v1h-7z M10,39h23v1h-23z M35,39h8v1h-8z M46,39h5v1h-5z M65,39h2v1h-2z M72,39h47v1h-47z M120,39h9v1h-9z M159,39h9v1h-9z M179,39h9v1h-9z M200,39h9v1h-9z M233,39h19v1h-19z M1,40h6v1h-6z M12,40h29v1h-29z M48,40h2v1h-2z M73,40h9v1h-9z M90,40h41v1h-41z M163,40h3v1h-3z M200,40h11v1h-11z M238,40h16v1h-16z M262,38h4v3h-4z M1,41h7v1h-7z M10,41h17v1h-17z M31,41h9v1h-9z M47,41h12v1h-12z M76,41h5v1h-5z M92,41h11v1h-11z M105,41h5v1h-5z M113,41h13v1h-13z M127,41h4v1h-4z M201,41h11v1h-11z M245,41h12v1h-12z M262,41h3v1h-3z M1,42h24v1h-24z M32,42h35v1h-35z M92,42h10v1h-10z M106,42h1v1h-1z M113,42h11v1h-11z M139,42h10v1h-10z M208,42h5v1h-5z M247,42h18v1h-18z M1,43h25v1h-25z M28,43h42v1h-42z M113,43h10v1h-10z M134,43h25v1h-25z M179,40h8v4h-8z M196,43h3v1h-3z M211,43h1v1h-1z M220,43h14v1h-14z M245,43h21v1h-21z M1,44h69v1h-69z M80,44h3v1h-3z M91,43h10v2h-10z M113,44h4v1h-4z M118,44h5v1h-5z M131,44h36v1h-36z M173,44h14v1h-14z M195,44h12v1h-12z M209,44h2v1h-2z M220,44h18v1h-18z M243,44h23v1h-23z M1,45h49v1h-49z M60,45h9v1h-9z M78,45h5v1h-5z M91,45h4v1h-4z M96,45h5v1h-5z M113,45h3v1h-3z M120,45h2v1h-2z M126,45h60v1h-60z M195,45h17v1h-17z M221,45h45v1h-45z M1,46h12v1h-12z M14,46h28v1h-28z M64,46h3v1h-3z M77,46h5v1h-5z M91,46h26v1h-26z M120,46h20v1h-20z M146,46h37v1h-37z M196,46h1v1h-1z M201,46h12v1h-12z M232,46h13v1h-13z M248,46h18v1h-18z M1,47h4v1h-4z M19,47h1v1h-1z M23,47h11v1h-11z M63,47h6v1h-6z M72,47h9v1h-9z M89,47h45v1h-45z M158,47h1v1h-1z M160,47h17v1h-17z M202,47h17v1h-17z M221,47h12v1h-12z M238,47h5v1h-5z M253,47h5v1h-5z M262,47h4v1h-4z M2,48h3v1h-3z M26,48h7v1h-7z M47,48h5v1h-5z M61,48h18v1h-18z M85,48h46v1h-46z M150,48h7v1h-7z M162,48h10v1h-10z M202,48h31v1h-31z M12,49h6v1h-6z M26,49h8v1h-8z M45,49h11v1h-11z M59,49h69v1h-69z M141,49h31v1h-31z M202,49h9v1h-9z M214,49h19v1h-19z M9,50h11v1h-11z M24,50h10v1h-10z M44,50h52v1h-52z M111,50h14v1h-14z M188,50h3v1h-3z M202,50h8v1h-8z M217,50h16v1h-16z M262,48h3v3h-3z M8,51h25v1h-25z M44,51h4v1h-4z M52,51h11v1h-11z M75,51h14v1h-14z M140,50h33v2h-33z M181,51h11v1h-11z M202,51h7v1h-7z M214,51h22v1h-22z M261,51h4v1h-4z M8,52h3v1h-3z M19,52h9v1h-9z M45,52h1v1h-1z M55,52h6v1h-6z M76,52h8v1h-8z M154,52h19v1h-19z M180,52h11v1h-11z M202,52h41v1h-41z M260,52h5v1h-5z M21,53h5v1h-5z M132,53h14v1h-14z M154,53h14v1h-14z M169,53h15v1h-15z M201,53h64v1h-64z M103,54h1v1h-1z M111,54h8v1h-8z M129,54h17v1h-17z M155,54h12v1h-12z M169,54h14v1h-14z M198,54h68v1h-68z M35,55h11v1h-11z M102,55h19v1h-19z M128,55h18v1h-18z M156,55h11v1h-11z M170,55h11v1h-11z M191,55h29v1h-29z M223,55h3v1h-3z M231,55h35v1h-35z M16,56h38v1h-38z M103,56h21v1h-21z M126,56h6v1h-6z M143,56h1v1h-1z M163,56h2v1h-2z M171,56h2v1h-2z M179,56h1v1h-1z M184,56h25v1h-25z M211,56h2v1h-2z M241,56h24v1h-24z M10,57h49v1h-49z M105,57h6v1h-6z M119,57h12v1h-12z M158,57h48v1h-48z M247,57h19v1h-19z M10,58h53v1h-53z M121,58h10v1h-10z M134,58h3v1h-3z M142,58h53v1h-53z M196,58h6v1h-6z M206,58h5v1h-5z M227,58h13v1h-13z M250,58h15v1h-15z M11,59h55v1h-55z M80,59h22v1h-22z M103,59h3v1h-3z M123,59h14v1h-14z M141,59h51v1h-51z M199,59h13v1h-13z M226,59h17v1h-17z M249,59h16v1h-16z M25,60h2v1h-2z M28,60h9v1h-9z M41,60h1v1h-1z M53,60h59v1h-59z M151,60h23v1h-23z M176,60h8v1h-8z M197,60h15v1h-15z M226,60h40v1h-40z M28,61h16v1h-16z M57,61h60v1h-60z M126,60h11v2h-11z M168,61h1v1h-1z M179,61h7v1h-7z M194,61h15v1h-15z M235,61h31v1h-31z M14,62h11v1h-11z M26,62h19v1h-19z M59,62h63v1h-63z M125,62h11v1h-11z M159,62h12v1h-12z M177,62h26v1h-26z M215,62h6v1h-6z M241,62h9v1h-9z M257,62h8v1h-8z M14,63h30v1h-30z M57,63h4v1h-4z M65,63h17v1h-17z M104,63h31v1h-31z M153,63h20v1h-20z M175,63h24v1h-24z M207,63h22v1h-22z M244,63h5v1h-5z M254,63h11v1h-11z M14,64h28v1h-28z M53,64h10v1h-10z M64,64h1v1h-1z M75,64h1v1h-1z M108,64h27v1h-27z M148,64h47v1h-47z M204,64h29v1h-29z M245,64h3v1h-3z M250,64h15v1h-15z M1,49h4v17h-4z M14,65h10v1h-10z M25,65h17v1h-17z M52,65h17v1h-17z M73,65h6v1h-6z M87,65h3v1h-3z M103,65h33v1h-33z M146,65h17v1h-17z M165,65h2v1h-2z M171,65h8v1h-8z M186,65h7v1h-7z M200,65h65v1h-65z M53,66h2v1h-2z M60,66h21v1h-21z M86,66h51v1h-51z M147,66h9v1h-9z M173,66h4v1h-4z M182,66h77v1h-77z M1,66h42v2h-42z M69,67h14v1h-14z M86,67h50v1h-50z M159,67h8v1h-8z M182,67h32v1h-32z M226,67h31v1h-31z M1,68h32v1h-32z M70,68h2v1h-2z M77,68h30v1h-30z M112,68h13v1h-13z M144,68h5v1h-5z M156,68h15v1h-15z M182,68h27v1h-27z M232,68h21v1h-21z M262,66h3v3h-3z M1,69h6v1h-6z M17,69h14v1h-14z M43,69h20v1h-20z M80,69h26v1h-26z M119,69h6v1h-6z M141,69h34v1h-34z M183,69h1v1h-1z M190,69h11v1h-11z M211,69h1v1h-1z M213,69h7v1h-7z M235,69h14v1h-14z M1,70h5v1h-5z M23,70h1v1h-1z M38,70h26v1h-26z M81,70h24v1h-24z M123,70h1v1h-1z M139,70h22v1h-22z M164,70h19v1h-19z M209,70h11v1h-11z M235,70h5v1h-5z M262,69h4v2h-4z M1,71h4v1h-4z M10,71h53v1h-53z M83,71h19v1h-19z M128,71h6v1h-6z M135,71h23v1h-23z M170,71h13v1h-13z M207,71h13v1h-13z M233,71h10v1h-10z M1,72h56v1h-56z M65,72h3v1h-3z M69,72h5v1h-5z M109,72h3v1h-3z M113,72h2v1h-2z M127,72h27v1h-27z M175,72h8v1h-8z M201,72h12v1h-12z M216,72h3v1h-3z M231,72h14v1h-14z M1,73h48v1h-48z M107,73h45v1h-45z M200,73h11v1h-11z M224,73h23v1h-23z M253,73h6v1h-6z M262,71h3v3h-3z M1,74h35v1h-35z M39,74h10v1h-10z M64,73h12v2h-12z M107,74h20v1h-20z M131,74h5v1h-5z M141,74h11v1h-11z M156,74h9v1h-9z M201,74h8v1h-8z M223,74h12v1h-12z M242,74h23v1h-23z M1,75h16v1h-16z M19,75h12v1h-12z M39,75h11v1h-11z M63,75h11v1h-11z M86,75h7v1h-7z M110,75h16v1h-16z M141,75h24v1h-24z M224,75h9v1h-9z M244,75h21v1h-21z M1,76h9v1h-9z M37,76h14v1h-14z M63,76h10v1h-10z M84,76h10v1h-10z M107,76h19v1h-19z M140,76h24v1h-24z M176,76h16v1h-16z M246,76h8v1h-8z M258,76h7v1h-7z M1,77h5v1h-5z M23,77h6v1h-6z M35,77h16v1h-16z M62,77h12v1h-12z M82,77h6v1h-6z M90,77h1v1h-1z M92,77h3v1h-3z M98,77h30v1h-30z M130,77h4v1h-4z M140,77h9v1h-9z M154,77h3v1h-3z M170,77h30v1h-30z M236,77h8v1h-8z M246,77h5v1h-5z M261,77h4v1h-4z M18,78h31v1h-31z M62,78h17v1h-17z M80,78h7v1h-7z M90,78h48v1h-48z M140,78h8v1h-8z M164,78h41v1h-41z M227,78h24v1h-24z M261,78h5v1h-5z M9,79h38v1h-38z M58,79h28v1h-28z M88,79h34v1h-34z M123,79h16v1h-16z M145,79h3v1h-3z M161,79h93v1h-93z M1,78h4v3h-4z M8,80h15v1h-15z M31,80h16v1h-16z M58,80h12v1h-12z M72,80h34v1h-34z M158,80h21v1h-21z M182,80h1v1h-1z M186,80h71v1h-71z M8,81h3v1h-3z M37,81h14v1h-14z M59,81h7v1h-7z M74,81h22v1h-22z M155,81h18v1h-18z M198,81h39v1h-39z M239,81h21v1h-21z M262,79h3v3h-3z M8,82h2v1h-2z M32,82h34v1h-34z M72,82h21v1h-21z M117,82h11v1h-11z M153,82h15v1h-15z M171,82h1v1h-1z M205,82h22v1h-22z M246,82h2v1h-2z M253,82h12v1h-12z M23,83h65v1h-65z M115,83h14v1h-14z M150,83h14v1h-14z M171,83h13v1h-13z M194,83h9v1h-9z M208,83h13v1h-13z M244,83h6v1h-6z M256,83h9v1h-9z M1,81h3v4h-3z M22,84h63v1h-63z M101,84h27v1h-27z M146,84h15v1h-15z M171,84h17v1h-17z M191,84h14v1h-14z M237,84h17v1h-17z M258,84h7v1h-7z M22,85h59v1h-59z M99,85h19v1h-19z M136,85h1v1h-1z M139,85h19v1h-19z M170,85h42v1h-42z M228,85h27v1h-27z M260,85h5v1h-5z M56,86h20v1h-20z M89,86h27v1h-27z M129,86h26v1h-26z M169,86h11v1h-11z M182,86h30v1h-30z M227,86h27v1h-27z M261,86h4v1h-4z M68,87h6v1h-6z M88,87h15v1h-15z M105,87h9v1h-9z M128,87h24v1h-24z M168,87h11v1h-11z M187,87h25v1h-25z M240,87h10v1h-10z M2,85h2v4h-2z M36,88h3v1h-3z M55,88h2v1h-2z M67,88h8v1h-8z M88,88h14v1h-14z M105,88h10v1h-10z M127,88h17v1h-17z M168,88h10v1h-10z M187,88h23v1h-23z M223,88h1v1h-1z M11,89h11v1h-11z M33,89h9v1h-9z M54,89h6v1h-6z M65,89h12v1h-12z M95,89h39v1h-39z M167,89h10v1h-10z M185,89h24v1h-24z M221,89h4v1h-4z M240,88h9v2h-9z M9,90h17v1h-17z M27,90h17v1h-17z M54,90h17v1h-17z M72,90h6v1h-6z M96,90h38v1h-38z M146,90h9v1h-9z M164,90h13v1h-13z M185,90h23v1h-23z M221,90h3v1h-3z M239,90h10v1h-10z M256,90h2v1h-2z M262,87h3v4h-3z M9,91h35v1h-35z M56,91h12v1h-12z M75,91h10v1h-10z M96,91h8v1h-8z M114,91h1v1h-1z M120,91h13v1h-13z M144,91h15v1h-15z M162,91h14v1h-14z M185,91h4v1h-4z M192,91h1v1h-1z M195,91h5v1h-5z M203,91h1v1h-1z M239,91h9v1h-9z M254,91h11v1h-11z M23,92h10v1h-10z M41,92h2v1h-2z M61,92h5v1h-5z M76,92h10v1h-10z M98,92h2v1h-2z M129,92h4v1h-4z M143,92h33v1h-33z M192,92h8v1h-8z M203,92h2v1h-2z M219,92h10v1h-10z M237,92h12v1h-12z M253,92h12v1h-12z M1,89h3v5h-3z M26,93h6v1h-6z M78,93h9v1h-9z M114,93h4v1h-4z M119,93h6v1h-6z M144,93h32v1h-32z M185,93h45v1h-45z M236,93h14v1h-14z M252,93h8v1h-8z M261,93h4v1h-4z M1,94h4v1h-4z M84,94h2v1h-2z M114,94h23v1h-23z M171,94h4v1h-4z M178,94h52v1h-52z M236,94h6v1h-6z M243,94h13v1h-13z M1,95h9v1h-9z M26,95h1v1h-1z M29,95h3v1h-3z M115,95h37v1h-37z M155,95h1v1h-1z M158,94h5v2h-5z M170,95h52v1h-52z M244,95h2v1h-2z M247,95h8v1h-8z M1,96h14v1h-14z M22,96h17v1h-17z M64,96h22v1h-22z M108,96h4v1h-4z M123,96h92v1h-92z M250,96h4v1h-4z M262,94h3v3h-3z M1,97h89v1h-89z M106,97h8v1h-8z M131,97h59v1h-59z M261,97h5v1h-5z M1,98h92v1h-92z M104,98h13v1h-13z M125,98h2v1h-2z M143,98h44v1h-44z M222,98h2v1h-2z M253,98h12v1h-12z M1,99h5v1h-5z M7,99h60v1h-60z M82,99h37v1h-37z M121,99h10v1h-10z M155,99h20v1h-20z M179,99h7v1h-7z M206,99h5v1h-5z M221,99h7v1h-7z M249,99h16v1h-16z M14,100h19v1h-19z M37,100h23v1h-23z M88,100h49v1h-49z M181,100h5v1h-5z M194,100h20v1h-20z M219,100h12v1h-12z M246,100h20v1h-20z M20,101h3v1h-3z M38,101h2v1h-2z M96,101h17v1h-17z M115,101h23v1h-23z M152,101h5v1h-5z M193,101h38v1h-38z M241,101h25v1h-25z M1,100h4v3h-4z M35,102h7v1h-7z M78,102h7v1h-7z M101,102h11v1h-11z M131,102h6v1h-6z M149,102h10v1h-10z M165,102h6v1h-6z M194,102h14v1h-14z M212,102h9v1h-9z M227,102h2v1h-2z M239,102h17v1h-17z M261,102h4v1h-4z M33,103h15v1h-15z M71,103h2v1h-2z M76,103h11v1h-11z M96,103h16v1h-16z M204,103h1v1h-1z M214,103h7v1h-7z M235,103h15v1h-15z M251,103h1v1h-1z M15,103h3v2h-3z M22,104h7v1h-7z M30,104h20v1h-20z M70,104h42v1h-42z M147,103h30v2h-30z M232,104h16v1h-16z M1,103h8v3h-8z M21,105h27v1h-27z M70,105h8v1h-8z M83,105h28v1h-28z M147,105h5v1h-5z M158,105h11v1h-11z M174,105h3v1h-3z M227,105h16v1h-16z M257,105h1v1h-1z M262,103h3v3h-3z M1,106h4v1h-4z M14,105h4v2h-4z M20,106h19v1h-19z M71,106h3v1h-3z M85,106h26v1h-26z M118,106h28v1h-28z M190,106h1v1h-1z M222,106h19v1h-19z M252,106h13v1h-13z M1,107h3v1h-3z M13,107h5v1h-5z M19,107h6v1h-6z M27,107h5v1h-5z M34,107h5v1h-5z M40,106h5v2h-5z M76,107h9v1h-9z M87,107h8v1h-8z M101,107h54v1h-54z M182,107h31v1h-31z M215,107h23v1h-23z M251,107h14v1h-14z M1,108h4v1h-4z M11,108h14v1h-14z M34,108h10v1h-10z M72,108h83v1h-83z M175,108h60v1h-60z M238,108h6v1h-6z M250,108h15v1h-15z M1,109h25v1h-25z M34,109h9v1h-9z M67,109h88v1h-88z M173,109h57v1h-57z M237,109h10v1h-10z M249,109h5v1h-5z M260,109h5v1h-5z M33,110h10v1h-10z M59,110h58v1h-58z M174,110h19v1h-19z M214,110h9v1h-9z M235,110h18v1h-18z M261,110h4v1h-4z M1,110h24v2h-24z M33,111h4v1h-4z M38,111h5v1h-5z M53,111h59v1h-59z M120,111h6v1h-6z M147,111h1v1h-1z M155,111h1v1h-1z M178,111h8v1h-8z M233,111h7v1h-7z M243,111h9v1h-9z M1,112h15v1h-15z M18,112h5v1h-5z M33,112h10v1h-10z M51,112h24v1h-24z M89,112h4v1h-4z M101,112h1v1h-1z M117,112h10v1h-10z M232,112h6v1h-6z M245,112h6v1h-6z M262,111h3v2h-3z M12,113h3v1h-3z M17,113h5v1h-5z M32,113h14v1h-14z M51,113h19v1h-19z M114,113h13v1h-13z M140,112h17v2h-17z M185,113h6v1h-6z M202,113h12v1h-12z M232,113h4v1h-4z M247,113h2v1h-2z M259,113h6v1h-6z M1,113h4v2h-4z M12,114h13v1h-13z M26,114h20v1h-20z M51,114h10v1h-10z M85,114h1v1h-1z M111,114h15v1h-15z M140,114h12v1h-12z M158,113h13v2h-13z M182,114h11v1h-11z M200,114h15v1h-15z M1,115h45v1h-45z M81,115h8v1h-8z M98,115h20v1h-20z M140,115h8v1h-8z M157,115h13v1h-13z M180,115h23v1h-23z M206,115h3v1h-3z M257,114h8v2h-8z M1,116h43v1h-43z M78,116h37v1h-37z M129,116h24v1h-24z M156,116h11v1h-11z M176,116h10v1h-10z M190,116h11v1h-11z M258,116h1v1h-1z M260,116h5v1h-5z M1,117h36v1h-36z M64,117h3v1h-3z M78,117h34v1h-34z M129,117h37v1h-37z M173,117h10v1h-10z M194,117h5v1h-5z M217,117h5v1h-5z M261,117h4v1h-4z M1,118h20v1h-20z M24,118h2v1h-2z M48,118h1v1h-1z M63,118h4v1h-4z M78,118h4v1h-4z M88,118h11v1h-11z M107,118h2v1h-2z M131,118h11v1h-11z M144,118h22v1h-22z M173,118h8v1h-8z M217,118h10v1h-10z M246,118h9v1h-9z M261,118h5v1h-5z M1,119h11v1h-11z M46,119h7v1h-7z M61,119h7v1h-7z M91,119h5v1h-5z M151,119h14v1h-14z M175,119h1v1h-1z M205,119h6v1h-6z M217,119h48v1h-48z M1,120h4v1h-4z M46,120h8v1h-8z M61,120h3v1h-3z M92,120h1v1h-1z M155,120h9v1h-9z M205,120h10v1h-10z M219,120h46v1h-46z M26,121h3v1h-3z M46,121h10v1h-10z M60,121h3v1h-3z M86,121h5v1h-5z M123,121h13v1h-13z M155,121h8v1h-8z M172,121h9v1h-9z M206,121h11v1h-11z M221,121h44v1h-44z M10,122h4v1h-4z M22,122h11v1h-11z M54,122h9v1h-9z M86,122h4v1h-4z M113,122h29v1h-29z M144,122h1v1h-1z M155,122h9v1h-9z M165,122h25v1h-25z M213,122h52v1h-52z M7,123h28v1h-28z M55,123h7v1h-7z M86,123h2v1h-2z M102,123h98v1h-98z M215,123h16v1h-16z M237,123h9v1h-9z M6,124h21v1h-21z M28,124h9v1h-9z M57,124h5v1h-5z M75,124h2v1h-2z M79,124h10v1h-10z M97,124h111v1h-111z M216,124h17v1h-17z M236,124h9v1h-9z M6,125h18v1h-18z M32,125h9v1h-9z M68,125h21v1h-21z M98,125h147v1h-147z M255,125h5v1h-5z M1,121h3v6h-3z M11,126h1v1h-1z M18,126h3v1h-3z M33,126h10v1h-10z M66,126h23v1h-23z M99,126h21v1h-21z M141,126h28v1h-28z M192,126h36v1h-36z M230,126h15v1h-15z M253,126h7v1h-7z M1,127h4v1h-4z M7,127h6v1h-6z M22,127h6v1h-6z M35,127h9v1h-9z M63,127h24v1h-24z M114,127h5v1h-5z M133,127h4v1h-4z M148,127h1v1h-1z M150,127h9v1h-9z M202,127h25v1h-25z M232,127h13v1h-13z M250,127h10v1h-10z M21,128h8v1h-8z M37,128h7v1h-7z M59,128h14v1h-14z M113,128h8v1h-8z M129,128h11v1h-11z M190,128h5v1h-5z M206,128h8v1h-8z M215,128h12v1h-12z M233,128h12v1h-12z M246,128h13v1h-13z M261,123h4v6h-4z M1,128h13v2h-13z M21,129h9v1h-9z M39,129h5v1h-5z M54,129h16v1h-16z M111,129h31v1h-31z M162,129h2v1h-2z M168,129h7v1h-7z M189,129h8v1h-8z M205,129h6v1h-6z M214,129h15v1h-15z M234,129h20v1h-20z M259,129h6v1h-6z M1,130h11v1h-11z M22,130h8v1h-8z M36,130h31v1h-31z M89,130h6v1h-6z M103,130h39v1h-39z M160,130h16v1h-16z M190,130h39v1h-39z M234,130h4v1h-4z M239,130h12v1h-12z M23,131h42v1h-42z M88,131h9v1h-9z M102,131h14v1h-14z M119,131h13v1h-13z M160,131h15v1h-15z M193,131h36v1h-36z M239,131h9v1h-9z M1,131h4v2h-4z M15,132h2v1h-2z M19,132h125v1h-125z M159,132h16v1h-16z M195,132h12v1h-12z M208,132h21v1h-21z M234,131h3v2h-3z M239,132h6v1h-6z M258,130h7v3h-7z M1,133h9v1h-9z M11,133h254v1h-254z M2,134h263v1h-263z M3,135h262v1h-262z M3,136h28v1h-28z M33,136h2v1h-2z M68,136h3v1h-3z M74,136h3v1h-3z M82,136h1v1h-1z M154,136h9v1h-9z M172,136h1v1h-1z M174,136h3v1h-3z M179,136h71v1h-71z M251,136h12v1h-12z
  "/>
</svg>